<svg xmlns="http://www.w3.org/2000/svg" fill="none" class="l-header__logo" viewBox="0 0 236 40"><title>SLAC National Accelerator Laboratory</title><path fill="#8c1515" d="M146.446 2.553h.016l4.707 6.96h1.457v-8.46h-1.143v6.953h-.022l-4.663-6.954h-1.505v8.46h1.153zM156.531 7.416h4.029l.85 2.09h1.327l-3.607-8.459h-1.05l-3.727 8.46h1.338zm2.009-4.885h.027l1.576 3.889h-3.201zM165.461 9.512h1.138V2.12h2.735V1.052h-6.597V2.12h2.724zM172.638 1.052H171.5v8.46h1.138zM183.924 5.288c0-2.513-1.819-4.452-4.397-4.452-2.589 0-4.404 1.939-4.404 4.452 0 2.502 1.815 4.446 4.404 4.446 2.578-.005 4.397-1.944 4.397-4.446m-4.397 3.368c-1.934 0-3.19-1.516-3.19-3.368 0-1.863 1.256-3.374 3.19-3.374 1.939 0 3.19 1.51 3.19 3.374-.006 1.847-1.257 3.368-3.19 3.368M187.472 2.553h.027l4.701 6.96h1.457v-8.46h-1.148v6.953h-.022l-4.652-6.954h-1.506v8.46h1.143zM200.275 1.052h-1.034l-3.732 8.46h1.332l.84-2.09h4.024l.85 2.09h1.338zm-2.188 5.368 1.603-3.889h.016l1.587 3.889zM210.961 8.434h-3.878V1.052h-1.148v8.46h5.026zM152.604 24.222l-3.618-8.444h-1.045l-3.726 8.444h1.338l.834-2.085h4.029l.834 2.085zm-5.806-3.087 1.603-3.878h.022l1.587 3.878zM157.787 23.371c-1.966 0-3.147-1.516-3.147-3.303 0-1.918 1.252-3.445 3.147-3.445.78 0 1.576.347 2.042.97l.964-.72c-.682-.9-1.852-1.317-2.968-1.317-2.605 0-4.409 1.885-4.409 4.512 0 2.128 1.663 4.37 4.344 4.37 1.944 0 2.946-1.132 3.206-1.478l-.969-.731c-.498.71-1.24 1.142-2.21 1.142M166.328 16.629c.774 0 1.56.346 2.036.97l.959-.721c-.682-.9-1.847-1.316-2.962-1.316-2.6 0-4.409 1.884-4.409 4.511 0 2.129 1.657 4.37 4.349 4.37 1.933 0 2.952-1.131 3.201-1.478l-.97-.73c-.498.709-1.24 1.147-2.209 1.147-1.966 0-3.158-1.516-3.158-3.303.006-1.928 1.262-3.45 3.163-3.45M177.019 16.85v-1.072h-5.459v8.444h5.676v-1.073h-4.533v-2.708h4.018V19.37h-4.018v-2.518zM180.036 15.778v8.444h5.031v-1.073h-3.889v-7.37zM192.758 16.85v-1.072h-5.465v8.444h5.681v-1.073h-4.533v-2.708h4.013V19.37h-4.013v-2.518zM201.461 18.134c0-1.061-.547-2.356-2.713-2.356h-2.974v8.444h1.149V20.5h1.278l2.155 3.72h1.435l-2.41-3.85c1.278-.14 2.08-1.154 2.08-2.237m-3.038 1.36h-1.506v-2.72h1.506c.904 0 1.819.212 1.819 1.36s-.915 1.36-1.819 1.36M206.785 15.778l-3.721 8.444h1.332l.84-2.085h4.019l.85 2.085h1.332l-3.612-8.444zm-1.148 5.357 1.597-3.878h.028l1.586 3.878zM214.275 24.222h1.148V16.85h2.719v-1.073h-6.596v1.073h2.729zM227.652 19.997c0-2.513-1.819-4.44-4.403-4.44-2.578 0-4.403 1.927-4.403 4.44 0 2.508 1.825 4.441 4.403 4.441 2.584 0 4.403-1.933 4.403-4.44m-7.593 0c0-1.846 1.251-3.374 3.185-3.374 1.933 0 3.19 1.522 3.19 3.374 0 1.858-1.257 3.374-3.19 3.374s-3.185-1.516-3.185-3.374M233.502 20.376c1.278-.146 2.079-1.159 2.079-2.236 0-1.062-.547-2.356-2.713-2.356h-2.973v8.443h1.148v-3.72h1.278l2.15 3.72h1.441zm-2.459-.882v-2.72h1.505c.905 0 1.82.212 1.82 1.36s-.915 1.36-1.82 1.36zM165.202 34.49v-.021c.85-.293 1.451-.894 1.451-1.869 0-1.43-1.099-2.112-2.567-2.112h-2.936v8.465h2.898c1.641 0 2.973-.84 2.973-2.367.006-1.126-.812-2.025-1.819-2.096m-2.909-2.99h1.809c.915 0 1.327.564 1.327 1.236 0 .92-.699 1.267-1.571 1.267h-1.565zm1.685 6.446h-1.685V35.01h1.695c1.116 0 1.815.493 1.815 1.5 0 1.197-1.132 1.436-1.825 1.436M173.212 30.282c-2.578 0-4.42 1.934-4.42 4.441 0 2.508 1.842 4.441 4.42 4.441 2.572 0 4.403-1.933 4.403-4.44 0-2.514-1.831-4.442-4.403-4.442m0 7.81c-1.939 0-3.19-1.522-3.19-3.369 0-1.852 1.251-3.363 3.19-3.363 1.922 0 3.184 1.516 3.184 3.363 0 1.842-1.267 3.369-3.184 3.369M185.62 32.86c0-1.061-.553-2.372-2.714-2.372h-2.973v8.465h1.143v-3.737h1.278l2.155 3.737h1.43l-2.394-3.867c1.273-.135 2.075-1.154 2.075-2.226m-4.544 1.36v-2.725h1.505c.905 0 1.815.206 1.815 1.365 0 1.143-.91 1.36-1.815 1.36zM190.943 30.488l-3.726 8.465h1.338l.829-2.096h4.029l.85 2.096h1.333l-3.618-8.465zm-1.148 5.367 1.603-3.888h.022l1.576 3.888zM195.704 31.571h2.73v7.382h1.142v-7.382h2.725v-1.083h-6.597zM207.413 30.282c-2.578 0-4.419 1.934-4.419 4.441 0 2.508 1.836 4.441 4.419 4.441 2.578 0 4.409-1.933 4.409-4.44 0-2.514-1.831-4.442-4.409-4.442m0 7.81c-1.928 0-3.19-1.522-3.19-3.369 0-1.852 1.262-3.363 3.19-3.363s3.185 1.516 3.185 3.363c0 1.842-1.257 3.369-3.185 3.369M219.864 32.86c0-1.061-.547-2.372-2.713-2.372h-2.979v8.465h1.148v-3.737h1.284l2.155 3.737h1.43l-2.399-3.867c1.262-.135 2.074-1.154 2.074-2.226m-4.549 1.36v-2.725h1.511c.899 0 1.804.206 1.804 1.365 0 1.143-.905 1.36-1.804 1.36zM225.356 34.203l-2.313-3.715h-1.456l3.195 4.847v3.618h1.143v-3.618l3.217-4.847h-1.408zM146.446 30.488h-1.153v8.465h5.036V37.87h-3.883zM154.738 30.488l-3.726 8.465h1.338l.839-2.096h4.029l.84 2.096h1.343l-3.618-8.465zm-1.137 5.367 1.597-3.888h.022l1.576 3.888z" class="hide-on-sticky"/><path fill="#8c1515" d="M40.262 18.616H31.98v2.757h8.28zM40.262 24.13H31.98v14.688h27.047v-7.523H40.262zM40.262 1.182H31.98V15.86h8.28zM84.456.917h-7.631l-6.359 14.937h20.348zM66.946 24.13l-6.255 14.688h8.443l3.445-8.438H88.49l3.444 8.438h8.655L94.34 24.13zM91.995 18.616H69.29l-1.17 2.757h25.044zM111.118 19.987a5.166 5.166 0 0 0 5.167 5.166 5.166 5.166 0 1 0 0-10.333 5.163 5.163 0 0 0-5.167 5.166M104.484 21.373a12 12 0 0 1-.081-1.37c0-.471.037-.932.086-1.387h-7.674c-.027.46-.054.92-.054 1.387 0 .46.016.92.054 1.37zM116.258 8.147c3.824 0 7.209 1.82 9.375 4.626l5.069-5.866A19.45 19.45 0 0 0 116.258.5c-9.348 0-17.152 6.575-19.059 15.354h7.962c1.69-4.5 6.011-7.707 11.097-7.707M125.795 27.022c-2.155 2.924-5.621 4.83-9.532 4.83-5.091 0-9.418-3.21-11.102-7.722h-7.956c1.9 8.784 9.7 15.37 19.058 15.37 6.012 0 11.385-2.724 14.965-7.003zM16.204 15.854c-5.129-1.386-6.477-2.264-6.477-4.576 0-1.869 1.673-3.326 4.842-3.326 3.179 0 6.456 1.398 9.792 3.71l4.3-6.239C24.837 2.358 20.169.635 14.682.635c-7.69.006-13.176 4.539-13.176 11.4 0 1.501.19 2.741.536 3.82zM15.923 24.13c4.614 1.337 5.638 2.404 5.638 4.316 0 2.259-2.042 3.596-5.427 3.596-4.3 0-7.853-1.776-11.238-4.57L0 33.331c4.511 4.034 10.269 6.027 15.972 6.027 8.113 0 13.82-4.197 13.82-11.725 0-1.343-.172-2.486-.497-3.504zM3.547 18.616c.948 1.143 2.216 2.02 3.754 2.757h20.488c-.888-1.089-2.069-1.988-3.52-2.757z"/></svg>