<?xml version="1.0" encoding="UTF-8"?>
<svg id="Layer_1" data-name="Layer 1" xmlns="http://www.w3.org/2000/svg" viewBox="0 0 596.28 842.89">
  <defs>
    <style>
      .cls-1 {
        fill: #fff;
      }

      .cls-2 {
        stroke: #231f20;
        stroke-miterlimit: 10;
      }
    </style>
  </defs>
  <g id="_4a5jpl" data-name="4a5jpl">
    <rect class="cls-2" x=".5" y=".5" width="595.28" height="841.89"/>
    <g>
      <path class="cls-1" d="M441.49,653.69c-1.82-1.48-3.34-3.26-4.04-5.56-.87-2.84-.86-6.72,2.98-6.63,4.85.12,4.86,6.14,11.3,6.41,16.35.69,19.85-26.43,4.19-31.28-24.04-7.44-42.99,16.2-59.04,29.9-32.34,27.61-71.6,43.49-114.89,41.02-20.49-1.17-46.74-10.66-62.69-23.58-3.53-2.86-17.35-15.44-18.44-18.89-.18-.58-.31-1.14-.24-1.75.84-.13,1.36.28,1.99.72,3.49,2.45,7.95,8.27,11.42,11.42,24.59,22.29,54.2,30.48,87.21,28.45,30.32-1.87,55.23-14.27,77.76-33.88,18.39-16.01,36.54-42.78,63.24-44.05,11.65-.55,21.98,1.71,28.41,12.22,6.61,10.8,1.31,24.96-9.61,30.48-5.5,2.78-13.09,2.88-17.51-1.92-.59-.64-2.46-4.85-3.21-2.48-1.03,3.25,3.19,7.25,5.74,8.65,13.59,7.48,32.49-3.67,34.05-18.53,1.15-11.04-.65-18.78-8.53-26.35-20.91-20.1-57.84-4.88-77.89,9.91-7.82,5.77-16.34,15.86-23.73,22.65-17.72,16.3-41.27,30.32-65.2,34.85-29.68,5.63-71.67-8.1-90.35-32.33-.35-.46-2.54-3.4-2.54-3.62,0-.37,1.02-.8,1.45-.37l6.7,7.44c15.68,14.6,35.16,23.05,56.28,26.37,30.11,4.73,59.45-8.14,82.94-26,4.73-3.6,12.43-10.09,16.51-14.3.31-.32,2.41-2.83,2.16-3.09l-11.11,7.55c-30.73,19.43-70.82,28.52-105.61,14.36-9.6-3.91-21.33-11.24-27.92-19.3-.96-1.17-4.09-5.13-3.23-6.56.34-.11.71-.32,1.09-.23.76.18,5.47,6.28,6.66,7.45,28.19,27.73,75.17,26.75,109.31,11.4,31.03-13.95,54.55-43.07,89.82-48.27,25.71-3.79,50.36,10.59,45.72,39.18-2.95,18.21-25.74,31.08-41.13,18.55ZM466.36,642.25c4.53-3.16,5.17-10.56,4.7-15.75-1.17-13.1-15.49-19.66-27.36-18.66-30.56,2.58-49.76,35.62-73.3,52.47-5.29,3.79-11.1,6.84-16.43,10.56,3.54-1.13,7.16-3.13,10.4-5,7.95-4.59,17-10.71,24.21-16.38,16.43-12.92,34.66-35.94,57.27-36.96,11.95-.54,22.67,5.96,23.4,18.68.21,3.6-1.57,7.76-2.9,11.04Z"/>
      <path class="cls-1" d="M368.24,367.12c-6.05-6.33-15.31-8.57-23.58-5-7.26,3.13-11.23,10.59-7.91,18.18,3.69,8.44,20.34,7.87,19.04-2.73-.23-1.9-3.97-5.09-2.09-6.97,2.8-2.8,9.59,5.18,10.04,8.09,2.98,19.06-20.74,25.36-34.19,16.04-15.42-10.69-13.93-33.18-.19-44.63,17.29-14.41,41.74-12.04,57.43,3.38,1.73,1.7,5.7,6.24,6.5,8.36.23.61.26,1.15.2,1.79-.61-.08-1.62.2-2.11-.07-.25-.15-2.74-4.09-3.34-4.81-14.58-17.35-41.93-21.52-58.72-4.72-16.3,16.31-5.24,45.89,18.14,41.68,9.49-1.71,17.66-11.7,11.21-20.85l-.72.18c1.61,6.34-1.24,12.55-7.96,13.78-6.06,1.11-14.4-3.54-16.34-9.43-7.14-21.58,25.93-29.14,38.96-12.13,11.8,15.41,3.75,34.22-11.99,42.68-16.52,8.88-36.17,4.27-52.06-3.67-1.35-.45-.92.63-.24,1.34,10.28,10.66,27.85,20.26,42.3,23.3,7.39,1.56,14.98,1.72,22.35,3.32l.16,1.44c-.37.59-5.3.45-6.29.41-37.09-1.64-61.17-23.05-80.82-52.19-.74-1.1-3.06-4.39-3.31-5.4-.16-.64-.17-.66.39-1.09l7.25,9.04c1.99-3.74,2.31-8.28,1.99-12.49-1.32-17.24-15.33-22.05-30.62-20.46-.53.05-1.06-.32-.91.53l5.79,3.82-.18.72c-1.52.18-3.91-1.92-5.37-2.6-3.73-1.76-7.73-3.07-11.48-4.83-20.04-9.39-34.38-24.86-56.01-31.34-37.78-11.32-82.03-.94-98.08,37.86-9.76,23.59-.89,56.46,20.55,70.78,1.47.98,6.5,3,7.27,3.78,2.19,2.23-1.98,1.58-3.41,1.05-7.07-2.59-15.93-11.36-20.21-17.49-23.04-33.08-8.96-79.02,27.09-95.32,28.46-12.87,62.08-10.48,88.66,5.74,11.86,7.24,23.39,17.46,36.31,22.77,8.01,3.29,14.22-.03,22.24,1.32,12.69,2.15,22.62,14.67,21.61,27.66-.34,4.38-4.04,10.06-1.44,13.77,6.04,8.64,14.81,12.37,24.46,15.77,16.29,5.74,34.87,6.65,48.59-5.43,10.15-8.93,10.29-25.26,1.04-34.92Z"/>
      <path class="cls-1" d="M381.88,497.86c-.35,2.08-2.23.52-2.5-1.48-1.13-8.09.88-18.52-.03-26.78-.14-1.25-.82-2.25-1-3.35-.62-3.86-1-7.52-.87-11.45l-3.16-1.01c-.1-.94-.36-2.23.53-2.81,9.29-3.8,18.81-7.01,28.17-10.62,4.75-1.83,9.48-4.49,14.57-5.68l19.3,8.2,22.7,8.11c3.4,3.45-2.9,2.45-3.3,4.55-.26,3.88.13,8.02-.47,11.86-.15.98-.98,1.87-1.01,2.91-.14,6.94.27,14.07.32,21.01.02,3.52-.61,17.76.43,19.86.37.75,1.19,1.01,1.36,1.9.36,1.87.32,7.42.38,9.76.13,4.41-.53,9.98-.03,14.16.06.53.04.93.56,1.25h15.41l-.16,1.47c-.63.93-4.73.04-5.82.05-8.28.09-17.1.96-25.39.31-.7-.05-1.31-.21-1.98-.38v-18.66c0-1.82-5.81-3.32-6.89-.72v15.22c0,1.57-1.97-.47-2.09-.52-.62-.28-3.21-.56-3.35-.75.29-2.35,4.23.37,3.61-2.88-.85-.98-8,1.8-7.22-2.18l6.89-.18c.71-.49.27-2.01-.2-2.01h-7.61l-.89,2.37c-.43.32-.99.26-1.29-.19-1.56-2.32,1.47-7.98-2.58-10.1-1.49-.78-2.93-.15-3.71,1.27-.59,1.06-.37,3.46-2.22,1.77-1.7-1.55-.14-1.95-.36-3.81-1.92-.19-4.32.63-5.79-.91l.59-.49c8.69-.09,17.38-.05,26.07-.03,1.03,0,2.06-.41,3.25-.41,5.44.02,11.37,1.4,17.04.76.69-.08,1.32-.21,1.83-.73l-.37-2.55-54.21-.72v-1.43s1.83-.16,1.83-.16c.84-.57,0-2.68-.04-3.63-.38-12.23,1.62-26.5.4-38.44-.24-2.31-1.37-1.55-1.93-2.78-.36-.79-.08-2.29-.6-2.66-1.31-.17-4.96-.53-5.84.38-.59.79-.25,1.79-.52,2.74-.23.84-1.12,1.52-1.27,2.36-.24,1.31.33,2.38.36,3.59.27,11.16.08,22.37.35,33.53-.9.01-2.07.27-2.18-.91l-.35-37.26c-.21-.89-3.09-.68-3.49.83l.23,32.1c.06,1.27-.74,1.36-1.83,1.25v-33.88c-.41-.65-3.63-1.25-3.63-.36v29.35ZM456.2,453.12c.75-.65-2.94-2.19-3.27-2.34-5.14-2.33-11.09-3.99-16.4-6.07-6.54-2.57-12.92-5.74-19.67-7.72-9.66,3.6-19.22,7.49-28.83,11.23-1.46.57-3.17.86-4.69,1.47s-3.93,1.52-4.72,2.89c4.14-.23,8.54-2.07,12.52-3.42,8.67-2.95,17.2-6.46,25.71-9.76,13.07,4.73,25.78,10.57,39.34,13.73ZM444.23,451.67c-9.33-2.86-18.04-7.33-27.37-10.17-9.36,3.06-18.18,7.51-27.74,9.99-.24.73,1.64.75,2.06.77,16.65.62,33.66-.32,50.33.17l2.72-.75ZM379.71,457.1h74.5c.47,0,.91-1.52.2-2.01-.2-.14-4.18-.48-4.91-.52-14.99-.83-30.74-.06-45.66.01-7.91.04-15.92-.43-23.76.53l-.65.78.29,1.21ZM454.75,458.91l-75.05-.36.34,3.47,73.81.38c1.22-.18.88-2.55.89-3.48ZM391.94,466.44c2.89-2.89-7.23-2.05-8.44-2.07-.94-.01-1.77-.66-2.54-.05s-.78,1.65.38,1.85c3.07.52,6.66.08,9.75.61l.85-.33ZM403.09,466.89c1.96.32,4.65-.24,6.71,0,1.04-3.7-1.31-2.5-3.41-2.57-1.44-.05-3.61-1.19-4.52.65-.19.77.45,1.79,1.22,1.92ZM421.4,497.5c.66,3.96-.49,9.61,0,13.77.35.87,2.18.59,2.18,0v-42.75c0-.21-1.43-1.18-1.63-1.64-.4-.91.12-1.95-.52-2.74-.34-.24-7.27-.29-8.2-.18-2.44.29-1.14,2.75-1.66,3.59-.18.29-1.6.11-1.78,1.33l.8,42.32.85.61c1.55,0,.56-2.13.53-3.07-.09-2.88-.46-11.12.93-13.23,2.19-3.3,7.85-2,8.51,1.98ZM431.91,463.99h-7.79l-.83,1.32c.36,2.56,1.89,1.14,3.36,1.18,1.6.04,3.06.76,4.82-.04l.43-2.47ZM441.7,467.97l-2.02-.34-.13-3.49c-.37-.26-4.25-.27-4.9-.15-1.68.32-1.12,2.12-1.72,3.35-.36.75-1.19.99-1.36,1.9-.99,5.11-.04,17.95-.02,23.93,0,1.73.34,3.64.35,5.4.02,3.61-.85,8.03-.36,11.62.06.48.46,1.61.92,1.61h9.24v-43.84ZM453.66,466.52c-.01-.7.24-1.85-.59-2.12-2.64-.17-5.3.04-7.94-.03-.76-.02-1.58-.43-2.16-.39-1.47.1-.94,2.55-.36,2.55h11.06ZM404.41,511.76c.94-.01,3.99.47,4.27-.54-.25-3.92-.64-7.98-.71-11.89-.18-9.04,1.08-21.22.03-29.74-.05-.39.01-.83-.36-1.09-1.14-.35-3.44-.39-3.53,1.15-.29,5.13.31,10.38.26,15.56-.09,8.11-.88,16.49-.41,24.62.04.67.14,1.33.44,1.94ZM429.33,468.75c-.3-.48-3.69-.35-3.58.85l-.2,41.87c.35.51,4.25.83,4.19-.57l-.41-42.16ZM443.51,468.88v42.39c.46.8,3.06.78,3.47.2l-.21-42.23c.06-1.34-3.02-1.16-3.26-.36ZM453.3,511.82v-42.22s-.36-.73-.36-.73h-3.65s-.35.73-.35.73l.18,41.49c1.12,1.07,2.77.67,4.18.72ZM415.86,495.21c-.8.23-1.92,1.83-2.05,2.68-.62,3.9.37,9.27.03,13.33.36,1.1,4.09.46,5.16.54l.44-.29c.41-.58.35-13.04.08-14.26-.33-1.47-2.25-2.41-3.65-2.01ZM422.49,520.87h8.16c.72,0,.72-2.17,0-2.17h-7.98l-.52.59.34,1.59ZM454.75,520.87c.46-.62.15-2.17-.54-2.17h-11.96c-.72,0-.72,2.17,0,2.17h12.51ZM423.03,523.04c-.87.35-.59,2.17,0,2.17h7.25c.16,0,.94-.9.92-1.27l-.56-.91h-7.61ZM442.61,523.04l-.54,1.26.6.49c3.12.19,6.26-.04,9.38.04.96.03,2.57.98,2.73-.53l-.57-1.26h-11.6ZM454.7,527.45c-1.02-.69-1.97-.06-3.01-.04-2.48.04-6.52-.41-8.71-.01-1.41.25-1.32,1.64.34,1.83,2.33.26,8.11.35,10.49.22.31-.02.63-.16.9-.29v-1.71ZM442.61,531.38l-.37.35c-.56,1.61.04,1.73,1.44,1.84,2.71.22,5.34-.33,8-.41.72-.02,1.71.39,2.13.31,1.16-.22,1.12-2.09.4-2.09h-11.6ZM454.7,537.85c.4-3.87-.55-2.52-3.02-2.47-2.18.05-4.38,0-6.56,0-1.43,0-4.42-1.02-2.89,2.16.68,1.4,2.82.37,3.97.34,1.25-.03,8.26.33,8.49-.03Z"/>
      <path class="cls-1" d="M491,552.39c-2.55-.26-11.15.87-12.49-1.1-.43-.63-.5-1.58-.57-2.33-.56-6.1.45-13.03,0-19.22.33-1.71,2.4-.66,2.92-1.05l.34-14.9.75-8.67.33-28.29.75-8.3c-.3-4.37.21-8.72.36-13.04.25-7.26,0-14.5.36-21.76.12-2.42,1.7-12.44.27-13.87-.33-.33-1.08-.19-1.4-.68-.22-.35-.7-2.38-.7-2.85.01-2.01,1.52-1.94,1.99-2.72.92-1.52.69-10.14.1-12.04-.52-1.71-2.05-2.13-1.95-4.74.07-1.93.64-2.07,2.42-2.21.95-.63,0-5.25-.04-6.52-.12-4.59.05-9.21,0-13.8,0-.6.33-1.27.28-1.75-.14-1.23-2.65-2.42-2.33-5.07.18-1.51,2-1.47,2.1-1.91.18-.8-.46-1.77-.39-2.48s.85-.98,1.02-1.52c.3-.96-.06-2.32.16-3.46.19-1.01,1.7-6.6,2.07-6.99.62-.65,1.36-.89,1.75.09.4,3.55,2.81,6.6,2.62,10.25l1.1-.17c2-3.43,2.38-7.85,4.89-11.06.65-.16.71.52.89.92,1.24,2.83,1.88,6.57,3.25,9.43.19.39.32,1,.93.88l3.99-10.87c1.92-2.83,2.65,5.71,2.76,6.31.1.56.63,1.02.69,1.52.1.75-.45,1.49-.31,2.07s1.13.93,1.32,1.59c.27.93-.08,2.09.15,3.11.33,1.48,2.01,1.49,1.21,3.9-.25.75-1.12,1.24-1.38,1.88-1.11,2.75,0,14.54.12,18.2.04,1.19-.62,4.64-.07,5.45.96,1.43,2.23.39,1.86,3.61-.24,2.07-2.05,2.49-2.19,3.64-.08.59.27,1.15.24,1.73-.14,2.48-.49,7.49.2,9.78.23.74,1.29.91,1.71,1.56,1.07,1.63-.79,3.16-1.03,4.69-.35,2.2-.08,6.28-.04,8.69.54,30.3,1.12,60.64,2.21,90.91.1,2.88-.15,5.78.03,8.66l.3.43c3.03-.02,3.1,1.71,3.29,4.32.25,3.41.45,11.67-.04,14.84-.35,2.31-2.51,1.79-2.51,1.11v-11.59l-.54-.54h-8.34c-.52.32-.5.72-.56,1.25-.49,4.15.85,8.77.36,13,.95,1.03,2.51-.39,3.27,1.15,0,1.35-5.47,1.02-6.52.54.09-1.11.94-1.52,1.1-2.7.32-2.28.28-9.65,0-11.99-.06-.53-.04-.93-.56-1.25h-11.96l-.54.54v15.4ZM497.17,354.57c-.53,2.25-.55,4.21-2.14,6.03l.52.83c.85-.59,4.45.02,4.5-.88-1.27-1.42-1.25-3.81-1.89-5.36-.21-.5-.43-.73-1-.62ZM488,358.97c-1.93.98-.47,2.15-.28,3.41.23,1.48-.34,5.33,2.16,2.8.19-.75-.79-1.24-.71-2.08s1.18-1.03,1.12-2.16c-.05-1.02-1.13-2.39-2.29-1.97ZM506.12,359.35c-.75.23-1.69,1.82-1.19,2.49l3.12.91c1.06-.63.93-4.28-1.94-3.4ZM495.17,365.8c1.49.25,4.13,0,5.8,0,.12,0,.26.27.44.27l1.03-.64c1.09-2.23-5.01-2.31-6.2-2.18-1.5.15-2.17.44-1.93,2.16.32.01.68.37.87.4ZM505.56,365.75l2.49.24c.75-.74.84-1.55.18-2.38-1.57-.63-3.3.26-2.67,2.14ZM503.33,394.79v-26.27c-.23-.37-.5-.47-.91-.54-3.42-.62-7.03-.39-10.45.06l-.6.48v25.72c0,.38,1.03.69,1.45.54v-20.83c0-.39.92-1.94,1.26-2.36,2.21-2.77,5.58-2.24,7.53.46l.61,22.57,1.11.16ZM508.41,394.79v-25.18l.71-.36c.73,1.02,2.2.43,1.82-.72-.2-.62-4.74-1.31-5.28-.57l.19,26.61,2.56.22ZM487.02,370.69v23.55l.35.37c3.13,1.02,1.5-4.02,1.45-5.79-.2-6.95.08-13.92.38-20.85-4.15-.08-2.35.96-2.18,2.72ZM500.07,394.79v-20.83c0-3.14-5.07-3.47-5.45.71s.2,8.55.39,12.68c.11,2.35-.25,4.76.14,7.1l4.92.34ZM484.3,399.13h26.46c.47,0,.91-1.54.2-2.01-.16-.11-3.31-.53-3.82-.55-6.43-.25-14.63-.2-21.03.38-.68.06-1.77-.65-2.37.24l.56,1.94ZM486.84,400.58l-.54.54v12.32c.66.81,2.1.61,3.1.56,3.46-.18,7.02-.62,10.48-.75,2.34-.09,5.91.4,7.99.01.41-.07.68-.18.91-.54v-11.23c0-.79-2.78-.91-3.44-.91h-18.49ZM485.85,415.54c-2.52.38-3.08,1.72-.48,2.46,7.35-.66,16.05.82,23.23-.01,2.7-.31,2.7-2.24,0-2.55-4.46-.52-18.41-.55-22.75.1ZM492.64,419.79h-5.8c-1.06,1.52-.41,4.08-.53,5.99-.39,6.59-.52,13.32-.74,19.92-.18,5.54-.2,11.15-.74,16.65l.03,27.2-.75,9.75c.49,9.67-.85,19.39-.03,28.97.55.78,12.72-.15,14.74-.17,3.92-.04,7.9.37,11.79.22l.34-.75-1.43-106.9-.24-.57c-.97-.45-6.12-.62-6.33.28l.38,105.92c-.69-.02-2.3.24-2.5-.57l.29-104.71c-.07-1.99-4.48-1.09-5.9-1.19l-.61.87.75,105.41c-.03.37-2.34.42-2.49-.4l-.23-105.93ZM515.24,530.71l-34.87-.07c-.65.15-.94,3.37-.26,3.84,8.11.1,16.38.41,24.51.17.86-.02,1.65-.36,2.51-.39,2.14-.09,5.34.36,7.25,0,.57-.11,1-.37,1.2-.94l-.33-2.62ZM479.77,536.45v13.95l.54.54h8.34l.54-.54v-13.04c0-.06-.84-.91-.91-.91h-8.52Z"/>
      <path class="cls-1" d="M374.27,438.08c.3-.98,4.48-1.03,5-3.34-.38-5.76.77-12.81.09-18.41-.23-1.88-1.74-3.14-1.43-5.73.46-3.88,3.48-3.36,5.7-5.56.12-1.79.1-3.59.09-5.38-.01-2.81.09-2.25.6-4.8,3.06-15.23,3.04-22.22,15.88-32.67,1.21-.98,6.79-3.95,6.99-4.61.8-2.59-2.27-5.4,2.26-6.51-.37-1.92.58-8.15-.35-9.39-.5-.67-1.5-.34-1.47-1.74.04-1.89,1.4-.99,1.99-1.66.68-.77,2.03-5,2.78-6.28s1.76-2.28,2.83-3.33v-.53s-1.46-1.27-1.46-1.27c0-.9,1.6-1.4,1.82-2.54.43-2.29-1.25-14.16.06-14.98.61-.1,1.33-.14,1.95-.06,2.8.36,8.77,3.79,11.19,3.62.96-.07,2.5-1.38,2.97.34l-.21,8.72c-2.16.13-4.53-.2-6.6-.82-1.25-.37-5.79-3.26-6.38-1.47-.21.63-.5,3.18-.36,3.84.32,1.5,2.34,1.97,2.11,4.04-.07.59-.58,1.08-.63,1.53-.16,1.44,2.18,3.26,2.88,4.58s.88,3.2,1.79,4.37c.46.6,1.99,1.36,2.11,1.89.21.93-1.48.79-1.86,1.75-.55,1.39-.54,8.43.26,9.63.38.57,1.08.68,1.41,1.13.99,1.33.37,3.8.62,5.36,3.49,1.16,7.31,4.33,9.88,6.97,8.11,8.33,12.31,20.39,13.97,31.69.39,2.64-.29,5.91.07,8.62.29.84,4.88,1.8,5.31,3.75.2.88.24,4.12.07,4.99-.21,1.1-1.56,1.32-1.46,2.53l.03,18.85c.42,2.22,3.78,1.79,4.44,3.17l.26,7.89c-2.71.07-.6-6.2-2.05-6.53l-22.97-.88c-.85-.89.02-1.2.9-1.3,5.73-.62,12.14.93,17.96.38,1.25-1.07-6.05-3.3-6.52-3.44-15.86-4.67-49.2-5.22-64.25,1.72-.57.26-1.12.77-1.36,1.35h17.77s0,1.08,0,1.08l-21.87,1.15c-1.82.61.93,7.84-2.78,7.19v-8.88ZM417.77,311.82c.04,1.14-.27,4.6.72,5.26.54.36,2.48.37,3.34.64,4.33,1.38,10.03,5.46,7.92-2.85-4.27.1-7.76-3.08-11.99-3.06ZM411.97,338.63c2.35-.85,4.94-.91,7.43-.72.76.06,2.88,1.2,3.08.17.13-.7-3.37-5.69-4.36-6.14-3.12-1.44-6.73,6.06-6.16,6.69ZM411.61,340.98v9.78l.9.54.55-.54v-7.61l1.81-.54v8.15l.55.54.9-.54v-7.97c0-.68,1.81-.68,1.81,0v7.97c0,.38,1.04.7,1.45.54.89-.6-.34-7.17.07-8.45.34-1.07,1.75-.5,1.75-.06v7.97c0,.22.75.7,1.09.54-.26-1.68.34-3.27.39-4.88.03-1.29-.31-2.16-.39-3.27-.07-.96,1.1-2.34-.91-2.71-1.79-.33-6.2-.57-7.99-.39-.65.07-1.76.17-1.97.93ZM424.61,353.54c-3.58-.33-6.58-1.51-10.27-1.13-2.05.21-3.25,1.42-5.25,1.64-1.19.56-.28,1.73-.37,2.71,3.6-.76,8.07-1.07,11.78-.88,2.81.14,5.67,2.62,4.12-2.33ZM403.27,388.27c1.31-.49,6.5.07,6.84-.96-.3-6.01.92-11.86,1.83-17.74.45-2.96.36-5.47,1.31-8.47.22-.68,2.13-3.33.71-3.63-.49-.11-.81.42-1.06.75-6.46,8.2-8.69,16.32-9.62,26.61-.1,1.13.05,2.3,0,3.44ZM417.77,357.83c-1.23-.85-2.64,3.43-2.81,4.25-1.44,6.84-1.98,15.75-2.24,22.76-.03.92-.45,1.77-.38,2.7h9.06c-.27-10.04-.83-20.04-3.63-29.71ZM424.12,387.9h6.34c-.09-2.11.12-4.25.01-6.36-.22-4.44-1.84-10.72-3.68-14.8-.69-1.54-4.22-7.35-5.28-8.47-.46-.49-.95-.81-1.58-.24.24,3.22,1.59,6.61,2.15,9.79.43,2.45.95,6.22,1.11,8.67.2,2.99-.5,7.48.01,10.13.08.43.54,1.18.9,1.28ZM409.8,359.64c-.66-.08-1.14.37-1.62.73-6.2,4.54-11.89,16.49-13.44,23.89-.14.69-.72,5.26-.52,5.46l6.82-1.16c.75-2.38.22-4.88.48-7.31.5-4.74,2.58-12.66,4.96-16.79.35-.62,3.66-4.51,3.34-4.81ZM425.39,360.37c-.5.53,3.03,5.21,3.44,6.16.58,1.34,1.08,3.58,1.45,5.07,1.32,5.26,1.88,10.67,2.41,16.07.44,1.36,4.94.92,6.26,1.64,1.24-.3-.01-2.9-.12-3.8-1.15-10.05-4.02-17.32-11.62-24.25-.28-.25-1.55-1.19-1.83-.89ZM387.68,390.8c1.71.16,3.4-.27,4.91-1.07,1.11-6.67,2.14-14.55,5.66-20.43.64-1.07,5.58-6.4,5.01-7.12-9.27,6.04-15.12,17.64-15.59,28.62ZM435.32,366.02c-.85-.86-1.94-3.14-3.41-2.58,6.28,7.18,7.85,16.88,9.5,26.01.77,1.46,3.82,1.25,5.35,1.71.2-4.21-1.21-8.97-2.83-12.92-2.1-5.11-4.8-8.34-8.62-12.21ZM448.59,395.87c-.43-2.36-1.53-2.86-3.61-3.45-12.65-3.59-33.13-3.81-46.2-1.95-2.3.33-10.27,1.92-12.03,2.83-1.11.57-1.69,1.69-.89,2.77l.52.14c4.76-1.47,9.58-2.64,14.54-3.24,13.38-1.62,28.37-1.36,41.58,1.55,1.05.23,5.42,2.23,6.09,1.34ZM448.14,398.13c-11.99-3.84-25.56-5.09-38.18-4.45-5.52.28-14.9,1.49-20.11,3.09-5.66,1.74-4.77,2.48-4.35,8.16l11.46-2.13c13.81-1.75,27.76-1.94,41.61,0,1.63.23,8.84,2.2,9.67,1.62.55-.97.57-5.71-.11-6.28ZM454.39,412.54c0-1.2-.21-3.31-1.1-4.15-.82-.78-6.9-2.63-8.31-2.93-16.54-3.53-37.85-3.23-54.41,0-1.71.33-7.8,2.09-9.02,2.94-1.04.72-2.32,4.18-.64,4.09,2.98-1.04,6.16-1.76,9.24-2.38,16.33-3.27,36.35-3.49,52.71-.36,3.86.74,7.72,1.85,11.53,2.78ZM410.16,428.66v-18.48c0-1.4-6.82-.23-8-.02-.38.26-.31.7-.36,1.09-.47,3.74-.17,10.92,0,14.89.06,1.26.16,2.52.41,3.75l7.33-.32c.22-.05.58-.74.61-.92ZM411.61,409.64v19.02l.54.54h10.33l-.41-19.51c-.41-.66-10.13-.58-10.46-.05ZM432.27,429.03v-18.12c0-.21-.65-1.1-.96-1.21-.58-.19-6.15-.52-6.75-.35-.37.11-.83.49-.9.87l.33,18.39c.41,1.19,6.57,1.07,7.87,1.26.06-.29.39-.65.42-.85ZM397.83,415.62c.66,3.96-.49,9.61,0,13.77,3.37,2.84,1.83-3.68,1.8-5.42-.09-4.23.22-8.43.31-12.62-.5-1.92-5.36-.71-6.82-.26v19.38c0,1.22,2.9.83,2.9,0v-15.76c.9-.12,1.64-.1,1.81.91ZM440.97,430.47v-19.2c-1.85-.9-5.41-1.5-7.25-.36v16.67l.33,2.2c.36.74,1.85.56,1.85-.03v-14.49c0-.13.37-.59.42-.85l1.75-.05.06,16.07c.17.57.67.6,1.22.63.35.02.7,0,1.03-.09l.6-.49ZM444.6,431.74v-15.04c0-.68,1.81-.68,1.81,0v14.85c0,.32,1.76,1.5,2.32,1.25l.58-.53v-18.48c0-1.42-5.27-2.22-6.52-2.36-.32,2.14.32,4.29.38,6.32.1,3.89-.68,8.78-.38,12.34.05.54.18,1.09.42,1.57l1.4.05ZM384.78,414.89c-.05,5.98.04,11.96,0,17.93,3.76-.03,2.21-3.01,2.16-5.24s-.38-9.24.09-10.81c.08-.26.23-.47.44-.65.69-.63,2.03-.47,2.03.58v15.4l1.11-.16.31-20.1c-.21-.18-4.86.75-5.32.96-1.45.67-.81,1.38-.81,2.09ZM452.94,433.92l.34-19.06c-.03-1.23-2.07-1.31-2.17-.64l.75,19.69h1.08ZM382.61,414.35c-1.01-.16-1.49.21-1.47,1.25l.38,17.95c1.95-.12.7-2,.74-3.05.01-.33.35-.63.35-.75v-15.4Z"/>
      <path class="cls-1" d="M274.57,549.86c.17-.18,1.28.28,1.48.61,1.47,2.43.02,13.16,1.11,13.84l4.66.05c-.78-6.09,1.48-.93,2.81.01,1.14.81,3.32.32,2.99,2.16-6.25-.22-12.41.16-18.57,1.19-3.68.61-8.01,2.23-11.75,2.41-3.31.16,1.99-2.84,2.76-3.42-.01-1.2-1.66.09-1.83-1.45l-.35-41.11c-.5.09-.72.66-.92,1.07-.73,1.41-3.51,7.1-3.7,8.26-.41,2.55,1.85,5.47,1,8.43-1.46,0-1.29-1.85-1.74-2.78-.83-1.75-2.07-3.33-2.24-5.34,3-5.3,6.74-11.71,7.51-17.87.72-5.75-.05-12.33.44-18.04s4.63-8.94,8.64-3.54l1.17,19.12c2.07,10.67,5.74,21.99,10.81,31.58.73,1.38,5.8,9.74,6.59,10.1,1.52.69,1.49-1.88,3.98-.74,1,.46,6.22,5.35,6.45,6.26.11.43.18.86.03,1.3-.6,1.03-1.51.96-2.49.6.11-.79.58-1.3.19-2.16s-3.88-3.72-4.91-4.17c-.31-.14-2.1-.9-1.8-.01.77,2.28,5.94,5.34,7.23,7.63l6.54,4.51-.68-2.66c2.6-3.24,11.78,2.84,11.93,5.77.07,1.21-1.36,1.42-1.1,2.68l6.68,2.52c.57-.12.65-1.68.98-2.29,2.43-4.53,12.81-.56,13.01,2.88.1,1.7-1.54,1.21-2.18,2.32l13.61.02c5.65-2.03,11.49-4.14,16.92-6.64,7.73-3.55,12.87-13.34,14.78-21.28-2.05,1.49-2.85-3.17-4.37-2.01-.62.47-.83,4.56-.71,5.46.22,1.78,1.9,2.84.56,5.25l-.81.08c-2.08-.79-1.93-10.2-.98-12.02.54-1.03,1.59-1.7,2.78-1.4,1.73.44,3.88,5.18,4.28,1.93.12-.95.58-5.2-.02-5.63-3.24,2.47-7.73-5.22-7.61-7.4.04-.71,1.27-2.53,1.99-2.38,1.13.23-.11,1.74-.13,2.33-.11,2.69,2.34,5.47,5.03,5.64-.45-3.76-2.24-8.16-4.56-11.2-9.18-12.03-29.3-11.36-34.51,3.85-1.65,4.82-1.28,12.39,3,15.69l.9-.58c-3.38-7.55.91-17.22,9.99-16.11,3.54.43,7.12,5.55,7.9,8.77,2.75,11.38-7.53,21.44-17.64,24.26-25.47,7.11-51.31-11.98-60.48-34.95-.61-1.54-1.8-3.88.77-3.86,4.27,13.37,12.81,24.07,25.07,30.93s27.8,10.11,40.89,2.9c.53-.29,5.03-3.15,4.38-3.77-2.6.6-4.99,2.08-7.53,2.79-12.58,3.55-26.22-6.49-33.98-15.47-17.89-20.71-13.22-48.58-21.39-73.19-2.93-8.82-7.42-17.15-11.5-25.46-.18-.36-2.78-3.39-1.18-3.17,1.05.14,2.28,1.68,2.87,2.57,4.72,7,9.7,16.97,12.33,24.99,9.42,28.71,2.79,64.16,32.13,82.38,8.36,5.19,22.65,8.01,29.85-.54,4.16-4.94,4.2-16.35-3.97-16.28-5.01.05-8.03,6.26-7.41,10.67.28,1.98,2.89,5.96-1.56,5.19-6.41-1.1-7.59-12.67-6.27-17.69,5.02-19.16,28.68-19.87,39.86-5.37,8.79,11.4,6.98,23.5.16,35.23-8.55,14.71-35.01,21.15-50.62,17.01-22.6-6-39.45-20.84-48.93-42.04l-5.35-14.94c-1.02-.02-.94,7.63-.92,8.52.14,8.86.84,17.93.74,26.79,0,.75-.84,5.26.91,5.26h5.44l.54-.54v-14.31ZM265.87,564.35c.29-1.91-.33-3.77-.38-5.6-.56-18.88,1.21-38.98.03-57.64-.07-1.18-.62-6.01-1.46-6.51-2.17-1.32-3.14,1.95-3.29,3.62-.92,10.33.02,23.49.03,34.06.01,10.69-.04,21.39-.01,32.08h5.08ZM309.01,572.68c.3-2.3.53-2.5-1.28-3.98-.63-.52-5.66-3.64-5.97-1.99-.27,1.4,2.24,2.34,2.88,2.92,1.3,1.18,1.66,3.45,4.37,3.06ZM321.43,576.22c.27.22,6.22,1.82,6.7,1.81.59-.01.88-.42,1.17-.86.23-1.27-5.9-3.22-7.03-3.04s-1.67,1.43-.83,2.09Z"/>
      <path class="cls-1" d="M221.67,517.94c4.99,2.08,10.21,5.14,14.3,8.72,10.67,9.33,20.01,22.44,17.11,37.41-1.04,5.37-4.75,12.94-10.21,14.79-1.22.41-4.35.66-5.09,1.43-2.42,5.25-4.71,11.27-7.74,16.18-.88,1.43-2.22,3.72-4.04,2.12,1.17-2.81,2.92-5.35,4.23-8.08.91-1.89,4.95-10.43,4.81-11.82-.19-1.96-2.04-2.18-3.08-3.11-3.37-3.01-5.91-5.48-9.86-7.9-15.45-9.46-43.88-21.6-61.94-22.18-.66-.02-1.33.09-1.89.46-1.17,4-3.17,7.66-4.54,11.58-1.74,4.99-3.11,10.65-4.51,15.79-.15.56-.89,6.09-1.91,5.15l-.36-5.61c1.53-10.09,5.76-19.42,9.03-28.99-2.61-4.66-4.04-8.14-2.71-13.6,2.13-8.74,10.02-14.97,17.97-18.27,9.34-3.88,16.32-3.9,26.22-2.32,5.31.85,10.57,2.33,15.79,3.54.54-1.3,1.15-2.91,1.91-4.08,3.14-4.89,12.07-15.56,18.25-15.48,4.62.06,3.31,2.73,4.35,5.82.97,2.88,3.61,4.85.36,7.25-2.91,2.15-7.33.89-11.39,4.2-1.03.84-5.84,5.91-5.08,7ZM221.51,505.16c-2.28,2.77-5.85,5.94-5.14,9.94l2.93,1.06c1.07,0,3.15-4.08,3.97-5.07,1.64-1.98,4.06-3.91,6.55-4.69,1.95-.61,5.35-.54,6.79-1.18.44-.2.6-.27.61-.8,0-.39-2.14-6.76-2.45-7.36-.68-1.32-2.47-.57-3.61-.17-4.45,1.56-6.86,4.88-9.67,8.28ZM201.34,512.9c-6.02-.55-12.19-2.09-18.27-1.41-4.11.46-14.2,4.26-17.6,6.69-3.83,2.74-9.23,9.36-9.77,14.14-.25,2.25.79,7.56,2.18,9.33,1.12,1.43,2.31.72,3.71,1,26.28,5.16,46.14,12.55,68.13,27.92,5.66,3.96,10.58,10.74,16.72,2.45,7.52-10.16,4.01-26.99-3.78-36.04-8.72-10.12-20.83-18.56-33.72-22.1-.98-.27-6.46-1.62-6.89-1.26.14,2.72,1.44,5.16,2.99,7.37,1.43.09,7.04-2,7.84-.81.45,2.5-1.47,1.51-2.96,1.86-1.17.27-2.32.84-3.52,1.01.61,1.57,2.65,9.36,3.6,9.97.45.29.66.18,1.09-.02,1.1-.5,2.43-1.53,3.75-2.06,1.05-.42,4.92-1.36,5.15-1.74,1.26-2.08-3.95-6.37-3.46-8.7.87-.88,4.18,3.84,4.65,4.59.63,1.01.75,2.12,1.4,3.05,2.37-.09,4.88-1.06,7,.87.41,1.77-6.31.57-6.43,2.17,1.63,1.6,2.32,8.9,3.26,9.88,1.12,1.16,4.07-.96,5.37-1.53s2.6-.98,3.95-1.31c.9-1.29-2.47-4.78-2.82-5.64-.87-2.11,2.08.34,2.49.77,2.26,2.34,1.68,3.15,2.63,5.71,1.27,3.44,2.75,6.7,3.17,10.43l5.43-1.81c.91,2.35-4.75,3.77-5.02,4.58-.36,1.83.34,3.57.32,5.37-.04,3.3-1.51,6.69-1.82,9.98.23.27,2.57-1.7,2.9-1.99.9-.78,4.48-5.06,5.24-4.9l.51.85c-.11,1.19-6.32,7.03-7.59,8-.62.47-1.46.68-2.13,1.13-1.04.69-1.69,2.21-3.28,1.97-.2-2.36,1.27-4.36,1.9-6.61.7-2.47,2.69-10.1,1.37-12.08-.25-.37-.57-.59-.99-.25l-13.34,8.79c-.53-.38-.54-.56-.48-1.17.24-2.65,1.54-5.92,1.76-8.78.11-1.47.54-7.76-1.58-7.35-.26.05-4.15,2.16-4.72,2.51-.83.5-2.97,1.91-3.68,2.48-1.17.94-5.23,6.56-5.64,3.1-.33-2.85-.02-6.44-.38-9.4-.25-2.09-.99-4.62-1.44-6.71-1.31-.92-7.64,4.62-8.86,5.75-.89.83-3.61,4.27-4.16,4.55-.4.21-.8.26-1.23.14-1.39-.47-.85-5.62-1-6.99-.34-3.23-1.81-6.72-2.13-10.01-.41-.06-.7,0-1.08.19-1.93.97-6.79,6.02-8.07,7.87-.82,1.19-1.26,4.01-2.94,3.55-1.48-.41-2.54-9.7-2.86-11.34-.24-1.19-.87-4.34-1.28-5.26-.13-.29-.08-.68-.62-.45-.38.16-4.73,5.54-5.27,6.33-1.57,2.27-2.54,4.61-2.53,7.43-.76.86-1.72-2.96-1.78-3.47-.1-.82-.18-2.82.04-3.52.3-.97,1.25-.74,1.63-1.09,1.17-1.12,2.42-3.11,3.55-4.24.89-.89,3.86-2.81,4.29-3.71,1-2.06-2.6-5.68-.11-6.97,3.24-1.67.7,6.06,2.71,5.62.51-.46.92-1.02,1.51-1.39,1.45-.89,6.56-3.03,7.21-3.66,1.21-1.17-.04-2.26.19-3.06.2-.72,2.34-.82,2.82-.53.22.14.57,1.67.84,2.06.55.35,6.12-1.19,7.42-1.35s2.71.11,3.95-.05c.5-.06,1.08-.21.54-.72ZM202.79,521.95c-.05-2.27-3.11-4.46-1.61-6.5l-.38-.72c-1.6.59-10.59,1.39-11.03,2.76l2.51,8.82c3.53-1.44,6.73-3.52,10.51-4.35ZM190.04,528.42c.58-.93-1.43-7.61-1.93-9.01-.14-.4-.36-.93-.79-1.05-1-.28-9.08,3.88-10.07,5.07s.21,3.15.43,4.59c.54,3.54,1.1,7.05,1.72,10.6.44.59.57.21.86-.24,2.17-3.31,3.62-5.43,6.75-8.11.73-.63,2.93-1.71,3.03-1.86ZM207.85,534.98c.09-.39.03-.78-.06-1.16-.31-1.33-2.31-7.03-2.9-8.34-.21-.47-.32-1.11-.89-1.3-1.79-.59-8.96,3.42-10.94,4.36-.53.85,1.38,6.13,1.67,7.46.44,2.02.15,4.81,1.36,6.62.83.18,9.38-8.06,11.76-7.63ZM210.82,535.05c-.64,1,1.7,9.58,2.03,11.46.21,1.18-.27,2.54.64,3.33l10.67-6.73.33-1.33c-1.18-1.61-2.27-9.45-3.55-10.25-.38-.23-.78-.23-1.19-.11l-8.92,3.61ZM236.47,540.48c-1.15-.8-7.36,2.65-8.97,2.91l-.05,14.81,11.43-7.25c-.16-3.5-1.38-7.08-2.41-10.47Z"/>
      <path class="cls-1" d="M82.65,484.87c-9.75,11.42-20.14,17.99-25.41,33.12-10.93,31.37,10.56,55.91,40.34,61.84,6.59,1.31,13.06,2.01,19.78,1.24.78.26.69,1.42.54,2.08-8.7,2.11-16.89,1.07-25.4-1.14-42.57-11.08-59.86-61.57-34.16-97.33,3.17-4.42,7.69-8.56,11.02-12.89,2.22-2.88,2.57-6.42,2.91-9.95l1.83.16.52,2.01c1.51-1.84,2.32-4.07,1.95-6.47-5.06-1.1-5.09-6.17-3.58-10.18-1.03-.47-2.27-.22-3.28-.53-2.66-.84-3.01-5.7-3.84-5.97-2.91.41-5.6,2.14-8.2-.38-.19-.18-1.97-3.34-2.01-3.54-.1-.53.41-1.15.14-1.55-.69-1.03-2.12.49-2.74-.54l1.03-.59c.59-1.01-1.64-2.19-2.47-2.35-1.25-.25-2.96,1.34-4.39-.65-.64-.89-.12-2.22-.61-3.38-.39-.94-3.68-4.17-4.59-5.56-10.41-15.88-2-42.07,17.82-45.17,12.72-1.99,25,9.48,20.1,22.26-1.1,2.87-5.73,7.23-8.94,6.64-2.14-.39.44-1.98.92-3.06,1.8-4.02,1.98-11.88-3.09-13.63-14.03-4.85-21.46,17.79-11.4,27.34,9.94,9.44,25.94,8.06,34.2,21.26,10.7,17.1,2.77,33.15-8.99,46.94ZM51.98,540.44v-13.95c0-3.99,4.14-14.01,6.23-17.69,8.52-15.02,24.15-24.26,31.54-39.86,6.56-13.86,5.82-28.45-8.44-36.62-11.52-6.6-28.8-9.22-31.05-25.12-1.63-11.47,7.74-27.16,20.54-19.44,3.99,2.41,6.31,9.02,4.39,13.36,1.3.41,2.45-2.28,2.83-3.34,2.91-8.24-2.96-16.37-11.44-17.39-22.95-2.77-32.33,24.92-21.05,42.07,8.28,12.6,24.47,10.12,31.42,21.48,11.5,18.82-11.21,33.45-19.44,47.82s-9.46,27.83-6.9,44.46c.2,1.31.27,3.46,1.4,4.21ZM63.49,437.26c-.5-.5-4.72-1.87-5.35-.62-.14.71,3.93,3.32,4.6,3.38,1.23.11,1.54-1.97.75-2.75ZM76.63,448.41c1.2-1.28-5.49-9.11-7.97-7.97-.58,3.69,2.36,2.79,3.82,3.97.97.78.65,2.07,1.26,2.73.23.25,2.64,1.54,2.9,1.27ZM76.15,449.54c-2.96.27-1.79,6.29.67,6.1.83-.06,1.02-6.26-.67-6.1Z"/>
      <path class="cls-1" d="M329.06,458.44c1.5,1.35,4.02,2.78,5.7,4.27,25.89,22.98,52.2,46.97,80.5,67.01,33.66,23.83,80.51,40.57,117.78,14.49,15.55-10.88,26.17-34.33,20.87-53.06-.97-3.42-5.9-15.84-8.68-17.41-1.06-.6-2.75-.31-4.15-.92-4.1-1.8-3.81-4.6-4.91-7.77-.32-.94-3.73-3.04-4.78-3.56-1.87-.91-5.35-2.14-7.38-2.77-.93-.29-1.91-.56-2.9-.54,1.79,2.23,5.52,2.81,8.12,3.95l.21,1.12-8.45-2.96c-.85-.46-1.06-1.29-.61-2.1l-3.64-.16c-2.07-4.38,6.92-1.83,9.07-1.11,14.28,4.8,24.1,16.32,29.36,30.08l-.11-2.43c-3.57-11.7-10.71-23-21.53-29.2-5.43-3.11-11.04-4.03-17.13-4.98-.77-.64-.78-1.47-.33-2.29,7.86-.18,16.11,3.66,22.54,7.99,4.87,3.28,8.06,6.29,11.27,11.2,10.72,16.38,12.19,33.45,5.1,51.77-19.06,49.25-77.79,49.12-118.31,27.32-29.83-16.05-58.77-42.41-84.51-64.45-20.55-17.6-42.17-34.69-57.38-57.51-1.19-1.79-6.64-10.63-6.81-12.04-.06-.52-.19-1.07.55-.91,4.09,7.07,8.88,13.69,14.14,19.93,7.5,8.9,17.77,19.3,26.4,27.06ZM540.24,466.97c-.31-.18-.68-.06-1.01-.09-.48,2.11,1.3,3.92,3.26,4.35.45-.68-2.03-4.14-2.24-4.26Z"/>
      <path class="cls-1" d="M500.3,592.12c-3.25,2.65-7.66,2.44-11.48,1.04-1.75-.64-2-1.56-2.82-1.99-1.02-.54-7.87-.21-9.3.01s-2.67,1.55-4.03,1.77c-2.52.39-6.82.22-9.05-1.05-3.72-2.13-5-2.98-9.52-3.89-5.36-1.07-8.17,1.81-13.68-.46-2.99-1.23-3.94-4.39-6-5.6-2.52-1.49-6.98-2.43-9.76-3.65-7.42-3.27-17.45-8.4-24.41-12.56-5.94-3.54-11.55-8.12-17.54-11.63l-.83-3.16c.19-.21,4.52,2.41,5.05,2.74,5.61,3.52,10.99,7.51,16.74,10.8,9.33,5.34,19.24,9.73,29.04,14.12,1.71.48,3.08-1.65,4.84-1.92,4.26-.66,10.36.69,13,4.35.63.87.97,2.4,1.64,3.07,1.17,1.18,6.68,1.59,8.53,2.34,1.07-.11,2.27-2.4,3.6-2.93,2.98-1.17,8.77.15,11.07,2.4.9.88.8,1.86,1.27,2.35.86.89,7.18-.65,8.92.16.92-.62.98-2.09,1.69-2.73,2.02-1.84,7.7-2.16,10.27-1.63,1.9.39,3.92,2.59,4.89,2.75.76.12,6.35-.78,7.22-1.1,1.56-.58,2.13-2.34,3.48-3.41,2.84-2.26,7.9-3.05,11.39-2.37.91.18,1.04,1.12,2.14,1.08.3-.01,5.4-1.39,5.75-1.54,2.8-1.23,2.83-7.58,8.6-9.16,2.97-.82,3.49.12,5.69.19.79.02,6.16-4.13,6.62-4.94.61-1.05-.06-1.55,0-2.48.25-3.65,3.28-7.86,6.91-8.7,1.53-.36,3.22.4,3.99.02.4-.2,4.98-6.62,5.16-7.18,1.27-3.88.37-9.69,3.71-13.32.84-.91,1.93-1.02,2.46-1.89.79-1.31,1.68-4.53,2.19-6.14,4.5-14.16,3.61-24.92-.28-39.06-7.82-28.39-27.53-44.58-56.93-47.45-2.44-.24-6.06,1.05-3.92-2.92,9.11-.36,18.05,1.97,26.35,5.5,31.76,13.51,44.61,45.93,39.35,79.08-.54,3.43-3.08,8.33-3.24,11.28-.1,1.91,1.02,3.01.65,5.34-.85,5.44-4.18,6.21-7.15,9.88-1.29,1.59-5.69,7.83-6.48,9.47-1.49,3.13-.37,4.48-3.72,7.15-2.29,1.83-3.44,1.7-5.78,2.56-1.81.67-6.75,4.93-7.97,6.53-2.46,3.23-2.65,5.84-7.52,6.98-1.71.4-4.21,0-5.69.46s-6.47,2.5-7.72,3.17c-3.64,1.98-4.81,5.93-10.48,6.56-3.55.39-3.5-.71-5.85-1.33-.45-.12-8.47.95-9.17,1.17-1.17.36-1.32,1.4-1.92,1.89ZM574.47,535.08c-.4.43-2.08,5.87-2.18,6.72-.36,3.1,2.72-.07,3.55-1.18,1.69-2.28,2.73-6.45-1.36-5.54ZM563.15,557.1c-3.82-.35-8.4,3.65-6.53,7.46,3.14-1.19,6.79-3.65,6.53-7.46ZM537.05,577.39c1.8.81,6.95-.47,7.54-2.43.47-1.58.24-2.72-1.54-2.66-3.39.13-5,2.04-6,5.08ZM448.84,582.93c-1.55-1.87-10.18-5.99-11.09-2.77-.6,2.14,3.11,4.32,4.8,4.89,1.82.61,8.77.88,6.29-2.13ZM519.55,582.19c-.74.12-4.11,1.43-4.64,1.88-1.2,1.01-1.69,3.09.21,3.45,3.8.72,7.12-.94,8.5-4.5-1.01-1.04-2.73-1.06-4.07-.84ZM467,585.47c-1.92.23-3.79.82-3.01,3.16,1.81,1.65,9.6,2.46,10.3-.26.62-2.42-5.65-3.1-7.29-2.9ZM493.45,586.18c-1.79.25-7.5,2.31-4.16,4.34,1.35.82,7.2,1.01,8.44.3.27-.16,1.82-1.8,1.91-2.09.92-3.04-4.37-2.8-6.18-2.55Z"/>
      <path class="cls-1" d="M149.86,550.22c.35,2.16-1.16,1.86-2.3,2.59-5.78,3.67-11.95,6.47-16.19,12.08-7.99,10.58-8.72,23.29-2.85,35.09.96,1.93,4.53,7.56,6.09,8.77,2.19,1.69,7.04,2.13,8.18,5.59.41,1.24-.2,1.85,1.07,2.91.47.39,4.26,1.92,4.89,2.03,1.08.18,2.12-.34,3.42-.19,5.14.6,7.13,5.86,11.37,6.42,1.79.24,1.85-.78,3.18-1,3.87-.64,7.87.83,10.2,3.9l7.16.8c2.53-2.06,4.86-3.01,8.19-2.38,1.42.27,2.96,1.44,4.17,1.63.8.13,4.59.37,5.33.3,1.9-.17,2.25-2.16,3.77-3.12,1.78-1.12,5.14-1.47,7.17-1.13,1.05.17,1.56,1.16,2.38.93,1.94-.53,4.87-4.82,7.13-5.96s4.28-.26,6.1-1.52c3.76-2.6,7.35-11.06,8.07-15.49.13-.79.8-4.79-.09-4.79-1.33,1.45-2.51,3.02-3.98,4.35-9.44,8.6-26.15,10.52-38.43,9.77-16.78-1.02-51.18-15.09-52.02-34.97-.1-2.44.38-7.99,2.71-9.23.59,1.06-.5,2.21-.74,3.25-4.13,18.04,22.03,31.37,36.14,35.29,16.55,4.6,41.29,5.01,53.8-8.81,1.03-1.14,2.65-5.24,3.42-5.65h1.1c1.56.84,1.25,9.6.99,11.52-1.06,7.8-10.47,19.64-17.83,22.39-1.39.52-2.66.51-4.2,1.24-1.67.78-4.66,3.67-5.77,4.02-2.93.93-10.32-.4-13.96.18-1.19.19-1.45.99-2.3,1.33-1.33.52-3.56,1.26-4.97,1.22-2.34-.06-4.2-1.7-6.25-2.12-1.2-.25-6.25-1.07-7.24-1.07-1.45-.01-2.2,2.07-5.28,1.63-3.39-.49-4.23-2.65-6.54-3.97-1.15-.66-5.68-2.17-6.91-2.08-2.31.18-2.33,1.04-5.14,0s-3.78-3.26-5.87-4.72c-3.4-2.37-9.71-3.95-11.86-6.91-4.54-6.24-9.27-12.25-11.69-19.84-4.14-12.97.37-30.18,12.03-37.77,4.42-2.87,9.53-4.4,14.33-6.51ZM139.95,613.39c-.77-.72-2.06-1.36-3.13-1.21-.17,1.84,1.76,2.95,3.25,3.45,2.22.74.56-1.61-.11-2.24ZM156.67,623.12c-.33-.6-4.72-2.88-5.35-2.25-.5,2.82,3.19,3.95,5.44,3.62-.04-.44.13-.97-.09-1.37ZM224.54,620.87c-1.06-.73-4.04,2.49-3.62,2.89,1.38-.47,2.81-1.72,3.62-2.89ZM210.59,626.1c-.95-.07-5.34,1.43-4.9,2.91.53,1.76,5.65-.87,6.15-2.16-.33-.38-.73-.71-1.25-.75ZM168.23,627.09c-.36.11-.69.44-.6.84.68,1.56,6.13,2.35,6.52,1.09.59-1.93-4.75-2.3-5.92-1.93ZM186.84,630.28c2.01.84,4.52,1.22,6.53.19,2.3-2.24-6.39-2.87-6.53-.19Z"/>
      <path class="cls-1" d="M71.5,458.24c1.13,2.68-1.22,2.3-2.84,3.03-14.96,6.79-27.24,18.06-34.64,32.77-6.68,13.27-11.27,33.96-8.84,48.72.49,2.98,2.81,8.13,2.83,10.9,0,2.07-2.08,4.18-.72,7.28.52,1.2,1.64,1.11,2.1,1.7.48.62,1.45,3.76,2.1,4.97.89,1.65,2.06,3.03,3.02,4.59.54.88,1.05,2.69,1.5,3.21.61.7,4.22,1.54,5.58,2.39,3.86,2.43,7.24,7.9,5.07,12.45l.2.37c.22.33,6.12,4.09,6.67,4.25,1.01.3,1.58-.53,2.53-.39.48.07,7.29,3.02,7.85,3.4,1.44.98,3.14,3.07,3.56,4.77.23.94-.19,1.99.42,2.84.37.52,6.74,3.87,7.46,3.8.91-.1.93-1.14,1.65-1.63,2.15-1.46,7.88.63,10.09,1.83,3.18,1.72,2.47,2.74,3.53,5.97l8.64,2.14c1.46-4.01,4.58-5.11,8.67-4.67,1.8.19,6.16,1.47,7.46,2.69,1.16,1.09.04,2.46,1.99,2.72,2.43.32,5.01-.94,7.57-.05.79-.24.95-1.9,1.39-2.63,1.98-3.3,6.23-1.98,3.39.13-.74.55-1.8.28-1.66,1.62.23,2.2,8.33,2.16,10.18,2.36l-.04,1.41c-3.61.95-5.26,1.95-9.1,1.02s-4.84-1.67-9.16-1.34c-3.42.27-4.13.97-6.82,2.25-2.33,1.11-7.68.98-9.94-.36-1.16-.69-2.01-2.24-3.26-2.54-1.36-.32-8.8-1.88-9.72-1.91-4.72-.13-6.9,1.26-11.66-1.72-2.18-1.36-3.41-4.28-4.69-5.09-1.1-.7-2.69-.68-3.86-1.22s-3.34-2.43-4.52-2.73c-1.35-.34-2.83-.07-4.53-.55-3.69-1.03-6.52-3.51-8.42-6.8-1.57-2.73-1.14-3.13-3.82-5.6-2.83-2.61-5.54-3.72-8.31-5.82-2.43-1.84-4.2-4.58-5.28-7.4-1.37-3.58-3.28-10.1-6.03-12.82-2.4-2.37-2.66-1.53-4.12-5.3-2.08-5.33-.72-7.44-1.27-12.5-.21-1.97-1.16-4.31-1.45-6.52-3.59-28.14,6.38-59.42,29.74-76.42,3.24-2.36,14.06-9.08,17.6-9.59.62-.09,1.29-.12,1.91.02ZM37.31,578.84c-3.12.57,4.11,8.14,5.28,8.85,4,2.39,1.41-3.91.12-5.56-1.57-2.01-3.17-2.33-5.4-3.29ZM57.16,602.64c1.09.99,7.13,3.1,7.47.97.06-.36-1.84-3.3-2.31-3.77-1.43-1.43-5.13-3.44-7-2.08-1.19.86,1.09,4.22,1.84,4.89ZM78.7,609.34c-1.8.55-1.18,2.76-.42,3.9,2.25,3.34,11.71,4.57,9.77.39-.85-1.84-7.6-4.83-9.35-4.29ZM103.72,615.15c-1.23.28-2.15,1.36-2.1,2.63.18,4.69,10.4,4.63,11.91,1.74.6-1.14.84-2.35-.38-3.08-1.33-.8-7.89-1.64-9.43-1.29Z"/>
      <path class="cls-1" d="M133.18,514.71c3.45-.68,6.53,2.67,6.18,5.99-.1.91-.76,1.57-.6,2.37.24,1.21,2.74.88,2.02,4.49-.19.96-1.14,1.29-.92,2.39.19.95,1.09.78,1.64,1.26,2.63,2.27,3.68,4.21,3.12,7.8-.3,1.92-1.8,3.72-1.95,4.97-.09.78,1.11,5.54-.6,5.16-.28-.06-1.96-4.7-1.97-5.29-.06-2.71,2.66-4.05,1.32-8.19-.77-2.39-1.65-2.79-3.73-3.91-.27-.54.52-3.35.53-4.21.04-3.11-3.16-2.34-3.56-3.61-.55-1.74,2.52-.41,2.54-3.59.04-6.39-7.14-2.65-7.64-3.08-.09-1.01,1.07-1.22,1.36-2.08,1.74-5.08-1.51-11.33-7.29-10.94-2.84.19-3.19,1.98-4.96,2.67-2.66,1.05-1.8-1.11-2.33-2.71-.38-1.13-2.03-2.66-3.11-3.06-2.38-.89-3.81,1.93-4.85,1.61-1.34-3.53-2.38-2.5-4.9-3.45-.75-.28-1.35-1.21-2.11-1.51-3.24-1.27-8.2.44-9.41,3.8-.48,1.33-.24,2.68-.8,3.92-2.49.42-4.2-2.85-6.18-.03-2.14,3.05,1.45,4.94.72,5.61-1.98.37-2.43-2.15-4.52-1.83-1.76.27-.28,3.39-1.47,3.64s-.73-2.51-1.87-2.86c-4.65-.44-6.59,7.31-3.03,9.56-.76.89-1.78.16-2.96.64-.89.36-2.74,2.02-2.83,3.01s.92,1.69.73,2.69c-2.17.29-5.22.83-3.26,3.44-.78.8-1.83.49-2.73,1.27-2.83,2.44-1.67,8.03,1.1,10.15.78.6,2.83,1.22,3.04,2.06.3,1.16-.97,1.22-1.43,1.83-2.57,3.4-.6,9.28,3.7,10.35,3.22.8,4.92-1.09,6.62-.85,1.4.2,2.18,2.93,5.78,2.53,4.54-.51,5.67-8.37,6.57-8.67,1.26-.42,1.13,1.36,2,1.97,1.02.72,2.52.38,3.63.72.25.08,3.95,2.89,3.61,1.83-1.86-4.86-8.68-8.64-13.71-7.19-2.08.6-2.96,2.7-5.68,3.02-1.58.18-6.63.53-6.34-1.81,2.93.32,6.08.65,8.65-1.13.57-2.29-4.43-2.24-1.95-3.83,1.27.32,2.5,1.76,3.72,1.99,1.48.28,4.02-.44,6.03-.24,5.97.59,11.31,6.26,11.1,12.28-1.77.24-2.5-1.52-4.01-2.33-1.81-.98-3.87-1.18-5.9-1.31l-.96,1.65c.94,1.07,2.19.03,3.7.26,7.75,1.17,6.9,12.96,4.7,18.29-.84,2.04-3.17,6.48-5.49,3.51,1.02-1.58,2.32-2.57,3.2-4.35,2.86-5.79,2.64-19.13-7.21-15.18-1.64.66-2.24,3.16-4.97,3.73-3.89.8-4.69-2.52-6.84-2.82-1.03-.14-1.8.6-2.86.74-5.73.73-10.63-3.93-10.63-9.61,0-1.58,1.11-3.67.95-5-.09-.75-2.51-2.75-2.99-4.27-1.54-4.81.16-8.81,2.9-12.62.58-.8,1.7-1.48,2.12-2.23.64-1.15.41-2.38,1.13-3.58.8-1.33,3.27-2.33,3.63-2.92.24-.39-.27-1.61-.23-2.35.18-3.43,2.57-7,6.1-7.71,1.45-.29,3.37.3,4.6-.48s1.01-3.35,2.2-4.32c1.69-1.39,4.84-.17,6-.89.41-.25,2.06-3.53,3.66-4.67,4.33-3.08,7.81-2.95,12.29-.41,1.13.64,2.77,2.24,3.7,2.5.98.27,2.82-.26,4.11-.15,3.05.25,3.78,2.23,5.48,4.33.76.25,2.6-.8,3.66-.95,7.23-1.08,12.32,5.28,10.96,12.23Z"/>
      <path class="cls-1" d="M381.88,537.18c.51-.53,8.68,5.46,9.67,6.09,41.72,26.28,90.98,46.53,139.2,23.31,25.89-12.47,44.22-40.22,42.56-69.45-.12-2.19-.97-4.44-.74-6.69l1.26.37c.96,3.38,2.15,6.76,2.38,10.3.5,7.62-2.73,20.83-5.87,27.86-17.43,39.11-60.89,54.77-101.59,49.1-28.77-4.01-59.78-19.13-83-36.25-1.56-1.15-3.7-2.47-3.87-4.64Z"/>
      <path class="cls-1" d="M216.93,269.43c.04-.75-.24-1.78.35-2.37.25-.25,5.8-2.08,6.7-2.36,61.73-18.89,124.32-14.45,183.64,9.97.69.28,2.09.35,2.53.73.55.46.57,2.18.02,2.57-1.36.97-6.65-2.38-8.27-3.02-50.77-20.09-107.51-24.49-160.71-11.87-6.8,1.61-15.15,5.08-21.72,6.19-.86.15-1.69.24-2.56.16Z"/>
      <path class="cls-1" d="M233.61,178.12c.35-.35,8.58,1.37,9.74,1.68.82.23,2.84.77,3.29,1.42l2.17,10.87c.09,1.24.36,8.39,1.66,8.47,2.16-1.58,4.11-3.62,6.72-4.51,3.87-1.31,13.94-2.37,17.85-1.56,9.86,2.03,9.97,15.62,11.17,23.25s2.94,15.15,3.92,22.53c.55,4.14-1.02,2.95-3.74,3.45-2.32.42-5.77,1.46-8.03,1.43-1.71-.03-1.73-1.77-1.93-3.14-1.08-7.23-2.2-14.47-3.26-21.74-.48-3.28-.39-11.02-2.57-13.37-.36-.39-1.3-.96-1.81-1.09-3.31-.85-13.14.48-15.78,2.72-.65.55-1.1,1.15-1.24,2.02-.24,1.45.2,5.53.39,7.18.94,8.15,2.97,16.94,4.26,25.09.14.89.57,3.99.36,4.62-.48,1.38-7.05,1.53-8.39,1.77-1.44.25-2.92,1.78-4.45.65l-10.32-71.75ZM245.12,181.83l-9.7-1.53v.54s9.83,67.17,9.83,67.17c1.44.03,9.33-.92,9.7-2-1.27-7.55-2.16-15.16-3.26-22.74-.57-3.91-3.34-11.7-.69-14.9.69-.83,3.6-2.58,4.64-2.97,3.11-1.16,10.81-1.98,13.95-1.11,4.03,1.11,4.52,9.26,5.07,12.69.92,5.69,1.84,11.46,2.77,17.15.48,2.89.75,5.94,1.11,8.85l9.28-1.06.42-.61c-.47-1.41-.13-2.86-.32-4.26-1.19-8.68-2.63-19.75-4.4-28.21-2.07-9.92-5.16-13.49-15.69-12.97-5.51.27-11.07,1.28-15.22,5.08-1.3,1.19-2.01,3.38-4.16,3.27l-3.35-22.38Z"/>
      <path class="cls-1" d="M526.68,269.28c-36.75-32.92-79.68-55.8-126.67-70.68l-14.99-3.86c-1.02-.62-1.05-2.89.56-2.76,4.19.33,11.34,2.72,15.59,4.01,48.56,14.78,93.8,40.14,131.17,74.34,1.11.79.78,3.47-.54,3.47-.43,0-4.35-3.84-5.11-4.52Z"/>
      <path class="cls-1" d="M201.34,397.32c.78,1.64-3.11,3.59-2.9,4.52,2.93,1.19,6.12,1.8,8.13,4.56,7.75,10.66,6.04,21.94.39,32.95-8.19,15.98-20.2,24.12-38.44,24.66-1.28.04-2.86-.08-2.31-1.62.32-.89,5.38-.82,6.62-1,10.78-1.54,26.97-9.15,26.35-21.88-.05-.94-.17-2.5-1.28-2.71-4.01-.76-15.83,4.36-20.49,5.62-5.85,1.58-11.81,2.33-17.88,2.01-.58-.14-.7-1.92.02-2.19,1.86-.71,5.14-.15,7.16-.37,10.6-1.15,20.13-6.46,30.64-7.97.46-.52-2.96-3.78-3.41-4.38-7.86-10.33-5.74-21.35,3.7-29.66.47-.41,3.26-3.03,3.7-2.56ZM201.7,441.89c3.02-3.44,5.62-9.09,6.48-13.63,1.19-6.26.5-17.93-4.85-22.24-6.51-5.24-10.84,2.21-11.37,8.19-.48,5.35,1.09,10.46,4.42,14.52,1.72,2.09,5.33,4.5,5.33,7.9v5.25Z"/>
      <path class="cls-1" d="M110.19,268.86c-2.19-2.06-4.34-6.58-7.92-5.88-1.57.31-8.63,5.33-10.06,6.62-2.67,2.43-3.8,4.66-2.12,8.29,5.03,6.16,8.99,13.19,13.93,19.41,2.52,3.17,4.71,6.01,9.22,4.19,1.72-.69,10.04-7.2,10.9-8.67,1.1-1.91-1.16-6.1-2.25-7.93-.68-1.13-2.18-1.55-1.77-3.25.13-.53,8.16-4.99,8.98-6.36.31-.11.62-.1.93,0,.51.15,5.75,7.47,6.35,8.53,2.47,4.35,3.11,7.22.72,11.83s-11.16,11.49-15.55,14.53c-17.24,11.96-24.44.68-34.2-12.51-3.01-4.07-11.36-15.22-11.81-19.72-1-10,4.25-13.93,11.52-19.36s16.59-12.82,25.63-6.17c3.41,2.5,5.27,6.32,7.76,9.67.16.48-.03.67-.32,1-.55.63-3.31,2.16-4.31,2.94-.84.66-4.25,3.92-4.9,3.74-.3-.08-.46-.66-.72-.91ZM110.39,267.57c1.1.32,1.85-.49,2.67-1.05.63-.44,4.68-3.77,4.94-4.14.22-.32.41-.52.19-.93-4.61-6.94-9.29-13-18.48-9-5.22,2.27-19.25,12.22-21.53,17.25-4.07,9.01,3.29,16.21,8.03,22.94,9.84,13.99,16.84,29.1,35.56,15.19,3.16-2.35,12.21-9.62,13.66-12.8s.83-8.18-.88-11.2c-.7-1.24-4.39-6.71-5.8-6.38-.65.15-6.17,4.52-6.28,4.99,1.12,3.05,5.46,7.43,3.41,10.66-1.61,2.54-10.44,10.13-13.26,10.66-6.05,1.15-9.8-5.55-12.93-9.73s-9.51-12.13-11.61-16.3c-1.17-2.33-1.37-3.52-.13-5.88,1.33-2.52,10.54-9.39,13.26-10.3,4.53-1.51,7.36,2.42,9.19,6.02Z"/>
      <path class="cls-1" d="M151.31,430.29v6.7c.9,1.08,2.54.25,3.74.61,2.31.69.32,7.71.97,9.71h5.98c.29,0,1.07,1.15.92,1.61l-.36,50.4-2.2.16v-49.09c0-1.73-5.57.43-6.53-1.09v-9.6c-.36.12-.79-.36-.91-.36h-27.91l-.54.54v9.6c-1.96.9-4.51-.34-6.16.91v45.65c0,.74-2.54.74-2.54,0v-47.83c1.12-1.52,5.28.31,6.19-.34,1.24-1.96-.61-8.85.3-10.14l4.75-.57v-7.07c.86-.99,2.43-.41,3.63-.54v-7.25c.34.11.74-.29.91-.28.98.09,1.16,4.1,1.26,5.17.07.84-.89,1.72.62,2.28l17.87.8ZM129.61,432.16l-.27,4.49.84.81,18.26-.08.29-.44c-.13-1.74.92-4.64-1.3-5.12-2.65-.57-12.77-.32-15.89-.1-.67.05-1.33.12-1.93.43Z"/>
      <path class="cls-1" d="M470.2,286.96c4.2,4.61,12.4,14.11,18.43,15.82s9.93-5.78,5.83-10.18c-8.13-8.72-21.13-15.34-10.5-28.94s27.72,1.16,35.67,9.94c.6.66,3.96,4.96,4,5.46.06.68-2.41,3.43-3.09,4.14-.42.45-2.43,2.65-2.89,2.53-3.67-3.81-7.4-8.76-11.43-12.14-2.67-2.25-8.15-6.12-11.59-3.97-3,1.88-3.23,5.03-1.41,7.89,3.74,5.88,14.44,12.22,15.16,19.27,1.04,10.17-7.91,18.29-17.9,17.17-6.53-.73-19.44-11.63-23.97-16.62-.81-.89-4.34-5.05-4.12-5.91.1-.39,5.03-5.71,5.39-5.88.95-.43,1.68.63,2.39,1.41ZM494.5,281.51c-1.43-1.59-2.99-2.74-3.93-4.95-1.91-4.52,1.88-9.32,6.5-9.58,6.27-.35,16.48,12.25,20.99,16.19,1.65-1.06,4.28-3.11,3.05-5.24-2.2-3.82-11.76-11.99-15.63-14.45-8.21-5.23-18.05-5.15-22.52,4.62-5.25,11.44,7.25,16.82,13.13,23.97,3.81,4.64,1.14,12.12-4.91,12.5-6.63.42-15.23-8.74-19.58-13.39-.47-.5-2.35-3.26-2.56-3.29-.76-.12-4.67,3.27-4.35,4.38.13.43,2.73,3.36,3.29,3.98,7.86,8.71,23.86,23.44,34.81,11.59,10.3-11.16-1.39-18.69-8.28-26.32Z"/>
      <path class="cls-1" d="M447.14,266.16l27.27-24.37,1.34-.08,9.43,6.2c.22,1.06-4.06,3.46-4.87,4.13-10.64,8.86-20.73,18.47-31.36,27.35-5.57,4.65-13.01,11.34-18.88,15.19-4.94,3.24-6.97-1.64-11.73-2.73-2.14-1.53,3.06-4.35,4.3-5.41,3.28-2.81,7.01-5.3,10.06-7.98,3.49-3.06,2.41-7.02,2.82-11.03,1.25-12.12,2.45-24.12,3.24-36.25.15-2.33.36-5.73.74-7.96.07-.42.18-.67.55-.91,2.15,1.42,9.61,4.04,10.7,5.96s-.79,12.31-1.1,15.24c-.11,1.07.11,2.18,0,3.25-.71,6.46-2.02,12.9-2.53,19.39ZM444.96,269.79c.51-4.75.95-9.52,1.49-14.27.76-6.63,1.54-13.26,2.14-19.96.17-1.85,1.34-4.56.53-6.34-.65-1.45-5.93-2.94-7.25-4.34-.42.25-.41.52-.52.91-.55,1.93-.85,6.71-1.1,9.05-1.29,12.19-1.69,24.43-3.26,36.59-.32,2.5.62,4.3-1.44,6.53-1.88,2.03-6.17,4.77-8.52,6.7-1.55,1.28-3.05,2.94-4.56,4.13-.92.73-2.27.6-2.51,2,2.64.78,5.65,4.23,8.54,2.94,13.52-10.31,26.1-21.73,38.94-32.82,4-3.46,8.38-6.63,12.34-10.14.98-.87,3.02-2.34,1.58-3.4-.95-.7-5.79-3.84-6.64-3.49-.38.15-2.74,2.09-3.28,2.54-4.79,3.94-10.18,9.14-14.86,13.4-1.02.93-10.52,11.17-11.59,9.97Z"/>
      <path class="cls-1" d="M40.01,487.9c-1.92,6.2-4.71,12.16-6.35,18.46-7.31,28.02,1.47,59.66,23.67,78.64,18.26,15.61,43.03,23.09,66.96,19.94,1.4.37,1.84,1.55,1.64,2.89-3.19-.28-6.46.61-9.59.74-38.38,1.62-76.62-24.23-85.23-62.31-4.13-18.29-2.11-40.34,7.39-56.78.33-.57.67-1.77,1.51-1.57Z"/>
      <path class="cls-1" d="M280.13,629.08c-5.06-5.16-4.77-24.89-.64-30.65,3.63-5.07,13.47-4.97,17.56-.57,4.36,4.7,4.09,22.45,1.74,28.18-2.72,6.64-14,7.79-18.65,3.03ZM283.76,625.82c2.19,2.3,7.54,2.38,9.61-.11.73-.88,1.23-2.49,1.47-3.6.96-4.44,1.05-11.74.35-16.24s-2.09-7.03-6.97-6.96c-6.08.08-6.47,5.71-6.76,10.55-.23,3.76-.28,13.64,2.3,16.36Z"/>
      <path class="cls-1" d="M101.28,510.73v6.34c0,.26,2.58,3.38,3.04,4.21,1.22,2.17,2.51,5.24,2.39,7.75,0,.32.74.24.9.17.22-.1,2.99-3.37,3.17-3.72.75-1.46.61-3.14,1.12-4.68,1.48-4.44,2.19-6.58,7.12-7.74.76-.18,3.98-.7,4.01.39-3.99,2.56-8.04,4.1-9.06,9.41.65,1.01,1.54-.26,2.44-.45,3.55-.74,7.61,0,9.51,3.36-.48,1.71-2.49-.39-3.23-.75-4.88-2.38-11.14,2.77-14.16,6.18-.35.39-.95.56-1.25.93-1.12,1.37-.4,8.41-.55,10.68-.12,1.88-.98,3.67-.74,5.6,1.43-.36,1.58-2.12,2.7-3.27s3.1-2.13,4.35-3.26c2.72-2.46,4.15-5.75,4.34-9.43l2.02-.34c.85,2.43-1.22,4.95-1.45,6.71-.1.77.33.6.91.55,3.26-.3,6.38-2.16,8.51-4.54.29-.33,2.6-4.19,3.27-3.43-.28,3.36-3.32,6.15-5.82,8.13-.65.51-1.93.58-1.79,1.65,3.04.72,4.68,2.7,7.88,3.54,1.02.27,2.87-.41,2.63,1.35-5.4,1.83-9.15-4.36-14.29-3.77-3.03.34-7.1,2.76-9.45,4.69-.9.75-5.29,5-4.18,6.15,1.77.09,2.64-2.4,4.26-2.81.75-.19,2.78-.22,3.53-.08,2.03.39,2.48,3.95,3.71,4.29,1.51.42,3.65-2.05,5.34-1.79.79,3.99,3.95,4.18,7.46,4.01l-.21,1.12c-2.97,1.17-6.58.71-8.34-2.18-1.72.69-2.23,1.63-4.32,1.44-2.77-.26-3.27-4.39-6.14-.35-3.05,4.29-2.25,11.59.37,15.89.37.61,2.17,2.89,2.69,3.11.87.36,1.88-.13,2.53.73-6.09,3.21-9.11-6.31-9.41-10.87s.14-7.93,3.8-11.05c.8-.68,2.15-.64,2.02-1.99-.17-1.82-3.02-.17-3.97.4-1.29.78-3.92,4.59-4.68,1.33-.79-3.43.54-10.93.3-15.15-.06-1.05-.32-2.02-.38-3.06-1.24.37-1.56,4.52-1.81,4.71-2.05-.19-1.66-4.6-.36-5.28l1.81.57c.61-3.78.76-8.29-.54-11.95-1.69-4.73-4.81-4.91-4.16-11.05.16-1.5.41-2.68,2.17-2.36Z"/>
      <path class="cls-1" d="M230.16,283.56c8.36,1.3,9.37,16.93.94,18.87l-.05.86,7.27,14.5c-.17.86-4.55.87-5.24-.19l-6.21-12.63c-.21-.28-1.32-1.48-1.42-1.48h-5.8l-.54.54v13.77c-1.02.88-3.73.87-4.71,0v-33.7l.54-.54c4.65.51,10.77-.69,15.23,0ZM219.11,288.09v10.87c0,.1.69.77.95.82,3.14-.96,7.89.84,10.47-1.36s2.34-9.43-1.26-10.71c-1.49-.53-9.7-1.16-10.17.38Z"/>
      <path class="cls-1" d="M355.42,599.13h-9.61c-.68,0-2.45.79-3.06,1.29-3.06,2.48-2.3,6.45-2.92,9.94,1.12-.3,1.9-1.06,3.06-1.47,9.08-3.14,15.04,1.83,15.09,11.06.04,7.32-3.87,12.11-11.47,12.16-11.85.07-12.31-11.45-11.76-20.48.79-13.17,4.03-18.04,17.96-16.86,3.03.25,3.58,1.44,2.71,4.36ZM344.08,612.26c-4.88.82-4.59,4.74-4.25,8.78.48,5.7,2.92,6.98,8.52,6.35,4.9-.55,4.9-6.03,4.52-9.96-.5-5.17-4.1-5.96-8.79-5.17Z"/>
      <path class="cls-1" d="M377.08,178.21c1.11.94-.43,5.25-.59,6.66-2.45,20.9-6.75,41.51-9.43,62.32-.12.96.18,3.24-.2,3.78-.85,1.21-8.01-1.33-9.54-1.56-1.05-.88.52-3.22-.64-3.54-1.79.49-3.59,1.88-5.46,2.14-4.3.59-12.45.24-16.55-1.15-16.24-5.48-14.3-20.49-11.34-34.34,3.09-14.5,10.37-18.77,25.02-17.01,3.42.41,6.89,1.81,9.87,3.55,1.24.72,2.15,2.31,3.73,2.25.33-4.04.84-8.06,1.54-12.05.17-.96.7-2.03.91-3.08.36-1.84.77-8.98,2.27-9.7.66-.32,9.89,1.28,10.42,1.73ZM365.17,249.11c1-7.22,2.47-14.38,3.61-21.57,1.96-12.38,3.57-24.82,5.12-37.27.22-1.75,2.16-10.13,1.1-10.89-.4-.28-7.14-1.48-7.58-1.2-.84,3.06-1.04,6.32-1.59,9.46-.77,4.29-1.51,8.43-2.08,12.77-.84,6.39-.89,4.39-4.54,1.64-7.08-5.32-22.67-8.15-29.17-.92-4.92,5.47-8.03,25.5-6.44,32.52,2.68,11.78,21.02,15.98,30.61,11.57,1.6-.73,2.23-2.27,4.09-1.87l.72,4.9,6.15.86Z"/>
      <path class="cls-1" d="M176.62,247.26c-8.63,5.47-17.7,10.18-26.51,15.35-.99.58-3.36.89-3.1,2.57.03.21,1.7,3.42,1.97,3.87,1.47,2.46,2.92,4.48,6.14,4.4,2.39-.06,12.92-5.37,14.66-7.12,3.25-3.28-.14-5.36.19-8.85l9.74-4.73c2.07,4.57,5.42,10.43,2.71,15.36-3.5,6.37-22.64,16.52-29.84,16.58-9.44.09-13.33-7.49-17.28-14.64-4.19-7.59-11.43-18.84-6.39-27.16,3.7-6.11,20.21-15.64,27.28-15.85,11.14-.33,15.01,8.87,19.34,17.3.49.96,1.68,1.5,1.09,2.94ZM172.01,257.86c.85,5.11,1.76,7.72-2.96,10.99-1.51,1.05-9.1,5-10.76,5.55-8.71,2.87-9.91-4.52-13.72-10.03l.4-.74,29.39-16.67c.52-1.05-1.67-5.21-2.3-6.41-9.16-17.23-21.06-12.91-34.78-3.46-12.81,8.82-8.53,16.55-2.69,28.23,4.51,9.01,8.68,19.32,20.82,17.43,4.94-.77,20.87-9.44,24.02-13.31,3.91-4.81,2.28-9.11-.23-14.09l-7.17,2.52Z"/>
      <path class="cls-1" d="M406.9,260.37c-6.25,2.24-13.6.36-19.66-1.9-8.8-3.29-12.08-7.91-11.15-17.48,1.05-10.72,8.21-14.49,18.3-13.58,3.35.3,18.92,5.36,19.89,5.03,1.28-.43,1.5-6.08,1.3-7.37-.6-3.85-6.97-5.56-10.18-6.49-2.26-.65-5.56-1.51-7.84-1.95-1.3-.25-8.34-.75-8.62-1.16-.25-.52-.19-1.08-.16-1.64.05-.89.88-5.34,1.15-6.11.38-1.08,5.5-.7,6.66-.62,11.52.81,32.16,7.05,30.98,21.57-.76,9.37-6.58,23.21-9.53,32.5-.39,1.22-1.03,5.39-1.52,6.09-.28.39-.57.45-1.01.31l-8.25-3.01-.35-4.18ZM408.38,263.23c.91.26,1.99.27,2.86.58,1.22.43,3.53,2.42,4.07.8,3.1-11.11,7.84-22.4,10.18-33.66,2.75-13.21-9.91-18.3-20.7-20.85-1.69-.4-11.7-2-12.68-1.67-.58.19-2.15,4.95-.97,5.53,6.92,1.89,20.76,2.61,25.17,8.9,2.33,3.33.41,7.73-.69,11.2-.66.95-9.85-2.24-11.49-2.65-9.54-2.41-21.66-6.18-25.51,6.33-2.04,6.64-1.92,12.6,4.21,16.77,4.1,2.79,14.21,5.59,19.11,5.09,1.5-.15,5.85-1.93,6.52-1.74,1.5.43-.7,4.15-.1,5.37Z"/>
      <path class="cls-1" d="M355.78,304.03c-.39-1.33-5.61,1.32-6.15-1.46-.79-4.06,3.77-3.22,6.71-3.08.92.04,3.8.07,4.1.96l-.13,16.44c-.48,1.01-6.3,2-7.66,2.13-5.07.47-10.83-.36-13.85-4.91-3.46-5.22-3.25-20.5-.33-25.93,2.03-3.77,7.23-5.68,11.34-5.72,1.11-.01,8.5,1.32,9.07,1.8.76.63.87,3.68-.08,3.98-.6.19-5.23-1.25-6.52-1.38-3.13-.3-7.36.16-9.36,2.88-2.61,3.54-2.47,15.48-1.26,19.69,1.73,6.02,9.18,6.34,14.1,4.38v-9.78Z"/>
      <path class="cls-1" d="M367.38,283.56h3.99s.7,14.33.7,14.33l13.62.53c.3.04.9-.37.9-.56v-13.77c.5-.8,3.88-.73,4.37-.39l.34.75-.16,33.54c-.37.54-4,.65-4.55-.2v-15.22l-.54-.54h-14.32l-.41,15.71c-.35,1.08-3,.43-3.94.59v-34.78Z"/>
      <path class="cls-1" d="M230.94,250.82c-4,4.62-16.22,8.41-22.14,7.7-.84-.1-5.1-1.62-5.28-1.42,0,3.48,1.83,6.84,2.8,10.06,1.09,3.6,1.67,7.36,3.35,10.75-2.72,1.8-6,2.33-9.05,3.29-1.07.34-2.28,1.67-3.38.93l-19.66-65.25c2.4-.65,5.23-2.47,7.51-3.01.84-.2,2.07-.54,2.84-.07s.77,3.02,2.34,2.74c3.08-6.57,11.48-9.57,18.25-10.78,14.72-2.63,18.33,8.29,22.09,19.74,2.64,8.05,6.56,18.14.33,25.32ZM228.05,251.55c5.57-4.4,4.9-12.34,3.28-18.43-1.31-4.92-5.48-17.98-8.45-21.63-6.77-8.32-22.46-3.98-29.17,2.3-1.47,1.38-2.37,6.24-3.8,6.39-2.4.25-1.57-3.85-2.95-4.31-2.17-.73-5.33,1-7.32,1.8l19.15,62.46c1.77-.82,6.37-1.24,7.75-2.06.38-.22.61-.36.62-.85l-6.55-22.46c1.11-.65,6.27,2.02,7.89,2.28,4.13.65,16.24-2.85,19.55-5.47Z"/>
      <path class="cls-1" d="M258.21,283.6l10.93,34.73c-1.18-.14-2.7.21-3.81,0-2.13-.4-2.82-9.7-4.75-10.07l-11.87.61c-.63.46-2.31,7.97-3.1,8.94s-3.18.35-4.38.52l10.71-34.04c.77-1.38,4.78-.55,6.28-.69ZM260.07,304.57l-4.89-15.93-4.89,15.93h9.79Z"/>
      <path class="cls-1" d="M224.82,190.52c2.57-.3,3.07,2.14.81,3-28.75,6.56-55.88,17.32-82.05,30.68-5.98,3.06-11.92,6.32-17.7,9.85-3.35,2.05-6.5,4.51-9.98,6.34-1.12.11-1.11-2.12-.47-2.67,4.4-2.64,8.52-5.84,12.93-8.45,24.36-14.45,51.98-26.06,79.16-33.93,4.82-1.39,12.61-4.28,17.31-4.82Z"/>
      <path class="cls-1" d="M254.27,626.67h16.68c.44,1.62.84,4.41-1.3,4.67-4.38.55-15.06.46-19.55.03-1.99-.19-2.5-.5-2.28-2.61.74-7.1,16.59-15.69,16.98-24,.08-1.67,0-4.4-1.84-5.05-4.18-1.47-9.51.33-13.91-.19l-.52-2.66c.33-1.25,4.41-1.91,5.62-2.03,6.68-.63,15.51-.63,15.75,8.11s-9.49,15.42-14.71,21.92c-.42.53-.97,1.08-.9,1.82Z"/>
      <path class="cls-1" d="M328.59,626.67c.38,1.47,1.07,4.32-.92,4.7-2.66-.26-20.73.54-21.52-.39.02-1.08-.2-2.37-.06-3.42.31-2.26,9.16-10.69,11.19-13.08,2.33-2.74,5.89-6.77,5.86-10.45-.05-8.04-11.24-3.95-16.31-4.17l.07-3.92c8.96-1.69,22.35-3.87,20.95,9.53-.78,7.49-11.93,14.81-15.58,21.2h16.31Z"/>
      <path class="cls-1" d="M318.26,283.56c1.07.32-.13,2.77.18,3.62l-15.58.37v10.33l.54.54h13.23l-.6,3.64-13.17.35v11.41l.54.54h15.23l.49.6c.1.46.08.93.08,1.39,0,.74.12,1.53-.57,1.99h-19.58l-.54-.54v-34.24h19.76Z"/>
      <path class="cls-1" d="M129.2,571.6c-2.85,8.84.14,18.34,5.28,25.7,16.65,23.85,64.86,30.39,89.46,17,1.36-.74,6.53-5.27,6.95-5.37s.96.38.85.85c-2.98,4.7-9.44,7.83-14.63,9.66-22.76,8.03-52.46,4.79-72.3-9.28-10.03-7.12-20.04-20.66-18.14-33.64.06-.42,1.65-5.87,2.51-4.91Z"/>
      <path class="cls-1" d="M349.53,185.46c.59.58.42,1.73.03,2.4-.94.59-11.17-1.2-13.18-1.39-18.99-1.8-37.84-2.28-56.91-1.09-5.05.32-10.15,1.28-15.21,1.46-.87.03-2.92.15-3.59-.07-1.16-.38-.78-2.56,1.05-2.81,8.05-1.11,17.23-1.48,25.37-1.83,17.85-.77,35.53-.25,53.27,1.8,1.19.14,8.83,1.21,9.16,1.53Z"/>
      <path class="cls-1" d="M121.59,338.26c-.05-.67-.09-1.07.36-1.62.32-.39,6.23-4.28,7.14-4.82,9.7-5.76,26.02-9.33,37.27-8.76,8.47.42,26.85,3.92,33.79,8.62,1.07.73,2.66,2.6,1.38,3.69-2.29-1.92-6.02-3.21-8.89-4.15-20.73-6.79-44.14-6.45-63.88,3.17-.82.4-6.81,4.28-7.16,3.89Z"/>
      <path class="cls-1" d="M274.39,318.34c-1.59-.45-.55-3.08-.53-4.15.22-10.2-.19-20.43-.02-30.63h4.35l.36,30.8h14.86c.26,1.49.81,2.81-.54,3.99h-18.49Z"/>
      <path class="cls-1" d="M165.81,494.42l7.75.32.41-.31c.35-1.85,3.33-5.85,4.92-6.68,2.04-1.06,8.27-1.85,9.08,1.19l.48.06c13.77-7.84,23.86-20.67,31.93-34.06l1.25.17c-2.24,3.74-3.91,7.83-6.22,11.53-9.04,14.5-26.19,29.8-43.99,31.04-1.23.09-3.97.2-5.07,0-1.7-.31-.29-2.03-.55-3.26ZM187.2,489.35c-4.52-1.91-10.19.54-11.96,5.07.19.17,4.59-.73,5.08-.89.94-.31,5.31-2.58,6.25-3.18.45-.29.77-.33.63-1Z"/>
      <path class="cls-1" d="M159.15,639.12c.55.72,1.41,1.96,1.77,2.77.59,1.35.9,4.29,1.47,5.05,1.65,2.23,6.14-.76,8.06-1.33,6.9-2.06,15.02-1.99,22.28-4.55,5.01-1.77,9.37-5.53,14.78-6.42.86.96-3.25,3.29-4.02,3.77-9.99,6.31-16.13,6.81-27.26,8.99-3.59.7-9.15,3.48-12.37,3.15-4.02-.4-3.77-4.32-5.28-7.06-2.19-3.95-6.57-7.63-9.09-11.57-1.53-2.39-3.31-5.25-3.25-8.16.9-.91,3.81,3.88,4.29,4.59,3.09,4.61,5.54,6.75,8.63,10.76Z"/>
      <path class="cls-1" d="M333.57,383.63c.23.36.33,1.22-.44,1.01-4.14-2.99-7.06-9.15-6.67-14.26.94-12.34,12.3-20.94,24.07-21.96,14.29-1.23,27.64,5.07,35.11,17.08.8,1.29,2.9,2.75,2.37,4.42l-.86.59c-.56-.12-4.35-6.64-5.27-7.78-8.56-10.52-24.13-14.39-36.97-10.52s-21.26,18.99-12.26,30.75c.28.37.86.56.93.67Z"/>
      <path class="cls-1" d="M341.7,495.81c4.31.12,6.76,4.3,5.04,8.16.19.61,2.13.92,2.85,1.52,2.75,2.32,1.51,7.72-1.03,9.78-1.06.86-4.95.3-4.74-.75.17-.83,3.41-.32,4.25-1.37.86-4.01,1.65-7.71-3.89-6.79-.13-1.15.89-1.64,1.07-2.73.31-1.94.27-4.53-1.59-5.62s-2.44.68-4.19.74c1.25-5.36-.13-10.08-6.63-8.62-1.36.31-1.72,1.95-3.15,1.74l-.97-2.56-5.2-.13c-1.37-4.58-5.28-5.88-9.62-4.21-3.92,1.5-3.12,5.39-4.15,6.02-4.58-.82-7.68.66-8.02,5.54h-1.35c-1.82-5,2.86-8.66,7.57-8.46,2.47-4.82,6.3-6.63,11.79-5.99,2.8.33,2.93,3.39,5.31,4.12,1.1.33,2.15.12,3.22.41.97.26,1.95,1.43,2.79,1.59,1.14.21,2.59-.8,4.26-.68,2.28.17,4.89,1.99,5.64,4.16.5,1.43.14,2.78.77,4.13Z"/>
      <path class="cls-1" d="M239.77,523.04c1.57-4.36,4.32-8.25,6.23-12.43,5.51-12.03,9.25-31.73,10.08-45,.25-3.98-.77-8.79-.38-12.33.07-.63.08-1.25.92-1.25.65.52.83,1.19.92,1.98,2.12,18.9-2.38,46.98-12.4,63.34-.66,1.08-4.05,6.85-5.37,5.68Z"/>
      <path class="cls-1" d="M146.6,546.23v-91.48c0-.3.9-.73,1.26-.54.53.31.51.72.57,1.24,1.5,12.97-1.46,28.48.36,41.67-1.32,14.66.54,30-.36,44.6-.09,1.4-.09,5.07-1.83,4.51Z"/>
      <path class="cls-1" d="M522.85,501.73c1.01.62,1.27,5.61,1.8,7.08,1.11,3.08,3.68,3.48,4.74,5.41.63,1.15,1.42,4.52,1.68,5.93,1.09,5.74.48,11.16-.88,16.8l.86.59c4.2-2.49,3.83,2.27.65,2.82-1.59.27-2.48-.48-3.83-.51-1.81-.04-7.28,2.27-5.97-1.14,1.37-.4,4.55-.94,5.37-2.15,1.4-2.07,2.63-13.5.91-15.34-1.54-1.65-6.96-3.55-9.25-3.99l-.02-1.06c3.61-.46,5.91.39,8.7,2.53.19-.72-.24-.98-.52-1.46-.78-1.31-3.5-5.23-4.65-5.86-1.03-.56-2.5-.64-3.49-1.22-.69-.41-2.98-2.47-1.85-3.25,1.52-1.05,3.8,2.89,5.81,2,.26-.22-1.45-5.58-1.46-6.7,0-.85,1-.73,1.4-.48Z"/>
      <path class="cls-1" d="M206.06,508.91c0-.53-.06-1.08.02-1.6.36-2.28,8.43-13.84,10.2-16.98,3.77-6.73,6.82-13.51,9.25-20.82.94-2.83,2.64-11.35,4.07-13.23,2.17-2.86,1.14,3.84.94,4.83-1.75,9.04-5.69,18.26-9.79,26.44-2.02,4.04-9.96,19.48-13.34,21.09-.45.21-.85.35-1.35.27Z"/>
      <path class="cls-1" d="M538.5,500.04c0-.15-.63-.42.19-.91l1.81.72c.86,1.44-1.34,9.94,3.96,2.15.64-.94,2.46-5.57,3.28-5.41.84.59.43.68.25,1.33-.27.98-.51,2.23-.88,3.11-.68,1.6-6.96,8.09-5.71,9.33,1.74-.25,4.3-.08,5.91-.44.91-.2,1.51-1.16,2.63-1.36,1.36-.24,1.09.85.55,1.64-1.77,2.61-9.33-.35-12.06,4.25-1.45,2.43-1.39,4.14,1.58,5.09,3.64,1.16,4.27-2.2,7.02-3.37,2.48,2.07-3.72,5.22-5.11,5.41-1.01.14-1.86-.07-2.79-.42-1.25-.48-1.6-1.5-2.79-1.73-.9,4.74-1.34,9.55-.37,14.31l-.18,2.72c-.96-.02-1.75-2.68-1.95-3.49-1.15-4.52-1.2-11.74.51-16.08.6-1.52,4.16-6.69,4.16-7.43,0-3.14.03-6.28,0-9.42Z"/>
      <path class="cls-1" d="M329.32,283.56v34.78c-1.4-.19-3.3.52-4.35-.54v-34.24h4.35Z"/>
      <path class="cls-1" d="M187.2,279.57c.05.91.14,1.83-.74,2.34-14.83,7.63-29.12,16.17-42.67,25.86l-1.39-.29c-.57-.78.82-2.76,1.48-3.27,12.08-7.74,24.4-16.63,37.39-22.78.91-.43,5.36-2.44,5.93-1.86Z"/>
      <path class="cls-1" d="M372.01,447.24c-.86.18-1.73.39-2.62.46-14.43,1.03-30.06-.81-44.62,0l-1.98-.55c-1.12-1.8.42-2.24,1.98-2.38,6.01-.54,12.77.42,18.88.39,8.4-.03,17.31-1.1,25.74-.39,1.73.15,3.99.28,2.62,2.47Z"/>
      <path class="cls-1" d="M319.53,524.13c-1.86-.15-1.74-2.49-2.28-3.7-2.36-5.2-4.23-10.7-9.49-13.7-.93-.53-3.34-1.14-3.83-1.61-.43-.42-.81-1.62.19-1.65,2.34-.07,4.77,1.47,6.53,2.9,1.14,0-.39-7.85,2.54-8.32.81.53.3.7.22,1.29-.25,1.8-1.06,5.78-.6,7.38.41,1.43,2.2,2.92,3.03,4.25s1.28,2.75,2.06,4.09c.92-.81.4-2.11.7-3.28.43-1.69,1.79-3.46,1.99-5.27.26-2.33-.94-4.68-.7-7.03,3.2-.35,2.53,4.32,2.9,6.52,1.81-.29,5.61-6.13,6.7-6.15.28,0,.61.53.37,1.08-.36.81-1.5,2.63-2.06,3.38-1.38,1.84-3.38,2.92-4.66,4.4-1.52,1.76-3.62,6.43-3.62,8.7v6.7Z"/>
      <path class="cls-1" d="M293.42,573.04c-4.39.26-8.86.54-13.23,1.09-8.38,1.06-17.04,2.5-24.94,5.51-4.54,1.73-8.96,4.93-13.44,6.51-.55.19-.43.43-.96-.25-.1-.71,1.26-2.07,1.84-2.5,8.83-6.56,35.31-13.18,46.19-12.52.66.04,5.94.76,4.53,2.16Z"/>
      <path class="cls-1" d="M485.92,330.29c-.87.59-3.83-3.36-4.7-4.17-5.17-4.81-11.11-10.31-16.61-14.65-4.51-3.56-9.45-6.77-14.21-9.99l-.41-1.08c.02-.84.52-1.77,1.5-1.49.76.21,5.08,3.32,6.13,4.05,6.53,4.54,22.7,16.95,27.2,22.81,1.15,1.5,1.94,2.56,1.09,4.52Z"/>
      <path class="cls-1" d="M257.18,396.24c-.56-1.23.45-2.02.64-3.16,1.28-7.75.24-13.25-3.22-20.17s-8.34-10.01-15.9-11.64c-4.42-.95-8.45.04-12.7,1.28-1.08-.99,4.27-2.97,4.71-3.08,13.96-3.51,25,6.71,28.98,19.23,1.79,5.64,1.85,13.18-2.51,17.55Z"/>
      <path class="cls-1" d="M329.32,518.7c2.43-.92,6.31-1.04,8.13-2.92.45-.47.46-1.5,1.17-1.73,2.98-.98.79,2.24-.08,3.18-2.54,2.75-7.97,1.89-11.57,5.46-5.64,5.59-5.1,16.53-3.35,23.63.27,1.1,1.98,2.71.08,3.19-1.2,0-2.39-2.92-2.63-3.91-2.18-8.88-1.45-15.54,2.87-23.4,1.81-3.28,5.32-7.04,3.93-11.11,5.38.69,2.36,4.39,1.45,7.6Z"/>
      <path class="cls-1" d="M390.95,611.45l.55-50.36c1.7.26,1.87,1.6,2,3.07v45.32c.01,1.32-1.35,2.03-2.55,1.97Z"/>
      <path class="cls-1" d="M101.28,548.59l-.9.54c-1.02-.23-1.49-5.34-1.83-6.51-1.35-4.69-3.69-11.55-8.55-13.55-1.71-.7-3.26-.59-5.01-1.15-4.16-1.34-5.56-4.52-5.82-8.67,1.75-.92,1.6,2.24,2.09,3.34,1.61,3.61,7.28,2.89,10.38,4.43.87-.26.59-1.92.49-2.62-.49-3.45-3.44-6.77-3.17-10.41.64-.04,1.1-.1,1.63.36,1.3,1.13,2.71,9.07,3.04,11.09.17,1.03-.14,2.11.12,3.14.33,1.26,2.82,3.45,3.61,4.73.49.8,3.92,9.32,3.92,9.85v5.43Z"/>
      <path class="cls-1" d="M123.79,498.37c-.16-.76-.36-1.51-.41-2.3-.47-6.92-.03-15.07,0-22.13.03-5.89.07-11.9-.02-17.74,0-.62.18-1.2.36-1.78l1.88-.05.36,42.79c.09,1.38-1.03,1.4-2.16,1.21Z"/>
      <path class="cls-1" d="M376.44,597.5c-.06-.44-.7-2.25-.95-2.69-1.03-1.83-13.03-8.99-15.53-10.18-.91-.43-4.19-.97-4.17-1.98.56-.78,1.5-.61,2.32-.51,3.11.36,15.63,7.6,17.99,9.92,1.22,1.2,2.38,2.98,2.54,4.71.69,7.1-.56,15.28,0,22.5-.27,2.11-2.19,1.77-2.19,1.07v-22.83Z"/>
      <path class="cls-1" d="M485.93,346.6c-.04.06-1.33.55-1.4-.23l-.1-7.14c-.16-.58-1.06-.86-1.61-.94-7.77-1.2-18.38.86-26.46-.04l-2.16.38-4.7-.38-16.51.38v15.76l-1.09.54v-16.85s.39-.81.44-.84c1-.07,1.99-.38,2.99-.45,15.07-1.01,31.24.8,46.43,0l3.47.88c.12.15.69,3.04.69,3.3,0,.87.16,5.38,0,5.62Z"/>
      <path class="cls-1" d="M95.3,480.29c2.31.36,4.92,2.31,6.81,3.34,4.59,2.5,5.5-3.32,10.02-2.22.55,3.74-3.04,2.32-5.04,3.78-.26,1.11,6.66,3.08,4.89,5.61-1.54.12-4.27-2.29-5.73-2.97-.87-.41-4.77-1.71-5.55-1.74-.55-.02-3.51,1.92-5.43,2.13-1.17.13-7.18-.22-8.03-.59-.31-.14-.6-.35-.79-.63-.14-1.94,5.28-1.18,6.68-1.28.65-.04,4.4-.55,4.53-.74.19-5.02-8.92-.05-7.6-4.7,1.63.18,3.69-.24,5.26,0Z"/>
      <path class="cls-1" d="M216.57,434.28c.07,1.72-.09,3.48-.46,5.15-.72,3.22-4,8.3-5.91,11.12-6.72,9.93-17.6,15.34-28.79,18.87-.93-.81,4.2-2.62,4.59-2.84,9.57-5.24,18.68-10.85,24.72-20.22l4.47-11.47,1.38-.61Z"/>
      <path class="cls-1" d="M364.48,576.31c1.22-.07,2.39.23,3.51.66,1.85.7,5.89,3.13,7.7,4.27,3.92,2.46,8.86,6.22,10.16,10.86.84,2.99.79,18.17.39,21.72-.22,1.95-1.87,4.19-2.19,1.47-.72-6.17.8-13.57.39-19.6-.6-8.84-12.64-13.84-19.12-18.21-.47-.31-.99-.41-.83-1.16Z"/>
      <path class="cls-1" d="M541.48,481.66c.85.73,3.73-.02,5.15,1.55.23.25,2.97,5.71,3.03,6.04.09.5.09,1.5-.47,1.54-1.29.08-2.26-5.53-3.84-6.67-2.43-1.76-3.54.92-4.82.49-.94-.7-.77-2.1-1.24-3.12-1.56-3.39-7.16-4.84-10.2-2.81-2.36,1.58-.52,3.96-3.92,4.46-1.19.17-1.3-1.06-2.16-1.32-2.74-.84-4.98,3.4-4.99,5.73-.41.63-1.02.37-1.22-.24-.81-2.58,1.66-6.19,4.13-6.99,1.28-.42,2.86-.17,3.78-.57.81-.36,2.04-2.64,3.36-3.52.95-.64,3.07-1.55,4.18-1.65,2.2-.2,7.29,2.93,8.42,4.81.41.68.47,2,.8,2.28Z"/>
      <path class="cls-1" d="M425.75,596.96c-.72-2.22.72-4.32.72-6.52l-2.53,1.29c2.48,2.27-.49,6.62-3.35,6.25-6.13-.8-2.38-9.83,1.53-3.37.21.83-.8.62-1.19.47-.88-.35-1.19-1.68-2.43-1.38.12,4.27,4.55,4.33,5.41.21-1.12-.48-1.79-2.08-2.52-2.56-.81-.52-2.08-.47-3.02-.97-1.88-1-5.74-4.5-3.47-6.64,1.74-1.63,3.22-.34,4.1-.6s.77-2.46,4.31-1.68,2.65,4.51,2.62,7.16c.46.73,2.17-.48,3.24-.37,3.11.31,3.4,5.58-.06,6.1-.81.12-1.79-.52-2.28-.15l-1.07,2.75ZM424.66,587.18c.29-1.89-.22-4.94-2.68-4.71-4.44.41,1.45,5.92,2.68,4.71ZM419.18,584.32l-3.15.39c-.86,1.38.81,3.2,2.01,3.83,1.62.86,3.7.42,4.67,2.21.5.53,2.14-.73,1.94-1.21-1.88-1.87-5.1-2.09-5.47-5.22ZM430.1,593.34c.92-4.69-3.07-5.18-2.02-.34l2.02.34Z"/>
      <path class="cls-1" d="M132.1,454.57v45.65l-1.83.21c-.99-.71,0-6.89.04-8.34.1-4.25-.37-8.51-.39-12.68-.06-7.98.07-15.95.01-23.93.11-1.17,1.27-.92,2.18-.91Z"/>
      <path class="cls-1" d="M305.75,525.22c1.96-.29,2.52,1.88,4.34,2.37.8.22,4.03.79,4.31-.07,1.71-5.33-5.93-8.39-9.94-9.15-.48-.65.05-2.01.8-2.15.82-.15,8.15,3.35,9.17,4.13,1.75,1.34,2.37,4.04,2.55,6.14.45,5.24.02,10.78.28,16.05.09,1.87-.67,2.07-1.54.43-2.01-3.82-.88-8.92-1.43-13.06-3.23-1.01-8.47.11-8.54-4.68Z"/>
      <path class="cls-1" d="M173.79,407.11c.44.39-1.69,2.27-2.04,2.48-8.06,4.89-21.1,7.07-30.42,6.23-1.56-.14-2.58-.34-2.34-2.19,3.17-.52,6.43-.13,9.6-.37,3.78-.28,10.67-1.4,14.34-2.33,1.65-.42,9.97-4.62,10.86-3.82Z"/>
      <path class="cls-1" d="M153.13,580.11c.66-5.54,4.08-15.64,6.06-21.12.4-1.12,3.15-8.16,3.51-8.44.69-.54,1.85-.56,2.39.22l-6.99,18.73-3.15,15.6-1.82.26c.14-1.68-.2-3.62,0-5.25Z"/>
      <path class="cls-1" d="M370.46,452.39l.53,1.79c-.67.05-1.31.32-1.98.38-9.37.8-24.96.62-34.45.02-.69-.04-3.43-.32-3.8-.55-.74-.48-.19-1.64.19-1.64h39.52Z"/>
      <path class="cls-1" d="M107.2,399.02c3.69,3.97,13.75,9.95,18.91,11.72,2.46.84,5.27,1.11,7.83,1.6l.7,3.1c-7.73-1.13-14.72-4.33-20.99-8.91-4.13-3.02-11.19-9.81-12.91-14.63-.17-.49-.55-1.23.37-1.09,1.76,2.38,3.52,4.66,5.43,6.9.31.37.36.98.67,1.32Z"/>
      <path class="cls-1" d="M153.49,520.15v-15.4l30.46-1.46c.96.54-.72,1.01-1.08,1.11-2.54.67-8.99,1.4-11.8,1.61-4.49.34-9.82-.52-14.15-.01-.53.06-.93.04-1.25.56v10.87c0,.54-1.29,3.05-2.18,2.72Z"/>
      <path class="cls-1" d="M532.7,487.54v7.07c0,.17.39,1.12.9.9,1.01-.43,2.51-4.51,4.54-3.44-1.09,2.54-3.82,4.23-4.62,6.98-1.22,4.16.26,8.26-.09,12.23-.17,1.87-1.11,2.5-1.99.54-.8-1.78-.84-4.87-1.66-7.04-.65-1.75-2.43-4.69-3.61-6.17-1.02-1.28-3.74-3.02-3.63-4.72.03-.55.47-1.19.93-.55,1.09,1.88,3.02,3.07,4.31,4.75.41.54,3.08,5.9,3.83,5.04l-.36-14.67c.16-.9.58-1,1.45-.91Z"/>
      <path class="cls-1" d="M374.17,459.37c.8.67.45,1.9-.79,1.74-11.01-.74-24.04,1.66-34.84.36-1.95-.23-1.5-2.14-.35-2.2l35.98.11Z"/>
      <path class="cls-1" d="M403.63,570.15l2.19.6.37,30.03c-.11,1.53-.69,3.45-2.56,3.06v-33.7Z"/>
      <path class="cls-1" d="M245.93,404.57c-2.37,2.15-7.27,4.15-10.43,4.61-9.68,1.41-21.38-6.09-23.29-15.85,1.38.08,1.61,1.86,2.38,2.87,5.78,7.52,15.02,12.76,24.72,10.27,2.24-.57,4.27-1.98,6.61-1.9Z"/>
      <path class="cls-1" d="M197.54,474.87c.44,0,.51.39.18.9-.94,1.43-5.58,4.58-7.24,5.45-4.5,2.36-19.23,5.46-24.14,4.89-.53-.06-.93-.04-1.25-.56-.18-1.82,1.8-1.1,2.99-1.36,7.39-1.57,15.39-2.86,22.47-5.44,1.45-.53,6.59-3.88,6.99-3.88Z"/>
      <path class="cls-1" d="M194.45,394.79c.74.64-3.86,2.77-4.32,3.11-4.12,3.06-6.9,9.04-7.28,14.1-.4,5.32,1.06,10.03,1.81,15.21-1.19.88-2.42-2.3-2.83-3.34-3.02-7.69-1.95-16.91,3.36-23.29,2.29-2.76,5.64-5.3,9.25-5.79Z"/>
      <path class="cls-1" d="M171.25,554.93c.74.71-4.25,11.77-4.82,13.47-1.76,5.2-2.38,10.44-3.68,15.52-.65,2.53-2.64,3.91-2.32-.15.58-7.3,3.98-17.74,7.13-24.39.37-.77,1.85-3.76,2.21-4.23s.99-.17,1.48-.22Z"/>
      <path class="cls-1" d="M154.58,499.31l-.73.38-.96-.72c.16-.6.27-1.19.26-1.82-.06-7.62.05-15.36-.02-22.87-.05-6.52-.39-12.97-.39-19.5.1-.35,1.65-.73,1.83-.04v44.56Z"/>
      <path class="cls-1" d="M244.85,387.54c.02-5.97-2.67-13.21-9.61-13.43-3.84-.12-7.38.55-9.97,3.46-.65.73-.84,2.61-2.18,1.81.45-5.88,8.52-9.52,13.67-7.5,2.41.95,7.4,5.41,8.59,7.72.94,1.83,2.98,7.91-.51,7.93Z"/>
      <path class="cls-1" d="M471.79,495.87v13.95l-.54.54h-6.53c-.12,0-.55-.48-.91-.36v-14.49l7.98.36ZM469.98,508.55v-10.69c0-.96-3.61-1.29-4.03-.69l-.16,11.04,4.19.34Z"/>
      <path class="cls-1" d="M227.51,384.58c-.22-.36-.14-2.41.11-2.84,1.08-1.83,5.79.65,7.28.71.71.03,1.41-.41,2.15-.37,3,.15,5.22.61,4.52,4.19-.35,1.82-3.36,1.38-4.84,1.23-1.09-.11-8.96-2.48-9.23-2.91Z"/>
      <path class="cls-1" d="M375.72,467.61l-.34,1.65c-1.52.1-3.03.45-4.54.54-6.49.36-16.87.56-23.22-.02-.41-.04-1.53-.17-1.64-.59l.07-1.16c.27-.05.72-.42.85-.42h28.82Z"/>
      <path class="cls-1" d="M228.17,579.93c.75.92-5.73,15.25-6.83,17.27-.43.79-3.17,5.6-3.43,5.81-.66.54-1.64.48-2.44.47-.07-.64-.02-1.18.2-1.79,1.35-3.71,4.94-8.95,6.87-12.69,1.61-3.11,2.81-6.49,4.7-9.41l.91.34Z"/>
      <path class="cls-1" d="M243.76,391.89c1.16,1.24-5.89,5.37-6.87,5.63-6.64,1.69-14.51-3.88-15.51-10.61-.11-.74-.36-4.07.46-4.07.87.86.45,2.23.79,3.55.78,3.04,6.08,7.41,8.99,8.41,5.56,1.92,7.5-.67,12.15-2.91Z"/>
      <path class="cls-1" d="M131.01,447.68h15.95v-7.25l1.39.05c.69.9.04,1.79.09,2.62.07,1.2.9,5.95-.01,6.58l-18.82-.25c-.7-.44-.42-8.75-.05-9.01.3-.21,1.45.17,1.45.54v6.7Z"/>
      <path class="cls-1" d="M350.34,427.4c7.93-1.15,16.13-4.04,22.75-8.59.62-.43,1.9-2.06,2.51-2.23,2.1-.59.54,1.54-.23,2.31-5.32,5.35-16.42,10.99-24.12,9.59-.62-.11-1.02-.38-.91-1.08Z"/>
      <path class="cls-1" d="M501.34,538.62l.54.91.39,12.62c-.27,1.27-6.88.2-8.13.19l-.54-.54c.51-4.26-1.26-9.42.49-13.17h7.25ZM500.43,550.94v-10.33c-.65-1.02-5.51-.93-5.78.05-.18.41.35.88.35,1.04v8.88l5.44.36Z"/>
      <path class="cls-1" d="M466.53,340.8c.64.55.82,1.17.91,1.99.15,1.32.12,9.87-.33,10.48-2.48.99-5.06-.1-7.66.21v-12.14l.54-.54h6.53ZM461.51,342.66c-1.26.41-.38,5.74-.3,7.01.03.53-.45,1.19-.27,1.76.33,1.04,4.42,1.12,4.69-.31.15-.79.14-7.35-.05-7.92-.43-.86-3.34-.78-4.07-.54Z"/>
      <path class="cls-1" d="M472.15,533.55c-2.74-.37-5.47.95-8.13.04l.17-12.7c.32-.32,6.28-.16,7.05-.02.41.07.68.18.91.54v12.14ZM470.34,532.47v-9.6c-1.15-1.09-3.21-.34-4.71-.54v8.15c0,.57-.65,1.34.61,1.96l4.1.04Z"/>
      <path class="cls-1" d="M467.44,406.74v11.78l-.54.54h-7.07c.12-.36-.36-.79-.36-.91v-10.87l.54-.54h7.43ZM465.63,417.07v-8.33c-.53-1.04-4.4-1.01-4.67.03l.36,8.44c.77.29,4.06.68,4.3-.13Z"/>
      <path class="cls-1" d="M471.79,472.68v11.96h-7.61c-.69-1.66.06-2.99.02-4.52-.07-2.47-.69-4.9-.33-7.39.37-.58,6.61.09,7.92-.05ZM465.63,482.83c1.51-.2,3.16.74,4.35-.54v-7.61c-.56-.74-1.84-.64-2.74-.56-.34.03-.68-.03-1.01.08l-.6.49v8.15Z"/>
      <path class="cls-1" d="M467.44,357.83v11.59c-1.37.41-7.3.83-8-.25-.36-.55.05-4.91.05-6.11s-.31-3.03-.35-4.37c-.1-.31.36-.87.52-.87h7.79ZM465.63,367.98v-8.51c-.97-1-2.8-.46-4.12-.49l-.54.54.1,8.12c.32.43,4.26.79,4.56.34Z"/>
      <path class="cls-1" d="M438.8,340.8h6.34c.14,0,1.27.82,1.27.91v11.23c-.69,1.36-7.52.63-7.82.2-.45-2.63.22-5.13.22-7.83,0-1.49-.84-2.89-.01-4.51ZM439.89,342.61v8.51c0,.1.37.85.61.92h4.1c-.34-2.7.35-5.92.23-8.48-.01-.3-.14-.89-.48-.97l-4.47.02Z"/>
      <path class="cls-1" d="M460.01,374.13h6.89l.54.54v10.87l-.54.54h-6.89l-.54-.54v-10.87l.54-.54ZM465.63,375.58l-4.39.22-.2,7.89.28.91,4.34-.17-.04-8.84Z"/>
      <path class="cls-1" d="M467.44,435.73h-6.71c-.1,0-.85-.37-.92-.61.48-4.04-.84-8.11.01-12.07h7.07l.54.54v12.14ZM465.59,434.25c.31-.18-.01-6,.02-7.05.03-1.13,1.02-2.42-.53-2.7-1.18-.22-4.23-.46-4.09,1.16.25,2.78.28,5.51.44,8.29l4.16.31Z"/>
      <path class="cls-1" d="M467.44,390.8v11.59c-2.72.8-5.25.05-7.98,0v-11.41l.54-.54h6.53c.12,0,.55.48.91.36ZM465.63,400.95v-8.15c0-.08.35-.27.21-.55-.92-.94-4.15-1.18-4.76.01-.37.73.21,1.06.21,1.26v7.25c1.1,1.08,3.02.48,4.35.18Z"/>
      <path class="cls-1" d="M471.25,353.85c-.83-.15-1.13-.9-1.24-1.65-.48-3.41.16-7.63.49-11.05l6.49-.28.55.54.23,11.72c-.08.17-.66.73-.72.73-1.62,0-4.37.26-5.8,0ZM471.82,352.01c1.27.18,3.83.47,4.42-.78.44-.94.48-8.07-.07-8.45l-4.41.06.07,9.17Z"/>
      <path class="cls-1" d="M456.93,351.13c-.08.98-.14,2.51-1.27,2.72-1.05.2-6.23.19-6.75-.61-.32-.5.04-.8.04-1.02v-11.05c1.97-.14,5.24-.33,7.07,0,.41.07.68.18.91.54-.19,3.06.26,6.39,0,9.42ZM451,342.66c-.47.12-.52.44-.6.85-.15.78-.13,7.36.06,7.91.5,1.47,3.55.46,4.68.45l.18-8.92-4.32-.29Z"/>
      <path class="cls-1" d="M456.93,357.83v11.59c-2.51.6-5.27-.3-7.94-.03.15-3.21-.42-7.2-.05-10.31.06-.53.04-.93.56-1.25h7.43ZM455.48,367.98v-8.15c-.68-1-4.2-1.08-4.75-.3-.09,1.9.08,3.83.06,5.75-.01.88-.66,1.79-.06,2.55.73.9,3.49.07,4.75.16Z"/>
      <path class="cls-1" d="M477.59,423.05v12.68h-6.89c-.59-4.04-.59-8.64,0-12.68h6.89ZM476.14,424.5h-4.35v9.42c1.33.3,3.25.9,4.35-.18v-9.24Z"/>
      <path class="cls-1" d="M477.59,369.79h-6.71l-.49-.6c-.15-3.01-.67-5.99-.43-9.01.06-.8.21-2.71,1.28-2.71h5.8l.54.54v11.78ZM476.09,358.97c-6.38-1.97-4.16,2.17-4.28,6.3-.02.85-.78,2.4-.04,2.9.53.36,4.5.41,4.69-.41l-.37-8.8Z"/>
      <path class="cls-1" d="M449.31,374.13c1.41.04,6.53-.93,7.28.24.85,3.82.1,7.84-.03,11.72h-6.34c-.08,0-.91-1.13-.91-1.27v-10.69ZM455.48,375.58c-1.5-.36-3.1-.28-4.56.34v8.38c.31.45,4.56.87,4.56-.2v-8.51Z"/>
      <path class="cls-1" d="M361.49,562.62c2.04-.11,4.36,2.2,3.52,4.25-.89,2.19-7.64,7.55-9.27,3.85-1.19-2.7,1.15-4.47,2.77-6,1.06-.99.8-1.98,2.98-2.1ZM363.03,565.8c-.17-.18-3.59.67-4.09,1.07-.33.26-1.46,2.32-1.34,2.72.63,2.17,6.22-1.95,5.43-3.79Z"/>
      <path class="cls-1" d="M400.37,507.83l-5.12-.21c-.47-.63-.47-9.44-.34-10.86.29-3.19,1.99-2.96,4.76-2.54.12.09.7,2.04.7,2.2v11.41ZM396.38,496.42c-.33,1.18,0,5.94,0,7.61,0,.68.13,2.19.72,2.55l1.24.14.58-.51v-9.78c0-.8-2.16-1.35-2.54,0Z"/>
      <path class="cls-1" d="M477.59,419.06h-6.71l-.54-.54v-11.23c0-.81,1.06-.54,1.27-.54h5.44l.54.54v11.78ZM472.41,407.9c-1.72.51-.61,2.58-.6,3.72,0,1.04-.41,4.64-.32,5.02.34,1.46,4.69,1.4,4.94.03l-.33-8.24c-.29-.87-2.96-.74-3.68-.52Z"/>
      <path class="cls-1" d="M477.59,374.13v11.96h-6.71l-.54-.54v-10.87c0-1.39,6.11-1.01,7.25-.54ZM476.5,384.64v-8.51c-1.11-1.28-3.17-.77-4.63-.46l-.08,8.98h4.71Z"/>
      <path class="cls-1" d="M348.78,575.83c-.64.79-4.39,2.15-5.49,2.29s-4.95.28-5.45-.73c-1.92-3.92,5.41-6.81,8.53-5.99,1.56.41,3.65,2.91,2.41,4.43ZM347.44,575.21c.45-3.48-7.97-.54-7.97.55,2.09,1.98,5.55-.13,7.97-.55Z"/>
      <path class="cls-1" d="M400.73,484.28l-5.64-.34v-11.64c.36-.51,4.97-.69,5.64.2v11.78ZM399.2,473.49c-.3-.24-1.34-.4-1.74-.29-1.88.48-.69,2.54-.69,4,0,1.21-.55,4.13-.32,5.01.31,1.18,2.55,1.57,2.83.08.26-1.35.24-6.37.18-7.99,0-.27-.05-.64-.26-.8Z"/>
      <path class="cls-1" d="M477.59,402.4c-2.47.36-4.8.5-7.25,0v-11.41l.54-.54h6.16l.54.54v11.41ZM471.84,401.26c1.09,0,3.98.48,4.47-.65-.8-1.52.79-7.93-.15-8.56-6.62-1.65-4.43,1.53-4.34,5.83.02,1.2-.68,2.27.02,3.39Z"/>
      <path class="cls-1" d="M369.38,472.32c.9.58.18,1.42.16,2.34-.06,2.96.22,5.98-.14,8.92l-.44.29c-3.22,1.01-5.71-1.16-1.22-1.4l.21-8.71c-.4-.55-3.68-.64-4.2.2v5.8c0,.62,1.21,2.01-.9,1.99l-.55-.54v-8.7l.54-.47c.15-.01.27.28.36.28h6.16Z"/>
      <path class="cls-1" d="M463.27,447.32c-.2-.03-.57-.36-.85-.42l-.07-1.51c.1-.4.97-.53,1.31-.57,3.33-.41,9.56-.25,13.04-.06.92.05,1.78.18,2.66.42l.04,2.14h-16.13Z"/>
      <path class="cls-1" d="M89.32,538.99c-2.38.58-2.45-1.05-3.99-2.36-1.94-1.65-4.15-2.18-6.71-1.98-1.28.1-5.98,2.5-5.94.59,1.59-2.89,6.87-3.15,9.83-2.68,2.53.39,7.31,3.42,6.8,6.43Z"/>
      <path class="cls-1" d="M412.7,599.31c-.26.87-1.81.73-1.81-.36v-21.74c0-.68,1.81-.68,1.81,0v22.1Z"/>
      <path class="cls-1" d="M274.93,497.68c.44.28.57,6.61.76,7.76.3,1.87,1.31,4.29,1.69,6.28.51,2.64.61,5.42,1.18,8.06-2.68.48-2.12-4.09-2.64-6.23-.88-3.61-2.14-6.73-2.42-10.62-.07-.94-.21-4.68.34-5.09l1.1-.16Z"/>
      <path class="cls-1" d="M302.34,446.01c-.84-1.29-2.57-2-2.02-4.49,1.61-.3,1.62,1.5,2.38,2.51s1.88,2.46,2.71,3.46c2.87,3.44,6.57,6.32,9.42,9.78-.54.69-.42.44-.96.25-5.25-1.83-8.65-7.14-11.52-11.52Z"/>
      <path class="cls-1" d="M478.66,459.3l-.14,1.45-17.79.34c-.9.08-1.3-1.46-.67-1.82,2.17-.44,18.01-.69,18.6.03Z"/>
      <path class="cls-1" d="M479.4,467.61c.13.94-.34,1.64-1.28,1.8-6.36-.25-12.66.88-18.99-.02l-.03-1.78h20.3Z"/>
      <path class="cls-1" d="M111.07,478.12c-5.3-.33-10.67-1.15-15.8-2.15-.46-1.04-.12-1.93,1.11-1.87,3.38.68,7.03.27,10.42.85,1.88.32,4.92.67,4.26,3.17Z"/>
      <path class="cls-1" d="M463.27,454.57c-.16-.02-1.26-.45-1.29-.56l.56-1.62h16.31c.59,0,.87,1.82,0,2.17-4.88-.46-10.85.62-15.59,0Z"/>
      <path class="cls-1" d="M253.54,516.16c.1,1.02.02,1.82-.28,2.8-.55,1.83-5.57,8.61-7.2,9.47-.57.3-1.33.68-1.96.24-1.26-.87,1.39-2.75,1.98-3.49,1.83-2.32,4.42-7.09,6.36-8.78.41-.36.6-.27,1.1-.25Z"/>
      <path class="cls-1" d="M446.41,357.83v10.69c0,.89-1.05,1.08-1.81.91v-10.51l-4.37.16c-.98.66,1.07,3.88-.89,3.82-.67-.02-.98-3.56-.91-4.14.26-2.13,6.35-1.12,7.98-.93Z"/>
      <path class="cls-1" d="M459.28,514.71h17.4l.54.9c-.22.17-.79.91-.9.91h-17.04c-.55,0-.84-1.49,0-1.81Z"/>
      <path class="cls-1" d="M212.94,591.16c.27,1.45-.96,2.24-1.51,3.38-1.12,2.31-3.55,7.65-5.06,9.43-.82.96-1.81,1.38-1.74-.26.08-1.99,4.64-9.74,6.15-11.27.59-.59,1.25-1.3,2.17-1.27Z"/>
      <path class="cls-1" d="M112.16,455.66l-.34,2.02-11.02-.63c-2.47-2.65.23-2.62,2.49-2.49,2.87.16,5.93,1.33,8.87,1.1Z"/>
      <path class="cls-1" d="M190.47,505.29c-.56-.55,1.14-9.41,1.89-10.61.8-1.27,1.6-.67,1.75.63.17,1.45-.93,7.26-1.48,8.7-.44,1.17-.87,1.4-2.16,1.28Z"/>
      <path class="cls-1" d="M572.93,486.09l-1.12-.21-6.13-16.09c.73-.13,1.03.47,1.39.96,2.11,2.94,3.33,7.34,4.5,10.72.53,1.53,1.97,2.92,1.36,4.61Z"/>
      <path class="cls-1" d="M190.46,635c.15.82-.04.58-.46.81-3,1.62-6.83,2.08-10.13,2.92-1.51.38-2.81,1.42-4.63.98-.14-.74.33-.87.88-1.11,1.89-.85,8.06-3.05,9.97-3.44,1.45-.29,2.91-.13,4.37-.16Z"/>
      <path class="cls-1" d="M387.99,564.4v1.7c-.36.59-7.92.51-9.19.41-.99-.08-2.66-.26-3.45-.91-.17-.79,1.56-.86,1.99-.9,2.22-.19,4.64.14,6.89,0,1.35-.09,2.41-1.19,3.75-.31Z"/>
      <path class="cls-1" d="M221.28,363.63c.7.63-3.51,3.39-3.86,3.75-1.57,1.63-3.89,5.55-4.4,7.74-.07.28,0,4.79-1.16,3.72-1.47-1.35,1.28-7.66,2.23-9.18.68-1.08,6.03-7.08,7.19-6.04Z"/>
      <path class="cls-1" d="M102.37,562.54c1.11,4.29-.62,11.14-3.32,14.61-.98,1.26-2.08,1.3-1.31-.22,1.18-2.33,2.56-4.83,3.09-7.42.37-1.79.13-5.16.52-6.37.15-.48.52-.7,1.02-.6Z"/>
      <path class="cls-1" d="M456.93,402.21l-.91.55-.87-.6c.11-2.06.93-8.31.15-9.91-.73-1.51-3.42.1-4.17-1.44l5.07-.19c.16.1.73.98.73,1.09v10.51Z"/>
      <path class="cls-1" d="M231.07,450.94c-.79.14-.73-.06-.91-.7-.81-3.01-.8-10.02-.56-13.26.05-.65-.1-1.17.56-1.61,1.12-.01.87,8.26.89,9.25.02.87.41,1.67.41,2.52,0,1.19-.67,2.5-.39,3.8Z"/>
      <path class="cls-1" d="M113.25,566.52c-.02-2.31,3.06-2.72,4.91-2.56,1.42.7,5.52-.99,4.19,1.68-.21.23-1.8.87-2.03.87h-7.07Z"/>
      <path class="cls-1" d="M471.97,491.52c.87.26.73,1.81-.36,1.81h-6.89c-1.24,0-1.24-1.81,0-1.81,1.56,0,6.18-.32,7.25,0Z"/>
      <path class="cls-1" d="M214.51,583.31c.33-.27.71-.43,1.13-.47,1.75.46-.95,5.94-2.15,6.51-1.82-.85-.04-5.15,1.02-6.03Z"/>
      <path class="cls-1" d="M296.33,480.29c.66-.68,3.31,2.77,3.8,3.27.65.65,2.37,1.42,2.38,2.35l-.55.9c-.97.06-6.15-4.74-5.62-6.51Z"/>
      <path class="cls-1" d="M133.18,521.96l-3.49,3.91c-1.11-.05-2.01-.73-2.67-1.56-.16-.67.25-.55.72-.71,1.77-.59,3.69-.92,5.44-1.64Z"/>
      <path class="cls-1" d="M203.88,333.92c.29-.33,5.2,2.65,5.8,3.07.38.27,1.21.39,1.08,1.08-.15.87-.86.22-1.19.12-1.07-.34-6.98-2.82-5.69-4.28Z"/>
      <path class="cls-1" d="M106.28,572.77c.4.47.76,2.28,1.09,3.07.4.95,1.66,1.43,1.16,3-1.46-.53-2.58-2.58-3.07-4-.24-.69-1-2.5.18-2.35.14.02.54.18.63.28Z"/>
      <path class="cls-1" d="M365.57,529.2c-.59.52-4.45-2.27-4.91-2.88-.53-.71-.9-2.11.44-1.54.49.21,5.02,3.93,4.47,4.42Z"/>
      <path class="cls-1" d="M162.47,509.37c.92.99.66,4.81-1.17,4.25-1.1-.33-.12-4.66.35-4.7.19.26.65.26.82.44Z"/>
      <path class="cls-1" d="M397.11,569.06c2.09-.84,2.94,3.15,1.59,3.59-2.15.71-1.57-2.29-1.59-3.59Z"/>
      <path class="cls-1" d="M136.4,453.89c.27.62.76,1.86.06,2.33-1.32.34-3.1.11-2.76-1.66l2.7-.67Z"/>
      <path class="cls-1" d="M144.73,456.32l-2.48-.13-.56-.53.18-.84c.74-1.05,4.35-.38,2.86,1.5Z"/>
      <path class="cls-1" d="M352.52,471.6l2.38.33c.74,3.58-2.29,2.35-2.38-.33Z"/>
      <path class="cls-1" d="M420.31,472.32v11.78c-2.28,1.4-5.44.01-7.98.18v-11.41l.61-.48c2.56-.7,4.79,0,7.36-.07ZM418.5,482.83v-8.51c-.4-.64-.97-.51-1.61-.56-.69-.06-1.44,0-2.14.08l-.6.49v7.97c1.05,1.06,2.95.36,4.35.54Z"/>
      <path class="cls-1" d="M435.07,494.14c6.9-2.03,3.91,10.08,4.3,13.71l-.44.29c-1.1-.1-5.15.57-5.52-.54.35-2.61-1.29-12.59,1.66-13.46ZM436.16,495.56c-1.04.29-1.26,2.74-1.34,3.76-.1,1.21-.22,6.66.73,7.24.52.32,1.66.28,2.32.48.51-.11.87-1.11.93-1.6.13-1.11-.17-7.23-.36-8.29s-1.26-1.87-2.27-1.59Z"/>
      <path class="cls-1" d="M439.82,484.21c-1.95.55-4.02.44-5.94-.27-.32-2.95-.12-5.95-.14-8.92,0-.98-.86-2.67.43-3.19.81-.33,5.17-.07,5.56.47l.09,11.91ZM438.8,482.28c.4-2.43-.29-5.79,0-8.33-.83-.97-3.64-1.42-3.9.04l.33,8.78c1.1.42,3.32,1.05,3.57-.49Z"/>
      <path class="cls-1" d="M499.7,502.94c-.39,1.28-2.48.39-2.82-1.16-.2-.89-.17-4.09.37-4.72.5-.58,2.45-.59,2.45.09v5.8Z"/>
      <path class="cls-1" d="M497.17,516.34c.3-1.45,2.18-1.77,2.18-.36v5.8c0,1.28-2.18,1.28-2.18,0,0-1.46-.26-4.21,0-5.43Z"/>
      <path class="cls-1" d="M499.34,465.62c-.14.86-.92,1.38-1.62.53-.79-.95-.85-6.4.15-7.08.55-.38,1.47.03,1.47.38,0,1.77.26,4.56,0,6.16Z"/>
      <path class="cls-1" d="M497.17,423.05c2.97-1.1,2.78,1.99,2.56,4.19-.32,3.17-2.56,1.42-2.56,1.07v-5.25Z"/>
      <path class="cls-1" d="M497.58,478.89h1.53s.51.54.51.54c-.1,1.9,1.04,6.66-2.12,5.06-.6-.77-.45-5.27.07-5.6Z"/>
      <path class="cls-1" d="M497.54,447.68c-.57-1.02-.73-6.13.89-5.79,1.38.29,1.61,6.34-.89,5.79Z"/>
      <path class="cls-1" d="M498.08,403.96c1.67.19,1.43,5.79.35,6.04-.47.11-2.35-3.24-2.39-3.8-.08-1.19.87-2.37,2.04-2.24Z"/>
      <polygon class="cls-1" points="491 403.48 491.73 406.22 493.9 406.02 492.27 410.36 491.56 407.45 489.56 407.47 489.9 403.64 491 403.48"/>
      <path class="cls-1" d="M504.78,408.92c-.52-2.17-1.17-4.31-.36-6.52,1.7-1.23,2.13,7.81.36,6.52Z"/>
      <path class="cls-1" d="M433.67,396.65v3.51s-1.51.37-1.51.37c-1.35-.31-1.03-2.79-.93-3.88.81-.45,1.62-.45,2.44,0Z"/>
      <path class="cls-1" d="M421.08,395.92c.43-.27,1.93-.13,2.08.54.12,1.62.56,4.1-1.77,3.22-.89-.52-.89-3.4-.31-3.76Z"/>
      <path class="cls-1" d="M394.12,401.58c-2.34,2.03-3.71-2.39-1.1-3.11,2.08-.58,1.85,2.46,1.1,3.11Z"/>
      <path class="cls-1" d="M442.37,401.62c-3.31,2.21-2.8-3.52-1.94-3.56,1.52.8,2.41,1.71,1.94,3.56Z"/>
      <path class="cls-1" d="M412.3,395.91c.36.89.46,4.42-1.2,3.92-1.35-.41-1.68-5.11,1.2-3.92Z"/>
      <path class="cls-1" d="M402.13,396.65c.59,1.46.47,4.49-1.76,3.94v-3.99s1.76.05,1.76.05Z"/>
      <path class="cls-1" d="M445.33,399.13c1.87.16,1.96,2.67.54,3.62-1.28-1.06-.8-2.24-.54-3.62Z"/>
      <path class="cls-1" d="M389.09,402.71l-1.4.05-.02-2.66.93-.58c1.13.89.86,1.98.49,3.19Z"/>
      <path class="cls-1" d="M428.65,426.49l-.9.54c-.93-.2-.5-6.16-.53-7.44-.05-1.95-.6-3.88-.01-5.96.4-.15,1.45.16,1.45.55v12.32Z"/>
      <path class="cls-1" d="M405.45,414.35l1.23-.33.58.88c-.37,1.95.6,11.19-.19,12.12-.42.5-.66.41-1.26.38.38-.87-.36-2.23-.36-2.72v-10.33Z"/>
      <path class="cls-1" d="M414.15,413.63c1.84-.75,3.69-.87,5.47.24l.17,12.46c-.36.52-5.01.68-5.64-.2v-12.5ZM418.14,415.08l-1.57-.33c-1.5.93-.6,2.17-.59,3.39.02,1.58-.34,5.68.04,6.84.35,1.07,2.12.55,2.12.05v-9.96Z"/>
      <path class="cls-1" d="M161.46,527.21c.14-1.01,1.57-5.93,2.88-3.97-.24,1.36-.59,2.97-.7,4.33-.19,2.26,0,6.35-.44,8.25-.12.53-.41,1-.83,1.35l-.9-.54c.28-2.95-.39-6.56,0-9.42Z"/>
      <path class="cls-1" d="M66.48,490.44c-.29-3.02,3.12-4.78,4.9-6.88,9.33-11.02,18.74-29.91,9.4-43.46-2.05-2.98-5.01-5.2-7.77-7.45,3.63-.09,7.75,4.43,9.72,7.32,10.67,15.71-.58,35.28-11.71,47.22-.55.59-3.75,4.08-4.53,3.25Z"/>
      <path class="cls-1" d="M357.13,238.17c-.71.71-5.5,2.11-6.64,2.24-2.67.31-11.44-1.11-13.82-2.43-7.01-3.88-4.89-9.96-4.1-16.2.57-4.46.79-11.61,3.47-15.37,2.98-4.18,11.67-3.04,16.12-2.03,5.76,1.31,9.78,3.71,9.41,10.15-.29,5.16-1.8,11.28-2.8,16.4-.38,1.94-.25,5.85-1.64,7.24ZM341.55,205.03c-4.45.61-5.54,4.54-6.35,8.51-.53,2.58-2.5,14.31-2.24,16.2.43,3.09,2.58,6.45,5.69,7.35,3.71,1.08,11.79,2.34,15.3.99,2.26-.87,2.35-2.25,2.8-4.45,1.17-5.6,3.05-15.79,3.01-21.27-.03-3.62-2.8-4.88-5.79-5.8-3.6-1.1-8.7-2.04-12.42-1.53Z"/>
      <path class="cls-1" d="M153.41,236.92c1.79-.23,3.8-.44,5.34.62,1.37.95,5.99,7.27,5.09,8.7-5.07,2.39-9.75,5.55-14.69,8.16-2.33,1.23-5.05,2.82-7.62,3.27-.58-.29-3.63-7.12-3.83-8.15-.44-2.39.25-4.02,2-5.64,2.01-1.87,11.04-6.61,13.71-6.95ZM141.94,255.6l1.48-.04c6.12-3.35,12.52-6.48,18.24-10.42.66-1.47-2.97-6.23-4.53-6.71-1-.31-2.7-.25-3.74-.08-1.94.33-8.63,3.86-10.54,5.05-1.37.85-3.28,2.14-3.48,3.77-.4,3.15,1.43,5.69,2.57,8.43Z"/>
      <path class="cls-1" d="M388.54,236.58c2.97-3.1,6.64-2.26,10.39-1.4,4.73,1.09,9.64,2.87,14.34,4.14l.47.65c.29,1.04-1.5,4.62-1.94,5.91-1.26,3.75-1.24,7.76-5.97,8.53-5.03.82-16.11-1.91-19.03-6.38-1.94-2.97-.6-9,1.74-11.45ZM391.2,236.53c-3.05.89-4.39,9.63-2.25,11.88,2.54,2.67,13.12,4.8,16.69,4.36.84-.1,2.2-.61,2.72-1.26.33-.41,3.12-9.12,3.19-9.9.1-1.17-1.07-1.47-2.03-1.79-2.68-.9-9.34-2.87-11.95-3.27-1.17-.18-5.37-.3-6.36-.01Z"/>
      <path class="cls-1" d="M209.24,215.55c3.73-.22,4.86.34,6.55,3.74,1.89,3.8,5.71,14.79,6.49,18.88,1.19,6.29-1.13,8.43-6.56,10.67-4.42,1.82-13.9,4.64-16.84-.69-1.49-6.39-5.73-14.28-6.58-20.6-1.11-8.2,10.53-11.61,16.93-12ZM207.05,217.34c-1.03.15-3.86.91-4.91,1.25-2.54.83-7.97,3.54-8.4,6.48-.36,2.49,2.93,11,3.87,13.84.85,2.58,1.81,8.59,4.36,9.78,2.89,1.35,9.12-.07,12.12-1.13,7.29-2.58,7.55-3.95,5.64-11.19-1.19-4.51-3.43-12.64-5.55-16.55-1.69-3.11-3.8-2.96-7.13-2.49Z"/>
    </g>
  </g>
</svg>