<?xml version="1.0" encoding="UTF-8"?>
<svg version="1.1" xmlns="http://www.w3.org/2000/svg" width="2217" height="675">
<path d="M0 0 C731.61 0 1463.22 0 2217 0 C2217 222.75 2217 445.5 2217 675 C1485.39 675 753.78 675 0 675 C0 452.25 0 229.5 0 0 Z " fill="#FEFEFE" transform="translate(0,0)"/>
<path d="M0 0 C137.73034735 0 137.73034735 0 169.75 30.25 C186.03896953 47.46380113 195.37018509 70.60489335 198 94 C198.10957031 94.85207031 198.21914062 95.70414062 198.33203125 96.58203125 C200.08956174 112.96221546 199.57311017 129.7470636 197 146 C196.72542969 147.83691406 196.72542969 147.83691406 196.4453125 149.7109375 C192.15061144 174.57778686 180.06961573 198.26197363 159.5 213.5 C113.08117964 244.75581587 52.06058541 234 0 234 C0 156.78 0 79.56 0 0 Z " fill="#070909" transform="translate(1265,377)"/>
<path d="M0 0 C16.5 0 33 0 50 0 C55.43240796 21.0272297 60.84858515 42.05858682 66.2530365 63.09301758 C67.03284021 66.12780531 67.81286094 69.16253722 68.59289551 72.19726562 C71.7324085 84.41305834 74.86750904 96.62996978 77.99499226 108.84884834 C79.42197702 114.42375928 80.85059279 119.99824024 82.28317261 125.57171631 C83.64781467 130.88128685 85.00783786 136.19201944 86.36439133 141.50366211 C86.87051905 143.4821396 87.37830061 145.46019481 87.88780594 147.43780518 C88.58793823 150.15647763 89.28213281 152.87659915 89.97485352 155.59716797 C90.18194915 156.3956056 90.38904478 157.19404324 90.60241604 158.01667595 C91.47954925 161.48537836 92 164.3969826 92 168 C92.66 168 93.32 168 94 168 C94.09104004 166.97559814 94.18208008 165.95119629 94.27587891 164.89575195 C95.10117874 158.35595179 96.92158312 152.03347246 98.5859375 145.66796875 C98.95922864 144.22468212 99.33202823 142.78126828 99.70437622 141.33773804 C100.50421574 138.24032561 101.30696648 135.14368871 102.11206055 132.04763794 C104.04730941 124.60457614 105.9676755 117.15766825 107.88924408 109.71106529 C108.56015625 107.11162387 109.23164595 104.51233204 109.90313721 101.91304016 C113.09465482 89.55155952 116.25033938 77.18125595 119.3828125 64.8046875 C119.70813021 63.51936221 119.70813021 63.51936221 120.04001999 62.20807076 C122.14431106 53.89178602 124.24464721 45.57450362 126.3441143 37.25699997 C127.1196142 34.18546988 127.89584274 31.11412418 128.67217636 28.04280472 C129.19848931 25.95911882 129.72357835 23.87512739 130.24856567 21.79110718 C130.72784012 19.89432724 130.72784012 19.89432724 131.21679688 17.95922852 C131.62714172 16.33211693 131.62714172 16.33211693 132.04577637 14.6721344 C133.31969092 9.7697349 134.66725439 4.88673391 136 0 C155.47 0 174.94 0 195 0 C198.37493867 8.99983644 198.37493867 8.99983644 199.21565247 12.35708618 C199.5069798 13.50586888 199.5069798 13.50586888 199.80419254 14.67785931 C200.10571562 15.89620323 200.10571562 15.89620323 200.41333008 17.13916016 C200.63536574 18.02013524 200.85740141 18.90111032 201.08616543 19.80878162 C201.81826017 22.71781257 202.54385365 25.62842476 203.26953125 28.5390625 C203.78777654 30.60273904 204.30648325 32.66629976 204.82562256 34.72975159 C205.9244094 39.10025204 207.0205575 43.47140176 208.11453247 47.84310913 C210.65596282 57.99805832 213.21100473 68.1495844 215.7659893 78.30113029 C216.32847308 80.53617317 216.8907962 82.77125647 217.45295906 85.00638008 C222.0843023 103.41897916 226.7764913 121.81449214 231.5625 140.1875 C231.85331451 141.30433167 232.14412903 142.42116333 232.4437561 143.57183838 C233.95773659 149.3824801 235.47606511 155.19196126 237 161 C239.28017291 157.09828693 240.19690681 152.81199297 241.28393555 148.47021484 C241.6143988 147.17375204 241.6143988 147.17375204 241.95153809 145.85109806 C242.68425712 142.9721243 243.41045048 140.09154472 244.13671875 137.2109375 C244.65360892 135.17510782 245.17093628 133.13938909 245.68867493 131.10377502 C246.78888175 126.77480839 247.88636354 122.44516388 248.98168945 118.11495972 C250.68396057 111.38599352 252.39291614 104.65873798 254.10351562 97.93188477 C254.67270157 95.69337529 255.24188492 93.45486516 255.81106567 91.21635437 C256.09187107 90.11203253 256.37267647 89.00771069 256.66199112 87.86992455 C257.511655 84.52759453 258.36075954 81.1851229 259.20968628 77.84260559 C263.46385759 61.09384616 267.73440633 44.34943992 272.05142212 27.61676025 C272.68253838 25.16884215 273.312244 22.72055992 273.94052124 20.27191162 C274.79032685 16.96034642 275.64443115 13.64992386 276.5 10.33984375 C276.74357742 9.38743301 276.98715485 8.43502228 277.2381134 7.45375061 C277.56884102 6.1810154 277.56884102 6.1810154 277.90625 4.88256836 C278.18952148 3.78373573 278.18952148 3.78373573 278.47851562 2.66270447 C279 1 279 1 280 0 C281.44289787 -0.09295815 282.89029785 -0.11746513 284.33618164 -0.11352539 C285.2570607 -0.11344986 286.17793976 -0.11337433 287.12672424 -0.11329651 C288.12775681 -0.10813522 289.12878937 -0.10297394 290.16015625 -0.09765625 C291.68956093 -0.09553383 291.68956093 -0.09553383 293.24986267 -0.09336853 C296.52077107 -0.08775097 299.79161213 -0.0751955 303.0625 -0.0625 C305.27408756 -0.05748726 307.48567618 -0.05292396 309.69726562 -0.04882812 C315.13153357 -0.03777584 320.56576197 -0.02102063 326 0 C323.39601357 11.24831014 320.64794462 22.44904172 317.75 33.625 C317.35603138 35.15002125 316.96223624 36.67508733 316.56860352 38.20019531 C315.76756462 41.30265877 314.96553926 44.40486438 314.16259766 47.50683594 C313.07882892 51.69408855 311.99781449 55.88204668 310.91796875 60.0703125 C309.60147059 65.17609466 308.28369935 70.28154504 306.96484375 75.38671875 C305.64083586 80.51337746 304.32088857 85.64106416 303.00390625 90.76953125 C299.78949125 103.27879139 296.53779722 115.77624665 293.1875 128.25 C288.64055412 145.19419383 284.32447557 162.19676707 279.99237061 179.19688416 C277.56344945 188.72305106 275.10443171 198.24138519 272.63671875 207.75756836 C270.37525504 216.49384782 268.18894841 225.24420637 266 234 C246.2 234 226.4 234 206 234 C197.67958896 202.47618917 189.45499879 170.93551373 181.57696533 139.29815674 C176.14984061 117.50706063 170.57413989 95.75386755 165 74 C163.34961663 77.19210892 162.29561773 80.20667696 161.37109375 83.6875 C160.90956909 85.41746216 160.90956909 85.41746216 160.4387207 87.18237305 C160.10831787 88.44218994 159.77791504 89.70200684 159.4375 91 C159.08103741 92.34873114 158.72450913 93.69744491 158.36791992 95.04614258 C155.38097519 106.3856123 152.53319544 117.75912415 149.70654297 129.1394043 C146.37575976 142.54338828 142.97745965 155.92973121 139.5625 169.3125 C139.28722473 170.39144531 139.01194946 171.47039062 138.72833252 172.58203125 C133.50279466 193.05911142 128.25465507 213.53037354 123 234 C102.21 234 81.42 234 60 234 C57.62455895 226.27981659 55.31793115 218.70138326 53.4140625 210.87890625 C53.19197113 209.98078217 52.96987976 209.08265808 52.74105835 208.15731812 C52.27302262 206.26424401 51.80645541 204.37080627 51.34130859 202.47702026 C50.36413613 198.50109566 49.37852306 194.52729586 48.39047241 190.55406189 C47.92242606 188.67181867 47.45570909 186.78924413 46.9906311 184.90626526 C45.01090044 176.92873608 42.85642836 169.00295237 40.6484375 161.0859375 C38.18437947 152.11087047 35.92432939 143.08082322 33.625 134.0625 C33.38542572 133.12296478 33.14585144 132.18342957 32.89901733 131.21542358 C31.94089801 127.45725009 30.98301721 123.69901597 30.02561951 119.94065857 C27.96982017 111.87314851 25.89581758 103.81044249 23.8125 95.75 C23.4913623 94.50750488 23.17022461 93.26500977 22.83935547 91.98486328 C22.20435162 89.5284605 21.56926194 87.07207991 20.93408203 84.61572266 C20.00492017 81.01904542 19.07823041 77.42174039 18.15234375 73.82421875 C17.84063232 72.61386963 17.5289209 71.40352051 17.20776367 70.15649414 C16.57079116 67.68313132 15.93423313 65.20966172 15.2980957 62.73608398 C13.44104008 55.52617973 11.56132322 48.32255184 9.66229248 41.12358093 C8.54929339 36.90378174 7.43968281 32.68309361 6.32995605 28.46243286 C5.77877824 26.37054726 5.22581325 24.27913169 4.67102051 22.1882019 C3.89089479 19.24769417 3.11675745 16.30566695 2.34375 13.36328125 C2.10666321 12.47615448 1.86957642 11.58902771 1.62530518 10.67501831 C1.41057556 9.85325104 1.19584595 9.03148376 0.97460938 8.18481445 C0.7855603 7.47001419 0.59651123 6.75521393 0.4017334 6.01875305 C0 4 0 4 0 0 Z " fill="#070909" transform="translate(0,377)"/>
<path d="M0 0 C2.125 1.9375 2.125 1.9375 6.125 6.9375 C6.455 2.3175 6.785 -2.3025 7.125 -7.0625 C22.635 -7.0625 38.145 -7.0625 54.125 -7.0625 C54.21557974 13.35765742 54.28914378 33.77765011 54.33224869 54.19795799 C54.35280228 63.68119924 54.3807837 73.16430604 54.42675781 82.64746094 C54.46684767 90.92086403 54.49248503 99.19416968 54.50135398 107.46766722 C54.50653156 111.84130344 54.51854708 116.21466106 54.54792023 120.58820724 C54.73997669 150.36223194 53.46736217 176.75654774 31.8125 199.6875 C23.49693557 207.64769843 14.02347787 212.44538209 3.125 215.9375 C1.66320313 216.41896484 1.66320313 216.41896484 0.171875 216.91015625 C-22.66266893 223.07777804 -50.1641562 220.30501673 -70.875 208.9375 C-74.15686176 206.85161082 -77.02474797 204.57641069 -79.875 201.9375 C-80.56980469 201.32132813 -81.26460937 200.70515625 -81.98046875 200.0703125 C-87.02670234 195.35544509 -90.8276341 190.14766233 -93.875 183.9375 C-93.875 183.2775 -93.875 182.6175 -93.875 181.9375 C-90.28337534 179.85392912 -86.69039697 177.77271762 -83.09619141 175.69360352 C-81.87577209 174.98720635 -80.65571337 174.28018578 -79.43603516 173.57250977 C-77.67446724 172.55056992 -75.91157899 171.53094075 -74.1484375 170.51171875 C-73.09060059 169.89901123 -72.03276367 169.28630371 -70.94287109 168.6550293 C-67.96171814 166.98604863 -64.94318848 165.43942451 -61.875 163.9375 C-61.49730469 164.50597656 -61.11960937 165.07445312 -60.73046875 165.66015625 C-54.54304583 174.33993688 -45.57181664 181.06847744 -34.875 182.9375 C-23.25555154 184.04279831 -12.88539259 182.25201247 -3.66015625 174.76953125 C4.19099654 166.71222127 6.36683619 157.65705302 6.30078125 146.79101562 C6.28402344 145.70498047 6.26726562 144.61894531 6.25 143.5 C6.24097656 142.38689453 6.23195313 141.27378906 6.22265625 140.12695312 C6.1992224 137.39690977 6.166414 134.6673199 6.125 131.9375 C5.44860474 132.73849121 5.44860474 132.73849121 4.75854492 133.55566406 C-4.4247708 144.27014146 -14.74988711 150.09358132 -28.875 151.9375 C-48.16913499 153.17929819 -66.77124855 149.77842171 -81.9375 137.0625 C-98.90210413 120.48492106 -105.56038318 95.88025447 -106.15820312 72.80078125 C-106.44375095 47.93908414 -100.90115199 22.55932088 -83.21484375 4.1171875 C-60.19902701 -17.32325614 -24.92468923 -17.88075532 0 0 Z " fill="#070909" transform="translate(1662.875,456.0625)"/>
<path d="M0 0 C1.62371072 -0.00711279 3.24741897 -0.0148134 4.87112427 -0.02307129 C8.26522823 -0.03647421 11.65909974 -0.03810391 15.05322266 -0.03222656 C19.37952561 -0.02633518 23.70470452 -0.05691737 28.03079033 -0.09734344 C31.38194676 -0.12332982 34.73283646 -0.12608802 38.08407974 -0.12245178 C39.67792713 -0.12413291 41.27178819 -0.13367733 42.86553574 -0.15159607 C53.00992276 -0.25311089 61.6673261 0.2111474 69.51412964 7.42932129 C75.8736481 13.94990959 77.84051882 21.12472274 77.76757812 29.98925781 C77.7729509 30.80020401 77.77832367 31.61115021 77.78385925 32.44667053 C77.79358412 34.19424317 77.79659754 35.9418638 77.79350281 37.68946075 C77.78899074 40.46603561 77.80312182 43.24198442 77.82189941 46.01849365 C77.85854833 51.91856912 77.87235994 57.81857754 77.8828125 63.71875 C77.89494273 70.5480685 77.91675219 77.37707953 77.96281433 84.20626068 C77.97625663 86.92256697 77.97223667 89.63847161 77.96740723 92.35479736 C78.01615813 107.60414809 80.01843839 123.10437589 91.3828125 134.46875 C102.31678073 143.39954848 113.65126602 147.62040658 127.70800781 147.6105957 C128.52187454 147.61407013 129.33574127 147.61754456 130.17427063 147.62112427 C131.93390477 147.62844956 133.69354796 147.63381204 135.45319366 147.63741493 C138.24570568 147.64462097 141.03804609 147.66031851 143.83050537 147.67875671 C151.7676762 147.7310299 159.70475058 147.77916975 167.64208984 147.79467773 C172.50566341 147.80480058 177.3688002 147.83423072 182.23220062 147.87599754 C184.07718339 147.88824816 185.92222798 147.89343974 187.76725006 147.89119911 C200.12498991 147.8798845 210.53077194 147.98745346 219.8125 157.19921875 C226.00248466 166.14544037 225.99012057 174.90139995 225.94921875 185.40234375 C225.95446344 187.0470464 225.960743 188.69174605 225.96800232 190.33644104 C225.97836931 193.77172063 225.97389897 197.20658504 225.95922852 200.6418457 C225.94204839 205.02084653 225.96554488 209.39853415 226.00071812 213.77738857 C226.02279185 217.1706036 226.02122668 220.56350923 226.0129528 223.95677376 C226.01213868 225.57014468 226.01889782 227.18353957 226.03372383 228.79684258 C226.11294516 238.97609725 225.69606069 247.74688832 218.40821838 255.59519958 C211.07214395 262.58633803 204.98891409 263.79552503 195.078125 263.96484375 C185.54880596 262.68553771 179.69652759 257.50767432 173.12724304 250.84809875 C172.24032817 249.96898384 171.3534133 249.08986892 170.43962222 248.18411416 C167.99365146 245.7589106 165.5633923 243.31848867 163.13557231 240.87513316 C160.50861321 238.23682283 157.86726023 235.61298894 155.22776794 232.98722839 C150.06543373 227.84709091 144.91666394 222.69357147 139.77267971 217.53507695 C135.5906545 213.34174548 131.4037571 209.15333721 127.21335793 204.96837425 C126.6162542 204.37203669 126.01915047 203.77569913 125.40395269 203.16129073 C124.19080857 201.94974529 122.97765326 200.73821104 121.76448689 199.52668788 C110.39752673 188.1739748 99.04592359 176.80600569 87.69953672 165.43273588 C77.97004766 155.68090903 68.22752399 145.94226578 58.4753418 136.21313477 C47.14190091 124.90647026 35.81663968 113.59171454 24.50425178 102.26398343 C23.29724107 101.05538002 22.09021993 99.84678703 20.88318825 98.63820457 C19.99244313 97.74630239 19.99244313 97.74630239 19.08370316 96.83638198 C14.90472446 92.65309181 10.71998359 88.47562006 6.53296471 84.3003788 C1.4283596 79.20981762 -3.66719794 74.11040129 -8.75147567 68.9995347 C-11.34424067 66.39365714 -13.94079094 63.79188529 -16.54840088 61.20085526 C-19.37817844 58.38879853 -22.18809172 55.55768193 -24.99653625 52.72431946 C-25.81919064 51.91281868 -26.64184503 51.1013179 -27.48942834 50.26522619 C-34.03097966 43.61067742 -38.19086576 37.11101879 -38.1796875 27.53125 C-37.88574858 18.73204631 -35.19649203 12.58266257 -28.8046875 6.53125 C-20.45164033 -0.71755639 -10.36535409 -0.00553319 0 0 Z " fill="#4CB7D8" transform="translate(1754.6171875,-0.46875)"/>
<path d="M0 0 C1.62085123 -0.00083053 3.24170235 -0.00329685 4.86254883 -0.00730896 C8.24488954 -0.01015345 11.62656313 0.00440055 15.00878906 0.03198242 C19.31927153 0.06606341 23.62856263 0.06003436 27.93910217 0.04131985 C31.28171518 0.03069307 34.62405647 0.03973879 37.96664429 0.05470467 C39.55487254 0.05984542 41.14312966 0.05945523 42.73135376 0.05315971 C53.24349262 0.02712375 62.82963506 0.40625156 71.0625 7.75390625 C78.95753354 16.64454141 78.75609679 26.81380407 78.70392036 38.06107712 C78.69116588 40.8295181 78.70269398 43.59697998 78.71995544 46.36538696 C78.74654501 51.24993778 78.75225567 56.13424451 78.75085449 61.01885986 C78.74861922 68.82747785 78.76306208 76.63579294 78.80644035 84.44429398 C78.81617941 87.1517807 78.80761321 89.85877796 78.79774475 92.56625366 C78.81763304 107.95450297 80.93170716 123.04206068 92.1875 134.62890625 C102.60678713 143.85457576 115.09976397 147.96023283 128.85327148 147.88427734 C129.66757629 147.8878978 130.4818811 147.89151825 131.32086182 147.89524841 C133.07225368 147.90209096 134.82366663 147.90465761 136.57507133 147.90330124 C139.35529102 147.90232739 142.13513313 147.91537838 144.91529846 147.93228149 C152.81402722 147.97829889 160.71271382 148.00315233 168.61157227 148.00976562 C173.45912759 148.0148006 178.3062839 148.03914472 183.15370369 148.07509232 C184.99032246 148.0848383 186.82699645 148.08725091 188.66363335 148.08192062 C210.35426195 148.02190272 210.35426195 148.02190272 219.0625 155.75390625 C226.94380376 164.58140441 226.78575218 175.05119788 226.71875 186.22265625 C226.72145097 187.821088 226.7253384 189.41951815 226.73034668 191.01794434 C226.73621336 194.35310653 226.72777117 197.68783753 226.70898438 201.02294922 C226.68619606 205.27286869 226.69933451 209.52177736 226.72327423 213.77165985 C226.73780949 217.06792658 226.73309113 220.36395828 226.72276306 223.66023254 C226.72011704 225.22614159 226.7232897 226.79207281 226.73268127 228.35795593 C226.78248168 238.99195494 226.39057849 248.41788514 218.75 256.56640625 C212.61803405 262.13496508 207.70715706 263.76985951 199.5 263.94140625 C198.34113281 263.97878906 197.18226563 264.01617187 195.98828125 264.0546875 C186.39105664 262.97956162 180.50916532 257.67589006 173.93193054 251.008255 C173.04501567 250.12914009 172.1581008 249.25002517 171.24430972 248.34427041 C168.79833896 245.91906685 166.3680798 243.47864492 163.94025981 241.03528941 C161.31330071 238.39697908 158.67194773 235.77314519 156.03245544 233.14738464 C150.87012123 228.00724716 145.72135144 222.85372772 140.57736721 217.6952332 C136.395342 213.50190173 132.2084446 209.31349346 128.01804543 205.1285305 C127.4209417 204.53219294 126.82383797 203.93585538 126.20864019 203.32144698 C124.99549607 202.10990154 123.78234076 200.89836729 122.56917439 199.68684413 C111.20221423 188.33413105 99.85061109 176.96616194 88.50422422 165.59289213 C78.77473516 155.84106528 69.03221149 146.10242203 59.2800293 136.37329102 C47.94658841 125.06662651 36.62132718 113.75187079 25.30893928 102.42413968 C24.10192857 101.21553627 22.89490743 100.00694328 21.68787575 98.79836082 C20.79713063 97.90645864 20.79713063 97.90645864 19.88839066 96.99653823 C15.70941196 92.81324806 11.52467109 88.63577631 7.33765221 84.46053505 C2.2330471 79.36997387 -2.86251044 74.27055754 -7.94678817 69.15969095 C-10.53955317 66.55381339 -13.13610344 63.95204154 -15.74371338 61.36101151 C-18.57349094 58.54895478 -21.38340422 55.71783818 -24.19184875 52.88447571 C-25.01450314 52.07297493 -25.83715753 51.26147415 -26.68474084 50.42538244 C-32.39446226 44.61703243 -36.20922015 39.12262856 -37.30859375 30.93359375 C-37.13926133 21.02200286 -35.92912652 14.94154377 -28.93994141 7.60350037 C-20.49477819 -0.23491509 -10.84370314 -0.10126517 0 0 Z " fill="#3C96E4" transform="translate(1918.8125,-0.62890625)"/>
<path d="M0 0 C1.08539062 0.37382812 2.17078125 0.74765625 3.2890625 1.1328125 C12.4578653 4.63784851 21.46554515 9.55798197 28 17 C28.54011719 17.54914063 29.08023438 18.09828125 29.63671875 18.6640625 C45.20671785 35.07842164 44.43336228 55.73970193 44.29296875 76.8671875 C44.28736408 79.35824323 44.2830981 81.84930231 44.28010559 84.34036255 C44.26872544 90.85375313 44.23931775 97.36693869 44.20599365 103.88024902 C44.17514464 110.5438395 44.16156874 117.20745055 44.14648438 123.87109375 C44.1144409 136.91416644 44.06172949 149.95703399 44 163 C28.82 163 13.64 163 -2 163 C-2.33 158.38 -2.66 153.76 -3 149 C-3.61875 149.845625 -4.2375 150.69125 -4.875 151.5625 C-12.96124133 161.11282403 -24.89319624 165.87980465 -37 168 C-55.49581575 169.37504783 -71.01415764 167.00427324 -86.05859375 155.4140625 C-95.58921409 146.71126887 -101.46667361 133.27167425 -102.203125 120.46875 C-102.35893008 107.27725316 -100.9689921 95.96442885 -93 85 C-92.48566406 84.29101562 -91.97132812 83.58203125 -91.44140625 82.8515625 C-79.31163388 67.6675309 -58.60808285 62.68793975 -40.21948242 60.40795898 C-33.01990684 59.62805491 -25.79300727 59.79020812 -18.5625 59.875 C-17.04102164 59.88506849 -15.51953669 59.89418738 -13.99804688 59.90234375 C-10.3318904 59.92400818 -6.66599017 59.95831551 -3 60 C-3.28427228 58.10044119 -3.57774538 56.20225807 -3.875 54.3046875 C-4.03742188 53.24749512 -4.19984375 52.19030273 -4.3671875 51.10107422 C-5.54616363 45.32354537 -7.62064864 40.90430014 -12.26953125 37.18359375 C-19.9124505 32.31137948 -27.43093997 30.61589842 -36.375 30.6875 C-37.11814453 30.69313965 -37.86128906 30.6987793 -38.62695312 30.70458984 C-52.34910852 31.00666868 -60.95177892 37.25692744 -71 46 C-71.95519531 45.2265625 -72.91039062 44.453125 -73.89453125 43.65625 C-81.45582687 37.55700752 -89.06458867 31.60923046 -97 26 C-95.58219734 18.35399279 -88.80259459 13.54462565 -82.75 9.3125 C-77.09037417 5.49751087 -71.42324052 2.32949523 -65 0 C-63.97132812 -0.391875 -62.94265625 -0.78375 -61.8828125 -1.1875 C-43.31824556 -7.03716661 -18.33953338 -6.42093503 0 0 Z " fill="#070909" transform="translate(2021,448)"/>
<path d="M0 0 C1.41549104 1.18524481 2.81150687 2.39412103 4.1875 3.625 C4.92355469 4.26824219 5.65960937 4.91148437 6.41796875 5.57421875 C22.15144774 20.22449781 29.57028899 40.68731188 32.1875 61.625 C32.1875 69.545 32.1875 77.465 32.1875 85.625 C-5.7625 85.625 -43.7125 85.625 -82.8125 85.625 C-78.43842712 104.0558706 -78.43842712 104.0558706 -66.15625 117.359375 C-55.88461255 123.15788001 -46.19104094 124.01435673 -34.625 121.5 C-24.28558847 118.60766789 -17.64914563 112.37996845 -11.8125 103.625 C-6.07232326 104.68696319 -1.08302265 108.09777131 3.9699707 110.8894043 C5.8722977 111.93601327 7.7843445 112.96314779 9.69726562 113.99023438 C10.90689721 114.6550738 12.11590418 115.32105121 13.32421875 115.98828125 C14.97490356 116.88994019 14.97490356 116.88994019 16.65893555 117.80981445 C19.1875 119.625 19.1875 119.625 20.1418457 121.69287109 C20.28011915 127.54472175 12.70682939 134.26347504 8.875 138.375 C-7.89089596 154.26648415 -29.96652053 158.1116908 -52.16015625 157.83203125 C-69.77099715 157.35176237 -86.0592239 151.69529957 -99.8125 140.625 C-100.92818359 139.77035156 -100.92818359 139.77035156 -102.06640625 138.8984375 C-118.50120706 125.46477423 -127.53235313 104.3851944 -129.8125 83.625 C-131.17872815 56.88557996 -127.19081444 30.91345074 -108.8828125 10.19140625 C-102.95933864 3.85988375 -96.46211369 -1.26003539 -88.8125 -5.375 C-87.80574219 -5.91898437 -86.79898438 -6.46296875 -85.76171875 -7.0234375 C-59.23508297 -20.30294992 -23.86911528 -17.79859634 0 0 Z " fill="#070909" transform="translate(857.8125,458.375)"/>
<path d="M0 0 C16.97785911 15.13744078 25.45000298 35.08752087 28.625 57.3125 C28.625 65.8925 28.625 74.4725 28.625 83.3125 C-9.325 83.3125 -47.275 83.3125 -86.375 83.3125 C-82.30362523 98.5801554 -79.80631242 107.21641774 -67.375 116.3125 C-58.2133091 121.46595113 -48.23371198 121.39273387 -38.125 119.125 C-27.68228231 116.18415643 -21.32805432 110.24208147 -15.375 101.3125 C-11.24044256 101.9032182 -8.32396572 103.28146702 -4.7421875 105.40234375 C-3.68902344 106.02173828 -2.63585937 106.64113281 -1.55078125 107.27929688 C0.08310547 108.25479492 0.08310547 108.25479492 1.75 109.25 C2.84699219 109.89646484 3.94398438 110.54292969 5.07421875 111.20898438 C12.94310142 115.85790094 12.94310142 115.85790094 16.625 118.3125 C15.78848535 124.35870081 12.51067992 127.79814282 8.625 132.3125 C8.03589844 132.99828125 7.44679688 133.6840625 6.83984375 134.390625 C-5.69162178 147.90651564 -23.81938672 154.57949751 -41.94482422 155.43359375 C-65.52882032 156.24669481 -85.72338077 152.50429104 -104.375 137.3125 C-105.32052734 136.61060547 -105.32052734 136.61060547 -106.28515625 135.89453125 C-121.93372341 123.7392661 -130.64277451 101.72528075 -133.125 82.5625 C-133.2411547 80.81437171 -133.31836171 79.06356726 -133.375 77.3125 C-133.40078125 76.64766602 -133.4265625 75.98283203 -133.453125 75.29785156 C-134.3282439 49.99597648 -128.31475969 26.72472955 -111.375 7.3125 C-110.85550781 6.69761719 -110.33601563 6.08273437 -109.80078125 5.44921875 C-82.36836255 -24.60897302 -30.66761107 -24.11838978 0 0 Z " fill="#070909" transform="translate(444.375,460.6875)"/>
<path d="M0 0 C11.53800565 8.34653137 18.04965346 22.20281654 20.53123474 35.94093323 C21.24664788 41.12113176 21.13108133 46.3155601 21.11352539 51.53491211 C21.11367142 52.67710205 21.11381744 53.81929199 21.1139679 54.99609375 C21.11327343 58.75653 21.10550286 62.51691619 21.09765625 66.27734375 C21.09579042 68.89050774 21.09436729 71.50367208 21.09336853 74.11683655 C21.09026759 80.2825319 21.08207095 86.4482094 21.07201904 92.61389691 C21.06081939 99.63689773 21.05533776 106.65989944 21.05032361 113.68290699 C21.03988725 128.12194849 21.02155723 142.56097069 21 157 C5.16 157 -10.68 157 -27 157 C-27.02578125 149.47574219 -27.0515625 141.95148438 -27.078125 134.19921875 C-27.1033059 129.41858621 -27.12964853 124.63801615 -27.16015625 119.85742188 C-27.2084175 112.27758587 -27.25249012 104.69789459 -27.27099609 97.11791992 C-27.28619417 91.00341096 -27.32069643 84.88928183 -27.36830902 78.7749424 C-27.3830902 76.44792809 -27.39103913 74.12085955 -27.39188385 71.79379845 C-27.39426501 68.52187477 -27.42143839 65.25099106 -27.45410156 61.97924805 C-27.4490712 61.0276178 -27.44404083 60.07598755 -27.43885803 59.09552002 C-27.57710634 50.0826608 -29.90963139 41.14507961 -36.21875 34.43359375 C-43.34624862 28.6972078 -52.1188805 27.17357866 -61 28 C-68.38801563 29.8710604 -75.0816071 33.47115248 -79.28125 39.98828125 C-81.9663425 45.08036739 -83.11031302 49.85626745 -83.15821838 55.6254425 C-83.17290161 56.97360298 -83.17290161 56.97360298 -83.18788147 58.34899902 C-83.19363693 59.32220093 -83.1993924 60.29540283 -83.20532227 61.2980957 C-83.21522186 62.33270432 -83.22512146 63.36731293 -83.23532104 64.43327332 C-83.26686704 67.84741948 -83.29166626 71.26157955 -83.31640625 74.67578125 C-83.33698173 77.04518492 -83.35797836 79.41458497 -83.37937927 81.78398132 C-83.43453856 88.01625635 -83.48397497 94.24856417 -83.53222656 100.480896 C-83.5913251 107.96079338 -83.65751929 115.44063091 -83.72252655 122.92047882 C-83.82045877 134.28028262 -83.90936783 145.64012504 -84 157 C-99.84 157 -115.68 157 -132 157 C-132 103.21 -132 49.42 -132 -6 C-116.49 -6 -100.98 -6 -85 -6 C-84.505 3.405 -84.505 3.405 -84 13 C-83.175 11.824375 -82.35 10.64875 -81.5 9.4375 C-62.09802865 -16.14602966 -25.61185893 -15.19347563 0 0 Z " fill="#080A0A" transform="translate(1156,454)"/>
<path d="M0 0 C1.08796875 0.36222656 2.1759375 0.72445313 3.296875 1.09765625 C13.78670072 5.02468491 22.54037498 11.71388244 30 20 C30.99 21.0828125 30.99 21.0828125 32 22.1875 C33 24 33 24 32.79492188 25.93798828 C31.77668027 28.57928698 30.64917921 29.28583636 28.28125 30.8046875 C27.51296875 31.30613281 26.7446875 31.80757813 25.953125 32.32421875 C25.14359375 32.83597656 24.3340625 33.34773438 23.5 33.875 C22.72140625 34.37902344 21.9428125 34.88304687 21.140625 35.40234375 C19.56503972 36.42230045 17.98557717 37.436292 16.40234375 38.44433594 C13.1926479 40.52280971 10.05766312 42.70637843 6.92773438 44.90283203 C5 46 5 46 2 46 C0.45703125 44.42578125 0.45703125 44.42578125 -1.1875 42.3125 C-6.49234934 36.01577757 -12.66840622 31.95218215 -21 31 C-35.24300164 30.1088155 -35.24300164 30.1088155 -47.625 36.1875 C-49.49689032 40.01636656 -49.20972084 43.04018044 -48 47 C-44.79154882 53.27106367 -37.42617721 55.48398603 -31.08355713 57.65640259 C-25.24882571 59.53195898 -19.3663075 61.26231559 -13.48095703 62.97143555 C4.22629686 68.14195368 21.62329582 75.2562683 31.75390625 91.671875 C38.50226695 104.28009751 40.09024266 117.49464494 35.9375 131.25 C33.76961579 137.89472968 30.92158659 143.02849874 26 148 C25.35417969 148.68320312 24.70835937 149.36640625 24.04296875 150.0703125 C6.76905346 166.92760274 -17.76728509 168.43687327 -40.546875 168.21484375 C-60.06827702 167.76039816 -79.51451934 160.65031784 -93.953125 147.265625 C-97.58443598 143.24623499 -100.31942292 138.68885508 -103 134 C-100.10169087 130.84620902 -97.27305471 128.84607804 -93.5 126.8359375 C-92.448125 126.27132812 -91.39625 125.70671875 -90.3125 125.125 C-89.219375 124.5475 -88.12625 123.97 -87 123.375 C-85.3603125 122.49714844 -85.3603125 122.49714844 -83.6875 121.6015625 C-79.48105956 119.35400364 -75.27554203 117.11382193 -71 115 C-70.18208984 115.99580078 -70.18208984 115.99580078 -69.34765625 117.01171875 C-64.38558542 122.82200681 -59.97706454 126.88501293 -53 130 C-51.845 130.598125 -50.69 131.19625 -49.5 131.8125 C-40.14681313 135.09926245 -26.9385488 134.08964491 -18 130 C-13.80055909 127.74615226 -13.80055909 127.74615226 -11 124 C-10.49042139 119.74794242 -10.45174832 116.14871781 -12.3125 112.25 C-21.30838555 104.71856093 -34.45001881 102.24303575 -45.51904297 99.02856445 C-63.32380086 93.82957515 -82.62921289 86.14269822 -92.11328125 68.97265625 C-97.47249575 57.05017465 -99.27551783 43.27077669 -95.4375 30.625 C-90.1213358 16.90706581 -80.03934311 7.49439077 -66.74609375 1.54296875 C-46.36481231 -7.02948348 -20.88122789 -7.13988174 0 0 Z " fill="#07090A" transform="translate(585,448)"/>
<path d="M0 0 C58.71830986 0 58.71830986 0 77 16 C90.73397868 29.9005954 95.42109421 49.968472 96 69 C96.0515625 70.23363281 96.103125 71.46726562 96.15625 72.73828125 C96.80272619 95.13598761 93.92061014 121.12024376 77.9609375 138.16015625 C56.7882599 158.02535774 27.3411232 155 0 155 C0 103.85 0 52.7 0 0 Z " fill="#FEFEFE" transform="translate(1316,417)"/>
<path d="M0 0 C15.51 0 31.02 0 47 0 C47 13.2 47 26.4 47 40 C59.21 40 71.42 40 84 40 C84 50.89 84 61.78 84 73 C71.79 73 59.58 73 47 73 C47.06186417 87.48358902 47.06186417 87.48358902 47.16015625 101.96679688 C47.20836101 107.88078022 47.25245448 113.79457979 47.27099609 119.70874023 C47.28622817 124.48114125 47.32078893 129.25305891 47.36830902 134.02524376 C47.38305558 135.83868883 47.39103712 137.65220294 47.39188385 139.46570778 C47.06343275 155.18725497 47.06343275 155.18725497 53.690979 168.98152161 C58.97453707 174.13297581 65.26107919 175.23348259 72.44116211 175.18017578 C73.26495361 175.16196777 74.08874512 175.14375977 74.9375 175.125 C78.9284375 175.063125 78.9284375 175.063125 83 175 C83 184.24 83 193.48 83 203 C72.66349773 206.87618835 63.60936223 208.37746328 52.625 208.3125 C51.11728027 208.30404053 51.11728027 208.30404053 49.57910156 208.29541016 C36.69126879 208.08525983 24.65681162 205.83223191 14.71484375 196.9609375 C1.13226656 182.59133247 -0.16008773 164.99977214 -0.11352539 146.22070312 C-0.113243 144.62348431 -0.11340226 143.02626537 -0.1139679 141.42904663 C-0.11425385 137.11146477 -0.1083898 132.7939109 -0.10139394 128.47633553 C-0.09512674 123.95732898 -0.09455394 119.43832174 -0.09336853 114.91931152 C-0.09026513 106.37015728 -0.08206512 97.82101588 -0.07201904 89.27186728 C-0.0608271 79.53547215 -0.0553397 69.79907639 -0.05032361 60.06267643 C-0.03988166 40.04177553 -0.02154852 20.02089224 0 0 Z " fill="#070909" transform="translate(1826,408)"/>
<path d="M0 0 C15.51 0 31.02 0 47 0 C47 13.53 47 27.06 47 41 C59.21 41 71.42 41 84 41 C84 51.56 84 62.12 84 73 C71.79 73 59.58 73 47 73 C47.06182711 87.68573544 47.06182711 87.68573544 47.16015625 102.37109375 C47.20838753 108.36637606 47.25247115 114.3614763 47.27099609 120.35693359 C47.2862123 125.19416611 47.32074551 130.03092023 47.36830902 134.867939 C47.38307178 136.70733085 47.39103807 138.54679102 47.39188385 140.38624191 C47.03275055 155.65229849 47.03275055 155.65229849 53.690979 168.91659546 C59.00341732 174.10415639 65.20537601 175.23389614 72.44116211 175.18017578 C73.26495361 175.16196777 74.08874512 175.14375977 74.9375 175.125 C78.9284375 175.063125 78.9284375 175.063125 83 175 C83 184.24 83 193.48 83 203 C66.71522193 209.10679178 45.391803 211.7295775 28.71875 205.3203125 C15.45319829 198.87813365 8.2225054 190.78331817 3 177 C-0.50458456 166.40964338 -0.14124133 155.30044152 -0.11352539 144.29077148 C-0.11324292 142.71310935 -0.11340243 141.13544709 -0.1139679 139.55778503 C-0.11425352 135.2981116 -0.10839487 131.03846662 -0.10139394 126.77879977 C-0.09512119 122.31852283 -0.09455351 117.85824515 -0.09336853 113.39796448 C-0.09026675 104.96217454 -0.08206895 96.52639764 -0.07201904 88.09061342 C-0.06082203 78.48236682 -0.05533842 68.87411958 -0.05032361 59.26586807 C-0.03988533 39.51056983 -0.02155424 19.75528945 0 0 Z " fill="#070909" transform="translate(641,408)"/>
<path d="M0 0 C16.17 0 32.34 0 49 0 C49 77.22 49 154.44 49 234 C32.83 234 16.66 234 0 234 C0 156.78 0 79.56 0 0 Z " fill="#080A0A" transform="translate(2096,377)"/>
<path d="M0 0 C1.62085321 -0.00524636 3.24170337 -0.01152651 4.86254883 -0.01878357 C8.244776 -0.02914057 11.62658121 -0.02469386 15.00878906 -0.01000977 C19.31938705 0.00718379 23.62865265 -0.01634788 27.93910217 -0.05149937 C31.28170415 -0.07357317 34.62399206 -0.07200818 37.96664429 -0.06373405 C39.55489566 -0.06292023 41.14317143 -0.06967366 42.73135376 -0.08450508 C52.84814191 -0.16453052 61.4959519 0.33186548 69.3190918 7.52684021 C77.93995222 16.36804421 77.65023823 26.32715398 77.62109375 37.96484375 C77.6256626 39.56613383 77.63097026 41.16742195 77.63697815 42.76870728 C77.64588292 46.11574293 77.64351695 49.46253965 77.63354492 52.80957031 C77.62206751 57.07520479 77.64226077 61.34000989 77.67146206 65.60553551 C77.68990876 68.91036116 77.68951471 72.21499122 77.68382454 75.5198555 C77.68367231 77.09135729 77.68963442 78.66287318 77.70211601 80.23432541 C77.77429766 90.81180653 77.30744056 100.08908713 70.0625 108.44140625 C63.1649718 114.6228775 55.69963301 115.99719715 46.65625 116.1953125 C34.26930968 113.9494821 26.42135316 104.53421448 17.94921875 95.9921875 C16.49648087 94.54282371 15.04300195 93.09420234 13.58882141 91.64628601 C10.55419718 88.61900488 7.52872725 85.58293954 4.50952148 82.5402832 C0.65542705 78.65770397 -3.22068481 74.7980097 -7.10397053 70.94465351 C-10.1063526 67.96041312 -13.09663323 64.96427405 -16.08348656 61.96449852 C-17.50745826 60.53721183 -18.93509699 59.11357324 -20.36657143 57.69381142 C-36.53140181 41.6323391 -36.53140181 41.6323391 -38.44140625 31.09765625 C-38.2432909 22.05427324 -36.86897125 14.58893445 -30.6875 7.69140625 C-21.65668419 -0.14091458 -11.33500572 -0.04493052 0 0 Z " fill="#3F98F7" transform="translate(2067.8125,-0.56640625)"/>
<path d="M0 0 C0 12.54 0 25.08 0 38 C-5.61 38.66 -11.22 39.32 -17 40 C-27.89027776 43.33576075 -36.91414513 47.86316177 -43.375 57.5625 C-50.28158809 70.84830269 -50.60295116 84.3126144 -50.609375 98.93359375 C-50.62439026 100.90757073 -50.6411243 102.88153531 -50.65948486 104.85548401 C-50.70279529 109.99932498 -50.72307608 115.14299662 -50.73822021 120.2869873 C-50.76140027 126.48651191 -50.81378695 132.68585314 -50.86116028 138.88523102 C-50.92956396 148.25686796 -50.96134453 157.62798091 -51 167 C-66.51 167 -82.02 167 -98 167 C-98 113.54 -98 60.08 -98 5 C-84.14 5 -70.28 5 -56 5 C-55.505 16.385 -55.505 16.385 -55 28 C-53.5459375 25.525 -53.5459375 25.525 -52.0625 23 C-44.64586259 11.44487892 -34.30678258 4.91619053 -21.1875 1.125 C-15 0 -15 0 0 0 Z " fill="#060808" transform="translate(1009,444)"/>
<path d="M0 0 C16.17 0 32.34 0 49 0 C49 53.79 49 107.58 49 163 C32.83 163 16.66 163 0 163 C0 109.21 0 55.42 0 0 Z " fill="#090B0B" transform="translate(1748,448)"/>
<path d="M0 0 C15.84 0 31.68 0 48 0 C48 53.46 48 106.92 48 162 C32.16 162 16.32 162 0 162 C0 108.54 0 55.08 0 0 Z " fill="#060808" transform="translate(1488,449)"/>
<path d="M0 0 C8.59142262 7.55897699 11.51867649 19.63676866 12.36987305 30.67602539 C13.04691858 47.07187295 13.46939464 65.30807035 2.1328125 78.6015625 C-2.84469434 83.71432768 -8.33717788 86.94143992 -15.57641602 87.0703125 C-16.24987061 87.06 -16.9233252 87.0496875 -17.6171875 87.0390625 C-18.32093506 87.03003906 -19.02468262 87.02101563 -19.74975586 87.01171875 C-27.83524349 86.74470574 -34.06004856 84.90722378 -39.7421875 78.9140625 C-51.28624225 64.24632234 -51.07007939 43.27682838 -49.3046875 25.6015625 C-48.08596605 15.63962973 -44.26065448 6.25773009 -36.7421875 -0.6484375 C-33.92727665 -2.80292696 -31.32898996 -4.48743685 -27.8671875 -5.3984375 C-27.0215625 -5.6253125 -26.1759375 -5.8521875 -25.3046875 -6.0859375 C-15.71358988 -6.95785547 -7.74226758 -5.79860208 0 0 Z " fill="#FEFEFE" transform="translate(1657.8671875,485.3984375)"/>
<path d="M0 0 C7.60373861 4.7440717 12.29029996 10.70330102 14.5 19.4375 C15.71997089 27.63771673 13.61480242 33.89440736 8.9921875 40.63671875 C4.97925542 45.68554725 0.83452505 48.94702352 -5.5 50.4375 C-14.95174012 51.47805854 -21.93764083 50.86444977 -29.39453125 44.9296875 C-35.63805392 39.27765645 -38.63099523 33.03405894 -39.125 24.625 C-38.82963869 16.91606969 -35.96905035 9.9268372 -30.49609375 4.421875 C-22.13826046 -2.11214267 -9.97494862 -4.56613561 0 0 Z " fill="#080A0A" transform="translate(1784.5,375.5625)"/>
<path d="M0 0 C7.02238084 3.22880333 12.75642978 8.5453439 15.5390625 15.91015625 C17.16402593 23.51122487 17.27741585 31.76214362 13.13671875 38.51953125 C12.76546875 39.04804688 12.39421875 39.5765625 12.01171875 40.12109375 C11.43421875 41.00796875 10.85671875 41.89484375 10.26171875 42.80859375 C4.58866585 48.63923145 -1.46258166 51.265256 -9.55078125 51.49609375 C-17.36019793 51.42356047 -22.97014858 49.71267306 -28.828125 44.4765625 C-35.54683121 37.19933304 -36.61982593 30.53977915 -36.3984375 20.7890625 C-35.53909575 13.104092 -31.77306373 8.22566148 -25.9296875 3.41015625 C-17.95080335 -1.88769439 -9.23198536 -2.71528981 0 0 Z " fill="#080A0A" transform="translate(1521.98828125,374.87890625)"/>
<path d="M0 0 C1.16080078 0.00451172 2.32160156 0.00902344 3.51757812 0.01367188 C6.36593934 0.02539353 9.21419222 0.0418024 12.0625 0.0625 C12.37660817 13.2271495 12.33362819 26.64831235 3.2734375 37.1328125 C-2.43611884 42.569402 -8.57769101 45.09576917 -16.4375 45.4375 C-22.74426207 45.18434899 -27.91996426 43.3187015 -33.25 40 C-37.49884309 35.35591569 -39.78722349 30.52825206 -40.0625 24.1796875 C-39.59795493 17.07601913 -38.06576224 11.86073499 -32.8125 6.875 C-23.49585412 -0.63335175 -11.32938711 -0.08373055 0 0 Z " fill="#FEFEFE" transform="translate(2005.9375,536.9375)"/>
<path d="M0 0 C11.84595377 8.32079835 14.46180475 17.0399261 17 31 C-5.44 31 -27.88 31 -51 31 C-49.53552 19.28416 -46.08148526 9.89403507 -37 2 C-27.09511308 -4.47143247 -10.43731283 -6.11775078 0 0 Z " fill="#F9FAFA" transform="translate(409,481)"/>
<path d="M0 0 C9.49427252 7.29916816 11.76098385 17.22837995 13.828125 28.59765625 C-8.611875 28.59765625 -31.051875 28.59765625 -54.171875 28.59765625 C-52.96074242 17.69746302 -49.88587295 8.60179991 -41.796875 0.91015625 C-29.85120641 -8.43427797 -12.51901799 -8.08332277 0 0 Z " fill="#FAFAFA" transform="translate(829.171875,483.40234375)"/>
<path d="M0 0 C5.65053402 3.15765136 9.60748132 7.16165841 11.8125 13.3125 C12.58505038 19.60931471 12.17728952 25.81077398 8.8125 31.3125 C4.83534454 35.73156162 0.5634899 38.89572334 -5.4375 39.5625 C-11.5649093 39.86139801 -16.19486848 38.96590633 -21.1875 35.3125 C-26.35411664 30.57069406 -28.68510609 26.04456905 -29.625 19.0625 C-28.90211002 12.86630016 -26.73958248 7.52937024 -21.95703125 3.375 C-14.94903005 -1.38083768 -8.03647233 -3.7747067 0 0 Z " fill="#F5F5F5" transform="translate(2199.1875,576.6875)"/>
<path d="M0 0 C5.65053402 3.15765136 9.60748132 7.16165841 11.8125 13.3125 C12.58505038 19.60931471 12.17728952 25.81077398 8.8125 31.3125 C4.83534454 35.73156162 0.5634899 38.89572334 -5.4375 39.5625 C-11.5649093 39.86139801 -16.19486848 38.96590633 -21.1875 35.3125 C-26.35411664 30.57069406 -28.68510609 26.04456905 -29.625 19.0625 C-28.90211002 12.86630016 -26.73958248 7.52937024 -21.95703125 3.375 C-14.94903005 -1.38083768 -8.03647233 -3.7747067 0 0 Z M-19.78125 6.77734375 C-24.03417456 11.83387324 -24.53615973 15.10472599 -24.46875 21.55078125 C-23.94669674 26.67705419 -21.31186465 29.29782946 -17.625 32.625 C-13.47404272 35.49873966 -10.14498932 35.64299929 -5.1875 35.3125 C0.67878117 33.49192998 3.36210461 31.18364644 6.8125 26.3125 C8.47869387 21.3139184 8.44072535 16.9987891 6.625 12.125 C3.20015117 6.8105794 0.05046209 3.77244857 -6.1875 2.3125 C-11.30012441 2.3125 -15.90835139 3.21769429 -19.78125 6.77734375 Z " fill="#171A1A" transform="translate(2199.1875,576.6875)"/>
<path d="M0 0 C11.55555556 0 11.55555556 0 15 2 C16.38550197 4.77100394 16.1877467 6.9334706 16 10 C15.01 11.485 15.01 11.485 14 13 C14.99 14.485 14.99 14.485 16 16 C16.25760279 18.69452521 16.08900053 21.28548375 16 24 C14.68 24 13.36 24 12 24 C11.34 21.03 10.68 18.06 10 15 C8.02 15 6.04 15 4 15 C4 17.97 4 20.94 4 24 C2.68 24 1.36 24 0 24 C0 16.08 0 8.16 0 0 Z " fill="#0F1111" transform="translate(2183,583)"/>
<path d="M0 0 C2.475 0.495 2.475 0.495 5 1 C6.3832764 3.37347426 7.36010895 5.40197872 8.3125 7.9375 C8.57611328 8.58396484 8.83972656 9.23042969 9.11132812 9.89648438 C11 14.62061688 11 14.62061688 11 17 C11.66 17 12.32 17 13 17 C13.17015625 16.443125 13.3403125 15.88625 13.515625 15.3125 C15.23315937 9.90409391 17.35342255 5.01937104 20 0 C21.32 0 22.64 0 24 0 C24 7.92 24 15.84 24 24 C23.01 24 22.02 24 21 24 C20.67 19.05 20.34 14.1 20 9 C17.69 13.95 15.38 18.9 13 24 C10 23 10 23 8.39453125 19.83984375 C7.85406562 18.54445956 7.32944044 17.24245052 6.8125 15.9375 C5.884375 13.648125 4.95625 11.35875 4 9 C3.67 13.95 3.34 18.9 3 24 C2.01 24 1.02 24 0 24 C0 16.08 0 8.16 0 0 Z " fill="#1329EE" transform="translate(2193,239)"/>
<path d="M0 0 C6.27 0 12.54 0 19 0 C19 0.99 19 1.98 19 3 C16.69 3 14.38 3 12 3 C12 9.93 12 16.86 12 24 C10.68 24 9.36 24 8 24 C8 17.07 8 10.14 8 3 C5.36 3 2.72 3 0 3 C0 2.01 0 1.02 0 0 Z " fill="#2E41F0" transform="translate(2170,239)"/>
<path d="M0 0 C1.32 0 2.64 0 4 0 C4 7.92 4 15.84 4 24 C3.34 24 2.68 24 2 24 C1.67 18.06 1.34 12.12 1 6 C0.01 6 -0.98 6 -2 6 C-1.125 1.125 -1.125 1.125 0 0 Z " fill="#0920ED" transform="translate(2213,239)"/>
<path d="M0 0 C2.31 0.33 4.62 0.66 7 1 C7.33 2.32 7.66 3.64 8 5 C4.77208445 7.1519437 3.71599191 7.20086443 0 7 C0 4.69 0 2.38 0 0 Z " fill="#E5E6E6" transform="translate(2187,587)"/>
<path d="M0 0 C0 6.27 0 12.54 0 19 C-0.33 19 -0.66 19 -1 19 C-1.33 14.05 -1.66 9.1 -2 4 C-2.66 5.65 -3.32 7.3 -4 9 C-4.99 8.67 -5.98 8.34 -7 8 C-6.62952882 5.25851328 -6.31412056 3.41406801 -4.625 1.1875 C-3 0 -3 0 0 0 Z " fill="#2D40F0" transform="translate(2215,244)"/>
</svg>
