<?xml version="1.0" standalone="no"?>
<!DOCTYPE svg PUBLIC "-//W3C//DTD SVG 20010904//EN"
 "http://www.w3.org/TR/2001/REC-SVG-20010904/DTD/svg10.dtd">
<svg version="1.0" xmlns="http://www.w3.org/2000/svg"
 width="260.000000pt" height="260.000000pt" viewBox="0 0 260.000000 260.000000"
 preserveAspectRatio="xMidYMid meet">
<metadata>
Created by potrace 1.11, written by Peter Selinger 2001-2013
</metadata>
<g transform="translate(0.000000,260.000000) scale(0.100000,-0.100000)"
fill="#000000" stroke="none">
<path d="M1175 2378 c-27 -4 -66 -9 -85 -12 -129 -18 -320 -102 -450 -199 -71
-54 -175 -157 -226 -227 -45 -60 -126 -200 -117 -200 3 0 0 -6 -6 -14 -11 -13
-49 -113 -56 -149 -2 -10 -6 -26 -9 -35 -34 -111 -39 -352 -11 -480 3 -12 7
-32 10 -44 38 -176 146 -366 292 -518 84 -88 89 -89 151 -43 92 69 95 170 7
268 -85 95 -169 263 -189 375 -3 14 -5 25 -6 25 -5 0 -9 63 -9 150 0 108 2
139 12 170 3 11 8 32 11 46 8 49 68 179 113 246 121 181 326 323 518 359 117
21 235 24 325 6 97 -20 104 -22 135 -33 274 -107 450 -294 531 -566 37 -122
39 -309 6 -428 -27 -96 -63 -185 -74 -185 -4 0 -8 -7 -8 -16 0 -8 -26 -49 -57
-91 -117 -154 -132 -197 -90 -265 22 -38 92 -97 114 -98 24 0 166 156 227 250
57 85 108 191 141 290 10 29 25 103 29 135 1 11 4 25 7 30 8 13 4 288 -5 335
-3 19 -13 60 -21 90 -8 30 -17 62 -19 70 -8 31 -49 127 -74 175 -105 201 -299
386 -502 483 -69 32 -168 68 -213 76 -15 2 -30 7 -34 9 -28 18 -286 28 -368
15z"/>
<path d="M1170 1924 c-99 -21 -200 -66 -257 -114 -7 -5 -14 -10 -17 -10 -11 0
-116 -114 -144 -156 -29 -43 -80 -163 -92 -214 -22 -94 -20 -213 5 -320 10
-41 11 -43 28 -84 9 -21 17 -41 17 -44 0 -9 82 -125 107 -151 40 -42 81 -106
96 -147 39 -116 2 -247 -98 -336 -16 -15 -33 -28 -37 -28 -5 0 -8 -4 -8 -9 0
-9 121 -65 150 -69 3 -1 22 -8 42 -16 21 -9 43 -16 49 -16 22 0 109 101 138
159 27 53 49 135 52 191 2 22 -7 109 -14 150 -16 86 -81 208 -151 285 -129
141 -156 311 -75 462 75 138 206 214 359 207 153 -6 277 -87 342 -224 26 -54
31 -78 34 -151 2 -71 -2 -96 -21 -143 -22 -53 -74 -130 -131 -191 -14 -15 -40
-57 -58 -94 -55 -109 -69 -167 -69 -286 0 -92 21 -168 64 -233 16 -24 29 -45
29 -48 0 -10 84 -84 96 -84 19 0 85 25 173 67 l74 34 -30 18 c-41 26 -97 97
-117 151 -43 117 -14 235 84 341 39 42 90 114 90 127 0 6 4 12 8 14 5 2 20 32
34 68 24 60 30 80 43 150 6 32 7 169 1 195 -33 151 -68 228 -151 328 -81 98
-186 168 -312 207 -86 27 -242 34 -333 14z"/>
<path d="M1253 1480 c-125 -28 -198 -176 -148 -298 72 -171 313 -177 401 -9
20 37 25 126 9 162 -6 17 -11 33 -11 37 2 14 -68 78 -103 94 -40 19 -99 24
-148 14z"/>
</g>
</svg>
