<svg version="1.1" viewBox="0.0 0.0 654.0 371.0" fill="none" stroke="none" stroke-linecap="square" stroke-miterlimit="10" width="654" height="371" xmlns:xlink="http://www.w3.org/1999/xlink" xmlns="http://www.w3.org/2000/svg"><path fill="#384244" d="M0 0L654.0 0L654.0 371.0L0 371.0L0 0Z" fill-rule="nonzero"/><path stroke="#ffffff" stroke-width="1.0" stroke-linecap="butt" d="M92.5 332.5L635.5 332.5" fill-rule="nonzero"/><path stroke="#6d7476" stroke-width="1.0" stroke-linecap="butt" d="M92.5 258.5L635.5 258.5" fill-rule="nonzero"/><path stroke="#6d7476" stroke-width="1.0" stroke-linecap="butt" d="M92.5 185.5L635.5 185.5" fill-rule="nonzero"/><path stroke="#6d7476" stroke-width="1.0" stroke-linecap="butt" d="M92.5 111.5L635.5 111.5" fill-rule="nonzero"/><clipPath id="id_0"><path d="M92.55 111.78333L635.45 111.78333L635.45 332.45L92.55 332.45L92.55 111.78333Z" clip-rule="nonzero"/></clipPath><path stroke="#000000" stroke-width="2.0" stroke-linecap="butt" stroke-opacity="0.0" clip-path="url(#id_0)" d="M176.0 332.0L137.0 332.0L137.0 316.0C137.0 314.89542 137.89543 314.0 139.0 314.0L174.0 314.0C175.10457 314.0 176.0 314.89542 176.0 316.0Z" fill-rule="nonzero"/><path fill="#999999" clip-path="url(#id_0)" d="M176.0 332.0L137.0 332.0L137.0 316.0C137.0 314.89542 137.89543 314.0 139.0 314.0L174.0 314.0C175.10457 314.0 176.0 314.89542 176.0 316.0Z" fill-rule="nonzero"/><path stroke="#000000" stroke-width="2.0" stroke-linecap="butt" stroke-opacity="0.0" clip-path="url(#id_0)" d="M301.0 332.0L262.0 332.0L262.0 281.0C262.0 279.89542 262.89542 279.0 264.0 279.0L299.0 279.0C300.10458 279.0 301.0 279.89542 301.0 281.0Z" fill-rule="nonzero"/><path fill="#6c8042" clip-path="url(#id_0)" d="M301.0 332.0L262.0 332.0L262.0 281.0C262.0 279.89542 262.89542 279.0 264.0 279.0L299.0 279.0C300.10458 279.0 301.0 279.89542 301.0 281.0Z" fill-rule="nonzero"/><path stroke="#000000" stroke-width="2.0" stroke-linecap="butt" stroke-opacity="0.0" clip-path="url(#id_0)" d="M425.0 332.0L386.0 332.0L386.0 233.0C386.0 231.89543 386.89542 231.0 388.0 231.0L423.0 231.0C424.10458 231.0 425.0 231.89543 425.0 233.0Z" fill-rule="nonzero"/><path fill="#6c8042" clip-path="url(#id_0)" d="M425.0 332.0L386.0 332.0L386.0 233.0C386.0 231.89543 386.89542 231.0 388.0 231.0L423.0 231.0C424.10458 231.0 425.0 231.89543 425.0 233.0Z" fill-rule="nonzero"/><path stroke="#000000" stroke-width="2.0" stroke-linecap="butt" stroke-opacity="0.0" clip-path="url(#id_0)" d="M550.0 332.0L511.0 332.0L511.0 131.0C511.0 129.89543 511.89542 129.0 513.0 129.0L548.0 129.0C549.10455 129.0 550.0 129.89543 550.0 131.0Z" fill-rule="nonzero"/><path fill="#6c8042" clip-path="url(#id_0)" d="M550.0 332.0L511.0 332.0L511.0 131.0C511.0 129.89543 511.89542 129.0 513.0 129.0L548.0 129.0C549.10455 129.0 550.0 129.89543 550.0 131.0Z" fill-rule="nonzero"/><path stroke="#000000" stroke-width="2.0" stroke-linecap="butt" stroke-opacity="0.0" clip-path="url(#id_0)" d="M342.0 332.0L303.0 332.0L303.0 302.0C303.0 300.89542 303.89542 300.0 305.0 300.0L340.0 300.0C341.10458 300.0 342.0 300.89542 342.0 302.0Z" fill-rule="nonzero"/><path fill="#d7ff84" clip-path="url(#id_0)" d="M342.0 332.0L303.0 332.0L303.0 302.0C303.0 300.89542 303.89542 300.0 305.0 300.0L340.0 300.0C341.10458 300.0 342.0 300.89542 342.0 302.0Z" fill-rule="nonzero"/><path stroke="#000000" stroke-width="2.0" stroke-linecap="butt" stroke-opacity="0.0" clip-path="url(#id_0)" d="M466.0 332.0L427.0 332.0L427.0 298.0C427.0 296.89542 427.89542 296.0 429.0 296.0L464.0 296.0C465.10458 296.0 466.0 296.89542 466.0 298.0Z" fill-rule="nonzero"/><path fill="#d7ff84" clip-path="url(#id_0)" d="M466.0 332.0L427.0 332.0L427.0 298.0C427.0 296.89542 427.89542 296.0 429.0 296.0L464.0 296.0C465.10458 296.0 466.0 296.89542 466.0 298.0Z" fill-rule="nonzero"/><path stroke="#000000" stroke-width="2.0" stroke-linecap="butt" stroke-opacity="0.0" clip-path="url(#id_0)" d="M591.0 332.0L552.0 332.0L552.0 295.0C552.0 293.89542 552.89545 293.0 554.0 293.0L589.0 293.0C590.10455 293.0 591.0 293.89542 591.0 295.0Z" fill-rule="nonzero"/><path fill="#d7ff84" clip-path="url(#id_0)" d="M591.0 332.0L552.0 332.0L552.0 295.0C552.0 293.89542 552.89545 293.0 554.0 293.0L589.0 293.0C590.10455 293.0 591.0 293.89542 591.0 295.0Z" fill-rule="nonzero"/><path fill="#ffffff" d="M26.534388 250.05417L26.831263 248.92917Q28.221888 249.28854 28.956263 250.21042Q29.690638 251.1323 29.690638 252.47604Q29.690638 253.86667 29.128138 254.74167Q28.565638 255.61667 27.503138 256.0698Q26.425013 256.52292 25.190638 256.52292Q23.846888 256.52292 22.846888 256.0073Q21.846888 255.49167 21.331263 254.55417Q20.815638 253.60104 20.815638 252.46042Q20.815638 251.17917 21.471888 250.30417Q22.128138 249.41354 23.315638 249.0698L23.581263 250.1948Q22.643763 250.49167 22.221888 251.0698Q21.784388 251.6323 21.784388 252.49167Q21.784388 253.47604 22.268763 254.14792Q22.737513 254.80417 23.534388 255.08542Q24.331263 255.35104 25.190638 255.35104Q26.284388 255.35104 27.096888 255.03854Q27.909388 254.71042 28.315638 254.03854Q28.721888 253.36667 28.721888 252.5698Q28.721888 251.61667 28.175013 250.96042Q27.628138 250.28854 26.534388 250.05417ZM31.940638 247.36667L30.956263 247.49167Q31.050013 247.14792 31.050013 246.8823Q31.050013 246.53854 30.925013 246.33542Q30.815638 246.11667 30.612513 245.97604Q30.440638 245.8823 29.815638 245.64792Q29.737513 245.6323 29.565638 245.55417L23.331263 247.92917L23.331263 246.78854L26.925013 245.49167Q27.612513 245.24167 28.378138 245.03854Q27.643763 244.85104 26.956263 244.60104L23.331263 243.27292L23.331263 242.22604L29.659388 244.58542Q30.675013 244.97604 31.065638 245.17917Q31.596888 245.46042 31.831263 245.83542Q32.08126 246.1948 32.08126 246.6948Q32.08126 246.99167 31.940638 247.36667ZM27.268763 238.2573L27.409388 237.22604Q28.471888 237.39792 29.081263 238.10104Q29.690638 238.80417 29.690638 239.8198Q29.690638 241.10104 28.862513 241.8823Q28.018763 242.64792 26.456263 242.64792Q25.456263 242.64792 24.706263 242.3198Q23.940638 241.97604 23.565638 241.30417Q23.190638 240.61667 23.190638 239.80417Q23.190638 238.80417 23.706263 238.16354Q24.206263 237.5073 25.159388 237.3198L25.315638 238.35104Q24.690638 238.49167 24.378138 238.86667Q24.050013 239.24167 24.050013 239.77292Q24.050013 240.5698 24.628138 241.0698Q25.190638 241.5698 26.425013 241.5698Q27.690638 241.5698 28.253138 241.08542Q28.815638 240.60104 28.815638 239.83542Q28.815638 239.21042 28.440638 238.80417Q28.065638 238.3823 27.268763 238.2573ZM29.550013 236.35104L20.956263 236.35104L20.956263 235.28854L29.550013 235.28854L29.550013 236.35104ZM27.550013 229.0698L27.675013 227.97604Q28.628138 228.22604 29.159388 228.92917Q29.690638 229.6323 29.690638 230.71042Q29.690638 232.0698 28.846888 232.8823Q28.003138 233.67917 26.487513 233.67917Q24.925013 233.67917 24.065638 232.86667Q23.190638 232.05417 23.190638 230.77292Q23.190638 229.52292 24.034388 228.74167Q24.878138 227.9448 26.425013 227.9448Q26.518763 227.9448 26.706263 227.9448L26.706263 232.58542Q27.737513 232.52292 28.284388 232.0073Q28.815638 231.49167 28.815638 230.71042Q28.815638 230.1323 28.518763 229.72604Q28.206263 229.30417 27.550013 229.0698ZM25.846888 232.52292L25.846888 229.05417Q25.050013 229.11667 24.659388 229.4448Q24.050013 229.96042 24.050013 230.7573Q24.050013 231.49167 24.534388 231.99167Q25.018763 232.47604 25.846888 232.52292ZM27.690638 226.74167L27.534388 225.71042Q28.159388 225.61667 28.487513 225.22604Q28.815638 224.8198 28.815638 224.08542Q28.815638 223.36667 28.534388 223.02292Q28.237513 222.66354 27.831263 222.66354Q27.471888 222.66354 27.268763 222.97604Q27.128138 223.1948 26.909388 224.05417Q26.612513 225.21042 26.409388 225.66354Q26.190638 226.10104 25.815638 226.33542Q25.440638 226.5698 24.971888 226.5698Q24.565638 226.5698 24.206263 226.3823Q23.846888 226.1948 23.612513 225.86667Q23.440638 225.61667 23.315638 225.1948Q23.190638 224.77292 23.190638 224.27292Q23.190638 223.55417 23.409388 223.0073Q23.612513 222.4448 23.971888 222.17917Q24.331263 221.91354 24.925013 221.8198L25.065638 222.85104Q24.596888 222.91354 24.331263 223.2573Q24.050013 223.58542 24.050013 224.21042Q24.050013 224.92917 24.300013 225.24167Q24.534388 225.55417 24.862513 225.55417Q25.065638 225.55417 25.221888 225.42917Q25.393763 225.28854 25.503138 225.02292Q25.565638 224.86667 25.768763 224.08542Q26.081263 222.96042 26.268763 222.52292Q26.456263 222.08542 26.815638 221.83542Q27.175013 221.58542 27.721888 221.58542Q28.253138 221.58542 28.721888 221.89792Q29.175013 222.1948 29.440638 222.77292Q29.690638 223.35104 29.690638 224.08542Q29.690638 225.30417 29.190638 225.9448Q28.675013 226.5698 27.690638 226.74167ZM29.690638 220.11667L20.815638 217.6323L20.815638 216.78854L29.690638 219.27292L29.690638 220.11667ZM25.362513 216.53854Q23.221888 216.53854 22.018763 215.39792Q20.800013 214.24167 20.800013 212.42917Q20.800013 211.22604 21.378138 210.27292Q21.940638 209.3198 22.956263 208.8198Q23.971888 208.3198 25.268763 208.3198Q26.565638 208.3198 27.596888 208.85104Q28.628138 209.3823 29.159388 210.35104Q29.690638 211.30417 29.690638 212.42917Q29.690638 213.64792 29.112513 214.60104Q28.518763 215.55417 27.518763 216.05417Q26.503138 216.53854 25.362513 216.53854ZM25.378138 215.36667Q26.940638 215.36667 27.831263 214.53854Q28.721888 213.6948 28.721888 212.42917Q28.721888 211.14792 27.831263 210.3198Q26.925013 209.49167 25.253138 209.49167Q24.206263 209.49167 23.425013 209.85104Q22.643763 210.1948 22.221888 210.8823Q21.784388 211.5698 21.784388 212.41354Q21.784388 213.61667 22.612513 214.49167Q23.440638 215.36667 25.378138 215.36667ZM29.550013 207.1948L20.956263 207.1948L20.956263 203.9448Q20.956263 203.10104 21.034388 202.64792Q21.143763 202.0073 21.440638 201.58542Q21.737513 201.14792 22.268763 200.89792Q22.800013 200.6323 23.440638 200.6323Q24.534388 200.6323 25.300013 201.33542Q26.050013 202.02292 26.050013 203.85104L26.050013 206.05417L29.550013 206.05417L29.550013 207.1948ZM25.050013 206.05417L25.050013 203.83542Q25.050013 202.72604 24.643763 202.27292Q24.221888 201.80417 23.471888 201.80417Q22.940638 201.80417 22.565638 202.08542Q22.175013 202.35104 22.050013 202.78854Q21.971888 203.08542 21.971888 203.85104L21.971888 206.05417L25.050013 206.05417Z" fill-rule="nonzero"/><path fill="#ffffff" d="M51.05 332.21564Q51.05 330.6844 51.3625 329.7625Q51.675 328.825 52.284374 328.325Q52.909374 327.825 53.846874 327.825Q54.534374 327.825 55.05 328.10626Q55.58125 328.3875 55.925 328.91876Q56.26875 329.4344 56.45625 330.1844Q56.64375 330.9344 56.64375 332.21564Q56.64375 333.73126 56.33125 334.65314Q56.034374 335.575 55.409374 336.09064Q54.8 336.59064 53.846874 336.59064Q52.6125 336.59064 51.89375 335.7Q51.05 334.6375 51.05 332.21564ZM52.128124 332.21564Q52.128124 334.325 52.628124 335.02814Q53.128124 335.73126 53.846874 335.73126Q54.58125 335.73126 55.065624 335.02814Q55.565624 334.325 55.565624 332.21564Q55.565624 330.09064 55.065624 329.40314Q54.58125 328.7 53.83125 328.7Q53.1125 328.7 52.675 329.3094Q52.128124 330.09064 52.128124 332.21564ZM58.64375 336.45L58.64375 335.2469L59.846874 335.2469L59.846874 336.45L58.64375 336.45ZM61.05 332.21564Q61.05 330.6844 61.3625 329.7625Q61.675 328.825 62.284374 328.325Q62.909374 327.825 63.846874 327.825Q64.53438 327.825 65.05 328.10626Q65.58125 328.3875 65.925 328.91876Q66.26875 329.4344 66.45625 330.1844Q66.64375 330.9344 66.64375 332.21564Q66.64375 333.73126 66.33125 334.65314Q66.03438 335.575 65.40938 336.09064Q64.8 336.59064 63.846874 336.59064Q62.6125 336.59064 61.89375 335.7Q61.05 334.6375 61.05 332.21564ZM62.128124 332.21564Q62.128124 334.325 62.628124 335.02814Q63.128124 335.73126 63.846874 335.73126Q64.58125 335.73126 65.06563 335.02814Q65.56563 334.325 65.56563 332.21564Q65.56563 330.09064 65.06563 329.40314Q64.58125 328.7 63.83125 328.7Q63.1125 328.7 62.675 329.3094Q62.128124 330.09064 62.128124 332.21564ZM68.05 332.21564Q68.05 330.6844 68.3625 329.7625Q68.675 328.825 69.28438 328.325Q69.90938 327.825 70.84688 327.825Q71.53438 327.825 72.05 328.10626Q72.58125 328.3875 72.925 328.91876Q73.26875 329.4344 73.45625 330.1844Q73.64375 330.9344 73.64375 332.21564Q73.64375 333.73126 73.33125 334.65314Q73.03438 335.575 72.40938 336.09064Q71.8 336.59064 70.84688 336.59064Q69.6125 336.59064 68.89375 335.7Q68.05 334.6375 68.05 332.21564ZM69.12813 332.21564Q69.12813 334.325 69.62813 335.02814Q70.12813 335.73126 70.84688 335.73126Q71.58125 335.73126 72.06563 335.02814Q72.56563 334.325 72.56563 332.21564Q72.56563 330.09064 72.06563 329.40314Q71.58125 328.7 70.83125 328.7Q70.1125 328.7 69.675 329.3094Q69.12813 330.09064 69.12813 332.21564ZM78.44063 336.45L78.44063 327.85626L80.15938 327.85626L82.19063 333.9344Q82.47188 334.79376 82.59688 335.21564Q82.7375 334.7469 83.05 333.84064L85.1125 327.85626L86.64375 327.85626L86.64375 336.45L85.55 336.45L85.55 329.2625L83.05 336.45L82.01875 336.45L79.53438 329.1375L79.53438 336.45L78.44063 336.45Z" fill-rule="nonzero"/><path fill="#ffffff" d="M55.01875 262.89444L53.971874 262.89444L53.971874 256.1757Q53.58125 256.53506 52.95625 256.91006Q52.346874 257.26944 51.8625 257.4413L51.8625 256.4257Q52.7375 256.0038 53.39375 255.42569Q54.065624 254.83194 54.346874 254.26944L55.01875 254.26944L55.01875 262.89444ZM58.64375 262.89444L58.64375 261.6913L59.846874 261.6913L59.846874 262.89444L58.64375 262.89444ZM61.05 258.66006Q61.05 257.1288 61.3625 256.20694Q61.675 255.26944 62.284374 254.76944Q62.909374 254.26944 63.846874 254.26944Q64.53438 254.26944 65.05 254.55069Q65.58125 254.83194 65.925 255.36319Q66.26875 255.87881 66.45625 256.6288Q66.64375 257.3788 66.64375 258.66006Q66.64375 260.1757 66.33125 261.09756Q66.03438 262.01944 65.40938 262.53506Q64.8 263.03506 63.846874 263.03506Q62.6125 263.03506 61.89375 262.14444Q61.05 261.08194 61.05 258.66006ZM62.128124 258.66006Q62.128124 260.76944 62.628124 261.47256Q63.128124 262.1757 63.846874 262.1757Q64.58125 262.1757 65.06563 261.47256Q65.56563 260.76944 65.56563 258.66006Q65.56563 256.53506 65.06563 255.84756Q64.58125 255.14444 63.83125 255.14444Q63.1125 255.14444 62.675 255.75381Q62.128124 256.53506 62.128124 258.66006ZM68.05 258.66006Q68.05 257.1288 68.3625 256.20694Q68.675 255.26944 69.28438 254.76944Q69.90938 254.26944 70.84688 254.26944Q71.53438 254.26944 72.05 254.55069Q72.58125 254.83194 72.925 255.36319Q73.26875 255.87881 73.45625 256.6288Q73.64375 257.3788 73.64375 258.66006Q73.64375 260.1757 73.33125 261.09756Q73.03438 262.01944 72.40938 262.53506Q71.8 263.03506 70.84688 263.03506Q69.6125 263.03506 68.89375 262.14444Q68.05 261.08194 68.05 258.66006ZM69.12813 258.66006Q69.12813 260.76944 69.62813 261.47256Q70.12813 262.1757 70.84688 262.1757Q71.58125 262.1757 72.06563 261.47256Q72.56563 260.76944 72.56563 258.66006Q72.56563 256.53506 72.06563 255.84756Q71.58125 255.14444 70.83125 255.14444Q70.1125 255.14444 69.675 255.75381Q69.12813 256.53506 69.12813 258.66006ZM78.44063 262.89444L78.44063 254.30069L80.15938 254.30069L82.19063 260.3788Q82.47188 261.2382 82.59688 261.66006Q82.7375 261.1913 83.05 260.28506L85.1125 254.30069L86.64375 254.30069L86.64375 262.89444L85.55 262.89444L85.55 255.70694L83.05 262.89444L82.01875 262.89444L79.53438 255.58194L79.53438 262.89444L78.44063 262.89444Z" fill-rule="nonzero"/><path fill="#ffffff" d="M56.596874 188.32326L56.596874 189.33888L50.909374 189.33888Q50.909374 188.96388 51.034374 188.6045Q51.253124 188.02638 51.721874 187.46388Q52.20625 186.90138 53.1125 186.167Q54.51875 185.01076 55.003124 184.33888Q55.503124 183.667 55.503124 183.07326Q55.503124 182.44826 55.05 182.02638Q54.596874 181.58888 53.878124 181.58888Q53.1125 181.58888 52.659374 182.042Q52.20625 182.49513 52.190624 183.30763L51.1125 183.19826Q51.221874 181.9795 51.940624 181.3545Q52.675 180.71388 53.909374 180.71388Q55.14375 180.71388 55.8625 181.40138Q56.58125 182.08888 56.58125 183.1045Q56.58125 183.62013 56.3625 184.12013Q56.159374 184.6045 55.659374 185.167Q55.175 185.71388 54.05 186.667Q53.096874 187.46388 52.815624 187.76076Q52.55 188.042 52.378124 188.32326L56.596874 188.32326ZM58.64375 189.33888L58.64375 188.13576L59.846874 188.13576L59.846874 189.33888L58.64375 189.33888ZM61.05 185.1045Q61.05 183.57326 61.3625 182.65138Q61.675 181.71388 62.284374 181.21388Q62.909374 180.71388 63.846874 180.71388Q64.53438 180.71388 65.05 180.99513Q65.58125 181.27638 65.925 181.80763Q66.26875 182.32326 66.45625 183.07326Q66.64375 183.82326 66.64375 185.1045Q66.64375 186.62013 66.33125 187.542Q66.03438 188.46388 65.40938 188.9795Q64.8 189.4795 63.846874 189.4795Q62.6125 189.4795 61.89375 188.58888Q61.05 187.52638 61.05 185.1045ZM62.128124 185.1045Q62.128124 187.21388 62.628124 187.917Q63.128124 188.62013 63.846874 188.62013Q64.58125 188.62013 65.06563 187.917Q65.56563 187.21388 65.56563 185.1045Q65.56563 182.9795 65.06563 182.292Q64.58125 181.58888 63.83125 181.58888Q63.1125 181.58888 62.675 182.19826Q62.128124 182.9795 62.128124 185.1045ZM68.05 185.1045Q68.05 183.57326 68.3625 182.65138Q68.675 181.71388 69.28438 181.21388Q69.90938 180.71388 70.84688 180.71388Q71.53438 180.71388 72.05 180.99513Q72.58125 181.27638 72.925 181.80763Q73.26875 182.32326 73.45625 183.07326Q73.64375 183.82326 73.64375 185.1045Q73.64375 186.62013 73.33125 187.542Q73.03438 188.46388 72.40938 188.9795Q71.8 189.4795 70.84688 189.4795Q69.6125 189.4795 68.89375 188.58888Q68.05 187.52638 68.05 185.1045ZM69.12813 185.1045Q69.12813 187.21388 69.62813 187.917Q70.12813 188.62013 70.84688 188.62013Q71.58125 188.62013 72.06563 187.917Q72.56563 187.21388 72.56563 185.1045Q72.56563 182.9795 72.06563 182.292Q71.58125 181.58888 70.83125 181.58888Q70.1125 181.58888 69.675 182.19826Q69.12813 182.9795 69.12813 185.1045ZM78.44063 189.33888L78.44063 180.74513L80.15938 180.74513L82.19063 186.82326Q82.47188 187.68263 82.59688 188.1045Q82.7375 187.63576 83.05 186.7295L85.1125 180.74513L86.64375 180.74513L86.64375 189.33888L85.55 189.33888L85.55 182.15138L83.05 189.33888L82.01875 189.33888L79.53438 182.02638L79.53438 189.33888L78.44063 189.33888Z" fill-rule="nonzero"/><path fill="#ffffff" d="M51.05 113.51771L52.1125 113.37708Q52.284374 114.26771 52.721874 114.67396Q53.159374 115.06458 53.784374 115.06458Q54.534374 115.06458 55.05 114.54896Q55.565624 114.03333 55.565624 113.26771Q55.565624 112.54896 55.08125 112.08021Q54.6125 111.59583 53.878124 111.59583Q53.58125 111.59583 53.128124 111.72083L53.253124 110.78333Q53.3625 110.79896 53.425 110.79896Q54.096874 110.79896 54.628124 110.45521Q55.175 110.09583 55.175 109.36146Q55.175 108.78333 54.784374 108.40833Q54.39375 108.01771 53.76875 108.01771Q53.159374 108.01771 52.7375 108.40833Q52.33125 108.79896 52.221874 109.56458L51.159374 109.37708Q51.346874 108.33021 52.034374 107.75208Q52.721874 107.15833 53.7375 107.15833Q54.440624 107.15833 55.034374 107.47083Q55.628124 107.76771 55.940624 108.28333Q56.253124 108.79896 56.253124 109.39271Q56.253124 109.93958 55.95625 110.40833Q55.659374 110.86146 55.08125 111.12708Q55.83125 111.29896 56.253124 111.86146Q56.675 112.40833 56.675 113.25208Q56.675 114.37708 55.846874 115.15833Q55.034374 115.93958 53.784374 115.93958Q52.659374 115.93958 51.909374 115.26771Q51.159374 114.58021 51.05 113.51771ZM58.64375 115.78333L58.64375 114.58021L59.846874 114.58021L59.846874 115.78333L58.64375 115.78333ZM61.05 111.54896Q61.05 110.01771 61.3625 109.09583Q61.675 108.15833 62.284374 107.65833Q62.909374 107.15833 63.846874 107.15833Q64.53438 107.15833 65.05 107.43958Q65.58125 107.72083 65.925 108.25208Q66.26875 108.76771 66.45625 109.51771Q66.64375 110.26771 66.64375 111.54896Q66.64375 113.06458 66.33125 113.98646Q66.03438 114.90833 65.40938 115.42396Q64.8 115.92396 63.846874 115.92396Q62.6125 115.92396 61.89375 115.03333Q61.05 113.97083 61.05 111.54896ZM62.128124 111.54896Q62.128124 113.65833 62.628124 114.36146Q63.128124 115.06458 63.846874 115.06458Q64.58125 115.06458 65.06563 114.36146Q65.56563 113.65833 65.56563 111.54896Q65.56563 109.42396 65.06563 108.73646Q64.58125 108.03333 63.83125 108.03333Q63.1125 108.03333 62.675 108.64271Q62.128124 109.42396 62.128124 111.54896ZM68.05 111.54896Q68.05 110.01771 68.3625 109.09583Q68.675 108.15833 69.28438 107.65833Q69.90938 107.15833 70.84688 107.15833Q71.53438 107.15833 72.05 107.43958Q72.58125 107.72083 72.925 108.25208Q73.26875 108.76771 73.45625 109.51771Q73.64375 110.26771 73.64375 111.54896Q73.64375 113.06458 73.33125 113.98646Q73.03438 114.90833 72.40938 115.42396Q71.8 115.92396 70.84688 115.92396Q69.6125 115.92396 68.89375 115.03333Q68.05 113.97083 68.05 111.54896ZM69.12813 111.54896Q69.12813 113.65833 69.62813 114.36146Q70.12813 115.06458 70.84688 115.06458Q71.58125 115.06458 72.06563 114.36146Q72.56563 113.65833 72.56563 111.54896Q72.56563 109.42396 72.06563 108.73646Q71.58125 108.03333 70.83125 108.03333Q70.1125 108.03333 69.675 108.64271Q69.12813 109.42396 69.12813 111.54896ZM78.44063 115.78333L78.44063 107.18958L80.15938 107.18958L82.19063 113.26771Q82.47188 114.12708 82.59688 114.54896Q82.7375 114.08021 83.05 113.17396L85.1125 107.18958L86.64375 107.18958L86.64375 115.78333L85.55 115.78333L85.55 108.59583L83.05 115.78333L82.01875 115.78333L79.53438 108.47083L79.53438 115.78333L78.44063 115.78333Z" fill-rule="nonzero"/><path fill="#ffffff" d="M170.2931 347.1844L171.3556 347.04376Q171.52748 347.9344 171.96498 348.34064Q172.40248 348.73126 173.02748 348.73126Q173.77748 348.73126 174.2931 348.21564Q174.80873 347.7 174.80873 346.9344Q174.80873 346.21564 174.32436 345.7469Q173.8556 345.2625 173.12123 345.2625Q172.82436 345.2625 172.37123 345.3875L172.49623 344.45Q172.6056 344.46564 172.6681 344.46564Q173.33998 344.46564 173.87123 344.1219Q174.4181 343.7625 174.4181 343.02814Q174.4181 342.45 174.02748 342.075Q173.63686 341.6844 173.01186 341.6844Q172.40248 341.6844 171.9806 342.075Q171.57436 342.46564 171.46498 343.23126L170.40248 343.04376Q170.58998 341.9969 171.27748 341.41876Q171.96498 340.825 172.9806 340.825Q173.68373 340.825 174.27748 341.1375Q174.87123 341.4344 175.18373 341.95Q175.49623 342.46564 175.49623 343.0594Q175.49623 343.60626 175.19936 344.075Q174.90248 344.52814 174.32436 344.79376Q175.07436 344.96564 175.49623 345.52814Q175.9181 346.075 175.9181 346.91876Q175.9181 348.04376 175.08998 348.825Q174.27748 349.60626 173.02748 349.60626Q171.90248 349.60626 171.15248 348.9344Q170.40248 348.2469 170.2931 347.1844ZM176.83998 349.45L180.1681 344.96564L177.24623 340.85626L178.58998 340.85626L180.15248 343.0594Q180.63686 343.7469 180.83998 344.1219Q181.13686 343.65314 181.52748 343.1375L183.24623 340.85626L184.4806 340.85626L181.46498 344.90314L184.71498 349.45L183.30873 349.45L181.15248 346.3875Q180.96498 346.1219 180.77748 345.8094Q180.49623 346.27814 180.37123 346.45L178.21498 349.45L176.83998 349.45Z" fill-rule="nonzero"/><path fill="#ffffff" d="M287.14456 348.4344L287.14456 349.45L281.45706 349.45Q281.45706 349.075 281.58206 348.71564Q281.8008 348.1375 282.26956 347.575Q282.75394 347.0125 283.6602 346.27814Q285.06644 345.1219 285.5508 344.45Q286.0508 343.77814 286.0508 343.1844Q286.0508 342.5594 285.5977 342.1375Q285.14456 341.7 284.4258 341.7Q283.6602 341.7 283.20706 342.15314Q282.75394 342.60626 282.7383 343.41876L281.6602 343.3094Q281.76956 342.09064 282.4883 341.46564Q283.2227 340.825 284.45706 340.825Q285.69144 340.825 286.4102 341.5125Q287.12894 342.2 287.12894 343.21564Q287.12894 343.73126 286.9102 344.23126Q286.70706 344.71564 286.20706 345.27814Q285.7227 345.825 284.5977 346.77814Q283.64456 347.575 283.3633 347.8719Q283.0977 348.15314 282.9258 348.4344L287.14456 348.4344ZM291.0977 348.0594L291.0977 345.7L288.76956 345.7L288.76956 344.71564L291.0977 344.71564L291.0977 342.3875L292.0977 342.3875L292.0977 344.71564L294.44144 344.71564L294.44144 345.7L292.0977 345.7L292.0977 348.0594L291.0977 348.0594ZM301.14456 348.4344L301.14456 349.45L295.45706 349.45Q295.45706 349.075 295.58206 348.71564Q295.8008 348.1375 296.26956 347.575Q296.75394 347.0125 297.6602 346.27814Q299.06644 345.1219 299.5508 344.45Q300.0508 343.77814 300.0508 343.1844Q300.0508 342.5594 299.5977 342.1375Q299.14456 341.7 298.4258 341.7Q297.6602 341.7 297.20706 342.15314Q296.75394 342.60626 296.7383 343.41876L295.6602 343.3094Q295.76956 342.09064 296.4883 341.46564Q297.2227 340.825 298.45706 340.825Q299.69144 340.825 300.4102 341.5125Q301.12894 342.2 301.12894 343.21564Q301.12894 343.73126 300.9102 344.23126Q300.70706 344.71564 300.20706 345.27814Q299.7227 345.825 298.5977 346.77814Q297.64456 347.575 297.3633 347.8719Q297.0977 348.15314 296.9258 348.4344L301.14456 348.4344ZM306.0508 349.45L306.0508 340.85626L312.25394 340.85626L312.25394 341.8719L307.19144 341.8719L307.19144 344.4969L311.94144 344.4969L311.94144 345.5125L307.19144 345.5125L307.19144 348.4344L312.45706 348.4344L312.45706 349.45L306.0508 349.45ZM320.1602 346.4344L321.2852 346.73126Q320.9258 348.1219 320.00394 348.85626Q319.08206 349.59064 317.7383 349.59064Q316.3477 349.59064 315.4727 349.02814Q314.5977 348.46564 314.14456 347.40314Q313.69144 346.325 313.69144 345.09064Q313.69144 343.7469 314.20706 342.7469Q314.7227 341.7469 315.6602 341.23126Q316.6133 340.71564 317.75394 340.71564Q319.0352 340.71564 319.9102 341.3719Q320.8008 342.02814 321.14456 343.21564L320.01956 343.48126Q319.7227 342.54376 319.14456 342.1219Q318.58206 341.6844 317.7227 341.6844Q316.7383 341.6844 316.06644 342.16876Q315.4102 342.6375 315.12894 343.4344Q314.8633 344.23126 314.8633 345.09064Q314.8633 346.1844 315.1758 346.9969Q315.50394 347.8094 316.1758 348.21564Q316.8477 348.6219 317.64456 348.6219Q318.5977 348.6219 319.25394 348.075Q319.9258 347.52814 320.1602 346.4344Z" fill-rule="nonzero"/><path fill="#ffffff" d="M409.7773 349.45L409.7773 347.3875L406.05856 347.3875L406.05856 346.41876L409.98044 340.85626L410.8398 340.85626L410.8398 346.41876L411.99606 346.41876L411.99606 347.3875L410.8398 347.3875L410.8398 349.45L409.7773 349.45ZM409.7773 346.41876L409.7773 342.5594L407.0898 346.41876L409.7773 346.41876ZM415.9023 348.0594L415.9023 345.7L413.5742 345.7L413.5742 344.71564L415.9023 344.71564L415.9023 342.3875L416.9023 342.3875L416.9023 344.71564L419.24606 344.71564L419.24606 345.7L416.9023 345.7L416.9023 348.0594L415.9023 348.0594ZM425.9492 348.4344L425.9492 349.45L420.2617 349.45Q420.2617 349.075 420.3867 348.71564Q420.60544 348.1375 421.0742 347.575Q421.55856 347.0125 422.4648 346.27814Q423.87106 345.1219 424.35544 344.45Q424.85544 343.77814 424.85544 343.1844Q424.85544 342.5594 424.4023 342.1375Q423.9492 341.7 423.23044 341.7Q422.4648 341.7 422.0117 342.15314Q421.55856 342.60626 421.54294 343.41876L420.4648 343.3094Q420.5742 342.09064 421.29294 341.46564Q422.0273 340.825 423.2617 340.825Q424.49606 340.825 425.2148 341.5125Q425.93356 342.2 425.93356 343.21564Q425.93356 343.73126 425.7148 344.23126Q425.5117 344.71564 425.0117 345.27814Q424.5273 345.825 423.4023 346.77814Q422.4492 347.575 422.16794 347.8719Q421.9023 348.15314 421.73044 348.4344L425.9492 348.4344ZM430.85544 349.45L430.85544 340.85626L437.05856 340.85626L437.05856 341.8719L431.99606 341.8719L431.99606 344.4969L436.74606 344.4969L436.74606 345.5125L431.99606 345.5125L431.99606 348.4344L437.2617 348.4344L437.2617 349.45L430.85544 349.45ZM444.9648 346.4344L446.0898 346.73126Q445.73044 348.1219 444.80856 348.85626Q443.8867 349.59064 442.54294 349.59064Q441.1523 349.59064 440.2773 349.02814Q439.4023 348.46564 438.9492 347.40314Q438.49606 346.325 438.49606 345.09064Q438.49606 343.7469 439.0117 342.7469Q439.5273 341.7469 440.4648 341.23126Q441.41794 340.71564 442.55856 340.71564Q443.8398 340.71564 444.7148 341.3719Q445.60544 342.02814 445.9492 343.21564L444.8242 343.48126Q444.5273 342.54376 443.9492 342.1219Q443.3867 341.6844 442.5273 341.6844Q441.54294 341.6844 440.87106 342.16876Q440.2148 342.6375 439.93356 343.4344Q439.66794 344.23126 439.66794 345.09064Q439.66794 346.1844 439.98044 346.9969Q440.30856 347.8094 440.98044 348.21564Q441.6523 348.6219 442.4492 348.6219Q443.4023 348.6219 444.05856 348.075Q444.73044 347.52814 444.9648 346.4344Z" fill-rule="nonzero"/><path fill="#ffffff" d="M532.8319 344.79376Q532.17566 344.54376 531.84753 344.10626Q531.53503 343.65314 531.53503 343.04376Q531.53503 342.10626 532.2069 341.46564Q532.8944 340.825 534.0038 340.825Q535.1288 340.825 535.8163 341.48126Q536.5038 342.1375 536.5038 343.075Q536.5038 343.66876 536.1913 344.10626Q535.8788 344.54376 535.23816 344.79376Q536.03503 345.04376 536.4413 345.6219Q536.84753 346.2 536.84753 346.9969Q536.84753 348.09064 536.0663 348.84064Q535.30066 349.59064 534.0194 349.59064Q532.7538 349.59064 531.97253 348.84064Q531.1913 348.09064 531.1913 346.96564Q531.1913 346.1219 531.61316 345.5594Q532.05066 344.9969 532.8319 344.79376ZM532.61316 342.9969Q532.61316 343.60626 533.0038 343.9969Q533.41003 344.3875 534.03503 344.3875Q534.6444 344.3875 535.03503 344.0125Q535.42566 343.6219 535.42566 343.0594Q535.42566 342.48126 535.0194 342.09064Q534.61316 341.6844 534.0194 341.6844Q533.41003 341.6844 533.0038 342.075Q532.61316 342.46564 532.61316 342.9969ZM532.28503 346.96564Q532.28503 347.41876 532.48816 347.84064Q532.7069 348.2625 533.1288 348.4969Q533.55066 348.73126 534.03503 348.73126Q534.78503 348.73126 535.2694 348.2469Q535.7694 347.7625 535.7694 347.0125Q535.7694 346.2469 535.2694 345.7469Q534.7694 345.2469 534.0038 345.2469Q533.2538 345.2469 532.7694 345.7469Q532.28503 346.23126 532.28503 346.96564ZM540.7069 348.0594L540.7069 345.7L538.3788 345.7L538.3788 344.71564L540.7069 344.71564L540.7069 342.3875L541.7069 342.3875L541.7069 344.71564L544.05066 344.71564L544.05066 345.7L541.7069 345.7L541.7069 348.0594L540.7069 348.0594ZM545.2069 347.1844L546.2694 347.04376Q546.4413 347.9344 546.8788 348.34064Q547.3163 348.73126 547.9413 348.73126Q548.6913 348.73126 549.2069 348.21564Q549.72253 347.7 549.72253 346.9344Q549.72253 346.21564 549.23816 345.7469Q548.7694 345.2625 548.03503 345.2625Q547.73816 345.2625 547.28503 345.3875L547.41003 344.45Q547.5194 344.46564 547.5819 344.46564Q548.2538 344.46564 548.78503 344.1219Q549.3319 343.7625 549.3319 343.02814Q549.3319 342.45 548.9413 342.075Q548.55066 341.6844 547.92566 341.6844Q547.3163 341.6844 546.8944 342.075Q546.48816 342.46564 546.3788 343.23126L545.3163 343.04376Q545.5038 341.9969 546.1913 341.41876Q546.8788 340.825 547.8944 340.825Q548.59753 340.825 549.1913 341.1375Q549.78503 341.4344 550.09753 341.95Q550.41003 342.46564 550.41003 343.0594Q550.41003 343.60626 550.11316 344.075Q549.8163 344.52814 549.23816 344.79376Q549.98816 344.96564 550.41003 345.52814Q550.8319 346.075 550.8319 346.91876Q550.8319 348.04376 550.0038 348.825Q549.1913 349.60626 547.9413 349.60626Q546.8163 349.60626 546.0663 348.9344Q545.3163 348.2469 545.2069 347.1844ZM555.66003 349.45L555.66003 340.85626L561.86316 340.85626L561.86316 341.8719L556.80066 341.8719L556.80066 344.4969L561.55066 344.4969L561.55066 345.5125L556.80066 345.5125L556.80066 348.4344L562.0663 348.4344L562.0663 349.45L555.66003 349.45ZM569.7694 346.4344L570.8944 346.73126Q570.53503 348.1219 569.61316 348.85626Q568.6913 349.59064 567.34753 349.59064Q565.9569 349.59064 565.0819 349.02814Q564.2069 348.46564 563.7538 347.40314Q563.30066 346.325 563.30066 345.09064Q563.30066 343.7469 563.8163 342.7469Q564.3319 341.7469 565.2694 341.23126Q566.22253 340.71564 567.36316 340.71564Q568.6444 340.71564 569.5194 341.3719Q570.41003 342.02814 570.7538 343.21564L569.6288 343.48126Q569.3319 342.54376 568.7538 342.1219Q568.1913 341.6844 567.3319 341.6844Q566.34753 341.6844 565.67566 342.16876Q565.0194 342.6375 564.73816 343.4344Q564.47253 344.23126 564.47253 345.09064Q564.47253 346.1844 564.78503 346.9969Q565.11316 347.8094 565.78503 348.21564Q566.4569 348.6219 567.2538 348.6219Q568.2069 348.6219 568.86316 348.075Q569.53503 347.52814 569.7694 346.4344Z" fill-rule="nonzero"/><path fill="#6c8042" d="M205.5 80.416664C205.5 79.86438 205.94771 79.416664 206.5 79.416664L216.5 79.416664C217.05229 79.416664 217.5 79.86438 217.5 80.416664L217.5 90.416664C217.5 90.96895 217.05229 91.416664 216.5 91.416664L206.5 91.416664C205.94771 91.416664 205.5 90.96895 205.5 90.416664Z" fill-rule="nonzero"/><path fill="#ffffff" d="M232.5625 86.40104L233.6875 86.697914Q233.32812 88.08854 232.40625 88.822914Q231.48438 89.55729 230.14062 89.55729Q228.75 89.55729 227.875 88.99479Q227.0 88.43229 226.54688 87.36979Q226.09375 86.291664 226.09375 85.05729Q226.09375 83.71354 226.60938 82.71354Q227.125 81.71354 228.0625 81.197914Q229.01562 80.68229 230.15625 80.68229Q231.4375 80.68229 232.3125 81.33854Q233.20312 81.99479 233.54688 83.18229L232.42188 83.447914Q232.125 82.510414 231.54688 82.08854Q230.98438 81.65104 230.125 81.65104Q229.14062 81.65104 228.46875 82.135414Q227.8125 82.604164 227.53125 83.40104Q227.26562 84.197914 227.26562 85.05729Q227.26562 86.15104 227.57812 86.96354Q227.90625 87.77604 228.57812 88.18229Q229.25 88.58854 230.04688 88.58854Q231.0 88.58854 231.65625 88.041664Q232.32812 87.49479 232.5625 86.40104ZM239.54688 87.416664L240.64062 87.541664Q240.39062 88.49479 239.6875 89.02604Q238.98438 89.55729 237.90625 89.55729Q236.54688 89.55729 235.73438 88.71354Q234.9375 87.86979 234.9375 86.354164Q234.9375 84.791664 235.75 83.93229Q236.5625 83.05729 237.84375 83.05729Q239.09375 83.05729 239.875 83.90104Q240.67188 84.74479 240.67188 86.291664Q240.67188 86.385414 240.67188 86.572914L236.03125 86.572914Q236.09375 87.604164 236.60938 88.15104Q237.125 88.68229 237.90625 88.68229Q238.48438 88.68229 238.89062 88.385414Q239.3125 88.072914 239.54688 87.416664ZM236.09375 85.71354L239.5625 85.71354Q239.5 84.916664 239.17188 84.52604Q238.65625 83.916664 237.85938 83.916664Q237.125 83.916664 236.625 84.40104Q236.14062 84.885414 236.09375 85.71354ZM242.29688 91.80729L242.29688 83.197914L243.25 83.197914L243.25 83.99479Q243.59375 83.52604 244.01562 83.291664Q244.45312 83.05729 245.0625 83.05729Q245.85938 83.05729 246.46875 83.46354Q247.07812 83.86979 247.375 84.61979Q247.6875 85.36979 247.6875 86.260414Q247.6875 87.21354 247.34375 87.979164Q247.01562 88.74479 246.35938 89.15104Q245.70312 89.55729 244.98438 89.55729Q244.45312 89.55729 244.03125 89.33854Q243.60938 89.104164 243.34375 88.77604L243.34375 91.80729L242.29688 91.80729ZM243.25 86.33854Q243.25 87.541664 243.73438 88.11979Q244.21875 88.68229 244.90625 88.68229Q245.60938 88.68229 246.10938 88.08854Q246.60938 87.49479 246.60938 86.24479Q246.60938 85.05729 246.125 84.479164Q245.64062 83.885414 244.95312 83.885414Q244.28125 83.885414 243.76562 84.510414Q243.25 85.135414 243.25 86.33854ZM249.29688 89.416664L249.29688 80.822914L250.34375 80.822914L250.34375 83.90104Q251.07812 83.05729 252.20312 83.05729Q252.90625 83.05729 253.40625 83.33854Q253.92188 83.604164 254.14062 84.08854Q254.35938 84.55729 254.35938 85.479164L254.35938 89.416664L253.3125 89.416664L253.3125 85.479164Q253.3125 84.68229 252.96875 84.322914Q252.625 83.96354 252.0 83.96354Q251.53125 83.96354 251.10938 84.21354Q250.70312 84.447914 250.51562 84.86979Q250.34375 85.27604 250.34375 86.010414L250.34375 89.416664L249.29688 89.416664ZM259.4375 89.416664L259.4375 80.822914L263.25 80.822914Q264.40625 80.822914 265.0 81.05729Q265.59375 81.291664 265.95312 81.885414Q266.3125 82.46354 266.3125 83.166664Q266.3125 84.08854 265.71875 84.71354Q265.125 85.33854 263.89062 85.510414Q264.34375 85.729164 264.57812 85.93229Q265.07812 86.385414 265.51562 87.072914L267.01562 89.416664L265.57812 89.416664L264.45312 87.635414Q263.95312 86.854164 263.625 86.447914Q263.3125 86.041664 263.04688 85.885414Q262.79688 85.71354 262.53125 85.635414Q262.34375 85.604164 261.90625 85.604164L260.57812 85.604164L260.57812 89.416664L259.4375 89.416664ZM260.57812 84.61979L263.03125 84.61979Q263.79688 84.61979 264.23438 84.46354Q264.6875 84.291664 264.90625 83.947914Q265.14062 83.58854 265.14062 83.166664Q265.14062 82.55729 264.6875 82.166664Q264.25 81.77604 263.29688 81.77604L260.57812 81.77604L260.57812 84.61979ZM272.54688 87.416664L273.64062 87.541664Q273.39062 88.49479 272.6875 89.02604Q271.98438 89.55729 270.90625 89.55729Q269.54688 89.55729 268.73438 88.71354Q267.9375 87.86979 267.9375 86.354164Q267.9375 84.791664 268.75 83.93229Q269.5625 83.05729 270.84375 83.05729Q272.09375 83.05729 272.875 83.90104Q273.67188 84.74479 273.67188 86.291664Q273.67188 86.385414 273.67188 86.572914L269.03125 86.572914Q269.09375 87.604164 269.60938 88.15104Q270.125 88.68229 270.90625 88.68229Q271.48438 88.68229 271.89062 88.385414Q272.3125 88.072914 272.54688 87.416664ZM269.09375 85.71354L272.5625 85.71354Q272.5 84.916664 272.17188 84.52604Q271.65625 83.916664 270.85938 83.916664Q270.125 83.916664 269.625 84.40104Q269.14062 84.885414 269.09375 85.71354ZM279.54688 87.416664L280.64062 87.541664Q280.39062 88.49479 279.6875 89.02604Q278.98438 89.55729 277.90625 89.55729Q276.54688 89.55729 275.73438 88.71354Q274.9375 87.86979 274.9375 86.354164Q274.9375 84.791664 275.75 83.93229Q276.5625 83.05729 277.84375 83.05729Q279.09375 83.05729 279.875 83.90104Q280.67188 84.74479 280.67188 86.291664Q280.67188 86.385414 280.67188 86.572914L276.03125 86.572914Q276.09375 87.604164 276.60938 88.15104Q277.125 88.68229 277.90625 88.68229Q278.48438 88.68229 278.89062 88.385414Q279.3125 88.072914 279.54688 87.416664ZM276.09375 85.71354L279.5625 85.71354Q279.5 84.916664 279.17188 84.52604Q278.65625 83.916664 277.85938 83.916664Q277.125 83.916664 276.625 84.40104Q276.14062 84.885414 276.09375 85.71354ZM282.54688 89.416664L282.54688 84.010414L281.60938 84.010414L281.60938 83.197914L282.54688 83.197914L282.54688 82.52604Q282.54688 81.90104 282.65625 81.604164Q282.8125 81.18229 283.1875 80.93229Q283.57812 80.68229 284.26562 80.68229Q284.71875 80.68229 285.25 80.791664L285.09375 81.697914Q284.76562 81.65104 284.46875 81.65104Q283.98438 81.65104 283.78125 81.854164Q283.59375 82.05729 283.59375 82.61979L283.59375 83.197914L284.8125 83.197914L284.8125 84.010414L283.59375 84.010414L283.59375 89.416664L282.54688 89.416664Z" fill-rule="nonzero"/><path fill="#d7ff84" d="M300.5 80.416664C300.5 79.86438 300.94772 79.416664 301.5 79.416664L311.5 79.416664C312.05228 79.416664 312.5 79.86438 312.5 80.416664L312.5 90.416664C312.5 90.96895 312.05228 91.416664 311.5 91.416664L301.5 91.416664C300.94772 91.416664 300.5 90.96895 300.5 90.416664Z" fill-rule="nonzero"/><path fill="#ffffff" d="M322.4375 89.416664L320.53125 83.197914L321.625 83.197914L322.60938 86.791664L322.98438 88.11979Q323.01562 88.02604 323.3125 86.83854L324.29688 83.197914L325.375 83.197914L326.3125 86.80729L326.625 87.99479L326.98438 86.791664L328.04688 83.197914L329.07812 83.197914L327.125 89.416664L326.03125 89.416664L325.04688 85.68229L324.79688 84.635414L323.54688 89.416664L322.4375 89.416664ZM330.29688 82.041664L330.29688 80.822914L331.35938 80.822914L331.35938 82.041664L330.29688 82.041664ZM330.29688 89.416664L330.29688 83.197914L331.35938 83.197914L331.35938 89.416664L330.29688 89.416664ZM333.29688 91.80729L333.29688 83.197914L334.25 83.197914L334.25 83.99479Q334.59375 83.52604 335.01562 83.291664Q335.45312 83.05729 336.0625 83.05729Q336.85938 83.05729 337.46875 83.46354Q338.07812 83.86979 338.375 84.61979Q338.6875 85.36979 338.6875 86.260414Q338.6875 87.21354 338.34375 87.979164Q338.01562 88.74479 337.35938 89.15104Q336.70312 89.55729 335.98438 89.55729Q335.45312 89.55729 335.03125 89.33854Q334.60938 89.104164 334.34375 88.77604L334.34375 91.80729L333.29688 91.80729ZM334.25 86.33854Q334.25 87.541664 334.73438 88.11979Q335.21875 88.68229 335.90625 88.68229Q336.60938 88.68229 337.10938 88.08854Q337.60938 87.49479 337.60938 86.24479Q337.60938 85.05729 337.125 84.479164Q336.64062 83.885414 335.95312 83.885414Q335.28125 83.885414 334.76562 84.510414Q334.25 85.135414 334.25 86.33854ZM339.875 86.83854L339.875 85.77604L343.125 85.77604L343.125 86.83854L339.875 86.83854ZM343.90625 86.30729Q343.90625 84.572914 344.85938 83.74479Q345.65625 83.05729 346.8125 83.05729Q348.09375 83.05729 348.90625 83.90104Q349.73438 84.729164 349.73438 86.21354Q349.73438 87.416664 349.375 88.104164Q349.01562 88.791664 348.3125 89.18229Q347.625 89.55729 346.8125 89.55729Q345.51562 89.55729 344.70312 88.729164Q343.90625 87.885414 343.90625 86.30729ZM344.98438 86.30729Q344.98438 87.49479 345.5 88.08854Q346.03125 88.68229 346.8125 88.68229Q347.60938 88.68229 348.125 88.08854Q348.64062 87.49479 348.64062 86.27604Q348.64062 85.11979 348.10938 84.52604Q347.59375 83.93229 346.8125 83.93229Q346.03125 83.93229 345.5 84.52604Q344.98438 85.104164 344.98438 86.30729ZM350.875 87.55729L351.90625 87.40104Q352.0 88.02604 352.39062 88.354164Q352.79688 88.68229 353.53125 88.68229Q354.25 88.68229 354.59375 88.40104Q354.95312 88.104164 354.95312 87.697914Q354.95312 87.33854 354.64062 87.135414Q354.42188 86.99479 353.5625 86.77604Q352.40625 86.479164 351.95312 86.27604Q351.51562 86.05729 351.28125 85.68229Q351.04688 85.30729 351.04688 84.83854Q351.04688 84.43229 351.23438 84.072914Q351.42188 83.71354 351.75 83.479164Q352.0 83.30729 352.42188 83.18229Q352.84375 83.05729 353.34375 83.05729Q354.0625 83.05729 354.60938 83.27604Q355.17188 83.479164 355.4375 83.83854Q355.70312 84.197914 355.79688 84.791664L354.76562 84.93229Q354.70312 84.46354 354.35938 84.197914Q354.03125 83.916664 353.40625 83.916664Q352.6875 83.916664 352.375 84.166664Q352.0625 84.40104 352.0625 84.729164Q352.0625 84.93229 352.1875 85.08854Q352.32812 85.260414 352.59375 85.36979Q352.75 85.43229 353.53125 85.635414Q354.65625 85.947914 355.09375 86.135414Q355.53125 86.322914 355.78125 86.68229Q356.03125 87.041664 356.03125 87.58854Q356.03125 88.11979 355.71875 88.58854Q355.42188 89.041664 354.84375 89.30729Q354.26562 89.55729 353.53125 89.55729Q352.3125 89.55729 351.67188 89.05729Q351.04688 88.541664 350.875 87.55729ZM362.32812 89.416664L362.32812 88.635414Q361.73438 89.55729 360.59375 89.55729Q359.84375 89.55729 359.21875 89.15104Q358.59375 88.729164 358.25 87.99479Q357.90625 87.260414 357.90625 86.30729Q357.90625 85.385414 358.21875 84.61979Q358.53125 83.854164 359.15625 83.46354Q359.78125 83.05729 360.54688 83.05729Q361.10938 83.05729 361.54688 83.291664Q361.98438 83.52604 362.26562 83.90104L362.26562 80.822914L363.3125 80.822914L363.3125 89.416664L362.32812 89.416664ZM359.0 86.30729Q359.0 87.510414 359.5 88.104164Q360.0 88.68229 360.6875 88.68229Q361.375 88.68229 361.85938 88.11979Q362.34375 87.55729 362.34375 86.40104Q362.34375 85.11979 361.84375 84.52604Q361.35938 83.93229 360.64062 83.93229Q359.9375 83.93229 359.46875 84.510414Q359.0 85.072914 359.0 86.30729ZM364.875 86.83854L364.875 85.77604L368.125 85.77604L368.125 86.83854L364.875 86.83854ZM373.54688 87.416664L374.64062 87.541664Q374.39062 88.49479 373.6875 89.02604Q372.98438 89.55729 371.90625 89.55729Q370.54688 89.55729 369.73438 88.71354Q368.9375 87.86979 368.9375 86.354164Q368.9375 84.791664 369.75 83.93229Q370.5625 83.05729 371.84375 83.05729Q373.09375 83.05729 373.875 83.90104Q374.67188 84.74479 374.67188 86.291664Q374.67188 86.385414 374.67188 86.572914L370.03125 86.572914Q370.09375 87.604164 370.60938 88.15104Q371.125 88.68229 371.90625 88.68229Q372.48438 88.68229 372.89062 88.385414Q373.3125 88.072914 373.54688 87.416664ZM370.09375 85.71354L373.5625 85.71354Q373.5 84.916664 373.17188 84.52604Q372.65625 83.916664 371.85938 83.916664Q371.125 83.916664 370.625 84.40104Q370.14062 84.885414 370.09375 85.71354ZM380.35938 87.135414L381.39062 87.27604Q381.21875 88.33854 380.51562 88.947914Q379.8125 89.55729 378.79688 89.55729Q377.51562 89.55729 376.73438 88.729164Q375.96875 87.885414 375.96875 86.322914Q375.96875 85.322914 376.29688 84.572914Q376.64062 83.80729 377.3125 83.43229Q378.0 83.05729 378.8125 83.05729Q379.8125 83.05729 380.45312 83.572914Q381.10938 84.072914 381.29688 85.02604L380.26562 85.18229Q380.125 84.55729 379.75 84.24479Q379.375 83.916664 378.84375 83.916664Q378.04688 83.916664 377.54688 84.49479Q377.04688 85.05729 377.04688 86.291664Q377.04688 87.55729 377.53125 88.11979Q378.01562 88.68229 378.78125 88.68229Q379.40625 88.68229 379.8125 88.30729Q380.23438 87.93229 380.35938 87.135414ZM381.875 86.83854L381.875 85.77604L385.125 85.77604L385.125 86.83854L381.875 86.83854ZM386.29688 91.80729L386.29688 83.197914L387.25 83.197914L387.25 83.99479Q387.59375 83.52604 388.01562 83.291664Q388.45312 83.05729 389.0625 83.05729Q389.85938 83.05729 390.46875 83.46354Q391.07812 83.86979 391.375 84.61979Q391.6875 85.36979 391.6875 86.260414Q391.6875 87.21354 391.34375 87.979164Q391.01562 88.74479 390.35938 89.15104Q389.70312 89.55729 388.98438 89.55729Q388.45312 89.55729 388.03125 89.33854Q387.60938 89.104164 387.34375 88.77604L387.34375 91.80729L386.29688 91.80729ZM387.25 86.33854Q387.25 87.541664 387.73438 88.11979Q388.21875 88.68229 388.90625 88.68229Q389.60938 88.68229 390.10938 88.08854Q390.60938 87.49479 390.60938 86.24479Q390.60938 85.05729 390.125 84.479164Q389.64062 83.885414 388.95312 83.885414Q388.28125 83.885414 387.76562 84.510414Q387.25 85.135414 387.25 86.33854ZM397.35938 88.65104Q396.76562 89.15104 396.21875 89.354164Q395.6875 89.55729 395.0625 89.55729Q394.03125 89.55729 393.48438 89.05729Q392.9375 88.55729 392.9375 87.77604Q392.9375 87.322914 393.14062 86.947914Q393.34375 86.55729 393.6875 86.33854Q394.03125 86.104164 394.45312 85.99479Q394.75 85.90104 395.39062 85.822914Q396.65625 85.68229 397.26562 85.46354Q397.26562 85.24479 397.26562 85.197914Q397.26562 84.541664 396.96875 84.27604Q396.5625 83.93229 395.76562 83.93229Q395.03125 83.93229 394.67188 84.197914Q394.3125 84.447914 394.14062 85.104164L393.10938 84.96354Q393.25 84.30729 393.57812 83.90104Q393.90625 83.49479 394.51562 83.27604Q395.125 83.05729 395.92188 83.05729Q396.71875 83.05729 397.21875 83.24479Q397.71875 83.43229 397.95312 83.71354Q398.1875 83.99479 398.28125 84.43229Q398.32812 84.697914 398.32812 85.40104L398.32812 86.80729Q398.32812 88.27604 398.39062 88.666664Q398.46875 89.05729 398.67188 89.416664L397.5625 89.416664Q397.40625 89.08854 397.35938 88.65104ZM397.26562 86.291664Q396.6875 86.52604 395.54688 86.697914Q394.89062 86.791664 394.625 86.916664Q394.35938 87.02604 394.20312 87.24479Q394.0625 87.46354 394.0625 87.74479Q394.0625 88.166664 394.375 88.447914Q394.70312 88.729164 395.3125 88.729164Q395.92188 88.729164 396.39062 88.46354Q396.875 88.197914 397.09375 87.729164Q397.26562 87.36979 397.26562 86.68229L397.26562 86.291664ZM400.28125 89.416664L400.28125 83.197914L401.23438 83.197914L401.23438 84.135414Q401.59375 83.479164 401.89062 83.27604Q402.20312 83.05729 402.57812 83.05729Q403.10938 83.05729 403.65625 83.385414L403.29688 84.36979Q402.90625 84.135414 402.53125 84.135414Q402.17188 84.135414 401.89062 84.354164Q401.625 84.55729 401.51562 84.93229Q401.32812 85.49479 401.32812 86.15104L401.32812 89.416664L400.28125 89.416664ZM406.59375 88.479164L406.75 89.40104Q406.29688 89.49479 405.95312 89.49479Q405.375 89.49479 405.0625 89.322914Q404.75 89.135414 404.60938 88.83854Q404.48438 88.541664 404.48438 87.58854L404.48438 84.010414L403.71875 84.010414L403.71875 83.197914L404.48438 83.197914L404.48438 81.65104L405.53125 81.02604L405.53125 83.197914L406.59375 83.197914L406.59375 84.010414L405.53125 84.010414L405.53125 87.65104Q405.53125 88.104164 405.57812 88.229164Q405.64062 88.354164 405.76562 88.43229Q405.89062 88.510414 406.125 88.510414Q406.3125 88.510414 406.59375 88.479164ZM407.29688 82.041664L407.29688 80.822914L408.35938 80.822914L408.35938 82.041664L407.29688 82.041664ZM407.29688 89.416664L407.29688 83.197914L408.35938 83.197914L408.35938 89.416664L407.29688 89.416664ZM414.35938 88.65104Q413.76562 89.15104 413.21875 89.354164Q412.6875 89.55729 412.0625 89.55729Q411.03125 89.55729 410.48438 89.05729Q409.9375 88.55729 409.9375 87.77604Q409.9375 87.322914 410.14062 86.947914Q410.34375 86.55729 410.6875 86.33854Q411.03125 86.104164 411.45312 85.99479Q411.75 85.90104 412.39062 85.822914Q413.65625 85.68229 414.26562 85.46354Q414.26562 85.24479 414.26562 85.197914Q414.26562 84.541664 413.96875 84.27604Q413.5625 83.93229 412.76562 83.93229Q412.03125 83.93229 411.67188 84.197914Q411.3125 84.447914 411.14062 85.104164L410.10938 84.96354Q410.25 84.30729 410.57812 83.90104Q410.90625 83.49479 411.51562 83.27604Q412.125 83.05729 412.92188 83.05729Q413.71875 83.05729 414.21875 83.24479Q414.71875 83.43229 414.95312 83.71354Q415.1875 83.99479 415.28125 84.43229Q415.32812 84.697914 415.32812 85.40104L415.32812 86.80729Q415.32812 88.27604 415.39062 88.666664Q415.46875 89.05729 415.67188 89.416664L414.5625 89.416664Q414.40625 89.08854 414.35938 88.65104ZM414.26562 86.291664Q413.6875 86.52604 412.54688 86.697914Q411.89062 86.791664 411.625 86.916664Q411.35938 87.02604 411.20312 87.24479Q411.0625 87.46354 411.0625 87.74479Q411.0625 88.166664 411.375 88.447914Q411.70312 88.729164 412.3125 88.729164Q412.92188 88.729164 413.39062 88.46354Q413.875 88.197914 414.09375 87.729164Q414.26562 87.36979 414.26562 86.68229L414.26562 86.291664ZM417.26562 89.416664L417.26562 80.822914L418.32812 80.822914L418.32812 89.416664L417.26562 89.416664ZM419.875 86.83854L419.875 85.77604L423.125 85.77604L423.125 86.83854L419.875 86.83854ZM424.28125 89.416664L424.28125 83.197914L425.23438 83.197914L425.23438 84.135414Q425.59375 83.479164 425.89062 83.27604Q426.20312 83.05729 426.57812 83.05729Q427.10938 83.05729 427.65625 83.385414L427.29688 84.36979Q426.90625 84.135414 426.53125 84.135414Q426.17188 84.135414 425.89062 84.354164Q425.625 84.55729 425.51562 84.93229Q425.32812 85.49479 425.32812 86.15104L425.32812 89.416664L424.28125 89.416664ZM432.54688 87.416664L433.64062 87.541664Q433.39062 88.49479 432.6875 89.02604Q431.98438 89.55729 430.90625 89.55729Q429.54688 89.55729 428.73438 88.71354Q427.9375 87.86979 427.9375 86.354164Q427.9375 84.791664 428.75 83.93229Q429.5625 83.05729 430.84375 83.05729Q432.09375 83.05729 432.875 83.90104Q433.67188 84.74479 433.67188 86.291664Q433.67188 86.385414 433.67188 86.572914L429.03125 86.572914Q429.09375 87.604164 429.60938 88.15104Q430.125 88.68229 430.90625 88.68229Q431.48438 88.68229 431.89062 88.385414Q432.3125 88.072914 432.54688 87.416664ZM429.09375 85.71354L432.5625 85.71354Q432.5 84.916664 432.17188 84.52604Q431.65625 83.916664 430.85938 83.916664Q430.125 83.916664 429.625 84.40104Q429.14062 84.885414 429.09375 85.71354ZM439.35938 88.65104Q438.76562 89.15104 438.21875 89.354164Q437.6875 89.55729 437.0625 89.55729Q436.03125 89.55729 435.48438 89.05729Q434.9375 88.55729 434.9375 87.77604Q434.9375 87.322914 435.14062 86.947914Q435.34375 86.55729 435.6875 86.33854Q436.03125 86.104164 436.45312 85.99479Q436.75 85.90104 437.39062 85.822914Q438.65625 85.68229 439.26562 85.46354Q439.26562 85.24479 439.26562 85.197914Q439.26562 84.541664 438.96875 84.27604Q438.5625 83.93229 437.76562 83.93229Q437.03125 83.93229 436.67188 84.197914Q436.3125 84.447914 436.14062 85.104164L435.10938 84.96354Q435.25 84.30729 435.57812 83.90104Q435.90625 83.49479 436.51562 83.27604Q437.125 83.05729 437.92188 83.05729Q438.71875 83.05729 439.21875 83.24479Q439.71875 83.43229 439.95312 83.71354Q440.1875 83.99479 440.28125 84.43229Q440.32812 84.697914 440.32812 85.40104L440.32812 86.80729Q440.32812 88.27604 440.39062 88.666664Q440.46875 89.05729 440.67188 89.416664L439.5625 89.416664Q439.40625 89.08854 439.35938 88.65104ZM439.26562 86.291664Q438.6875 86.52604 437.54688 86.697914Q436.89062 86.791664 436.625 86.916664Q436.35938 87.02604 436.20312 87.24479Q436.0625 87.46354 436.0625 87.74479Q436.0625 88.166664 436.375 88.447914Q436.70312 88.729164 437.3125 88.729164Q437.92188 88.729164 438.39062 88.46354Q438.875 88.197914 439.09375 87.729164Q439.26562 87.36979 439.26562 86.68229L439.26562 86.291664ZM446.32812 89.416664L446.32812 88.635414Q445.73438 89.55729 444.59375 89.55729Q443.84375 89.55729 443.21875 89.15104Q442.59375 88.729164 442.25 87.99479Q441.90625 87.260414 441.90625 86.30729Q441.90625 85.385414 442.21875 84.61979Q442.53125 83.854164 443.15625 83.46354Q443.78125 83.05729 444.54688 83.05729Q445.10938 83.05729 445.54688 83.291664Q445.98438 83.52604 446.26562 83.90104L446.26562 80.822914L447.3125 80.822914L447.3125 89.416664L446.32812 89.416664ZM443.0 86.30729Q443.0 87.510414 443.5 88.104164Q444.0 88.68229 444.6875 88.68229Q445.375 88.68229 445.85938 88.11979Q446.34375 87.55729 446.34375 86.40104Q446.34375 85.11979 445.84375 84.52604Q445.35938 83.93229 444.64062 83.93229Q443.9375 83.93229 443.46875 84.510414Q443.0 85.072914 443.0 86.30729Z" fill-rule="nonzero"/><path fill="#999999" d="M19.58125 63.05L19.58125 53.034374L20.909374 53.034374L20.909374 58.003124L25.878124 53.034374L27.675 53.034374L23.471874 57.08125L27.8625 63.05L26.1125 63.05L22.55 57.971874L20.909374 59.58125L20.909374 63.05L19.58125 63.05ZM28.64375 63.05L28.64375 53.034374L33.096874 53.034374Q34.440624 53.034374 35.128124 53.3Q35.83125 53.565624 36.2375 54.253124Q36.659374 54.940624 36.659374 55.76875Q36.659374 56.83125 35.971874 57.565624Q35.284374 58.284374 33.846874 58.4875Q34.3625 58.7375 34.64375 58.9875Q35.221874 59.51875 35.7375 60.315624L37.4875 63.05L35.815624 63.05L34.4875 60.971874Q33.909374 60.065624 33.534374 59.596874Q33.159374 59.1125 32.8625 58.925Q32.565624 58.721874 32.253124 58.64375Q32.034374 58.596874 31.51875 58.596874L29.971874 58.596874L29.971874 63.05L28.64375 63.05ZM29.971874 57.45625L32.83125 57.45625Q33.7375 57.45625 34.253124 57.26875Q34.76875 57.08125 35.034374 56.675Q35.3 56.253124 35.3 55.76875Q35.3 55.05 34.784374 54.596874Q34.26875 54.128124 33.14375 54.128124L29.971874 54.128124L29.971874 57.45625ZM38.58125 63.05L38.58125 53.034374L42.33125 53.034374Q43.4875 53.034374 44.175 53.346874Q44.878124 53.64375 45.26875 54.26875Q45.659374 54.89375 45.659374 55.596874Q45.659374 56.2375 45.3 56.8Q44.95625 57.3625 44.253124 57.721874Q45.159374 57.9875 45.64375 58.628124Q46.14375 59.26875 46.14375 60.14375Q46.14375 60.846874 45.846874 61.45625Q45.55 62.065624 45.1125 62.39375Q44.675 62.721874 44.003124 62.89375Q43.346874 63.05 42.39375 63.05L38.58125 63.05ZM39.909374 57.2375L42.065624 57.2375Q42.95625 57.2375 43.33125 57.128124Q43.846874 56.971874 44.096874 56.628124Q44.346874 56.26875 44.346874 55.753124Q44.346874 55.253124 44.1125 54.878124Q43.878124 54.4875 43.425 54.346874Q42.9875 54.20625 41.909374 54.20625L39.909374 54.20625L39.909374 57.2375ZM39.909374 61.8625L42.39375 61.8625Q43.034374 61.8625 43.3 61.815624Q43.753124 61.7375 44.065624 61.55Q44.378124 61.346874 44.565624 60.9875Q44.76875 60.628124 44.76875 60.14375Q44.76875 59.58125 44.471874 59.175Q44.190624 58.753124 43.675 58.596874Q43.175 58.425 42.221874 58.425L39.909374 58.425L39.909374 61.8625ZM47.628124 63.05L47.628124 53.034374L51.08125 53.034374Q52.253124 53.034374 52.8625 53.175Q53.721874 53.3625 54.33125 53.89375Q55.128124 54.565624 55.51875 55.6125Q55.909374 56.64375 55.909374 57.9875Q55.909374 59.128124 55.64375 60.01875Q55.378124 60.89375 54.95625 61.471874Q54.55 62.05 54.05 62.378124Q53.55 62.70625 52.846874 62.878124Q52.159374 63.05 51.253124 63.05L47.628124 63.05ZM48.95625 61.8625L51.096874 61.8625Q52.08125 61.8625 52.64375 61.690624Q53.221874 61.503124 53.55 61.159374Q54.01875 60.690624 54.284374 59.89375Q54.55 59.096874 54.55 57.95625Q54.55 56.39375 54.034374 55.55Q53.51875 54.70625 52.784374 54.409374Q52.2375 54.20625 51.065624 54.20625L48.95625 54.20625L48.95625 61.8625ZM57.8 63.05L57.8 61.64375L59.190624 61.64375L59.190624 63.05Q59.190624 63.815624 58.909374 64.28438Q58.64375 64.76875 58.05 65.03438L57.70625 64.50313Q58.096874 64.33125 58.284374 64.00313Q58.471874 63.675 58.4875 63.05L57.8 63.05ZM71.51875 55.4875L70.3 55.58125Q70.12813 54.846874 69.83125 54.51875Q69.33125 54.003124 68.59688 54.003124Q68.00313 54.003124 67.56563 54.33125Q66.9875 54.753124 66.64375 55.565624Q66.31563 56.378124 66.3 57.878124Q66.7375 57.20625 67.37813 56.878124Q68.03438 56.55 68.7375 56.55Q69.97188 56.55 70.83125 57.45625Q71.69063 58.3625 71.69063 59.8Q71.69063 60.7375 71.28438 61.55Q70.87813 62.3625 70.15938 62.8Q69.45625 63.221874 68.55 63.221874Q67.01875 63.221874 66.05 62.096874Q65.08125 60.95625 65.08125 58.3625Q65.08125 55.45625 66.14375 54.128124Q67.08125 52.9875 68.675 52.9875Q69.8625 52.9875 70.6125 53.659374Q71.3625 54.315624 71.51875 55.4875ZM66.4875 59.8Q66.4875 60.440624 66.75313 61.01875Q67.03438 61.596874 67.51875 61.909374Q68.00313 62.20625 68.53438 62.20625Q69.31563 62.20625 69.87813 61.58125Q70.44063 60.95625 70.44063 59.878124Q70.44063 58.83125 69.87813 58.2375Q69.33125 57.628124 68.4875 57.628124Q67.65938 57.628124 67.06563 58.2375Q66.4875 58.83125 66.4875 59.8ZM77.6125 63.05L77.6125 53.034374L78.97188 53.034374L84.2375 60.89375L84.2375 53.034374L85.51875 53.034374L85.51875 63.05L84.15938 63.05L78.89375 55.175L78.89375 63.05L77.6125 63.05ZM86.01875 59.425Q86.01875 57.409374 87.14375 56.425Q88.06563 55.628124 89.425 55.628124Q90.90938 55.628124 91.8625 56.6125Q92.81563 57.58125 92.81563 59.315624Q92.81563 60.721874 92.39375 61.534374Q91.97188 62.33125 91.15938 62.784374Q90.3625 63.221874 89.425 63.221874Q87.89375 63.221874 86.95625 62.2375Q86.01875 61.253124 86.01875 59.425ZM87.28438 59.425Q87.28438 60.815624 87.89375 61.51875Q88.50313 62.20625 89.425 62.20625Q90.33125 62.20625 90.94063 61.503124Q91.55 60.8 91.55 59.378124Q91.55 58.034374 90.94063 57.346874Q90.33125 56.64375 89.425 56.64375Q88.50313 56.64375 87.89375 57.33125Q87.28438 58.01875 87.28438 59.425ZM99.19063 63.05L99.19063 62.128124Q98.4875 63.221874 97.15938 63.221874Q96.28438 63.221874 95.55 62.7375Q94.83125 62.253124 94.425 61.39375Q94.03438 60.534374 94.03438 59.425Q94.03438 58.346874 94.39375 57.45625Q94.75313 56.565624 95.47188 56.096874Q96.20625 55.628124 97.09688 55.628124Q97.75313 55.628124 98.26875 55.909374Q98.78438 56.175 99.09688 56.628124L99.09688 53.034374L100.33125 53.034374L100.33125 63.05L99.19063 63.05ZM95.3 59.425Q95.3 60.815624 95.87813 61.51875Q96.47188 62.20625 97.26875 62.20625Q98.08125 62.20625 98.64375 61.55Q99.20625 60.878124 99.20625 59.534374Q99.20625 58.034374 98.62813 57.346874Q98.05 56.64375 97.22188 56.64375Q96.39375 56.64375 95.84688 57.315624Q95.3 57.9875 95.3 59.425ZM107.44063 60.70625L108.72188 60.8625Q108.40938 61.9875 107.59688 62.6125Q106.78438 63.221874 105.51875 63.221874Q103.925 63.221874 102.9875 62.2375Q102.06563 61.253124 102.06563 59.4875Q102.06563 57.64375 103.00313 56.64375Q103.95625 55.628124 105.45625 55.628124Q106.90938 55.628124 107.83125 56.628124Q108.75313 57.6125 108.75313 59.409374Q108.75313 59.51875 108.75313 59.7375L103.33125 59.7375Q103.40938 60.925 104.00313 61.565624Q104.6125 62.20625 105.53438 62.20625Q106.20625 62.20625 106.675 61.846874Q107.15938 61.4875 107.44063 60.70625ZM103.40938 58.721874L107.45625 58.721874Q107.37813 57.8 106.9875 57.346874Q106.40938 56.64375 105.47188 56.64375Q104.6125 56.64375 104.03438 57.20625Q103.47188 57.76875 103.40938 58.721874ZM109.9875 60.878124L111.19063 60.690624Q111.3 61.425 111.76875 61.815624Q112.2375 62.20625 113.08125 62.20625Q113.925 62.20625 114.33125 61.8625Q114.75313 61.51875 114.75313 61.05Q114.75313 60.628124 114.37813 60.39375Q114.12813 60.221874 113.12813 59.971874Q111.76875 59.628124 111.2375 59.378124Q110.72188 59.128124 110.45625 58.690624Q110.19063 58.253124 110.19063 57.721874Q110.19063 57.2375 110.40938 56.83125Q110.62813 56.409374 111.01875 56.128124Q111.3 55.925 111.78438 55.784374Q112.28438 55.628124 112.8625 55.628124Q113.70625 55.628124 114.34688 55.878124Q115.00313 56.1125 115.31563 56.534374Q115.62813 56.95625 115.7375 57.659374L114.53438 57.83125Q114.45625 57.26875 114.05 56.95625Q113.65938 56.64375 112.94063 56.64375Q112.09688 56.64375 111.7375 56.925Q111.37813 57.190624 111.37813 57.58125Q111.37813 57.815624 111.51875 58.003124Q111.675 58.20625 112.00313 58.33125Q112.175 58.39375 113.08125 58.64375Q114.39375 59.003124 114.90938 59.221874Q115.425 59.440624 115.70625 59.8625Q116.00313 60.284374 116.00313 60.909374Q116.00313 61.534374 115.64375 62.08125Q115.3 62.6125 114.6125 62.925Q113.94063 63.221874 113.08125 63.221874Q111.675 63.221874 110.925 62.628124Q110.19063 62.034374 109.9875 60.878124ZM117.8 63.05L117.8 61.64375L119.19063 61.64375L119.19063 63.05Q119.19063 63.815624 118.90938 64.28438Q118.64375 64.76875 118.05 65.03438L117.70625 64.50313Q118.09688 64.33125 118.28438 64.00313Q118.47188 63.675 118.4875 63.05L117.8 63.05ZM131.59688 61.8625L131.59688 63.05L124.97188 63.05Q124.95625 62.6125 125.1125 62.190624Q125.37813 61.51875 125.925 60.8625Q126.4875 60.20625 127.53438 59.346874Q129.175 58.003124 129.7375 57.221874Q130.31563 56.440624 130.31563 55.7375Q130.31563 55.003124 129.78438 54.503124Q129.26875 54.003124 128.44063 54.003124Q127.55 54.003124 127.00313 54.534374Q126.47188 55.065624 126.47188 56.01875L125.20625 55.878124Q125.33125 54.471874 126.175 53.7375Q127.03438 52.9875 128.45625 52.9875Q129.90938 52.9875 130.7375 53.784374Q131.58125 54.58125 131.58125 55.76875Q131.58125 56.378124 131.33125 56.95625Q131.09688 57.534374 130.51875 58.175Q129.95625 58.815624 128.62813 59.940624Q127.51875 60.8625 127.20625 61.20625Q126.89375 61.534374 126.69063 61.8625L131.59688 61.8625ZM137.6125 63.05L137.6125 53.034374L138.97188 53.034374L144.2375 60.89375L144.2375 53.034374L145.51875 53.034374L145.51875 63.05L144.15938 63.05L138.89375 55.175L138.89375 63.05L137.6125 63.05ZM149.4875 63.05L145.6125 53.034374L147.05 53.034374L149.65938 60.315624Q149.97188 61.190624 150.175 61.95625Q150.40938 61.128124 150.72188 60.315624L153.425 53.034374L154.78438 53.034374L150.8625 63.05L149.4875 63.05ZM155.59688 63.05L155.59688 53.034374L157.58125 53.034374L159.95625 60.128124Q160.28438 61.1125 160.44063 61.6125Q160.6125 61.065624 160.97188 60.003124L163.3625 53.034374L165.15938 53.034374L165.15938 63.05L163.87813 63.05L163.87813 54.659374L160.95625 63.05L159.76875 63.05L156.8625 54.51875L156.8625 63.05L155.59688 63.05ZM171.44063 60.70625L172.72188 60.8625Q172.40938 61.9875 171.59688 62.6125Q170.78438 63.221874 169.51875 63.221874Q167.925 63.221874 166.9875 62.2375Q166.06563 61.253124 166.06563 59.4875Q166.06563 57.64375 167.00313 56.64375Q167.95625 55.628124 169.45625 55.628124Q170.90938 55.628124 171.83125 56.628124Q172.75313 57.6125 172.75313 59.409374Q172.75313 59.51875 172.75313 59.7375L167.33125 59.7375Q167.40938 60.925 168.00313 61.565624Q168.6125 62.20625 169.53438 62.20625Q170.20625 62.20625 170.675 61.846874Q171.15938 61.4875 171.44063 60.70625ZM167.40938 58.721874L171.45625 58.721874Q171.37813 57.8 170.9875 57.346874Q170.40938 56.64375 169.47188 56.64375Q168.6125 56.64375 168.03438 57.20625Q167.47188 57.76875 167.40938 58.721874ZM173.55 63.221874L176.45625 52.8625L177.44063 52.8625L174.53438 63.221874L173.55 63.221874ZM178.6125 63.05L178.6125 53.034374L179.97188 53.034374L185.2375 60.89375L185.2375 53.034374L186.51875 53.034374L186.51875 63.05L185.15938 63.05L179.89375 55.175L179.89375 63.05L178.6125 63.05ZM187.01875 59.425Q187.01875 57.409374 188.14375 56.425Q189.06563 55.628124 190.425 55.628124Q191.90938 55.628124 192.8625 56.6125Q193.81563 57.58125 193.81563 59.315624Q193.81563 60.721874 193.39375 61.534374Q192.97188 62.33125 192.15938 62.784374Q191.3625 63.221874 190.425 63.221874Q188.89375 63.221874 187.95625 62.2375Q187.01875 61.253124 187.01875 59.425ZM188.28438 59.425Q188.28438 60.815624 188.89375 61.51875Q189.50313 62.20625 190.425 62.20625Q191.33125 62.20625 191.94063 61.503124Q192.55 60.8 192.55 59.378124Q192.55 58.034374 191.94063 57.346874Q191.33125 56.64375 190.425 56.64375Q189.50313 56.64375 188.89375 57.33125Q188.28438 58.01875 188.28438 59.425ZM200.19063 63.05L200.19063 62.128124Q199.4875 63.221874 198.15938 63.221874Q197.28438 63.221874 196.55 62.7375Q195.83125 62.253124 195.425 61.39375Q195.03438 60.534374 195.03438 59.425Q195.03438 58.346874 195.39375 57.45625Q195.75313 56.565624 196.47188 56.096874Q197.20625 55.628124 198.09688 55.628124Q198.75313 55.628124 199.26875 55.909374Q199.78438 56.175 200.09688 56.628124L200.09688 53.034374L201.33125 53.034374L201.33125 63.05L200.19063 63.05ZM196.3 59.425Q196.3 60.815624 196.87813 61.51875Q197.47188 62.20625 198.26875 62.20625Q199.08125 62.20625 199.64375 61.55Q200.20625 60.878124 200.20625 59.534374Q200.20625 58.034374 199.62813 57.346874Q199.05 56.64375 198.22188 56.64375Q197.39375 56.64375 196.84688 57.315624Q196.3 57.9875 196.3 59.425ZM208.44063 60.70625L209.72188 60.8625Q209.40938 61.9875 208.59688 62.6125Q207.78438 63.221874 206.51875 63.221874Q204.925 63.221874 203.9875 62.2375Q203.06563 61.253124 203.06563 59.4875Q203.06563 57.64375 204.00313 56.64375Q204.95625 55.628124 206.45625 55.628124Q207.90938 55.628124 208.83125 56.628124Q209.75313 57.6125 209.75313 59.409374Q209.75313 59.51875 209.75313 59.7375L204.33125 59.7375Q204.40938 60.925 205.00313 61.565624Q205.6125 62.20625 206.53438 62.20625Q207.20625 62.20625 207.675 61.846874Q208.15938 61.4875 208.44063 60.70625ZM204.40938 58.721874L208.45625 58.721874Q208.37813 57.8 207.9875 57.346874Q207.40938 56.64375 206.47188 56.64375Q205.6125 56.64375 205.03438 57.20625Q204.47188 57.76875 204.40938 58.721874ZM211.8 63.05L211.8 61.64375L213.19063 61.64375L213.19063 63.05Q213.19063 63.815624 212.90938 64.28438Q212.64375 64.76875 212.05 65.03438L211.70625 64.50313Q212.09688 64.33125 212.28438 64.00313Q212.47188 63.675 212.4875 63.05L211.8 63.05ZM223.08125 63.05L223.08125 60.64375L218.72188 60.64375L218.72188 59.51875L223.3 53.034374L224.3 53.034374L224.3 59.51875L225.65938 59.51875L225.65938 60.64375L224.3 60.64375L224.3 63.05L223.08125 63.05ZM223.08125 59.51875L223.08125 55.003124L219.94063 59.51875L223.08125 59.51875ZM227.12813 58.1125Q227.12813 56.33125 227.4875 55.253124Q227.8625 54.159374 228.58125 53.58125Q229.3 52.9875 230.39375 52.9875Q231.20625 52.9875 231.81563 53.315624Q232.425 53.64375 232.81563 54.253124Q233.22188 54.8625 233.44063 55.7375Q233.65938 56.6125 233.65938 58.1125Q233.65938 59.878124 233.3 60.95625Q232.94063 62.034374 232.22188 62.628124Q231.50313 63.221874 230.39375 63.221874Q228.95625 63.221874 228.12813 62.175Q227.12813 60.925 227.12813 58.1125ZM228.39375 58.1125Q228.39375 60.58125 228.97188 61.39375Q229.55 62.20625 230.39375 62.20625Q231.25313 62.20625 231.83125 61.39375Q232.40938 60.565624 232.40938 58.1125Q232.40938 55.628124 231.83125 54.815624Q231.25313 54.003124 230.37813 54.003124Q229.53438 54.003124 229.03438 54.721874Q228.39375 55.64375 228.39375 58.1125ZM235.31563 60.7375L236.50313 60.628124Q236.64375 61.45625 237.06563 61.83125Q237.50313 62.20625 238.15938 62.20625Q238.72188 62.20625 239.14375 61.95625Q239.58125 61.690624 239.84688 61.253124Q240.12813 60.815624 240.31563 60.08125Q240.50313 59.346874 240.50313 58.58125Q240.50313 58.503124 240.4875 58.33125Q240.12813 58.925 239.4875 59.3Q238.84688 59.659374 238.09688 59.659374Q236.84688 59.659374 235.9875 58.753124Q235.12813 57.846874 235.12813 56.378124Q235.12813 54.846874 236.01875 53.925Q236.925 52.9875 238.28438 52.9875Q239.25313 52.9875 240.06563 53.51875Q240.87813 54.034374 241.3 55.01875Q241.72188 55.9875 241.72188 57.83125Q241.72188 59.753124 241.3 60.89375Q240.89375 62.034374 240.06563 62.628124Q239.2375 63.221874 238.12813 63.221874Q236.95625 63.221874 236.20625 62.565624Q235.47188 61.909374 235.31563 60.7375ZM240.34688 56.315624Q240.34688 55.253124 239.78438 54.628124Q239.22188 54.003124 238.44063 54.003124Q237.6125 54.003124 237.00313 54.675Q236.39375 55.346874 236.39375 56.409374Q236.39375 57.3625 236.97188 57.971874Q237.55 58.565624 238.39375 58.565624Q239.25313 58.565624 239.8 57.971874Q240.34688 57.3625 240.34688 56.315624ZM249.51875 55.4875L248.3 55.58125Q248.12813 54.846874 247.83125 54.51875Q247.33125 54.003124 246.59688 54.003124Q246.00313 54.003124 245.56563 54.33125Q244.9875 54.753124 244.64375 55.565624Q244.31563 56.378124 244.3 57.878124Q244.7375 57.20625 245.37813 56.878124Q246.03438 56.55 246.7375 56.55Q247.97188 56.55 248.83125 57.45625Q249.69063 58.3625 249.69063 59.8Q249.69063 60.7375 249.28438 61.55Q248.87813 62.3625 248.15938 62.8Q247.45625 63.221874 246.55 63.221874Q245.01875 63.221874 244.05 62.096874Q243.08125 60.95625 243.08125 58.3625Q243.08125 55.45625 244.14375 54.128124Q245.08125 52.9875 246.675 52.9875Q247.8625 52.9875 248.6125 53.659374Q249.3625 54.315624 249.51875 55.4875ZM244.4875 59.8Q244.4875 60.440624 244.75313 61.01875Q245.03438 61.596874 245.51875 61.909374Q246.00313 62.20625 246.53438 62.20625Q247.31563 62.20625 247.87813 61.58125Q248.44063 60.95625 248.44063 59.878124Q248.44063 58.83125 247.87813 58.2375Q247.33125 57.628124 246.4875 57.628124Q245.65938 57.628124 245.06563 58.2375Q244.4875 58.83125 244.4875 59.8ZM255.62813 63.05L255.62813 53.034374L259.40936 53.034374Q260.40936 53.034374 260.9406 53.128124Q261.675 53.253124 262.175 53.596874Q262.675 53.940624 262.97186 54.565624Q263.28436 55.175 263.28436 55.925Q263.28436 57.20625 262.47186 58.096874Q261.65936 58.971874 259.53436 58.971874L256.95624 58.971874L256.95624 63.05L255.62813 63.05ZM256.95624 57.8L259.55 57.8Q260.83124 57.8 261.3625 57.315624Q261.90936 56.83125 261.90936 55.971874Q261.90936 55.33125 261.59686 54.89375Q261.28436 54.440624 260.7531 54.3Q260.425 54.20625 259.51874 54.20625L256.95624 54.20625L256.95624 57.8ZM269.3156 59.1125L269.3156 57.940624L273.5656 57.940624L273.5656 61.659374Q272.58124 62.440624 271.53436 62.83125Q270.5031 63.221874 269.40936 63.221874Q267.9406 63.221874 266.72186 62.596874Q265.51874 61.95625 264.90936 60.76875Q264.3 59.565624 264.3 58.08125Q264.3 56.628124 264.90936 55.3625Q265.51874 54.08125 266.65936 53.471874Q267.8156 52.8625 269.3156 52.8625Q270.39374 52.8625 271.26874 53.221874Q272.15936 53.565624 272.65936 54.190624Q273.15936 54.815624 273.40936 55.83125L272.22186 56.159374Q271.9875 55.39375 271.64374 54.95625Q271.3156 54.51875 270.6906 54.253124Q270.08124 53.9875 269.3156 53.9875Q268.40936 53.9875 267.7375 54.26875Q267.08124 54.55 266.675 55.003124Q266.26874 55.440624 266.05 55.9875Q265.65936 56.925 265.65936 58.003124Q265.65936 59.346874 266.1125 60.253124Q266.58124 61.14375 267.45624 61.58125Q268.34686 62.01875 269.34686 62.01875Q270.20624 62.01875 271.01874 61.690624Q271.84686 61.3625 272.26874 60.9875L272.26874 59.1125L269.3156 59.1125ZM274.9875 60.878124L276.1906 60.690624Q276.3 61.425 276.76874 61.815624Q277.2375 62.20625 278.08124 62.20625Q278.925 62.20625 279.33124 61.8625Q279.7531 61.51875 279.7531 61.05Q279.7531 60.628124 279.3781 60.39375Q279.1281 60.221874 278.1281 59.971874Q276.76874 59.628124 276.2375 59.378124Q275.72186 59.128124 275.45624 58.690624Q275.1906 58.253124 275.1906 57.721874Q275.1906 57.2375 275.40936 56.83125Q275.6281 56.409374 276.01874 56.128124Q276.3 55.925 276.78436 55.784374Q277.28436 55.628124 277.8625 55.628124Q278.70624 55.628124 279.34686 55.878124Q280.0031 56.1125 280.3156 56.534374Q280.6281 56.95625 280.7375 57.659374L279.53436 57.83125Q279.45624 57.26875 279.05 56.95625Q278.65936 56.64375 277.9406 56.64375Q277.09686 56.64375 276.7375 56.925Q276.3781 57.190624 276.3781 57.58125Q276.3781 57.815624 276.51874 58.003124Q276.675 58.20625 277.0031 58.33125Q277.175 58.39375 278.08124 58.64375Q279.39374 59.003124 279.90936 59.221874Q280.425 59.440624 280.70624 59.8625Q281.0031 60.284374 281.0031 60.909374Q281.0031 61.534374 280.64374 62.08125Q280.3 62.6125 279.6125 62.925Q278.9406 63.221874 278.08124 63.221874Q276.675 63.221874 275.925 62.628124Q275.1906 62.034374 274.9875 60.878124Z" fill-rule="nonzero"/><path fill="#ffffff" d="M20.190624 37.55L20.190624 23.2375L29.846874 23.2375L29.846874 24.925L22.08125 24.925L22.08125 29.3625L28.8 29.3625L28.8 31.05L22.08125 31.05L22.08125 37.55L20.190624 37.55ZM32.409374 37.55L32.409374 23.2375L34.315624 23.2375L34.315624 37.55L32.409374 37.55ZM37.51875 30.58125Q37.51875 27.01875 39.425 25.003124Q41.346874 22.971874 44.378124 22.971874Q46.3625 22.971874 47.940624 23.925Q49.534374 24.878124 50.3625 26.58125Q51.20625 28.26875 51.20625 30.409374Q51.20625 32.58125 50.33125 34.3Q49.45625 36.01875 47.83125 36.909374Q46.221874 37.8 44.3625 37.8Q42.346874 37.8 40.753124 36.83125Q39.159374 35.846874 38.33125 34.159374Q37.51875 32.45625 37.51875 30.58125ZM39.471874 30.6125Q39.471874 33.190624 40.8625 34.690624Q42.253124 36.175 44.346874 36.175Q46.4875 36.175 47.8625 34.675Q49.253124 33.159374 49.253124 30.39375Q49.253124 28.659374 48.659374 27.3625Q48.08125 26.05 46.940624 25.33125Q45.8 24.6125 44.378124 24.6125Q42.378124 24.6125 40.925 26.003124Q39.471874 27.378124 39.471874 30.6125ZM65.01875 37.55L65.01875 34.128124L58.8 34.128124L58.8 32.503124L65.33125 23.2375L66.76875 23.2375L66.76875 32.503124L68.70625 32.503124L68.70625 34.128124L66.76875 34.128124L66.76875 37.55L65.01875 37.55ZM65.01875 32.503124L65.01875 26.05L60.534374 32.503124L65.01875 32.503124ZM71.01875 37.55L71.01875 23.2375L72.90938 23.2375L72.90938 30.33125L80.01875 23.2375L82.58125 23.2375L76.58125 29.034374L82.84688 37.55L80.34688 37.55L75.25313 30.3L72.90938 32.58125L72.90938 37.55L71.01875 37.55ZM84.01875 37.55L84.01875 23.2375L89.39375 23.2375Q91.03438 23.2375 92.01875 23.675Q93.00313 24.096874 93.56563 25.003124Q94.12813 25.909374 94.12813 26.89375Q94.12813 27.815624 93.62813 28.628124Q93.14375 29.440624 92.12813 29.925Q93.425 30.315624 94.12813 31.2375Q94.83125 32.14375 94.83125 33.39375Q94.83125 34.409374 94.39375 35.26875Q93.97188 36.128124 93.34688 36.596874Q92.72188 37.065624 91.78438 37.315624Q90.84688 37.55 89.47188 37.55L84.01875 37.55ZM85.90938 29.253124L89.00313 29.253124Q90.26875 29.253124 90.81563 29.08125Q91.53438 28.8625 91.89375 28.378124Q92.26875 27.878124 92.26875 27.1125Q92.26875 26.409374 91.925 25.8625Q91.58125 25.315624 90.94063 25.128124Q90.31563 24.925 88.76875 24.925L85.90938 24.925L85.90938 29.253124ZM85.90938 35.8625L89.47188 35.8625Q90.39375 35.8625 90.76875 35.784374Q91.425 35.675 91.8625 35.409374Q92.3 35.128124 92.58125 34.6125Q92.8625 34.08125 92.8625 33.39375Q92.8625 32.596874 92.45625 32.003124Q92.05 31.409374 91.31563 31.175Q90.58125 30.940624 89.22188 30.940624L85.90938 30.940624L85.90938 35.8625ZM103.12813 37.55L103.12813 23.2375L109.47188 23.2375Q111.37813 23.2375 112.37813 23.628124Q113.37813 24.003124 113.97188 24.9875Q114.56563 25.95625 114.56563 27.14375Q114.56563 28.659374 113.58125 29.70625Q112.59688 30.753124 110.53438 31.034374Q111.28438 31.39375 111.675 31.753124Q112.50313 32.503124 113.25313 33.659374L115.7375 37.55L113.3625 37.55L111.45625 34.565624Q110.62813 33.284374 110.09688 32.596874Q109.56563 31.909374 109.12813 31.64375Q108.70625 31.3625 108.26875 31.253124Q107.94063 31.190624 107.22188 31.190624L105.01875 31.190624L105.01875 37.55L103.12813 37.55ZM105.01875 29.55L109.09688 29.55Q110.39375 29.55 111.1125 29.284374Q111.84688 29.01875 112.22188 28.425Q112.6125 27.83125 112.6125 27.14375Q112.6125 26.128124 111.87813 25.471874Q111.14375 24.815624 109.55 24.815624L105.01875 24.815624L105.01875 29.55ZM123.64375 36.26875Q122.65938 37.096874 121.75313 37.440624Q120.84688 37.784374 119.81563 37.784374Q118.1125 37.784374 117.19063 36.95625Q116.26875 36.1125 116.26875 34.815624Q116.26875 34.05 116.6125 33.425Q116.97188 32.8 117.53438 32.425Q118.09688 32.034374 118.8 31.83125Q119.31563 31.70625 120.3625 31.565624Q122.4875 31.315624 123.4875 30.971874Q123.50313 30.6125 123.50313 30.503124Q123.50313 29.440624 123.00313 28.9875Q122.33125 28.39375 121.00313 28.39375Q119.75313 28.39375 119.15938 28.83125Q118.58125 29.26875 118.3 30.378124L116.58125 30.14375Q116.81563 29.034374 117.34688 28.3625Q117.87813 27.675 118.89375 27.315624Q119.90938 26.940624 121.25313 26.940624Q122.58125 26.940624 123.40938 27.253124Q124.2375 27.565624 124.62813 28.05Q125.01875 28.51875 125.175 29.2375Q125.26875 29.690624 125.26875 30.8625L125.26875 33.20625Q125.26875 35.659374 125.37813 36.315624Q125.4875 36.95625 125.83125 37.55L123.9875 37.55Q123.72188 37.003124 123.64375 36.26875ZM123.4875 32.346874Q122.53438 32.7375 120.6125 33.003124Q119.53438 33.159374 119.08125 33.3625Q118.64375 33.55 118.39375 33.925Q118.14375 34.3 118.14375 34.76875Q118.14375 35.471874 118.675 35.940624Q119.20625 36.409374 120.2375 36.409374Q121.25313 36.409374 122.03438 35.971874Q122.83125 35.51875 123.20625 34.753124Q123.4875 34.14375 123.4875 32.9875L123.4875 32.346874ZM127.8625 37.55L127.8625 27.175L129.45625 27.175L129.45625 28.659374Q130.59688 26.940624 132.75313 26.940624Q133.69063 26.940624 134.47188 27.284374Q135.26875 27.6125 135.65938 28.159374Q136.05 28.70625 136.20625 29.45625Q136.3 29.95625 136.3 31.175L136.3 37.55L134.53438 37.55L134.53438 31.2375Q134.53438 30.159374 134.33125 29.628124Q134.12813 29.096874 133.59688 28.784374Q133.08125 28.471874 132.37813 28.471874Q131.25313 28.471874 130.44063 29.190624Q129.62813 29.89375 129.62813 31.878124L129.62813 37.55L127.8625 37.55ZM144.59688 37.55L144.59688 36.2375Q143.6125 37.784374 141.69063 37.784374Q140.45625 37.784374 139.40938 37.096874Q138.37813 36.409374 137.8 35.190624Q137.2375 33.971874 137.2375 32.378124Q137.2375 30.815624 137.75313 29.55Q138.26875 28.284374 139.3 27.6125Q140.34688 26.940624 141.6125 26.940624Q142.55 26.940624 143.28438 27.346874Q144.01875 27.7375 144.4875 28.3625L144.4875 23.2375L146.22188 23.2375L146.22188 37.55L144.59688 37.55ZM139.03438 32.378124Q139.03438 34.3625 139.87813 35.346874Q140.72188 36.33125 141.8625 36.33125Q143.01875 36.33125 143.81563 35.39375Q144.62813 34.45625 144.62813 32.51875Q144.62813 30.39375 143.8 29.39375Q142.9875 28.39375 141.78438 28.39375Q140.6125 28.39375 139.81563 29.3625Q139.03438 30.315624 139.03438 32.378124ZM148.22188 32.3625Q148.22188 29.4875 149.81563 28.096874Q151.15938 26.940624 153.08125 26.940624Q155.22188 26.940624 156.56563 28.346874Q157.925 29.753124 157.925 32.221874Q157.925 34.221874 157.33125 35.378124Q156.7375 36.51875 155.58125 37.159374Q154.44063 37.784374 153.08125 37.784374Q150.89375 37.784374 149.55 36.39375Q148.22188 34.9875 148.22188 32.3625ZM150.01875 32.3625Q150.01875 34.3625 150.87813 35.346874Q151.75313 36.33125 153.08125 36.33125Q154.39375 36.33125 155.25313 35.346874Q156.12813 34.346874 156.12813 32.3Q156.12813 30.378124 155.25313 29.39375Q154.37813 28.39375 153.08125 28.39375Q151.75313 28.39375 150.87813 29.39375Q150.01875 30.378124 150.01875 32.3625ZM159.8625 37.55L159.8625 27.175L161.44063 27.175L161.44063 28.628124Q161.925 27.878124 162.7375 27.409374Q163.55 26.940624 164.58125 26.940624Q165.7375 26.940624 166.47188 27.425Q167.20625 27.89375 167.51875 28.753124Q168.75313 26.940624 170.72188 26.940624Q172.26875 26.940624 173.09688 27.8Q173.925 28.659374 173.925 30.425L173.925 37.55L172.175 37.55L172.175 31.01875Q172.175 29.95625 172.00313 29.503124Q171.83125 29.034374 171.37813 28.753124Q170.94063 28.471874 170.33125 28.471874Q169.2375 28.471874 168.50313 29.20625Q167.78438 29.925 167.78438 31.51875L167.78438 37.55L166.03438 37.55L166.03438 30.815624Q166.03438 29.64375 165.59688 29.065624Q165.175 28.471874 164.19063 28.471874Q163.45625 28.471874 162.81563 28.8625Q162.19063 29.253124 161.90938 30.003124Q161.62813 30.753124 161.62813 32.175L161.62813 37.55L159.8625 37.55ZM182.12813 37.55L182.12813 23.2375L188.47188 23.2375Q190.37813 23.2375 191.37813 23.628124Q192.37813 24.003124 192.97188 24.9875Q193.56563 25.95625 193.56563 27.14375Q193.56563 28.659374 192.58125 29.70625Q191.59688 30.753124 189.53438 31.034374Q190.28438 31.39375 190.675 31.753124Q191.50313 32.503124 192.25313 33.659374L194.7375 37.55L192.3625 37.55L190.45625 34.565624Q189.62813 33.284374 189.09688 32.596874Q188.56563 31.909374 188.12813 31.64375Q187.70625 31.3625 187.26875 31.253124Q186.94063 31.190624 186.22188 31.190624L184.01875 31.190624L184.01875 37.55L182.12813 37.55ZM184.01875 29.55L188.09688 29.55Q189.39375 29.55 190.1125 29.284374Q190.84688 29.01875 191.22188 28.425Q191.6125 27.83125 191.6125 27.14375Q191.6125 26.128124 190.87813 25.471874Q190.14375 24.815624 188.55 24.815624L184.01875 24.815624L184.01875 29.55ZM202.97188 34.20625L204.78438 34.440624Q204.3625 36.01875 203.19063 36.909374Q202.03438 37.784374 200.22188 37.784374Q197.95625 37.784374 196.6125 36.39375Q195.28438 34.9875 195.28438 32.45625Q195.28438 29.83125 196.62813 28.39375Q197.97188 26.940624 200.12813 26.940624Q202.20625 26.940624 203.51875 28.3625Q204.84688 29.76875 204.84688 32.346874Q204.84688 32.503124 204.83125 32.815624L197.09688 32.815624Q197.19063 34.51875 198.06563 35.425Q198.94063 36.33125 200.2375 36.33125Q201.20625 36.33125 201.87813 35.83125Q202.56563 35.315624 202.97188 34.20625ZM197.19063 31.3625L202.9875 31.3625Q202.87813 30.065624 202.33125 29.409374Q201.4875 28.39375 200.14375 28.39375Q198.94063 28.39375 198.1125 29.20625Q197.28438 30.003124 197.19063 31.3625ZM213.64375 36.26875Q212.65938 37.096874 211.75313 37.440624Q210.84688 37.784374 209.81563 37.784374Q208.1125 37.784374 207.19063 36.95625Q206.26875 36.1125 206.26875 34.815624Q206.26875 34.05 206.6125 33.425Q206.97188 32.8 207.53438 32.425Q208.09688 32.034374 208.8 31.83125Q209.31563 31.70625 210.3625 31.565624Q212.4875 31.315624 213.4875 30.971874Q213.50313 30.6125 213.50313 30.503124Q213.50313 29.440624 213.00313 28.9875Q212.33125 28.39375 211.00313 28.39375Q209.75313 28.39375 209.15938 28.83125Q208.58125 29.26875 208.3 30.378124L206.58125 30.14375Q206.81563 29.034374 207.34688 28.3625Q207.87813 27.675 208.89375 27.315624Q209.90938 26.940624 211.25313 26.940624Q212.58125 26.940624 213.40938 27.253124Q214.2375 27.565624 214.62813 28.05Q215.01875 28.51875 215.175 29.2375Q215.26875 29.690624 215.26875 30.8625L215.26875 33.20625Q215.26875 35.659374 215.37813 36.315624Q215.4875 36.95625 215.83125 37.55L213.9875 37.55Q213.72188 37.003124 213.64375 36.26875ZM213.4875 32.346874Q212.53438 32.7375 210.6125 33.003124Q209.53438 33.159374 209.08125 33.3625Q208.64375 33.55 208.39375 33.925Q208.14375 34.3 208.14375 34.76875Q208.14375 35.471874 208.675 35.940624Q209.20625 36.409374 210.2375 36.409374Q211.25313 36.409374 212.03438 35.971874Q212.83125 35.51875 213.20625 34.753124Q213.4875 34.14375 213.4875 32.9875L213.4875 32.346874ZM224.59688 37.55L224.59688 36.2375Q223.6125 37.784374 221.69063 37.784374Q220.45625 37.784374 219.40938 37.096874Q218.37813 36.409374 217.8 35.190624Q217.2375 33.971874 217.2375 32.378124Q217.2375 30.815624 217.75313 29.55Q218.26875 28.284374 219.3 27.6125Q220.34688 26.940624 221.6125 26.940624Q222.55 26.940624 223.28438 27.346874Q224.01875 27.7375 224.4875 28.3625L224.4875 23.2375L226.22188 23.2375L226.22188 37.55L224.59688 37.55ZM219.03438 32.378124Q219.03438 34.3625 219.87813 35.346874Q220.72188 36.33125 221.8625 36.33125Q223.01875 36.33125 223.81563 35.39375Q224.62813 34.45625 224.62813 32.51875Q224.62813 30.39375 223.8 29.39375Q222.9875 28.39375 221.78438 28.39375Q220.6125 28.39375 219.81563 29.3625Q219.03438 30.315624 219.03438 32.378124ZM245.31563 32.534374L247.20625 33.003124Q246.6125 35.346874 245.06563 36.58125Q243.51875 37.8 241.26875 37.8Q238.95625 37.8 237.50313 36.8625Q236.06563 35.909374 235.3 34.128124Q234.55 32.33125 234.55 30.284374Q234.55 28.05 235.39375 26.39375Q236.25313 24.721874 237.83125 23.8625Q239.40938 22.9875 241.3 22.9875Q243.45625 22.9875 244.90938 24.08125Q246.37813 25.175 246.95625 27.159374L245.09688 27.596874Q244.59688 26.034374 243.64375 25.33125Q242.70625 24.6125 241.26875 24.6125Q239.6125 24.6125 238.50313 25.409374Q237.39375 26.190624 236.94063 27.534374Q236.50313 28.8625 236.50313 30.26875Q236.50313 32.096874 237.03438 33.471874Q237.56563 34.83125 238.69063 35.503124Q239.81563 36.175 241.1125 36.175Q242.70625 36.175 243.81563 35.253124Q244.925 34.33125 245.31563 32.534374ZM248.78438 41.55L248.59688 39.89375Q249.175 40.05 249.59688 40.05Q250.19063 40.05 250.53438 39.846874Q250.89375 39.659374 251.1125 39.315624Q251.28438 39.05 251.65938 38.003124Q251.70625 37.846874 251.81563 37.565624L247.87813 27.175L249.76875 27.175L251.925 33.190624Q252.34688 34.33125 252.675 35.58125Q252.9875 34.378124 253.39375 33.221874L255.6125 27.175L257.3781 27.175L253.425 37.721874Q252.8 39.440624 252.44063 40.08125Q251.97188 40.95625 251.3625 41.346874Q250.76875 41.753124 249.925 41.753124Q249.40938 41.753124 248.78438 41.55ZM265.64374 33.753124L267.3625 33.971874Q267.08124 35.76875 265.90936 36.784374Q264.7531 37.784374 263.05 37.784374Q260.925 37.784374 259.6281 36.39375Q258.33124 35.003124 258.33124 32.409374Q258.33124 30.721874 258.8781 29.471874Q259.4406 28.20625 260.58124 27.58125Q261.72186 26.940624 263.0656 26.940624Q264.7531 26.940624 265.8156 27.8Q266.89374 28.659374 267.20624 30.221874L265.4875 30.4875Q265.2531 29.440624 264.6281 28.925Q264.0031 28.39375 263.1281 28.39375Q261.8 28.39375 260.97186 29.346874Q260.14374 30.3 260.14374 32.346874Q260.14374 34.440624 260.9406 35.39375Q261.7375 36.33125 263.03436 36.33125Q264.0656 36.33125 264.7531 35.70625Q265.45624 35.065624 265.64374 33.753124ZM268.83124 37.55L268.83124 23.2375L270.58124 23.2375L270.58124 37.55L268.83124 37.55ZM279.97186 34.20625L281.78436 34.440624Q281.3625 36.01875 280.1906 36.909374Q279.03436 37.784374 277.22186 37.784374Q274.95624 37.784374 273.6125 36.39375Q272.28436 34.9875 272.28436 32.45625Q272.28436 29.83125 273.6281 28.39375Q274.97186 26.940624 277.1281 26.940624Q279.20624 26.940624 280.51874 28.3625Q281.84686 29.76875 281.84686 32.346874Q281.84686 32.503124 281.83124 32.815624L274.09686 32.815624Q274.1906 34.51875 275.0656 35.425Q275.9406 36.33125 277.2375 36.33125Q278.20624 36.33125 278.8781 35.83125Q279.5656 35.315624 279.97186 34.20625ZM274.1906 31.3625L279.9875 31.3625Q279.8781 30.065624 279.33124 29.409374Q278.4875 28.39375 277.14374 28.39375Q275.9406 28.39375 275.1125 29.20625Q274.28436 30.003124 274.1906 31.3625ZM283.15936 34.45625L284.90936 34.175Q285.05 35.221874 285.72186 35.784374Q286.39374 36.33125 287.59686 36.33125Q288.8 36.33125 289.3781 35.846874Q289.97186 35.346874 289.97186 34.690624Q289.97186 34.096874 289.45624 33.753124Q289.09686 33.51875 287.65936 33.159374Q285.72186 32.659374 284.97186 32.315624Q284.2375 31.95625 283.84686 31.33125Q283.45624 30.690624 283.45624 29.925Q283.45624 29.2375 283.76874 28.64375Q284.09686 28.05 284.64374 27.659374Q285.05 27.3625 285.7531 27.159374Q286.47186 26.940624 287.28436 26.940624Q288.5031 26.940624 289.425 27.3Q290.34686 27.64375 290.78436 28.253124Q291.22186 28.846874 291.39374 29.846874L289.675 30.08125Q289.55 29.284374 288.9875 28.846874Q288.425 28.39375 287.40936 28.39375Q286.1906 28.39375 285.675 28.8Q285.15936 29.190624 285.15936 29.721874Q285.15936 30.065624 285.3781 30.346874Q285.58124 30.628124 286.05 30.815624Q286.3156 30.909374 287.59686 31.253124Q289.47186 31.753124 290.20624 32.08125Q290.9406 32.39375 291.3625 33.003124Q291.78436 33.596874 291.78436 34.503124Q291.78436 35.378124 291.26874 36.159374Q290.7531 36.940624 289.78436 37.3625Q288.8156 37.784374 287.59686 37.784374Q285.58124 37.784374 284.51874 36.940624Q283.45624 36.096874 283.15936 34.45625ZM292.55 37.8L296.70624 22.9875L298.1125 22.9875L293.97186 37.8L292.55 37.8ZM299.51874 30.58125Q299.51874 27.01875 301.425 25.003124Q303.34686 22.971874 306.3781 22.971874Q308.3625 22.971874 309.9406 23.925Q311.53436 24.878124 312.3625 26.58125Q313.20624 28.26875 313.20624 30.409374Q313.20624 32.58125 312.33124 34.3Q311.45624 36.01875 309.83124 36.909374Q308.22186 37.8 306.3625 37.8Q304.34686 37.8 302.7531 36.83125Q301.15936 35.846874 300.33124 34.159374Q299.51874 32.45625 299.51874 30.58125ZM301.47186 30.6125Q301.47186 33.190624 302.8625 34.690624Q304.2531 36.175 306.34686 36.175Q308.4875 36.175 309.8625 34.675Q311.2531 33.159374 311.2531 30.39375Q311.2531 28.659374 310.65936 27.3625Q310.08124 26.05 308.9406 25.33125Q307.8 24.6125 306.3781 24.6125Q304.3781 24.6125 302.925 26.003124Q301.47186 27.378124 301.47186 30.6125ZM316.09686 37.55L316.09686 23.2375L321.4875 23.2375Q322.925 23.2375 323.675 23.3625Q324.72186 23.55 325.4406 24.05Q326.15936 24.534374 326.58124 25.425Q327.01874 26.315624 327.01874 27.378124Q327.01874 29.20625 325.84686 30.471874Q324.6906 31.721874 321.65936 31.721874L317.9875 31.721874L317.9875 37.55L316.09686 37.55ZM317.9875 30.034374L321.6906 30.034374Q323.51874 30.034374 324.28436 29.3625Q325.0656 28.675 325.0656 27.425Q325.0656 26.534374 324.6125 25.89375Q324.15936 25.253124 323.425 25.05Q322.9406 24.925 321.64374 24.925L317.9875 24.925L317.9875 30.034374ZM338.22186 41.753124Q336.76874 39.925 335.76874 37.471874Q334.76874 35.003124 334.76874 32.3625Q334.76874 30.034374 335.51874 27.909374Q336.39374 25.440624 338.22186 22.9875L339.4875 22.9875Q338.3 25.01875 337.925 25.89375Q337.33124 27.2375 336.9875 28.70625Q336.5656 30.534374 336.5656 32.378124Q336.5656 37.065624 339.4875 41.753124L338.22186 41.753124ZM348.0031 37.55L346.2375 37.55L346.2375 26.346874Q345.6125 26.95625 344.58124 27.565624Q343.55 28.159374 342.72186 28.471874L342.72186 26.76875Q344.20624 26.08125 345.3 25.096874Q346.40936 24.096874 346.8625 23.175L348.0031 23.175L348.0031 37.55ZM361.5031 26.7375L359.7531 26.878124Q359.51874 25.846874 359.09686 25.378124Q358.3781 24.6125 357.33124 24.6125Q356.4875 24.6125 355.8625 25.08125Q355.03436 25.690624 354.55 26.8625Q354.0656 28.01875 354.05 30.159374Q354.6906 29.20625 355.59686 28.7375Q356.51874 28.26875 357.53436 28.26875Q359.28436 28.26875 360.51874 29.565624Q361.7531 30.846874 361.7531 32.89375Q361.7531 34.253124 361.175 35.409374Q360.59686 36.565624 359.58124 37.190624Q358.5656 37.8 357.26874 37.8Q355.08124 37.8 353.6906 36.190624Q352.3 34.565624 352.3 30.846874Q352.3 26.70625 353.83124 24.815624Q355.175 23.175 357.4406 23.175Q359.1281 23.175 360.20624 24.128124Q361.28436 25.065624 361.5031 26.7375ZM354.33124 32.909374Q354.33124 33.815624 354.70624 34.64375Q355.09686 35.471874 355.78436 35.909374Q356.4875 36.346874 357.2375 36.346874Q358.3625 36.346874 359.15936 35.45625Q359.95624 34.55 359.95624 33.003124Q359.95624 31.51875 359.15936 30.675Q358.3781 29.815624 357.175 29.815624Q355.9875 29.815624 355.15936 30.675Q354.33124 31.51875 354.33124 32.909374ZM380.3156 32.534374L382.20624 33.003124Q381.6125 35.346874 380.0656 36.58125Q378.51874 37.8 376.26874 37.8Q373.95624 37.8 372.5031 36.8625Q371.0656 35.909374 370.3 34.128124Q369.55 32.33125 369.55 30.284374Q369.55 28.05 370.39374 26.39375Q371.2531 24.721874 372.83124 23.8625Q374.40936 22.9875 376.3 22.9875Q378.45624 22.9875 379.90936 24.08125Q381.3781 25.175 381.95624 27.159374L380.09686 27.596874Q379.59686 26.034374 378.64374 25.33125Q377.70624 24.6125 376.26874 24.6125Q374.6125 24.6125 373.5031 25.409374Q372.39374 26.190624 371.9406 27.534374Q371.5031 28.8625 371.5031 30.26875Q371.5031 32.096874 372.03436 33.471874Q372.5656 34.83125 373.6906 35.503124Q374.8156 36.175 376.1125 36.175Q377.70624 36.175 378.8156 35.253124Q379.925 34.33125 380.3156 32.534374ZM383.83124 37.55L383.83124 23.2375L385.58124 23.2375L385.58124 37.55L383.83124 37.55ZM387.8781 25.253124L387.8781 23.2375L389.64374 23.2375L389.64374 25.253124L387.8781 25.253124ZM387.8781 37.55L387.8781 27.175L389.64374 27.175L389.64374 37.55L387.8781 37.55ZM398.97186 34.20625L400.78436 34.440624Q400.3625 36.01875 399.1906 36.909374Q398.03436 37.784374 396.22186 37.784374Q393.95624 37.784374 392.6125 36.39375Q391.28436 34.9875 391.28436 32.45625Q391.28436 29.83125 392.6281 28.39375Q393.97186 26.940624 396.1281 26.940624Q398.20624 26.940624 399.51874 28.3625Q400.84686 29.76875 400.84686 32.346874Q400.84686 32.503124 400.83124 32.815624L393.09686 32.815624Q393.1906 34.51875 394.0656 35.425Q394.9406 36.33125 396.2375 36.33125Q397.20624 36.33125 397.8781 35.83125Q398.5656 35.315624 398.97186 34.20625ZM393.1906 31.3625L398.9875 31.3625Q398.8781 30.065624 398.33124 29.409374Q397.4875 28.39375 396.14374 28.39375Q394.9406 28.39375 394.1125 29.20625Q393.28436 30.003124 393.1906 31.3625ZM402.8625 37.55L402.8625 27.175L404.45624 27.175L404.45624 28.659374Q405.59686 26.940624 407.7531 26.940624Q408.6906 26.940624 409.47186 27.284374Q410.26874 27.6125 410.65936 28.159374Q411.05 28.70625 411.20624 29.45625Q411.3 29.95625 411.3 31.175L411.3 37.55L409.53436 37.55L409.53436 31.2375Q409.53436 30.159374 409.33124 29.628124Q409.1281 29.096874 408.59686 28.784374Q408.08124 28.471874 407.3781 28.471874Q406.2531 28.471874 405.4406 29.190624Q404.6281 29.89375 404.6281 31.878124L404.6281 37.55L402.8625 37.55ZM416.70624 35.971874L416.95624 37.534374Q416.22186 37.690624 415.6281 37.690624Q414.675 37.690624 414.14374 37.39375Q413.6281 37.08125 413.40936 36.596874Q413.1906 36.096874 413.1906 34.51875L413.1906 28.55L411.90936 28.55L411.90936 27.175L413.1906 27.175L413.1906 24.6125L414.9406 23.55L414.9406 27.175L416.70624 27.175L416.70624 28.55L414.9406 28.55L414.9406 34.6125Q414.9406 35.3625 415.03436 35.58125Q415.1281 35.784374 415.33124 35.925Q415.55 36.05 415.9406 36.05Q416.22186 36.05 416.70624 35.971874ZM420.01874 41.753124L418.76874 41.753124Q421.675 37.065624 421.675 32.378124Q421.675 30.534374 421.26874 28.7375Q420.925 27.26875 420.33124 25.925Q419.95624 25.034374 418.76874 22.9875L420.01874 22.9875Q421.8625 25.440624 422.7375 27.909374Q423.4875 30.034374 423.4875 32.3625Q423.4875 35.003124 422.47186 37.471874Q421.47186 39.925 420.01874 41.753124Z" fill-rule="nonzero"/></svg>