<svg version="1.1" viewBox="0.0 0.0 600.0 268.0" fill="none" stroke="none" stroke-linecap="square" stroke-miterlimit="10" width="600" height="268" xmlns:xlink="http://www.w3.org/1999/xlink" xmlns="http://www.w3.org/2000/svg"><path fill="#ffffff" d="M0 0L600.0 0L600.0 268.0L0 268.0L0 0Z" fill-rule="nonzero"/><path stroke="#333333" stroke-width="1.0" stroke-linecap="butt" d="M72.5 234.5L586.5 234.5" fill-rule="nonzero"/><path stroke="#cccccc" stroke-width="1.0" stroke-linecap="butt" d="M72.5 207.5L586.5 207.5" fill-rule="nonzero"/><path stroke="#cccccc" stroke-width="1.0" stroke-linecap="butt" d="M72.5 180.5L586.5 180.5" fill-rule="nonzero"/><path stroke="#cccccc" stroke-width="1.0" stroke-linecap="butt" d="M72.5 153.5L586.5 153.5" fill-rule="nonzero"/><path stroke="#cccccc" stroke-width="1.0" stroke-linecap="butt" d="M72.5 126.5L586.5 126.5" fill-rule="nonzero"/><path stroke="#cccccc" stroke-width="1.0" stroke-linecap="butt" d="M72.5 99.5L586.5 99.5" fill-rule="nonzero"/><clipPath id="id_0"><path d="M72.4 99.76667L586.6 99.76667L586.6 234.6L72.4 234.6L72.4 99.76667Z" clip-rule="nonzero"/></clipPath><path stroke="#000000" stroke-width="2.0" stroke-linecap="butt" stroke-opacity="0.0" clip-path="url(#id_0)" d="M219.0 235.0L150.0 235.0L150.0 104.0C150.0 102.89543 150.89543 102.0 152.0 102.0L217.0 102.0C218.10457 102.0 219.0 102.89543 219.0 104.0Z" fill-rule="nonzero"/><path fill="#4285f4" clip-path="url(#id_0)" d="M219.0 235.0L150.0 235.0L150.0 104.0C150.0 102.89543 150.89543 102.0 152.0 102.0L217.0 102.0C218.10457 102.0 219.0 102.89543 219.0 104.0Z" fill-rule="nonzero"/><path stroke="#000000" stroke-width="2.0" stroke-linecap="butt" stroke-opacity="0.0" clip-path="url(#id_0)" d="M438.0 235.0L369.0 235.0L369.0 167.0C369.0 165.89543 369.89542 165.0 371.0 165.0L436.0 165.0C437.10458 165.0 438.0 165.89543 438.0 167.0Z" fill-rule="nonzero"/><path fill="#4285f4" clip-path="url(#id_0)" d="M438.0 235.0L369.0 235.0L369.0 167.0C369.0 165.89543 369.89542 165.0 371.0 165.0L436.0 165.0C437.10458 165.0 438.0 165.89543 438.0 167.0Z" fill-rule="nonzero"/><path stroke="#000000" stroke-width="2.0" stroke-linecap="butt" stroke-opacity="0.0" clip-path="url(#id_0)" d="M290.0 235.0L221.0 235.0L221.0 108.0C221.0 106.89543 221.89543 106.0 223.0 106.0L288.0 106.0C289.10458 106.0 290.0 106.89543 290.0 108.0Z" fill-rule="nonzero"/><path fill="#ea4335" clip-path="url(#id_0)" d="M290.0 235.0L221.0 235.0L221.0 108.0C221.0 106.89543 221.89543 106.0 223.0 106.0L288.0 106.0C289.10458 106.0 290.0 106.89543 290.0 108.0Z" fill-rule="nonzero"/><path stroke="#000000" stroke-width="2.0" stroke-linecap="butt" stroke-opacity="0.0" clip-path="url(#id_0)" d="M509.0 235.0L440.0 235.0L440.0 164.0C440.0 162.89543 440.89542 162.0 442.0 162.0L507.0 162.0C508.10458 162.0 509.0 162.89543 509.0 164.0Z" fill-rule="nonzero"/><path fill="#ea4335" clip-path="url(#id_0)" d="M509.0 235.0L440.0 235.0L440.0 164.0C440.0 162.89543 440.89542 162.0 442.0 162.0L507.0 162.0C508.10458 162.0 509.0 162.89543 509.0 164.0Z" fill-rule="nonzero"/><path fill="#000000" d="M24.400005 190.80833L15.806256 190.80833L15.806256 189.66771L20.07188 189.66771L15.806256 185.40208L15.806256 183.85521L19.29063 187.46458L24.400005 183.69896L24.400005 185.19896L20.056255 188.26146L21.41563 189.66771L24.400005 189.66771L24.400005 190.80833ZM24.400005 182.55833L15.806256 182.55833L15.806256 181.43333L24.400005 181.43333L24.400005 182.55833ZM20.212505 180.10521Q18.07188 180.10521 16.868755 178.96458Q15.650006 177.80833 15.650006 175.99583Q15.650006 174.79271 16.22813 173.83958Q16.79063 172.88646 17.806255 172.38646Q18.82188 171.88646 20.118755 171.88646Q21.41563 171.88646 22.44688 172.41771Q23.47813 172.94896 24.00938 173.91771Q24.54063 174.87083 24.54063 175.99583Q24.54063 177.21458 23.962505 178.16771Q23.368755 179.12083 22.368755 179.62083Q21.35313 180.10521 20.212505 180.10521ZM20.22813 178.93333Q21.79063 178.93333 22.681255 178.10521Q23.57188 177.26146 23.57188 175.99583Q23.57188 174.71458 22.681255 173.88646Q21.775005 173.05833 20.10313 173.05833Q19.056255 173.05833 18.275005 173.41771Q17.493755 173.76146 17.07188 174.44896Q16.63438 175.13646 16.63438 175.98021Q16.63438 177.18333 17.462505 178.05833Q18.29063 178.93333 20.22813 178.93333ZM24.400005 170.76146L15.806256 170.76146L15.806256 167.51146Q15.806256 166.66771 15.884381 166.21458Q15.993756 165.57396 16.29063 165.15208Q16.587505 164.71458 17.118755 164.46458Q17.650005 164.19896 18.29063 164.19896Q19.38438 164.19896 20.150005 164.90208Q20.900005 165.58958 20.900005 167.41771L20.900005 169.62083L24.400005 169.62083L24.400005 170.76146ZM19.900005 169.62083L19.900005 167.40208Q19.900005 166.29271 19.493755 165.83958Q19.07188 165.37083 18.32188 165.37083Q17.79063 165.37083 17.41563 165.65208Q17.025005 165.91771 16.900005 166.35521Q16.82188 166.65208 16.82188 167.41771L16.82188 169.62083L19.900005 169.62083ZM21.63438 163.13646L21.54063 162.07396Q22.19688 161.99583 22.60313 161.71458Q23.00938 161.43333 23.275005 160.85521Q23.525005 160.26146 23.525005 159.52708Q23.525005 158.88646 23.337505 158.38646Q23.13438 157.88646 22.806255 157.65208Q22.462505 157.40208 22.07188 157.40208Q21.66563 157.40208 21.368755 157.63646Q21.056255 157.87083 20.85313 158.40208Q20.712505 158.76146 20.431255 159.94896Q20.150005 161.12083 19.900005 161.58958Q19.57188 162.21458 19.10313 162.51146Q18.618755 162.80833 18.025005 162.80833Q17.38438 162.80833 16.82188 162.44896Q16.243755 162.07396 15.962506 161.37083Q15.665631 160.65208 15.665631 159.79271Q15.665631 158.83958 15.978131 158.10521Q16.275005 157.37083 16.88438 156.98021Q17.47813 156.58958 18.22813 156.55833L18.306255 157.65208Q17.493755 157.74583 17.087505 158.26146Q16.66563 158.76146 16.66563 159.74583Q16.66563 160.77708 17.04063 161.24583Q17.41563 161.71458 17.94688 161.71458Q18.41563 161.71458 18.712505 161.38646Q19.00938 161.05833 19.32188 159.68333Q19.63438 158.29271 19.868755 157.77708Q20.22813 157.02708 20.75938 156.66771Q21.275005 156.30833 21.97813 156.30833Q22.66563 156.30833 23.275005 156.69896Q23.868755 157.08958 24.212505 157.82396Q24.54063 158.55833 24.54063 159.48021Q24.54063 160.65208 24.212505 161.44896Q23.868755 162.23021 23.181255 162.68333Q22.493755 163.12083 21.63438 163.13646Z" fill-rule="nonzero"/><path fill="#000000" d="M59.9 234.36563Q59.9 232.83438 60.2125 231.9125Q60.525 230.975 61.134377 230.475Q61.759377 229.975 62.696877 229.975Q63.384377 229.975 63.9 230.25626Q64.43125 230.5375 64.775 231.06876Q65.11875 231.58438 65.30625 232.33438Q65.49375 233.08438 65.49375 234.36563Q65.49375 235.88126 65.18125 236.80313Q64.88438 237.725 64.25938 238.24063Q63.65 238.74063 62.696877 238.74063Q61.4625 238.74063 60.74375 237.85Q59.9 236.7875 59.9 234.36563ZM60.978127 234.36563Q60.978127 236.475 61.478127 237.17813Q61.978127 237.88126 62.696877 237.88126Q63.43125 237.88126 63.915627 237.17813Q64.41563 236.475 64.41563 234.36563Q64.41563 232.24063 63.915627 231.55313Q63.43125 230.85 62.68125 230.85Q61.9625 230.85 61.525 231.45938Q60.978127 232.24063 60.978127 234.36563Z" fill-rule="nonzero"/><path fill="#000000" d="M58.446877 210.6177L58.446877 211.63333L52.759377 211.63333Q52.759377 211.25833 52.884377 210.89896Q53.103127 210.32083 53.571877 209.75833Q54.05625 209.19583 54.9625 208.46146Q56.36875 207.3052 56.853127 206.63333Q57.353127 205.96146 57.353127 205.3677Q57.353127 204.7427 56.9 204.32083Q56.446877 203.88333 55.728127 203.88333Q54.9625 203.88333 54.509377 204.33646Q54.05625 204.78958 54.040627 205.60208L52.9625 205.4927Q53.071877 204.27396 53.790627 203.64896Q54.525 203.00833 55.759377 203.00833Q56.99375 203.00833 57.7125 203.69583Q58.43125 204.38333 58.43125 205.39896Q58.43125 205.91458 58.2125 206.41458Q58.009377 206.89896 57.509377 207.46146Q57.025 208.00833 55.9 208.96146Q54.946877 209.75833 54.665627 210.0552Q54.4 210.33646 54.228127 210.6177L58.446877 210.6177ZM59.9 209.38333L61.009377 209.28958Q61.134377 210.10208 61.571877 210.50833Q62.025 210.91458 62.665627 210.91458Q63.415627 210.91458 63.946877 210.33646Q64.47813 209.75833 64.47813 208.82083Q64.47813 207.91458 63.9625 207.39896Q63.4625 206.8677 62.634377 206.8677Q62.134377 206.8677 61.7125 207.10208Q61.30625 207.33646 61.071877 207.69583L60.0875 207.57083L60.915627 203.16458L65.19688 203.16458L65.19688 204.16458L61.759377 204.16458L61.30625 206.47708Q62.071877 205.9302 62.915627 205.9302Q64.04063 205.9302 64.80625 206.71146Q65.5875 207.4927 65.5875 208.72708Q65.5875 209.88333 64.91563 210.7427Q64.0875 211.77396 62.665627 211.77396Q61.49375 211.77396 60.74375 211.1177Q60.009377 210.46146 59.9 209.38333Z" fill-rule="nonzero"/><path fill="#000000" d="M52.9 182.41667L54.009377 182.32292Q54.134377 183.13542 54.571877 183.54167Q55.025 183.94792 55.665627 183.94792Q56.415627 183.94792 56.946877 183.3698Q57.478127 182.79167 57.478127 181.85417Q57.478127 180.94792 56.9625 180.4323Q56.4625 179.90105 55.634377 179.90105Q55.134377 179.90105 54.7125 180.13542Q54.30625 180.3698 54.071877 180.72917L53.0875 180.60417L53.915627 176.19792L58.196877 176.19792L58.196877 177.19792L54.759377 177.19792L54.30625 179.51042Q55.071877 178.96355 55.915627 178.96355Q57.040627 178.96355 57.80625 179.7448Q58.5875 180.52605 58.5875 181.76042Q58.5875 182.91667 57.915627 183.77605Q57.0875 184.8073 55.665627 184.8073Q54.49375 184.8073 53.74375 184.15105Q53.009377 183.4948 52.9 182.41667ZM59.9 180.4323Q59.9 178.90105 60.2125 177.97917Q60.525 177.04167 61.134377 176.54167Q61.759377 176.04167 62.696877 176.04167Q63.384377 176.04167 63.9 176.32292Q64.43125 176.60417 64.775 177.13542Q65.11875 177.65105 65.30625 178.40105Q65.49375 179.15105 65.49375 180.4323Q65.49375 181.94792 65.18125 182.8698Q64.88438 183.79167 64.25938 184.3073Q63.65 184.8073 62.696877 184.8073Q61.4625 184.8073 60.74375 183.91667Q59.9 182.85417 59.9 180.4323ZM60.978127 180.4323Q60.978127 182.54167 61.478127 183.2448Q61.978127 183.94792 62.696877 183.94792Q63.43125 183.94792 63.915627 183.2448Q64.41563 182.54167 64.41563 180.4323Q64.41563 178.3073 63.915627 177.6198Q63.43125 176.91667 62.68125 176.91667Q61.9625 176.91667 61.525 177.52605Q60.978127 178.3073 60.978127 180.4323Z" fill-rule="nonzero"/><path fill="#000000" d="M52.9625 150.23125L52.9625 149.21562L58.525 149.21562L58.525 150.04375Q57.7125 150.91875 56.9 152.37187Q56.103127 153.80937 55.665627 155.34062Q55.3375 156.41875 55.259377 157.7L54.165627 157.7Q54.18125 156.68437 54.55625 155.24687Q54.946877 153.80937 55.65 152.48125Q56.36875 151.15312 57.18125 150.23125L52.9625 150.23125ZM59.9 155.45L61.009377 155.35625Q61.134377 156.16875 61.571877 156.575Q62.025 156.98125 62.665627 156.98125Q63.415627 156.98125 63.946877 156.40312Q64.47813 155.825 64.47813 154.8875Q64.47813 153.98125 63.9625 153.46562Q63.4625 152.93437 62.634377 152.93437Q62.134377 152.93437 61.7125 153.16875Q61.30625 153.40312 61.071877 153.7625L60.0875 153.6375L60.915627 149.23125L65.19688 149.23125L65.19688 150.23125L61.759377 150.23125L61.30625 152.54375Q62.071877 151.99687 62.915627 151.99687Q64.04063 151.99687 64.80625 152.77812Q65.5875 153.55937 65.5875 154.79375Q65.5875 155.95 64.91563 156.80937Q64.0875 157.84062 62.665627 157.84062Q61.49375 157.84062 60.74375 157.18437Q60.009377 156.52812 59.9 155.45Z" fill-rule="nonzero"/><path fill="#000000" d="M49.86875 130.73334L48.821877 130.73334L48.821877 124.01459Q48.43125 124.37396 47.80625 124.74896Q47.196877 125.10834 46.7125 125.28021L46.7125 124.26459Q47.5875 123.84271 48.24375 123.26459Q48.915627 122.67084 49.196877 122.10834L49.86875 122.10834L49.86875 130.73334ZM52.9 126.49896Q52.9 124.96771 53.2125 124.04584Q53.525 123.10834 54.134377 122.60834Q54.759377 122.10834 55.696877 122.10834Q56.384377 122.10834 56.9 122.38959Q57.43125 122.67084 57.775 123.20209Q58.11875 123.71771 58.30625 124.46771Q58.49375 125.21771 58.49375 126.49896Q58.49375 128.01459 58.18125 128.93646Q57.884377 129.85834 57.259377 130.37396Q56.65 130.87396 55.696877 130.87396Q54.4625 130.87396 53.74375 129.98334Q52.9 128.92084 52.9 126.49896ZM53.978127 126.49896Q53.978127 128.60834 54.478127 129.31146Q54.978127 130.01459 55.696877 130.01459Q56.43125 130.01459 56.915627 129.31146Q57.415627 128.60834 57.415627 126.49896Q57.415627 124.37396 56.915627 123.68646Q56.43125 122.98334 55.68125 122.98334Q54.9625 122.98334 54.525 123.59271Q53.978127 124.37396 53.978127 126.49896ZM59.9 126.49896Q59.9 124.96771 60.2125 124.04584Q60.525 123.10834 61.134377 122.60834Q61.759377 122.10834 62.696877 122.10834Q63.384377 122.10834 63.9 122.38959Q64.43125 122.67084 64.775 123.20209Q65.11875 123.71771 65.30625 124.46771Q65.49375 125.21771 65.49375 126.49896Q65.49375 128.01459 65.18125 128.93646Q64.88438 129.85834 64.25938 130.37396Q63.65 130.87396 62.696877 130.87396Q61.4625 130.87396 60.74375 129.98334Q59.9 128.92084 59.9 126.49896ZM60.978127 126.49896Q60.978127 128.60834 61.478127 129.31146Q61.978127 130.01459 62.696877 130.01459Q63.43125 130.01459 63.915627 129.31146Q64.41563 128.60834 64.41563 126.49896Q64.41563 124.37396 63.915627 123.68646Q63.43125 122.98334 62.68125 122.98334Q61.9625 122.98334 61.525 123.59271Q60.978127 124.37396 60.978127 126.49896Z" fill-rule="nonzero"/><path fill="#000000" d="M49.86875 103.76667L48.821877 103.76667L48.821877 97.04792Q48.43125 97.407295 47.80625 97.782295Q47.196877 98.14167 46.7125 98.313545L46.7125 97.29792Q47.5875 96.876045 48.24375 96.29792Q48.915627 95.70417 49.196877 95.14167L49.86875 95.14167L49.86875 103.76667ZM58.446877 102.751045L58.446877 103.76667L52.759377 103.76667Q52.759377 103.39167 52.884377 103.032295Q53.103127 102.45417 53.571877 101.89167Q54.05625 101.32917 54.9625 100.594795Q56.36875 99.438545 56.853127 98.76667Q57.353127 98.094795 57.353127 97.501045Q57.353127 96.876045 56.9 96.45417Q56.446877 96.01667 55.728127 96.01667Q54.9625 96.01667 54.509377 96.469795Q54.05625 96.92292 54.040627 97.73542L52.9625 97.626045Q53.071877 96.407295 53.790627 95.782295Q54.525 95.14167 55.759377 95.14167Q56.99375 95.14167 57.7125 95.82917Q58.43125 96.51667 58.43125 97.532295Q58.43125 98.04792 58.2125 98.54792Q58.009377 99.032295 57.509377 99.594795Q57.025 100.14167 55.9 101.094795Q54.946877 101.89167 54.665627 102.188545Q54.4 102.469795 54.228127 102.751045L58.446877 102.751045ZM59.9 101.51667L61.009377 101.42292Q61.134377 102.23542 61.571877 102.64167Q62.025 103.04792 62.665627 103.04792Q63.415627 103.04792 63.946877 102.469795Q64.47813 101.89167 64.47813 100.95417Q64.47813 100.04792 63.9625 99.532295Q63.4625 99.001045 62.634377 99.001045Q62.134377 99.001045 61.7125 99.23542Q61.30625 99.469795 61.071877 99.82917L60.0875 99.70417L60.915627 95.29792L65.19688 95.29792L65.19688 96.29792L61.759377 96.29792L61.30625 98.61042Q62.071877 98.063545 62.915627 98.063545Q64.04063 98.063545 64.80625 98.844795Q65.5875 99.626045 65.5875 100.86042Q65.5875 102.01667 64.91563 102.876045Q64.0875 103.907295 62.665627 103.907295Q61.49375 103.907295 60.74375 103.251045Q60.009377 102.594795 59.9 101.51667Z" fill-rule="nonzero"/><path fill="#000000" d="M184.5645 251.6L183.51762 251.6L183.51762 244.88126Q183.127 245.24063 182.502 245.61563Q181.89262 245.975 181.40825 246.14688L181.40825 245.13126Q182.28325 244.70938 182.9395 244.13126Q183.61137 243.5375 183.89262 242.975L184.5645 242.975L184.5645 251.6ZM193.0645 245.11563L192.01762 245.19376Q191.877 244.56876 191.627 244.2875Q191.1895 243.83438 190.5645 243.83438Q190.0645 243.83438 189.67387 244.11563Q189.1895 244.49063 188.89262 245.19376Q188.61137 245.88126 188.59575 247.1625Q188.97075 246.58438 189.51762 246.30313Q190.08012 246.02188 190.6895 246.02188Q191.73637 246.02188 192.47075 246.80313Q193.22075 247.58438 193.22075 248.80313Q193.22075 249.61563 192.86137 250.31876Q192.51762 251.00626 191.90825 251.38126Q191.29887 251.74063 190.53325 251.74063Q189.20512 251.74063 188.377 250.77188Q187.54887 249.80313 187.54887 247.58438Q187.54887 245.08438 188.47075 243.95938Q189.26762 242.975 190.627 242.975Q191.64262 242.975 192.28325 243.55313Q192.9395 244.11563 193.0645 245.11563ZM188.76762 248.81876Q188.76762 249.36563 188.98637 249.86563Q189.22075 250.35 189.627 250.61563Q190.04887 250.88126 190.51762 250.88126Q191.17387 250.88126 191.65825 250.35Q192.14262 249.80313 192.14262 248.88126Q192.14262 247.99063 191.65825 247.475Q191.1895 246.95938 190.47075 246.95938Q189.752 246.95938 189.252 247.475Q188.76762 247.99063 188.76762 248.81876ZM194.97075 251.6L194.97075 243.00626L196.11137 243.00626L196.11137 247.27188L200.377 243.00626L201.92387 243.00626L198.3145 246.49063L202.08012 251.6L200.58012 251.6L197.51762 247.25626L196.11137 248.61563L196.11137 251.6L194.97075 251.6ZM206.03325 251.6L206.03325 243.00626L209.84575 243.00626Q211.002 243.00626 211.59575 243.24063Q212.1895 243.475 212.54887 244.06876Q212.90825 244.64688 212.90825 245.35Q212.90825 246.27188 212.3145 246.89688Q211.72075 247.52188 210.48637 247.69376Q210.9395 247.9125 211.17387 248.11563Q211.67387 248.56876 212.11137 249.25626L213.61137 251.6L212.17387 251.6L211.04887 249.81876Q210.54887 249.0375 210.22075 248.63126Q209.90825 248.225 209.64262 248.06876Q209.39262 247.89688 209.127 247.81876Q208.9395 247.7875 208.502 247.7875L207.17387 247.7875L207.17387 251.6L206.03325 251.6ZM207.17387 246.80313L209.627 246.80313Q210.39262 246.80313 210.83012 246.64688Q211.28325 246.475 211.502 246.13126Q211.73637 245.77188 211.73637 245.35Q211.73637 244.74063 211.28325 244.35Q210.84575 243.95938 209.89262 243.95938L207.17387 243.95938L207.17387 246.80313ZM218.95512 250.83438Q218.36137 251.33438 217.8145 251.5375Q217.28325 251.74063 216.65825 251.74063Q215.627 251.74063 215.08012 251.24063Q214.53325 250.74063 214.53325 249.95938Q214.53325 249.50626 214.73637 249.13126Q214.9395 248.74063 215.28325 248.52188Q215.627 248.2875 216.04887 248.17813Q216.34575 248.08438 216.98637 248.00626Q218.252 247.86563 218.86137 247.64688Q218.86137 247.42813 218.86137 247.38126Q218.86137 246.725 218.5645 246.45938Q218.15825 246.11563 217.36137 246.11563Q216.627 246.11563 216.26762 246.38126Q215.90825 246.63126 215.73637 247.2875L214.70512 247.14688Q214.84575 246.49063 215.17387 246.08438Q215.502 245.67813 216.11137 245.45938Q216.72075 245.24063 217.51762 245.24063Q218.3145 245.24063 218.8145 245.42813Q219.3145 245.61563 219.54887 245.89688Q219.78325 246.17813 219.877 246.61563Q219.92387 246.88126 219.92387 247.58438L219.92387 248.99063Q219.92387 250.45938 219.98637 250.85Q220.0645 251.24063 220.26762 251.6L219.15825 251.6Q219.002 251.27188 218.95512 250.83438ZM218.86137 248.475Q218.28325 248.70938 217.14262 248.88126Q216.48637 248.975 216.22075 249.1Q215.95512 249.20938 215.79887 249.42813Q215.65825 249.64688 215.65825 249.92813Q215.65825 250.35 215.97075 250.63126Q216.29887 250.9125 216.90825 250.9125Q217.51762 250.9125 217.98637 250.64688Q218.47075 250.38126 218.6895 249.9125Q218.86137 249.55313 218.86137 248.86563L218.86137 248.475ZM221.89262 251.6L221.89262 245.38126L222.83012 245.38126L222.83012 246.25626Q223.51762 245.24063 224.8145 245.24063Q225.377 245.24063 225.84575 245.44376Q226.33012 245.64688 226.5645 245.975Q226.79887 246.30313 226.89262 246.74063Q226.9395 247.0375 226.9395 247.77188L226.9395 251.6L225.89262 251.6L225.89262 247.81876Q225.89262 247.1625 225.76762 246.85Q225.64262 246.5375 225.33012 246.35Q225.01762 246.14688 224.59575 246.14688Q223.92387 246.14688 223.42387 246.58438Q222.9395 247.00626 222.9395 248.19376L222.9395 251.6L221.89262 251.6ZM232.92387 251.6L232.92387 250.81876Q232.33012 251.74063 231.1895 251.74063Q230.4395 251.74063 229.8145 251.33438Q229.1895 250.9125 228.84575 250.17813Q228.502 249.44376 228.502 248.49063Q228.502 247.56876 228.8145 246.80313Q229.127 246.0375 229.752 245.64688Q230.377 245.24063 231.14262 245.24063Q231.70512 245.24063 232.14262 245.475Q232.58012 245.70938 232.86137 246.08438L232.86137 243.00626L233.90825 243.00626L233.90825 251.6L232.92387 251.6ZM229.59575 248.49063Q229.59575 249.69376 230.09575 250.2875Q230.59575 250.86563 231.28325 250.86563Q231.97075 250.86563 232.45512 250.30313Q232.9395 249.74063 232.9395 248.58438Q232.9395 247.30313 232.4395 246.70938Q231.95512 246.11563 231.23637 246.11563Q230.53325 246.11563 230.0645 246.69376Q229.59575 247.25626 229.59575 248.49063ZM235.877 251.6L235.877 245.38126L236.83012 245.38126L236.83012 246.31876Q237.1895 245.6625 237.48637 245.45938Q237.79887 245.24063 238.17387 245.24063Q238.70512 245.24063 239.252 245.56876L238.89262 246.55313Q238.502 246.31876 238.127 246.31876Q237.76762 246.31876 237.48637 246.5375Q237.22075 246.74063 237.11137 247.11563Q236.92387 247.67813 236.92387 248.33438L236.92387 251.6L235.877 251.6ZM244.14262 249.6L245.23637 249.725Q244.98637 250.67813 244.28325 251.20938Q243.58012 251.74063 242.502 251.74063Q241.14262 251.74063 240.33012 250.89688Q239.53325 250.05313 239.53325 248.5375Q239.53325 246.975 240.34575 246.11563Q241.15825 245.24063 242.4395 245.24063Q243.6895 245.24063 244.47075 246.08438Q245.26762 246.92813 245.26762 248.475Q245.26762 248.56876 245.26762 248.75626L240.627 248.75626Q240.6895 249.7875 241.20512 250.33438Q241.72075 250.86563 242.502 250.86563Q243.08012 250.86563 243.48637 250.56876Q243.90825 250.25626 244.14262 249.6ZM240.6895 247.89688L244.15825 247.89688Q244.09575 247.1 243.76762 246.70938Q243.252 246.1 242.45512 246.1Q241.72075 246.1 241.22075 246.58438Q240.73637 247.06876 240.6895 247.89688ZM250.95512 250.83438Q250.36137 251.33438 249.8145 251.5375Q249.28325 251.74063 248.65825 251.74063Q247.627 251.74063 247.08012 251.24063Q246.53325 250.74063 246.53325 249.95938Q246.53325 249.50626 246.73637 249.13126Q246.9395 248.74063 247.28325 248.52188Q247.627 248.2875 248.04887 248.17813Q248.34575 248.08438 248.98637 248.00626Q250.252 247.86563 250.86137 247.64688Q250.86137 247.42813 250.86137 247.38126Q250.86137 246.725 250.5645 246.45938Q250.15825 246.11563 249.36137 246.11563Q248.627 246.11563 248.26762 246.38126Q247.90825 246.63126 247.73637 247.2875L246.70512 247.14688Q246.84575 246.49063 247.17387 246.08438Q247.502 245.67813 248.11137 245.45938Q248.72075 245.24063 249.51762 245.24063Q250.3145 245.24063 250.8145 245.42813Q251.3145 245.61563 251.54887 245.89688Q251.78325 246.17813 251.877 246.61563Q251.92387 246.88126 251.92387 247.58438L251.92387 248.99063Q251.92387 250.45938 251.98637 250.85Q252.0645 251.24063 252.26762 251.6L251.15825 251.6Q251.002 251.27188 250.95512 250.83438ZM250.86137 248.475Q250.28325 248.70938 249.14262 248.88126Q248.48637 248.975 248.22075 249.1Q247.95512 249.20938 247.79887 249.42813Q247.65825 249.64688 247.65825 249.92813Q247.65825 250.35 247.97075 250.63126Q248.29887 250.9125 248.90825 250.9125Q249.51762 250.9125 249.98637 250.64688Q250.47075 250.38126 250.6895 249.9125Q250.86137 249.55313 250.86137 248.86563L250.86137 248.475ZM257.9239 251.6L257.9239 250.81876Q257.33014 251.74063 256.1895 251.74063Q255.4395 251.74063 254.8145 251.33438Q254.1895 250.9125 253.84575 250.17813Q253.502 249.44376 253.502 248.49063Q253.502 247.56876 253.8145 246.80313Q254.127 246.0375 254.752 245.64688Q255.377 245.24063 256.14264 245.24063Q256.70514 245.24063 257.14264 245.475Q257.58014 245.70938 257.8614 246.08438L257.8614 243.00626L258.90826 243.00626L258.90826 251.6L257.9239 251.6ZM254.59575 248.49063Q254.59575 249.69376 255.09575 250.2875Q255.59575 250.86563 256.28326 250.86563Q256.97076 250.86563 257.45514 250.30313Q257.9395 249.74063 257.9395 248.58438Q257.9395 247.30313 257.4395 246.70938Q256.95514 246.11563 256.2364 246.11563Q255.53325 246.11563 255.0645 246.69376Q254.59575 247.25626 254.59575 248.49063Z" fill-rule="nonzero"/><path fill="#000000" d="M402.87302 251.6L401.82614 251.6L401.82614 244.88126Q401.43552 245.24063 400.81052 245.61563Q400.20114 245.975 399.71677 246.14688L399.71677 245.13126Q400.59177 244.70938 401.24802 244.13126Q401.9199 243.5375 402.20114 242.975L402.87302 242.975L402.87302 251.6ZM411.37302 245.11563L410.32614 245.19376Q410.18552 244.56876 409.93552 244.2875Q409.49802 243.83438 408.87302 243.83438Q408.37302 243.83438 407.9824 244.11563Q407.49802 244.49063 407.20114 245.19376Q406.9199 245.88126 406.90427 247.1625Q407.27927 246.58438 407.82614 246.30313Q408.38864 246.02188 408.99802 246.02188Q410.0449 246.02188 410.77927 246.80313Q411.52927 247.58438 411.52927 248.80313Q411.52927 249.61563 411.1699 250.31876Q410.82614 251.00626 410.21677 251.38126Q409.6074 251.74063 408.84177 251.74063Q407.51364 251.74063 406.68552 250.77188Q405.8574 249.80313 405.8574 247.58438Q405.8574 245.08438 406.77927 243.95938Q407.57614 242.975 408.93552 242.975Q409.95114 242.975 410.59177 243.55313Q411.24802 244.11563 411.37302 245.11563ZM407.07614 248.81876Q407.07614 249.36563 407.2949 249.86563Q407.52927 250.35 407.93552 250.61563Q408.3574 250.88126 408.82614 250.88126Q409.4824 250.88126 409.96677 250.35Q410.45114 249.80313 410.45114 248.88126Q410.45114 247.99063 409.96677 247.475Q409.49802 246.95938 408.77927 246.95938Q408.06052 246.95938 407.56052 247.475Q407.07614 247.99063 407.07614 248.81876ZM413.27927 251.6L413.27927 243.00626L414.4199 243.00626L414.4199 247.27188L418.68552 243.00626L420.2324 243.00626L416.62302 246.49063L420.38864 251.6L418.88864 251.6L415.82614 247.25626L414.4199 248.61563L414.4199 251.6L413.27927 251.6ZM424.34177 251.6L424.34177 243.00626L428.15427 243.00626Q429.31052 243.00626 429.90427 243.24063Q430.49802 243.475 430.8574 244.06876Q431.21677 244.64688 431.21677 245.35Q431.21677 246.27188 430.62302 246.89688Q430.02927 247.52188 428.7949 247.69376Q429.24802 247.9125 429.4824 248.11563Q429.9824 248.56876 430.4199 249.25626L431.9199 251.6L430.4824 251.6L429.3574 249.81876Q428.8574 249.0375 428.52927 248.63126Q428.21677 248.225 427.95114 248.06876Q427.70114 247.89688 427.43552 247.81876Q427.24802 247.7875 426.81052 247.7875L425.4824 247.7875L425.4824 251.6L424.34177 251.6ZM425.4824 246.80313L427.93552 246.80313Q428.70114 246.80313 429.13864 246.64688Q429.59177 246.475 429.81052 246.13126Q430.0449 245.77188 430.0449 245.35Q430.0449 244.74063 429.59177 244.35Q429.15427 243.95938 428.20114 243.95938L425.4824 243.95938L425.4824 246.80313ZM437.26364 250.83438Q436.6699 251.33438 436.12302 251.5375Q435.59177 251.74063 434.96677 251.74063Q433.93552 251.74063 433.38864 251.24063Q432.84177 250.74063 432.84177 249.95938Q432.84177 249.50626 433.0449 249.13126Q433.24802 248.74063 433.59177 248.52188Q433.93552 248.2875 434.3574 248.17813Q434.65427 248.08438 435.2949 248.00626Q436.56052 247.86563 437.1699 247.64688Q437.1699 247.42813 437.1699 247.38126Q437.1699 246.725 436.87302 246.45938Q436.46677 246.11563 435.6699 246.11563Q434.93552 246.11563 434.57614 246.38126Q434.21677 246.63126 434.0449 247.2875L433.01364 247.14688Q433.15427 246.49063 433.4824 246.08438Q433.81052 245.67813 434.4199 245.45938Q435.02927 245.24063 435.82614 245.24063Q436.62302 245.24063 437.12302 245.42813Q437.62302 245.61563 437.8574 245.89688Q438.09177 246.17813 438.18552 246.61563Q438.2324 246.88126 438.2324 247.58438L438.2324 248.99063Q438.2324 250.45938 438.2949 250.85Q438.37302 251.24063 438.57614 251.6L437.46677 251.6Q437.31052 251.27188 437.26364 250.83438ZM437.1699 248.475Q436.59177 248.70938 435.45114 248.88126Q434.7949 248.975 434.52927 249.1Q434.26364 249.20938 434.1074 249.42813Q433.96677 249.64688 433.96677 249.92813Q433.96677 250.35 434.27927 250.63126Q434.6074 250.9125 435.21677 250.9125Q435.82614 250.9125 436.2949 250.64688Q436.77927 250.38126 436.99802 249.9125Q437.1699 249.55313 437.1699 248.86563L437.1699 248.475ZM440.20114 251.6L440.20114 245.38126L441.13864 245.38126L441.13864 246.25626Q441.82614 245.24063 443.12302 245.24063Q443.68552 245.24063 444.15427 245.44376Q444.63864 245.64688 444.87302 245.975Q445.1074 246.30313 445.20114 246.74063Q445.24802 247.0375 445.24802 247.77188L445.24802 251.6L444.20114 251.6L444.20114 247.81876Q444.20114 247.1625 444.07614 246.85Q443.95114 246.5375 443.63864 246.35Q443.32614 246.14688 442.90427 246.14688Q442.2324 246.14688 441.7324 246.58438Q441.24802 247.00626 441.24802 248.19376L441.24802 251.6L440.20114 251.6ZM451.2324 251.6L451.2324 250.81876Q450.63864 251.74063 449.49802 251.74063Q448.74802 251.74063 448.12302 251.33438Q447.49802 250.9125 447.15427 250.17813Q446.81052 249.44376 446.81052 248.49063Q446.81052 247.56876 447.12302 246.80313Q447.43552 246.0375 448.06052 245.64688Q448.68552 245.24063 449.45114 245.24063Q450.01364 245.24063 450.45114 245.475Q450.88864 245.70938 451.1699 246.08438L451.1699 243.00626L452.21677 243.00626L452.21677 251.6L451.2324 251.6ZM447.90427 248.49063Q447.90427 249.69376 448.40427 250.2875Q448.90427 250.86563 449.59177 250.86563Q450.27927 250.86563 450.76364 250.30313Q451.24802 249.74063 451.24802 248.58438Q451.24802 247.30313 450.74802 246.70938Q450.26364 246.11563 449.5449 246.11563Q448.84177 246.11563 448.37302 246.69376Q447.90427 247.25626 447.90427 248.49063ZM455.34177 251.6L453.43552 245.38126L454.52927 245.38126L455.51364 248.975L455.88864 250.30313Q455.9199 250.20938 456.21677 249.02188L457.20114 245.38126L458.27927 245.38126L459.21677 248.99063L459.52927 250.17813L459.88864 248.975L460.95114 245.38126L461.9824 245.38126L460.02927 251.6L458.93552 251.6L457.95114 247.86563L457.70114 246.81876L456.45114 251.6L455.34177 251.6ZM463.18552 251.6L463.18552 245.38126L464.13864 245.38126L464.13864 246.31876Q464.49802 245.6625 464.7949 245.45938Q465.1074 245.24063 465.4824 245.24063Q466.01364 245.24063 466.56052 245.56876L466.20114 246.55313Q465.81052 246.31876 465.43552 246.31876Q465.07614 246.31876 464.7949 246.5375Q464.52927 246.74063 464.4199 247.11563Q464.2324 247.67813 464.2324 248.33438L464.2324 251.6L463.18552 251.6ZM467.20114 244.225L467.20114 243.00626L468.26364 243.00626L468.26364 244.225L467.20114 244.225ZM467.20114 251.6L467.20114 245.38126L468.26364 245.38126L468.26364 251.6L467.20114 251.6ZM472.49802 250.6625L472.65427 251.58438Q472.20114 251.67813 471.8574 251.67813Q471.27927 251.67813 470.96677 251.50626Q470.65427 251.31876 470.51364 251.02188Q470.38864 250.725 470.38864 249.77188L470.38864 246.19376L469.62302 246.19376L469.62302 245.38126L470.38864 245.38126L470.38864 243.83438L471.43552 243.20938L471.43552 245.38126L472.49802 245.38126L472.49802 246.19376L471.43552 246.19376L471.43552 249.83438Q471.43552 250.2875 471.4824 250.4125Q471.5449 250.5375 471.6699 250.61563Q471.7949 250.69376 472.02927 250.69376Q472.21677 250.69376 472.49802 250.6625ZM477.45114 249.6L478.5449 249.725Q478.2949 250.67813 477.59177 251.20938Q476.88864 251.74063 475.81052 251.74063Q474.45114 251.74063 473.63864 250.89688Q472.84177 250.05313 472.84177 248.5375Q472.84177 246.975 473.65427 246.11563Q474.46677 245.24063 475.74802 245.24063Q476.99802 245.24063 477.77927 246.08438Q478.57614 246.92813 478.57614 248.475Q478.57614 248.56876 478.57614 248.75626L473.93552 248.75626Q473.99802 249.7875 474.51364 250.33438Q475.02927 250.86563 475.81052 250.86563Q476.38864 250.86563 476.7949 250.56876Q477.21677 250.25626 477.45114 249.6ZM473.99802 247.89688L477.46677 247.89688Q477.40427 247.1 477.07614 246.70938Q476.56052 246.1 475.76364 246.1Q475.02927 246.1 474.52927 246.58438Q474.0449 247.06876 473.99802 247.89688Z" fill-rule="nonzero"/><path fill="#4285f4" d="M164.0 71.833336C164.0 71.28105 164.44771 70.833336 165.0 70.833336L175.0 70.833336C175.55229 70.833336 176.0 71.28105 176.0 71.833336L176.0 81.833336C176.0 82.38562 175.55229 82.833336 175.0 82.833336L165.0 82.833336C164.44771 82.833336 164.0 82.38562 164.0 81.833336Z" fill-rule="nonzero"/><path fill="#1a1a1a" d="M184.57812 76.645836Q184.57812 74.50521 185.71875 73.302086Q186.875 72.083336 188.6875 72.083336Q189.89062 72.083336 190.84375 72.66146Q191.79688 73.22396 192.29688 74.239586Q192.79688 75.25521 192.79688 76.552086Q192.79688 77.84896 192.26562 78.88021Q191.73438 79.91146 190.76562 80.44271Q189.8125 80.97396 188.6875 80.97396Q187.46875 80.97396 186.51562 80.395836Q185.5625 79.802086 185.0625 78.802086Q184.57812 77.78646 184.57812 76.645836ZM185.75 76.66146Q185.75 78.22396 186.57812 79.114586Q187.42188 80.00521 188.6875 80.00521Q189.96875 80.00521 190.79688 79.114586Q191.625 78.208336 191.625 76.53646Q191.625 75.489586 191.26562 74.708336Q190.92188 73.927086 190.23438 73.50521Q189.54688 73.06771 188.70312 73.06771Q187.5 73.06771 186.625 73.895836Q185.75 74.72396 185.75 76.66146ZM193.76562 80.833336L193.76562 72.239586L194.82812 72.239586L194.82812 80.833336L193.76562 80.833336ZM200.82812 80.833336L200.82812 80.052086Q200.23438 80.97396 199.09375 80.97396Q198.34375 80.97396 197.71875 80.56771Q197.09375 80.145836 196.75 79.41146Q196.40625 78.677086 196.40625 77.72396Q196.40625 76.802086 196.71875 76.03646Q197.03125 75.270836 197.65625 74.88021Q198.28125 74.47396 199.04688 74.47396Q199.60938 74.47396 200.04688 74.708336Q200.48438 74.94271 200.76562 75.31771L200.76562 72.239586L201.8125 72.239586L201.8125 80.833336L200.82812 80.833336ZM197.5 77.72396Q197.5 78.927086 198.0 79.520836Q198.5 80.09896 199.1875 80.09896Q199.875 80.09896 200.35938 79.53646Q200.84375 78.97396 200.84375 77.81771Q200.84375 76.53646 200.34375 75.94271Q199.85938 75.34896 199.14062 75.34896Q198.4375 75.34896 197.96875 75.927086Q197.5 76.489586 197.5 77.72396ZM206.84375 75.28646L206.54688 73.645836L206.54688 72.239586L207.75 72.239586L207.75 73.645836L207.48438 75.28646L206.84375 75.28646ZM208.78125 75.28646L208.5 73.645836L208.5 72.239586L209.70312 72.239586L209.70312 73.645836L209.42188 75.28646L208.78125 75.28646ZM214.82812 80.833336L214.82812 80.052086Q214.23438 80.97396 213.09375 80.97396Q212.34375 80.97396 211.71875 80.56771Q211.09375 80.145836 210.75 79.41146Q210.40625 78.677086 210.40625 77.72396Q210.40625 76.802086 210.71875 76.03646Q211.03125 75.270836 211.65625 74.88021Q212.28125 74.47396 213.04688 74.47396Q213.60938 74.47396 214.04688 74.708336Q214.48438 74.94271 214.76562 75.31771L214.76562 72.239586L215.8125 72.239586L215.8125 80.833336L214.82812 80.833336ZM211.5 77.72396Q211.5 78.927086 212.0 79.520836Q212.5 80.09896 213.1875 80.09896Q213.875 80.09896 214.35938 79.53646Q214.84375 78.97396 214.84375 77.81771Q214.84375 76.53646 214.34375 75.94271Q213.85938 75.34896 213.14062 75.34896Q212.4375 75.34896 211.96875 75.927086Q211.5 76.489586 211.5 77.72396ZM217.78125 80.833336L217.78125 74.614586L218.73438 74.614586L218.73438 75.552086Q219.09375 74.895836 219.39062 74.69271Q219.70312 74.47396 220.07812 74.47396Q220.60938 74.47396 221.15625 74.802086L220.79688 75.78646Q220.40625 75.552086 220.03125 75.552086Q219.67188 75.552086 219.39062 75.770836Q219.125 75.97396 219.01562 76.34896Q218.82812 76.91146 218.82812 77.56771L218.82812 80.833336L217.78125 80.833336ZM221.79688 73.458336L221.79688 72.239586L222.85938 72.239586L222.85938 73.458336L221.79688 73.458336ZM221.79688 80.833336L221.79688 74.614586L222.85938 74.614586L222.85938 80.833336L221.79688 80.833336ZM226.51562 80.833336L224.15625 74.614586L225.26562 74.614586L226.60938 78.333336Q226.8125 78.94271 227.0 79.583336Q227.14062 79.09896 227.39062 78.41146L228.78125 74.614586L229.85938 74.614586L227.5 80.833336L226.51562 80.833336ZM234.04688 78.833336L235.14062 78.958336Q234.89062 79.91146 234.1875 80.44271Q233.48438 80.97396 232.40625 80.97396Q231.04688 80.97396 230.23438 80.13021Q229.4375 79.28646 229.4375 77.770836Q229.4375 76.208336 230.25 75.34896Q231.0625 74.47396 232.34375 74.47396Q233.59375 74.47396 234.375 75.31771Q235.17188 76.16146 235.17188 77.708336Q235.17188 77.802086 235.17188 77.989586L230.53125 77.989586Q230.59375 79.020836 231.10938 79.56771Q231.625 80.09896 232.40625 80.09896Q232.98438 80.09896 233.39062 79.802086Q233.8125 79.489586 234.04688 78.833336ZM230.59375 77.13021L234.0625 77.13021Q234.0 76.333336 233.67188 75.94271Q233.15625 75.333336 232.35938 75.333336Q231.625 75.333336 231.125 75.81771Q230.64062 76.302086 230.59375 77.13021ZM236.84375 75.28646L236.54688 73.645836L236.54688 72.239586L237.75 72.239586L237.75 73.645836L237.48438 75.28646L236.84375 75.28646ZM238.78125 75.28646L238.5 73.645836L238.5 72.239586L239.70312 72.239586L239.70312 73.645836L239.42188 75.28646L238.78125 75.28646ZM243.54688 78.06771L244.60938 77.97396Q244.6875 78.63021 244.96875 79.03646Q245.25 79.44271 245.82812 79.708336Q246.42188 79.958336 247.15625 79.958336Q247.79688 79.958336 248.29688 79.770836Q248.79688 79.56771 249.03125 79.239586Q249.28125 78.895836 249.28125 78.50521Q249.28125 78.09896 249.04688 77.802086Q248.8125 77.489586 248.28125 77.28646Q247.92188 77.145836 246.73438 76.864586Q245.5625 76.583336 245.09375 76.333336Q244.46875 76.00521 244.17188 75.53646Q243.875 75.052086 243.875 74.458336Q243.875 73.81771 244.23438 73.25521Q244.60938 72.677086 245.3125 72.395836Q246.03125 72.09896 246.89062 72.09896Q247.84375 72.09896 248.57812 72.41146Q249.3125 72.708336 249.70312 73.31771Q250.09375 73.91146 250.125 74.66146L249.03125 74.739586Q248.9375 73.927086 248.42188 73.520836Q247.92188 73.09896 246.9375 73.09896Q245.90625 73.09896 245.4375 73.47396Q244.96875 73.84896 244.96875 74.38021Q244.96875 74.84896 245.29688 75.145836Q245.625 75.44271 247.0 75.75521Q248.39062 76.06771 248.90625 76.302086Q249.65625 76.66146 250.01562 77.19271Q250.375 77.708336 250.375 78.41146Q250.375 79.09896 249.98438 79.708336Q249.59375 80.302086 248.85938 80.645836Q248.125 80.97396 247.20312 80.97396Q246.03125 80.97396 245.23438 80.645836Q244.45312 80.302086 244.0 79.614586Q243.5625 78.927086 243.54688 78.06771ZM251.75 83.22396L251.625 82.239586Q251.96875 82.333336 252.23438 82.333336Q252.57812 82.333336 252.78125 82.208336Q253.0 82.09896 253.14062 81.895836Q253.23438 81.72396 253.46875 81.09896Q253.48438 81.020836 253.5625 80.84896L251.1875 74.614586L252.32812 74.614586L253.625 78.208336Q253.875 78.895836 254.07812 79.66146Q254.26562 78.927086 254.51562 78.239586L255.84375 74.614586L256.89062 74.614586L254.53125 80.94271Q254.14062 81.958336 253.9375 82.34896Q253.65625 82.88021 253.28125 83.114586Q252.92188 83.364586 252.42188 83.364586Q252.125 83.364586 251.75 83.22396ZM256.79688 80.833336L256.79688 74.614586L257.73438 74.614586L257.73438 75.489586Q258.42188 74.47396 259.71875 74.47396Q260.28125 74.47396 260.75 74.677086Q261.23438 74.88021 261.46875 75.208336Q261.70312 75.53646 261.79688 75.97396Q261.84375 76.270836 261.84375 77.00521L261.84375 80.833336L260.79688 80.833336L260.79688 77.052086Q260.79688 76.395836 260.67188 76.083336Q260.54688 75.770836 260.23438 75.583336Q259.92188 75.38021 259.5 75.38021Q258.82812 75.38021 258.32812 75.81771Q257.84375 76.239586 257.84375 77.427086L257.84375 80.833336L256.79688 80.833336ZM266.09375 79.895836L266.25 80.81771Q265.79688 80.91146 265.45312 80.91146Q264.875 80.91146 264.5625 80.739586Q264.25 80.552086 264.10938 80.25521Q263.98438 79.958336 263.98438 79.00521L263.98438 75.427086L263.21875 75.427086L263.21875 74.614586L263.98438 74.614586L263.98438 73.06771L265.03125 72.44271L265.03125 74.614586L266.09375 74.614586L266.09375 75.427086L265.03125 75.427086L265.03125 79.06771Q265.03125 79.520836 265.07812 79.645836Q265.14062 79.770836 265.26562 79.84896Q265.39062 79.927086 265.625 79.927086Q265.8125 79.927086 266.09375 79.895836ZM270.85938 80.06771Q270.26562 80.56771 269.71875 80.770836Q269.1875 80.97396 268.5625 80.97396Q267.53125 80.97396 266.98438 80.47396Q266.4375 79.97396 266.4375 79.19271Q266.4375 78.739586 266.64062 78.364586Q266.84375 77.97396 267.1875 77.75521Q267.53125 77.520836 267.95312 77.41146Q268.25 77.31771 268.89062 77.239586Q270.15625 77.09896 270.76562 76.88021Q270.76562 76.66146 270.76562 76.614586Q270.76562 75.958336 270.46875 75.69271Q270.0625 75.34896 269.26562 75.34896Q268.53125 75.34896 268.17188 75.614586Q267.8125 75.864586 267.64062 76.520836L266.60938 76.38021Q266.75 75.72396 267.07812 75.31771Q267.40625 74.91146 268.01562 74.69271Q268.625 74.47396 269.42188 74.47396Q270.21875 74.47396 270.71875 74.66146Q271.21875 74.84896 271.45312 75.13021Q271.6875 75.41146 271.78125 75.84896Q271.82812 76.114586 271.82812 76.81771L271.82812 78.22396Q271.82812 79.69271 271.89062 80.083336Q271.96875 80.47396 272.17188 80.833336L271.0625 80.833336Q270.90625 80.50521 270.85938 80.06771ZM270.76562 77.708336Q270.1875 77.94271 269.04688 78.114586Q268.39062 78.208336 268.125 78.333336Q267.85938 78.44271 267.70312 78.66146Q267.5625 78.88021 267.5625 79.16146Q267.5625 79.583336 267.875 79.864586Q268.20312 80.145836 268.8125 80.145836Q269.42188 80.145836 269.89062 79.88021Q270.375 79.614586 270.59375 79.145836Q270.76562 78.78646 270.76562 78.09896L270.76562 77.708336ZM273.09375 80.833336L275.35938 77.59896L273.26562 74.614586L274.57812 74.614586L275.53125 76.06771Q275.79688 76.489586 275.96875 76.770836Q276.21875 76.38021 276.4375 76.083336L277.48438 74.614586L278.75 74.614586L276.59375 77.53646L278.90625 80.833336L277.625 80.833336L276.34375 78.895836L276.0 78.38021L274.35938 80.833336L273.09375 80.833336Z" fill-rule="nonzero"/><path fill="#ea4335" d="M294.0 71.833336C294.0 71.28105 294.44772 70.833336 295.0 70.833336L305.0 70.833336C305.55228 70.833336 306.0 71.28105 306.0 71.833336L306.0 81.833336C306.0 82.38562 305.55228 82.833336 305.0 82.833336L295.0 82.833336C294.44772 82.833336 294.0 82.38562 294.0 81.833336Z" fill-rule="nonzero"/><path fill="#1a1a1a" d="M314.92188 80.833336L314.92188 72.239586L316.07812 72.239586L320.59375 78.989586L320.59375 72.239586L321.6875 72.239586L321.6875 80.833336L320.51562 80.833336L316.0 74.083336L316.0 80.833336L314.92188 80.833336ZM328.04688 78.833336L329.14062 78.958336Q328.89062 79.91146 328.1875 80.44271Q327.48438 80.97396 326.40625 80.97396Q325.04688 80.97396 324.23438 80.13021Q323.4375 79.28646 323.4375 77.770836Q323.4375 76.208336 324.25 75.34896Q325.0625 74.47396 326.34375 74.47396Q327.59375 74.47396 328.375 75.31771Q329.17188 76.16146 329.17188 77.708336Q329.17188 77.802086 329.17188 77.989586L324.53125 77.989586Q324.59375 79.020836 325.10938 79.56771Q325.625 80.09896 326.40625 80.09896Q326.98438 80.09896 327.39062 79.802086Q327.8125 79.489586 328.04688 78.833336ZM324.59375 77.13021L328.0625 77.13021Q328.0 76.333336 327.67188 75.94271Q327.15625 75.333336 326.35938 75.333336Q325.625 75.333336 325.125 75.81771Q324.64062 76.302086 324.59375 77.13021ZM331.9375 80.833336L330.03125 74.614586L331.125 74.614586L332.10938 78.208336L332.48438 79.53646Q332.51562 79.44271 332.8125 78.25521L333.79688 74.614586L334.875 74.614586L335.8125 78.22396L336.125 79.41146L336.48438 78.208336L337.54688 74.614586L338.57812 74.614586L336.625 80.833336L335.53125 80.833336L334.54688 77.09896L334.29688 76.052086L333.04688 80.833336L331.9375 80.833336ZM342.84375 75.28646L342.54688 73.645836L342.54688 72.239586L343.75 72.239586L343.75 73.645836L343.48438 75.28646L342.84375 75.28646ZM344.78125 75.28646L344.5 73.645836L344.5 72.239586L345.70312 72.239586L345.70312 73.645836L345.42188 75.28646L344.78125 75.28646ZM347.76562 80.833336L346.78125 80.833336L346.78125 72.239586L347.84375 72.239586L347.84375 75.302086Q348.51562 74.47396 349.54688 74.47396Q350.125 74.47396 350.625 74.708336Q351.14062 74.927086 351.46875 75.34896Q351.8125 75.770836 352.0 76.364586Q352.1875 76.958336 352.1875 77.63021Q352.1875 79.22396 351.39062 80.09896Q350.59375 80.97396 349.5 80.97396Q348.39062 80.97396 347.76562 80.052086L347.76562 80.833336ZM347.75 77.677086Q347.75 78.78646 348.0625 79.28646Q348.5625 80.09896 349.40625 80.09896Q350.09375 80.09896 350.59375 79.50521Q351.10938 78.91146 351.10938 77.708336Q351.10938 76.489586 350.625 75.91146Q350.14062 75.333336 349.45312 75.333336Q348.76562 75.333336 348.25 75.94271Q347.75 76.53646 347.75 77.677086ZM353.76562 80.833336L353.76562 72.239586L354.82812 72.239586L354.82812 80.833336L353.76562 80.833336ZM356.40625 77.72396Q356.40625 75.989586 357.35938 75.16146Q358.15625 74.47396 359.3125 74.47396Q360.59375 74.47396 361.40625 75.31771Q362.23438 76.145836 362.23438 77.63021Q362.23438 78.833336 361.875 79.520836Q361.51562 80.208336 360.8125 80.59896Q360.125 80.97396 359.3125 80.97396Q358.01562 80.97396 357.20312 80.145836Q356.40625 79.302086 356.40625 77.72396ZM357.48438 77.72396Q357.48438 78.91146 358.0 79.50521Q358.53125 80.09896 359.3125 80.09896Q360.10938 80.09896 360.625 79.50521Q361.14062 78.91146 361.14062 77.69271Q361.14062 76.53646 360.60938 75.94271Q360.09375 75.34896 359.3125 75.34896Q358.53125 75.34896 358.0 75.94271Q357.48438 76.520836 357.48438 77.72396ZM367.85938 78.552086L368.89062 78.69271Q368.71875 79.75521 368.01562 80.364586Q367.3125 80.97396 366.29688 80.97396Q365.01562 80.97396 364.23438 80.145836Q363.46875 79.302086 363.46875 77.739586Q363.46875 76.739586 363.79688 75.989586Q364.14062 75.22396 364.8125 74.84896Q365.5 74.47396 366.3125 74.47396Q367.3125 74.47396 367.95312 74.989586Q368.60938 75.489586 368.79688 76.44271L367.76562 76.59896Q367.625 75.97396 367.25 75.66146Q366.875 75.333336 366.34375 75.333336Q365.54688 75.333336 365.04688 75.91146Q364.54688 76.47396 364.54688 77.708336Q364.54688 78.97396 365.03125 79.53646Q365.51562 80.09896 366.28125 80.09896Q366.90625 80.09896 367.3125 79.72396Q367.73438 79.34896 367.85938 78.552086ZM369.79688 80.833336L369.79688 72.239586L370.85938 72.239586L370.85938 77.145836L373.34375 74.614586L374.71875 74.614586L372.32812 76.91146L374.95312 80.833336L373.65625 80.833336L371.59375 77.645836L370.85938 78.364586L370.85938 80.833336L369.79688 80.833336ZM379.82812 80.833336L379.82812 80.052086Q379.23438 80.97396 378.09375 80.97396Q377.34375 80.97396 376.71875 80.56771Q376.09375 80.145836 375.75 79.41146Q375.40625 78.677086 375.40625 77.72396Q375.40625 76.802086 375.71875 76.03646Q376.03125 75.270836 376.65625 74.88021Q377.28125 74.47396 378.04688 74.47396Q378.60938 74.47396 379.04688 74.708336Q379.48438 74.94271 379.76562 75.31771L379.76562 72.239586L380.8125 72.239586L380.8125 80.833336L379.82812 80.833336ZM376.5 77.72396Q376.5 78.927086 377.0 79.520836Q377.5 80.09896 378.1875 80.09896Q378.875 80.09896 379.35938 79.53646Q379.84375 78.97396 379.84375 77.81771Q379.84375 76.53646 379.34375 75.94271Q378.85938 75.34896 378.14062 75.34896Q377.4375 75.34896 376.96875 75.927086Q376.5 76.489586 376.5 77.72396ZM387.04688 78.833336L388.14062 78.958336Q387.89062 79.91146 387.1875 80.44271Q386.48438 80.97396 385.40625 80.97396Q384.04688 80.97396 383.23438 80.13021Q382.4375 79.28646 382.4375 77.770836Q382.4375 76.208336 383.25 75.34896Q384.0625 74.47396 385.34375 74.47396Q386.59375 74.47396 387.375 75.31771Q388.17188 76.16146 388.17188 77.708336Q388.17188 77.802086 388.17188 77.989586L383.53125 77.989586Q383.59375 79.020836 384.10938 79.56771Q384.625 80.09896 385.40625 80.09896Q385.98438 80.09896 386.39062 79.802086Q386.8125 79.489586 387.04688 78.833336ZM383.59375 77.13021L387.0625 77.13021Q387.0 76.333336 386.67188 75.94271Q386.15625 75.333336 385.35938 75.333336Q384.625 75.333336 384.125 75.81771Q383.64062 76.302086 383.59375 77.13021ZM391.51562 80.833336L389.15625 74.614586L390.26562 74.614586L391.60938 78.333336Q391.8125 78.94271 392.0 79.583336Q392.14062 79.09896 392.39062 78.41146L393.78125 74.614586L394.85938 74.614586L392.5 80.833336L391.51562 80.833336ZM394.84375 75.28646L394.54688 73.645836L394.54688 72.239586L395.75 72.239586L395.75 73.645836L395.48438 75.28646L394.84375 75.28646ZM396.78125 75.28646L396.5 73.645836L396.5 72.239586L397.70312 72.239586L397.70312 73.645836L397.42188 75.28646L396.78125 75.28646ZM401.54688 78.06771L402.60938 77.97396Q402.6875 78.63021 402.96875 79.03646Q403.25 79.44271 403.82812 79.708336Q404.42188 79.958336 405.15625 79.958336Q405.79688 79.958336 406.29688 79.770836Q406.79688 79.56771 407.03125 79.239586Q407.28125 78.895836 407.28125 78.50521Q407.28125 78.09896 407.04688 77.802086Q406.8125 77.489586 406.28125 77.28646Q405.92188 77.145836 404.73438 76.864586Q403.5625 76.583336 403.09375 76.333336Q402.46875 76.00521 402.17188 75.53646Q401.875 75.052086 401.875 74.458336Q401.875 73.81771 402.23438 73.25521Q402.60938 72.677086 403.3125 72.395836Q404.03125 72.09896 404.89062 72.09896Q405.84375 72.09896 406.57812 72.41146Q407.3125 72.708336 407.70312 73.31771Q408.09375 73.91146 408.125 74.66146L407.03125 74.739586Q406.9375 73.927086 406.42188 73.520836Q405.92188 73.09896 404.9375 73.09896Q403.90625 73.09896 403.4375 73.47396Q402.96875 73.84896 402.96875 74.38021Q402.96875 74.84896 403.29688 75.145836Q403.625 75.44271 405.0 75.75521Q406.39062 76.06771 406.90625 76.302086Q407.65625 76.66146 408.01562 77.19271Q408.375 77.708336 408.375 78.41146Q408.375 79.09896 407.98438 79.708336Q407.59375 80.302086 406.85938 80.645836Q406.125 80.97396 405.20312 80.97396Q404.03125 80.97396 403.23438 80.645836Q402.45312 80.302086 402.0 79.614586Q401.5625 78.927086 401.54688 78.06771ZM409.75 83.22396L409.625 82.239586Q409.96875 82.333336 410.23438 82.333336Q410.57812 82.333336 410.78125 82.208336Q411.0 82.09896 411.14062 81.895836Q411.23438 81.72396 411.46875 81.09896Q411.48438 81.020836 411.5625 80.84896L409.1875 74.614586L410.32812 74.614586L411.625 78.208336Q411.875 78.895836 412.07812 79.66146Q412.26562 78.927086 412.51562 78.239586L413.84375 74.614586L414.89062 74.614586L412.53125 80.94271Q412.14062 81.958336 411.9375 82.34896Q411.65625 82.88021 411.28125 83.114586Q410.92188 83.364586 410.42188 83.364586Q410.125 83.364586 409.75 83.22396ZM414.79688 80.833336L414.79688 74.614586L415.73438 74.614586L415.73438 75.489586Q416.42188 74.47396 417.71875 74.47396Q418.28125 74.47396 418.75 74.677086Q419.23438 74.88021 419.46875 75.208336Q419.70312 75.53646 419.79688 75.97396Q419.84375 76.270836 419.84375 77.00521L419.84375 80.833336L418.79688 80.833336L418.79688 77.052086Q418.79688 76.395836 418.67188 76.083336Q418.54688 75.770836 418.23438 75.583336Q417.92188 75.38021 417.5 75.38021Q416.82812 75.38021 416.32812 75.81771Q415.84375 76.239586 415.84375 77.427086L415.84375 80.833336L414.79688 80.833336ZM424.09375 79.895836L424.25 80.81771Q423.79688 80.91146 423.45312 80.91146Q422.875 80.91146 422.5625 80.739586Q422.25 80.552086 422.10938 80.25521Q421.98438 79.958336 421.98438 79.00521L421.98438 75.427086L421.21875 75.427086L421.21875 74.614586L421.98438 74.614586L421.98438 73.06771L423.03125 72.44271L423.03125 74.614586L424.09375 74.614586L424.09375 75.427086L423.03125 75.427086L423.03125 79.06771Q423.03125 79.520836 423.07812 79.645836Q423.14062 79.770836 423.26562 79.84896Q423.39062 79.927086 423.625 79.927086Q423.8125 79.927086 424.09375 79.895836ZM428.85938 80.06771Q428.26562 80.56771 427.71875 80.770836Q427.1875 80.97396 426.5625 80.97396Q425.53125 80.97396 424.98438 80.47396Q424.4375 79.97396 424.4375 79.19271Q424.4375 78.739586 424.64062 78.364586Q424.84375 77.97396 425.1875 77.75521Q425.53125 77.520836 425.95312 77.41146Q426.25 77.31771 426.89062 77.239586Q428.15625 77.09896 428.76562 76.88021Q428.76562 76.66146 428.76562 76.614586Q428.76562 75.958336 428.46875 75.69271Q428.0625 75.34896 427.26562 75.34896Q426.53125 75.34896 426.17188 75.614586Q425.8125 75.864586 425.64062 76.520836L424.60938 76.38021Q424.75 75.72396 425.07812 75.31771Q425.40625 74.91146 426.01562 74.69271Q426.625 74.47396 427.42188 74.47396Q428.21875 74.47396 428.71875 74.66146Q429.21875 74.84896 429.45312 75.13021Q429.6875 75.41146 429.78125 75.84896Q429.82812 76.114586 429.82812 76.81771L429.82812 78.22396Q429.82812 79.69271 429.89062 80.083336Q429.96875 80.47396 430.17188 80.833336L429.0625 80.833336Q428.90625 80.50521 428.85938 80.06771ZM428.76562 77.708336Q428.1875 77.94271 427.04688 78.114586Q426.39062 78.208336 426.125 78.333336Q425.85938 78.44271 425.70312 78.66146Q425.5625 78.88021 425.5625 79.16146Q425.5625 79.583336 425.875 79.864586Q426.20312 80.145836 426.8125 80.145836Q427.42188 80.145836 427.89062 79.88021Q428.375 79.614586 428.59375 79.145836Q428.76562 78.78646 428.76562 78.09896L428.76562 77.708336ZM431.09375 80.833336L433.35938 77.59896L431.26562 74.614586L432.57812 74.614586L433.53125 76.06771Q433.79688 76.489586 433.96875 76.770836Q434.21875 76.38021 434.4375 76.083336L435.48438 74.614586L436.75 74.614586L434.59375 77.53646L436.90625 80.833336L435.625 80.833336L434.34375 78.895836L434.0 78.38021L432.35938 80.833336L431.09375 80.833336Z" fill-rule="nonzero"/><path fill="#999999" d="M21.634375 54.384377L22.9625 54.728127Q22.540625 56.353127 21.446875 57.2125Q20.36875 58.071877 18.80625 58.071877Q17.18125 58.071877 16.165625 57.415627Q15.15 56.74375 14.61875 55.49375Q14.103125 54.24375 14.103125 52.80625Q14.103125 51.24375 14.696875 50.0875Q15.290625 48.915627 16.4 48.321877Q17.509375 47.7125 18.821875 47.7125Q20.3375 47.7125 21.353125 48.478127Q22.384375 49.24375 22.790625 50.61875L21.478125 50.93125Q21.134375 49.8375 20.4625 49.3375Q19.80625 48.8375 18.80625 48.8375Q17.65 48.8375 16.86875 49.4Q16.0875 49.946877 15.775 50.884377Q15.4625 51.821877 15.4625 52.80625Q15.4625 54.0875 15.8375 55.040627Q16.2125 55.99375 16.99375 56.4625Q17.775 56.93125 18.696875 56.93125Q19.80625 56.93125 20.571875 56.290627Q21.353125 55.65 21.634375 54.384377ZM23.86875 54.275Q23.86875 52.259377 24.99375 51.275Q25.915625 50.478127 27.275 50.478127Q28.759375 50.478127 29.7125 51.4625Q30.665625 52.43125 30.665625 54.165627Q30.665625 55.571877 30.24375 56.384377Q29.821875 57.18125 29.009375 57.634377Q28.2125 58.071877 27.275 58.071877Q25.74375 58.071877 24.80625 57.0875Q23.86875 56.103127 23.86875 54.275ZM25.134375 54.275Q25.134375 55.665627 25.74375 56.36875Q26.353125 57.05625 27.275 57.05625Q28.18125 57.05625 28.790625 56.353127Q29.4 55.65 29.4 54.228127Q29.4 52.884377 28.790625 52.196877Q28.18125 51.49375 27.275 51.49375Q26.353125 51.49375 25.74375 52.18125Q25.134375 52.86875 25.134375 54.275ZM32.321877 57.9L32.321877 50.634377L33.43125 50.634377L33.43125 51.665627Q33.759377 51.11875 34.321877 50.80625Q34.9 50.478127 35.61875 50.478127Q36.43125 50.478127 36.946877 50.821877Q37.4625 51.15 37.68125 51.74375Q38.540627 50.478127 39.915627 50.478127Q40.99375 50.478127 41.571877 51.071877Q42.165627 51.665627 42.165627 52.915627L42.165627 57.9L40.93125 57.9L40.93125 53.321877Q40.93125 52.5875 40.80625 52.259377Q40.696877 51.93125 40.384377 51.74375Q40.071877 51.540627 39.65 51.540627Q38.884377 51.540627 38.36875 52.05625Q37.86875 52.55625 37.86875 53.68125L37.86875 57.9L36.634377 57.9L36.634377 53.18125Q36.634377 52.36875 36.3375 51.9625Q36.040627 51.540627 35.353127 51.540627Q34.8375 51.540627 34.384377 51.821877Q33.946877 52.0875 33.74375 52.61875Q33.55625 53.134377 33.55625 54.134377L33.55625 57.9L32.321877 57.9ZM43.321877 60.68125L43.321877 50.634377L44.446877 50.634377L44.446877 51.5875Q44.8375 51.025 45.3375 50.759377Q45.8375 50.478127 46.55625 50.478127Q47.478127 50.478127 48.18125 50.9625Q48.9 51.43125 49.259377 52.30625Q49.61875 53.18125 49.61875 54.2125Q49.61875 55.321877 49.2125 56.228127Q48.821877 57.11875 48.05625 57.603127Q47.30625 58.071877 46.4625 58.071877Q45.853127 58.071877 45.353127 57.80625Q44.86875 57.540627 44.55625 57.15L44.55625 60.68125L43.321877 60.68125ZM44.43125 54.30625Q44.43125 55.7125 44.99375 56.384377Q45.571877 57.05625 46.384377 57.05625Q47.196877 57.05625 47.775 56.36875Q48.36875 55.665627 48.36875 54.2125Q48.36875 52.821877 47.790627 52.134377Q47.228127 51.446877 46.43125 51.446877Q45.65 51.446877 45.040627 52.18125Q44.43125 52.915627 44.43125 54.30625ZM56.05625 57.009377Q55.384377 57.5875 54.74375 57.8375Q54.11875 58.071877 53.384377 58.071877Q52.196877 58.071877 51.540627 57.49375Q50.9 56.9 50.9 55.978127Q50.9 55.446877 51.134377 55.009377Q51.384377 54.571877 51.775 54.30625Q52.18125 54.040627 52.665627 53.9Q53.025 53.80625 53.759377 53.7125Q55.259377 53.540627 55.9625 53.290627Q55.9625 53.040627 55.9625 52.978127Q55.9625 52.2125 55.61875 51.915627Q55.15 51.49375 54.2125 51.49375Q53.353127 51.49375 52.93125 51.80625Q52.525 52.103127 52.321877 52.86875L51.11875 52.7125Q51.275 51.93125 51.65 51.4625Q52.040627 50.99375 52.74375 50.74375Q53.4625 50.478127 54.4 50.478127Q55.321877 50.478127 55.9 50.696877Q56.478127 50.915627 56.74375 51.24375Q57.025 51.571877 57.134377 52.0875Q57.196877 52.4 57.196877 53.2125L57.196877 54.853127Q57.196877 56.571877 57.275 57.025Q57.353127 57.478127 57.5875 57.9L56.30625 57.9Q56.11875 57.509377 56.05625 57.009377ZM55.9625 54.259377Q55.290627 54.525 53.946877 54.728127Q53.196877 54.8375 52.86875 54.978127Q52.55625 55.103127 52.384377 55.36875Q52.2125 55.634377 52.2125 55.946877Q52.2125 56.446877 52.5875 56.775Q52.9625 57.103127 53.68125 57.103127Q54.4 57.103127 54.946877 56.790627Q55.49375 56.478127 55.759377 55.93125Q55.9625 55.525 55.9625 54.7125L55.9625 54.259377ZM59.30625 57.9L59.30625 50.634377L60.415627 50.634377L60.415627 51.74375Q60.8375 50.9625 61.196877 50.728127Q61.55625 50.478127 61.99375 50.478127Q62.61875 50.478127 63.259377 50.86875L62.8375 52.009377Q62.384377 51.74375 61.93125 51.74375Q61.525 51.74375 61.196877 51.99375Q60.884377 52.228127 60.74375 52.665627Q60.540627 53.321877 60.540627 54.103127L60.540627 57.9L59.30625 57.9ZM64.3375 49.290627L64.3375 47.884377L65.55625 47.884377L65.55625 49.290627L64.3375 49.290627ZM64.3375 57.9L64.3375 50.634377L65.55625 50.634377L65.55625 57.9L64.3375 57.9ZM66.8375 55.728127L68.04063 55.540627Q68.15 56.275 68.61875 56.665627Q69.0875 57.05625 69.93125 57.05625Q70.775 57.05625 71.18125 56.7125Q71.60313 56.36875 71.60313 55.9Q71.60313 55.478127 71.22813 55.24375Q70.97813 55.071877 69.97813 54.821877Q68.61875 54.478127 68.0875 54.228127Q67.57188 53.978127 67.30625 53.540627Q67.04063 53.103127 67.04063 52.571877Q67.04063 52.0875 67.25938 51.68125Q67.47813 51.259377 67.86875 50.978127Q68.15 50.775 68.63438 50.634377Q69.13438 50.478127 69.7125 50.478127Q70.55625 50.478127 71.19688 50.728127Q71.85313 50.9625 72.16563 51.384377Q72.47813 51.80625 72.5875 52.509377L71.38438 52.68125Q71.30625 52.11875 70.9 51.80625Q70.50938 51.49375 69.79063 51.49375Q68.94688 51.49375 68.5875 51.775Q68.22813 52.040627 68.22813 52.43125Q68.22813 52.665627 68.36875 52.853127Q68.525 53.05625 68.85313 53.18125Q69.025 53.24375 69.93125 53.49375Q71.24375 53.853127 71.75938 54.071877Q72.275 54.290627 72.55625 54.7125Q72.85313 55.134377 72.85313 55.759377Q72.85313 56.384377 72.49375 56.93125Q72.15 57.4625 71.4625 57.775Q70.79063 58.071877 69.93125 58.071877Q68.525 58.071877 67.775 57.478127Q67.04063 56.884377 66.8375 55.728127ZM73.86875 54.275Q73.86875 52.259377 74.99375 51.275Q75.91563 50.478127 77.275 50.478127Q78.75938 50.478127 79.7125 51.4625Q80.66563 52.43125 80.66563 54.165627Q80.66563 55.571877 80.24375 56.384377Q79.82188 57.18125 79.00938 57.634377Q78.2125 58.071877 77.275 58.071877Q75.74375 58.071877 74.80625 57.0875Q73.86875 56.103127 73.86875 54.275ZM75.13438 54.275Q75.13438 55.665627 75.74375 56.36875Q76.35313 57.05625 77.275 57.05625Q78.18125 57.05625 78.79063 56.353127Q79.4 55.65 79.4 54.228127Q79.4 52.884377 78.79063 52.196877Q78.18125 51.49375 77.275 51.49375Q76.35313 51.49375 75.74375 52.18125Q75.13438 52.86875 75.13438 54.275ZM82.32188 57.9L82.32188 50.634377L83.43125 50.634377L83.43125 51.665627Q84.22813 50.478127 85.74375 50.478127Q86.4 50.478127 86.94688 50.7125Q87.49375 50.946877 87.75938 51.3375Q88.04063 51.7125 88.15 52.24375Q88.22813 52.5875 88.22813 53.43125L88.22813 57.9L86.99375 57.9L86.99375 53.478127Q86.99375 52.728127 86.85313 52.36875Q86.7125 51.99375 86.3375 51.775Q85.97813 51.540627 85.47813 51.540627Q84.69688 51.540627 84.11875 52.040627Q83.55625 52.540627 83.55625 53.93125L83.55625 57.9L82.32188 57.9ZM93.86875 54.275Q93.86875 52.259377 94.99375 51.275Q95.91563 50.478127 97.275 50.478127Q98.75938 50.478127 99.7125 51.4625Q100.66563 52.43125 100.66563 54.165627Q100.66563 55.571877 100.24375 56.384377Q99.82188 57.18125 99.00938 57.634377Q98.2125 58.071877 97.275 58.071877Q95.74375 58.071877 94.80625 57.0875Q93.86875 56.103127 93.86875 54.275ZM95.13438 54.275Q95.13438 55.665627 95.74375 56.36875Q96.35313 57.05625 97.275 57.05625Q98.18125 57.05625 98.79063 56.353127Q99.4 55.65 99.4 54.228127Q99.4 52.884377 98.79063 52.196877Q98.18125 51.49375 97.275 51.49375Q96.35313 51.49375 95.74375 52.18125Q95.13438 52.86875 95.13438 54.275ZM102.61875 57.9L102.61875 51.603127L101.525 51.603127L101.525 50.634377L102.61875 50.634377L102.61875 49.86875Q102.61875 49.134377 102.74375 48.775Q102.93125 48.30625 103.36875 48.009377Q103.82188 47.7125 104.63438 47.7125Q105.15 47.7125 105.775 47.8375L105.5875 48.9Q105.2125 48.8375 104.86875 48.8375Q104.30625 48.8375 104.07188 49.071877Q103.8375 49.30625 103.8375 49.9625L103.8375 50.634377L105.25938 50.634377L105.25938 51.603127L103.8375 51.603127L103.8375 57.9L102.61875 57.9ZM110.38438 51.43125L110.04063 49.525L110.04063 47.884377L111.44688 47.884377L111.44688 49.525L111.13438 51.43125L110.38438 51.43125ZM112.65 51.43125L112.30625 49.525L112.30625 47.884377L113.7125 47.884377L113.7125 49.525L113.38438 51.43125L112.65 51.43125ZM120.04063 57.9L120.04063 56.978127Q119.3375 58.071877 118.00938 58.071877Q117.13438 58.071877 116.4 57.5875Q115.68125 57.103127 115.275 56.24375Q114.88438 55.384377 114.88438 54.275Q114.88438 53.196877 115.24375 52.30625Q115.60313 51.415627 116.32188 50.946877Q117.05625 50.478127 117.94688 50.478127Q118.60313 50.478127 119.11875 50.759377Q119.63438 51.025 119.94688 51.478127L119.94688 47.884377L121.18125 47.884377L121.18125 57.9L120.04063 57.9ZM116.15 54.275Q116.15 55.665627 116.72813 56.36875Q117.32188 57.05625 118.11875 57.05625Q118.93125 57.05625 119.49375 56.4Q120.05625 55.728127 120.05625 54.384377Q120.05625 52.884377 119.47813 52.196877Q118.9 51.49375 118.07188 51.49375Q117.24375 51.49375 116.69688 52.165627Q116.15 52.8375 116.15 54.275ZM123.30625 57.9L123.30625 50.634377L124.41563 50.634377L124.41563 51.74375Q124.8375 50.9625 125.19688 50.728127Q125.55625 50.478127 125.99375 50.478127Q126.61875 50.478127 127.25938 50.86875L126.8375 52.009377Q126.38438 51.74375 125.93125 51.74375Q125.525 51.74375 125.19688 51.99375Q124.88438 52.228127 124.74375 52.665627Q124.54063 53.321877 124.54063 54.103127L124.54063 57.9L123.30625 57.9ZM128.3375 49.290627L128.3375 47.884377L129.55624 47.884377L129.55624 49.290627L128.3375 49.290627ZM128.3375 57.9L128.3375 50.634377L129.55624 50.634377L129.55624 57.9L128.3375 57.9ZM133.3375 57.9L130.57187 50.634377L131.88437 50.634377L133.43124 54.99375Q133.68124 55.696877 133.9 56.446877Q134.07187 55.86875 134.35312 55.071877L135.97812 50.634377L137.24374 50.634377L134.49374 57.9L133.3375 57.9ZM143.29062 55.55625L144.57187 55.7125Q144.25937 56.8375 143.44687 57.4625Q142.63437 58.071877 141.36874 58.071877Q139.775 58.071877 138.8375 57.0875Q137.91562 56.103127 137.91562 54.3375Q137.91562 52.49375 138.85312 51.49375Q139.80624 50.478127 141.30624 50.478127Q142.75937 50.478127 143.68124 51.478127Q144.60312 52.4625 144.60312 54.259377Q144.60312 54.36875 144.60312 54.5875L139.18124 54.5875Q139.25937 55.775 139.85312 56.415627Q140.4625 57.05625 141.38437 57.05625Q142.05624 57.05625 142.525 56.696877Q143.00937 56.3375 143.29062 55.55625ZM139.25937 53.571877L143.30624 53.571877Q143.22812 52.65 142.8375 52.196877Q142.25937 51.49375 141.32187 51.49375Q140.4625 51.49375 139.88437 52.05625Q139.32187 52.61875 139.25937 53.571877ZM146.38437 51.43125L146.04062 49.525L146.04062 47.884377L147.44687 47.884377L147.44687 49.525L147.13437 51.43125L146.38437 51.43125ZM148.65 51.43125L148.30624 49.525L148.30624 47.884377L149.7125 47.884377L149.7125 49.525L149.38437 51.43125L148.65 51.43125ZM157.3375 57.9L154.57187 50.634377L155.88437 50.634377L157.43124 54.99375Q157.68124 55.696877 157.9 56.446877Q158.07187 55.86875 158.35312 55.071877L159.97812 50.634377L161.24374 50.634377L158.49374 57.9L157.3375 57.9ZM161.8375 55.728127L163.04062 55.540627Q163.15 56.275 163.61874 56.665627Q164.0875 57.05625 164.93124 57.05625Q165.775 57.05625 166.18124 56.7125Q166.60312 56.36875 166.60312 55.9Q166.60312 55.478127 166.22812 55.24375Q165.97812 55.071877 164.97812 54.821877Q163.61874 54.478127 163.0875 54.228127Q162.57187 53.978127 162.30624 53.540627Q162.04062 53.103127 162.04062 52.571877Q162.04062 52.0875 162.25937 51.68125Q162.47812 51.259377 162.86874 50.978127Q163.15 50.775 163.63437 50.634377Q164.13437 50.478127 164.7125 50.478127Q165.55624 50.478127 166.19687 50.728127Q166.85312 50.9625 167.16562 51.384377Q167.47812 51.80625 167.5875 52.509377L166.38437 52.68125Q166.30624 52.11875 165.9 51.80625Q165.50937 51.49375 164.79062 51.49375Q163.94687 51.49375 163.5875 51.775Q163.22812 52.040627 163.22812 52.43125Q163.22812 52.665627 163.36874 52.853127Q163.525 53.05625 163.85312 53.18125Q164.025 53.24375 164.93124 53.49375Q166.24374 53.853127 166.75937 54.071877Q167.275 54.290627 167.55624 54.7125Q167.85312 55.134377 167.85312 55.759377Q167.85312 56.384377 167.49374 56.93125Q167.15 57.4625 166.4625 57.775Q165.79062 58.071877 164.93124 58.071877Q163.525 58.071877 162.775 57.478127Q162.04062 56.884377 161.8375 55.728127ZM173.38437 51.43125L173.04062 49.525L173.04062 47.884377L174.44687 47.884377L174.44687 49.525L174.13437 51.43125L173.38437 51.43125ZM175.65 51.43125L175.30624 49.525L175.30624 47.884377L176.7125 47.884377L176.7125 49.525L176.38437 51.43125L175.65 51.43125ZM179.4625 57.9L178.32187 57.9L178.32187 47.884377L179.54062 47.884377L179.54062 51.446877Q180.32187 50.478127 181.54062 50.478127Q182.2125 50.478127 182.80624 50.74375Q183.4 51.009377 183.79062 51.509377Q184.18124 51.99375 184.4 52.68125Q184.61874 53.36875 184.61874 54.165627Q184.61874 56.025 183.68124 57.05625Q182.75937 58.071877 181.47812 58.071877Q180.19687 58.071877 179.4625 56.99375L179.4625 57.9ZM179.44687 54.2125Q179.44687 55.525 179.80624 56.103127Q180.38437 57.05625 181.36874 57.05625Q182.18124 57.05625 182.75937 56.353127Q183.35312 55.65 183.35312 54.259377Q183.35312 52.8375 182.79062 52.165627Q182.22812 51.49375 181.43124 51.49375Q180.61874 51.49375 180.025 52.196877Q179.44687 52.884377 179.44687 54.2125ZM186.29062 57.9L186.29062 47.884377L187.525 47.884377L187.525 57.9L186.29062 57.9ZM188.86874 54.275Q188.86874 52.259377 189.99374 51.275Q190.91562 50.478127 192.275 50.478127Q193.75937 50.478127 194.7125 51.4625Q195.66562 52.43125 195.66562 54.165627Q195.66562 55.571877 195.24374 56.384377Q194.82187 57.18125 194.00937 57.634377Q193.2125 58.071877 192.275 58.071877Q190.74374 58.071877 189.80624 57.0875Q188.86874 56.103127 188.86874 54.275ZM190.13437 54.275Q190.13437 55.665627 190.74374 56.36875Q191.35312 57.05625 192.275 57.05625Q193.18124 57.05625 193.79062 56.353127Q194.4 55.65 194.4 54.228127Q194.4 52.884377 193.79062 52.196877Q193.18124 51.49375 192.275 51.49375Q191.35312 51.49375 190.74374 52.18125Q190.13437 52.86875 190.13437 54.275ZM202.05624 55.24375L203.275 55.4Q203.07187 56.65 202.24374 57.36875Q201.43124 58.071877 200.24374 58.071877Q198.75937 58.071877 197.85312 57.103127Q196.94687 56.11875 196.94687 54.290627Q196.94687 53.11875 197.3375 52.24375Q197.72812 51.353127 198.525 50.915627Q199.32187 50.478127 200.25937 50.478127Q201.43124 50.478127 202.18124 51.071877Q202.94687 51.665627 203.15 52.775L201.9625 52.9625Q201.79062 52.228127 201.35312 51.86875Q200.91562 51.49375 200.30624 51.49375Q199.36874 51.49375 198.79062 52.165627Q198.2125 52.821877 198.2125 54.259377Q198.2125 55.728127 198.775 56.4Q199.3375 57.05625 200.22812 57.05625Q200.9625 57.05625 201.44687 56.61875Q201.93124 56.165627 202.05624 55.24375ZM204.3375 57.9L204.3375 47.884377L205.55624 47.884377L205.55624 53.5875L208.47812 50.634377L210.07187 50.634377L207.29062 53.3375L210.35312 57.9L208.82187 57.9L206.43124 54.18125L205.55624 55.025L205.55624 57.9L204.3375 57.9ZM216.04062 57.9L216.04062 56.978127Q215.3375 58.071877 214.00937 58.071877Q213.13437 58.071877 212.4 57.5875Q211.68124 57.103127 211.275 56.24375Q210.88437 55.384377 210.88437 54.275Q210.88437 53.196877 211.24374 52.30625Q211.60312 51.415627 212.32187 50.946877Q213.05624 50.478127 213.94687 50.478127Q214.60312 50.478127 215.11874 50.759377Q215.63437 51.025 215.94687 51.478127L215.94687 47.884377L217.18124 47.884377L217.18124 57.9L216.04062 57.9ZM212.15 54.275Q212.15 55.665627 212.72812 56.36875Q213.32187 57.05625 214.11874 57.05625Q214.93124 57.05625 215.49374 56.4Q216.05624 55.728127 216.05624 54.384377Q216.05624 52.884377 215.47812 52.196877Q214.9 51.49375 214.07187 51.49375Q213.24374 51.49375 212.69687 52.165627Q212.15 52.8375 212.15 54.275ZM224.29062 55.55625L225.57187 55.7125Q225.25937 56.8375 224.44687 57.4625Q223.63437 58.071877 222.36874 58.071877Q220.775 58.071877 219.8375 57.0875Q218.91562 56.103127 218.91562 54.3375Q218.91562 52.49375 219.85312 51.49375Q220.80624 50.478127 222.30624 50.478127Q223.75937 50.478127 224.68124 51.478127Q225.60312 52.4625 225.60312 54.259377Q225.60312 54.36875 225.60312 54.5875L220.18124 54.5875Q220.25937 55.775 220.85312 56.415627Q221.4625 57.05625 222.38437 57.05625Q223.05624 57.05625 223.525 56.696877Q224.00937 56.3375 224.29062 55.55625ZM220.25937 53.571877L224.30624 53.571877Q224.22812 52.65 223.8375 52.196877Q223.25937 51.49375 222.32187 51.49375Q221.4625 51.49375 220.88437 52.05625Q220.32187 52.61875 220.25937 53.571877ZM229.3375 57.9L226.57187 50.634377L227.88437 50.634377L229.43124 54.99375Q229.68124 55.696877 229.9 56.446877Q230.07187 55.86875 230.35312 55.071877L231.97812 50.634377L233.24374 50.634377L230.49374 57.9L229.3375 57.9ZM234.38437 51.43125L234.04062 49.525L234.04062 47.884377L235.44687 47.884377L235.44687 49.525L235.13437 51.43125L234.38437 51.43125ZM236.65 51.43125L236.30624 49.525L236.30624 47.884377L237.7125 47.884377L237.7125 49.525L237.38437 51.43125L236.65 51.43125ZM243.025 54.68125L244.275 54.571877Q244.36874 55.321877 244.69687 55.80625Q245.025 56.290627 245.69687 56.5875Q246.38437 56.884377 247.24374 56.884377Q247.99374 56.884377 248.57187 56.665627Q249.16562 56.43125 249.44687 56.040627Q249.72812 55.65 249.72812 55.18125Q249.72812 54.7125 249.44687 54.36875Q249.18124 54.009377 248.55624 53.759377Q248.15 53.603127 246.75937 53.275Q245.38437 52.946877 244.8375 52.65Q244.11874 52.275 243.75937 51.728127Q243.41562 51.165627 243.41562 50.4625Q243.41562 49.7125 243.8375 49.05625Q244.275 48.384377 245.10312 48.05625Q245.93124 47.7125 246.94687 47.7125Q248.05624 47.7125 248.9 48.071877Q249.75937 48.43125 250.2125 49.134377Q250.66562 49.821877 250.7125 50.696877L249.43124 50.790627Q249.3375 49.853127 248.74374 49.36875Q248.15 48.86875 246.99374 48.86875Q245.79062 48.86875 245.24374 49.321877Q244.69687 49.759377 244.69687 50.384377Q244.69687 50.915627 245.0875 51.275Q245.4625 51.61875 247.07187 51.99375Q248.69687 52.353127 249.29062 52.61875Q250.16562 53.025 250.5875 53.65Q251.00937 54.259377 251.00937 55.071877Q251.00937 55.86875 250.54062 56.5875Q250.0875 57.290627 249.22812 57.68125Q248.36874 58.071877 247.30624 58.071877Q245.94687 58.071877 245.025 57.68125Q244.10312 57.275 243.57187 56.478127Q243.05624 55.68125 243.025 54.68125ZM252.275 60.696877L252.13437 59.540627Q252.54062 59.65 252.8375 59.65Q253.24374 59.65 253.49374 59.509377Q253.74374 59.384377 253.9 59.134377Q254.00937 58.946877 254.275 58.2125Q254.30624 58.11875 254.38437 57.915627L251.61874 50.634377L252.94687 50.634377L254.4625 54.8375Q254.75937 55.65 254.99374 56.525Q255.19687 55.68125 255.49374 54.86875L257.04062 50.634377L258.275 50.634377L255.50937 58.025Q255.07187 59.2125 254.82187 59.665627Q254.49374 60.275 254.07187 60.55625Q253.65 60.853127 253.05624 60.853127Q252.7125 60.853127 252.275 60.696877ZM259.32187 57.9L259.32187 50.634377L260.43124 50.634377L260.43124 51.665627Q261.22812 50.478127 262.74374 50.478127Q263.4 50.478127 263.94687 50.7125Q264.49374 50.946877 264.75937 51.3375Q265.04062 51.7125 265.15 52.24375Q265.22812 52.5875 265.22812 53.43125L265.22812 57.9L263.99374 57.9L263.99374 53.478127Q263.99374 52.728127 263.85312 52.36875Q263.7125 51.99375 263.3375 51.775Q262.97812 51.540627 262.47812 51.540627Q261.69687 51.540627 261.11874 52.040627Q260.55624 52.540627 260.55624 53.93125L260.55624 57.9L259.32187 57.9ZM270.00937 56.80625L270.18124 57.884377Q269.66562 57.99375 269.25937 57.99375Q268.5875 57.99375 268.2125 57.790627Q267.85312 57.571877 267.69687 57.228127Q267.55624 56.884377 267.55624 55.775L267.55624 51.603127L266.65 51.603127L266.65 50.634377L267.55624 50.634377L267.55624 48.8375L268.775 48.103127L268.775 50.634377L270.00937 50.634377L270.00937 51.603127L268.775 51.603127L268.775 55.8375Q268.775 56.36875 268.8375 56.525Q268.9 56.665627 269.04062 56.759377Q269.19687 56.853127 269.4625 56.853127Q269.68124 56.853127 270.00937 56.80625ZM276.05624 57.009377Q275.38437 57.5875 274.74374 57.8375Q274.11874 58.071877 273.38437 58.071877Q272.19687 58.071877 271.54062 57.49375Q270.9 56.9 270.9 55.978127Q270.9 55.446877 271.13437 55.009377Q271.38437 54.571877 271.775 54.30625Q272.18124 54.040627 272.66562 53.9Q273.025 53.80625 273.75937 53.7125Q275.25937 53.540627 275.9625 53.290627Q275.9625 53.040627 275.9625 52.978127Q275.9625 52.2125 275.61874 51.915627Q275.15 51.49375 274.2125 51.49375Q273.35312 51.49375 272.93124 51.80625Q272.525 52.103127 272.32187 52.86875L271.11874 52.7125Q271.275 51.93125 271.65 51.4625Q272.04062 50.99375 272.74374 50.74375Q273.4625 50.478127 274.4 50.478127Q275.32187 50.478127 275.9 50.696877Q276.47812 50.915627 276.74374 51.24375Q277.025 51.571877 277.13437 52.0875Q277.19687 52.4 277.19687 53.2125L277.19687 54.853127Q277.19687 56.571877 277.275 57.025Q277.35312 57.478127 277.5875 57.9L276.30624 57.9Q276.11874 57.509377 276.05624 57.009377ZM275.9625 54.259377Q275.29062 54.525 273.94687 54.728127Q273.19687 54.8375 272.86874 54.978127Q272.55624 55.103127 272.38437 55.36875Q272.2125 55.634377 272.2125 55.946877Q272.2125 56.446877 272.5875 56.775Q272.9625 57.103127 273.68124 57.103127Q274.4 57.103127 274.94687 56.790627Q275.49374 56.478127 275.75937 55.93125Q275.9625 55.525 275.9625 54.7125L275.9625 54.259377ZM278.50937 57.9L281.15 54.11875L278.69687 50.634377L280.24374 50.634377L281.35312 52.3375Q281.66562 52.821877 281.85312 53.15Q282.16562 52.696877 282.41562 52.353127L283.63437 50.634377L285.10312 50.634377L282.60312 54.05625L285.29062 57.9L283.79062 57.9L282.29062 55.65L281.9 55.040627L279.99374 57.9L278.50937 57.9Z" fill-rule="nonzero"/><path fill="#757575" d="M25.790625 30.868752Q27.11875 31.775002 28.228125 32.196877L27.665625 33.509377Q26.11875 32.9625 24.5875 31.759377Q22.99375 32.65 21.071875 32.65Q19.134375 32.65 17.540625 31.712502Q15.9625 30.775002 15.103125 29.071877Q14.259375 27.368752 14.259375 25.243752Q14.259375 23.118752 15.11875 21.384377Q15.978125 19.650002 17.55625 18.743752Q19.15 17.821877 21.11875 17.821877Q23.103125 17.821877 24.68125 18.775002Q26.275 19.712502 27.103125 21.415627Q27.946875 23.103127 27.946875 25.228127Q27.946875 26.993752 27.415625 28.415627Q26.884375 29.821877 25.790625 30.868752ZM21.61875 28.446877Q23.259375 28.900002 24.321875 29.806252Q25.99375 28.290627 25.99375 25.228127Q25.99375 23.493752 25.4 22.196877Q24.821875 20.900002 23.68125 20.181252Q22.540625 19.462502 21.11875 19.462502Q19.009375 19.462502 17.603125 20.915627Q16.2125 22.353127 16.2125 25.243752Q16.2125 28.040627 17.5875 29.540627Q18.978125 31.025002 21.11875 31.025002Q22.134375 31.025002 23.040625 30.634377Q22.15 30.071877 21.165625 29.821877L21.61875 28.446877ZM30.978125 32.4L30.978125 18.087502L41.3375 18.087502L41.3375 19.775002L32.884377 19.775002L32.884377 24.150002L40.790627 24.150002L40.790627 25.837502L32.884377 25.837502L32.884377 30.712502L41.665627 30.712502L41.665627 32.4L30.978125 32.4ZM43.884377 32.4L43.884377 18.087502L46.74375 18.087502L50.11875 28.212502Q50.5875 29.634377 50.80625 30.337502Q51.05625 29.556252 51.571877 28.040627L54.99375 18.087502L57.540627 18.087502L57.540627 32.4L55.728127 32.4L55.728127 20.415627L51.55625 32.4L49.853127 32.4L45.7125 20.212502L45.7125 32.4L43.884377 32.4ZM70.3375 18.087502L72.22813 18.087502L72.22813 26.353127Q72.22813 28.509377 71.74375 29.790627Q71.25938 31.056252 69.97813 31.853127Q68.7125 32.65 66.63438 32.65Q64.61875 32.65 63.3375 31.962502Q62.071877 31.259377 61.525 29.946877Q60.978127 28.634377 60.978127 26.353127L60.978127 18.087502L62.86875 18.087502L62.86875 26.337502Q62.86875 28.212502 63.2125 29.103127Q63.55625 29.978127 64.4 30.462502Q65.24375 30.931252 66.47813 30.931252Q68.55625 30.931252 69.44688 29.993752Q70.3375 29.040627 70.3375 26.337502L70.3375 18.087502ZM72.4 32.65L76.55625 17.837502L77.9625 17.837502L73.82188 32.65L72.4 32.65ZM79.86875 32.4L79.86875 18.087502L81.75938 18.087502L81.75938 25.181252L88.86875 18.087502L91.43125 18.087502L85.43125 23.884377L91.69688 32.4L89.19688 32.4L84.10313 25.150002L81.75938 27.431252L81.75938 32.4L79.86875 32.4ZM97.04063 32.4L91.49375 18.087502L93.54063 18.087502L97.25938 28.478127Q97.7125 29.728127 98.00938 30.821877Q98.3375 29.650002 98.79063 28.478127L102.65 18.087502L104.5875 18.087502L98.97813 32.4L97.04063 32.4ZM105.88438 32.4L105.88438 18.087502L108.74375 18.087502L112.11875 28.212502Q112.5875 29.634377 112.80625 30.337502Q113.05625 29.556252 113.57188 28.040627L116.99375 18.087502L119.54063 18.087502L119.54063 32.4L117.72813 32.4L117.72813 20.415627L113.55625 32.4L111.85313 32.4L107.7125 20.212502L107.7125 32.4L105.88438 32.4ZM128.86874 32.4L128.86874 18.087502L130.75937 18.087502L130.75937 30.712502L137.80624 30.712502L137.80624 32.4L128.86874 32.4ZM139.72812 20.103127L139.72812 18.087502L141.49374 18.087502L141.49374 20.103127L139.72812 20.103127ZM139.72812 32.4L139.72812 22.025002L141.49374 22.025002L141.49374 32.4L139.72812 32.4ZM145.3375 32.4L143.7125 32.4L143.7125 18.087502L145.4625 18.087502L145.4625 23.196877Q146.5875 21.790627 148.30624 21.790627Q149.25937 21.790627 150.11874 22.181252Q150.97812 22.571877 151.525 23.275002Q152.07187 23.962502 152.38437 24.946877Q152.69687 25.931252 152.69687 27.056252Q152.69687 29.728127 151.38437 31.181252Q150.07187 32.634377 148.22812 32.634377Q146.38437 32.634377 145.3375 31.103127L145.3375 32.4ZM145.32187 27.134377Q145.32187 28.993752 145.82187 29.837502Q146.66562 31.181252 148.07187 31.181252Q149.22812 31.181252 150.05624 30.181252Q150.9 29.181252 150.9 27.196877Q150.9 25.165627 150.0875 24.212502Q149.29062 23.243752 148.15 23.243752Q146.99374 23.243752 146.15 24.243752Q145.32187 25.243752 145.32187 27.134377ZM154.97812 32.4L154.97812 18.087502L161.32187 18.087502Q163.22812 18.087502 164.22812 18.478127Q165.22812 18.853127 165.82187 19.837502Q166.41562 20.806252 166.41562 21.993752Q166.41562 23.509377 165.43124 24.556252Q164.44687 25.603127 162.38437 25.884377Q163.13437 26.243752 163.525 26.603127Q164.35312 27.353127 165.10312 28.509377L167.5875 32.4L165.2125 32.4L163.30624 29.415627Q162.47812 28.134377 161.94687 27.446877Q161.41562 26.759377 160.97812 26.493752Q160.55624 26.212502 160.11874 26.103127Q159.79062 26.040627 159.07187 26.040627L156.86874 26.040627L156.86874 32.4L154.97812 32.4ZM156.86874 24.400002L160.94687 24.400002Q162.24374 24.400002 162.9625 24.134377Q163.69687 23.868752 164.07187 23.275002Q164.4625 22.681252 164.4625 21.993752Q164.4625 20.978127 163.72812 20.321877Q162.99374 19.665627 161.4 19.665627L156.86874 19.665627L156.86874 24.400002ZM168.86874 32.4L168.86874 18.087502L174.24374 18.087502Q175.88437 18.087502 176.86874 18.525002Q177.85312 18.946877 178.41562 19.853127Q178.97812 20.759377 178.97812 21.743752Q178.97812 22.665627 178.47812 23.478127Q177.99374 24.290627 176.97812 24.775002Q178.275 25.165627 178.97812 26.087502Q179.68124 26.993752 179.68124 28.243752Q179.68124 29.259377 179.24374 30.118752Q178.82187 30.978127 178.19687 31.446877Q177.57187 31.915627 176.63437 32.165627Q175.69687 32.4 174.32187 32.4L168.86874 32.4ZM170.75937 24.103127L173.85312 24.103127Q175.11874 24.103127 175.66562 23.931252Q176.38437 23.712502 176.74374 23.228127Q177.11874 22.728127 177.11874 21.962502Q177.11874 21.259377 176.775 20.712502Q176.43124 20.165627 175.79062 19.978127Q175.16562 19.775002 173.61874 19.775002L170.75937 19.775002L170.75937 24.103127ZM170.75937 30.712502L174.32187 30.712502Q175.24374 30.712502 175.61874 30.634377Q176.275 30.525002 176.7125 30.259377Q177.15 29.978127 177.43124 29.462502Q177.7125 28.931252 177.7125 28.243752Q177.7125 27.446877 177.30624 26.853127Q176.9 26.259377 176.16562 26.025002Q175.43124 25.790627 174.07187 25.790627L170.75937 25.790627L170.75937 30.712502ZM181.94687 32.4L181.94687 18.087502L186.86874 18.087502Q188.54062 18.087502 189.43124 18.290627Q190.65 18.571877 191.525 19.306252Q192.65 20.275002 193.2125 21.759377Q193.775 23.243752 193.775 25.165627Q193.775 26.790627 193.4 28.056252Q193.025 29.306252 192.41562 30.134377Q191.82187 30.962502 191.11874 31.446877Q190.41562 31.915627 189.41562 32.165627Q188.41562 32.4 187.10312 32.4L181.94687 32.4ZM183.8375 30.712502L186.9 30.712502Q188.30624 30.712502 189.10312 30.446877Q189.91562 30.181252 190.4 29.696877Q191.07187 29.025002 191.44687 27.900002Q191.82187 26.759377 191.82187 25.134377Q191.82187 22.884377 191.0875 21.681252Q190.35312 20.478127 189.29062 20.071877Q188.54062 19.775002 186.85312 19.775002L183.8375 19.775002L183.8375 30.712502ZM201.94687 32.4L201.94687 18.087502L207.3375 18.087502Q208.775 18.087502 209.525 18.212502Q210.57187 18.400002 211.29062 18.900002Q212.00937 19.384377 212.43124 20.275002Q212.86874 21.165627 212.86874 22.228127Q212.86874 24.056252 211.69687 25.321877Q210.54062 26.571877 207.50937 26.571877L203.8375 26.571877L203.8375 32.4L201.94687 32.4ZM203.8375 24.884377L207.54062 24.884377Q209.36874 24.884377 210.13437 24.212502Q210.91562 23.525002 210.91562 22.275002Q210.91562 21.384377 210.4625 20.743752Q210.00937 20.103127 209.275 19.900002Q208.79062 19.775002 207.49374 19.775002L203.8375 19.775002L203.8375 24.884377ZM221.82187 29.056252L223.63437 29.290627Q223.2125 30.868752 222.04062 31.759377Q220.88437 32.634377 219.07187 32.634377Q216.80624 32.634377 215.4625 31.243752Q214.13437 29.837502 214.13437 27.306252Q214.13437 24.681252 215.47812 23.243752Q216.82187 21.790627 218.97812 21.790627Q221.05624 21.790627 222.36874 23.212502Q223.69687 24.618752 223.69687 27.196877Q223.69687 27.353127 223.68124 27.665627L215.94687 27.665627Q216.04062 29.368752 216.91562 30.275002Q217.79062 31.181252 219.0875 31.181252Q220.05624 31.181252 220.72812 30.681252Q221.41562 30.165627 221.82187 29.056252ZM216.04062 26.212502L221.8375 26.212502Q221.72812 24.915627 221.18124 24.259377Q220.3375 23.243752 218.99374 23.243752Q217.79062 23.243752 216.9625 24.056252Q216.13437 24.853127 216.04062 26.212502ZM225.69687 32.4L225.69687 22.025002L227.275 22.025002L227.275 23.603127Q227.88437 22.493752 228.4 22.150002Q228.91562 21.790627 229.525 21.790627Q230.41562 21.790627 231.3375 22.353127L230.72812 23.993752Q230.0875 23.603127 229.44687 23.603127Q228.86874 23.603127 228.4 23.962502Q227.94687 24.306252 227.74374 24.915627Q227.4625 25.853127 227.4625 26.962502L227.4625 32.4L225.69687 32.4ZM233.13437 32.4L233.13437 23.400002L231.5875 23.400002L231.5875 22.025002L233.13437 22.025002L233.13437 20.931252Q233.13437 19.884377 233.32187 19.368752Q233.57187 18.681252 234.2125 18.259377Q234.85312 17.837502 236.00937 17.837502Q236.75937 17.837502 237.65 18.009377L237.38437 19.540627Q236.8375 19.446877 236.35312 19.446877Q235.55624 19.446877 235.2125 19.790627Q234.88437 20.134377 234.88437 21.071877L234.88437 22.025002L236.91562 22.025002L236.91562 23.400002L234.88437 23.400002L234.88437 32.4L233.13437 32.4ZM238.07187 27.212502Q238.07187 24.337502 239.66562 22.946877Q241.00937 21.790627 242.93124 21.790627Q245.07187 21.790627 246.41562 23.196877Q247.775 24.603127 247.775 27.071877Q247.775 29.071877 247.18124 30.228127Q246.5875 31.368752 245.43124 32.009377Q244.29062 32.634377 242.93124 32.634377Q240.74374 32.634377 239.4 31.243752Q238.07187 29.837502 238.07187 27.212502ZM239.86874 27.212502Q239.86874 29.212502 240.72812 30.196877Q241.60312 31.181252 242.93124 31.181252Q244.24374 31.181252 245.10312 30.196877Q245.97812 29.196877 245.97812 27.150002Q245.97812 25.228127 245.10312 24.243752Q244.22812 23.243752 242.93124 23.243752Q241.60312 23.243752 240.72812 24.243752Q239.86874 25.228127 239.86874 27.212502ZM249.69687 32.4L249.69687 22.025002L251.275 22.025002L251.275 23.603127Q251.88437 22.493752 252.4 22.150002Q252.91562 21.790627 253.525 21.790627Q254.41562 21.790627 255.3375 22.353127L254.72812 23.993752Q254.0875 23.603127 253.44687 23.603127Q252.86874 23.603127 252.4 23.962502Q251.94687 24.306252 251.74374 24.915627Q251.4625 25.853127 251.4625 26.962502L251.4625 32.4L249.69687 32.4ZM256.7125 32.4L256.7125 22.025002L258.29062 22.025002L258.29062 23.478127Q258.775 22.728127 259.5875 22.259377Q260.4 21.790627 261.43124 21.790627Q262.5875 21.790627 263.32187 22.275002Q264.05624 22.743752 264.36874 23.603127Q265.60312 21.790627 267.57187 21.790627Q269.11874 21.790627 269.94687 22.650002Q270.775 23.509377 270.775 25.275002L270.775 32.4L269.025 32.4L269.025 25.868752Q269.025 24.806252 268.85312 24.353127Q268.68124 23.884377 268.22812 23.603127Q267.79062 23.321877 267.18124 23.321877Q266.0875 23.321877 265.35312 24.056252Q264.63437 24.775002 264.63437 26.368752L264.63437 32.4L262.88437 32.4L262.88437 25.665627Q262.88437 24.493752 262.44687 23.915627Q262.025 23.321877 261.04062 23.321877Q260.30624 23.321877 259.66562 23.712502Q259.04062 24.103127 258.75937 24.853127Q258.47812 25.603127 258.47812 27.025002L258.47812 32.4L256.7125 32.4ZM279.49374 31.118752Q278.50937 31.946877 277.60312 32.290627Q276.69687 32.634377 275.66562 32.634377Q273.9625 32.634377 273.04062 31.806252Q272.11874 30.962502 272.11874 29.665627Q272.11874 28.900002 272.4625 28.275002Q272.82187 27.650002 273.38437 27.275002Q273.94687 26.884377 274.65 26.681252Q275.16562 26.556252 276.2125 26.415627Q278.3375 26.165627 279.3375 25.821877Q279.35312 25.462502 279.35312 25.353127Q279.35312 24.290627 278.85312 23.837502Q278.18124 23.243752 276.85312 23.243752Q275.60312 23.243752 275.00937 23.681252Q274.43124 24.118752 274.15 25.228127L272.43124 24.993752Q272.66562 23.884377 273.19687 23.212502Q273.72812 22.525002 274.74374 22.165627Q275.75937 21.790627 277.10312 21.790627Q278.43124 21.790627 279.25937 22.103127Q280.0875 22.415627 280.47812 22.900002Q280.86874 23.368752 281.025 24.087502Q281.11874 24.540627 281.11874 25.712502L281.11874 28.056252Q281.11874 30.509377 281.22812 31.165627Q281.3375 31.806252 281.68124 32.4L279.8375 32.4Q279.57187 31.853127 279.49374 31.118752ZM279.3375 27.196877Q278.38437 27.587502 276.4625 27.853127Q275.38437 28.009377 274.93124 28.212502Q274.49374 28.400002 274.24374 28.775002Q273.99374 29.150002 273.99374 29.618752Q273.99374 30.321877 274.525 30.790627Q275.05624 31.259377 276.0875 31.259377Q277.10312 31.259377 277.88437 30.821877Q278.68124 30.368752 279.05624 29.603127Q279.3375 28.993752 279.3375 27.837502L279.3375 27.196877ZM283.7125 32.4L283.7125 22.025002L285.30624 22.025002L285.30624 23.509377Q286.44687 21.790627 288.60312 21.790627Q289.54062 21.790627 290.32187 22.134377Q291.11874 22.462502 291.50937 23.009377Q291.9 23.556252 292.05624 24.306252Q292.15 24.806252 292.15 26.025002L292.15 32.4L290.38437 32.4L290.38437 26.087502Q290.38437 25.009377 290.18124 24.478127Q289.97812 23.946877 289.44687 23.634377Q288.93124 23.321877 288.22812 23.321877Q287.10312 23.321877 286.29062 24.040627Q285.47812 24.743752 285.47812 26.728127L285.47812 32.4L283.7125 32.4ZM300.49374 28.603127L302.2125 28.821877Q301.93124 30.618752 300.75937 31.634377Q299.60312 32.634377 297.9 32.634377Q295.775 32.634377 294.47812 31.243752Q293.18124 29.853127 293.18124 27.259377Q293.18124 25.571877 293.72812 24.321877Q294.29062 23.056252 295.43124 22.431252Q296.57187 21.790627 297.91562 21.790627Q299.60312 21.790627 300.66562 22.650002Q301.74374 23.509377 302.05624 25.071877L300.3375 25.337502Q300.10312 24.290627 299.47812 23.775002Q298.85312 23.243752 297.97812 23.243752Q296.65 23.243752 295.82187 24.196877Q294.99374 25.150002 294.99374 27.196877Q294.99374 29.290627 295.79062 30.243752Q296.5875 31.181252 297.88437 31.181252Q298.91562 31.181252 299.60312 30.556252Q300.30624 29.915627 300.49374 28.603127ZM310.82187 29.056252L312.63437 29.290627Q312.2125 30.868752 311.04062 31.759377Q309.88437 32.634377 308.07187 32.634377Q305.80624 32.634377 304.4625 31.243752Q303.13437 29.837502 303.13437 27.306252Q303.13437 24.681252 304.47812 23.243752Q305.82187 21.790627 307.97812 21.790627Q310.05624 21.790627 311.36874 23.212502Q312.69687 24.618752 312.69687 27.196877Q312.69687 27.353127 312.68124 27.665627L304.94687 27.665627Q305.04062 29.368752 305.91562 30.275002Q306.79062 31.181252 308.0875 31.181252Q309.05624 31.181252 309.72812 30.681252Q310.41562 30.165627 310.82187 29.056252ZM305.04062 26.212502L310.8375 26.212502Q310.72812 24.915627 310.18124 24.259377Q309.3375 23.243752 307.99374 23.243752Q306.79062 23.243752 305.9625 24.056252Q305.13437 24.853127 305.04062 26.212502Z" fill-rule="nonzero"/></svg>