<svg xmlns="http://www.w3.org/2000/svg" width="48" height="48" viewBox="0 0 48 48" aria-hidden="true" focusable="false">
  <title>Rados</title>
  <g fill="none" fill-rule="evenodd">
    <circle cx="23.925" cy="23.925" r="21.75" stroke="#EB1414" stroke-linecap="square" stroke-width="2"/>
    <path fill="#0A0C38" fill-rule="nonzero" stroke="#101137" stroke-width=".5" d="M19.03 33.75v-7.883h4.542c.229 0 .451-.008.667-.021l.078-.006 4.273 7.91h2.057l-4.502-8.25.137-.046a5.65 5.65 0 00.5-.204l.237-.117c.927-.489 1.627-1.168 2.1-2.038.472-.87.709-1.872.709-3.008 0-1.137-.237-2.144-.71-3.023-.472-.88-1.174-1.568-2.104-2.067-.93-.498-2.087-.747-3.47-.747h0-6.294v19.5h1.78zm0-17.9h4.466c1.028 0 1.88.174 2.557.523.676.35 1.182.843 1.518 1.48.337.639.505 1.383.505 2.234 0 .85-.167 1.587-.5 2.209-.333.622-.838 1.101-1.514 1.437-.676.337-1.522.505-2.537.505h0-4.495V15.85z"/>
  </g>
</svg>
