<svg xmlns="http://www.w3.org/2000/svg" width="48" height="48" viewBox="0 0 48 48" aria-hidden="true" focusable="false">
  <title>GIT</title>
  <path fill="none" fill-rule="evenodd" stroke="#0A0C38" stroke-linecap="square" stroke-width="2" d="M24 2.7c-12.06 0-21.72 9.72-21.72 21.78 0 9.6 6.24 17.76 14.88 20.64 1.08.18 1.5-.48 1.5-1.02v-3.66c-6.06 1.32-7.32-2.94-7.32-2.94-1.02-2.52-2.46-3.18-2.46-3.18C6.9 33 9 33.06 9 33.06c2.16.12 3.36 2.22 3.36 2.22 1.98 3.36 5.1 2.4 6.3 1.86.18-1.44.72-2.4 1.38-2.94-4.8-.54-9.9-2.46-9.9-10.74 0-2.4.84-4.26 2.22-5.82-.18-.54-.96-2.76.18-5.76 0 0 1.86-.6 6 2.22 1.74-.48 3.6-.72 5.46-.72 1.86 0 3.72.3 5.46.72 4.14-2.76 6-2.22 6-2.22 1.14 3 .42 5.22.18 5.76 1.44 1.5 2.22 3.48 2.22 5.82 0 8.34-5.1 10.2-9.9 10.74.72.66 1.5 1.98 1.5 4.02v6c0 .6.42 1.32 1.5 1.02 8.64-3 14.88-11.16 14.88-20.76C45.72 12.42 36.06 2.7 24 2.7z"/>
</svg>