<svg xmlns="http://www.w3.org/2000/svg" width="48" height="48" viewBox="0 0 48 48" aria-hidden="true" focusable="false">
  <title>Crush</title>
  <g fill="none" fill-rule="evenodd">
    <circle cx="23.925" cy="23.925" r="21.75" stroke="#EB1414" stroke-linecap="square" stroke-width="2"/>
    <path fill="#0A0C38" fill-rule="nonzero" stroke="#101137" stroke-width=".5" d="M24.702 33.75c1.014 0 1.943-.158 2.79-.473a7.313 7.313 0 002.247-1.316 7.346 7.346 0 001.613-1.97c.423-.75.712-1.56.867-2.432h0-1.743a5.57 5.57 0 01-1.965 3.258c-.506.41-1.08.73-1.723.959a6.178 6.178 0 01-2.086.343c-1.198 0-2.29-.31-3.276-.932-.986-.62-1.773-1.533-2.363-2.738-.59-1.205-.885-2.688-.885-4.449 0-1.749.295-3.227.885-4.435.59-1.208 1.377-2.124 2.363-2.748a6 6 0 013.276-.936c.748 0 1.443.114 2.086.343.642.229 1.217.55 1.723.964.507.414.929.897 1.265 1.45.337.553.57 1.154.7 1.803h1.743a7.573 7.573 0 00-.867-2.437 7.442 7.442 0 00-1.613-1.97 7.192 7.192 0 00-2.247-1.316c-.847-.312-1.776-.468-2.79-.468-1.594 0-3.009.4-4.245 1.2-1.235.8-2.204 1.93-2.905 3.388C16.85 20.296 16.5 22.017 16.5 24s.35 3.704 1.052 5.162c.701 1.458 1.67 2.588 2.905 3.388 1.236.8 2.651 1.2 4.245 1.2z"/>
  </g>
</svg>