<svg xmlns="http://www.w3.org/2000/svg" width="48" height="48" viewBox="0 0 48 48" aria-hidden="true" focusable="false">
  <title>Customers</title>
  <g fill="none" fill-rule="evenodd" stroke-linecap="square" stroke-width="2">
    <circle cx="37.575" cy="31.575" r="4.5" stroke="#0A0C38"/>
    <circle cx="10.575" cy="31.575" r="4.5" stroke="#0A0C38"/>
    <path stroke="#0A0C38" d="M19.575 46.575v-1.474a3 3 0 00-1.475-2.587c-1.459-.863-3.988-1.939-7.525-1.939-3.583 0-6.095 1.07-7.539 1.931a2.997 2.997 0 00-1.461 2.579v1.49h18zM46.575 46.575v-1.474a3 3 0 00-1.475-2.587c-1.459-.863-3.988-1.939-7.525-1.939-3.583 0-6.095 1.07-7.539 1.931a2.997 2.997 0 00-1.461 2.579v1.49h18z"/>
    <path stroke="#EB1414" d="M33.075 21.075v-1.474a3 3 0 00-1.475-2.586c-1.459-.864-3.988-1.94-7.525-1.94-3.583 0-6.095 1.07-7.539 1.931a2.997 2.997 0 00-1.461 2.579v1.49h18z"/>
    <circle cx="24.075" cy="6.075" r="4.5" stroke="#EB1414"/>
  </g>
</svg>