<svg xmlns="http://www.w3.org/2000/svg" width="48" height="48" viewBox="0 0 48 48" aria-hidden="true" focusable="false">
  <title>Ceph Deploy</title>
  <g fill="none" fill-rule="evenodd">
    <circle cx="24.36" cy="24.36" r="21.72" stroke="#0A0C38" stroke-linecap="square" stroke-width="2"/>
    <path fill="#EB1414" fill-rule="nonzero" d="M31.38 33.3c-.78-.48-1.32-.96-1.38-1.5-.12-.54.12-1.14.72-1.8a8.948 8.948 0 002.16-5.82c0-4.86-3.96-8.82-8.82-8.82h-.12c-4.86 0-8.82 3.96-8.82 8.82 0 2.16.78 4.2 2.16 5.82.6.66.84 1.26.72 1.74-.12.54-.6 1.02-1.44 1.5-1.26-1.08-2.46-2.52-3.12-3.96-.36-.78-.66-1.62-.9-2.46-.18-.9-.3-1.74-.3-2.64 0-1.56.3-3.12.9-4.56.6-1.38 1.44-2.64 2.52-3.72s2.34-1.92 3.72-2.52c1.44-.6 3-.9 4.56-.9H24c1.56 0 3.12.3 4.56.9 1.38.6 2.64 1.44 3.72 2.52s1.92 2.34 2.52 3.72c.6 1.44.9 3 .9 4.56 0 .9-.12 1.8-.3 2.64-.18.84-.48 1.68-.9 2.46-.66 1.5-1.8 2.94-3.12 4.02m-4.32 2.16c-.12-.06-.6-.42-1.08-1.08-.42-.6-.96-1.62-.9-2.94 0-.78.18-1.56.48-2.34.3-.78.72-1.38 1.26-1.98l.12-.12c.18-.24.42-.48.6-.78.24-.36.36-.72.48-1.14.12-.6.12-1.2 0-1.8-.12-.54-.36-1.08-.66-1.56-.3-.42-.72-.84-1.2-1.14-.48-.3-1.02-.48-1.56-.6-.18-.06-.42-.06-.6-.06h-.06c-.18 0-.42 0-.6.06-.54.06-1.08.3-1.56.6s-.84.66-1.2 1.14c-.3.48-.54.96-.66 1.56-.12.6-.12 1.2 0 1.8.12.36.24.78.48 1.14.18.3.36.54.6.78l.12.12c.54.6.96 1.26 1.26 1.98.3.72.48 1.5.48 2.34 0 1.32-.48 2.34-.9 2.94-.48.6-.9.96-1.08 1.08l-.66-.18c-.66-.24-1.32-.54-1.92-.84 1.08-.6 1.74-1.68 1.74-2.94 0-.78-.3-1.56-.96-2.28l-.18-.18-.48-.6c-.54-.78-.96-1.62-1.2-2.52-.24-1.02-.24-2.04-.06-3.06.18-.9.6-1.8 1.14-2.58.54-.72 1.2-1.38 1.98-1.86.84-.48 1.74-.84 2.7-.96.3-.06.66-.06.96-.06H24c.3 0 .66 0 .96.06.96.12 1.86.48 2.7.96.78.48 1.44 1.14 1.98 1.86.54.78.96 1.68 1.14 2.58.24 1.02.18 2.04-.06 3.06-.24.9-.6 1.8-1.2 2.52-.18.24-.3.42-.48.6l-.18.18-.06.06c-.6.78-.96 1.5-.96 2.28 0 1.2.66 2.34 1.74 2.94-.6.36-1.26.66-1.92.84l-.6.12M24 26.64a2.279 2.279 0 110-4.56 2.279 2.279 0 110 4.56"/>
  </g>
</svg>