<svg xmlns="http://www.w3.org/2000/svg" width="48" height="48" viewBox="0 0 48 48" aria-hidden="true" focusable="false">
  <title>Planet ceph</title>
  <g fill="none" fill-rule="evenodd">
    <path stroke="#FFF" stroke-width="2" d="M12.823 42.981c1.23-.909 2.174-3.221 2.174-3.221s1.063-.738 1.395-1.68c.332-.942.019-2.222.019-2.222s.942-2.764.498-3.54c-.443-.775-2.326-1.274-2.326-1.274s-.776-1.44-2.382-1.718c-1.053-.11-2.106-.83-2.106-2.326 0-1.495 1.495-3.933 1.495-3.933s1.552-.759 1.774-1.313c.221-.553.296-1.845.296-1.845s1.476-2.604.645-4.099c-.265-.477-1.496-.831-1.496-.831l-1.725-2.588M39.39 38.977c-1.883-.902-5.174-1.655-5.174-1.655s-2.405-2.677-3.984-2.455c-1.579.222-3.185 1.994-3.185 1.994s.11 3.269-.388 3.435c-.499.166-1.829-.72-2.659-.056-.831.665-.352 2.54-.352 2.54s-1.809.563-2.03 1.172c-.221.61.659 1.967.826 2.487"/>
    <path stroke="#FFF" stroke-width="2" d="M24.42 7.51c-.14-.002-.278-.01-.42-.01C13.23 7.5 4.5 16.23 4.5 27S13.23 46.5 24 46.5 43.5 37.77 43.5 27c0-2.093-.33-4.11-.94-6"/>
    <path fill="#EB1414" fill-rule="nonzero" d="M39.91 18c-.65-.398-1.098-.795-1.148-1.243-.1-.447.1-.944.599-1.491a7.4 7.4 0 001.795-4.822c0-4.027-3.292-7.308-7.331-7.308h-.1c-4.04 0-7.331 3.281-7.331 7.308a7.4 7.4 0 001.795 4.822c.499.547.698 1.044.599 1.441-.1.448-.499.846-1.197 1.243-1.048-.895-2.045-2.088-2.594-3.28-.299-.647-.548-1.343-.748-2.039-.15-.746-.249-1.442-.249-2.187 0-1.293.25-2.585.748-3.778a9.943 9.943 0 012.095-3.082 9.979 9.979 0 013.092-2.088 9.905 9.905 0 013.79-.746h.05c1.297 0 2.593.249 3.79.746a9.979 9.979 0 013.092 2.088 9.943 9.943 0 012.095 3.082 9.818 9.818 0 01.748 3.778c0 .745-.1 1.491-.25 2.187a7.725 7.725 0 01-.747 2.038c-.549 1.243-1.497 2.436-2.594 3.331m-3.293 1.5c-.097-.05-.486-.349-.874-.897-.34-.498-.777-1.346-.729-2.442 0-.648.146-1.296.389-1.943.243-.648.583-1.147 1.02-1.645l.097-.1c.145-.199.34-.398.485-.647.194-.3.292-.598.389-.947a3.872 3.872 0 000-1.495 4.29 4.29 0 00-.534-1.296 3.575 3.575 0 00-.972-.947c-.388-.249-.825-.398-1.262-.498-.146-.05-.34-.05-.486-.05h-.048c-.146 0-.34 0-.486.05-.437.05-.874.249-1.262.498-.389.25-.68.548-.971.947-.243.399-.437.797-.535 1.296a3.872 3.872 0 000 1.495c.098.299.195.648.389.947.146.249.291.448.486.647l.097.1a5.776 5.776 0 011.02 1.645 5.13 5.13 0 01.388 1.943 4.37 4.37 0 01-.729 2.442c-.388.498-.728.797-.874.897l-.534-.15c-.534-.199-1.068-.448-1.554-.697a2.762 2.762 0 001.409-2.442c0-.648-.243-1.296-.777-1.894l-.146-.15-.388-.498a6.818 6.818 0 01-.972-2.093 6.402 6.402 0 01-.048-2.541c.146-.748.485-1.495.922-2.143.437-.598.972-1.146 1.603-1.545.68-.398 1.408-.697 2.185-.797.243-.05.534-.05.777-.05h.048c.243 0 .535 0 .777.05.777.1 1.506.399 2.185.797.632.399 1.166.947 1.603 1.545.437.648.777 1.395.922 2.143.195.847.146 1.694-.048 2.541-.194.748-.486 1.495-.971 2.093-.146.2-.243.35-.389.499l-.145.15-.049.05c-.486.647-.777 1.245-.777 1.893 0 .996.534 1.943 1.408 2.442a6.217 6.217 0 01-1.554.697l-.485.1M34.125 12a1.874 1.874 0 110-3.75 1.874 1.874 0 110 3.75"/>
  </g>
</svg>