<svg xmlns="http://www.w3.org/2000/svg" width="48" height="48" viewBox="0 0 48 48" aria-hidden="true" focusable="false">
  <title>Reliable</title>
  <g fill="none" fill-rule="evenodd" stroke-width="2">
    <path stroke="#EB1414" stroke-linecap="square" d="M36.063 28.343L42.514 34a6.026 6.026 0 01.431 8.51c-.068.075-.138.15-.21.225h0a6.026 6.026 0 01-8.522 0c-.075-.075-.142-.15-.21-.225L27 34.875"/>
    <path stroke="#EB1414" d="M22.33 19.33l-7.08-7.08v-3L10 4l-6 6 5.25 5.25h3l6.925 6.925"/>
    <path stroke="#0A0C38" stroke-linecap="square" d="M44.032 11.125L38.5 16.659l-6.654-6.654 5.529-5.533a11.356 11.356 0 00-3.95-.44 10.425 10.425 0 00-9.524 9.525 11.343 11.343 0 00.44 3.954L4.962 35.008a2.918 2.918 0 00-.207 4.121c.032.037.066.075.1.107l4.412 4.411a2.918 2.918 0 004.125-.006l.098-.103L31 24.16c1.282.379 2.62.528 3.954.44a10.425 10.425 0 009.525-9.524 11.359 11.359 0 00-.447-3.952h0z"/>
  </g>
</svg>