<?xml version="1.0" encoding="UTF-8"?>
<svg version="1.1" xmlns="http://www.w3.org/2000/svg" width="225" height="225">
<path d="M0 0 C74.25 0 148.5 0 225 0 C225 74.25 225 148.5 225 225 C150.75 225 76.5 225 0 225 C0 150.75 0 76.5 0 0 Z " fill="#FEFEFE" transform="translate(0,0)"/>
<path d="M0 0 C8.49264975 -0.44330317 16.98036452 -0.7792328 25.48177528 -0.98443127 C29.43149915 -1.08301328 33.37323737 -1.21617276 37.31835938 -1.43334961 C62.7346332 -2.79650559 62.7346332 -2.79650559 69.77819824 1.82147217 C74.23424799 6.17276615 77.16233281 11.13072014 79.83807373 16.71347046 C81.51452106 20.01251486 83.65184108 22.64577659 86 25.5 C90.7143848 31.57907513 95.26544793 37.77153353 99.81494141 43.97460938 C103.28149501 48.69268452 106.78680835 53.37379072 110.375 58 C114.70432723 63.58368529 118.88135584 69.25920828 123 75 C128.11928416 70.8610043 132.45239033 66.38428113 136.8046875 61.44921875 C138.68734973 59.34881088 140.61126513 57.34809897 142.625 55.375 C144.94951869 53.09643027 147.12730829 50.74850185 149.25 48.28125 C152.8587267 44.13154765 156.5960218 40.11936037 160.375 36.125 C165.16017468 31.04571214 169.89043751 25.93073941 174.53125 20.71875 C178.63268911 16.20197528 182.83529619 11.77885405 187.03710938 7.35546875 C187.66423828 6.69160156 188.29136719 6.02773437 188.9375 5.34375 C189.50339844 4.74755859 190.06929687 4.15136719 190.65234375 3.53710938 C192.09331933 2.02451004 192.09331933 2.02451004 193 0 C199.6 0 206.2 0 213 0 C213 2 213 2 210.8359375 4.29296875 C209.43214844 5.63294922 209.43214844 5.63294922 208 7 C206.20685792 8.76933931 204.41523466 10.54021898 202.625 12.3125 C201.73039063 13.19550781 200.83578125 14.07851563 199.9140625 14.98828125 C197.08502914 17.85148168 194.46446329 20.87754909 191.82958984 23.91870117 C188.19942134 28.04829638 184.38618875 32.00880693 180.60546875 36 C176.89375336 39.93457201 173.28794982 43.93795869 169.74169922 48.02197266 C166.84164734 51.3155275 163.82638022 54.49839419 160.8125 57.6875 C159.4957293 59.08689675 158.17932818 60.48664132 156.86328125 61.88671875 C156.21439941 62.57685059 155.56551758 63.26698242 154.89697266 63.97802734 C151.1110292 68.01344352 147.34779588 72.06929163 143.61328125 76.15234375 C141.98134107 77.93064628 140.33511636 79.69606746 138.66796875 81.44140625 C138.01441406 82.14136719 137.36085937 82.84132813 136.6875 83.5625 C136.13449219 84.14128906 135.58148438 84.72007813 135.01171875 85.31640625 C133.79038566 86.94571932 133.79038566 86.94571932 134.27441406 88.8671875 C135.07816881 91.2297721 136.10488172 92.81162215 137.59765625 94.80859375 C138.14381592 95.5449707 138.68997559 96.28134766 139.25268555 97.04003906 C139.84992432 97.83120117 140.44716309 98.62236328 141.0625 99.4375 C141.68229736 100.26862305 142.30209473 101.09974609 142.94067383 101.95605469 C148.323548 109.15470073 153.78207701 116.29644326 159.24194336 123.43676758 C164.43651157 130.23616174 169.52360048 137.10585962 174.55908203 144.0234375 C182.04600775 154.29354096 189.58414029 164.51380864 197.37109375 174.55859375 C201.28778448 179.65075087 205.06987375 184.84413092 208.86767578 190.02514648 C211.51872309 193.64024426 214.17487359 197.24861329 216.89453125 200.8125 C217.31919678 201.36993896 217.7438623 201.92737793 218.18139648 202.50170898 C219.29152107 203.9533405 220.40725487 205.40067768 221.5234375 206.84765625 C223 209 223 209 223 211 C214.63762065 211.42003978 206.27974537 211.73826462 197.90937614 211.93261909 C194.02055503 212.02599175 190.1390184 212.15212273 186.25439453 212.35791016 C161.31291017 213.64456352 161.31291017 213.64456352 154.27853394 209.33126831 C149.83474559 205.25883751 146.87799035 200.49514479 144.13867188 195.16638184 C142.68999041 192.4101908 140.89378339 190.04475816 138.95703125 187.61328125 C137.90630874 186.18155207 136.85802816 184.74802677 135.8125 183.3125 C135.23918945 182.53052246 134.66587891 181.74854492 134.07519531 180.94287109 C131.87247904 177.93722132 129.6762154 174.92689082 127.47998047 171.91650391 C122.27889056 164.78882539 117.04480221 157.69894222 111.64331055 150.72143555 C107.36538971 145.19453681 103.18102168 139.60034601 99 134 C98.00035626 132.66639955 97.00050175 131.33295687 96 130 C91.84765253 131.59026073 89.3223502 134.63797328 86.4375 137.875 C85.9115625 138.45507812 85.385625 139.03515625 84.84375 139.6328125 C83.75407216 140.8348552 82.66668155 142.03897512 81.58154297 143.24511719 C79.23785577 145.84567655 76.86839821 148.42191777 74.5 151 C73.59236816 151.99081236 72.68481671 152.98169837 71.77734375 153.97265625 C67.36740876 158.7833521 62.93628049 163.57450081 58.50732422 168.36767578 C57.02589866 169.97195361 55.54591008 171.57754366 54.06640625 173.18359375 C48.12577495 179.63031544 42.15707318 186.04981187 36.16967773 192.453125 C31.41749011 197.54053468 26.70655619 202.66435453 22.01171875 207.8046875 C19.08859109 210.99458604 19.08859109 210.99458604 17.14233398 211.11352539 C16.35157471 211.10828857 15.56081543 211.10305176 14.74609375 211.09765625 C13.89208984 211.09443359 13.03808594 211.09121094 12.15820312 211.08789062 C11.26037109 211.07951172 10.36253906 211.07113281 9.4375 211.0625 C8.53580078 211.05798828 7.63410156 211.05347656 6.70507812 211.04882812 C4.46998686 211.03700225 2.23502563 211.0205222 0 211 C1.42432416 208.02183282 2.77903265 206.02068318 5.1875 203.75 C8.38934904 200.72061589 11.24193729 197.45205958 14.12866211 194.12744141 C17.07086043 190.78258607 20.12799297 187.54976791 23.1875 184.3125 C24.51080806 182.9066183 25.83371972 181.50036339 27.15625 180.09375 C27.8059375 179.4028125 28.455625 178.711875 29.125 178 C31.82719241 175.11766143 34.51026048 172.21800706 37.1875 169.3125 C37.6719458 168.7868042 38.1563916 168.2611084 38.65551758 167.71948242 C40.10408905 166.14669916 41.55206724 164.57337127 43 163 C49.31150506 156.14611653 55.63856941 149.30760216 62 142.5 C66.54765637 137.63056363 71.0945458 132.76045248 75.625 127.875 C76.1096875 127.35486328 76.594375 126.83472656 77.09375 126.29882812 C79.8693647 123.29975292 82.48642122 120.22162914 85 117 C83.737051 113.50666408 82.30606779 110.82257525 79.98828125 107.92578125 C79.10402466 106.80840576 79.10402466 106.80840576 78.2019043 105.66845703 C77.26664917 104.5022583 77.26664917 104.5022583 76.3125 103.3125 C71.91856175 97.75436538 67.62554777 92.19064487 63.625 86.33984375 C58.77548627 79.35701028 53.51526965 72.65845489 48.3125 65.9375 C43.5446646 59.7727973 38.92572714 53.50221192 34.3137207 47.22045898 C30.09867317 41.4816806 25.84407773 35.77475288 21.55932617 30.08789062 C18.76411315 26.37152255 15.99438979 22.63795077 13.24609375 18.88671875 C12.29573242 17.59024414 12.29573242 17.59024414 11.32617188 16.26757812 C10.09211132 14.58175186 8.86024318 12.89431792 7.63085938 11.20507812 C7.07076172 10.44001953 6.51066406 9.67496094 5.93359375 8.88671875 C5.1919397 7.86904419 5.1919397 7.86904419 4.43530273 6.83081055 C3.03945769 4.9624349 3.03945769 4.9624349 1.31665039 3.38208008 C0 2 0 2 0 0 Z " fill="#868486" transform="translate(1,7)"/>
<path d="M0 0 C25.71758154 -3.30675384 25.71758154 -3.30675384 33.82910156 1.77099609 C38.70736763 6.51766527 42.05858088 12.23329351 45.35742188 18.14355469 C47.86789691 22.50927375 50.86644191 26.46975013 53.875 30.5 C54.93873458 31.97864718 56.00001412 33.45906422 57.05859375 34.94140625 C60.38100495 39.55413677 63.85054013 44.0394752 67.33984375 48.52734375 C71.26342922 53.61034193 75.02887532 58.81191101 78.82568359 63.98974609 C82.18302232 68.55963468 85.58190429 73.08583137 89.0625 77.5625 C92.9281663 82.54617763 96.63824213 87.62386147 100.3125 92.75 C105.1104708 99.4417954 110.03241427 106.01894095 115.05834961 112.54077148 C119.0645927 117.74966611 122.98748105 123.01450385 126.875 128.3125 C131.69493945 134.88027067 136.54584661 141.42293868 141.4375 147.9375 C142.04980469 148.75379883 142.66210938 149.57009766 143.29296875 150.41113281 C146.59982528 154.81623928 149.91765957 159.2127355 153.24609375 163.6015625 C153.93711182 164.51558838 154.62812988 165.42961426 155.34008789 166.37133789 C156.67055666 168.13087686 158.00424905 169.88798414 159.34155273 171.64233398 C159.93782471 172.43196533 160.53409668 173.22159668 161.1484375 174.03515625 C161.67614746 174.7300415 162.20385742 175.42492676 162.74755859 176.14086914 C164 178 164 178 165 181 C139.96852976 183.8241871 139.96852976 183.8241871 132.43066406 179.53955078 C128.12142986 175.58479579 125.31162525 170.67683323 122.50097656 165.59619141 C119.99105032 161.25485184 116.90773892 157.35941125 113.875 153.375 C112.70504732 151.78496472 111.53833715 150.19253811 110.375 148.59765625 C105.79242688 142.34239164 101.12995868 136.14766386 96.46777344 129.95166016 C93.47235736 125.96873333 90.48449778 121.98013315 87.49511719 117.99267578 C85.02256719 114.69513916 82.54841008 111.39883892 80.0703125 108.10546875 C74.75546863 101.03757509 69.48139625 93.94241056 64.25 86.8125 C58.43872016 78.89520063 52.50735506 71.07479269 46.54003906 63.2746582 C42.70022975 58.25001754 38.92959097 53.18856341 35.2421875 48.05078125 C31.93294549 43.54813663 28.52234488 39.12386327 25.125 34.6875 C20.05202694 28.06057491 15.05985058 21.39739314 10.25683594 14.57226562 C7.36067275 10.46497965 4.32408663 6.49384993 1.1796875 2.57421875 C0 1 0 1 0 0 Z " fill="#FDFDFD" transform="translate(30,22)"/>
</svg>
