<svg xmlns="http://www.w3.org/2000/svg" width="24" height="24" viewBox="0 0 24 24" fill="#d3dde7" aria-hidden="true" focusable="false">
  <title>Twitter</title>
  <path d="M24.857 4.125c-.964.429-1.982.696-3.053.857 1.071-.643 1.928-1.66 2.303-2.893a11.61 11.61 0 01-3.375 1.286 5.34 5.34 0 00-3.857-1.66 5.259 5.259 0 00-5.25 5.25c0 .428.054.803.16 1.178C7.447 7.929 3.536 5.839.912 2.625.482 3.429.214 4.285.214 5.25c0 1.821.911 3.429 2.357 4.393A6.199 6.199 0 01.161 9v.054a5.293 5.293 0 004.232 5.196A5.84 5.84 0 013 14.41c-.321 0-.696-.053-1.018-.106.697 2.089 2.625 3.642 4.929 3.642-1.822 1.393-4.072 2.25-6.536 2.25-.429 0-.857 0-1.232-.053a14.907 14.907 0 008.09 2.357c9.696 0 15-8.036 15-15v-.696a9.62 9.62 0 002.624-2.679z"/>
</svg>
