<svg xmlns="http://www.w3.org/2000/svg" width="48" height="48" viewBox="0 0 48 48" aria-hidden="true" focusable="false">
  <title>Twitter</title>
  <g fill="transparent" fill-rule="evenodd" stroke-width="2">
    <circle cx="23.925" cy="23.925" r="21.75" stroke="#eb1414" stroke-linecap="square"/>
    <path fill="#fff" stroke="#0a0c38" stroke-linejoin="round" d="M36 16.575c-.9.375-1.837.675-2.813.788a4.958 4.958 0 002.175-2.738 9.771 9.771 0 01-3.112 1.2c-.938-.975-2.212-1.575-3.637-1.575a4.905 4.905 0 00-4.913 4.913c0 .375.038.75.113 1.125-4.088-.188-7.726-2.175-10.125-5.138a4.986 4.986 0 00-.676 2.475c0 1.725.863 3.225 2.175 4.087a5.231 5.231 0 01-2.212-.6v.076c0 2.4 1.688 4.387 3.938 4.837a5.043 5.043 0 01-1.313.188c-.3 0-.637-.038-.938-.076a4.935 4.935 0 004.613 3.413 9.962 9.962 0 01-6.112 2.1c-.413 0-.788-.037-1.163-.075 2.175 1.35 4.762 2.175 7.538 2.175 9.075 0 14.024-7.5 14.024-14.025v-.638A10.355 10.355 0 0036 16.575z"/>
  </g>
</svg>