<svg xmlns="http://www.w3.org/2000/svg" width="24" height="24" viewBox="0 0 24 24" fill="#d3dde7" aria-hidden="true" focusable="false">
  <title>YouTube</title>
  <path id="a" d="M23.75 7.079s-.25-1.65-.95-2.4c-.9-.95-1.95-.95-2.4-1-3.35-.25-8.4-.25-8.4-.25s-5.05 0-8.4.25c-.45.05-1.5.05-2.4 1-.7.75-.95 2.4-.95 2.4S0 9.029 0 10.979v1.8c0 1.95.25 3.9.25 3.9s.25 1.65.95 2.4c.9.95 2.1.95 2.65 1.05 1.9.2 8.15.25 8.15.25s5.05 0 8.4-.25c.45-.05 1.5-.05 2.4-1 .7-.75.95-2.4.95-2.4s.25-1.95.25-3.9v-1.8c0-2-.25-3.95-.25-3.95zm-14.25 7.9v-6.75l6.5 3.4-6.5 3.35z"/>
</svg>
