<?xml version="1.0" encoding="utf-8"?>
<svg xmlns="http://www.w3.org/2000/svg" width="24" height="24" viewBox="0 0 24 24" aria-hidden="true" focusable="false">
  <title>Twitter</title>
  <circle cx="12" cy="12" r="12" fill="#eb1414" />
  <path fill="#1DA1F2" d="M24.857 4.125c-.964.429-1.982.696-3.053.857 1.071-.643 1.928-1.66 2.303-2.893a11.61 11.61 0 01-3.375 1.286 5.34 5.34 0 00-3.857-1.66 5.259 5.259 0 00-5.25 5.25c0 .428.054.803.16 1.178C7.447 7.929 3.536 5.839.912 2.625.482 3.429.214 4.285.214 5.25c0 1.821.911 3.429 2.357 4.393A6.199 6.199 0 01.161 9v.054a5.293 5.293 0 004.232 5.196A5.84 5.84 0 013 14.41c-.321 0-.696-.053-1.018-.106.697 2.089 2.625 3.642 4.929 3.642-1.822 1.393-4.072 2.25-6.536 2.25-.429 0-.857 0-1.232-.053a14.907 14.907 0 008.09 2.357c9.696 0 15-8.036 15-15v-.696a9.62 9.62 0 002.624-2.679z"/>
</svg>
<?xml version="1.0" encoding="utf-8"?>
<!-- Generator: Adobe Illustrator 27.5.0, SVG Export Plug-In . SVG Version: 6.00 Build 0)  -->
<svg version="1.1" id="svg5" xmlns:svg="http://www.w3.org/2000/svg"
	 xmlns="http://www.w3.org/2000/svg" xmlns:xlink="http://www.w3.org/1999/xlink" x="0px" y="0px" viewBox="0 0 1668.56 1221.19"
	 style="enable-background:new 0 0 1668.56 1221.19;" xml:space="preserve">
<style type="text/css">
	.st0{stroke:#FFFFFF;stroke-miterlimit:10;}
	.st1{fill:#FFFFFF;}
</style>
<g>
	<circle class="st0" cx="834.28" cy="610.6" r="481.33"/>
	<g id="layer1" transform="translate(52.390088,-25.058597)">
		<path id="path1009" class="st1" d="M485.39,356.79l230.07,307.62L483.94,914.52h52.11l202.7-218.98l163.77,218.98h177.32
			L836.82,589.6l215.5-232.81h-52.11L813.54,558.46L662.71,356.79H485.39z M562.02,395.17h81.46l359.72,480.97h-81.46L562.02,395.17
			z"/>
	</g>
</g>
</svg>
