<svg version="1.1" viewBox="0.0 0.0 650.0 371.0" fill="none" stroke="none" stroke-linecap="square" stroke-miterlimit="10" width="650" height="371" xmlns:xlink="http://www.w3.org/1999/xlink" xmlns="http://www.w3.org/2000/svg"><path fill="#384244" d="M0 0L650.0 0L650.0 371.0L0 371.0L0 0Z" fill-rule="nonzero"/><path stroke="#ffffff" stroke-width="1.0" stroke-linecap="butt" d="M77.5 332.5L631.5 332.5" fill-rule="nonzero"/><path stroke="#6d7476" stroke-width="1.0" stroke-linecap="butt" d="M77.5 258.5L631.5 258.5" fill-rule="nonzero"/><path stroke="#6d7476" stroke-width="1.0" stroke-linecap="butt" d="M77.5 185.5L631.5 185.5" fill-rule="nonzero"/><path stroke="#6d7476" stroke-width="1.0" stroke-linecap="butt" d="M77.5 111.5L631.5 111.5" fill-rule="nonzero"/><clipPath id="id_0"><path d="M77.55 111.78333L631.45 111.78333L631.45 332.45L77.55 332.45L77.55 111.78333Z" clip-rule="nonzero"/></clipPath><path stroke="#000000" stroke-width="2.0" stroke-linecap="butt" stroke-opacity="0.0" clip-path="url(#id_0)" d="M188.0 332.0L136.0 332.0L136.0 221.0C136.0 219.89543 136.89543 219.0 138.0 219.0L186.0 219.0C187.10457 219.0 188.0 219.89543 188.0 221.0Z" fill-rule="nonzero"/><path fill="#d9d9d9" clip-path="url(#id_0)" d="M188.0 332.0L136.0 332.0L136.0 221.0C136.0 219.89543 136.89543 219.0 138.0 219.0L186.0 219.0C187.10457 219.0 188.0 219.89543 188.0 221.0Z" fill-rule="nonzero"/><path stroke="#000000" stroke-width="2.0" stroke-linecap="butt" stroke-opacity="0.0" clip-path="url(#id_0)" d="M354.0 332.0L302.0 332.0L302.0 236.0C302.0 234.89543 302.89542 234.0 304.0 234.0L352.0 234.0C353.10458 234.0 354.0 234.89543 354.0 236.0Z" fill-rule="nonzero"/><path fill="#d9d9d9" clip-path="url(#id_0)" d="M354.0 332.0L302.0 332.0L302.0 236.0C302.0 234.89543 302.89542 234.0 304.0 234.0L352.0 234.0C353.10458 234.0 354.0 234.89543 354.0 236.0Z" fill-rule="nonzero"/><path stroke="#000000" stroke-width="2.0" stroke-linecap="butt" stroke-opacity="0.0" clip-path="url(#id_0)" d="M519.0 332.0L467.0 332.0L467.0 235.0C467.0 233.89543 467.89542 233.0 469.0 233.0L517.0 233.0C518.10455 233.0 519.0 233.89543 519.0 235.0Z" fill-rule="nonzero"/><path fill="#d9d9d9" clip-path="url(#id_0)" d="M519.0 332.0L467.0 332.0L467.0 235.0C467.0 233.89543 467.89542 233.0 469.0 233.0L517.0 233.0C518.10455 233.0 519.0 233.89543 519.0 235.0Z" fill-rule="nonzero"/><path stroke="#000000" stroke-width="2.0" stroke-linecap="butt" stroke-opacity="0.0" clip-path="url(#id_0)" d="M242.0 332.0L190.0 332.0L190.0 141.0C190.0 139.89543 190.89543 139.0 192.0 139.0L240.0 139.0C241.10457 139.0 242.0 139.89543 242.0 141.0Z" fill-rule="nonzero"/><path fill="#d7ff84" clip-path="url(#id_0)" d="M242.0 332.0L190.0 332.0L190.0 141.0C190.0 139.89543 190.89543 139.0 192.0 139.0L240.0 139.0C241.10457 139.0 242.0 139.89543 242.0 141.0Z" fill-rule="nonzero"/><path stroke="#000000" stroke-width="2.0" stroke-linecap="butt" stroke-opacity="0.0" clip-path="url(#id_0)" d="M408.0 332.0L356.0 332.0L356.0 171.0C356.0 169.89543 356.89542 169.0 358.0 169.0L406.0 169.0C407.10458 169.0 408.0 169.89543 408.0 171.0Z" fill-rule="nonzero"/><path fill="#d7ff84" clip-path="url(#id_0)" d="M408.0 332.0L356.0 332.0L356.0 171.0C356.0 169.89543 356.89542 169.0 358.0 169.0L406.0 169.0C407.10458 169.0 408.0 169.89543 408.0 171.0Z" fill-rule="nonzero"/><path stroke="#000000" stroke-width="2.0" stroke-linecap="butt" stroke-opacity="0.0" clip-path="url(#id_0)" d="M573.0 332.0L521.0 332.0L521.0 214.0C521.0 212.89543 521.89545 212.0 523.0 212.0L571.0 212.0C572.10455 212.0 573.0 212.89543 573.0 214.0Z" fill-rule="nonzero"/><path fill="#d7ff84" clip-path="url(#id_0)" d="M573.0 332.0L521.0 332.0L521.0 214.0C521.0 212.89543 521.89545 212.0 523.0 212.0L571.0 212.0C572.10455 212.0 573.0 212.89543 573.0 214.0Z" fill-rule="nonzero"/><path fill="#ffffff" d="M27.565638 282.46042L27.471888 281.4448Q28.190638 281.3198 28.518763 280.96042Q28.831263 280.58542 28.831263 280.02292Q28.831263 279.53854 28.612513 279.17917Q28.378138 278.80417 28.018763 278.5698Q27.643763 278.33542 27.018763 278.17917Q26.378138 278.02292 25.721888 278.02292Q25.643763 278.02292 25.503138 278.02292Q26.003138 278.33542 26.331263 278.8823Q26.643763 279.42917 26.643763 280.0698Q26.643763 281.14792 25.878138 281.8823Q25.096888 282.61667 23.831263 282.61667Q22.518763 282.61667 21.721888 281.85104Q20.925013 281.0698 20.925013 279.91354Q20.925013 279.08542 21.378138 278.39792Q21.831263 277.6948 22.675013 277.33542Q23.503138 276.97604 25.081263 276.97604Q26.721888 276.97604 27.706263 277.33542Q28.675013 277.67917 29.190638 278.39792Q29.690638 279.10104 29.690638 280.03854Q29.690638 281.05417 29.143763 281.6948Q28.581263 282.33542 27.565638 282.46042ZM23.768763 278.14792Q22.862513 278.14792 22.331263 278.6323Q21.800013 279.10104 21.800013 279.78854Q21.800013 280.49167 22.378138 281.02292Q22.940638 281.53854 23.862513 281.53854Q24.675013 281.53854 25.190638 281.03854Q25.706263 280.53854 25.706263 279.8198Q25.706263 279.08542 25.190638 278.61667Q24.675013 278.14792 23.768763 278.14792ZM27.565638 275.46042L27.471888 274.4448Q28.190638 274.3198 28.518763 273.96042Q28.831263 273.58542 28.831263 273.02292Q28.831263 272.53854 28.612513 272.17917Q28.378138 271.80417 28.018763 271.5698Q27.643763 271.33542 27.018763 271.17917Q26.378138 271.02292 25.721888 271.02292Q25.643763 271.02292 25.503138 271.02292Q26.003138 271.33542 26.331263 271.8823Q26.643763 272.42917 26.643763 273.0698Q26.643763 274.14792 25.878138 274.8823Q25.096888 275.61667 23.831263 275.61667Q22.518763 275.61667 21.721888 274.85104Q20.925013 274.0698 20.925013 272.91354Q20.925013 272.08542 21.378138 271.39792Q21.831263 270.6948 22.675013 270.33542Q23.503138 269.97604 25.081263 269.97604Q26.721888 269.97604 27.706263 270.33542Q28.675013 270.67917 29.190638 271.39792Q29.690638 272.10104 29.690638 273.03854Q29.690638 274.05417 29.143763 274.6948Q28.581263 275.33542 27.565638 275.46042ZM23.768763 271.14792Q22.862513 271.14792 22.331263 271.6323Q21.800013 272.10104 21.800013 272.78854Q21.800013 273.49167 22.378138 274.02292Q22.940638 274.53854 23.862513 274.53854Q24.675013 274.53854 25.190638 274.03854Q25.706263 273.53854 25.706263 272.8198Q25.706263 272.08542 25.190638 271.61667Q24.675013 271.14792 23.768763 271.14792ZM29.550013 268.02292L28.346888 268.02292L28.346888 266.8198L29.550013 266.8198L29.550013 268.02292ZM27.565638 265.46042L27.471888 264.4448Q28.190638 264.3198 28.518763 263.96042Q28.831263 263.58542 28.831263 263.02292Q28.831263 262.53854 28.612513 262.17917Q28.378138 261.80417 28.018763 261.5698Q27.643763 261.33542 27.018763 261.17917Q26.378138 261.02292 25.721888 261.02292Q25.643763 261.02292 25.503138 261.02292Q26.003138 261.33542 26.331263 261.8823Q26.643763 262.42917 26.643763 263.0698Q26.643763 264.14792 25.878138 264.8823Q25.096888 265.61667 23.831263 265.61667Q22.518763 265.61667 21.721888 264.85104Q20.925013 264.0698 20.925013 262.91354Q20.925013 262.08542 21.378138 261.39792Q21.831263 260.6948 22.675013 260.33542Q23.503138 259.97604 25.081263 259.97604Q26.721888 259.97604 27.706263 260.33542Q28.675013 260.67917 29.190638 261.39792Q29.690638 262.10104 29.690638 263.03854Q29.690638 264.05417 29.143763 264.6948Q28.581263 265.33542 27.565638 265.46042ZM23.768763 261.14792Q22.862513 261.14792 22.331263 261.6323Q21.800013 262.10104 21.800013 262.78854Q21.800013 263.49167 22.378138 264.02292Q22.940638 264.53854 23.862513 264.53854Q24.675013 264.53854 25.190638 264.03854Q25.706263 263.53854 25.706263 262.8198Q25.706263 262.08542 25.190638 261.61667Q24.675013 261.14792 23.768763 261.14792ZM23.018763 258.41354Q22.096888 258.41354 21.456263 257.96042Q20.815638 257.49167 20.815638 256.61667Q20.815638 255.80417 21.393763 255.27292Q21.971888 254.74167 23.081263 254.74167Q24.175013 254.74167 24.768763 255.28854Q25.346888 255.8198 25.346888 256.60104Q25.346888 257.3823 24.768763 257.89792Q24.190638 258.41354 23.018763 258.41354ZM21.534388 256.58542Q21.534388 256.97604 21.878138 257.24167Q22.221888 257.49167 23.128138 257.49167Q23.956263 257.49167 24.300013 257.24167Q24.628138 256.97604 24.628138 256.58542Q24.628138 256.17917 24.284388 255.92917Q23.940638 255.66354 23.050013 255.66354Q22.206263 255.66354 21.878138 255.92917Q21.534388 256.1948 21.534388 256.58542ZM29.862513 256.58542L20.815638 251.8823L20.815638 251.02292L29.862513 255.71042L29.862513 256.58542ZM27.534388 252.86667Q26.612513 252.86667 25.971888 252.41354Q25.331263 251.9448 25.331263 251.05417Q25.331263 250.24167 25.909388 249.71042Q26.471888 249.17917 27.596888 249.17917Q28.690638 249.17917 29.284388 249.72604Q29.862513 250.2573 29.862513 251.05417Q29.862513 251.8198 29.284388 252.35104Q28.706263 252.86667 27.534388 252.86667ZM26.050013 251.02292Q26.050013 251.42917 26.393763 251.6948Q26.737513 251.9448 27.643763 251.9448Q28.456263 251.9448 28.800013 251.67917Q29.143763 251.41354 29.143763 251.02292Q29.143763 250.6323 28.800013 250.36667Q28.456263 250.10104 27.550013 250.10104Q26.721888 250.10104 26.393763 250.36667Q26.050013 250.6323 26.050013 251.02292ZM29.550013 244.24167L20.956263 244.24167L20.956263 243.10104L28.534388 243.10104L28.534388 238.86667L29.550013 238.86667L29.550013 244.24167ZM28.784388 233.2573Q29.284388 233.85104 29.487513 234.39792Q29.690638 234.92917 29.690638 235.55417Q29.690638 236.58542 29.190638 237.1323Q28.690638 237.67917 27.909388 237.67917Q27.456263 237.67917 27.081263 237.47604Q26.690638 237.27292 26.471888 236.92917Q26.237513 236.58542 26.128138 236.16354Q26.034388 235.86667 25.956263 235.22604Q25.815638 233.96042 25.596888 233.35104Q25.378138 233.35104 25.331263 233.35104Q24.675013 233.35104 24.409388 233.64792Q24.065638 234.05417 24.065638 234.85104Q24.065638 235.58542 24.331263 235.9448Q24.581263 236.30417 25.237513 236.47604L25.096888 237.5073Q24.440638 237.36667 24.034388 237.03854Q23.628138 236.71042 23.409388 236.10104Q23.190638 235.49167 23.190638 234.6948Q23.190638 233.89792 23.378138 233.39792Q23.565638 232.89792 23.846888 232.66354Q24.128138 232.42917 24.565638 232.33542Q24.831263 232.28854 25.534388 232.28854L26.940638 232.28854Q28.409388 232.28854 28.800013 232.22604Q29.190638 232.14792 29.550013 231.9448L29.550013 233.05417Q29.221888 233.21042 28.784388 233.2573ZM26.425013 233.35104Q26.659388 233.92917 26.831263 235.0698Q26.925013 235.72604 27.050013 235.99167Q27.159388 236.2573 27.378138 236.41354Q27.596888 236.55417 27.878138 236.55417Q28.300013 236.55417 28.581263 236.24167Q28.862513 235.91354 28.862513 235.30417Q28.862513 234.6948 28.596888 234.22604Q28.331263 233.74167 27.862513 233.52292Q27.503138 233.35104 26.815638 233.35104L26.425013 233.35104ZM28.612513 228.02292L29.534388 227.86667Q29.628138 228.3198 29.628138 228.66354Q29.628138 229.24167 29.456263 229.55417Q29.268763 229.86667 28.971888 230.0073Q28.675013 230.1323 27.721888 230.1323L24.143763 230.1323L24.143763 230.89792L23.331263 230.89792L23.331263 230.1323L21.784388 230.1323L21.159388 229.08542L23.331263 229.08542L23.331263 228.02292L24.143763 228.02292L24.143763 229.08542L27.784388 229.08542Q28.237513 229.08542 28.362513 229.03854Q28.487513 228.97604 28.565638 228.85104Q28.643763 228.72604 28.643763 228.49167Q28.643763 228.30417 28.612513 228.02292ZM27.550013 223.0698L27.675013 221.97604Q28.628138 222.22604 29.159388 222.92917Q29.690638 223.6323 29.690638 224.71042Q29.690638 226.0698 28.846888 226.8823Q28.003138 227.67917 26.487513 227.67917Q24.925013 227.67917 24.065638 226.86667Q23.190638 226.05417 23.190638 224.77292Q23.190638 223.52292 24.034388 222.74167Q24.878138 221.9448 26.425013 221.9448Q26.518763 221.9448 26.706263 221.9448L26.706263 226.58542Q27.737513 226.52292 28.284388 226.0073Q28.815638 225.49167 28.815638 224.71042Q28.815638 224.1323 28.518763 223.72604Q28.206263 223.30417 27.550013 223.0698ZM25.846888 226.52292L25.846888 223.05417Q25.050013 223.11667 24.659388 223.4448Q24.050013 223.96042 24.050013 224.7573Q24.050013 225.49167 24.534388 225.99167Q25.018763 226.47604 25.846888 226.52292ZM29.550013 220.3198L23.331263 220.3198L23.331263 219.3823L24.206263 219.3823Q23.190638 218.6948 23.190638 217.39792Q23.190638 216.83542 23.393763 216.36667Q23.596888 215.8823 23.925013 215.64792Q24.253138 215.41354 24.690638 215.3198Q24.987513 215.27292 25.721888 215.27292L29.550013 215.27292L29.550013 216.3198L25.768763 216.3198Q25.112513 216.3198 24.800013 216.4448Q24.487513 216.5698 24.300013 216.8823Q24.096888 217.1948 24.096888 217.61667Q24.096888 218.28854 24.534388 218.78854Q24.956263 219.27292 26.143763 219.27292L29.550013 219.27292L29.550013 220.3198ZM27.268763 209.2573L27.409388 208.22604Q28.471888 208.39792 29.081263 209.10104Q29.690638 209.80417 29.690638 210.8198Q29.690638 212.10104 28.862513 212.8823Q28.018763 213.64792 26.456263 213.64792Q25.456263 213.64792 24.706263 213.3198Q23.940638 212.97604 23.565638 212.30417Q23.190638 211.61667 23.190638 210.80417Q23.190638 209.80417 23.706263 209.16354Q24.206263 208.5073 25.159388 208.3198L25.315638 209.35104Q24.690638 209.49167 24.378138 209.86667Q24.050013 210.24167 24.050013 210.77292Q24.050013 211.5698 24.628138 212.0698Q25.190638 212.5698 26.425013 212.5698Q27.690638 212.5698 28.253138 212.08542Q28.815638 211.60104 28.815638 210.83542Q28.815638 210.21042 28.440638 209.80417Q28.065638 209.3823 27.268763 209.2573ZM31.940638 207.36667L30.956263 207.49167Q31.050013 207.14792 31.050013 206.8823Q31.050013 206.53854 30.925013 206.33542Q30.815638 206.11667 30.612513 205.97604Q30.440638 205.8823 29.815638 205.64792Q29.737513 205.6323 29.565638 205.55417L23.331263 207.92917L23.331263 206.78854L26.925013 205.49167Q27.612513 205.24167 28.378138 205.03854Q27.643763 204.85104 26.956263 204.60104L23.331263 203.27292L23.331263 202.22604L29.659388 204.58542Q30.675013 204.97604 31.065638 205.17917Q31.596888 205.46042 31.831263 205.83542Q32.08126 206.1948 32.08126 206.6948Q32.08126 206.99167 31.940638 207.36667ZM32.08126 197.30417Q30.971888 198.17917 29.503138 198.78854Q28.018763 199.3823 26.440638 199.3823Q25.050013 199.3823 23.768763 198.9448Q22.284388 198.41354 20.815638 197.30417L20.815638 196.55417Q22.034388 197.2573 22.550013 197.49167Q23.362513 197.85104 24.237513 198.05417Q25.331263 198.30417 26.440638 198.30417Q29.268763 198.30417 32.08126 196.55417L32.08126 197.30417ZM29.550013 195.3198L23.331263 195.3198L23.331263 194.3823L24.206263 194.3823Q23.737513 194.08542 23.471888 193.60104Q23.190638 193.11667 23.190638 192.49167Q23.190638 191.80417 23.471888 191.36667Q23.753138 190.91354 24.268763 190.74167Q23.190638 189.99167 23.190638 188.8198Q23.190638 187.8823 23.706263 187.39792Q24.206263 186.89792 25.284388 186.89792L29.550013 186.89792L29.550013 187.9448L25.628138 187.9448Q25.003138 187.9448 24.721888 188.05417Q24.440638 188.14792 24.268763 188.41354Q24.096888 188.67917 24.096888 189.05417Q24.096888 189.71042 24.534388 190.14792Q24.971888 190.5698 25.940638 190.5698L29.550013 190.5698L29.550013 191.6323L25.503138 191.6323Q24.800013 191.6323 24.456263 191.89792Q24.096888 192.14792 24.096888 192.72604Q24.096888 193.17917 24.331263 193.55417Q24.565638 193.92917 25.018763 194.10104Q25.471888 194.27292 26.315638 194.27292L29.550013 194.27292L29.550013 195.3198ZM27.690638 184.74167L27.534388 183.71042Q28.159388 183.61667 28.487513 183.22604Q28.815638 182.8198 28.815638 182.08542Q28.815638 181.36667 28.534388 181.02292Q28.237513 180.66354 27.831263 180.66354Q27.471888 180.66354 27.268763 180.97604Q27.128138 181.1948 26.909388 182.05417Q26.612513 183.21042 26.409388 183.66354Q26.190638 184.10104 25.815638 184.33542Q25.440638 184.5698 24.971888 184.5698Q24.565638 184.5698 24.206263 184.3823Q23.846888 184.1948 23.612513 183.86667Q23.440638 183.61667 23.315638 183.1948Q23.190638 182.77292 23.190638 182.27292Q23.190638 181.55417 23.409388 181.0073Q23.612513 180.4448 23.971888 180.17917Q24.331263 179.91354 24.925013 179.8198L25.065638 180.85104Q24.596888 180.91354 24.331263 181.2573Q24.050013 181.58542 24.050013 182.21042Q24.050013 182.92917 24.300013 183.24167Q24.534388 183.55417 24.862513 183.55417Q25.065638 183.55417 25.221888 183.42917Q25.393763 183.28854 25.503138 183.02292Q25.565638 182.86667 25.768763 182.08542Q26.081263 180.96042 26.268763 180.52292Q26.456263 180.08542 26.815638 179.83542Q27.175013 179.58542 27.721888 179.58542Q28.253138 179.58542 28.721888 179.89792Q29.175013 180.1948 29.440638 180.77292Q29.690638 181.35104 29.690638 182.08542Q29.690638 183.30417 29.190638 183.9448Q28.675013 184.5698 27.690638 184.74167ZM32.08126 176.6323L32.08126 177.3823Q29.268763 175.6323 26.440638 175.6323Q25.346888 175.6323 24.253138 175.8823Q23.378138 176.08542 22.565638 176.4448Q22.050013 176.67917 20.815638 177.3823L20.815638 176.6323Q22.284388 175.53854 23.768763 175.0073Q25.050013 174.55417 26.440638 174.55417Q28.018763 174.55417 29.503138 175.16354Q30.971888 175.77292 32.08126 176.6323Z" fill-rule="nonzero"/><path fill="#ffffff" d="M65.05 332.21564Q65.05 330.6844 65.3625 329.7625Q65.675 328.825 66.28438 328.325Q66.90938 327.825 67.84688 327.825Q68.53438 327.825 69.05 328.10626Q69.58125 328.3875 69.925 328.91876Q70.26875 329.4344 70.45625 330.1844Q70.64375 330.9344 70.64375 332.21564Q70.64375 333.73126 70.33125 334.65314Q70.03438 335.575 69.40938 336.09064Q68.8 336.59064 67.84688 336.59064Q66.6125 336.59064 65.89375 335.7Q65.05 334.6375 65.05 332.21564ZM66.12813 332.21564Q66.12813 334.325 66.62813 335.02814Q67.12813 335.73126 67.84688 335.73126Q68.58125 335.73126 69.06563 335.02814Q69.56563 334.325 69.56563 332.21564Q69.56563 330.09064 69.06563 329.40314Q68.58125 328.7 67.83125 328.7Q67.1125 328.7 66.675 329.3094Q66.12813 330.09064 66.12813 332.21564Z" fill-rule="nonzero"/><path fill="#ffffff" d="M63.596874 261.8788L63.596874 262.89444L57.909374 262.89444Q57.909374 262.51944 58.034374 262.16006Q58.253124 261.58194 58.721874 261.01944Q59.20625 260.45694 60.1125 259.72256Q61.51875 258.5663 62.003124 257.89444Q62.503124 257.22256 62.503124 256.6288Q62.503124 256.0038 62.05 255.58194Q61.596874 255.14444 60.878124 255.14444Q60.1125 255.14444 59.659374 255.59756Q59.20625 256.0507 59.190624 256.8632L58.1125 256.7538Q58.221874 255.53506 58.940624 254.91006Q59.675 254.26944 60.909374 254.26944Q62.14375 254.26944 62.8625 254.95694Q63.58125 255.64444 63.58125 256.66006Q63.58125 257.1757 63.3625 257.6757Q63.159374 258.16006 62.659374 258.72256Q62.175 259.26944 61.05 260.22256Q60.096874 261.01944 59.815624 261.3163Q59.55 261.59756 59.378124 261.8788L63.596874 261.8788ZM65.05 258.66006Q65.05 257.1288 65.3625 256.20694Q65.675 255.26944 66.28438 254.76944Q66.90938 254.26944 67.84688 254.26944Q68.53438 254.26944 69.05 254.55069Q69.58125 254.83194 69.925 255.36319Q70.26875 255.87881 70.45625 256.6288Q70.64375 257.3788 70.64375 258.66006Q70.64375 260.1757 70.33125 261.09756Q70.03438 262.01944 69.40938 262.53506Q68.8 263.03506 67.84688 263.03506Q66.6125 263.03506 65.89375 262.14444Q65.05 261.08194 65.05 258.66006ZM66.12813 258.66006Q66.12813 260.76944 66.62813 261.47256Q67.12813 262.1757 67.84688 262.1757Q68.58125 262.1757 69.06563 261.47256Q69.56563 260.76944 69.56563 258.66006Q69.56563 256.53506 69.06563 255.84756Q68.58125 255.14444 67.83125 255.14444Q67.1125 255.14444 66.675 255.75381Q66.12813 256.53506 66.12813 258.66006Z" fill-rule="nonzero"/><path fill="#ffffff" d="M61.425 189.33888L61.425 187.27638L57.70625 187.27638L57.70625 186.30763L61.628124 180.74513L62.4875 180.74513L62.4875 186.30763L63.64375 186.30763L63.64375 187.27638L62.4875 187.27638L62.4875 189.33888L61.425 189.33888ZM61.425 186.30763L61.425 182.44826L58.7375 186.30763L61.425 186.30763ZM65.05 185.1045Q65.05 183.57326 65.3625 182.65138Q65.675 181.71388 66.28438 181.21388Q66.90938 180.71388 67.84688 180.71388Q68.53438 180.71388 69.05 180.99513Q69.58125 181.27638 69.925 181.80763Q70.26875 182.32326 70.45625 183.07326Q70.64375 183.82326 70.64375 185.1045Q70.64375 186.62013 70.33125 187.542Q70.03438 188.46388 69.40938 188.9795Q68.8 189.4795 67.84688 189.4795Q66.6125 189.4795 65.89375 188.58888Q65.05 187.52638 65.05 185.1045ZM66.12813 185.1045Q66.12813 187.21388 66.62813 187.917Q67.12813 188.62013 67.84688 188.62013Q68.58125 188.62013 69.06563 187.917Q69.56563 187.21388 69.56563 185.1045Q69.56563 182.9795 69.06563 182.292Q68.58125 181.58888 67.83125 181.58888Q67.1125 181.58888 66.675 182.19826Q66.12813 182.9795 66.12813 185.1045Z" fill-rule="nonzero"/><path fill="#ffffff" d="M63.51875 109.29896L62.471874 109.37708Q62.33125 108.75208 62.08125 108.47083Q61.64375 108.01771 61.01875 108.01771Q60.51875 108.01771 60.128124 108.29896Q59.64375 108.67396 59.346874 109.37708Q59.065624 110.06458 59.05 111.34583Q59.425 110.76771 59.971874 110.48646Q60.534374 110.20521 61.14375 110.20521Q62.190624 110.20521 62.925 110.98646Q63.675 111.76771 63.675 112.98646Q63.675 113.79896 63.315624 114.50208Q62.971874 115.18958 62.3625 115.56458Q61.753124 115.92396 60.9875 115.92396Q59.659374 115.92396 58.83125 114.95521Q58.003124 113.98646 58.003124 111.76771Q58.003124 109.26771 58.925 108.14271Q59.721874 107.15833 61.08125 107.15833Q62.096874 107.15833 62.7375 107.73646Q63.39375 108.29896 63.51875 109.29896ZM59.221874 113.00208Q59.221874 113.54896 59.440624 114.04896Q59.675 114.53333 60.08125 114.79896Q60.503124 115.06458 60.971874 115.06458Q61.628124 115.06458 62.1125 114.53333Q62.596874 113.98646 62.596874 113.06458Q62.596874 112.17396 62.1125 111.65833Q61.64375 111.14271 60.925 111.14271Q60.20625 111.14271 59.70625 111.65833Q59.221874 112.17396 59.221874 113.00208ZM65.05 111.54896Q65.05 110.01771 65.3625 109.09583Q65.675 108.15833 66.28438 107.65833Q66.90938 107.15833 67.84688 107.15833Q68.53438 107.15833 69.05 107.43958Q69.58125 107.72083 69.925 108.25208Q70.26875 108.76771 70.45625 109.51771Q70.64375 110.26771 70.64375 111.54896Q70.64375 113.06458 70.33125 113.98646Q70.03438 114.90833 69.40938 115.42396Q68.8 115.92396 67.84688 115.92396Q66.6125 115.92396 65.89375 115.03333Q65.05 113.97083 65.05 111.54896ZM66.12813 111.54896Q66.12813 113.65833 66.62813 114.36146Q67.12813 115.06458 67.84688 115.06458Q68.58125 115.06458 69.06563 114.36146Q69.56563 113.65833 69.56563 111.54896Q69.56563 109.42396 69.06563 108.73646Q68.58125 108.03333 67.83125 108.03333Q67.1125 108.03333 66.675 108.64271Q66.12813 109.42396 66.12813 111.54896Z" fill-rule="nonzero"/><path fill="#ffffff" d="M168.67235 349.45L166.31297 343.23126L167.42235 343.23126L168.7661 346.95Q168.96922 347.5594 169.15672 348.2Q169.29735 347.71564 169.54735 347.02814L170.93797 343.23126L172.0161 343.23126L169.65672 349.45L168.67235 349.45ZM175.62547 349.45L174.5786 349.45L174.5786 342.73126Q174.18797 343.09064 173.56297 343.46564Q172.9536 343.825 172.46922 343.9969L172.46922 342.98126Q173.34422 342.5594 174.00047 341.98126Q174.67235 341.3875 174.9536 340.825L175.62547 340.825L175.62547 349.45ZM184.12547 342.96564L183.0786 343.04376Q182.93797 342.41876 182.68797 342.1375Q182.25047 341.6844 181.62547 341.6844Q181.12547 341.6844 180.73485 341.96564Q180.25047 342.34064 179.9536 343.04376Q179.67235 343.73126 179.65672 345.0125Q180.03172 344.4344 180.5786 344.15314Q181.1411 343.8719 181.75047 343.8719Q182.79735 343.8719 183.53172 344.65314Q184.28172 345.4344 184.28172 346.65314Q184.28172 347.46564 183.92235 348.16876Q183.5786 348.85626 182.96922 349.23126Q182.35985 349.59064 181.59422 349.59064Q180.2661 349.59064 179.43797 348.6219Q178.60985 347.65314 178.60985 345.4344Q178.60985 342.9344 179.53172 341.8094Q180.3286 340.825 181.68797 340.825Q182.7036 340.825 183.34422 341.40314Q184.00047 341.96564 184.12547 342.96564ZM179.8286 346.66876Q179.8286 347.21564 180.04735 347.71564Q180.28172 348.2 180.68797 348.46564Q181.10985 348.73126 181.5786 348.73126Q182.23485 348.73126 182.71922 348.2Q183.2036 347.65314 183.2036 346.73126Q183.2036 345.84064 182.71922 345.325Q182.25047 344.8094 181.53172 344.8094Q180.81297 344.8094 180.31297 345.325Q179.8286 345.84064 179.8286 346.66876ZM186.25047 349.45L186.25047 348.2469L187.4536 348.2469L187.4536 349.45L186.25047 349.45ZM194.2036 348.4344L194.2036 349.45L188.5161 349.45Q188.5161 349.075 188.6411 348.71564Q188.85985 348.1375 189.3286 347.575Q189.81297 347.0125 190.71922 346.27814Q192.12547 345.1219 192.60985 344.45Q193.10985 343.77814 193.10985 343.1844Q193.10985 342.5594 192.65672 342.1375Q192.2036 341.7 191.48485 341.7Q190.71922 341.7 190.2661 342.15314Q189.81297 342.60626 189.79735 343.41876L188.71922 343.3094Q188.8286 342.09064 189.54735 341.46564Q190.28172 340.825 191.5161 340.825Q192.75047 340.825 193.46922 341.5125Q194.18797 342.2 194.18797 343.21564Q194.18797 343.73126 193.96922 344.23126Q193.7661 344.71564 193.2661 345.27814Q192.78172 345.825 191.65672 346.77814Q190.7036 347.575 190.42235 347.8719Q190.15672 348.15314 189.98485 348.4344L194.2036 348.4344ZM196.25047 349.45L196.25047 348.2469L197.4536 348.2469L197.4536 349.45L196.25047 349.45ZM202.62547 349.45L201.5786 349.45L201.5786 342.73126Q201.18797 343.09064 200.56297 343.46564Q199.9536 343.825 199.46922 343.9969L199.46922 342.98126Q200.34422 342.5594 201.00047 341.98126Q201.67235 341.3875 201.9536 340.825L202.62547 340.825L202.62547 349.45ZM205.65672 347.1844L206.71922 347.04376Q206.8911 347.9344 207.3286 348.34064Q207.7661 348.73126 208.3911 348.73126Q209.1411 348.73126 209.65672 348.21564Q210.17235 347.7 210.17235 346.9344Q210.17235 346.21564 209.68797 345.7469Q209.21922 345.2625 208.48485 345.2625Q208.18797 345.2625 207.73485 345.3875L207.85985 344.45Q207.96922 344.46564 208.03172 344.46564Q208.7036 344.46564 209.23485 344.1219Q209.78172 343.7625 209.78172 343.02814Q209.78172 342.45 209.3911 342.075Q209.00047 341.6844 208.37547 341.6844Q207.7661 341.6844 207.34422 342.075Q206.93797 342.46564 206.8286 343.23126L205.7661 343.04376Q205.9536 341.9969 206.6411 341.41876Q207.3286 340.825 208.34422 340.825Q209.04735 340.825 209.6411 341.1375Q210.23485 341.4344 210.54735 341.95Q210.85985 342.46564 210.85985 343.0594Q210.85985 343.60626 210.56297 344.075Q210.2661 344.52814 209.68797 344.79376Q210.43797 344.96564 210.85985 345.52814Q211.28172 346.075 211.28172 346.91876Q211.28172 348.04376 210.4536 348.825Q209.6411 349.60626 208.3911 349.60626Q207.2661 349.60626 206.5161 348.9344Q205.7661 348.2469 205.65672 347.1844Z" fill-rule="nonzero"/><path fill="#ffffff" d="M337.51562 349.45L335.15625 343.23126L336.26562 343.23126L337.60938 346.95Q337.8125 347.5594 338.0 348.2Q338.14062 347.71564 338.39062 347.02814L339.78125 343.23126L340.85938 343.23126L338.5 349.45L337.51562 349.45ZM344.46875 349.45L343.42188 349.45L343.42188 342.73126Q343.03125 343.09064 342.40625 343.46564Q341.79688 343.825 341.3125 343.9969L341.3125 342.98126Q342.1875 342.5594 342.84375 341.98126Q343.51562 341.3875 343.79688 340.825L344.46875 340.825L344.46875 349.45ZM347.5625 341.98126L347.5625 340.96564L353.125 340.96564L353.125 341.79376Q352.3125 342.66876 351.5 344.1219Q350.70312 345.5594 350.26562 347.09064Q349.9375 348.16876 349.85938 349.45L348.76562 349.45Q348.78125 348.4344 349.15625 346.9969Q349.54688 345.5594 350.25 344.23126Q350.96875 342.90314 351.78125 341.98126L347.5625 341.98126ZM355.09375 349.45L355.09375 348.2469L356.29688 348.2469L356.29688 349.45L355.09375 349.45ZM363.04688 348.4344L363.04688 349.45L357.35938 349.45Q357.35938 349.075 357.48438 348.71564Q357.70312 348.1375 358.17188 347.575Q358.65625 347.0125 359.5625 346.27814Q360.96875 345.1219 361.45312 344.45Q361.95312 343.77814 361.95312 343.1844Q361.95312 342.5594 361.5 342.1375Q361.04688 341.7 360.32812 341.7Q359.5625 341.7 359.10938 342.15314Q358.65625 342.60626 358.64062 343.41876L357.5625 343.3094Q357.67188 342.09064 358.39062 341.46564Q359.125 340.825 360.35938 340.825Q361.59375 340.825 362.3125 341.5125Q363.03125 342.2 363.03125 343.21564Q363.03125 343.73126 362.8125 344.23126Q362.60938 344.71564 362.10938 345.27814Q361.625 345.825 360.5 346.77814Q359.54688 347.575 359.26562 347.8719Q359.0 348.15314 358.82812 348.4344L363.04688 348.4344ZM365.09375 349.45L365.09375 348.2469L366.29688 348.2469L366.29688 349.45L365.09375 349.45ZM372.96875 342.96564L371.92188 343.04376Q371.78125 342.41876 371.53125 342.1375Q371.09375 341.6844 370.46875 341.6844Q369.96875 341.6844 369.57812 341.96564Q369.09375 342.34064 368.79688 343.04376Q368.51562 343.73126 368.5 345.0125Q368.875 344.4344 369.42188 344.15314Q369.98438 343.8719 370.59375 343.8719Q371.64062 343.8719 372.375 344.65314Q373.125 345.4344 373.125 346.65314Q373.125 347.46564 372.76562 348.16876Q372.42188 348.85626 371.8125 349.23126Q371.20312 349.59064 370.4375 349.59064Q369.10938 349.59064 368.28125 348.6219Q367.45312 347.65314 367.45312 345.4344Q367.45312 342.9344 368.375 341.8094Q369.17188 340.825 370.53125 340.825Q371.54688 340.825 372.1875 341.40314Q372.84375 341.96564 372.96875 342.96564ZM368.67188 346.66876Q368.67188 347.21564 368.89062 347.71564Q369.125 348.2 369.53125 348.46564Q369.95312 348.73126 370.42188 348.73126Q371.07812 348.73126 371.5625 348.2Q372.04688 347.65314 372.04688 346.73126Q372.04688 345.84064 371.5625 345.325Q371.09375 344.8094 370.375 344.8094Q369.65625 344.8094 369.15625 345.325Q368.67188 345.84064 368.67188 346.66876Z" fill-rule="nonzero"/><path fill="#ffffff" d="M502.85892 349.45L500.49954 343.23126L501.60892 343.23126L502.95267 346.95Q503.1558 347.5594 503.3433 348.2Q503.48392 347.71564 503.73392 347.02814L505.12454 343.23126L506.20267 343.23126L503.8433 349.45L502.85892 349.45ZM509.81204 349.45L508.76517 349.45L508.76517 342.73126Q508.37454 343.09064 507.74954 343.46564Q507.14017 343.825 506.6558 343.9969L506.6558 342.98126Q507.5308 342.5594 508.18704 341.98126Q508.85892 341.3875 509.14017 340.825L509.81204 340.825L509.81204 349.45ZM514.46826 344.79376Q513.812 344.54376 513.4839 344.10626Q513.1714 343.65314 513.1714 343.04376Q513.1714 342.10626 513.84326 341.46564Q514.53076 340.825 515.64014 340.825Q516.76514 340.825 517.45264 341.48126Q518.14014 342.1375 518.14014 343.075Q518.14014 343.66876 517.82764 344.10626Q517.51514 344.54376 516.8745 344.79376Q517.6714 345.04376 518.07764 345.6219Q518.4839 346.2 518.4839 346.9969Q518.4839 348.09064 517.70264 348.84064Q516.937 349.59064 515.65576 349.59064Q514.39014 349.59064 513.6089 348.84064Q512.82764 348.09064 512.82764 346.96564Q512.82764 346.1219 513.2495 345.5594Q513.687 344.9969 514.46826 344.79376ZM514.2495 342.9969Q514.2495 343.60626 514.64014 343.9969Q515.0464 344.3875 515.6714 344.3875Q516.28076 344.3875 516.6714 344.0125Q517.062 343.6219 517.062 343.0594Q517.062 342.48126 516.65576 342.09064Q516.2495 341.6844 515.65576 341.6844Q515.0464 341.6844 514.64014 342.075Q514.2495 342.46564 514.2495 342.9969ZM513.9214 346.96564Q513.9214 347.41876 514.1245 347.84064Q514.34326 348.2625 514.76514 348.4969Q515.187 348.73126 515.6714 348.73126Q516.4214 348.73126 516.90576 348.2469Q517.40576 347.7625 517.40576 347.0125Q517.40576 346.2469 516.90576 345.7469Q516.40576 345.2469 515.64014 345.2469Q514.89014 345.2469 514.40576 345.7469Q513.9214 346.23126 513.9214 346.96564ZM520.437 349.45L520.437 348.2469L521.64014 348.2469L521.64014 349.45L520.437 349.45ZM526.812 349.45L525.76514 349.45L525.76514 342.73126Q525.3745 343.09064 524.7495 343.46564Q524.14014 343.825 523.65576 343.9969L523.65576 342.98126Q524.53076 342.5594 525.187 341.98126Q525.8589 341.3875 526.14014 340.825L526.812 340.825L526.812 349.45ZM530.437 349.45L530.437 348.2469L531.64014 348.2469L531.64014 349.45L530.437 349.45ZM532.84326 345.21564Q532.84326 343.6844 533.15576 342.7625Q533.46826 341.825 534.07764 341.325Q534.70264 340.825 535.64014 340.825Q536.32764 340.825 536.84326 341.10626Q537.3745 341.3875 537.71826 341.91876Q538.062 342.4344 538.2495 343.1844Q538.437 343.9344 538.437 345.21564Q538.437 346.73126 538.1245 347.65314Q537.82764 348.575 537.20264 349.09064Q536.59326 349.59064 535.64014 349.59064Q534.40576 349.59064 533.687 348.7Q532.84326 347.6375 532.84326 345.21564ZM533.9214 345.21564Q533.9214 347.325 534.4214 348.02814Q534.9214 348.73126 535.64014 348.73126Q536.3745 348.73126 536.8589 348.02814Q537.3589 347.325 537.3589 345.21564Q537.3589 343.09064 536.8589 342.40314Q536.3745 341.7 535.6245 341.7Q534.90576 341.7 534.46826 342.3094Q533.9214 343.09064 533.9214 345.21564Z" fill-rule="nonzero"/><path fill="#d9d9d9" d="M271.5 80.416664C271.5 79.86438 271.94772 79.416664 272.5 79.416664L282.5 79.416664C283.05228 79.416664 283.5 79.86438 283.5 80.416664L283.5 90.416664C283.5 90.96895 283.05228 91.416664 282.5 91.416664L272.5 91.416664C271.94772 91.416664 271.5 90.96895 271.5 90.416664Z" fill-rule="nonzero"/><path fill="#ffffff" d="M292.28125 89.416664L292.28125 83.197914L293.23438 83.197914L293.23438 84.135414Q293.59375 83.479164 293.89062 83.27604Q294.20312 83.05729 294.57812 83.05729Q295.10938 83.05729 295.65625 83.385414L295.29688 84.36979Q294.90625 84.135414 294.53125 84.135414Q294.17188 84.135414 293.89062 84.354164Q293.625 84.55729 293.51562 84.93229Q293.32812 85.49479 293.32812 86.15104L293.32812 89.416664L292.28125 89.416664ZM300.54688 87.416664L301.64062 87.541664Q301.39062 88.49479 300.6875 89.02604Q299.98438 89.55729 298.90625 89.55729Q297.54688 89.55729 296.73438 88.71354Q295.9375 87.86979 295.9375 86.354164Q295.9375 84.791664 296.75 83.93229Q297.5625 83.05729 298.84375 83.05729Q300.09375 83.05729 300.875 83.90104Q301.67188 84.74479 301.67188 86.291664Q301.67188 86.385414 301.67188 86.572914L297.03125 86.572914Q297.09375 87.604164 297.60938 88.15104Q298.125 88.68229 298.90625 88.68229Q299.48438 88.68229 299.89062 88.385414Q300.3125 88.072914 300.54688 87.416664ZM297.09375 85.71354L300.5625 85.71354Q300.5 84.916664 300.17188 84.52604Q299.65625 83.916664 298.85938 83.916664Q298.125 83.916664 297.625 84.40104Q297.14062 84.885414 297.09375 85.71354ZM307.35938 88.65104Q306.76562 89.15104 306.21875 89.354164Q305.6875 89.55729 305.0625 89.55729Q304.03125 89.55729 303.48438 89.05729Q302.9375 88.55729 302.9375 87.77604Q302.9375 87.322914 303.14062 86.947914Q303.34375 86.55729 303.6875 86.33854Q304.03125 86.104164 304.45312 85.99479Q304.75 85.90104 305.39062 85.822914Q306.65625 85.68229 307.26562 85.46354Q307.26562 85.24479 307.26562 85.197914Q307.26562 84.541664 306.96875 84.27604Q306.5625 83.93229 305.76562 83.93229Q305.03125 83.93229 304.67188 84.197914Q304.3125 84.447914 304.14062 85.104164L303.10938 84.96354Q303.25 84.30729 303.57812 83.90104Q303.90625 83.49479 304.51562 83.27604Q305.125 83.05729 305.92188 83.05729Q306.71875 83.05729 307.21875 83.24479Q307.71875 83.43229 307.95312 83.71354Q308.1875 83.99479 308.28125 84.43229Q308.32812 84.697914 308.32812 85.40104L308.32812 86.80729Q308.32812 88.27604 308.39062 88.666664Q308.46875 89.05729 308.67188 89.416664L307.5625 89.416664Q307.40625 89.08854 307.35938 88.65104ZM307.26562 86.291664Q306.6875 86.52604 305.54688 86.697914Q304.89062 86.791664 304.625 86.916664Q304.35938 87.02604 304.20312 87.24479Q304.0625 87.46354 304.0625 87.74479Q304.0625 88.166664 304.375 88.447914Q304.70312 88.729164 305.3125 88.729164Q305.92188 88.729164 306.39062 88.46354Q306.875 88.197914 307.09375 87.729164Q307.26562 87.36979 307.26562 86.68229L307.26562 86.291664ZM314.32812 89.416664L314.32812 88.635414Q313.73438 89.55729 312.59375 89.55729Q311.84375 89.55729 311.21875 89.15104Q310.59375 88.729164 310.25 87.99479Q309.90625 87.260414 309.90625 86.30729Q309.90625 85.385414 310.21875 84.61979Q310.53125 83.854164 311.15625 83.46354Q311.78125 83.05729 312.54688 83.05729Q313.10938 83.05729 313.54688 83.291664Q313.98438 83.52604 314.26562 83.90104L314.26562 80.822914L315.3125 80.822914L315.3125 89.416664L314.32812 89.416664ZM311.0 86.30729Q311.0 87.510414 311.5 88.104164Q312.0 88.68229 312.6875 88.68229Q313.375 88.68229 313.85938 88.11979Q314.34375 87.55729 314.34375 86.40104Q314.34375 85.11979 313.84375 84.52604Q313.35938 83.93229 312.64062 83.93229Q311.9375 83.93229 311.46875 84.510414Q311.0 85.072914 311.0 86.30729Z" fill-rule="nonzero"/><path fill="#d7ff84" d="M332.5 80.416664C332.5 79.86438 332.94772 79.416664 333.5 79.416664L343.5 79.416664C344.05228 79.416664 344.5 79.86438 344.5 80.416664L344.5 90.416664C344.5 90.96895 344.05228 91.416664 343.5 91.416664L333.5 91.416664C332.94772 91.416664 332.5 90.96895 332.5 90.416664Z" fill-rule="nonzero"/><path fill="#ffffff" d="M354.4375 89.416664L352.53125 83.197914L353.625 83.197914L354.60938 86.791664L354.98438 88.11979Q355.01562 88.02604 355.3125 86.83854L356.29688 83.197914L357.375 83.197914L358.3125 86.80729L358.625 87.99479L358.98438 86.791664L360.04688 83.197914L361.07812 83.197914L359.125 89.416664L358.03125 89.416664L357.04688 85.68229L356.79688 84.635414L355.54688 89.416664L354.4375 89.416664ZM362.28125 89.416664L362.28125 83.197914L363.23438 83.197914L363.23438 84.135414Q363.59375 83.479164 363.89062 83.27604Q364.20312 83.05729 364.57812 83.05729Q365.10938 83.05729 365.65625 83.385414L365.29688 84.36979Q364.90625 84.135414 364.53125 84.135414Q364.17188 84.135414 363.89062 84.354164Q363.625 84.55729 363.51562 84.93229Q363.32812 85.49479 363.32812 86.15104L363.32812 89.416664L362.28125 89.416664ZM366.29688 82.041664L366.29688 80.822914L367.35938 80.822914L367.35938 82.041664L366.29688 82.041664ZM366.29688 89.416664L366.29688 83.197914L367.35938 83.197914L367.35938 89.416664L366.29688 89.416664ZM371.59375 88.479164L371.75 89.40104Q371.29688 89.49479 370.95312 89.49479Q370.375 89.49479 370.0625 89.322914Q369.75 89.135414 369.60938 88.83854Q369.48438 88.541664 369.48438 87.58854L369.48438 84.010414L368.71875 84.010414L368.71875 83.197914L369.48438 83.197914L369.48438 81.65104L370.53125 81.02604L370.53125 83.197914L371.59375 83.197914L371.59375 84.010414L370.53125 84.010414L370.53125 87.65104Q370.53125 88.104164 370.57812 88.229164Q370.64062 88.354164 370.76562 88.43229Q370.89062 88.510414 371.125 88.510414Q371.3125 88.510414 371.59375 88.479164ZM376.54688 87.416664L377.64062 87.541664Q377.39062 88.49479 376.6875 89.02604Q375.98438 89.55729 374.90625 89.55729Q373.54688 89.55729 372.73438 88.71354Q371.9375 87.86979 371.9375 86.354164Q371.9375 84.791664 372.75 83.93229Q373.5625 83.05729 374.84375 83.05729Q376.09375 83.05729 376.875 83.90104Q377.67188 84.74479 377.67188 86.291664Q377.67188 86.385414 377.67188 86.572914L373.03125 86.572914Q373.09375 87.604164 373.60938 88.15104Q374.125 88.68229 374.90625 88.68229Q375.48438 88.68229 375.89062 88.385414Q376.3125 88.072914 376.54688 87.416664ZM373.09375 85.71354L376.5625 85.71354Q376.5 84.916664 376.17188 84.52604Q375.65625 83.916664 374.85938 83.916664Q374.125 83.916664 373.625 84.40104Q373.14062 84.885414 373.09375 85.71354Z" fill-rule="nonzero"/><path fill="#d9d9d9" d="M19.58125 63.05L19.58125 53.034374L20.909374 53.034374L20.909374 58.003124L25.878124 53.034374L27.675 53.034374L23.471874 57.08125L27.8625 63.05L26.1125 63.05L22.55 57.971874L20.909374 59.58125L20.909374 63.05L19.58125 63.05ZM28.64375 63.05L28.64375 53.034374L33.096874 53.034374Q34.440624 53.034374 35.128124 53.3Q35.83125 53.565624 36.2375 54.253124Q36.659374 54.940624 36.659374 55.76875Q36.659374 56.83125 35.971874 57.565624Q35.284374 58.284374 33.846874 58.4875Q34.3625 58.7375 34.64375 58.9875Q35.221874 59.51875 35.7375 60.315624L37.4875 63.05L35.815624 63.05L34.4875 60.971874Q33.909374 60.065624 33.534374 59.596874Q33.159374 59.1125 32.8625 58.925Q32.565624 58.721874 32.253124 58.64375Q32.034374 58.596874 31.51875 58.596874L29.971874 58.596874L29.971874 63.05L28.64375 63.05ZM29.971874 57.45625L32.83125 57.45625Q33.7375 57.45625 34.253124 57.26875Q34.76875 57.08125 35.034374 56.675Q35.3 56.253124 35.3 55.76875Q35.3 55.05 34.784374 54.596874Q34.26875 54.128124 33.14375 54.128124L29.971874 54.128124L29.971874 57.45625ZM38.58125 63.05L38.58125 53.034374L42.33125 53.034374Q43.4875 53.034374 44.175 53.346874Q44.878124 53.64375 45.26875 54.26875Q45.659374 54.89375 45.659374 55.596874Q45.659374 56.2375 45.3 56.8Q44.95625 57.3625 44.253124 57.721874Q45.159374 57.9875 45.64375 58.628124Q46.14375 59.26875 46.14375 60.14375Q46.14375 60.846874 45.846874 61.45625Q45.55 62.065624 45.1125 62.39375Q44.675 62.721874 44.003124 62.89375Q43.346874 63.05 42.39375 63.05L38.58125 63.05ZM39.909374 57.2375L42.065624 57.2375Q42.95625 57.2375 43.33125 57.128124Q43.846874 56.971874 44.096874 56.628124Q44.346874 56.26875 44.346874 55.753124Q44.346874 55.253124 44.1125 54.878124Q43.878124 54.4875 43.425 54.346874Q42.9875 54.20625 41.909374 54.20625L39.909374 54.20625L39.909374 57.2375ZM39.909374 61.8625L42.39375 61.8625Q43.034374 61.8625 43.3 61.815624Q43.753124 61.7375 44.065624 61.55Q44.378124 61.346874 44.565624 60.9875Q44.76875 60.628124 44.76875 60.14375Q44.76875 59.58125 44.471874 59.175Q44.190624 58.753124 43.675 58.596874Q43.175 58.425 42.221874 58.425L39.909374 58.425L39.909374 61.8625ZM47.628124 63.05L47.628124 53.034374L51.08125 53.034374Q52.253124 53.034374 52.8625 53.175Q53.721874 53.3625 54.33125 53.89375Q55.128124 54.565624 55.51875 55.6125Q55.909374 56.64375 55.909374 57.9875Q55.909374 59.128124 55.64375 60.01875Q55.378124 60.89375 54.95625 61.471874Q54.55 62.05 54.05 62.378124Q53.55 62.70625 52.846874 62.878124Q52.159374 63.05 51.253124 63.05L47.628124 63.05ZM48.95625 61.8625L51.096874 61.8625Q52.08125 61.8625 52.64375 61.690624Q53.221874 61.503124 53.55 61.159374Q54.01875 60.690624 54.284374 59.89375Q54.55 59.096874 54.55 57.95625Q54.55 56.39375 54.034374 55.55Q53.51875 54.70625 52.784374 54.409374Q52.2375 54.20625 51.065624 54.20625L48.95625 54.20625L48.95625 61.8625ZM57.8 63.05L57.8 61.64375L59.190624 61.64375L59.190624 63.05Q59.190624 63.815624 58.909374 64.28438Q58.64375 64.76875 58.05 65.03438L57.70625 64.50313Q58.096874 64.33125 58.284374 64.00313Q58.471874 63.675 58.4875 63.05L57.8 63.05ZM71.51875 55.4875L70.3 55.58125Q70.12813 54.846874 69.83125 54.51875Q69.33125 54.003124 68.59688 54.003124Q68.00313 54.003124 67.56563 54.33125Q66.9875 54.753124 66.64375 55.565624Q66.31563 56.378124 66.3 57.878124Q66.7375 57.20625 67.37813 56.878124Q68.03438 56.55 68.7375 56.55Q69.97188 56.55 70.83125 57.45625Q71.69063 58.3625 71.69063 59.8Q71.69063 60.7375 71.28438 61.55Q70.87813 62.3625 70.15938 62.8Q69.45625 63.221874 68.55 63.221874Q67.01875 63.221874 66.05 62.096874Q65.08125 60.95625 65.08125 58.3625Q65.08125 55.45625 66.14375 54.128124Q67.08125 52.9875 68.675 52.9875Q69.8625 52.9875 70.6125 53.659374Q71.3625 54.315624 71.51875 55.4875ZM66.4875 59.8Q66.4875 60.440624 66.75313 61.01875Q67.03438 61.596874 67.51875 61.909374Q68.00313 62.20625 68.53438 62.20625Q69.31563 62.20625 69.87813 61.58125Q70.44063 60.95625 70.44063 59.878124Q70.44063 58.83125 69.87813 58.2375Q69.33125 57.628124 68.4875 57.628124Q67.65938 57.628124 67.06563 58.2375Q66.4875 58.83125 66.4875 59.8ZM77.6125 63.05L77.6125 53.034374L78.97188 53.034374L84.2375 60.89375L84.2375 53.034374L85.51875 53.034374L85.51875 63.05L84.15938 63.05L78.89375 55.175L78.89375 63.05L77.6125 63.05ZM86.01875 59.425Q86.01875 57.409374 87.14375 56.425Q88.06563 55.628124 89.425 55.628124Q90.90938 55.628124 91.8625 56.6125Q92.81563 57.58125 92.81563 59.315624Q92.81563 60.721874 92.39375 61.534374Q91.97188 62.33125 91.15938 62.784374Q90.3625 63.221874 89.425 63.221874Q87.89375 63.221874 86.95625 62.2375Q86.01875 61.253124 86.01875 59.425ZM87.28438 59.425Q87.28438 60.815624 87.89375 61.51875Q88.50313 62.20625 89.425 62.20625Q90.33125 62.20625 90.94063 61.503124Q91.55 60.8 91.55 59.378124Q91.55 58.034374 90.94063 57.346874Q90.33125 56.64375 89.425 56.64375Q88.50313 56.64375 87.89375 57.33125Q87.28438 58.01875 87.28438 59.425ZM99.19063 63.05L99.19063 62.128124Q98.4875 63.221874 97.15938 63.221874Q96.28438 63.221874 95.55 62.7375Q94.83125 62.253124 94.425 61.39375Q94.03438 60.534374 94.03438 59.425Q94.03438 58.346874 94.39375 57.45625Q94.75313 56.565624 95.47188 56.096874Q96.20625 55.628124 97.09688 55.628124Q97.75313 55.628124 98.26875 55.909374Q98.78438 56.175 99.09688 56.628124L99.09688 53.034374L100.33125 53.034374L100.33125 63.05L99.19063 63.05ZM95.3 59.425Q95.3 60.815624 95.87813 61.51875Q96.47188 62.20625 97.26875 62.20625Q98.08125 62.20625 98.64375 61.55Q99.20625 60.878124 99.20625 59.534374Q99.20625 58.034374 98.62813 57.346874Q98.05 56.64375 97.22188 56.64375Q96.39375 56.64375 95.84688 57.315624Q95.3 57.9875 95.3 59.425ZM107.44063 60.70625L108.72188 60.8625Q108.40938 61.9875 107.59688 62.6125Q106.78438 63.221874 105.51875 63.221874Q103.925 63.221874 102.9875 62.2375Q102.06563 61.253124 102.06563 59.4875Q102.06563 57.64375 103.00313 56.64375Q103.95625 55.628124 105.45625 55.628124Q106.90938 55.628124 107.83125 56.628124Q108.75313 57.6125 108.75313 59.409374Q108.75313 59.51875 108.75313 59.7375L103.33125 59.7375Q103.40938 60.925 104.00313 61.565624Q104.6125 62.20625 105.53438 62.20625Q106.20625 62.20625 106.675 61.846874Q107.15938 61.4875 107.44063 60.70625ZM103.40938 58.721874L107.45625 58.721874Q107.37813 57.8 106.9875 57.346874Q106.40938 56.64375 105.47188 56.64375Q104.6125 56.64375 104.03438 57.20625Q103.47188 57.76875 103.40938 58.721874ZM109.9875 60.878124L111.19063 60.690624Q111.3 61.425 111.76875 61.815624Q112.2375 62.20625 113.08125 62.20625Q113.925 62.20625 114.33125 61.8625Q114.75313 61.51875 114.75313 61.05Q114.75313 60.628124 114.37813 60.39375Q114.12813 60.221874 113.12813 59.971874Q111.76875 59.628124 111.2375 59.378124Q110.72188 59.128124 110.45625 58.690624Q110.19063 58.253124 110.19063 57.721874Q110.19063 57.2375 110.40938 56.83125Q110.62813 56.409374 111.01875 56.128124Q111.3 55.925 111.78438 55.784374Q112.28438 55.628124 112.8625 55.628124Q113.70625 55.628124 114.34688 55.878124Q115.00313 56.1125 115.31563 56.534374Q115.62813 56.95625 115.7375 57.659374L114.53438 57.83125Q114.45625 57.26875 114.05 56.95625Q113.65938 56.64375 112.94063 56.64375Q112.09688 56.64375 111.7375 56.925Q111.37813 57.190624 111.37813 57.58125Q111.37813 57.815624 111.51875 58.003124Q111.675 58.20625 112.00313 58.33125Q112.175 58.39375 113.08125 58.64375Q114.39375 59.003124 114.90938 59.221874Q115.425 59.440624 115.70625 59.8625Q116.00313 60.284374 116.00313 60.909374Q116.00313 61.534374 115.64375 62.08125Q115.3 62.6125 114.6125 62.925Q113.94063 63.221874 113.08125 63.221874Q111.675 63.221874 110.925 62.628124Q110.19063 62.034374 109.9875 60.878124ZM117.8 63.05L117.8 61.64375L119.19063 61.64375L119.19063 63.05Q119.19063 63.815624 118.90938 64.28438Q118.64375 64.76875 118.05 65.03438L117.70625 64.50313Q118.09688 64.33125 118.28438 64.00313Q118.47188 63.675 118.4875 63.05L117.8 63.05ZM131.59688 61.8625L131.59688 63.05L124.97188 63.05Q124.95625 62.6125 125.1125 62.190624Q125.37813 61.51875 125.925 60.8625Q126.4875 60.20625 127.53438 59.346874Q129.175 58.003124 129.7375 57.221874Q130.31563 56.440624 130.31563 55.7375Q130.31563 55.003124 129.78438 54.503124Q129.26875 54.003124 128.44063 54.003124Q127.55 54.003124 127.00313 54.534374Q126.47188 55.065624 126.47188 56.01875L125.20625 55.878124Q125.33125 54.471874 126.175 53.7375Q127.03438 52.9875 128.45625 52.9875Q129.90938 52.9875 130.7375 53.784374Q131.58125 54.58125 131.58125 55.76875Q131.58125 56.378124 131.33125 56.95625Q131.09688 57.534374 130.51875 58.175Q129.95625 58.815624 128.62813 59.940624Q127.51875 60.8625 127.20625 61.20625Q126.89375 61.534374 126.69063 61.8625L131.59688 61.8625ZM137.6125 63.05L137.6125 53.034374L138.97188 53.034374L144.2375 60.89375L144.2375 53.034374L145.51875 53.034374L145.51875 63.05L144.15938 63.05L138.89375 55.175L138.89375 63.05L137.6125 63.05ZM149.4875 63.05L145.6125 53.034374L147.05 53.034374L149.65938 60.315624Q149.97188 61.190624 150.175 61.95625Q150.40938 61.128124 150.72188 60.315624L153.425 53.034374L154.78438 53.034374L150.8625 63.05L149.4875 63.05ZM155.59688 63.05L155.59688 53.034374L157.58125 53.034374L159.95625 60.128124Q160.28438 61.1125 160.44063 61.6125Q160.6125 61.065624 160.97188 60.003124L163.3625 53.034374L165.15938 53.034374L165.15938 63.05L163.87813 63.05L163.87813 54.659374L160.95625 63.05L159.76875 63.05L156.8625 54.51875L156.8625 63.05L155.59688 63.05ZM171.44063 60.70625L172.72188 60.8625Q172.40938 61.9875 171.59688 62.6125Q170.78438 63.221874 169.51875 63.221874Q167.925 63.221874 166.9875 62.2375Q166.06563 61.253124 166.06563 59.4875Q166.06563 57.64375 167.00313 56.64375Q167.95625 55.628124 169.45625 55.628124Q170.90938 55.628124 171.83125 56.628124Q172.75313 57.6125 172.75313 59.409374Q172.75313 59.51875 172.75313 59.7375L167.33125 59.7375Q167.40938 60.925 168.00313 61.565624Q168.6125 62.20625 169.53438 62.20625Q170.20625 62.20625 170.675 61.846874Q171.15938 61.4875 171.44063 60.70625ZM167.40938 58.721874L171.45625 58.721874Q171.37813 57.8 170.9875 57.346874Q170.40938 56.64375 169.47188 56.64375Q168.6125 56.64375 168.03438 57.20625Q167.47188 57.76875 167.40938 58.721874ZM173.55 63.221874L176.45625 52.8625L177.44063 52.8625L174.53438 63.221874L173.55 63.221874ZM178.6125 63.05L178.6125 53.034374L179.97188 53.034374L185.2375 60.89375L185.2375 53.034374L186.51875 53.034374L186.51875 63.05L185.15938 63.05L179.89375 55.175L179.89375 63.05L178.6125 63.05ZM187.01875 59.425Q187.01875 57.409374 188.14375 56.425Q189.06563 55.628124 190.425 55.628124Q191.90938 55.628124 192.8625 56.6125Q193.81563 57.58125 193.81563 59.315624Q193.81563 60.721874 193.39375 61.534374Q192.97188 62.33125 192.15938 62.784374Q191.3625 63.221874 190.425 63.221874Q188.89375 63.221874 187.95625 62.2375Q187.01875 61.253124 187.01875 59.425ZM188.28438 59.425Q188.28438 60.815624 188.89375 61.51875Q189.50313 62.20625 190.425 62.20625Q191.33125 62.20625 191.94063 61.503124Q192.55 60.8 192.55 59.378124Q192.55 58.034374 191.94063 57.346874Q191.33125 56.64375 190.425 56.64375Q189.50313 56.64375 188.89375 57.33125Q188.28438 58.01875 188.28438 59.425ZM200.19063 63.05L200.19063 62.128124Q199.4875 63.221874 198.15938 63.221874Q197.28438 63.221874 196.55 62.7375Q195.83125 62.253124 195.425 61.39375Q195.03438 60.534374 195.03438 59.425Q195.03438 58.346874 195.39375 57.45625Q195.75313 56.565624 196.47188 56.096874Q197.20625 55.628124 198.09688 55.628124Q198.75313 55.628124 199.26875 55.909374Q199.78438 56.175 200.09688 56.628124L200.09688 53.034374L201.33125 53.034374L201.33125 63.05L200.19063 63.05ZM196.3 59.425Q196.3 60.815624 196.87813 61.51875Q197.47188 62.20625 198.26875 62.20625Q199.08125 62.20625 199.64375 61.55Q200.20625 60.878124 200.20625 59.534374Q200.20625 58.034374 199.62813 57.346874Q199.05 56.64375 198.22188 56.64375Q197.39375 56.64375 196.84688 57.315624Q196.3 57.9875 196.3 59.425ZM208.44063 60.70625L209.72188 60.8625Q209.40938 61.9875 208.59688 62.6125Q207.78438 63.221874 206.51875 63.221874Q204.925 63.221874 203.9875 62.2375Q203.06563 61.253124 203.06563 59.4875Q203.06563 57.64375 204.00313 56.64375Q204.95625 55.628124 206.45625 55.628124Q207.90938 55.628124 208.83125 56.628124Q209.75313 57.6125 209.75313 59.409374Q209.75313 59.51875 209.75313 59.7375L204.33125 59.7375Q204.40938 60.925 205.00313 61.565624Q205.6125 62.20625 206.53438 62.20625Q207.20625 62.20625 207.675 61.846874Q208.15938 61.4875 208.44063 60.70625ZM204.40938 58.721874L208.45625 58.721874Q208.37813 57.8 207.9875 57.346874Q207.40938 56.64375 206.47188 56.64375Q205.6125 56.64375 205.03438 57.20625Q204.47188 57.76875 204.40938 58.721874ZM211.8 63.05L211.8 61.64375L213.19063 61.64375L213.19063 63.05Q213.19063 63.815624 212.90938 64.28438Q212.64375 64.76875 212.05 65.03438L211.70625 64.50313Q212.09688 64.33125 212.28438 64.00313Q212.47188 63.675 212.4875 63.05L211.8 63.05ZM219.14375 60.409374L220.3625 60.2375Q220.58125 61.284374 221.08125 61.753124Q221.59688 62.20625 222.33125 62.20625Q223.20625 62.20625 223.8 61.6125Q224.39375 61.003124 224.39375 60.1125Q224.39375 59.26875 223.83125 58.721874Q223.28438 58.175 222.44063 58.175Q222.08125 58.175 221.56563 58.3L221.70625 57.221874Q221.83125 57.2375 221.89375 57.2375Q222.69063 57.2375 223.31563 56.83125Q223.94063 56.425 223.94063 55.565624Q223.94063 54.89375 223.4875 54.45625Q223.03438 54.003124 222.3 54.003124Q221.58125 54.003124 221.09688 54.45625Q220.62813 54.89375 220.4875 55.8L219.26875 55.58125Q219.4875 54.346874 220.28438 53.675Q221.08125 52.9875 222.26875 52.9875Q223.09688 52.9875 223.78438 53.346874Q224.47188 53.690624 224.83125 54.3Q225.20625 54.909374 225.20625 55.596874Q225.20625 56.2375 224.8625 56.76875Q224.51875 57.3 223.83125 57.628124Q224.72188 57.83125 225.20625 58.471874Q225.70625 59.1125 225.70625 60.096874Q225.70625 61.409374 224.7375 62.315624Q223.78438 63.221874 222.33125 63.221874Q221.00313 63.221874 220.12813 62.440624Q219.26875 61.659374 219.14375 60.409374ZM226.6125 63.05L230.4875 57.83125L227.06563 53.034374L228.64375 53.034374L230.47188 55.596874Q231.03438 56.39375 231.26875 56.83125Q231.6125 56.284374 232.06563 55.690624L234.08125 53.034374L235.51875 53.034374L232.00313 57.753124L235.8 63.05L234.15938 63.05L231.64375 59.471874Q231.425 59.159374 231.20625 58.8Q230.8625 59.346874 230.72188 59.55L228.20625 63.05L226.6125 63.05ZM239.64375 63.05L239.64375 53.034374L244.09688 53.034374Q245.44063 53.034374 246.12813 53.3Q246.83125 53.565624 247.2375 54.253124Q247.65938 54.940624 247.65938 55.76875Q247.65938 56.83125 246.97188 57.565624Q246.28438 58.284374 244.84688 58.4875Q245.3625 58.7375 245.64375 58.9875Q246.22188 59.51875 246.7375 60.315624L248.4875 63.05L246.81563 63.05L245.4875 60.971874Q244.90938 60.065624 244.53438 59.596874Q244.15938 59.1125 243.8625 58.925Q243.56563 58.721874 243.25313 58.64375Q243.03438 58.596874 242.51875 58.596874L240.97188 58.596874L240.97188 63.05L239.64375 63.05ZM240.97188 57.45625L243.83125 57.45625Q244.7375 57.45625 245.25313 57.26875Q245.76875 57.08125 246.03438 56.675Q246.3 56.253124 246.3 55.76875Q246.3 55.05 245.78438 54.596874Q245.26875 54.128124 244.14375 54.128124L240.97188 54.128124L240.97188 57.45625ZM254.44063 60.70625L255.72188 60.8625Q255.40938 61.9875 254.59688 62.6125Q253.78438 63.221874 252.51875 63.221874Q250.925 63.221874 249.9875 62.2375Q249.06563 61.253124 249.06563 59.4875Q249.06563 57.64375 250.00313 56.64375Q250.95625 55.628124 252.45625 55.628124Q253.90938 55.628124 254.83125 56.628124Q255.75313 57.6125 255.75313 59.409374Q255.75313 59.51875 255.75313 59.7375L250.33125 59.7375Q250.40938 60.925 251.00313 61.565624Q251.6125 62.20625 252.53438 62.20625Q253.20625 62.20625 253.675 61.846874Q254.15938 61.4875 254.44063 60.70625ZM250.40938 58.721874L254.45625 58.721874Q254.37813 57.8 253.9875 57.346874Q253.40938 56.64375 252.47188 56.64375Q251.6125 56.64375 251.03438 57.20625Q250.47188 57.76875 250.40938 58.721874ZM257.47186 65.83125L257.47186 55.784374L258.59686 55.784374L258.59686 56.7375Q258.9875 56.175 259.4875 55.909374Q259.9875 55.628124 260.70624 55.628124Q261.6281 55.628124 262.33124 56.1125Q263.05 56.58125 263.40936 57.45625Q263.76874 58.33125 263.76874 59.3625Q263.76874 60.471874 263.3625 61.378124Q262.97186 62.26875 262.20624 62.753124Q261.45624 63.221874 260.6125 63.221874Q260.0031 63.221874 259.5031 62.95625Q259.01874 62.690624 258.70624 62.3L258.70624 65.83125L257.47186 65.83125ZM258.58124 59.45625Q258.58124 60.8625 259.14374 61.534374Q259.72186 62.20625 260.53436 62.20625Q261.34686 62.20625 261.925 61.51875Q262.51874 60.815624 262.51874 59.3625Q262.51874 57.971874 261.9406 57.284374Q261.3781 56.596874 260.58124 56.596874Q259.8 56.596874 259.1906 57.33125Q258.58124 58.065624 258.58124 59.45625ZM265.4406 63.05L265.4406 53.034374L266.675 53.034374L266.675 63.05L265.4406 63.05ZM268.4875 54.440624L268.4875 53.034374L269.70624 53.034374L269.70624 54.440624L268.4875 54.440624ZM268.4875 63.05L268.4875 55.784374L269.70624 55.784374L269.70624 63.05L268.4875 63.05ZM276.20624 60.39375L277.425 60.55Q277.22186 61.8 276.39374 62.51875Q275.58124 63.221874 274.39374 63.221874Q272.90936 63.221874 272.0031 62.253124Q271.09686 61.26875 271.09686 59.440624Q271.09686 58.26875 271.4875 57.39375Q271.8781 56.503124 272.675 56.065624Q273.47186 55.628124 274.40936 55.628124Q275.58124 55.628124 276.33124 56.221874Q277.09686 56.815624 277.3 57.925L276.1125 58.1125Q275.9406 57.378124 275.5031 57.01875Q275.0656 56.64375 274.45624 56.64375Q273.51874 56.64375 272.9406 57.315624Q272.3625 57.971874 272.3625 59.409374Q272.3625 60.878124 272.925 61.55Q273.4875 62.20625 274.3781 62.20625Q275.1125 62.20625 275.59686 61.76875Q276.08124 61.315624 276.20624 60.39375ZM283.20624 62.159374Q282.53436 62.7375 281.89374 62.9875Q281.26874 63.221874 280.53436 63.221874Q279.34686 63.221874 278.6906 62.64375Q278.05 62.05 278.05 61.128124Q278.05 60.596874 278.28436 60.159374Q278.53436 59.721874 278.925 59.45625Q279.33124 59.190624 279.8156 59.05Q280.175 58.95625 280.90936 58.8625Q282.40936 58.690624 283.1125 58.440624Q283.1125 58.190624 283.1125 58.128124Q283.1125 57.3625 282.76874 57.065624Q282.3 56.64375 281.3625 56.64375Q280.5031 56.64375 280.08124 56.95625Q279.675 57.253124 279.47186 58.01875L278.26874 57.8625Q278.425 57.08125 278.8 56.6125Q279.1906 56.14375 279.89374 55.89375Q280.6125 55.628124 281.55 55.628124Q282.47186 55.628124 283.05 55.846874Q283.6281 56.065624 283.89374 56.39375Q284.175 56.721874 284.28436 57.2375Q284.34686 57.55 284.34686 58.3625L284.34686 60.003124Q284.34686 61.721874 284.425 62.175Q284.5031 62.628124 284.7375 63.05L283.45624 63.05Q283.26874 62.659374 283.20624 62.159374ZM283.1125 59.409374Q282.4406 59.675 281.09686 59.878124Q280.34686 59.9875 280.01874 60.128124Q279.70624 60.253124 279.53436 60.51875Q279.3625 60.784374 279.3625 61.096874Q279.3625 61.596874 279.7375 61.925Q280.1125 62.253124 280.83124 62.253124Q281.55 62.253124 282.09686 61.940624Q282.64374 61.628124 282.90936 61.08125Q283.1125 60.675 283.1125 59.8625L283.1125 59.409374ZM289.15936 61.95625L289.33124 63.034374Q288.8156 63.14375 288.40936 63.14375Q287.7375 63.14375 287.3625 62.940624Q287.0031 62.721874 286.84686 62.378124Q286.70624 62.034374 286.70624 60.925L286.70624 56.753124L285.8 56.753124L285.8 55.784374L286.70624 55.784374L286.70624 53.9875L287.925 53.253124L287.925 55.784374L289.15936 55.784374L289.15936 56.753124L287.925 56.753124L287.925 60.9875Q287.925 61.51875 287.9875 61.675Q288.05 61.815624 288.1906 61.909374Q288.34686 62.003124 288.6125 62.003124Q288.83124 62.003124 289.15936 61.95625ZM290.4875 54.440624L290.4875 53.034374L291.70624 53.034374L291.70624 54.440624L290.4875 54.440624ZM290.4875 63.05L290.4875 55.784374L291.70624 55.784374L291.70624 63.05L290.4875 63.05ZM293.01874 59.425Q293.01874 57.409374 294.14374 56.425Q295.0656 55.628124 296.425 55.628124Q297.90936 55.628124 298.8625 56.6125Q299.8156 57.58125 299.8156 59.315624Q299.8156 60.721874 299.39374 61.534374Q298.97186 62.33125 298.15936 62.784374Q297.3625 63.221874 296.425 63.221874Q294.89374 63.221874 293.95624 62.2375Q293.01874 61.253124 293.01874 59.425ZM294.28436 59.425Q294.28436 60.815624 294.89374 61.51875Q295.5031 62.20625 296.425 62.20625Q297.33124 62.20625 297.9406 61.503124Q298.55 60.8 298.55 59.378124Q298.55 58.034374 297.9406 57.346874Q297.33124 56.64375 296.425 56.64375Q295.5031 56.64375 294.89374 57.33125Q294.28436 58.01875 294.28436 59.425ZM301.47186 63.05L301.47186 55.784374L302.58124 55.784374L302.58124 56.815624Q303.3781 55.628124 304.89374 55.628124Q305.55 55.628124 306.09686 55.8625Q306.64374 56.096874 306.90936 56.4875Q307.1906 56.8625 307.3 57.39375Q307.3781 57.7375 307.3781 58.58125L307.3781 63.05L306.14374 63.05L306.14374 58.628124Q306.14374 57.878124 306.0031 57.51875Q305.8625 57.14375 305.4875 56.925Q305.1281 56.690624 304.6281 56.690624Q303.84686 56.690624 303.26874 57.190624Q302.70624 57.690624 302.70624 59.08125L302.70624 63.05L301.47186 63.05ZM309.8 63.05L309.8 61.64375L311.1906 61.64375L311.1906 63.05Q311.1906 63.815624 310.90936 64.28438Q310.64374 64.76875 310.05 65.03438L309.70624 64.50313Q310.09686 64.33125 310.28436 64.00313Q310.47186 63.675 310.4875 63.05L309.8 63.05ZM321.08124 63.05L321.08124 60.64375L316.72186 60.64375L316.72186 59.51875L321.3 53.034374L322.3 53.034374L322.3 59.51875L323.65936 59.51875L323.65936 60.64375L322.3 60.64375L322.3 63.05L321.08124 63.05ZM321.08124 59.51875L321.08124 55.003124L317.9406 59.51875L321.08124 59.51875ZM325.1281 58.1125Q325.1281 56.33125 325.4875 55.253124Q325.8625 54.159374 326.58124 53.58125Q327.3 52.9875 328.39374 52.9875Q329.20624 52.9875 329.8156 53.315624Q330.425 53.64375 330.8156 54.253124Q331.22186 54.8625 331.4406 55.7375Q331.65936 56.6125 331.65936 58.1125Q331.65936 59.878124 331.3 60.95625Q330.9406 62.034374 330.22186 62.628124Q329.5031 63.221874 328.39374 63.221874Q326.95624 63.221874 326.1281 62.175Q325.1281 60.925 325.1281 58.1125ZM326.39374 58.1125Q326.39374 60.58125 326.97186 61.39375Q327.55 62.20625 328.39374 62.20625Q329.2531 62.20625 329.83124 61.39375Q330.40936 60.565624 330.40936 58.1125Q330.40936 55.628124 329.83124 54.815624Q329.2531 54.003124 328.3781 54.003124Q327.53436 54.003124 327.03436 54.721874Q326.39374 55.64375 326.39374 58.1125ZM333.3156 60.7375L334.5031 60.628124Q334.64374 61.45625 335.0656 61.83125Q335.5031 62.20625 336.15936 62.20625Q336.72186 62.20625 337.14374 61.95625Q337.58124 61.690624 337.84686 61.253124Q338.1281 60.815624 338.3156 60.08125Q338.5031 59.346874 338.5031 58.58125Q338.5031 58.503124 338.4875 58.33125Q338.1281 58.925 337.4875 59.3Q336.84686 59.659374 336.09686 59.659374Q334.84686 59.659374 333.9875 58.753124Q333.1281 57.846874 333.1281 56.378124Q333.1281 54.846874 334.01874 53.925Q334.925 52.9875 336.28436 52.9875Q337.2531 52.9875 338.0656 53.51875Q338.8781 54.034374 339.3 55.01875Q339.72186 55.9875 339.72186 57.83125Q339.72186 59.753124 339.3 60.89375Q338.89374 62.034374 338.0656 62.628124Q337.2375 63.221874 336.1281 63.221874Q334.95624 63.221874 334.20624 62.565624Q333.47186 61.909374 333.3156 60.7375ZM338.34686 56.315624Q338.34686 55.253124 337.78436 54.628124Q337.22186 54.003124 336.4406 54.003124Q335.6125 54.003124 335.0031 54.675Q334.39374 55.346874 334.39374 56.409374Q334.39374 57.3625 334.97186 57.971874Q335.55 58.565624 336.39374 58.565624Q337.2531 58.565624 337.8 57.971874Q338.34686 57.3625 338.34686 56.315624ZM347.51874 55.4875L346.3 55.58125Q346.1281 54.846874 345.83124 54.51875Q345.33124 54.003124 344.59686 54.003124Q344.0031 54.003124 343.5656 54.33125Q342.9875 54.753124 342.64374 55.565624Q342.3156 56.378124 342.3 57.878124Q342.7375 57.20625 343.3781 56.878124Q344.03436 56.55 344.7375 56.55Q345.97186 56.55 346.83124 57.45625Q347.6906 58.3625 347.6906 59.8Q347.6906 60.7375 347.28436 61.55Q346.8781 62.3625 346.15936 62.8Q345.45624 63.221874 344.55 63.221874Q343.01874 63.221874 342.05 62.096874Q341.08124 60.95625 341.08124 58.3625Q341.08124 55.45625 342.14374 54.128124Q343.08124 52.9875 344.675 52.9875Q345.8625 52.9875 346.6125 53.659374Q347.3625 54.315624 347.51874 55.4875ZM342.4875 59.8Q342.4875 60.440624 342.7531 61.01875Q343.03436 61.596874 343.51874 61.909374Q344.0031 62.20625 344.53436 62.20625Q345.3156 62.20625 345.8781 61.58125Q346.4406 60.95625 346.4406 59.878124Q346.4406 58.83125 345.8781 58.2375Q345.33124 57.628124 344.4875 57.628124Q343.65936 57.628124 343.0656 58.2375Q342.4875 58.83125 342.4875 59.8ZM353.6281 63.05L353.6281 53.034374L357.40936 53.034374Q358.40936 53.034374 358.9406 53.128124Q359.675 53.253124 360.175 53.596874Q360.675 53.940624 360.97186 54.565624Q361.28436 55.175 361.28436 55.925Q361.28436 57.20625 360.47186 58.096874Q359.65936 58.971874 357.53436 58.971874L354.95624 58.971874L354.95624 63.05L353.6281 63.05ZM354.95624 57.8L357.55 57.8Q358.83124 57.8 359.3625 57.315624Q359.90936 56.83125 359.90936 55.971874Q359.90936 55.33125 359.59686 54.89375Q359.28436 54.440624 358.7531 54.3Q358.425 54.20625 357.51874 54.20625L354.95624 54.20625L354.95624 57.8ZM367.3156 59.1125L367.3156 57.940624L371.5656 57.940624L371.5656 61.659374Q370.58124 62.440624 369.53436 62.83125Q368.5031 63.221874 367.40936 63.221874Q365.9406 63.221874 364.72186 62.596874Q363.51874 61.95625 362.90936 60.76875Q362.3 59.565624 362.3 58.08125Q362.3 56.628124 362.90936 55.3625Q363.51874 54.08125 364.65936 53.471874Q365.8156 52.8625 367.3156 52.8625Q368.39374 52.8625 369.26874 53.221874Q370.15936 53.565624 370.65936 54.190624Q371.15936 54.815624 371.40936 55.83125L370.22186 56.159374Q369.9875 55.39375 369.64374 54.95625Q369.3156 54.51875 368.6906 54.253124Q368.08124 53.9875 367.3156 53.9875Q366.40936 53.9875 365.7375 54.26875Q365.08124 54.55 364.675 55.003124Q364.26874 55.440624 364.05 55.9875Q363.65936 56.925 363.65936 58.003124Q363.65936 59.346874 364.1125 60.253124Q364.58124 61.14375 365.45624 61.58125Q366.34686 62.01875 367.34686 62.01875Q368.20624 62.01875 369.01874 61.690624Q369.84686 61.3625 370.26874 60.9875L370.26874 59.1125L367.3156 59.1125ZM372.9875 60.878124L374.1906 60.690624Q374.3 61.425 374.76874 61.815624Q375.2375 62.20625 376.08124 62.20625Q376.925 62.20625 377.33124 61.8625Q377.7531 61.51875 377.7531 61.05Q377.7531 60.628124 377.3781 60.39375Q377.1281 60.221874 376.1281 59.971874Q374.76874 59.628124 374.2375 59.378124Q373.72186 59.128124 373.45624 58.690624Q373.1906 58.253124 373.1906 57.721874Q373.1906 57.2375 373.40936 56.83125Q373.6281 56.409374 374.01874 56.128124Q374.3 55.925 374.78436 55.784374Q375.28436 55.628124 375.8625 55.628124Q376.70624 55.628124 377.34686 55.878124Q378.0031 56.1125 378.3156 56.534374Q378.6281 56.95625 378.7375 57.659374L377.53436 57.83125Q377.45624 57.26875 377.05 56.95625Q376.65936 56.64375 375.9406 56.64375Q375.09686 56.64375 374.7375 56.925Q374.3781 57.190624 374.3781 57.58125Q374.3781 57.815624 374.51874 58.003124Q374.675 58.20625 375.0031 58.33125Q375.175 58.39375 376.08124 58.64375Q377.39374 59.003124 377.90936 59.221874Q378.425 59.440624 378.70624 59.8625Q379.0031 60.284374 379.0031 60.909374Q379.0031 61.534374 378.64374 62.08125Q378.3 62.6125 377.6125 62.925Q376.9406 63.221874 376.08124 63.221874Q374.675 63.221874 373.925 62.628124Q373.1906 62.034374 372.9875 60.878124Z" fill-rule="nonzero"/><path fill="#ffffff" d="M20.190624 37.55L20.190624 23.2375L29.846874 23.2375L29.846874 24.925L22.08125 24.925L22.08125 29.3625L28.8 29.3625L28.8 31.05L22.08125 31.05L22.08125 37.55L20.190624 37.55ZM32.409374 37.55L32.409374 23.2375L34.315624 23.2375L34.315624 37.55L32.409374 37.55ZM37.51875 30.58125Q37.51875 27.01875 39.425 25.003124Q41.346874 22.971874 44.378124 22.971874Q46.3625 22.971874 47.940624 23.925Q49.534374 24.878124 50.3625 26.58125Q51.20625 28.26875 51.20625 30.409374Q51.20625 32.58125 50.33125 34.3Q49.45625 36.01875 47.83125 36.909374Q46.221874 37.8 44.3625 37.8Q42.346874 37.8 40.753124 36.83125Q39.159374 35.846874 38.33125 34.159374Q37.51875 32.45625 37.51875 30.58125ZM39.471874 30.6125Q39.471874 33.190624 40.8625 34.690624Q42.253124 36.175 44.346874 36.175Q46.4875 36.175 47.8625 34.675Q49.253124 33.159374 49.253124 30.39375Q49.253124 28.659374 48.659374 27.3625Q48.08125 26.05 46.940624 25.33125Q45.8 24.6125 44.378124 24.6125Q42.378124 24.6125 40.925 26.003124Q39.471874 27.378124 39.471874 30.6125ZM65.01875 37.55L65.01875 34.128124L58.8 34.128124L58.8 32.503124L65.33125 23.2375L66.76875 23.2375L66.76875 32.503124L68.70625 32.503124L68.70625 34.128124L66.76875 34.128124L66.76875 37.55L65.01875 37.55ZM65.01875 32.503124L65.01875 26.05L60.534374 32.503124L65.01875 32.503124ZM71.01875 37.55L71.01875 23.2375L72.90938 23.2375L72.90938 30.33125L80.01875 23.2375L82.58125 23.2375L76.58125 29.034374L82.84688 37.55L80.34688 37.55L75.25313 30.3L72.90938 32.58125L72.90938 37.55L71.01875 37.55ZM84.01875 37.55L84.01875 23.2375L89.39375 23.2375Q91.03438 23.2375 92.01875 23.675Q93.00313 24.096874 93.56563 25.003124Q94.12813 25.909374 94.12813 26.89375Q94.12813 27.815624 93.62813 28.628124Q93.14375 29.440624 92.12813 29.925Q93.425 30.315624 94.12813 31.2375Q94.83125 32.14375 94.83125 33.39375Q94.83125 34.409374 94.39375 35.26875Q93.97188 36.128124 93.34688 36.596874Q92.72188 37.065624 91.78438 37.315624Q90.84688 37.55 89.47188 37.55L84.01875 37.55ZM85.90938 29.253124L89.00313 29.253124Q90.26875 29.253124 90.81563 29.08125Q91.53438 28.8625 91.89375 28.378124Q92.26875 27.878124 92.26875 27.1125Q92.26875 26.409374 91.925 25.8625Q91.58125 25.315624 90.94063 25.128124Q90.31563 24.925 88.76875 24.925L85.90938 24.925L85.90938 29.253124ZM85.90938 35.8625L89.47188 35.8625Q90.39375 35.8625 90.76875 35.784374Q91.425 35.675 91.8625 35.409374Q92.3 35.128124 92.58125 34.6125Q92.8625 34.08125 92.8625 33.39375Q92.8625 32.596874 92.45625 32.003124Q92.05 31.409374 91.31563 31.175Q90.58125 30.940624 89.22188 30.940624L85.90938 30.940624L85.90938 35.8625ZM102.50313 25.1125L102.50313 23.425L111.76875 23.425L111.76875 24.784374Q110.39375 26.2375 109.05 28.659374Q107.70625 31.065624 106.9875 33.6125Q106.45625 35.409374 106.3 37.55L104.50313 37.55Q104.53438 35.8625 105.15938 33.471874Q105.8 31.08125 106.9875 28.8625Q108.175 26.628124 109.50313 25.1125L102.50313 25.1125ZM113.37813 33.8L115.22188 33.64375Q115.425 34.9875 116.175 35.675Q116.925 36.346874 117.9875 36.346874Q119.25313 36.346874 120.12813 35.39375Q121.00313 34.440624 121.00313 32.846874Q121.00313 31.346874 120.15938 30.4875Q119.31563 29.6125 117.95625 29.6125Q117.09688 29.6125 116.40938 30.003124Q115.7375 30.378124 115.34688 31.003124L113.69063 30.784374L115.08125 23.425L122.20625 23.425L122.20625 25.1125L116.4875 25.1125L115.72188 28.95625Q117.00313 28.05 118.425 28.05Q120.3 28.05 121.58125 29.3625Q122.87813 30.659374 122.87813 32.690624Q122.87813 34.64375 121.7375 36.05Q120.3625 37.8 117.9875 37.8Q116.03438 37.8 114.78438 36.70625Q113.55 35.6125 113.37813 33.8ZM124.70625 26.675Q124.70625 25.14375 125.47188 24.065624Q126.25313 22.9875 127.72188 22.9875Q129.06563 22.9875 129.94063 23.95625Q130.83125 24.909374 130.83125 26.784374Q130.83125 28.596874 129.94063 29.58125Q129.05 30.55 127.7375 30.55Q126.44063 30.55 125.56563 29.596874Q124.70625 28.628124 124.70625 26.675ZM127.76875 24.20625Q127.1125 24.20625 126.675 24.76875Q126.25313 25.33125 126.25313 26.846874Q126.25313 28.221874 126.69063 28.784374Q127.12813 29.346874 127.76875 29.346874Q128.44063 29.346874 128.8625 28.784374Q129.3 28.20625 129.3 26.70625Q129.3 25.315624 128.8625 24.76875Q128.425 24.20625 127.76875 24.20625ZM127.78438 38.08125L135.6125 22.9875L137.03438 22.9875L129.2375 38.08125L127.78438 38.08125ZM133.97188 34.190624Q133.97188 32.64375 134.7375 31.58125Q135.51875 30.503124 136.9875 30.503124Q138.33125 30.503124 139.20625 31.471874Q140.09688 32.425 140.09688 34.3Q140.09688 36.1125 139.20625 37.096874Q138.31563 38.08125 137.00313 38.08125Q135.70625 38.08125 134.83125 37.1125Q133.97188 36.128124 133.97188 34.190624ZM137.03438 31.721874Q136.37813 31.721874 135.94063 32.284374Q135.50313 32.846874 135.50313 34.3625Q135.50313 35.7375 135.94063 36.3Q136.37813 36.8625 137.03438 36.8625Q137.70625 36.8625 138.12813 36.3Q138.56563 35.7375 138.56563 34.221874Q138.56563 32.846874 138.12813 32.284374Q137.69063 31.721874 137.03438 31.721874ZM149.03438 37.55L149.03438 23.2375L151.89375 23.2375L155.26875 33.3625Q155.7375 34.784374 155.95625 35.4875Q156.20625 34.70625 156.72188 33.190624L160.14375 23.2375L162.69063 23.2375L162.69063 37.55L160.87813 37.55L160.87813 25.565624L156.70625 37.55L155.00313 37.55L150.8625 25.3625L150.8625 37.55L149.03438 37.55ZM165.87813 25.253124L165.87813 23.2375L167.64375 23.2375L167.64375 25.253124L165.87813 25.253124ZM165.87813 37.55L165.87813 27.175L167.64375 27.175L167.64375 37.55L165.87813 37.55ZM168.69063 37.55L172.4875 32.159374L168.9875 27.175L171.175 27.175L172.76875 29.6125Q173.22188 30.3 173.4875 30.76875Q173.925 30.128124 174.28438 29.628124L176.03438 27.175L178.12813 27.175L174.55 32.065624L178.40938 37.55L176.25313 37.55L174.1125 34.33125L173.55 33.45625L170.83125 37.55L168.69063 37.55ZM185.97188 34.20625L187.78438 34.440624Q187.3625 36.01875 186.19063 36.909374Q185.03438 37.784374 183.22188 37.784374Q180.95625 37.784374 179.6125 36.39375Q178.28438 34.9875 178.28438 32.45625Q178.28438 29.83125 179.62813 28.39375Q180.97188 26.940624 183.12813 26.940624Q185.20625 26.940624 186.51875 28.3625Q187.84688 29.76875 187.84688 32.346874Q187.84688 32.503124 187.83125 32.815624L180.09688 32.815624Q180.19063 34.51875 181.06563 35.425Q181.94063 36.33125 183.2375 36.33125Q184.20625 36.33125 184.87813 35.83125Q185.56563 35.315624 185.97188 34.20625ZM180.19063 31.3625L185.9875 31.3625Q185.87813 30.065624 185.33125 29.409374Q184.4875 28.39375 183.14375 28.39375Q181.94063 28.39375 181.1125 29.20625Q180.28438 30.003124 180.19063 31.3625ZM196.59688 37.55L196.59688 36.2375Q195.6125 37.784374 193.69063 37.784374Q192.45625 37.784374 191.40938 37.096874Q190.37813 36.409374 189.8 35.190624Q189.2375 33.971874 189.2375 32.378124Q189.2375 30.815624 189.75313 29.55Q190.26875 28.284374 191.3 27.6125Q192.34688 26.940624 193.6125 26.940624Q194.55 26.940624 195.28438 27.346874Q196.01875 27.7375 196.4875 28.3625L196.4875 23.2375L198.22188 23.2375L198.22188 37.55L196.59688 37.55ZM191.03438 32.378124Q191.03438 34.3625 191.87813 35.346874Q192.72188 36.33125 193.8625 36.33125Q195.01875 36.33125 195.81563 35.39375Q196.62813 34.45625 196.62813 32.51875Q196.62813 30.39375 195.8 29.39375Q194.9875 28.39375 193.78438 28.39375Q192.6125 28.39375 191.81563 29.3625Q191.03438 30.315624 191.03438 32.378124ZM207.12813 37.55L207.12813 23.2375L213.47188 23.2375Q215.37813 23.2375 216.37813 23.628124Q217.37813 24.003124 217.97188 24.9875Q218.56563 25.95625 218.56563 27.14375Q218.56563 28.659374 217.58125 29.70625Q216.59688 30.753124 214.53438 31.034374Q215.28438 31.39375 215.675 31.753124Q216.50313 32.503124 217.25313 33.659374L219.7375 37.55L217.3625 37.55L215.45625 34.565624Q214.62813 33.284374 214.09688 32.596874Q213.56563 31.909374 213.12813 31.64375Q212.70625 31.3625 212.26875 31.253124Q211.94063 31.190624 211.22188 31.190624L209.01875 31.190624L209.01875 37.55L207.12813 37.55ZM209.01875 29.55L213.09688 29.55Q214.39375 29.55 215.1125 29.284374Q215.84688 29.01875 216.22188 28.425Q216.6125 27.83125 216.6125 27.14375Q216.6125 26.128124 215.87813 25.471874Q215.14375 24.815624 213.55 24.815624L209.01875 24.815624L209.01875 29.55ZM227.64375 36.26875Q226.65938 37.096874 225.75313 37.440624Q224.84688 37.784374 223.81563 37.784374Q222.1125 37.784374 221.19063 36.95625Q220.26875 36.1125 220.26875 34.815624Q220.26875 34.05 220.6125 33.425Q220.97188 32.8 221.53438 32.425Q222.09688 32.034374 222.8 31.83125Q223.31563 31.70625 224.3625 31.565624Q226.4875 31.315624 227.4875 30.971874Q227.50313 30.6125 227.50313 30.503124Q227.50313 29.440624 227.00313 28.9875Q226.33125 28.39375 225.00313 28.39375Q223.75313 28.39375 223.15938 28.83125Q222.58125 29.26875 222.3 30.378124L220.58125 30.14375Q220.81563 29.034374 221.34688 28.3625Q221.87813 27.675 222.89375 27.315624Q223.90938 26.940624 225.25313 26.940624Q226.58125 26.940624 227.40938 27.253124Q228.2375 27.565624 228.62813 28.05Q229.01875 28.51875 229.175 29.2375Q229.26875 29.690624 229.26875 30.8625L229.26875 33.20625Q229.26875 35.659374 229.37813 36.315624Q229.4875 36.95625 229.83125 37.55L227.9875 37.55Q227.72188 37.003124 227.64375 36.26875ZM227.4875 32.346874Q226.53438 32.7375 224.6125 33.003124Q223.53438 33.159374 223.08125 33.3625Q222.64375 33.55 222.39375 33.925Q222.14375 34.3 222.14375 34.76875Q222.14375 35.471874 222.675 35.940624Q223.20625 36.409374 224.2375 36.409374Q225.25313 36.409374 226.03438 35.971874Q226.83125 35.51875 227.20625 34.753124Q227.4875 34.14375 227.4875 32.9875L227.4875 32.346874ZM231.8625 37.55L231.8625 27.175L233.45625 27.175L233.45625 28.659374Q234.59688 26.940624 236.75313 26.940624Q237.69063 26.940624 238.47188 27.284374Q239.26875 27.6125 239.65938 28.159374Q240.05 28.70625 240.20625 29.45625Q240.3 29.95625 240.3 31.175L240.3 37.55L238.53438 37.55L238.53438 31.2375Q238.53438 30.159374 238.33125 29.628124Q238.12813 29.096874 237.59688 28.784374Q237.08125 28.471874 236.37813 28.471874Q235.25313 28.471874 234.44063 29.190624Q233.62813 29.89375 233.62813 31.878124L233.62813 37.55L231.8625 37.55ZM248.59688 37.55L248.59688 36.2375Q247.6125 37.784374 245.69063 37.784374Q244.45625 37.784374 243.40938 37.096874Q242.37813 36.409374 241.8 35.190624Q241.2375 33.971874 241.2375 32.378124Q241.2375 30.815624 241.75313 29.55Q242.26875 28.284374 243.3 27.6125Q244.34688 26.940624 245.6125 26.940624Q246.55 26.940624 247.28438 27.346874Q248.01875 27.7375 248.4875 28.3625L248.4875 23.2375L250.22188 23.2375L250.22188 37.55L248.59688 37.55ZM243.03438 32.378124Q243.03438 34.3625 243.87813 35.346874Q244.72188 36.33125 245.8625 36.33125Q247.01875 36.33125 247.81563 35.39375Q248.62813 34.45625 248.62813 32.51875Q248.62813 30.39375 247.8 29.39375Q246.9875 28.39375 245.78438 28.39375Q244.6125 28.39375 243.81563 29.3625Q243.03438 30.315624 243.03438 32.378124ZM253.12813 37.55L253.12813 23.2375L259.47186 23.2375Q261.3781 23.2375 262.3781 23.628124Q263.3781 24.003124 263.97186 24.9875Q264.5656 25.95625 264.5656 27.14375Q264.5656 28.659374 263.58124 29.70625Q262.59686 30.753124 260.53436 31.034374Q261.28436 31.39375 261.675 31.753124Q262.5031 32.503124 263.2531 33.659374L265.7375 37.55L263.3625 37.55L261.45624 34.565624Q260.6281 33.284374 260.09686 32.596874Q259.5656 31.909374 259.1281 31.64375Q258.70624 31.3625 258.26874 31.253124Q257.9406 31.190624 257.22186 31.190624L255.01875 31.190624L255.01875 37.55L253.12813 37.55ZM255.01875 29.55L259.09686 29.55Q260.39374 29.55 261.1125 29.284374Q261.84686 29.01875 262.22186 28.425Q262.6125 27.83125 262.6125 27.14375Q262.6125 26.128124 261.8781 25.471874Q261.14374 24.815624 259.55 24.815624L255.01875 24.815624L255.01875 29.55ZM269.59686 37.55L265.8 23.2375L267.7375 23.2375L269.90936 32.6125Q270.26874 34.096874 270.51874 35.55Q271.0656 33.253124 271.15936 32.89375L273.89374 23.2375L276.175 23.2375L278.22186 30.471874Q279.0031 33.175 279.34686 35.55Q279.6125 34.190624 280.05 32.425L282.3 23.2375L284.20624 23.2375L280.28436 37.55L278.45624 37.55L275.4406 26.64375Q275.05 25.26875 274.9875 24.95625Q274.7531 25.940624 274.5656 26.64375L271.53436 37.55L269.59686 37.55ZM291.64374 34.2375L293.33124 34.08125Q293.55 35.26875 294.14374 35.815624Q294.7531 36.346874 295.70624 36.346874Q296.51874 36.346874 297.1281 35.9875Q297.7375 35.6125 298.1281 34.9875Q298.51874 34.3625 298.78436 33.315624Q299.05 32.253124 299.05 31.159374Q299.05 31.05 299.03436 30.815624Q298.5031 31.64375 297.59686 32.175Q296.6906 32.690624 295.6125 32.690624Q293.84686 32.690624 292.6125 31.409374Q291.3781 30.1125 291.3781 28.003124Q291.3781 25.83125 292.65936 24.503124Q293.95624 23.175 295.8781 23.175Q297.28436 23.175 298.4406 23.925Q299.59686 24.675 300.1906 26.065624Q300.8 27.45625 300.8 30.096874Q300.8 32.846874 300.1906 34.471874Q299.59686 36.096874 298.425 36.95625Q297.2531 37.8 295.675 37.8Q293.9875 37.8 292.925 36.8625Q291.8625 35.925 291.64374 34.2375ZM298.84686 27.925Q298.84686 26.409374 298.03436 25.51875Q297.2375 24.628124 296.09686 24.628124Q294.925 24.628124 294.05 25.596874Q293.1906 26.55 293.1906 28.065624Q293.1906 29.440624 294.0031 30.3Q294.83124 31.14375 296.05 31.14375Q297.26874 31.14375 298.05 30.3Q298.84686 29.440624 298.84686 27.925ZM302.64374 34.2375L304.33124 34.08125Q304.55 35.26875 305.14374 35.815624Q305.7531 36.346874 306.70624 36.346874Q307.51874 36.346874 308.1281 35.9875Q308.7375 35.6125 309.1281 34.9875Q309.51874 34.3625 309.78436 33.315624Q310.05 32.253124 310.05 31.159374Q310.05 31.05 310.03436 30.815624Q309.5031 31.64375 308.59686 32.175Q307.6906 32.690624 306.6125 32.690624Q304.84686 32.690624 303.6125 31.409374Q302.3781 30.1125 302.3781 28.003124Q302.3781 25.83125 303.65936 24.503124Q304.95624 23.175 306.8781 23.175Q308.28436 23.175 309.4406 23.925Q310.59686 24.675 311.1906 26.065624Q311.8 27.45625 311.8 30.096874Q311.8 32.846874 311.1906 34.471874Q310.59686 36.096874 309.425 36.95625Q308.2531 37.8 306.675 37.8Q304.9875 37.8 303.925 36.8625Q302.8625 35.925 302.64374 34.2375ZM309.84686 27.925Q309.84686 26.409374 309.03436 25.51875Q308.2375 24.628124 307.09686 24.628124Q305.925 24.628124 305.05 25.596874Q304.1906 26.55 304.1906 28.065624Q304.1906 29.440624 305.0031 30.3Q305.83124 31.14375 307.05 31.14375Q308.26874 31.14375 309.05 30.3Q309.84686 29.440624 309.84686 27.925ZM314.3625 37.55L314.3625 35.55L316.3625 35.55L316.3625 37.55L314.3625 37.55ZM319.64374 34.2375L321.33124 34.08125Q321.55 35.26875 322.14374 35.815624Q322.7531 36.346874 323.70624 36.346874Q324.51874 36.346874 325.1281 35.9875Q325.7375 35.6125 326.1281 34.9875Q326.51874 34.3625 326.78436 33.315624Q327.05 32.253124 327.05 31.159374Q327.05 31.05 327.03436 30.815624Q326.5031 31.64375 325.59686 32.175Q324.6906 32.690624 323.6125 32.690624Q321.84686 32.690624 320.6125 31.409374Q319.3781 30.1125 319.3781 28.003124Q319.3781 25.83125 320.65936 24.503124Q321.95624 23.175 323.8781 23.175Q325.28436 23.175 326.4406 23.925Q327.59686 24.675 328.1906 26.065624Q328.8 27.45625 328.8 30.096874Q328.8 32.846874 328.1906 34.471874Q327.59686 36.096874 326.425 36.95625Q325.2531 37.8 323.675 37.8Q321.9875 37.8 320.925 36.8625Q319.8625 35.925 319.64374 34.2375ZM326.84686 27.925Q326.84686 26.409374 326.03436 25.51875Q325.2375 24.628124 324.09686 24.628124Q322.925 24.628124 322.05 25.596874Q321.1906 26.55 321.1906 28.065624Q321.1906 29.440624 322.0031 30.3Q322.83124 31.14375 324.05 31.14375Q325.26874 31.14375 326.05 30.3Q326.84686 29.440624 326.84686 27.925ZM330.70624 26.675Q330.70624 25.14375 331.47186 24.065624Q332.2531 22.9875 333.72186 22.9875Q335.0656 22.9875 335.9406 23.95625Q336.83124 24.909374 336.83124 26.784374Q336.83124 28.596874 335.9406 29.58125Q335.05 30.55 333.7375 30.55Q332.4406 30.55 331.5656 29.596874Q330.70624 28.628124 330.70624 26.675ZM333.76874 24.20625Q333.1125 24.20625 332.675 24.76875Q332.2531 25.33125 332.2531 26.846874Q332.2531 28.221874 332.6906 28.784374Q333.1281 29.346874 333.76874 29.346874Q334.4406 29.346874 334.8625 28.784374Q335.3 28.20625 335.3 26.70625Q335.3 25.315624 334.8625 24.76875Q334.425 24.20625 333.76874 24.20625ZM333.78436 38.08125L341.6125 22.9875L343.03436 22.9875L335.2375 38.08125L333.78436 38.08125ZM339.97186 34.190624Q339.97186 32.64375 340.7375 31.58125Q341.51874 30.503124 342.9875 30.503124Q344.33124 30.503124 345.20624 31.471874Q346.09686 32.425 346.09686 34.3Q346.09686 36.1125 345.20624 37.096874Q344.3156 38.08125 343.0031 38.08125Q341.70624 38.08125 340.83124 37.1125Q339.97186 36.128124 339.97186 34.190624ZM343.03436 31.721874Q342.3781 31.721874 341.9406 32.284374Q341.5031 32.846874 341.5031 34.3625Q341.5031 35.7375 341.9406 36.3Q342.3781 36.8625 343.03436 36.8625Q343.70624 36.8625 344.1281 36.3Q344.5656 35.7375 344.5656 34.221874Q344.5656 32.846874 344.1281 32.284374Q343.6906 31.721874 343.03436 31.721874ZM355.01874 37.55L355.01874 23.2375L356.90936 23.2375L356.90936 35.8625L363.95624 35.8625L363.95624 37.55L355.01874 37.55ZM372.64374 36.26875Q371.65936 37.096874 370.7531 37.440624Q369.84686 37.784374 368.8156 37.784374Q367.1125 37.784374 366.1906 36.95625Q365.26874 36.1125 365.26874 34.815624Q365.26874 34.05 365.6125 33.425Q365.97186 32.8 366.53436 32.425Q367.09686 32.034374 367.8 31.83125Q368.3156 31.70625 369.3625 31.565624Q371.4875 31.315624 372.4875 30.971874Q372.5031 30.6125 372.5031 30.503124Q372.5031 29.440624 372.0031 28.9875Q371.33124 28.39375 370.0031 28.39375Q368.7531 28.39375 368.15936 28.83125Q367.58124 29.26875 367.3 30.378124L365.58124 30.14375Q365.8156 29.034374 366.34686 28.3625Q366.8781 27.675 367.89374 27.315624Q368.90936 26.940624 370.2531 26.940624Q371.58124 26.940624 372.40936 27.253124Q373.2375 27.565624 373.6281 28.05Q374.01874 28.51875 374.175 29.2375Q374.26874 29.690624 374.26874 30.8625L374.26874 33.20625Q374.26874 35.659374 374.3781 36.315624Q374.4875 36.95625 374.83124 37.55L372.9875 37.55Q372.72186 37.003124 372.64374 36.26875ZM372.4875 32.346874Q371.53436 32.7375 369.6125 33.003124Q368.53436 33.159374 368.08124 33.3625Q367.64374 33.55 367.39374 33.925Q367.14374 34.3 367.14374 34.76875Q367.14374 35.471874 367.675 35.940624Q368.20624 36.409374 369.2375 36.409374Q370.2531 36.409374 371.03436 35.971874Q371.83124 35.51875 372.20624 34.753124Q372.4875 34.14375 372.4875 32.9875L372.4875 32.346874ZM380.70624 35.971874L380.95624 37.534374Q380.22186 37.690624 379.6281 37.690624Q378.675 37.690624 378.14374 37.39375Q377.6281 37.08125 377.40936 36.596874Q377.1906 36.096874 377.1906 34.51875L377.1906 28.55L375.90936 28.55L375.90936 27.175L377.1906 27.175L377.1906 24.6125L378.9406 23.55L378.9406 27.175L380.70624 27.175L380.70624 28.55L378.9406 28.55L378.9406 34.6125Q378.9406 35.3625 379.03436 35.58125Q379.1281 35.784374 379.33124 35.925Q379.55 36.05 379.9406 36.05Q380.22186 36.05 380.70624 35.971874ZM389.97186 34.20625L391.78436 34.440624Q391.3625 36.01875 390.1906 36.909374Q389.03436 37.784374 387.22186 37.784374Q384.95624 37.784374 383.6125 36.39375Q382.28436 34.9875 382.28436 32.45625Q382.28436 29.83125 383.6281 28.39375Q384.97186 26.940624 387.1281 26.940624Q389.20624 26.940624 390.51874 28.3625Q391.84686 29.76875 391.84686 32.346874Q391.84686 32.503124 391.83124 32.815624L384.09686 32.815624Q384.1906 34.51875 385.0656 35.425Q385.9406 36.33125 387.2375 36.33125Q388.20624 36.33125 388.8781 35.83125Q389.5656 35.315624 389.97186 34.20625ZM384.1906 31.3625L389.9875 31.3625Q389.8781 30.065624 389.33124 29.409374Q388.4875 28.39375 387.14374 28.39375Q385.9406 28.39375 385.1125 29.20625Q384.28436 30.003124 384.1906 31.3625ZM393.8625 37.55L393.8625 27.175L395.45624 27.175L395.45624 28.659374Q396.59686 26.940624 398.7531 26.940624Q399.6906 26.940624 400.47186 27.284374Q401.26874 27.6125 401.65936 28.159374Q402.05 28.70625 402.20624 29.45625Q402.3 29.95625 402.3 31.175L402.3 37.55L400.53436 37.55L400.53436 31.2375Q400.53436 30.159374 400.33124 29.628124Q400.1281 29.096874 399.59686 28.784374Q399.08124 28.471874 398.3781 28.471874Q397.2531 28.471874 396.4406 29.190624Q395.6281 29.89375 395.6281 31.878124L395.6281 37.55L393.8625 37.55ZM410.64374 33.753124L412.3625 33.971874Q412.08124 35.76875 410.90936 36.784374Q409.7531 37.784374 408.05 37.784374Q405.925 37.784374 404.6281 36.39375Q403.33124 35.003124 403.33124 32.409374Q403.33124 30.721874 403.8781 29.471874Q404.4406 28.20625 405.58124 27.58125Q406.72186 26.940624 408.0656 26.940624Q409.7531 26.940624 410.8156 27.8Q411.89374 28.659374 412.20624 30.221874L410.4875 30.4875Q410.2531 29.440624 409.6281 28.925Q409.0031 28.39375 408.1281 28.39375Q406.8 28.39375 405.97186 29.346874Q405.14374 30.3 405.14374 32.346874Q405.14374 34.440624 405.9406 35.39375Q406.7375 36.33125 408.03436 36.33125Q409.0656 36.33125 409.7531 35.70625Q410.45624 35.065624 410.64374 33.753124ZM413.78436 41.55L413.59686 39.89375Q414.175 40.05 414.59686 40.05Q415.1906 40.05 415.53436 39.846874Q415.89374 39.659374 416.1125 39.315624Q416.28436 39.05 416.65936 38.003124Q416.70624 37.846874 416.8156 37.565624L412.8781 27.175L414.76874 27.175L416.925 33.190624Q417.34686 34.33125 417.675 35.58125Q417.9875 34.378124 418.39374 33.221874L420.6125 27.175L422.3781 27.175L418.425 37.721874Q417.8 39.440624 417.4406 40.08125Q416.97186 40.95625 416.3625 41.346874Q415.76874 41.753124 414.925 41.753124Q414.40936 41.753124 413.78436 41.55ZM433.22186 41.753124Q431.76874 39.925 430.76874 37.471874Q429.76874 35.003124 429.76874 32.3625Q429.76874 30.034374 430.51874 27.909374Q431.39374 25.440624 433.22186 22.9875L434.4875 22.9875Q433.3 25.01875 432.925 25.89375Q432.33124 27.2375 431.9875 28.70625Q431.5656 30.534374 431.5656 32.378124Q431.5656 37.065624 434.4875 41.753124L433.22186 41.753124ZM443.0031 37.55L441.2375 37.55L441.2375 26.346874Q440.6125 26.95625 439.58124 27.565624Q438.55 28.159374 437.72186 28.471874L437.72186 26.76875Q439.20624 26.08125 440.3 25.096874Q441.40936 24.096874 441.8625 23.175L443.0031 23.175L443.0031 37.55ZM456.5031 26.7375L454.7531 26.878124Q454.51874 25.846874 454.09686 25.378124Q453.3781 24.6125 452.33124 24.6125Q451.4875 24.6125 450.8625 25.08125Q450.03436 25.690624 449.55 26.8625Q449.0656 28.01875 449.05 30.159374Q449.6906 29.20625 450.59686 28.7375Q451.51874 28.26875 452.53436 28.26875Q454.28436 28.26875 455.51874 29.565624Q456.7531 30.846874 456.7531 32.89375Q456.7531 34.253124 456.175 35.409374Q455.59686 36.565624 454.58124 37.190624Q453.5656 37.8 452.26874 37.8Q450.08124 37.8 448.6906 36.190624Q447.3 34.565624 447.3 30.846874Q447.3 26.70625 448.83124 24.815624Q450.175 23.175 452.4406 23.175Q454.1281 23.175 455.20624 24.128124Q456.28436 25.065624 456.5031 26.7375ZM449.33124 32.909374Q449.33124 33.815624 449.70624 34.64375Q450.09686 35.471874 450.78436 35.909374Q451.4875 36.346874 452.2375 36.346874Q453.3625 36.346874 454.15936 35.45625Q454.95624 34.55 454.95624 33.003124Q454.95624 31.51875 454.15936 30.675Q453.3781 29.815624 452.175 29.815624Q450.9875 29.815624 450.15936 30.675Q449.33124 31.51875 449.33124 32.909374ZM475.3156 32.534374L477.20624 33.003124Q476.6125 35.346874 475.0656 36.58125Q473.51874 37.8 471.26874 37.8Q468.95624 37.8 467.5031 36.8625Q466.0656 35.909374 465.3 34.128124Q464.55 32.33125 464.55 30.284374Q464.55 28.05 465.39374 26.39375Q466.2531 24.721874 467.83124 23.8625Q469.40936 22.9875 471.3 22.9875Q473.45624 22.9875 474.90936 24.08125Q476.3781 25.175 476.95624 27.159374L475.09686 27.596874Q474.59686 26.034374 473.64374 25.33125Q472.70624 24.6125 471.26874 24.6125Q469.6125 24.6125 468.5031 25.409374Q467.39374 26.190624 466.9406 27.534374Q466.5031 28.8625 466.5031 30.26875Q466.5031 32.096874 467.03436 33.471874Q467.5656 34.83125 468.6906 35.503124Q469.8156 36.175 471.1125 36.175Q472.70624 36.175 473.8156 35.253124Q474.925 34.33125 475.3156 32.534374ZM478.83124 37.55L478.83124 23.2375L480.58124 23.2375L480.58124 37.55L478.83124 37.55ZM482.8781 25.253124L482.8781 23.2375L484.64374 23.2375L484.64374 25.253124L482.8781 25.253124ZM482.8781 37.55L482.8781 27.175L484.64374 27.175L484.64374 37.55L482.8781 37.55ZM493.97186 34.20625L495.78436 34.440624Q495.3625 36.01875 494.1906 36.909374Q493.03436 37.784374 491.22186 37.784374Q488.95624 37.784374 487.6125 36.39375Q486.28436 34.9875 486.28436 32.45625Q486.28436 29.83125 487.6281 28.39375Q488.97186 26.940624 491.1281 26.940624Q493.20624 26.940624 494.51874 28.3625Q495.84686 29.76875 495.84686 32.346874Q495.84686 32.503124 495.83124 32.815624L488.09686 32.815624Q488.1906 34.51875 489.0656 35.425Q489.9406 36.33125 491.2375 36.33125Q492.20624 36.33125 492.8781 35.83125Q493.5656 35.315624 493.97186 34.20625ZM488.1906 31.3625L493.9875 31.3625Q493.8781 30.065624 493.33124 29.409374Q492.4875 28.39375 491.14374 28.39375Q489.9406 28.39375 489.1125 29.20625Q488.28436 30.003124 488.1906 31.3625ZM497.8625 37.55L497.8625 27.175L499.45624 27.175L499.45624 28.659374Q500.59686 26.940624 502.7531 26.940624Q503.6906 26.940624 504.47186 27.284374Q505.26874 27.6125 505.65936 28.159374Q506.05 28.70625 506.20624 29.45625Q506.3 29.95625 506.3 31.175L506.3 37.55L504.53436 37.55L504.53436 31.2375Q504.53436 30.159374 504.33124 29.628124Q504.1281 29.096874 503.59686 28.784374Q503.08124 28.471874 502.3781 28.471874Q501.2531 28.471874 500.4406 29.190624Q499.6281 29.89375 499.6281 31.878124L499.6281 37.55L497.8625 37.55ZM511.70624 35.971874L511.95624 37.534374Q511.22186 37.690624 510.6281 37.690624Q509.675 37.690624 509.14374 37.39375Q508.6281 37.08125 508.40936 36.596874Q508.1906 36.096874 508.1906 34.51875L508.1906 28.55L506.90936 28.55L506.90936 27.175L508.1906 27.175L508.1906 24.6125L509.9406 23.55L509.9406 27.175L511.70624 27.175L511.70624 28.55L509.9406 28.55L509.9406 34.6125Q509.9406 35.3625 510.03436 35.58125Q510.1281 35.784374 510.33124 35.925Q510.55 36.05 510.9406 36.05Q511.22186 36.05 511.70624 35.971874ZM515.01874 41.753124L513.76874 41.753124Q516.675 37.065624 516.675 32.378124Q516.675 30.534374 516.26874 28.7375Q515.925 27.26875 515.33124 25.925Q514.95624 25.034374 513.76874 22.9875L515.01874 22.9875Q516.8625 25.440624 517.7375 27.909374Q518.4875 30.034374 518.4875 32.3625Q518.4875 35.003124 517.47186 37.471874Q516.47186 39.925 515.01874 41.753124Z" fill-rule="nonzero"/></svg>