<svg version="1.1" viewBox="0.0 0.0 650.0 371.0" fill="none" stroke="none" stroke-linecap="square" stroke-miterlimit="10" width="650" height="371" xmlns:xlink="http://www.w3.org/1999/xlink" xmlns="http://www.w3.org/2000/svg"><path fill="#384244" d="M0 0L650.0 0L650.0 371.0L0 371.0L0 0Z" fill-rule="nonzero"/><path stroke="#ffffff" stroke-width="1.0" stroke-linecap="butt" d="M80.5 332.5L631.5 332.5" fill-rule="nonzero"/><path stroke="#6d7476" stroke-width="1.0" stroke-linecap="butt" d="M80.5 277.5L631.5 277.5" fill-rule="nonzero"/><path stroke="#6d7476" stroke-width="1.0" stroke-linecap="butt" d="M80.5 222.5L631.5 222.5" fill-rule="nonzero"/><path stroke="#6d7476" stroke-width="1.0" stroke-linecap="butt" d="M80.5 166.5L631.5 166.5" fill-rule="nonzero"/><path stroke="#6d7476" stroke-width="1.0" stroke-linecap="butt" d="M80.5 111.5L631.5 111.5" fill-rule="nonzero"/><clipPath id="id_0"><path d="M80.55 111.78333L631.45 111.78333L631.45 332.45L80.55 332.45L80.55 111.78333Z" clip-rule="nonzero"/></clipPath><path stroke="#000000" stroke-width="2.0" stroke-linecap="butt" stroke-opacity="0.0" clip-path="url(#id_0)" d="M191.0 332.0L140.0 332.0L140.0 237.0C140.0 235.89543 140.89543 235.0 142.0 235.0L189.0 235.0C190.10457 235.0 191.0 235.89543 191.0 237.0Z" fill-rule="nonzero"/><path fill="#d9d9d9" clip-path="url(#id_0)" d="M191.0 332.0L140.0 332.0L140.0 237.0C140.0 235.89543 140.89543 235.0 142.0 235.0L189.0 235.0C190.10457 235.0 191.0 235.89543 191.0 237.0Z" fill-rule="nonzero"/><path stroke="#000000" stroke-width="2.0" stroke-linecap="butt" stroke-opacity="0.0" clip-path="url(#id_0)" d="M355.0 332.0L304.0 332.0L304.0 237.0C304.0 235.89543 304.89542 235.0 306.0 235.0L353.0 235.0C354.10458 235.0 355.0 235.89543 355.0 237.0Z" fill-rule="nonzero"/><path fill="#d9d9d9" clip-path="url(#id_0)" d="M355.0 332.0L304.0 332.0L304.0 237.0C304.0 235.89543 304.89542 235.0 306.0 235.0L353.0 235.0C354.10458 235.0 355.0 235.89543 355.0 237.0Z" fill-rule="nonzero"/><path stroke="#000000" stroke-width="2.0" stroke-linecap="butt" stroke-opacity="0.0" clip-path="url(#id_0)" d="M519.0 332.0L468.0 332.0L468.0 237.0C468.0 235.89543 468.89542 235.0 470.0 235.0L517.0 235.0C518.10455 235.0 519.0 235.89543 519.0 237.0Z" fill-rule="nonzero"/><path fill="#d9d9d9" clip-path="url(#id_0)" d="M519.0 332.0L468.0 332.0L468.0 237.0C468.0 235.89543 468.89542 235.0 470.0 235.0L517.0 235.0C518.10455 235.0 519.0 235.89543 519.0 237.0Z" fill-rule="nonzero"/><path stroke="#000000" stroke-width="2.0" stroke-linecap="butt" stroke-opacity="0.0" clip-path="url(#id_0)" d="M244.0 332.0L193.0 332.0L193.0 149.0C193.0 147.89543 193.89543 147.0 195.0 147.0L242.0 147.0C243.10457 147.0 244.0 147.89543 244.0 149.0Z" fill-rule="nonzero"/><path fill="#d7ff84" clip-path="url(#id_0)" d="M244.0 332.0L193.0 332.0L193.0 149.0C193.0 147.89543 193.89543 147.0 195.0 147.0L242.0 147.0C243.10457 147.0 244.0 147.89543 244.0 149.0Z" fill-rule="nonzero"/><path stroke="#000000" stroke-width="2.0" stroke-linecap="butt" stroke-opacity="0.0" clip-path="url(#id_0)" d="M408.0 332.0L357.0 332.0L357.0 151.0C357.0 149.89543 357.89542 149.0 359.0 149.0L406.0 149.0C407.10458 149.0 408.0 149.89543 408.0 151.0Z" fill-rule="nonzero"/><path fill="#d7ff84" clip-path="url(#id_0)" d="M408.0 332.0L357.0 332.0L357.0 151.0C357.0 149.89543 357.89542 149.0 359.0 149.0L406.0 149.0C407.10458 149.0 408.0 149.89543 408.0 151.0Z" fill-rule="nonzero"/><path stroke="#000000" stroke-width="2.0" stroke-linecap="butt" stroke-opacity="0.0" clip-path="url(#id_0)" d="M572.0 332.0L521.0 332.0L521.0 155.0C521.0 153.89543 521.89545 153.0 523.0 153.0L570.0 153.0C571.10455 153.0 572.0 153.89543 572.0 155.0Z" fill-rule="nonzero"/><path fill="#d7ff84" clip-path="url(#id_0)" d="M572.0 332.0L521.0 332.0L521.0 155.0C521.0 153.89543 521.89545 153.0 523.0 153.0L570.0 153.0C571.10455 153.0 572.0 153.89543 572.0 155.0Z" fill-rule="nonzero"/><path fill="#ffffff" d="M29.550013 275.1323L20.956263 271.83542L20.956263 270.61667L29.550013 267.10104L29.550013 268.3823L26.940638 269.39792L26.940638 272.97604L29.550013 273.92917L29.550013 275.1323ZM26.018763 272.64792L26.018763 269.74167L23.643763 270.6323Q22.565638 271.05417 21.862513 271.24167Q22.690638 271.41354 23.503138 271.71042L26.018763 272.64792ZM29.550013 265.60104L23.331263 267.96042L23.331263 266.85104L27.050013 265.5073Q27.659388 265.30417 28.300013 265.11667Q27.815638 264.97604 27.128138 264.72604L23.331263 263.33542L23.331263 262.2573L29.550013 264.61667L29.550013 265.60104ZM30.065638 262.52292L30.221888 261.49167Q30.690638 261.42917 30.909388 261.1323Q31.206263 260.74167 31.206263 260.0698Q31.206263 259.33542 30.909388 258.9448Q30.612513 258.53854 30.096888 258.39792Q29.768763 258.30417 28.737513 258.3198Q29.550013 259.0073 29.550013 260.03854Q29.550013 261.3198 28.628138 262.02292Q27.690638 262.72604 26.409388 262.72604Q25.518763 262.72604 24.768763 262.41354Q24.003138 262.08542 23.596888 261.47604Q23.190638 260.86667 23.190638 260.03854Q23.190638 258.92917 24.081263 258.21042L23.331263 258.21042L23.331263 257.24167L28.706263 257.24167Q30.159388 257.24167 30.768763 257.53854Q31.378138 257.83542 31.721888 258.47604Q32.08126 259.11667 32.08126 260.05417Q32.08126 261.16354 31.581263 261.85104Q31.081263 262.53854 30.065638 262.52292ZM26.331263 261.64792Q27.550013 261.64792 28.112513 261.16354Q28.675013 260.67917 28.675013 259.9448Q28.675013 259.21042 28.112513 258.72604Q27.550013 258.22604 26.362513 258.22604Q25.221888 258.22604 24.643763 258.74167Q24.065638 259.24167 24.065638 259.96042Q24.065638 260.66354 24.643763 261.16354Q25.206263 261.64792 26.331263 261.64792ZM29.550013 252.24167L20.956263 252.24167L20.956263 251.10104L28.534388 251.10104L28.534388 246.86667L29.550013 246.86667L29.550013 252.24167ZM28.784388 241.2573Q29.284388 241.85104 29.487513 242.39792Q29.690638 242.92917 29.690638 243.55417Q29.690638 244.58542 29.190638 245.1323Q28.690638 245.67917 27.909388 245.67917Q27.456263 245.67917 27.081263 245.47604Q26.690638 245.27292 26.471888 244.92917Q26.237513 244.58542 26.128138 244.16354Q26.034388 243.86667 25.956263 243.22604Q25.815638 241.96042 25.596888 241.35104Q25.378138 241.35104 25.331263 241.35104Q24.675013 241.35104 24.409388 241.64792Q24.065638 242.05417 24.065638 242.85104Q24.065638 243.58542 24.331263 243.9448Q24.581263 244.30417 25.237513 244.47604L25.096888 245.5073Q24.440638 245.36667 24.034388 245.03854Q23.628138 244.71042 23.409388 244.10104Q23.190638 243.49167 23.190638 242.6948Q23.190638 241.89792 23.378138 241.39792Q23.565638 240.89792 23.846888 240.66354Q24.128138 240.42917 24.565638 240.33542Q24.831263 240.28854 25.534388 240.28854L26.940638 240.28854Q28.409388 240.28854 28.800013 240.22604Q29.190638 240.14792 29.550013 239.9448L29.550013 241.05417Q29.221888 241.21042 28.784388 241.2573ZM26.425013 241.35104Q26.659388 241.92917 26.831263 243.0698Q26.925013 243.72604 27.050013 243.99167Q27.159388 244.2573 27.378138 244.41354Q27.596888 244.55417 27.878138 244.55417Q28.300013 244.55417 28.581263 244.24167Q28.862513 243.91354 28.862513 243.30417Q28.862513 242.6948 28.596888 242.22604Q28.331263 241.74167 27.862513 241.52292Q27.503138 241.35104 26.815638 241.35104L26.425013 241.35104ZM28.612513 236.02292L29.534388 235.86667Q29.628138 236.3198 29.628138 236.66354Q29.628138 237.24167 29.456263 237.55417Q29.268763 237.86667 28.971888 238.0073Q28.675013 238.1323 27.721888 238.1323L24.143763 238.1323L24.143763 238.89792L23.331263 238.89792L23.331263 238.1323L21.784388 238.1323L21.159388 237.08542L23.331263 237.08542L23.331263 236.02292L24.143763 236.02292L24.143763 237.08542L27.784388 237.08542Q28.237513 237.08542 28.362513 237.03854Q28.487513 236.97604 28.565638 236.85104Q28.643763 236.72604 28.643763 236.49167Q28.643763 236.30417 28.612513 236.02292ZM27.550013 231.0698L27.675013 229.97604Q28.628138 230.22604 29.159388 230.92917Q29.690638 231.6323 29.690638 232.71042Q29.690638 234.0698 28.846888 234.8823Q28.003138 235.67917 26.487513 235.67917Q24.925013 235.67917 24.065638 234.86667Q23.190638 234.05417 23.190638 232.77292Q23.190638 231.52292 24.034388 230.74167Q24.878138 229.9448 26.425013 229.9448Q26.518763 229.9448 26.706263 229.9448L26.706263 234.58542Q27.737513 234.52292 28.284388 234.0073Q28.815638 233.49167 28.815638 232.71042Q28.815638 232.1323 28.518763 231.72604Q28.206263 231.30417 27.550013 231.0698ZM25.846888 234.52292L25.846888 231.05417Q25.050013 231.11667 24.659388 231.4448Q24.050013 231.96042 24.050013 232.7573Q24.050013 233.49167 24.534388 233.99167Q25.018763 234.47604 25.846888 234.52292ZM29.550013 228.3198L23.331263 228.3198L23.331263 227.3823L24.206263 227.3823Q23.190638 226.6948 23.190638 225.39792Q23.190638 224.83542 23.393763 224.36667Q23.596888 223.8823 23.925013 223.64792Q24.253138 223.41354 24.690638 223.3198Q24.987513 223.27292 25.721888 223.27292L29.550013 223.27292L29.550013 224.3198L25.768763 224.3198Q25.112513 224.3198 24.800013 224.4448Q24.487513 224.5698 24.300013 224.8823Q24.096888 225.1948 24.096888 225.61667Q24.096888 226.28854 24.534388 226.78854Q24.956263 227.27292 26.143763 227.27292L29.550013 227.27292L29.550013 228.3198ZM27.268763 217.2573L27.409388 216.22604Q28.471888 216.39792 29.081263 217.10104Q29.690638 217.80417 29.690638 218.8198Q29.690638 220.10104 28.862513 220.8823Q28.018763 221.64792 26.456263 221.64792Q25.456263 221.64792 24.706263 221.3198Q23.940638 220.97604 23.565638 220.30417Q23.190638 219.61667 23.190638 218.80417Q23.190638 217.80417 23.706263 217.16354Q24.206263 216.5073 25.159388 216.3198L25.315638 217.35104Q24.690638 217.49167 24.378138 217.86667Q24.050013 218.24167 24.050013 218.77292Q24.050013 219.5698 24.628138 220.0698Q25.190638 220.5698 26.425013 220.5698Q27.690638 220.5698 28.253138 220.08542Q28.815638 219.60104 28.815638 218.83542Q28.815638 218.21042 28.440638 217.80417Q28.065638 217.3823 27.268763 217.2573ZM31.940638 215.36667L30.956263 215.49167Q31.050013 215.14792 31.050013 214.8823Q31.050013 214.53854 30.925013 214.33542Q30.815638 214.11667 30.612513 213.97604Q30.440638 213.8823 29.815638 213.64792Q29.737513 213.6323 29.565638 213.55417L23.331263 215.92917L23.331263 214.78854L26.925013 213.49167Q27.612513 213.24167 28.378138 213.03854Q27.643763 212.85104 26.956263 212.60104L23.331263 211.27292L23.331263 210.22604L29.659388 212.58542Q30.675013 212.97604 31.065638 213.17917Q31.596888 213.46042 31.831263 213.83542Q32.08126 214.1948 32.08126 214.6948Q32.08126 214.99167 31.940638 215.36667ZM32.08126 205.30417Q30.971888 206.17917 29.503138 206.78854Q28.018763 207.3823 26.440638 207.3823Q25.050013 207.3823 23.768763 206.9448Q22.284388 206.41354 20.815638 205.30417L20.815638 204.55417Q22.034388 205.2573 22.550013 205.49167Q23.362513 205.85104 24.237513 206.05417Q25.331263 206.30417 26.440638 206.30417Q29.268763 206.30417 32.08126 204.55417L32.08126 205.30417ZM29.550013 203.3198L23.331263 203.3198L23.331263 202.3823L24.206263 202.3823Q23.737513 202.08542 23.471888 201.60104Q23.190638 201.11667 23.190638 200.49167Q23.190638 199.80417 23.471888 199.36667Q23.753138 198.91354 24.268763 198.74167Q23.190638 197.99167 23.190638 196.8198Q23.190638 195.8823 23.706263 195.39792Q24.206263 194.89792 25.284388 194.89792L29.550013 194.89792L29.550013 195.9448L25.628138 195.9448Q25.003138 195.9448 24.721888 196.05417Q24.440638 196.14792 24.268763 196.41354Q24.096888 196.67917 24.096888 197.05417Q24.096888 197.71042 24.534388 198.14792Q24.971888 198.5698 25.940638 198.5698L29.550013 198.5698L29.550013 199.6323L25.503138 199.6323Q24.800013 199.6323 24.456263 199.89792Q24.096888 200.14792 24.096888 200.72604Q24.096888 201.17917 24.331263 201.55417Q24.565638 201.92917 25.018763 202.10104Q25.471888 202.27292 26.315638 202.27292L29.550013 202.27292L29.550013 203.3198ZM27.690638 192.74167L27.534388 191.71042Q28.159388 191.61667 28.487513 191.22604Q28.815638 190.8198 28.815638 190.08542Q28.815638 189.36667 28.534388 189.02292Q28.237513 188.66354 27.831263 188.66354Q27.471888 188.66354 27.268763 188.97604Q27.128138 189.1948 26.909388 190.05417Q26.612513 191.21042 26.409388 191.66354Q26.190638 192.10104 25.815638 192.33542Q25.440638 192.5698 24.971888 192.5698Q24.565638 192.5698 24.206263 192.3823Q23.846888 192.1948 23.612513 191.86667Q23.440638 191.61667 23.315638 191.1948Q23.190638 190.77292 23.190638 190.27292Q23.190638 189.55417 23.409388 189.0073Q23.612513 188.4448 23.971888 188.17917Q24.331263 187.91354 24.925013 187.8198L25.065638 188.85104Q24.596888 188.91354 24.331263 189.2573Q24.050013 189.58542 24.050013 190.21042Q24.050013 190.92917 24.300013 191.24167Q24.534388 191.55417 24.862513 191.55417Q25.065638 191.55417 25.221888 191.42917Q25.393763 191.28854 25.503138 191.02292Q25.565638 190.86667 25.768763 190.08542Q26.081263 188.96042 26.268763 188.52292Q26.456263 188.08542 26.815638 187.83542Q27.175013 187.58542 27.721888 187.58542Q28.253138 187.58542 28.721888 187.89792Q29.175013 188.1948 29.440638 188.77292Q29.690638 189.35104 29.690638 190.08542Q29.690638 191.30417 29.190638 191.9448Q28.675013 192.5698 27.690638 192.74167ZM32.08126 184.6323L32.08126 185.3823Q29.268763 183.6323 26.440638 183.6323Q25.346888 183.6323 24.253138 183.8823Q23.378138 184.08542 22.565638 184.4448Q22.050013 184.67917 20.815638 185.3823L20.815638 184.6323Q22.284388 183.53854 23.768763 183.0073Q25.050013 182.55417 26.440638 182.55417Q28.018763 182.55417 29.503138 183.16354Q30.971888 183.77292 32.08126 184.6323Z" fill-rule="nonzero"/><path fill="#ffffff" d="M51.05 332.21564Q51.05 330.6844 51.3625 329.7625Q51.675 328.825 52.284374 328.325Q52.909374 327.825 53.846874 327.825Q54.534374 327.825 55.05 328.10626Q55.58125 328.3875 55.925 328.91876Q56.26875 329.4344 56.45625 330.1844Q56.64375 330.9344 56.64375 332.21564Q56.64375 333.73126 56.33125 334.65314Q56.034374 335.575 55.409374 336.09064Q54.8 336.59064 53.846874 336.59064Q52.6125 336.59064 51.89375 335.7Q51.05 334.6375 51.05 332.21564ZM52.128124 332.21564Q52.128124 334.325 52.628124 335.02814Q53.128124 335.73126 53.846874 335.73126Q54.58125 335.73126 55.065624 335.02814Q55.565624 334.325 55.565624 332.21564Q55.565624 330.09064 55.065624 329.40314Q54.58125 328.7 53.83125 328.7Q53.1125 328.7 52.675 329.3094Q52.128124 330.09064 52.128124 332.21564ZM58.64375 336.45L58.64375 335.2469L59.846874 335.2469L59.846874 336.45L58.64375 336.45ZM61.05 332.21564Q61.05 330.6844 61.3625 329.7625Q61.675 328.825 62.284374 328.325Q62.909374 327.825 63.846874 327.825Q64.53438 327.825 65.05 328.10626Q65.58125 328.3875 65.925 328.91876Q66.26875 329.4344 66.45625 330.1844Q66.64375 330.9344 66.64375 332.21564Q66.64375 333.73126 66.33125 334.65314Q66.03438 335.575 65.40938 336.09064Q64.8 336.59064 63.846874 336.59064Q62.6125 336.59064 61.89375 335.7Q61.05 334.6375 61.05 332.21564ZM62.128124 332.21564Q62.128124 334.325 62.628124 335.02814Q63.128124 335.73126 63.846874 335.73126Q64.58125 335.73126 65.06563 335.02814Q65.56563 334.325 65.56563 332.21564Q65.56563 330.09064 65.06563 329.40314Q64.58125 328.7 63.83125 328.7Q63.1125 328.7 62.675 329.3094Q62.128124 330.09064 62.128124 332.21564ZM68.05 332.21564Q68.05 330.6844 68.3625 329.7625Q68.675 328.825 69.28438 328.325Q69.90938 327.825 70.84688 327.825Q71.53438 327.825 72.05 328.10626Q72.58125 328.3875 72.925 328.91876Q73.26875 329.4344 73.45625 330.1844Q73.64375 330.9344 73.64375 332.21564Q73.64375 333.73126 73.33125 334.65314Q73.03438 335.575 72.40938 336.09064Q71.8 336.59064 70.84688 336.59064Q69.6125 336.59064 68.89375 335.7Q68.05 334.6375 68.05 332.21564ZM69.12813 332.21564Q69.12813 334.325 69.62813 335.02814Q70.12813 335.73126 70.84688 335.73126Q71.58125 335.73126 72.06563 335.02814Q72.56563 334.325 72.56563 332.21564Q72.56563 330.09064 72.06563 329.40314Q71.58125 328.7 70.83125 328.7Q70.1125 328.7 69.675 329.3094Q69.12813 330.09064 69.12813 332.21564Z" fill-rule="nonzero"/><path fill="#ffffff" d="M51.05 277.04895Q51.05 275.5177 51.3625 274.59583Q51.675 273.65833 52.284374 273.15833Q52.909374 272.65833 53.846874 272.65833Q54.534374 272.65833 55.05 272.93958Q55.58125 273.22083 55.925 273.75208Q56.26875 274.2677 56.45625 275.0177Q56.64375 275.7677 56.64375 277.04895Q56.64375 278.56458 56.33125 279.48645Q56.034374 280.40833 55.409374 280.92395Q54.8 281.42395 53.846874 281.42395Q52.6125 281.42395 51.89375 280.53333Q51.05 279.47083 51.05 277.04895ZM52.128124 277.04895Q52.128124 279.15833 52.628124 279.86145Q53.128124 280.56458 53.846874 280.56458Q54.58125 280.56458 55.065624 279.86145Q55.565624 279.15833 55.565624 277.04895Q55.565624 274.92395 55.065624 274.23645Q54.58125 273.53333 53.83125 273.53333Q53.1125 273.53333 52.675 274.1427Q52.128124 274.92395 52.128124 277.04895ZM58.64375 281.28333L58.64375 280.0802L59.846874 280.0802L59.846874 281.28333L58.64375 281.28333ZM66.59688 280.2677L66.59688 281.28333L60.909374 281.28333Q60.909374 280.90833 61.034374 280.54895Q61.253124 279.97083 61.721874 279.40833Q62.20625 278.84583 63.1125 278.11145Q64.51875 276.9552 65.00313 276.28333Q65.50313 275.61145 65.50313 275.0177Q65.50313 274.3927 65.05 273.97083Q64.59688 273.53333 63.878124 273.53333Q63.1125 273.53333 62.659374 273.98645Q62.20625 274.43958 62.190624 275.25208L61.1125 275.1427Q61.221874 273.92395 61.940624 273.29895Q62.675 272.65833 63.909374 272.65833Q65.14375 272.65833 65.8625 273.34583Q66.58125 274.03333 66.58125 275.04895Q66.58125 275.56458 66.3625 276.06458Q66.15938 276.54895 65.65938 277.11145Q65.175 277.65833 64.05 278.61145Q63.096874 279.40833 62.815624 279.7052Q62.55 279.98645 62.378124 280.2677L66.59688 280.2677ZM68.05 279.03333L69.15938 278.93958Q69.28438 279.75208 69.72188 280.15833Q70.175 280.56458 70.81563 280.56458Q71.56563 280.56458 72.09688 279.98645Q72.62813 279.40833 72.62813 278.47083Q72.62813 277.56458 72.1125 277.04895Q71.6125 276.5177 70.78438 276.5177Q70.28438 276.5177 69.8625 276.75208Q69.45625 276.98645 69.22188 277.34583L68.2375 277.22083L69.06563 272.81458L73.34688 272.81458L73.34688 273.81458L69.90938 273.81458L69.45625 276.12708Q70.22188 275.5802 71.06563 275.5802Q72.19063 275.5802 72.95625 276.36145Q73.7375 277.1427 73.7375 278.37708Q73.7375 279.53333 73.06563 280.3927Q72.2375 281.42395 70.81563 281.42395Q69.64375 281.42395 68.89375 280.7677Q68.15938 280.11145 68.05 279.03333Z" fill-rule="nonzero"/><path fill="#ffffff" d="M51.05 221.8823Q51.05 220.35104 51.3625 219.42917Q51.675 218.49167 52.284374 217.99167Q52.909374 217.49167 53.846874 217.49167Q54.534374 217.49167 55.05 217.77292Q55.58125 218.05417 55.925 218.58542Q56.26875 219.10104 56.45625 219.85104Q56.64375 220.60104 56.64375 221.8823Q56.64375 223.39792 56.33125 224.3198Q56.034374 225.24167 55.409374 225.7573Q54.8 226.2573 53.846874 226.2573Q52.6125 226.2573 51.89375 225.36667Q51.05 224.30417 51.05 221.8823ZM52.128124 221.8823Q52.128124 223.99167 52.628124 224.6948Q53.128124 225.39792 53.846874 225.39792Q54.58125 225.39792 55.065624 224.6948Q55.565624 223.99167 55.565624 221.8823Q55.565624 219.7573 55.065624 219.0698Q54.58125 218.36667 53.83125 218.36667Q53.1125 218.36667 52.675 218.97604Q52.128124 219.7573 52.128124 221.8823ZM58.64375 226.11667L58.64375 224.91354L59.846874 224.91354L59.846874 226.11667L58.64375 226.11667ZM61.05 223.86667L62.159374 223.77292Q62.284374 224.58542 62.721874 224.99167Q63.175 225.39792 63.815624 225.39792Q64.56563 225.39792 65.09688 224.8198Q65.62813 224.24167 65.62813 223.30417Q65.62813 222.39792 65.1125 221.8823Q64.6125 221.35104 63.784374 221.35104Q63.284374 221.35104 62.8625 221.58542Q62.45625 221.8198 62.221874 222.17917L61.2375 222.05417L62.065624 217.64792L66.34688 217.64792L66.34688 218.64792L62.909374 218.64792L62.45625 220.96042Q63.221874 220.41354 64.06563 220.41354Q65.19063 220.41354 65.95625 221.1948Q66.7375 221.97604 66.7375 223.21042Q66.7375 224.36667 66.06563 225.22604Q65.2375 226.2573 63.815624 226.2573Q62.64375 226.2573 61.89375 225.60104Q61.159374 224.9448 61.05 223.86667ZM68.05 221.8823Q68.05 220.35104 68.3625 219.42917Q68.675 218.49167 69.28438 217.99167Q69.90938 217.49167 70.84688 217.49167Q71.53438 217.49167 72.05 217.77292Q72.58125 218.05417 72.925 218.58542Q73.26875 219.10104 73.45625 219.85104Q73.64375 220.60104 73.64375 221.8823Q73.64375 223.39792 73.33125 224.3198Q73.03438 225.24167 72.40938 225.7573Q71.8 226.2573 70.84688 226.2573Q69.6125 226.2573 68.89375 225.36667Q68.05 224.30417 68.05 221.8823ZM69.12813 221.8823Q69.12813 223.99167 69.62813 224.6948Q70.12813 225.39792 70.84688 225.39792Q71.58125 225.39792 72.06563 224.6948Q72.56563 223.99167 72.56563 221.8823Q72.56563 219.7573 72.06563 219.0698Q71.58125 218.36667 70.83125 218.36667Q70.1125 218.36667 69.675 218.97604Q69.12813 219.7573 69.12813 221.8823Z" fill-rule="nonzero"/><path fill="#ffffff" d="M51.05 166.71562Q51.05 165.18437 51.3625 164.2625Q51.675 163.325 52.284374 162.825Q52.909374 162.325 53.846874 162.325Q54.534374 162.325 55.05 162.60625Q55.58125 162.8875 55.925 163.41875Q56.26875 163.93437 56.45625 164.68437Q56.64375 165.43437 56.64375 166.71562Q56.64375 168.23125 56.33125 169.15312Q56.034374 170.075 55.409374 170.59062Q54.8 171.09062 53.846874 171.09062Q52.6125 171.09062 51.89375 170.2Q51.05 169.1375 51.05 166.71562ZM52.128124 166.71562Q52.128124 168.825 52.628124 169.52812Q53.128124 170.23125 53.846874 170.23125Q54.58125 170.23125 55.065624 169.52812Q55.565624 168.825 55.565624 166.71562Q55.565624 164.59062 55.065624 163.90312Q54.58125 163.2 53.83125 163.2Q53.1125 163.2 52.675 163.80937Q52.128124 164.59062 52.128124 166.71562ZM58.64375 170.95L58.64375 169.74687L59.846874 169.74687L59.846874 170.95L58.64375 170.95ZM61.1125 163.48125L61.1125 162.46562L66.675 162.46562L66.675 163.29375Q65.8625 164.16875 65.05 165.62187Q64.25313 167.05937 63.815624 168.59062Q63.4875 169.66875 63.409374 170.95L62.315624 170.95Q62.33125 169.93437 62.70625 168.49687Q63.096874 167.05937 63.8 165.73125Q64.51875 164.40312 65.33125 163.48125L61.1125 163.48125ZM68.05 168.7L69.15938 168.60625Q69.28438 169.41875 69.72188 169.825Q70.175 170.23125 70.81563 170.23125Q71.56563 170.23125 72.09688 169.65312Q72.62813 169.075 72.62813 168.1375Q72.62813 167.23125 72.1125 166.71562Q71.6125 166.18437 70.78438 166.18437Q70.28438 166.18437 69.8625 166.41875Q69.45625 166.65312 69.22188 167.0125L68.2375 166.8875L69.06563 162.48125L73.34688 162.48125L73.34688 163.48125L69.90938 163.48125L69.45625 165.79375Q70.22188 165.24687 71.06563 165.24687Q72.19063 165.24687 72.95625 166.02812Q73.7375 166.80937 73.7375 168.04375Q73.7375 169.2 73.06563 170.05937Q72.2375 171.09062 70.81563 171.09062Q69.64375 171.09062 68.89375 170.43437Q68.15938 169.77812 68.05 168.7Z" fill-rule="nonzero"/><path fill="#ffffff" d="M55.01875 115.78333L53.971874 115.78333L53.971874 109.06458Q53.58125 109.42396 52.95625 109.79896Q52.346874 110.15833 51.8625 110.33021L51.8625 109.31458Q52.7375 108.89271 53.39375 108.31458Q54.065624 107.72083 54.346874 107.15833L55.01875 107.15833L55.01875 115.78333ZM58.64375 115.78333L58.64375 114.58021L59.846874 114.58021L59.846874 115.78333L58.64375 115.78333ZM61.05 111.54896Q61.05 110.01771 61.3625 109.09583Q61.675 108.15833 62.284374 107.65833Q62.909374 107.15833 63.846874 107.15833Q64.53438 107.15833 65.05 107.43958Q65.58125 107.72083 65.925 108.25208Q66.26875 108.76771 66.45625 109.51771Q66.64375 110.26771 66.64375 111.54896Q66.64375 113.06458 66.33125 113.98646Q66.03438 114.90833 65.40938 115.42396Q64.8 115.92396 63.846874 115.92396Q62.6125 115.92396 61.89375 115.03333Q61.05 113.97083 61.05 111.54896ZM62.128124 111.54896Q62.128124 113.65833 62.628124 114.36146Q63.128124 115.06458 63.846874 115.06458Q64.58125 115.06458 65.06563 114.36146Q65.56563 113.65833 65.56563 111.54896Q65.56563 109.42396 65.06563 108.73646Q64.58125 108.03333 63.83125 108.03333Q63.1125 108.03333 62.675 108.64271Q62.128124 109.42396 62.128124 111.54896ZM68.05 111.54896Q68.05 110.01771 68.3625 109.09583Q68.675 108.15833 69.28438 107.65833Q69.90938 107.15833 70.84688 107.15833Q71.53438 107.15833 72.05 107.43958Q72.58125 107.72083 72.925 108.25208Q73.26875 108.76771 73.45625 109.51771Q73.64375 110.26771 73.64375 111.54896Q73.64375 113.06458 73.33125 113.98646Q73.03438 114.90833 72.40938 115.42396Q71.8 115.92396 70.84688 115.92396Q69.6125 115.92396 68.89375 115.03333Q68.05 113.97083 68.05 111.54896ZM69.12813 111.54896Q69.12813 113.65833 69.62813 114.36146Q70.12813 115.06458 70.84688 115.06458Q71.58125 115.06458 72.06563 114.36146Q72.56563 113.65833 72.56563 111.54896Q72.56563 109.42396 72.06563 108.73646Q71.58125 108.03333 70.83125 108.03333Q70.1125 108.03333 69.675 108.64271Q69.12813 109.42396 69.12813 111.54896Z" fill-rule="nonzero"/><path fill="#ffffff" d="M171.06787 349.45L168.7085 343.23126L169.81787 343.23126L171.16162 346.95Q171.36475 347.5594 171.55225 348.2Q171.69287 347.71564 171.94287 347.02814L173.3335 343.23126L174.41162 343.23126L172.05225 349.45L171.06787 349.45ZM178.021 349.45L176.97412 349.45L176.97412 342.73126Q176.5835 343.09064 175.9585 343.46564Q175.34912 343.825 174.86475 343.9969L174.86475 342.98126Q175.73975 342.5594 176.396 341.98126Q177.06787 341.3875 177.34912 340.825L178.021 340.825L178.021 349.45ZM186.521 342.96564L185.47412 343.04376Q185.3335 342.41876 185.0835 342.1375Q184.646 341.6844 184.021 341.6844Q183.521 341.6844 183.13037 341.96564Q182.646 342.34064 182.34912 343.04376Q182.06787 343.73126 182.05225 345.0125Q182.42725 344.4344 182.97412 344.15314Q183.53662 343.8719 184.146 343.8719Q185.19287 343.8719 185.92725 344.65314Q186.67725 345.4344 186.67725 346.65314Q186.67725 347.46564 186.31787 348.16876Q185.97412 348.85626 185.36475 349.23126Q184.75537 349.59064 183.98975 349.59064Q182.66162 349.59064 181.8335 348.6219Q181.00537 347.65314 181.00537 345.4344Q181.00537 342.9344 181.92725 341.8094Q182.72412 340.825 184.0835 340.825Q185.09912 340.825 185.73975 341.40314Q186.396 341.96564 186.521 342.96564ZM182.22412 346.66876Q182.22412 347.21564 182.44287 347.71564Q182.67725 348.2 183.0835 348.46564Q183.50537 348.73126 183.97412 348.73126Q184.63037 348.73126 185.11475 348.2Q185.59912 347.65314 185.59912 346.73126Q185.59912 345.84064 185.11475 345.325Q184.646 344.8094 183.92725 344.8094Q183.2085 344.8094 182.7085 345.325Q182.22412 345.84064 182.22412 346.66876ZM188.646 349.45L188.646 348.2469L189.84912 348.2469L189.84912 349.45L188.646 349.45ZM196.59912 348.4344L196.59912 349.45L190.91162 349.45Q190.91162 349.075 191.03662 348.71564Q191.25537 348.1375 191.72412 347.575Q192.2085 347.0125 193.11475 346.27814Q194.521 345.1219 195.00537 344.45Q195.50537 343.77814 195.50537 343.1844Q195.50537 342.5594 195.05225 342.1375Q194.59912 341.7 193.88037 341.7Q193.11475 341.7 192.66162 342.15314Q192.2085 342.60626 192.19287 343.41876L191.11475 343.3094Q191.22412 342.09064 191.94287 341.46564Q192.67725 340.825 193.91162 340.825Q195.146 340.825 195.86475 341.5125Q196.5835 342.2 196.5835 343.21564Q196.5835 343.73126 196.36475 344.23126Q196.16162 344.71564 195.66162 345.27814Q195.17725 345.825 194.05225 346.77814Q193.09912 347.575 192.81787 347.8719Q192.55225 348.15314 192.38037 348.4344L196.59912 348.4344ZM198.646 349.45L198.646 348.2469L199.84912 348.2469L199.84912 349.45L198.646 349.45ZM205.021 349.45L203.97412 349.45L203.97412 342.73126Q203.5835 343.09064 202.9585 343.46564Q202.34912 343.825 201.86475 343.9969L201.86475 342.98126Q202.73975 342.5594 203.396 341.98126Q204.06787 341.3875 204.34912 340.825L205.021 340.825L205.021 349.45ZM208.05225 347.1844L209.11475 347.04376Q209.28662 347.9344 209.72412 348.34064Q210.16162 348.73126 210.78662 348.73126Q211.53662 348.73126 212.05225 348.21564Q212.56787 347.7 212.56787 346.9344Q212.56787 346.21564 212.0835 345.7469Q211.61475 345.2625 210.88037 345.2625Q210.5835 345.2625 210.13037 345.3875L210.25537 344.45Q210.36475 344.46564 210.42725 344.46564Q211.09912 344.46564 211.63037 344.1219Q212.17725 343.7625 212.17725 343.02814Q212.17725 342.45 211.78662 342.075Q211.396 341.6844 210.771 341.6844Q210.16162 341.6844 209.73975 342.075Q209.3335 342.46564 209.22412 343.23126L208.16162 343.04376Q208.34912 341.9969 209.03662 341.41876Q209.72412 340.825 210.73975 340.825Q211.44287 340.825 212.03662 341.1375Q212.63037 341.4344 212.94287 341.95Q213.25537 342.46564 213.25537 343.0594Q213.25537 343.60626 212.9585 344.075Q212.66162 344.52814 212.0835 344.79376Q212.8335 344.96564 213.25537 345.52814Q213.67725 346.075 213.67725 346.91876Q213.67725 348.04376 212.84912 348.825Q212.03662 349.60626 210.78662 349.60626Q209.66162 349.60626 208.91162 348.9344Q208.16162 348.2469 208.05225 347.1844Z" fill-rule="nonzero"/><path fill="#ffffff" d="M339.01562 349.45L336.65625 343.23126L337.76562 343.23126L339.10938 346.95Q339.3125 347.5594 339.5 348.2Q339.64062 347.71564 339.89062 347.02814L341.28125 343.23126L342.35938 343.23126L340.0 349.45L339.01562 349.45ZM345.96875 349.45L344.92188 349.45L344.92188 342.73126Q344.53125 343.09064 343.90625 343.46564Q343.29688 343.825 342.8125 343.9969L342.8125 342.98126Q343.6875 342.5594 344.34375 341.98126Q345.01562 341.3875 345.29688 340.825L345.96875 340.825L345.96875 349.45ZM349.0625 341.98126L349.0625 340.96564L354.625 340.96564L354.625 341.79376Q353.8125 342.66876 353.0 344.1219Q352.20312 345.5594 351.76562 347.09064Q351.4375 348.16876 351.35938 349.45L350.26562 349.45Q350.28125 348.4344 350.65625 346.9969Q351.04688 345.5594 351.75 344.23126Q352.46875 342.90314 353.28125 341.98126L349.0625 341.98126ZM356.59375 349.45L356.59375 348.2469L357.79688 348.2469L357.79688 349.45L356.59375 349.45ZM364.54688 348.4344L364.54688 349.45L358.85938 349.45Q358.85938 349.075 358.98438 348.71564Q359.20312 348.1375 359.67188 347.575Q360.15625 347.0125 361.0625 346.27814Q362.46875 345.1219 362.95312 344.45Q363.45312 343.77814 363.45312 343.1844Q363.45312 342.5594 363.0 342.1375Q362.54688 341.7 361.82812 341.7Q361.0625 341.7 360.60938 342.15314Q360.15625 342.60626 360.14062 343.41876L359.0625 343.3094Q359.17188 342.09064 359.89062 341.46564Q360.625 340.825 361.85938 340.825Q363.09375 340.825 363.8125 341.5125Q364.53125 342.2 364.53125 343.21564Q364.53125 343.73126 364.3125 344.23126Q364.10938 344.71564 363.60938 345.27814Q363.125 345.825 362.0 346.77814Q361.04688 347.575 360.76562 347.8719Q360.5 348.15314 360.32812 348.4344L364.54688 348.4344ZM366.59375 349.45L366.59375 348.2469L367.79688 348.2469L367.79688 349.45L366.59375 349.45ZM374.46875 342.96564L373.42188 343.04376Q373.28125 342.41876 373.03125 342.1375Q372.59375 341.6844 371.96875 341.6844Q371.46875 341.6844 371.07812 341.96564Q370.59375 342.34064 370.29688 343.04376Q370.01562 343.73126 370.0 345.0125Q370.375 344.4344 370.92188 344.15314Q371.48438 343.8719 372.09375 343.8719Q373.14062 343.8719 373.875 344.65314Q374.625 345.4344 374.625 346.65314Q374.625 347.46564 374.26562 348.16876Q373.92188 348.85626 373.3125 349.23126Q372.70312 349.59064 371.9375 349.59064Q370.60938 349.59064 369.78125 348.6219Q368.95312 347.65314 368.95312 345.4344Q368.95312 342.9344 369.875 341.8094Q370.67188 340.825 372.03125 340.825Q373.04688 340.825 373.6875 341.40314Q374.34375 341.96564 374.46875 342.96564ZM370.17188 346.66876Q370.17188 347.21564 370.39062 347.71564Q370.625 348.2 371.03125 348.46564Q371.45312 348.73126 371.92188 348.73126Q372.57812 348.73126 373.0625 348.2Q373.54688 347.65314 373.54688 346.73126Q373.54688 345.84064 373.0625 345.325Q372.59375 344.8094 371.875 344.8094Q371.15625 344.8094 370.65625 345.325Q370.17188 345.84064 370.17188 346.66876Z" fill-rule="nonzero"/><path fill="#ffffff" d="M503.46338 349.45L501.104 343.23126L502.21338 343.23126L503.55713 346.95Q503.76025 347.5594 503.94775 348.2Q504.08838 347.71564 504.33838 347.02814L505.729 343.23126L506.80713 343.23126L504.44775 349.45L503.46338 349.45ZM510.4165 349.45L509.36963 349.45L509.36963 342.73126Q508.979 343.09064 508.354 343.46564Q507.74463 343.825 507.26025 343.9969L507.26025 342.98126Q508.13525 342.5594 508.7915 341.98126Q509.46338 341.3875 509.74463 340.825L510.4165 340.825L510.4165 349.45ZM515.07275 344.79376Q514.4165 344.54376 514.0884 344.10626Q513.7759 343.65314 513.7759 343.04376Q513.7759 342.10626 514.44775 341.46564Q515.13525 340.825 516.2446 340.825Q517.3696 340.825 518.0571 341.48126Q518.7446 342.1375 518.7446 343.075Q518.7446 343.66876 518.4321 344.10626Q518.1196 344.54376 517.479 344.79376Q518.2759 345.04376 518.6821 345.6219Q519.0884 346.2 519.0884 346.9969Q519.0884 348.09064 518.3071 348.84064Q517.5415 349.59064 516.26025 349.59064Q514.9946 349.59064 514.2134 348.84064Q513.4321 348.09064 513.4321 346.96564Q513.4321 346.1219 513.854 345.5594Q514.2915 344.9969 515.07275 344.79376ZM514.854 342.9969Q514.854 343.60626 515.2446 343.9969Q515.6509 344.3875 516.2759 344.3875Q516.88525 344.3875 517.2759 344.0125Q517.6665 343.6219 517.6665 343.0594Q517.6665 342.48126 517.26025 342.09064Q516.854 341.6844 516.26025 341.6844Q515.6509 341.6844 515.2446 342.075Q514.854 342.46564 514.854 342.9969ZM514.5259 346.96564Q514.5259 347.41876 514.729 347.84064Q514.94775 348.2625 515.3696 348.4969Q515.7915 348.73126 516.2759 348.73126Q517.0259 348.73126 517.51025 348.2469Q518.01025 347.7625 518.01025 347.0125Q518.01025 346.2469 517.51025 345.7469Q517.01025 345.2469 516.2446 345.2469Q515.4946 345.2469 515.01025 345.7469Q514.5259 346.23126 514.5259 346.96564ZM521.0415 349.45L521.0415 348.2469L522.2446 348.2469L522.2446 349.45L521.0415 349.45ZM527.4165 349.45L526.3696 349.45L526.3696 342.73126Q525.979 343.09064 525.354 343.46564Q524.7446 343.825 524.26025 343.9969L524.26025 342.98126Q525.13525 342.5594 525.7915 341.98126Q526.4634 341.3875 526.7446 340.825L527.4165 340.825L527.4165 349.45ZM531.0415 349.45L531.0415 348.2469L532.2446 348.2469L532.2446 349.45L531.0415 349.45ZM533.44775 345.21564Q533.44775 343.6844 533.76025 342.7625Q534.07275 341.825 534.6821 341.325Q535.3071 340.825 536.2446 340.825Q536.9321 340.825 537.44775 341.10626Q537.979 341.3875 538.32275 341.91876Q538.6665 342.4344 538.854 343.1844Q539.0415 343.9344 539.0415 345.21564Q539.0415 346.73126 538.729 347.65314Q538.4321 348.575 537.8071 349.09064Q537.19775 349.59064 536.2446 349.59064Q535.01025 349.59064 534.2915 348.7Q533.44775 347.6375 533.44775 345.21564ZM534.5259 345.21564Q534.5259 347.325 535.0259 348.02814Q535.5259 348.73126 536.2446 348.73126Q536.979 348.73126 537.4634 348.02814Q537.9634 347.325 537.9634 345.21564Q537.9634 343.09064 537.4634 342.40314Q536.979 341.7 536.229 341.7Q535.51025 341.7 535.07275 342.3094Q534.5259 343.09064 534.5259 345.21564Z" fill-rule="nonzero"/><path fill="#d9d9d9" d="M271.5 80.416664C271.5 79.86438 271.94772 79.416664 272.5 79.416664L282.5 79.416664C283.05228 79.416664 283.5 79.86438 283.5 80.416664L283.5 90.416664C283.5 90.96895 283.05228 91.416664 282.5 91.416664L272.5 91.416664C271.94772 91.416664 271.5 90.96895 271.5 90.416664Z" fill-rule="nonzero"/><path fill="#ffffff" d="M292.28125 89.416664L292.28125 83.197914L293.23438 83.197914L293.23438 84.135414Q293.59375 83.479164 293.89062 83.27604Q294.20312 83.05729 294.57812 83.05729Q295.10938 83.05729 295.65625 83.385414L295.29688 84.36979Q294.90625 84.135414 294.53125 84.135414Q294.17188 84.135414 293.89062 84.354164Q293.625 84.55729 293.51562 84.93229Q293.32812 85.49479 293.32812 86.15104L293.32812 89.416664L292.28125 89.416664ZM300.54688 87.416664L301.64062 87.541664Q301.39062 88.49479 300.6875 89.02604Q299.98438 89.55729 298.90625 89.55729Q297.54688 89.55729 296.73438 88.71354Q295.9375 87.86979 295.9375 86.354164Q295.9375 84.791664 296.75 83.93229Q297.5625 83.05729 298.84375 83.05729Q300.09375 83.05729 300.875 83.90104Q301.67188 84.74479 301.67188 86.291664Q301.67188 86.385414 301.67188 86.572914L297.03125 86.572914Q297.09375 87.604164 297.60938 88.15104Q298.125 88.68229 298.90625 88.68229Q299.48438 88.68229 299.89062 88.385414Q300.3125 88.072914 300.54688 87.416664ZM297.09375 85.71354L300.5625 85.71354Q300.5 84.916664 300.17188 84.52604Q299.65625 83.916664 298.85938 83.916664Q298.125 83.916664 297.625 84.40104Q297.14062 84.885414 297.09375 85.71354ZM307.35938 88.65104Q306.76562 89.15104 306.21875 89.354164Q305.6875 89.55729 305.0625 89.55729Q304.03125 89.55729 303.48438 89.05729Q302.9375 88.55729 302.9375 87.77604Q302.9375 87.322914 303.14062 86.947914Q303.34375 86.55729 303.6875 86.33854Q304.03125 86.104164 304.45312 85.99479Q304.75 85.90104 305.39062 85.822914Q306.65625 85.68229 307.26562 85.46354Q307.26562 85.24479 307.26562 85.197914Q307.26562 84.541664 306.96875 84.27604Q306.5625 83.93229 305.76562 83.93229Q305.03125 83.93229 304.67188 84.197914Q304.3125 84.447914 304.14062 85.104164L303.10938 84.96354Q303.25 84.30729 303.57812 83.90104Q303.90625 83.49479 304.51562 83.27604Q305.125 83.05729 305.92188 83.05729Q306.71875 83.05729 307.21875 83.24479Q307.71875 83.43229 307.95312 83.71354Q308.1875 83.99479 308.28125 84.43229Q308.32812 84.697914 308.32812 85.40104L308.32812 86.80729Q308.32812 88.27604 308.39062 88.666664Q308.46875 89.05729 308.67188 89.416664L307.5625 89.416664Q307.40625 89.08854 307.35938 88.65104ZM307.26562 86.291664Q306.6875 86.52604 305.54688 86.697914Q304.89062 86.791664 304.625 86.916664Q304.35938 87.02604 304.20312 87.24479Q304.0625 87.46354 304.0625 87.74479Q304.0625 88.166664 304.375 88.447914Q304.70312 88.729164 305.3125 88.729164Q305.92188 88.729164 306.39062 88.46354Q306.875 88.197914 307.09375 87.729164Q307.26562 87.36979 307.26562 86.68229L307.26562 86.291664ZM314.32812 89.416664L314.32812 88.635414Q313.73438 89.55729 312.59375 89.55729Q311.84375 89.55729 311.21875 89.15104Q310.59375 88.729164 310.25 87.99479Q309.90625 87.260414 309.90625 86.30729Q309.90625 85.385414 310.21875 84.61979Q310.53125 83.854164 311.15625 83.46354Q311.78125 83.05729 312.54688 83.05729Q313.10938 83.05729 313.54688 83.291664Q313.98438 83.52604 314.26562 83.90104L314.26562 80.822914L315.3125 80.822914L315.3125 89.416664L314.32812 89.416664ZM311.0 86.30729Q311.0 87.510414 311.5 88.104164Q312.0 88.68229 312.6875 88.68229Q313.375 88.68229 313.85938 88.11979Q314.34375 87.55729 314.34375 86.40104Q314.34375 85.11979 313.84375 84.52604Q313.35938 83.93229 312.64062 83.93229Q311.9375 83.93229 311.46875 84.510414Q311.0 85.072914 311.0 86.30729Z" fill-rule="nonzero"/><path fill="#d7ff84" d="M332.5 80.416664C332.5 79.86438 332.94772 79.416664 333.5 79.416664L343.5 79.416664C344.05228 79.416664 344.5 79.86438 344.5 80.416664L344.5 90.416664C344.5 90.96895 344.05228 91.416664 343.5 91.416664L333.5 91.416664C332.94772 91.416664 332.5 90.96895 332.5 90.416664Z" fill-rule="nonzero"/><path fill="#ffffff" d="M354.4375 89.416664L352.53125 83.197914L353.625 83.197914L354.60938 86.791664L354.98438 88.11979Q355.01562 88.02604 355.3125 86.83854L356.29688 83.197914L357.375 83.197914L358.3125 86.80729L358.625 87.99479L358.98438 86.791664L360.04688 83.197914L361.07812 83.197914L359.125 89.416664L358.03125 89.416664L357.04688 85.68229L356.79688 84.635414L355.54688 89.416664L354.4375 89.416664ZM362.28125 89.416664L362.28125 83.197914L363.23438 83.197914L363.23438 84.135414Q363.59375 83.479164 363.89062 83.27604Q364.20312 83.05729 364.57812 83.05729Q365.10938 83.05729 365.65625 83.385414L365.29688 84.36979Q364.90625 84.135414 364.53125 84.135414Q364.17188 84.135414 363.89062 84.354164Q363.625 84.55729 363.51562 84.93229Q363.32812 85.49479 363.32812 86.15104L363.32812 89.416664L362.28125 89.416664ZM366.29688 82.041664L366.29688 80.822914L367.35938 80.822914L367.35938 82.041664L366.29688 82.041664ZM366.29688 89.416664L366.29688 83.197914L367.35938 83.197914L367.35938 89.416664L366.29688 89.416664ZM371.59375 88.479164L371.75 89.40104Q371.29688 89.49479 370.95312 89.49479Q370.375 89.49479 370.0625 89.322914Q369.75 89.135414 369.60938 88.83854Q369.48438 88.541664 369.48438 87.58854L369.48438 84.010414L368.71875 84.010414L368.71875 83.197914L369.48438 83.197914L369.48438 81.65104L370.53125 81.02604L370.53125 83.197914L371.59375 83.197914L371.59375 84.010414L370.53125 84.010414L370.53125 87.65104Q370.53125 88.104164 370.57812 88.229164Q370.64062 88.354164 370.76562 88.43229Q370.89062 88.510414 371.125 88.510414Q371.3125 88.510414 371.59375 88.479164ZM376.54688 87.416664L377.64062 87.541664Q377.39062 88.49479 376.6875 89.02604Q375.98438 89.55729 374.90625 89.55729Q373.54688 89.55729 372.73438 88.71354Q371.9375 87.86979 371.9375 86.354164Q371.9375 84.791664 372.75 83.93229Q373.5625 83.05729 374.84375 83.05729Q376.09375 83.05729 376.875 83.90104Q377.67188 84.74479 377.67188 86.291664Q377.67188 86.385414 377.67188 86.572914L373.03125 86.572914Q373.09375 87.604164 373.60938 88.15104Q374.125 88.68229 374.90625 88.68229Q375.48438 88.68229 375.89062 88.385414Q376.3125 88.072914 376.54688 87.416664ZM373.09375 85.71354L376.5625 85.71354Q376.5 84.916664 376.17188 84.52604Q375.65625 83.916664 374.85938 83.916664Q374.125 83.916664 373.625 84.40104Q373.14062 84.885414 373.09375 85.71354Z" fill-rule="nonzero"/><path fill="#d9d9d9" d="M19.58125 63.05L19.58125 53.034374L20.909374 53.034374L20.909374 58.003124L25.878124 53.034374L27.675 53.034374L23.471874 57.08125L27.8625 63.05L26.1125 63.05L22.55 57.971874L20.909374 59.58125L20.909374 63.05L19.58125 63.05ZM28.64375 63.05L28.64375 53.034374L33.096874 53.034374Q34.440624 53.034374 35.128124 53.3Q35.83125 53.565624 36.2375 54.253124Q36.659374 54.940624 36.659374 55.76875Q36.659374 56.83125 35.971874 57.565624Q35.284374 58.284374 33.846874 58.4875Q34.3625 58.7375 34.64375 58.9875Q35.221874 59.51875 35.7375 60.315624L37.4875 63.05L35.815624 63.05L34.4875 60.971874Q33.909374 60.065624 33.534374 59.596874Q33.159374 59.1125 32.8625 58.925Q32.565624 58.721874 32.253124 58.64375Q32.034374 58.596874 31.51875 58.596874L29.971874 58.596874L29.971874 63.05L28.64375 63.05ZM29.971874 57.45625L32.83125 57.45625Q33.7375 57.45625 34.253124 57.26875Q34.76875 57.08125 35.034374 56.675Q35.3 56.253124 35.3 55.76875Q35.3 55.05 34.784374 54.596874Q34.26875 54.128124 33.14375 54.128124L29.971874 54.128124L29.971874 57.45625ZM38.58125 63.05L38.58125 53.034374L42.33125 53.034374Q43.4875 53.034374 44.175 53.346874Q44.878124 53.64375 45.26875 54.26875Q45.659374 54.89375 45.659374 55.596874Q45.659374 56.2375 45.3 56.8Q44.95625 57.3625 44.253124 57.721874Q45.159374 57.9875 45.64375 58.628124Q46.14375 59.26875 46.14375 60.14375Q46.14375 60.846874 45.846874 61.45625Q45.55 62.065624 45.1125 62.39375Q44.675 62.721874 44.003124 62.89375Q43.346874 63.05 42.39375 63.05L38.58125 63.05ZM39.909374 57.2375L42.065624 57.2375Q42.95625 57.2375 43.33125 57.128124Q43.846874 56.971874 44.096874 56.628124Q44.346874 56.26875 44.346874 55.753124Q44.346874 55.253124 44.1125 54.878124Q43.878124 54.4875 43.425 54.346874Q42.9875 54.20625 41.909374 54.20625L39.909374 54.20625L39.909374 57.2375ZM39.909374 61.8625L42.39375 61.8625Q43.034374 61.8625 43.3 61.815624Q43.753124 61.7375 44.065624 61.55Q44.378124 61.346874 44.565624 60.9875Q44.76875 60.628124 44.76875 60.14375Q44.76875 59.58125 44.471874 59.175Q44.190624 58.753124 43.675 58.596874Q43.175 58.425 42.221874 58.425L39.909374 58.425L39.909374 61.8625ZM47.628124 63.05L47.628124 53.034374L51.08125 53.034374Q52.253124 53.034374 52.8625 53.175Q53.721874 53.3625 54.33125 53.89375Q55.128124 54.565624 55.51875 55.6125Q55.909374 56.64375 55.909374 57.9875Q55.909374 59.128124 55.64375 60.01875Q55.378124 60.89375 54.95625 61.471874Q54.55 62.05 54.05 62.378124Q53.55 62.70625 52.846874 62.878124Q52.159374 63.05 51.253124 63.05L47.628124 63.05ZM48.95625 61.8625L51.096874 61.8625Q52.08125 61.8625 52.64375 61.690624Q53.221874 61.503124 53.55 61.159374Q54.01875 60.690624 54.284374 59.89375Q54.55 59.096874 54.55 57.95625Q54.55 56.39375 54.034374 55.55Q53.51875 54.70625 52.784374 54.409374Q52.2375 54.20625 51.065624 54.20625L48.95625 54.20625L48.95625 61.8625ZM57.8 63.05L57.8 61.64375L59.190624 61.64375L59.190624 63.05Q59.190624 63.815624 58.909374 64.28438Q58.64375 64.76875 58.05 65.03438L57.70625 64.50313Q58.096874 64.33125 58.284374 64.00313Q58.471874 63.675 58.4875 63.05L57.8 63.05ZM71.51875 55.4875L70.3 55.58125Q70.12813 54.846874 69.83125 54.51875Q69.33125 54.003124 68.59688 54.003124Q68.00313 54.003124 67.56563 54.33125Q66.9875 54.753124 66.64375 55.565624Q66.31563 56.378124 66.3 57.878124Q66.7375 57.20625 67.37813 56.878124Q68.03438 56.55 68.7375 56.55Q69.97188 56.55 70.83125 57.45625Q71.69063 58.3625 71.69063 59.8Q71.69063 60.7375 71.28438 61.55Q70.87813 62.3625 70.15938 62.8Q69.45625 63.221874 68.55 63.221874Q67.01875 63.221874 66.05 62.096874Q65.08125 60.95625 65.08125 58.3625Q65.08125 55.45625 66.14375 54.128124Q67.08125 52.9875 68.675 52.9875Q69.8625 52.9875 70.6125 53.659374Q71.3625 54.315624 71.51875 55.4875ZM66.4875 59.8Q66.4875 60.440624 66.75313 61.01875Q67.03438 61.596874 67.51875 61.909374Q68.00313 62.20625 68.53438 62.20625Q69.31563 62.20625 69.87813 61.58125Q70.44063 60.95625 70.44063 59.878124Q70.44063 58.83125 69.87813 58.2375Q69.33125 57.628124 68.4875 57.628124Q67.65938 57.628124 67.06563 58.2375Q66.4875 58.83125 66.4875 59.8ZM77.6125 63.05L77.6125 53.034374L78.97188 53.034374L84.2375 60.89375L84.2375 53.034374L85.51875 53.034374L85.51875 63.05L84.15938 63.05L78.89375 55.175L78.89375 63.05L77.6125 63.05ZM86.01875 59.425Q86.01875 57.409374 87.14375 56.425Q88.06563 55.628124 89.425 55.628124Q90.90938 55.628124 91.8625 56.6125Q92.81563 57.58125 92.81563 59.315624Q92.81563 60.721874 92.39375 61.534374Q91.97188 62.33125 91.15938 62.784374Q90.3625 63.221874 89.425 63.221874Q87.89375 63.221874 86.95625 62.2375Q86.01875 61.253124 86.01875 59.425ZM87.28438 59.425Q87.28438 60.815624 87.89375 61.51875Q88.50313 62.20625 89.425 62.20625Q90.33125 62.20625 90.94063 61.503124Q91.55 60.8 91.55 59.378124Q91.55 58.034374 90.94063 57.346874Q90.33125 56.64375 89.425 56.64375Q88.50313 56.64375 87.89375 57.33125Q87.28438 58.01875 87.28438 59.425ZM99.19063 63.05L99.19063 62.128124Q98.4875 63.221874 97.15938 63.221874Q96.28438 63.221874 95.55 62.7375Q94.83125 62.253124 94.425 61.39375Q94.03438 60.534374 94.03438 59.425Q94.03438 58.346874 94.39375 57.45625Q94.75313 56.565624 95.47188 56.096874Q96.20625 55.628124 97.09688 55.628124Q97.75313 55.628124 98.26875 55.909374Q98.78438 56.175 99.09688 56.628124L99.09688 53.034374L100.33125 53.034374L100.33125 63.05L99.19063 63.05ZM95.3 59.425Q95.3 60.815624 95.87813 61.51875Q96.47188 62.20625 97.26875 62.20625Q98.08125 62.20625 98.64375 61.55Q99.20625 60.878124 99.20625 59.534374Q99.20625 58.034374 98.62813 57.346874Q98.05 56.64375 97.22188 56.64375Q96.39375 56.64375 95.84688 57.315624Q95.3 57.9875 95.3 59.425ZM107.44063 60.70625L108.72188 60.8625Q108.40938 61.9875 107.59688 62.6125Q106.78438 63.221874 105.51875 63.221874Q103.925 63.221874 102.9875 62.2375Q102.06563 61.253124 102.06563 59.4875Q102.06563 57.64375 103.00313 56.64375Q103.95625 55.628124 105.45625 55.628124Q106.90938 55.628124 107.83125 56.628124Q108.75313 57.6125 108.75313 59.409374Q108.75313 59.51875 108.75313 59.7375L103.33125 59.7375Q103.40938 60.925 104.00313 61.565624Q104.6125 62.20625 105.53438 62.20625Q106.20625 62.20625 106.675 61.846874Q107.15938 61.4875 107.44063 60.70625ZM103.40938 58.721874L107.45625 58.721874Q107.37813 57.8 106.9875 57.346874Q106.40938 56.64375 105.47188 56.64375Q104.6125 56.64375 104.03438 57.20625Q103.47188 57.76875 103.40938 58.721874ZM109.9875 60.878124L111.19063 60.690624Q111.3 61.425 111.76875 61.815624Q112.2375 62.20625 113.08125 62.20625Q113.925 62.20625 114.33125 61.8625Q114.75313 61.51875 114.75313 61.05Q114.75313 60.628124 114.37813 60.39375Q114.12813 60.221874 113.12813 59.971874Q111.76875 59.628124 111.2375 59.378124Q110.72188 59.128124 110.45625 58.690624Q110.19063 58.253124 110.19063 57.721874Q110.19063 57.2375 110.40938 56.83125Q110.62813 56.409374 111.01875 56.128124Q111.3 55.925 111.78438 55.784374Q112.28438 55.628124 112.8625 55.628124Q113.70625 55.628124 114.34688 55.878124Q115.00313 56.1125 115.31563 56.534374Q115.62813 56.95625 115.7375 57.659374L114.53438 57.83125Q114.45625 57.26875 114.05 56.95625Q113.65938 56.64375 112.94063 56.64375Q112.09688 56.64375 111.7375 56.925Q111.37813 57.190624 111.37813 57.58125Q111.37813 57.815624 111.51875 58.003124Q111.675 58.20625 112.00313 58.33125Q112.175 58.39375 113.08125 58.64375Q114.39375 59.003124 114.90938 59.221874Q115.425 59.440624 115.70625 59.8625Q116.00313 60.284374 116.00313 60.909374Q116.00313 61.534374 115.64375 62.08125Q115.3 62.6125 114.6125 62.925Q113.94063 63.221874 113.08125 63.221874Q111.675 63.221874 110.925 62.628124Q110.19063 62.034374 109.9875 60.878124ZM117.8 63.05L117.8 61.64375L119.19063 61.64375L119.19063 63.05Q119.19063 63.815624 118.90938 64.28438Q118.64375 64.76875 118.05 65.03438L117.70625 64.50313Q118.09688 64.33125 118.28438 64.00313Q118.47188 63.675 118.4875 63.05L117.8 63.05ZM131.59688 61.8625L131.59688 63.05L124.97188 63.05Q124.95625 62.6125 125.1125 62.190624Q125.37813 61.51875 125.925 60.8625Q126.4875 60.20625 127.53438 59.346874Q129.175 58.003124 129.7375 57.221874Q130.31563 56.440624 130.31563 55.7375Q130.31563 55.003124 129.78438 54.503124Q129.26875 54.003124 128.44063 54.003124Q127.55 54.003124 127.00313 54.534374Q126.47188 55.065624 126.47188 56.01875L125.20625 55.878124Q125.33125 54.471874 126.175 53.7375Q127.03438 52.9875 128.45625 52.9875Q129.90938 52.9875 130.7375 53.784374Q131.58125 54.58125 131.58125 55.76875Q131.58125 56.378124 131.33125 56.95625Q131.09688 57.534374 130.51875 58.175Q129.95625 58.815624 128.62813 59.940624Q127.51875 60.8625 127.20625 61.20625Q126.89375 61.534374 126.69063 61.8625L131.59688 61.8625ZM137.6125 63.05L137.6125 53.034374L138.97188 53.034374L144.2375 60.89375L144.2375 53.034374L145.51875 53.034374L145.51875 63.05L144.15938 63.05L138.89375 55.175L138.89375 63.05L137.6125 63.05ZM149.4875 63.05L145.6125 53.034374L147.05 53.034374L149.65938 60.315624Q149.97188 61.190624 150.175 61.95625Q150.40938 61.128124 150.72188 60.315624L153.425 53.034374L154.78438 53.034374L150.8625 63.05L149.4875 63.05ZM155.59688 63.05L155.59688 53.034374L157.58125 53.034374L159.95625 60.128124Q160.28438 61.1125 160.44063 61.6125Q160.6125 61.065624 160.97188 60.003124L163.3625 53.034374L165.15938 53.034374L165.15938 63.05L163.87813 63.05L163.87813 54.659374L160.95625 63.05L159.76875 63.05L156.8625 54.51875L156.8625 63.05L155.59688 63.05ZM171.44063 60.70625L172.72188 60.8625Q172.40938 61.9875 171.59688 62.6125Q170.78438 63.221874 169.51875 63.221874Q167.925 63.221874 166.9875 62.2375Q166.06563 61.253124 166.06563 59.4875Q166.06563 57.64375 167.00313 56.64375Q167.95625 55.628124 169.45625 55.628124Q170.90938 55.628124 171.83125 56.628124Q172.75313 57.6125 172.75313 59.409374Q172.75313 59.51875 172.75313 59.7375L167.33125 59.7375Q167.40938 60.925 168.00313 61.565624Q168.6125 62.20625 169.53438 62.20625Q170.20625 62.20625 170.675 61.846874Q171.15938 61.4875 171.44063 60.70625ZM167.40938 58.721874L171.45625 58.721874Q171.37813 57.8 170.9875 57.346874Q170.40938 56.64375 169.47188 56.64375Q168.6125 56.64375 168.03438 57.20625Q167.47188 57.76875 167.40938 58.721874ZM173.55 63.221874L176.45625 52.8625L177.44063 52.8625L174.53438 63.221874L173.55 63.221874ZM178.6125 63.05L178.6125 53.034374L179.97188 53.034374L185.2375 60.89375L185.2375 53.034374L186.51875 53.034374L186.51875 63.05L185.15938 63.05L179.89375 55.175L179.89375 63.05L178.6125 63.05ZM187.01875 59.425Q187.01875 57.409374 188.14375 56.425Q189.06563 55.628124 190.425 55.628124Q191.90938 55.628124 192.8625 56.6125Q193.81563 57.58125 193.81563 59.315624Q193.81563 60.721874 193.39375 61.534374Q192.97188 62.33125 192.15938 62.784374Q191.3625 63.221874 190.425 63.221874Q188.89375 63.221874 187.95625 62.2375Q187.01875 61.253124 187.01875 59.425ZM188.28438 59.425Q188.28438 60.815624 188.89375 61.51875Q189.50313 62.20625 190.425 62.20625Q191.33125 62.20625 191.94063 61.503124Q192.55 60.8 192.55 59.378124Q192.55 58.034374 191.94063 57.346874Q191.33125 56.64375 190.425 56.64375Q189.50313 56.64375 188.89375 57.33125Q188.28438 58.01875 188.28438 59.425ZM200.19063 63.05L200.19063 62.128124Q199.4875 63.221874 198.15938 63.221874Q197.28438 63.221874 196.55 62.7375Q195.83125 62.253124 195.425 61.39375Q195.03438 60.534374 195.03438 59.425Q195.03438 58.346874 195.39375 57.45625Q195.75313 56.565624 196.47188 56.096874Q197.20625 55.628124 198.09688 55.628124Q198.75313 55.628124 199.26875 55.909374Q199.78438 56.175 200.09688 56.628124L200.09688 53.034374L201.33125 53.034374L201.33125 63.05L200.19063 63.05ZM196.3 59.425Q196.3 60.815624 196.87813 61.51875Q197.47188 62.20625 198.26875 62.20625Q199.08125 62.20625 199.64375 61.55Q200.20625 60.878124 200.20625 59.534374Q200.20625 58.034374 199.62813 57.346874Q199.05 56.64375 198.22188 56.64375Q197.39375 56.64375 196.84688 57.315624Q196.3 57.9875 196.3 59.425ZM208.44063 60.70625L209.72188 60.8625Q209.40938 61.9875 208.59688 62.6125Q207.78438 63.221874 206.51875 63.221874Q204.925 63.221874 203.9875 62.2375Q203.06563 61.253124 203.06563 59.4875Q203.06563 57.64375 204.00313 56.64375Q204.95625 55.628124 206.45625 55.628124Q207.90938 55.628124 208.83125 56.628124Q209.75313 57.6125 209.75313 59.409374Q209.75313 59.51875 209.75313 59.7375L204.33125 59.7375Q204.40938 60.925 205.00313 61.565624Q205.6125 62.20625 206.53438 62.20625Q207.20625 62.20625 207.675 61.846874Q208.15938 61.4875 208.44063 60.70625ZM204.40938 58.721874L208.45625 58.721874Q208.37813 57.8 207.9875 57.346874Q207.40938 56.64375 206.47188 56.64375Q205.6125 56.64375 205.03438 57.20625Q204.47188 57.76875 204.40938 58.721874ZM211.8 63.05L211.8 61.64375L213.19063 61.64375L213.19063 63.05Q213.19063 63.815624 212.90938 64.28438Q212.64375 64.76875 212.05 65.03438L211.70625 64.50313Q212.09688 64.33125 212.28438 64.00313Q212.47188 63.675 212.4875 63.05L211.8 63.05ZM219.14375 60.409374L220.3625 60.2375Q220.58125 61.284374 221.08125 61.753124Q221.59688 62.20625 222.33125 62.20625Q223.20625 62.20625 223.8 61.6125Q224.39375 61.003124 224.39375 60.1125Q224.39375 59.26875 223.83125 58.721874Q223.28438 58.175 222.44063 58.175Q222.08125 58.175 221.56563 58.3L221.70625 57.221874Q221.83125 57.2375 221.89375 57.2375Q222.69063 57.2375 223.31563 56.83125Q223.94063 56.425 223.94063 55.565624Q223.94063 54.89375 223.4875 54.45625Q223.03438 54.003124 222.3 54.003124Q221.58125 54.003124 221.09688 54.45625Q220.62813 54.89375 220.4875 55.8L219.26875 55.58125Q219.4875 54.346874 220.28438 53.675Q221.08125 52.9875 222.26875 52.9875Q223.09688 52.9875 223.78438 53.346874Q224.47188 53.690624 224.83125 54.3Q225.20625 54.909374 225.20625 55.596874Q225.20625 56.2375 224.8625 56.76875Q224.51875 57.3 223.83125 57.628124Q224.72188 57.83125 225.20625 58.471874Q225.70625 59.1125 225.70625 60.096874Q225.70625 61.409374 224.7375 62.315624Q223.78438 63.221874 222.33125 63.221874Q221.00313 63.221874 220.12813 62.440624Q219.26875 61.659374 219.14375 60.409374ZM226.6125 63.05L230.4875 57.83125L227.06563 53.034374L228.64375 53.034374L230.47188 55.596874Q231.03438 56.39375 231.26875 56.83125Q231.6125 56.284374 232.06563 55.690624L234.08125 53.034374L235.51875 53.034374L232.00313 57.753124L235.8 63.05L234.15938 63.05L231.64375 59.471874Q231.425 59.159374 231.20625 58.8Q230.8625 59.346874 230.72188 59.55L228.20625 63.05L226.6125 63.05ZM239.64375 63.05L239.64375 53.034374L244.09688 53.034374Q245.44063 53.034374 246.12813 53.3Q246.83125 53.565624 247.2375 54.253124Q247.65938 54.940624 247.65938 55.76875Q247.65938 56.83125 246.97188 57.565624Q246.28438 58.284374 244.84688 58.4875Q245.3625 58.7375 245.64375 58.9875Q246.22188 59.51875 246.7375 60.315624L248.4875 63.05L246.81563 63.05L245.4875 60.971874Q244.90938 60.065624 244.53438 59.596874Q244.15938 59.1125 243.8625 58.925Q243.56563 58.721874 243.25313 58.64375Q243.03438 58.596874 242.51875 58.596874L240.97188 58.596874L240.97188 63.05L239.64375 63.05ZM240.97188 57.45625L243.83125 57.45625Q244.7375 57.45625 245.25313 57.26875Q245.76875 57.08125 246.03438 56.675Q246.3 56.253124 246.3 55.76875Q246.3 55.05 245.78438 54.596874Q245.26875 54.128124 244.14375 54.128124L240.97188 54.128124L240.97188 57.45625ZM254.44063 60.70625L255.72188 60.8625Q255.40938 61.9875 254.59688 62.6125Q253.78438 63.221874 252.51875 63.221874Q250.925 63.221874 249.9875 62.2375Q249.06563 61.253124 249.06563 59.4875Q249.06563 57.64375 250.00313 56.64375Q250.95625 55.628124 252.45625 55.628124Q253.90938 55.628124 254.83125 56.628124Q255.75313 57.6125 255.75313 59.409374Q255.75313 59.51875 255.75313 59.7375L250.33125 59.7375Q250.40938 60.925 251.00313 61.565624Q251.6125 62.20625 252.53438 62.20625Q253.20625 62.20625 253.675 61.846874Q254.15938 61.4875 254.44063 60.70625ZM250.40938 58.721874L254.45625 58.721874Q254.37813 57.8 253.9875 57.346874Q253.40938 56.64375 252.47188 56.64375Q251.6125 56.64375 251.03438 57.20625Q250.47188 57.76875 250.40938 58.721874ZM257.47186 65.83125L257.47186 55.784374L258.59686 55.784374L258.59686 56.7375Q258.9875 56.175 259.4875 55.909374Q259.9875 55.628124 260.70624 55.628124Q261.6281 55.628124 262.33124 56.1125Q263.05 56.58125 263.40936 57.45625Q263.76874 58.33125 263.76874 59.3625Q263.76874 60.471874 263.3625 61.378124Q262.97186 62.26875 262.20624 62.753124Q261.45624 63.221874 260.6125 63.221874Q260.0031 63.221874 259.5031 62.95625Q259.01874 62.690624 258.70624 62.3L258.70624 65.83125L257.47186 65.83125ZM258.58124 59.45625Q258.58124 60.8625 259.14374 61.534374Q259.72186 62.20625 260.53436 62.20625Q261.34686 62.20625 261.925 61.51875Q262.51874 60.815624 262.51874 59.3625Q262.51874 57.971874 261.9406 57.284374Q261.3781 56.596874 260.58124 56.596874Q259.8 56.596874 259.1906 57.33125Q258.58124 58.065624 258.58124 59.45625ZM265.4406 63.05L265.4406 53.034374L266.675 53.034374L266.675 63.05L265.4406 63.05ZM268.4875 54.440624L268.4875 53.034374L269.70624 53.034374L269.70624 54.440624L268.4875 54.440624ZM268.4875 63.05L268.4875 55.784374L269.70624 55.784374L269.70624 63.05L268.4875 63.05ZM276.20624 60.39375L277.425 60.55Q277.22186 61.8 276.39374 62.51875Q275.58124 63.221874 274.39374 63.221874Q272.90936 63.221874 272.0031 62.253124Q271.09686 61.26875 271.09686 59.440624Q271.09686 58.26875 271.4875 57.39375Q271.8781 56.503124 272.675 56.065624Q273.47186 55.628124 274.40936 55.628124Q275.58124 55.628124 276.33124 56.221874Q277.09686 56.815624 277.3 57.925L276.1125 58.1125Q275.9406 57.378124 275.5031 57.01875Q275.0656 56.64375 274.45624 56.64375Q273.51874 56.64375 272.9406 57.315624Q272.3625 57.971874 272.3625 59.409374Q272.3625 60.878124 272.925 61.55Q273.4875 62.20625 274.3781 62.20625Q275.1125 62.20625 275.59686 61.76875Q276.08124 61.315624 276.20624 60.39375ZM283.20624 62.159374Q282.53436 62.7375 281.89374 62.9875Q281.26874 63.221874 280.53436 63.221874Q279.34686 63.221874 278.6906 62.64375Q278.05 62.05 278.05 61.128124Q278.05 60.596874 278.28436 60.159374Q278.53436 59.721874 278.925 59.45625Q279.33124 59.190624 279.8156 59.05Q280.175 58.95625 280.90936 58.8625Q282.40936 58.690624 283.1125 58.440624Q283.1125 58.190624 283.1125 58.128124Q283.1125 57.3625 282.76874 57.065624Q282.3 56.64375 281.3625 56.64375Q280.5031 56.64375 280.08124 56.95625Q279.675 57.253124 279.47186 58.01875L278.26874 57.8625Q278.425 57.08125 278.8 56.6125Q279.1906 56.14375 279.89374 55.89375Q280.6125 55.628124 281.55 55.628124Q282.47186 55.628124 283.05 55.846874Q283.6281 56.065624 283.89374 56.39375Q284.175 56.721874 284.28436 57.2375Q284.34686 57.55 284.34686 58.3625L284.34686 60.003124Q284.34686 61.721874 284.425 62.175Q284.5031 62.628124 284.7375 63.05L283.45624 63.05Q283.26874 62.659374 283.20624 62.159374ZM283.1125 59.409374Q282.4406 59.675 281.09686 59.878124Q280.34686 59.9875 280.01874 60.128124Q279.70624 60.253124 279.53436 60.51875Q279.3625 60.784374 279.3625 61.096874Q279.3625 61.596874 279.7375 61.925Q280.1125 62.253124 280.83124 62.253124Q281.55 62.253124 282.09686 61.940624Q282.64374 61.628124 282.90936 61.08125Q283.1125 60.675 283.1125 59.8625L283.1125 59.409374ZM289.15936 61.95625L289.33124 63.034374Q288.8156 63.14375 288.40936 63.14375Q287.7375 63.14375 287.3625 62.940624Q287.0031 62.721874 286.84686 62.378124Q286.70624 62.034374 286.70624 60.925L286.70624 56.753124L285.8 56.753124L285.8 55.784374L286.70624 55.784374L286.70624 53.9875L287.925 53.253124L287.925 55.784374L289.15936 55.784374L289.15936 56.753124L287.925 56.753124L287.925 60.9875Q287.925 61.51875 287.9875 61.675Q288.05 61.815624 288.1906 61.909374Q288.34686 62.003124 288.6125 62.003124Q288.83124 62.003124 289.15936 61.95625ZM290.4875 54.440624L290.4875 53.034374L291.70624 53.034374L291.70624 54.440624L290.4875 54.440624ZM290.4875 63.05L290.4875 55.784374L291.70624 55.784374L291.70624 63.05L290.4875 63.05ZM293.01874 59.425Q293.01874 57.409374 294.14374 56.425Q295.0656 55.628124 296.425 55.628124Q297.90936 55.628124 298.8625 56.6125Q299.8156 57.58125 299.8156 59.315624Q299.8156 60.721874 299.39374 61.534374Q298.97186 62.33125 298.15936 62.784374Q297.3625 63.221874 296.425 63.221874Q294.89374 63.221874 293.95624 62.2375Q293.01874 61.253124 293.01874 59.425ZM294.28436 59.425Q294.28436 60.815624 294.89374 61.51875Q295.5031 62.20625 296.425 62.20625Q297.33124 62.20625 297.9406 61.503124Q298.55 60.8 298.55 59.378124Q298.55 58.034374 297.9406 57.346874Q297.33124 56.64375 296.425 56.64375Q295.5031 56.64375 294.89374 57.33125Q294.28436 58.01875 294.28436 59.425ZM301.47186 63.05L301.47186 55.784374L302.58124 55.784374L302.58124 56.815624Q303.3781 55.628124 304.89374 55.628124Q305.55 55.628124 306.09686 55.8625Q306.64374 56.096874 306.90936 56.4875Q307.1906 56.8625 307.3 57.39375Q307.3781 57.7375 307.3781 58.58125L307.3781 63.05L306.14374 63.05L306.14374 58.628124Q306.14374 57.878124 306.0031 57.51875Q305.8625 57.14375 305.4875 56.925Q305.1281 56.690624 304.6281 56.690624Q303.84686 56.690624 303.26874 57.190624Q302.70624 57.690624 302.70624 59.08125L302.70624 63.05L301.47186 63.05ZM309.8 63.05L309.8 61.64375L311.1906 61.64375L311.1906 63.05Q311.1906 63.815624 310.90936 64.28438Q310.64374 64.76875 310.05 65.03438L309.70624 64.50313Q310.09686 64.33125 310.28436 64.00313Q310.47186 63.675 310.4875 63.05L309.8 63.05ZM321.08124 63.05L321.08124 60.64375L316.72186 60.64375L316.72186 59.51875L321.3 53.034374L322.3 53.034374L322.3 59.51875L323.65936 59.51875L323.65936 60.64375L322.3 60.64375L322.3 63.05L321.08124 63.05ZM321.08124 59.51875L321.08124 55.003124L317.9406 59.51875L321.08124 59.51875ZM325.1281 58.1125Q325.1281 56.33125 325.4875 55.253124Q325.8625 54.159374 326.58124 53.58125Q327.3 52.9875 328.39374 52.9875Q329.20624 52.9875 329.8156 53.315624Q330.425 53.64375 330.8156 54.253124Q331.22186 54.8625 331.4406 55.7375Q331.65936 56.6125 331.65936 58.1125Q331.65936 59.878124 331.3 60.95625Q330.9406 62.034374 330.22186 62.628124Q329.5031 63.221874 328.39374 63.221874Q326.95624 63.221874 326.1281 62.175Q325.1281 60.925 325.1281 58.1125ZM326.39374 58.1125Q326.39374 60.58125 326.97186 61.39375Q327.55 62.20625 328.39374 62.20625Q329.2531 62.20625 329.83124 61.39375Q330.40936 60.565624 330.40936 58.1125Q330.40936 55.628124 329.83124 54.815624Q329.2531 54.003124 328.3781 54.003124Q327.53436 54.003124 327.03436 54.721874Q326.39374 55.64375 326.39374 58.1125ZM333.3156 60.7375L334.5031 60.628124Q334.64374 61.45625 335.0656 61.83125Q335.5031 62.20625 336.15936 62.20625Q336.72186 62.20625 337.14374 61.95625Q337.58124 61.690624 337.84686 61.253124Q338.1281 60.815624 338.3156 60.08125Q338.5031 59.346874 338.5031 58.58125Q338.5031 58.503124 338.4875 58.33125Q338.1281 58.925 337.4875 59.3Q336.84686 59.659374 336.09686 59.659374Q334.84686 59.659374 333.9875 58.753124Q333.1281 57.846874 333.1281 56.378124Q333.1281 54.846874 334.01874 53.925Q334.925 52.9875 336.28436 52.9875Q337.2531 52.9875 338.0656 53.51875Q338.8781 54.034374 339.3 55.01875Q339.72186 55.9875 339.72186 57.83125Q339.72186 59.753124 339.3 60.89375Q338.89374 62.034374 338.0656 62.628124Q337.2375 63.221874 336.1281 63.221874Q334.95624 63.221874 334.20624 62.565624Q333.47186 61.909374 333.3156 60.7375ZM338.34686 56.315624Q338.34686 55.253124 337.78436 54.628124Q337.22186 54.003124 336.4406 54.003124Q335.6125 54.003124 335.0031 54.675Q334.39374 55.346874 334.39374 56.409374Q334.39374 57.3625 334.97186 57.971874Q335.55 58.565624 336.39374 58.565624Q337.2531 58.565624 337.8 57.971874Q338.34686 57.3625 338.34686 56.315624ZM347.51874 55.4875L346.3 55.58125Q346.1281 54.846874 345.83124 54.51875Q345.33124 54.003124 344.59686 54.003124Q344.0031 54.003124 343.5656 54.33125Q342.9875 54.753124 342.64374 55.565624Q342.3156 56.378124 342.3 57.878124Q342.7375 57.20625 343.3781 56.878124Q344.03436 56.55 344.7375 56.55Q345.97186 56.55 346.83124 57.45625Q347.6906 58.3625 347.6906 59.8Q347.6906 60.7375 347.28436 61.55Q346.8781 62.3625 346.15936 62.8Q345.45624 63.221874 344.55 63.221874Q343.01874 63.221874 342.05 62.096874Q341.08124 60.95625 341.08124 58.3625Q341.08124 55.45625 342.14374 54.128124Q343.08124 52.9875 344.675 52.9875Q345.8625 52.9875 346.6125 53.659374Q347.3625 54.315624 347.51874 55.4875ZM342.4875 59.8Q342.4875 60.440624 342.7531 61.01875Q343.03436 61.596874 343.51874 61.909374Q344.0031 62.20625 344.53436 62.20625Q345.3156 62.20625 345.8781 61.58125Q346.4406 60.95625 346.4406 59.878124Q346.4406 58.83125 345.8781 58.2375Q345.33124 57.628124 344.4875 57.628124Q343.65936 57.628124 343.0656 58.2375Q342.4875 58.83125 342.4875 59.8ZM353.6281 63.05L353.6281 53.034374L357.40936 53.034374Q358.40936 53.034374 358.9406 53.128124Q359.675 53.253124 360.175 53.596874Q360.675 53.940624 360.97186 54.565624Q361.28436 55.175 361.28436 55.925Q361.28436 57.20625 360.47186 58.096874Q359.65936 58.971874 357.53436 58.971874L354.95624 58.971874L354.95624 63.05L353.6281 63.05ZM354.95624 57.8L357.55 57.8Q358.83124 57.8 359.3625 57.315624Q359.90936 56.83125 359.90936 55.971874Q359.90936 55.33125 359.59686 54.89375Q359.28436 54.440624 358.7531 54.3Q358.425 54.20625 357.51874 54.20625L354.95624 54.20625L354.95624 57.8ZM367.3156 59.1125L367.3156 57.940624L371.5656 57.940624L371.5656 61.659374Q370.58124 62.440624 369.53436 62.83125Q368.5031 63.221874 367.40936 63.221874Q365.9406 63.221874 364.72186 62.596874Q363.51874 61.95625 362.90936 60.76875Q362.3 59.565624 362.3 58.08125Q362.3 56.628124 362.90936 55.3625Q363.51874 54.08125 364.65936 53.471874Q365.8156 52.8625 367.3156 52.8625Q368.39374 52.8625 369.26874 53.221874Q370.15936 53.565624 370.65936 54.190624Q371.15936 54.815624 371.40936 55.83125L370.22186 56.159374Q369.9875 55.39375 369.64374 54.95625Q369.3156 54.51875 368.6906 54.253124Q368.08124 53.9875 367.3156 53.9875Q366.40936 53.9875 365.7375 54.26875Q365.08124 54.55 364.675 55.003124Q364.26874 55.440624 364.05 55.9875Q363.65936 56.925 363.65936 58.003124Q363.65936 59.346874 364.1125 60.253124Q364.58124 61.14375 365.45624 61.58125Q366.34686 62.01875 367.34686 62.01875Q368.20624 62.01875 369.01874 61.690624Q369.84686 61.3625 370.26874 60.9875L370.26874 59.1125L367.3156 59.1125ZM372.9875 60.878124L374.1906 60.690624Q374.3 61.425 374.76874 61.815624Q375.2375 62.20625 376.08124 62.20625Q376.925 62.20625 377.33124 61.8625Q377.7531 61.51875 377.7531 61.05Q377.7531 60.628124 377.3781 60.39375Q377.1281 60.221874 376.1281 59.971874Q374.76874 59.628124 374.2375 59.378124Q373.72186 59.128124 373.45624 58.690624Q373.1906 58.253124 373.1906 57.721874Q373.1906 57.2375 373.40936 56.83125Q373.6281 56.409374 374.01874 56.128124Q374.3 55.925 374.78436 55.784374Q375.28436 55.628124 375.8625 55.628124Q376.70624 55.628124 377.34686 55.878124Q378.0031 56.1125 378.3156 56.534374Q378.6281 56.95625 378.7375 57.659374L377.53436 57.83125Q377.45624 57.26875 377.05 56.95625Q376.65936 56.64375 375.9406 56.64375Q375.09686 56.64375 374.7375 56.925Q374.3781 57.190624 374.3781 57.58125Q374.3781 57.815624 374.51874 58.003124Q374.675 58.20625 375.0031 58.33125Q375.175 58.39375 376.08124 58.64375Q377.39374 59.003124 377.90936 59.221874Q378.425 59.440624 378.70624 59.8625Q379.0031 60.284374 379.0031 60.909374Q379.0031 61.534374 378.64374 62.08125Q378.3 62.6125 377.6125 62.925Q376.9406 63.221874 376.08124 63.221874Q374.675 63.221874 373.925 62.628124Q373.1906 62.034374 372.9875 60.878124Z" fill-rule="nonzero"/><path fill="#ffffff" d="M20.190624 37.55L20.190624 23.2375L29.846874 23.2375L29.846874 24.925L22.08125 24.925L22.08125 29.3625L28.8 29.3625L28.8 31.05L22.08125 31.05L22.08125 37.55L20.190624 37.55ZM32.409374 37.55L32.409374 23.2375L34.315624 23.2375L34.315624 37.55L32.409374 37.55ZM37.51875 30.58125Q37.51875 27.01875 39.425 25.003124Q41.346874 22.971874 44.378124 22.971874Q46.3625 22.971874 47.940624 23.925Q49.534374 24.878124 50.3625 26.58125Q51.20625 28.26875 51.20625 30.409374Q51.20625 32.58125 50.33125 34.3Q49.45625 36.01875 47.83125 36.909374Q46.221874 37.8 44.3625 37.8Q42.346874 37.8 40.753124 36.83125Q39.159374 35.846874 38.33125 34.159374Q37.51875 32.45625 37.51875 30.58125ZM39.471874 30.6125Q39.471874 33.190624 40.8625 34.690624Q42.253124 36.175 44.346874 36.175Q46.4875 36.175 47.8625 34.675Q49.253124 33.159374 49.253124 30.39375Q49.253124 28.659374 48.659374 27.3625Q48.08125 26.05 46.940624 25.33125Q45.8 24.6125 44.378124 24.6125Q42.378124 24.6125 40.925 26.003124Q39.471874 27.378124 39.471874 30.6125ZM65.01875 37.55L65.01875 34.128124L58.8 34.128124L58.8 32.503124L65.33125 23.2375L66.76875 23.2375L66.76875 32.503124L68.70625 32.503124L68.70625 34.128124L66.76875 34.128124L66.76875 37.55L65.01875 37.55ZM65.01875 32.503124L65.01875 26.05L60.534374 32.503124L65.01875 32.503124ZM71.01875 37.55L71.01875 23.2375L72.90938 23.2375L72.90938 30.33125L80.01875 23.2375L82.58125 23.2375L76.58125 29.034374L82.84688 37.55L80.34688 37.55L75.25313 30.3L72.90938 32.58125L72.90938 37.55L71.01875 37.55ZM84.01875 37.55L84.01875 23.2375L89.39375 23.2375Q91.03438 23.2375 92.01875 23.675Q93.00313 24.096874 93.56563 25.003124Q94.12813 25.909374 94.12813 26.89375Q94.12813 27.815624 93.62813 28.628124Q93.14375 29.440624 92.12813 29.925Q93.425 30.315624 94.12813 31.2375Q94.83125 32.14375 94.83125 33.39375Q94.83125 34.409374 94.39375 35.26875Q93.97188 36.128124 93.34688 36.596874Q92.72188 37.065624 91.78438 37.315624Q90.84688 37.55 89.47188 37.55L84.01875 37.55ZM85.90938 29.253124L89.00313 29.253124Q90.26875 29.253124 90.81563 29.08125Q91.53438 28.8625 91.89375 28.378124Q92.26875 27.878124 92.26875 27.1125Q92.26875 26.409374 91.925 25.8625Q91.58125 25.315624 90.94063 25.128124Q90.31563 24.925 88.76875 24.925L85.90938 24.925L85.90938 29.253124ZM85.90938 35.8625L89.47188 35.8625Q90.39375 35.8625 90.76875 35.784374Q91.425 35.675 91.8625 35.409374Q92.3 35.128124 92.58125 34.6125Q92.8625 34.08125 92.8625 33.39375Q92.8625 32.596874 92.45625 32.003124Q92.05 31.409374 91.31563 31.175Q90.58125 30.940624 89.22188 30.940624L85.90938 30.940624L85.90938 35.8625ZM102.50313 25.1125L102.50313 23.425L111.76875 23.425L111.76875 24.784374Q110.39375 26.2375 109.05 28.659374Q107.70625 31.065624 106.9875 33.6125Q106.45625 35.409374 106.3 37.55L104.50313 37.55Q104.53438 35.8625 105.15938 33.471874Q105.8 31.08125 106.9875 28.8625Q108.175 26.628124 109.50313 25.1125L102.50313 25.1125ZM113.37813 33.8L115.22188 33.64375Q115.425 34.9875 116.175 35.675Q116.925 36.346874 117.9875 36.346874Q119.25313 36.346874 120.12813 35.39375Q121.00313 34.440624 121.00313 32.846874Q121.00313 31.346874 120.15938 30.4875Q119.31563 29.6125 117.95625 29.6125Q117.09688 29.6125 116.40938 30.003124Q115.7375 30.378124 115.34688 31.003124L113.69063 30.784374L115.08125 23.425L122.20625 23.425L122.20625 25.1125L116.4875 25.1125L115.72188 28.95625Q117.00313 28.05 118.425 28.05Q120.3 28.05 121.58125 29.3625Q122.87813 30.659374 122.87813 32.690624Q122.87813 34.64375 121.7375 36.05Q120.3625 37.8 117.9875 37.8Q116.03438 37.8 114.78438 36.70625Q113.55 35.6125 113.37813 33.8ZM124.70625 26.675Q124.70625 25.14375 125.47188 24.065624Q126.25313 22.9875 127.72188 22.9875Q129.06563 22.9875 129.94063 23.95625Q130.83125 24.909374 130.83125 26.784374Q130.83125 28.596874 129.94063 29.58125Q129.05 30.55 127.7375 30.55Q126.44063 30.55 125.56563 29.596874Q124.70625 28.628124 124.70625 26.675ZM127.76875 24.20625Q127.1125 24.20625 126.675 24.76875Q126.25313 25.33125 126.25313 26.846874Q126.25313 28.221874 126.69063 28.784374Q127.12813 29.346874 127.76875 29.346874Q128.44063 29.346874 128.8625 28.784374Q129.3 28.20625 129.3 26.70625Q129.3 25.315624 128.8625 24.76875Q128.425 24.20625 127.76875 24.20625ZM127.78438 38.08125L135.6125 22.9875L137.03438 22.9875L129.2375 38.08125L127.78438 38.08125ZM133.97188 34.190624Q133.97188 32.64375 134.7375 31.58125Q135.51875 30.503124 136.9875 30.503124Q138.33125 30.503124 139.20625 31.471874Q140.09688 32.425 140.09688 34.3Q140.09688 36.1125 139.20625 37.096874Q138.31563 38.08125 137.00313 38.08125Q135.70625 38.08125 134.83125 37.1125Q133.97188 36.128124 133.97188 34.190624ZM137.03438 31.721874Q136.37813 31.721874 135.94063 32.284374Q135.50313 32.846874 135.50313 34.3625Q135.50313 35.7375 135.94063 36.3Q136.37813 36.8625 137.03438 36.8625Q137.70625 36.8625 138.12813 36.3Q138.56563 35.7375 138.56563 34.221874Q138.56563 32.846874 138.12813 32.284374Q137.69063 31.721874 137.03438 31.721874ZM149.03438 37.55L149.03438 23.2375L151.89375 23.2375L155.26875 33.3625Q155.7375 34.784374 155.95625 35.4875Q156.20625 34.70625 156.72188 33.190624L160.14375 23.2375L162.69063 23.2375L162.69063 37.55L160.87813 37.55L160.87813 25.565624L156.70625 37.55L155.00313 37.55L150.8625 25.3625L150.8625 37.55L149.03438 37.55ZM165.87813 25.253124L165.87813 23.2375L167.64375 23.2375L167.64375 25.253124L165.87813 25.253124ZM165.87813 37.55L165.87813 27.175L167.64375 27.175L167.64375 37.55L165.87813 37.55ZM168.69063 37.55L172.4875 32.159374L168.9875 27.175L171.175 27.175L172.76875 29.6125Q173.22188 30.3 173.4875 30.76875Q173.925 30.128124 174.28438 29.628124L176.03438 27.175L178.12813 27.175L174.55 32.065624L178.40938 37.55L176.25313 37.55L174.1125 34.33125L173.55 33.45625L170.83125 37.55L168.69063 37.55ZM185.97188 34.20625L187.78438 34.440624Q187.3625 36.01875 186.19063 36.909374Q185.03438 37.784374 183.22188 37.784374Q180.95625 37.784374 179.6125 36.39375Q178.28438 34.9875 178.28438 32.45625Q178.28438 29.83125 179.62813 28.39375Q180.97188 26.940624 183.12813 26.940624Q185.20625 26.940624 186.51875 28.3625Q187.84688 29.76875 187.84688 32.346874Q187.84688 32.503124 187.83125 32.815624L180.09688 32.815624Q180.19063 34.51875 181.06563 35.425Q181.94063 36.33125 183.2375 36.33125Q184.20625 36.33125 184.87813 35.83125Q185.56563 35.315624 185.97188 34.20625ZM180.19063 31.3625L185.9875 31.3625Q185.87813 30.065624 185.33125 29.409374Q184.4875 28.39375 183.14375 28.39375Q181.94063 28.39375 181.1125 29.20625Q180.28438 30.003124 180.19063 31.3625ZM196.59688 37.55L196.59688 36.2375Q195.6125 37.784374 193.69063 37.784374Q192.45625 37.784374 191.40938 37.096874Q190.37813 36.409374 189.8 35.190624Q189.2375 33.971874 189.2375 32.378124Q189.2375 30.815624 189.75313 29.55Q190.26875 28.284374 191.3 27.6125Q192.34688 26.940624 193.6125 26.940624Q194.55 26.940624 195.28438 27.346874Q196.01875 27.7375 196.4875 28.3625L196.4875 23.2375L198.22188 23.2375L198.22188 37.55L196.59688 37.55ZM191.03438 32.378124Q191.03438 34.3625 191.87813 35.346874Q192.72188 36.33125 193.8625 36.33125Q195.01875 36.33125 195.81563 35.39375Q196.62813 34.45625 196.62813 32.51875Q196.62813 30.39375 195.8 29.39375Q194.9875 28.39375 193.78438 28.39375Q192.6125 28.39375 191.81563 29.3625Q191.03438 30.315624 191.03438 32.378124ZM207.12813 37.55L207.12813 23.2375L213.47188 23.2375Q215.37813 23.2375 216.37813 23.628124Q217.37813 24.003124 217.97188 24.9875Q218.56563 25.95625 218.56563 27.14375Q218.56563 28.659374 217.58125 29.70625Q216.59688 30.753124 214.53438 31.034374Q215.28438 31.39375 215.675 31.753124Q216.50313 32.503124 217.25313 33.659374L219.7375 37.55L217.3625 37.55L215.45625 34.565624Q214.62813 33.284374 214.09688 32.596874Q213.56563 31.909374 213.12813 31.64375Q212.70625 31.3625 212.26875 31.253124Q211.94063 31.190624 211.22188 31.190624L209.01875 31.190624L209.01875 37.55L207.12813 37.55ZM209.01875 29.55L213.09688 29.55Q214.39375 29.55 215.1125 29.284374Q215.84688 29.01875 216.22188 28.425Q216.6125 27.83125 216.6125 27.14375Q216.6125 26.128124 215.87813 25.471874Q215.14375 24.815624 213.55 24.815624L209.01875 24.815624L209.01875 29.55ZM227.64375 36.26875Q226.65938 37.096874 225.75313 37.440624Q224.84688 37.784374 223.81563 37.784374Q222.1125 37.784374 221.19063 36.95625Q220.26875 36.1125 220.26875 34.815624Q220.26875 34.05 220.6125 33.425Q220.97188 32.8 221.53438 32.425Q222.09688 32.034374 222.8 31.83125Q223.31563 31.70625 224.3625 31.565624Q226.4875 31.315624 227.4875 30.971874Q227.50313 30.6125 227.50313 30.503124Q227.50313 29.440624 227.00313 28.9875Q226.33125 28.39375 225.00313 28.39375Q223.75313 28.39375 223.15938 28.83125Q222.58125 29.26875 222.3 30.378124L220.58125 30.14375Q220.81563 29.034374 221.34688 28.3625Q221.87813 27.675 222.89375 27.315624Q223.90938 26.940624 225.25313 26.940624Q226.58125 26.940624 227.40938 27.253124Q228.2375 27.565624 228.62813 28.05Q229.01875 28.51875 229.175 29.2375Q229.26875 29.690624 229.26875 30.8625L229.26875 33.20625Q229.26875 35.659374 229.37813 36.315624Q229.4875 36.95625 229.83125 37.55L227.9875 37.55Q227.72188 37.003124 227.64375 36.26875ZM227.4875 32.346874Q226.53438 32.7375 224.6125 33.003124Q223.53438 33.159374 223.08125 33.3625Q222.64375 33.55 222.39375 33.925Q222.14375 34.3 222.14375 34.76875Q222.14375 35.471874 222.675 35.940624Q223.20625 36.409374 224.2375 36.409374Q225.25313 36.409374 226.03438 35.971874Q226.83125 35.51875 227.20625 34.753124Q227.4875 34.14375 227.4875 32.9875L227.4875 32.346874ZM231.8625 37.55L231.8625 27.175L233.45625 27.175L233.45625 28.659374Q234.59688 26.940624 236.75313 26.940624Q237.69063 26.940624 238.47188 27.284374Q239.26875 27.6125 239.65938 28.159374Q240.05 28.70625 240.20625 29.45625Q240.3 29.95625 240.3 31.175L240.3 37.55L238.53438 37.55L238.53438 31.2375Q238.53438 30.159374 238.33125 29.628124Q238.12813 29.096874 237.59688 28.784374Q237.08125 28.471874 236.37813 28.471874Q235.25313 28.471874 234.44063 29.190624Q233.62813 29.89375 233.62813 31.878124L233.62813 37.55L231.8625 37.55ZM248.59688 37.55L248.59688 36.2375Q247.6125 37.784374 245.69063 37.784374Q244.45625 37.784374 243.40938 37.096874Q242.37813 36.409374 241.8 35.190624Q241.2375 33.971874 241.2375 32.378124Q241.2375 30.815624 241.75313 29.55Q242.26875 28.284374 243.3 27.6125Q244.34688 26.940624 245.6125 26.940624Q246.55 26.940624 247.28438 27.346874Q248.01875 27.7375 248.4875 28.3625L248.4875 23.2375L250.22188 23.2375L250.22188 37.55L248.59688 37.55ZM243.03438 32.378124Q243.03438 34.3625 243.87813 35.346874Q244.72188 36.33125 245.8625 36.33125Q247.01875 36.33125 247.81563 35.39375Q248.62813 34.45625 248.62813 32.51875Q248.62813 30.39375 247.8 29.39375Q246.9875 28.39375 245.78438 28.39375Q244.6125 28.39375 243.81563 29.3625Q243.03438 30.315624 243.03438 32.378124ZM253.12813 37.55L253.12813 23.2375L259.47186 23.2375Q261.3781 23.2375 262.3781 23.628124Q263.3781 24.003124 263.97186 24.9875Q264.5656 25.95625 264.5656 27.14375Q264.5656 28.659374 263.58124 29.70625Q262.59686 30.753124 260.53436 31.034374Q261.28436 31.39375 261.675 31.753124Q262.5031 32.503124 263.2531 33.659374L265.7375 37.55L263.3625 37.55L261.45624 34.565624Q260.6281 33.284374 260.09686 32.596874Q259.5656 31.909374 259.1281 31.64375Q258.70624 31.3625 258.26874 31.253124Q257.9406 31.190624 257.22186 31.190624L255.01875 31.190624L255.01875 37.55L253.12813 37.55ZM255.01875 29.55L259.09686 29.55Q260.39374 29.55 261.1125 29.284374Q261.84686 29.01875 262.22186 28.425Q262.6125 27.83125 262.6125 27.14375Q262.6125 26.128124 261.8781 25.471874Q261.14374 24.815624 259.55 24.815624L255.01875 24.815624L255.01875 29.55ZM269.59686 37.55L265.8 23.2375L267.7375 23.2375L269.90936 32.6125Q270.26874 34.096874 270.51874 35.55Q271.0656 33.253124 271.15936 32.89375L273.89374 23.2375L276.175 23.2375L278.22186 30.471874Q279.0031 33.175 279.34686 35.55Q279.6125 34.190624 280.05 32.425L282.3 23.2375L284.20624 23.2375L280.28436 37.55L278.45624 37.55L275.4406 26.64375Q275.05 25.26875 274.9875 24.95625Q274.7531 25.940624 274.5656 26.64375L271.53436 37.55L269.59686 37.55ZM290.51874 37.55L296.01874 23.2375L298.0656 23.2375L303.925 37.55L301.76874 37.55L300.09686 33.20625L294.1125 33.20625L292.53436 37.55L290.51874 37.55ZM294.65936 31.675L299.5031 31.675L298.01874 27.70625Q297.33124 25.89375 297.0031 24.7375Q296.72186 26.1125 296.22186 27.471874L294.65936 31.675ZM307.7531 37.55L303.8 27.175L305.65936 27.175L307.89374 33.39375Q308.2531 34.39375 308.55 35.471874Q308.78436 34.659374 309.20624 33.503124L311.5031 27.175L313.3156 27.175L309.39374 37.55L307.7531 37.55ZM313.55 38.409374L315.2531 38.659374Q315.3625 39.45625 315.84686 39.815624Q316.5031 40.3 317.64374 40.3Q318.8625 40.3 319.51874 39.815624Q320.1906 39.33125 320.425 38.45625Q320.5656 37.909374 320.55 36.190624Q319.39374 37.55 317.675 37.55Q315.53436 37.55 314.3625 36.003124Q313.1906 34.45625 313.1906 32.3Q313.1906 30.815624 313.72186 29.565624Q314.26874 28.315624 315.28436 27.628124Q316.3156 26.940624 317.6906 26.940624Q319.51874 26.940624 320.72186 28.425L320.72186 27.175L322.33124 27.175L322.33124 36.14375Q322.33124 38.565624 321.83124 39.565624Q321.34686 40.58125 320.26874 41.159374Q319.20624 41.753124 317.64374 41.753124Q315.8 41.753124 314.64374 40.925Q313.5031 40.096874 313.55 38.409374ZM315.0031 32.175Q315.0031 34.221874 315.8156 35.159374Q316.6281 36.096874 317.84686 36.096874Q319.05 36.096874 319.8625 35.159374Q320.6906 34.221874 320.6906 32.2375Q320.6906 30.33125 319.84686 29.3625Q319.0031 28.39375 317.8156 28.39375Q316.64374 28.39375 315.8156 29.346874Q315.0031 30.3 315.0031 32.175ZM331.01874 37.55L331.01874 23.2375L332.90936 23.2375L332.90936 35.8625L339.95624 35.8625L339.95624 37.55L331.01874 37.55ZM348.64374 36.26875Q347.65936 37.096874 346.7531 37.440624Q345.84686 37.784374 344.8156 37.784374Q343.1125 37.784374 342.1906 36.95625Q341.26874 36.1125 341.26874 34.815624Q341.26874 34.05 341.6125 33.425Q341.97186 32.8 342.53436 32.425Q343.09686 32.034374 343.8 31.83125Q344.3156 31.70625 345.3625 31.565624Q347.4875 31.315624 348.4875 30.971874Q348.5031 30.6125 348.5031 30.503124Q348.5031 29.440624 348.0031 28.9875Q347.33124 28.39375 346.0031 28.39375Q344.7531 28.39375 344.15936 28.83125Q343.58124 29.26875 343.3 30.378124L341.58124 30.14375Q341.8156 29.034374 342.34686 28.3625Q342.8781 27.675 343.89374 27.315624Q344.90936 26.940624 346.2531 26.940624Q347.58124 26.940624 348.40936 27.253124Q349.2375 27.565624 349.6281 28.05Q350.01874 28.51875 350.175 29.2375Q350.26874 29.690624 350.26874 30.8625L350.26874 33.20625Q350.26874 35.659374 350.3781 36.315624Q350.4875 36.95625 350.83124 37.55L348.9875 37.55Q348.72186 37.003124 348.64374 36.26875ZM348.4875 32.346874Q347.53436 32.7375 345.6125 33.003124Q344.53436 33.159374 344.08124 33.3625Q343.64374 33.55 343.39374 33.925Q343.14374 34.3 343.14374 34.76875Q343.14374 35.471874 343.675 35.940624Q344.20624 36.409374 345.2375 36.409374Q346.2531 36.409374 347.03436 35.971874Q347.83124 35.51875 348.20624 34.753124Q348.4875 34.14375 348.4875 32.9875L348.4875 32.346874ZM356.70624 35.971874L356.95624 37.534374Q356.22186 37.690624 355.6281 37.690624Q354.675 37.690624 354.14374 37.39375Q353.6281 37.08125 353.40936 36.596874Q353.1906 36.096874 353.1906 34.51875L353.1906 28.55L351.90936 28.55L351.90936 27.175L353.1906 27.175L353.1906 24.6125L354.9406 23.55L354.9406 27.175L356.70624 27.175L356.70624 28.55L354.9406 28.55L354.9406 34.6125Q354.9406 35.3625 355.03436 35.58125Q355.1281 35.784374 355.33124 35.925Q355.55 36.05 355.9406 36.05Q356.22186 36.05 356.70624 35.971874ZM365.97186 34.20625L367.78436 34.440624Q367.3625 36.01875 366.1906 36.909374Q365.03436 37.784374 363.22186 37.784374Q360.95624 37.784374 359.6125 36.39375Q358.28436 34.9875 358.28436 32.45625Q358.28436 29.83125 359.6281 28.39375Q360.97186 26.940624 363.1281 26.940624Q365.20624 26.940624 366.51874 28.3625Q367.84686 29.76875 367.84686 32.346874Q367.84686 32.503124 367.83124 32.815624L360.09686 32.815624Q360.1906 34.51875 361.0656 35.425Q361.9406 36.33125 363.2375 36.33125Q364.20624 36.33125 364.8781 35.83125Q365.5656 35.315624 365.97186 34.20625ZM360.1906 31.3625L365.9875 31.3625Q365.8781 30.065624 365.33124 29.409374Q364.4875 28.39375 363.14374 28.39375Q361.9406 28.39375 361.1125 29.20625Q360.28436 30.003124 360.1906 31.3625ZM369.8625 37.55L369.8625 27.175L371.45624 27.175L371.45624 28.659374Q372.59686 26.940624 374.7531 26.940624Q375.6906 26.940624 376.47186 27.284374Q377.26874 27.6125 377.65936 28.159374Q378.05 28.70625 378.20624 29.45625Q378.3 29.95625 378.3 31.175L378.3 37.55L376.53436 37.55L376.53436 31.2375Q376.53436 30.159374 376.33124 29.628124Q376.1281 29.096874 375.59686 28.784374Q375.08124 28.471874 374.3781 28.471874Q373.2531 28.471874 372.4406 29.190624Q371.6281 29.89375 371.6281 31.878124L371.6281 37.55L369.8625 37.55ZM386.64374 33.753124L388.3625 33.971874Q388.08124 35.76875 386.90936 36.784374Q385.7531 37.784374 384.05 37.784374Q381.925 37.784374 380.6281 36.39375Q379.33124 35.003124 379.33124 32.409374Q379.33124 30.721874 379.8781 29.471874Q380.4406 28.20625 381.58124 27.58125Q382.72186 26.940624 384.0656 26.940624Q385.7531 26.940624 386.8156 27.8Q387.89374 28.659374 388.20624 30.221874L386.4875 30.4875Q386.2531 29.440624 385.6281 28.925Q385.0031 28.39375 384.1281 28.39375Q382.8 28.39375 381.97186 29.346874Q381.14374 30.3 381.14374 32.346874Q381.14374 34.440624 381.9406 35.39375Q382.7375 36.33125 384.03436 36.33125Q385.0656 36.33125 385.7531 35.70625Q386.45624 35.065624 386.64374 33.753124ZM389.78436 41.55L389.59686 39.89375Q390.175 40.05 390.59686 40.05Q391.1906 40.05 391.53436 39.846874Q391.89374 39.659374 392.1125 39.315624Q392.28436 39.05 392.65936 38.003124Q392.70624 37.846874 392.8156 37.565624L388.8781 27.175L390.76874 27.175L392.925 33.190624Q393.34686 34.33125 393.675 35.58125Q393.9875 34.378124 394.39374 33.221874L396.6125 27.175L398.3781 27.175L394.425 37.721874Q393.8 39.440624 393.4406 40.08125Q392.97186 40.95625 392.3625 41.346874Q391.76874 41.753124 390.925 41.753124Q390.40936 41.753124 389.78436 41.55ZM409.22186 41.753124Q407.76874 39.925 406.76874 37.471874Q405.76874 35.003124 405.76874 32.3625Q405.76874 30.034374 406.51874 27.909374Q407.39374 25.440624 409.22186 22.9875L410.4875 22.9875Q409.3 25.01875 408.925 25.89375Q408.33124 27.2375 407.9875 28.70625Q407.5656 30.534374 407.5656 32.378124Q407.5656 37.065624 410.4875 41.753124L409.22186 41.753124ZM412.45624 32.95625L414.2375 32.8Q414.3625 33.8625 414.8156 34.55Q415.28436 35.2375 416.2531 35.675Q417.2375 36.096874 418.47186 36.096874Q419.55 36.096874 420.3781 35.784374Q421.20624 35.45625 421.6125 34.89375Q422.01874 34.33125 422.01874 33.659374Q422.01874 32.9875 421.6281 32.4875Q421.2375 31.9875 420.34686 31.64375Q419.76874 31.409374 417.78436 30.940624Q415.8156 30.471874 415.03436 30.05Q414.0031 29.51875 413.5031 28.721874Q413.0031 27.925 413.0031 26.940624Q413.0031 25.846874 413.6125 24.909374Q414.22186 23.971874 415.40936 23.4875Q416.59686 22.9875 418.03436 22.9875Q419.6281 22.9875 420.84686 23.503124Q422.0656 24.01875 422.70624 25.01875Q423.3625 26.003124 423.40936 27.26875L421.59686 27.409374Q421.45624 26.05 420.6125 25.3625Q419.76874 24.659374 418.1125 24.659374Q416.39374 24.659374 415.59686 25.3Q414.8156 25.925 414.8156 26.8Q414.8156 27.58125 415.3781 28.08125Q415.925 28.58125 418.2375 29.096874Q420.55 29.6125 421.40936 30.003124Q422.65936 30.58125 423.2531 31.471874Q423.84686 32.346874 423.84686 33.503124Q423.84686 34.64375 423.1906 35.659374Q422.53436 36.675 421.3 37.2375Q420.08124 37.8 418.55 37.8Q416.6125 37.8 415.3 37.2375Q413.9875 36.659374 413.2375 35.51875Q412.4875 34.378124 412.45624 32.95625ZM425.8781 25.253124L425.8781 23.2375L427.64374 23.2375L427.64374 25.253124L425.8781 25.253124ZM425.8781 37.55L425.8781 27.175L427.64374 27.175L427.64374 37.55L425.8781 37.55ZM429.8625 37.55L429.8625 27.175L431.45624 27.175L431.45624 28.659374Q432.59686 26.940624 434.7531 26.940624Q435.6906 26.940624 436.47186 27.284374Q437.26874 27.6125 437.65936 28.159374Q438.05 28.70625 438.20624 29.45625Q438.3 29.95625 438.3 31.175L438.3 37.55L436.53436 37.55L436.53436 31.2375Q436.53436 30.159374 436.33124 29.628124Q436.1281 29.096874 435.59686 28.784374Q435.08124 28.471874 434.3781 28.471874Q433.2531 28.471874 432.4406 29.190624Q431.6281 29.89375 431.6281 31.878124L431.6281 37.55L429.8625 37.55ZM439.55 38.409374L441.2531 38.659374Q441.3625 39.45625 441.84686 39.815624Q442.5031 40.3 443.64374 40.3Q444.8625 40.3 445.51874 39.815624Q446.1906 39.33125 446.425 38.45625Q446.5656 37.909374 446.55 36.190624Q445.39374 37.55 443.675 37.55Q441.53436 37.55 440.3625 36.003124Q439.1906 34.45625 439.1906 32.3Q439.1906 30.815624 439.72186 29.565624Q440.26874 28.315624 441.28436 27.628124Q442.3156 26.940624 443.6906 26.940624Q445.51874 26.940624 446.72186 28.425L446.72186 27.175L448.33124 27.175L448.33124 36.14375Q448.33124 38.565624 447.83124 39.565624Q447.34686 40.58125 446.26874 41.159374Q445.20624 41.753124 443.64374 41.753124Q441.8 41.753124 440.64374 40.925Q439.5031 40.096874 439.55 38.409374ZM441.0031 32.175Q441.0031 34.221874 441.8156 35.159374Q442.6281 36.096874 443.84686 36.096874Q445.05 36.096874 445.8625 35.159374Q446.6906 34.221874 446.6906 32.2375Q446.6906 30.33125 445.84686 29.3625Q445.0031 28.39375 443.8156 28.39375Q442.64374 28.39375 441.8156 29.346874Q441.0031 30.3 441.0031 32.175ZM450.83124 37.55L450.83124 23.2375L452.58124 23.2375L452.58124 37.55L450.83124 37.55ZM461.97186 34.20625L463.78436 34.440624Q463.3625 36.01875 462.1906 36.909374Q461.03436 37.784374 459.22186 37.784374Q456.95624 37.784374 455.6125 36.39375Q454.28436 34.9875 454.28436 32.45625Q454.28436 29.83125 455.6281 28.39375Q456.97186 26.940624 459.1281 26.940624Q461.20624 26.940624 462.51874 28.3625Q463.84686 29.76875 463.84686 32.346874Q463.84686 32.503124 463.83124 32.815624L456.09686 32.815624Q456.1906 34.51875 457.0656 35.425Q457.9406 36.33125 459.2375 36.33125Q460.20624 36.33125 460.8781 35.83125Q461.5656 35.315624 461.97186 34.20625ZM456.1906 31.3625L461.9875 31.3625Q461.8781 30.065624 461.33124 29.409374Q460.4875 28.39375 459.14374 28.39375Q457.9406 28.39375 457.1125 29.20625Q456.28436 30.003124 456.1906 31.3625ZM482.3156 32.534374L484.20624 33.003124Q483.6125 35.346874 482.0656 36.58125Q480.51874 37.8 478.26874 37.8Q475.95624 37.8 474.5031 36.8625Q473.0656 35.909374 472.3 34.128124Q471.55 32.33125 471.55 30.284374Q471.55 28.05 472.39374 26.39375Q473.2531 24.721874 474.83124 23.8625Q476.40936 22.9875 478.3 22.9875Q480.45624 22.9875 481.90936 24.08125Q483.3781 25.175 483.95624 27.159374L482.09686 27.596874Q481.59686 26.034374 480.64374 25.33125Q479.70624 24.6125 478.26874 24.6125Q476.6125 24.6125 475.5031 25.409374Q474.39374 26.190624 473.9406 27.534374Q473.5031 28.8625 473.5031 30.26875Q473.5031 32.096874 474.03436 33.471874Q474.5656 34.83125 475.6906 35.503124Q476.8156 36.175 478.1125 36.175Q479.70624 36.175 480.8156 35.253124Q481.925 34.33125 482.3156 32.534374ZM485.83124 37.55L485.83124 23.2375L487.58124 23.2375L487.58124 37.55L485.83124 37.55ZM489.8781 25.253124L489.8781 23.2375L491.64374 23.2375L491.64374 25.253124L489.8781 25.253124ZM489.8781 37.55L489.8781 27.175L491.64374 27.175L491.64374 37.55L489.8781 37.55ZM500.97186 34.20625L502.78436 34.440624Q502.3625 36.01875 501.1906 36.909374Q500.03436 37.784374 498.22186 37.784374Q495.95624 37.784374 494.6125 36.39375Q493.28436 34.9875 493.28436 32.45625Q493.28436 29.83125 494.6281 28.39375Q495.97186 26.940624 498.1281 26.940624Q500.20624 26.940624 501.51874 28.3625Q502.84686 29.76875 502.84686 32.346874Q502.84686 32.503124 502.83124 32.815624L495.09686 32.815624Q495.1906 34.51875 496.0656 35.425Q496.9406 36.33125 498.2375 36.33125Q499.20624 36.33125 499.8781 35.83125Q500.5656 35.315624 500.97186 34.20625ZM495.1906 31.3625L500.9875 31.3625Q500.8781 30.065624 500.33124 29.409374Q499.4875 28.39375 498.14374 28.39375Q496.9406 28.39375 496.1125 29.20625Q495.28436 30.003124 495.1906 31.3625ZM504.8625 37.55L504.8625 27.175L506.45624 27.175L506.45624 28.659374Q507.59686 26.940624 509.7531 26.940624Q510.6906 26.940624 511.47186 27.284374Q512.26874 27.6125 512.65936 28.159374Q513.05 28.70625 513.20624 29.45625Q513.3 29.95625 513.3 31.175L513.3 37.55L511.53436 37.55L511.53436 31.2375Q511.53436 30.159374 511.33124 29.628124Q511.1281 29.096874 510.59686 28.784374Q510.08124 28.471874 509.3781 28.471874Q508.2531 28.471874 507.4406 29.190624Q506.6281 29.89375 506.6281 31.878124L506.6281 37.55L504.8625 37.55ZM518.70624 35.971874L518.95624 37.534374Q518.22186 37.690624 517.6281 37.690624Q516.675 37.690624 516.14374 37.39375Q515.6281 37.08125 515.40936 36.596874Q515.1906 36.096874 515.1906 34.51875L515.1906 28.55L513.90936 28.55L513.90936 27.175L515.1906 27.175L515.1906 24.6125L516.9406 23.55L516.9406 27.175L518.70624 27.175L518.70624 28.55L516.9406 28.55L516.9406 34.6125Q516.9406 35.3625 517.03436 35.58125Q517.1281 35.784374 517.33124 35.925Q517.55 36.05 517.9406 36.05Q518.22186 36.05 518.70624 35.971874ZM522.01874 41.753124L520.76874 41.753124Q523.675 37.065624 523.675 32.378124Q523.675 30.534374 523.26874 28.7375Q522.925 27.26875 522.33124 25.925Q521.95624 25.034374 520.76874 22.9875L522.01874 22.9875Q523.8625 25.440624 524.7375 27.909374Q525.4875 30.034374 525.4875 32.3625Q525.4875 35.003124 524.47186 37.471874Q523.47186 39.925 522.01874 41.753124Z" fill-rule="nonzero"/></svg>