<svg version="1.1" viewBox="0.0 0.0 650.0 371.0" fill="none" stroke="none" stroke-linecap="square" stroke-miterlimit="10" width="650" height="371" xmlns:xlink="http://www.w3.org/1999/xlink" xmlns="http://www.w3.org/2000/svg"><path fill="#384244" d="M0 0L650.0 0L650.0 371.0L0 371.0L0 0Z" fill-rule="nonzero"/><path stroke="#ffffff" stroke-width="1.0" stroke-linecap="butt" d="M92.5 332.5L631.5 332.5" fill-rule="nonzero"/><path stroke="#6d7476" stroke-width="1.0" stroke-linecap="butt" d="M92.5 283.5L631.5 283.5" fill-rule="nonzero"/><path stroke="#6d7476" stroke-width="1.0" stroke-linecap="butt" d="M92.5 233.5L631.5 233.5" fill-rule="nonzero"/><path stroke="#6d7476" stroke-width="1.0" stroke-linecap="butt" d="M92.5 184.5L631.5 184.5" fill-rule="nonzero"/><path stroke="#6d7476" stroke-width="1.0" stroke-linecap="butt" d="M92.5 134.5L631.5 134.5" fill-rule="nonzero"/><path stroke="#6d7476" stroke-width="1.0" stroke-linecap="butt" d="M92.5 85.5L631.5 85.5" fill-rule="nonzero"/><clipPath id="id_0"><path d="M92.55 85.416664L631.45 85.416664L631.45 332.45L92.55 332.45L92.55 85.416664Z" clip-rule="nonzero"/></clipPath><path stroke="#000000" stroke-width="2.0" stroke-linecap="butt" stroke-opacity="0.0" clip-path="url(#id_0)" d="M254.0 332.0L149.0 332.0L149.0 113.0C149.0 111.89543 149.89543 111.0 151.0 111.0L252.0 111.0C253.10457 111.0 254.0 111.89543 254.0 113.0Z" fill-rule="nonzero"/><path fill="#d7ff84" clip-path="url(#id_0)" d="M254.0 332.0L149.0 332.0L149.0 113.0C149.0 111.89543 149.89543 111.0 151.0 111.0L252.0 111.0C253.10457 111.0 254.0 111.89543 254.0 113.0Z" fill-rule="nonzero"/><path stroke="#000000" stroke-width="2.0" stroke-linecap="butt" stroke-opacity="0.0" clip-path="url(#id_0)" d="M415.0 332.0L310.0 332.0L310.0 114.0C310.0 112.89543 310.89542 112.0 312.0 112.0L413.0 112.0C414.10458 112.0 415.0 112.89543 415.0 114.0Z" fill-rule="nonzero"/><path fill="#d7ff84" clip-path="url(#id_0)" d="M415.0 332.0L310.0 332.0L310.0 114.0C310.0 112.89543 310.89542 112.0 312.0 112.0L413.0 112.0C414.10458 112.0 415.0 112.89543 415.0 114.0Z" fill-rule="nonzero"/><path stroke="#000000" stroke-width="2.0" stroke-linecap="butt" stroke-opacity="0.0" clip-path="url(#id_0)" d="M576.0 332.0L471.0 332.0L471.0 112.0C471.0 110.89543 471.89542 110.0 473.0 110.0L574.0 110.0C575.10455 110.0 576.0 110.89543 576.0 112.0Z" fill-rule="nonzero"/><path fill="#d7ff84" clip-path="url(#id_0)" d="M576.0 332.0L471.0 332.0L471.0 112.0C471.0 110.89543 471.89542 110.0 473.0 110.0L574.0 110.0C575.10455 110.0 576.0 110.89543 576.0 112.0Z" fill-rule="nonzero"/><path fill="#ffffff" d="M29.550013 254.94896L20.956263 251.65208L20.956263 250.43333L29.550013 246.91771L29.550013 248.19896L26.940638 249.21458L26.940638 252.79271L29.550013 253.74583L29.550013 254.94896ZM26.018763 252.46458L26.018763 249.55833L23.643763 250.44896Q22.565638 250.87083 21.862513 251.05833Q22.690638 251.23021 23.503138 251.52708L26.018763 252.46458ZM29.550013 245.41771L23.331263 247.77708L23.331263 246.66771L27.050013 245.32396Q27.659388 245.12083 28.300013 244.93333Q27.815638 244.79271 27.128138 244.54271L23.331263 243.15208L23.331263 242.07396L29.550013 244.43333L29.550013 245.41771ZM30.065638 242.33958L30.221888 241.30833Q30.690638 241.24583 30.909388 240.94896Q31.206263 240.55833 31.206263 239.88646Q31.206263 239.15208 30.909388 238.76146Q30.612513 238.35521 30.096888 238.21458Q29.768763 238.12083 28.737513 238.13646Q29.550013 238.82396 29.550013 239.85521Q29.550013 241.13646 28.628138 241.83958Q27.690638 242.54271 26.409388 242.54271Q25.518763 242.54271 24.768763 242.23021Q24.003138 241.90208 23.596888 241.29271Q23.190638 240.68333 23.190638 239.85521Q23.190638 238.74583 24.081263 238.02708L23.331263 238.02708L23.331263 237.05833L28.706263 237.05833Q30.159388 237.05833 30.768763 237.35521Q31.378138 237.65208 31.721888 238.29271Q32.08126 238.93333 32.08126 239.87083Q32.08126 240.98021 31.581263 241.66771Q31.081263 242.35521 30.065638 242.33958ZM26.331263 241.46458Q27.550013 241.46458 28.112513 240.98021Q28.675013 240.49583 28.675013 239.76146Q28.675013 239.02708 28.112513 238.54271Q27.550013 238.04271 26.362513 238.04271Q25.221888 238.04271 24.643763 238.55833Q24.065638 239.05833 24.065638 239.77708Q24.065638 240.48021 24.643763 240.98021Q25.206263 241.46458 26.331263 241.46458ZM26.534388 225.87083L26.831263 224.74583Q28.221888 225.10521 28.956263 226.02708Q29.690638 226.94896 29.690638 228.29271Q29.690638 229.68333 29.128138 230.55833Q28.565638 231.43333 27.503138 231.88646Q26.425013 232.33958 25.190638 232.33958Q23.846888 232.33958 22.846888 231.82396Q21.846888 231.30833 21.331263 230.37083Q20.815638 229.41771 20.815638 228.27708Q20.815638 226.99583 21.471888 226.12083Q22.128138 225.23021 23.315638 224.88646L23.581263 226.01146Q22.643763 226.30833 22.221888 226.88646Q21.784388 227.44896 21.784388 228.30833Q21.784388 229.29271 22.268763 229.96458Q22.737513 230.62083 23.534388 230.90208Q24.331263 231.16771 25.190638 231.16771Q26.284388 231.16771 27.096888 230.85521Q27.909388 230.52708 28.315638 229.85521Q28.721888 229.18333 28.721888 228.38646Q28.721888 227.43333 28.175013 226.77708Q27.628138 226.10521 26.534388 225.87083ZM31.940638 223.18333L30.956263 223.30833Q31.050013 222.96458 31.050013 222.69896Q31.050013 222.35521 30.925013 222.15208Q30.815638 221.93333 30.612513 221.79271Q30.440638 221.69896 29.815638 221.46458Q29.737513 221.44896 29.565638 221.37083L23.331263 223.74583L23.331263 222.60521L26.925013 221.30833Q27.612513 221.05833 28.378138 220.85521Q27.643763 220.66771 26.956263 220.41771L23.331263 219.08958L23.331263 218.04271L29.659388 220.40208Q30.675013 220.79271 31.065638 220.99583Q31.596888 221.27708 31.831263 221.65208Q32.08126 222.01146 32.08126 222.51146Q32.08126 222.80833 31.940638 223.18333ZM27.268763 214.07396L27.409388 213.04271Q28.471888 213.21458 29.081263 213.91771Q29.690638 214.62083 29.690638 215.63646Q29.690638 216.91771 28.862513 217.69896Q28.018763 218.46458 26.456263 218.46458Q25.456263 218.46458 24.706263 218.13646Q23.940638 217.79271 23.565638 217.12083Q23.190638 216.43333 23.190638 215.62083Q23.190638 214.62083 23.706263 213.98021Q24.206263 213.32396 25.159388 213.13646L25.315638 214.16771Q24.690638 214.30833 24.378138 214.68333Q24.050013 215.05833 24.050013 215.58958Q24.050013 216.38646 24.628138 216.88646Q25.190638 217.38646 26.425013 217.38646Q27.690638 217.38646 28.253138 216.90208Q28.815638 216.41771 28.815638 215.65208Q28.815638 215.02708 28.440638 214.62083Q28.065638 214.19896 27.268763 214.07396ZM29.550013 212.16771L20.956263 212.16771L20.956263 211.10521L29.550013 211.10521L29.550013 212.16771ZM27.550013 204.88646L27.675013 203.79271Q28.628138 204.04271 29.159388 204.74583Q29.690638 205.44896 29.690638 206.52708Q29.690638 207.88646 28.846888 208.69896Q28.003138 209.49583 26.487513 209.49583Q24.925013 209.49583 24.065638 208.68333Q23.190638 207.87083 23.190638 206.58958Q23.190638 205.33958 24.034388 204.55833Q24.878138 203.76146 26.425013 203.76146Q26.518763 203.76146 26.706263 203.76146L26.706263 208.40208Q27.737513 208.33958 28.284388 207.82396Q28.815638 207.30833 28.815638 206.52708Q28.815638 205.94896 28.518763 205.54271Q28.206263 205.12083 27.550013 204.88646ZM25.846888 208.33958L25.846888 204.87083Q25.050013 204.93333 24.659388 205.26146Q24.050013 205.77708 24.050013 206.57396Q24.050013 207.30833 24.534388 207.80833Q25.018763 208.29271 25.846888 208.33958ZM27.690638 202.55833L27.534388 201.52708Q28.159388 201.43333 28.487513 201.04271Q28.815638 200.63646 28.815638 199.90208Q28.815638 199.18333 28.534388 198.83958Q28.237513 198.48021 27.831263 198.48021Q27.471888 198.48021 27.268763 198.79271Q27.128138 199.01146 26.909388 199.87083Q26.612513 201.02708 26.409388 201.48021Q26.190638 201.91771 25.815638 202.15208Q25.440638 202.38646 24.971888 202.38646Q24.565638 202.38646 24.206263 202.19896Q23.846888 202.01146 23.612513 201.68333Q23.440638 201.43333 23.315638 201.01146Q23.190638 200.58958 23.190638 200.08958Q23.190638 199.37083 23.409388 198.82396Q23.612513 198.26146 23.971888 197.99583Q24.331263 197.73021 24.925013 197.63646L25.065638 198.66771Q24.596888 198.73021 24.331263 199.07396Q24.050013 199.40208 24.050013 200.02708Q24.050013 200.74583 24.300013 201.05833Q24.534388 201.37083 24.862513 201.37083Q25.065638 201.37083 25.221888 201.24583Q25.393763 201.10521 25.503138 200.83958Q25.565638 200.68333 25.768763 199.90208Q26.081263 198.77708 26.268763 198.33958Q26.456263 197.90208 26.815638 197.65208Q27.175013 197.40208 27.721888 197.40208Q28.253138 197.40208 28.721888 197.71458Q29.175013 198.01146 29.440638 198.58958Q29.690638 199.16771 29.690638 199.90208Q29.690638 201.12083 29.190638 201.76146Q28.675013 202.38646 27.690638 202.55833ZM29.690638 195.93333L20.815638 193.44896L20.815638 192.60521L29.690638 195.08958L29.690638 195.93333ZM25.362513 192.35521Q23.221888 192.35521 22.018763 191.21458Q20.800013 190.05833 20.800013 188.24583Q20.800013 187.04271 21.378138 186.08958Q21.940638 185.13646 22.956263 184.63646Q23.971888 184.13646 25.268763 184.13646Q26.565638 184.13646 27.596888 184.66771Q28.628138 185.19896 29.159388 186.16771Q29.690638 187.12083 29.690638 188.24583Q29.690638 189.46458 29.112513 190.41771Q28.518763 191.37083 27.518763 191.87083Q26.503138 192.35521 25.362513 192.35521ZM25.378138 191.18333Q26.940638 191.18333 27.831263 190.35521Q28.721888 189.51146 28.721888 188.24583Q28.721888 186.96458 27.831263 186.13646Q26.925013 185.30833 25.253138 185.30833Q24.206263 185.30833 23.425013 185.66771Q22.643763 186.01146 22.221888 186.69896Q21.784388 187.38646 21.784388 188.23021Q21.784388 189.43333 22.612513 190.30833Q23.440638 191.18333 25.378138 191.18333ZM29.550013 183.01146L20.956263 183.01146L20.956263 179.76146Q20.956263 178.91771 21.034388 178.46458Q21.143763 177.82396 21.440638 177.40208Q21.737513 176.96458 22.268763 176.71458Q22.800013 176.44896 23.440638 176.44896Q24.534388 176.44896 25.300013 177.15208Q26.050013 177.83958 26.050013 179.66771L26.050013 181.87083L29.550013 181.87083L29.550013 183.01146ZM25.050013 181.87083L25.050013 179.65208Q25.050013 178.54271 24.643763 178.08958Q24.221888 177.62083 23.471888 177.62083Q22.940638 177.62083 22.565638 177.90208Q22.175013 178.16771 22.050013 178.60521Q21.971888 178.90208 21.971888 179.66771L21.971888 181.87083L25.050013 181.87083Z" fill-rule="nonzero"/><path fill="#ffffff" d="M51.05 332.21564Q51.05 330.6844 51.3625 329.7625Q51.675 328.825 52.284374 328.325Q52.909374 327.825 53.846874 327.825Q54.534374 327.825 55.05 328.10626Q55.58125 328.3875 55.925 328.91876Q56.26875 329.4344 56.45625 330.1844Q56.64375 330.9344 56.64375 332.21564Q56.64375 333.73126 56.33125 334.65314Q56.034374 335.575 55.409374 336.09064Q54.8 336.59064 53.846874 336.59064Q52.6125 336.59064 51.89375 335.7Q51.05 334.6375 51.05 332.21564ZM52.128124 332.21564Q52.128124 334.325 52.628124 335.02814Q53.128124 335.73126 53.846874 335.73126Q54.58125 335.73126 55.065624 335.02814Q55.565624 334.325 55.565624 332.21564Q55.565624 330.09064 55.065624 329.40314Q54.58125 328.7 53.83125 328.7Q53.1125 328.7 52.675 329.3094Q52.128124 330.09064 52.128124 332.21564ZM58.64375 336.45L58.64375 335.2469L59.846874 335.2469L59.846874 336.45L58.64375 336.45ZM61.05 332.21564Q61.05 330.6844 61.3625 329.7625Q61.675 328.825 62.284374 328.325Q62.909374 327.825 63.846874 327.825Q64.53438 327.825 65.05 328.10626Q65.58125 328.3875 65.925 328.91876Q66.26875 329.4344 66.45625 330.1844Q66.64375 330.9344 66.64375 332.21564Q66.64375 333.73126 66.33125 334.65314Q66.03438 335.575 65.40938 336.09064Q64.8 336.59064 63.846874 336.59064Q62.6125 336.59064 61.89375 335.7Q61.05 334.6375 61.05 332.21564ZM62.128124 332.21564Q62.128124 334.325 62.628124 335.02814Q63.128124 335.73126 63.846874 335.73126Q64.58125 335.73126 65.06563 335.02814Q65.56563 334.325 65.56563 332.21564Q65.56563 330.09064 65.06563 329.40314Q64.58125 328.7 63.83125 328.7Q63.1125 328.7 62.675 329.3094Q62.128124 330.09064 62.128124 332.21564ZM68.05 332.21564Q68.05 330.6844 68.3625 329.7625Q68.675 328.825 69.28438 328.325Q69.90938 327.825 70.84688 327.825Q71.53438 327.825 72.05 328.10626Q72.58125 328.3875 72.925 328.91876Q73.26875 329.4344 73.45625 330.1844Q73.64375 330.9344 73.64375 332.21564Q73.64375 333.73126 73.33125 334.65314Q73.03438 335.575 72.40938 336.09064Q71.8 336.59064 70.84688 336.59064Q69.6125 336.59064 68.89375 335.7Q68.05 334.6375 68.05 332.21564ZM69.12813 332.21564Q69.12813 334.325 69.62813 335.02814Q70.12813 335.73126 70.84688 335.73126Q71.58125 335.73126 72.06563 335.02814Q72.56563 334.325 72.56563 332.21564Q72.56563 330.09064 72.06563 329.40314Q71.58125 328.7 70.83125 328.7Q70.1125 328.7 69.675 329.3094Q69.12813 330.09064 69.12813 332.21564ZM78.44063 336.45L78.44063 327.85626L80.15938 327.85626L82.19063 333.9344Q82.47188 334.79376 82.59688 335.21564Q82.7375 334.7469 83.05 333.84064L85.1125 327.85626L86.64375 327.85626L86.64375 336.45L85.55 336.45L85.55 329.2625L83.05 336.45L82.01875 336.45L79.53438 329.1375L79.53438 336.45L78.44063 336.45Z" fill-rule="nonzero"/><path fill="#ffffff" d="M51.05 282.80896Q51.05 281.2777 51.3625 280.35583Q51.675 279.41833 52.284374 278.91833Q52.909374 278.41833 53.846874 278.41833Q54.534374 278.41833 55.05 278.6996Q55.58125 278.98083 55.925 279.5121Q56.26875 280.0277 56.45625 280.7777Q56.64375 281.5277 56.64375 282.80896Q56.64375 284.3246 56.33125 285.24646Q56.034374 286.16833 55.409374 286.68396Q54.8 287.18396 53.846874 287.18396Q52.6125 287.18396 51.89375 286.29333Q51.05 285.23083 51.05 282.80896ZM52.128124 282.80896Q52.128124 284.91833 52.628124 285.62146Q53.128124 286.3246 53.846874 286.3246Q54.58125 286.3246 55.065624 285.62146Q55.565624 284.91833 55.565624 282.80896Q55.565624 280.68396 55.065624 279.99646Q54.58125 279.29333 53.83125 279.29333Q53.1125 279.29333 52.675 279.9027Q52.128124 280.68396 52.128124 282.80896ZM58.64375 287.04333L58.64375 285.8402L59.846874 285.8402L59.846874 287.04333L58.64375 287.04333ZM66.59688 286.0277L66.59688 287.04333L60.909374 287.04333Q60.909374 286.66833 61.034374 286.30896Q61.253124 285.73083 61.721874 285.16833Q62.20625 284.60583 63.1125 283.87146Q64.51875 282.7152 65.00313 282.04333Q65.50313 281.37146 65.50313 280.7777Q65.50313 280.1527 65.05 279.73083Q64.59688 279.29333 63.878124 279.29333Q63.1125 279.29333 62.659374 279.74646Q62.20625 280.1996 62.190624 281.0121L61.1125 280.9027Q61.221874 279.68396 61.940624 279.05896Q62.675 278.41833 63.909374 278.41833Q65.14375 278.41833 65.8625 279.10583Q66.58125 279.79333 66.58125 280.80896Q66.58125 281.3246 66.3625 281.8246Q66.15938 282.30896 65.65938 282.87146Q65.175 283.41833 64.05 284.37146Q63.096874 285.16833 62.815624 285.4652Q62.55 285.74646 62.378124 286.0277L66.59688 286.0277ZM68.05 284.79333L69.15938 284.6996Q69.28438 285.5121 69.72188 285.91833Q70.175 286.3246 70.81563 286.3246Q71.56563 286.3246 72.09688 285.74646Q72.62813 285.16833 72.62813 284.23083Q72.62813 283.3246 72.1125 282.80896Q71.6125 282.2777 70.78438 282.2777Q70.28438 282.2777 69.8625 282.5121Q69.45625 282.74646 69.22188 283.10583L68.2375 282.98083L69.06563 278.5746L73.34688 278.5746L73.34688 279.5746L69.90938 279.5746L69.45625 281.8871Q70.22188 281.3402 71.06563 281.3402Q72.19063 281.3402 72.95625 282.12146Q73.7375 282.9027 73.7375 284.1371Q73.7375 285.29333 73.06563 286.1527Q72.2375 287.18396 70.81563 287.18396Q69.64375 287.18396 68.89375 286.5277Q68.15938 285.87146 68.05 284.79333ZM78.44063 287.04333L78.44063 278.4496L80.15938 278.4496L82.19063 284.5277Q82.47188 285.3871 82.59688 285.80896Q82.7375 285.3402 83.05 284.43396L85.1125 278.4496L86.64375 278.4496L86.64375 287.04333L85.55 287.04333L85.55 279.85583L83.05 287.04333L82.01875 287.04333L79.53438 279.73083L79.53438 287.04333L78.44063 287.04333Z" fill-rule="nonzero"/><path fill="#ffffff" d="M51.05 233.4023Q51.05 231.87105 51.3625 230.94917Q51.675 230.01167 52.284374 229.51167Q52.909374 229.01167 53.846874 229.01167Q54.534374 229.01167 55.05 229.29292Q55.58125 229.57417 55.925 230.10542Q56.26875 230.62105 56.45625 231.37105Q56.64375 232.12105 56.64375 233.4023Q56.64375 234.91792 56.33125 235.8398Q56.034374 236.76167 55.409374 237.2773Q54.8 237.7773 53.846874 237.7773Q52.6125 237.7773 51.89375 236.88667Q51.05 235.82417 51.05 233.4023ZM52.128124 233.4023Q52.128124 235.51167 52.628124 236.2148Q53.128124 236.91792 53.846874 236.91792Q54.58125 236.91792 55.065624 236.2148Q55.565624 235.51167 55.565624 233.4023Q55.565624 231.2773 55.065624 230.5898Q54.58125 229.88667 53.83125 229.88667Q53.1125 229.88667 52.675 230.49605Q52.128124 231.2773 52.128124 233.4023ZM58.64375 237.63667L58.64375 236.43355L59.846874 236.43355L59.846874 237.63667L58.64375 237.63667ZM61.05 235.38667L62.159374 235.29292Q62.284374 236.10542 62.721874 236.51167Q63.175 236.91792 63.815624 236.91792Q64.56563 236.91792 65.09688 236.3398Q65.62813 235.76167 65.62813 234.82417Q65.62813 233.91792 65.1125 233.4023Q64.6125 232.87105 63.784374 232.87105Q63.284374 232.87105 62.8625 233.10542Q62.45625 233.3398 62.221874 233.69917L61.2375 233.57417L62.065624 229.16792L66.34688 229.16792L66.34688 230.16792L62.909374 230.16792L62.45625 232.48042Q63.221874 231.93355 64.06563 231.93355Q65.19063 231.93355 65.95625 232.7148Q66.7375 233.49605 66.7375 234.73042Q66.7375 235.88667 66.06563 236.74605Q65.2375 237.7773 63.815624 237.7773Q62.64375 237.7773 61.89375 237.12105Q61.159374 236.4648 61.05 235.38667ZM68.05 233.4023Q68.05 231.87105 68.3625 230.94917Q68.675 230.01167 69.28438 229.51167Q69.90938 229.01167 70.84688 229.01167Q71.53438 229.01167 72.05 229.29292Q72.58125 229.57417 72.925 230.10542Q73.26875 230.62105 73.45625 231.37105Q73.64375 232.12105 73.64375 233.4023Q73.64375 234.91792 73.33125 235.8398Q73.03438 236.76167 72.40938 237.2773Q71.8 237.7773 70.84688 237.7773Q69.6125 237.7773 68.89375 236.88667Q68.05 235.82417 68.05 233.4023ZM69.12813 233.4023Q69.12813 235.51167 69.62813 236.2148Q70.12813 236.91792 70.84688 236.91792Q71.58125 236.91792 72.06563 236.2148Q72.56563 235.51167 72.56563 233.4023Q72.56563 231.2773 72.06563 230.5898Q71.58125 229.88667 70.83125 229.88667Q70.1125 229.88667 69.675 230.49605Q69.12813 231.2773 69.12813 233.4023ZM78.44063 237.63667L78.44063 229.04292L80.15938 229.04292L82.19063 235.12105Q82.47188 235.98042 82.59688 236.4023Q82.7375 235.93355 83.05 235.0273L85.1125 229.04292L86.64375 229.04292L86.64375 237.63667L85.55 237.63667L85.55 230.44917L83.05 237.63667L82.01875 237.63667L79.53438 230.32417L79.53438 237.63667L78.44063 237.63667Z" fill-rule="nonzero"/><path fill="#ffffff" d="M51.05 183.99562Q51.05 182.46437 51.3625 181.5425Q51.675 180.605 52.284374 180.105Q52.909374 179.605 53.846874 179.605Q54.534374 179.605 55.05 179.88625Q55.58125 180.1675 55.925 180.69875Q56.26875 181.21437 56.45625 181.96437Q56.64375 182.71437 56.64375 183.99562Q56.64375 185.51125 56.33125 186.43312Q56.034374 187.355 55.409374 187.87062Q54.8 188.37062 53.846874 188.37062Q52.6125 188.37062 51.89375 187.48Q51.05 186.4175 51.05 183.99562ZM52.128124 183.99562Q52.128124 186.105 52.628124 186.80812Q53.128124 187.51125 53.846874 187.51125Q54.58125 187.51125 55.065624 186.80812Q55.565624 186.105 55.565624 183.99562Q55.565624 181.87062 55.065624 181.18312Q54.58125 180.48 53.83125 180.48Q53.1125 180.48 52.675 181.08937Q52.128124 181.87062 52.128124 183.99562ZM58.64375 188.23L58.64375 187.02687L59.846874 187.02687L59.846874 188.23L58.64375 188.23ZM61.1125 180.76125L61.1125 179.74562L66.675 179.74562L66.675 180.57375Q65.8625 181.44875 65.05 182.90187Q64.25313 184.33937 63.815624 185.87062Q63.4875 186.94875 63.409374 188.23L62.315624 188.23Q62.33125 187.21437 62.70625 185.77687Q63.096874 184.33937 63.8 183.01125Q64.51875 181.68312 65.33125 180.76125L61.1125 180.76125ZM68.05 185.98L69.15938 185.88625Q69.28438 186.69875 69.72188 187.105Q70.175 187.51125 70.81563 187.51125Q71.56563 187.51125 72.09688 186.93312Q72.62813 186.355 72.62813 185.4175Q72.62813 184.51125 72.1125 183.99562Q71.6125 183.46437 70.78438 183.46437Q70.28438 183.46437 69.8625 183.69875Q69.45625 183.93312 69.22188 184.2925L68.2375 184.1675L69.06563 179.76125L73.34688 179.76125L73.34688 180.76125L69.90938 180.76125L69.45625 183.07375Q70.22188 182.52687 71.06563 182.52687Q72.19063 182.52687 72.95625 183.30812Q73.7375 184.08937 73.7375 185.32375Q73.7375 186.48 73.06563 187.33937Q72.2375 188.37062 70.81563 188.37062Q69.64375 188.37062 68.89375 187.71437Q68.15938 187.05812 68.05 185.98ZM78.44063 188.23L78.44063 179.63625L80.15938 179.63625L82.19063 185.71437Q82.47188 186.57375 82.59688 186.99562Q82.7375 186.52687 83.05 185.62062L85.1125 179.63625L86.64375 179.63625L86.64375 188.23L85.55 188.23L85.55 181.0425L83.05 188.23L82.01875 188.23L79.53438 180.9175L79.53438 188.23L78.44063 188.23Z" fill-rule="nonzero"/><path fill="#ffffff" d="M55.01875 138.82333L53.971874 138.82333L53.971874 132.10458Q53.58125 132.46396 52.95625 132.83896Q52.346874 133.19833 51.8625 133.37021L51.8625 132.35458Q52.7375 131.93271 53.39375 131.35458Q54.065624 130.76083 54.346874 130.19833L55.01875 130.19833L55.01875 138.82333ZM58.64375 138.82333L58.64375 137.62021L59.846874 137.62021L59.846874 138.82333L58.64375 138.82333ZM61.05 134.58896Q61.05 133.05771 61.3625 132.13583Q61.675 131.19833 62.284374 130.69833Q62.909374 130.19833 63.846874 130.19833Q64.53438 130.19833 65.05 130.47958Q65.58125 130.76083 65.925 131.29208Q66.26875 131.80771 66.45625 132.55771Q66.64375 133.30771 66.64375 134.58896Q66.64375 136.10458 66.33125 137.02646Q66.03438 137.94833 65.40938 138.46396Q64.8 138.96396 63.846874 138.96396Q62.6125 138.96396 61.89375 138.07333Q61.05 137.01083 61.05 134.58896ZM62.128124 134.58896Q62.128124 136.69833 62.628124 137.40146Q63.128124 138.10458 63.846874 138.10458Q64.58125 138.10458 65.06563 137.40146Q65.56563 136.69833 65.56563 134.58896Q65.56563 132.46396 65.06563 131.77646Q64.58125 131.07333 63.83125 131.07333Q63.1125 131.07333 62.675 131.68271Q62.128124 132.46396 62.128124 134.58896ZM68.05 134.58896Q68.05 133.05771 68.3625 132.13583Q68.675 131.19833 69.28438 130.69833Q69.90938 130.19833 70.84688 130.19833Q71.53438 130.19833 72.05 130.47958Q72.58125 130.76083 72.925 131.29208Q73.26875 131.80771 73.45625 132.55771Q73.64375 133.30771 73.64375 134.58896Q73.64375 136.10458 73.33125 137.02646Q73.03438 137.94833 72.40938 138.46396Q71.8 138.96396 70.84688 138.96396Q69.6125 138.96396 68.89375 138.07333Q68.05 137.01083 68.05 134.58896ZM69.12813 134.58896Q69.12813 136.69833 69.62813 137.40146Q70.12813 138.10458 70.84688 138.10458Q71.58125 138.10458 72.06563 137.40146Q72.56563 136.69833 72.56563 134.58896Q72.56563 132.46396 72.06563 131.77646Q71.58125 131.07333 70.83125 131.07333Q70.1125 131.07333 69.675 131.68271Q69.12813 132.46396 69.12813 134.58896ZM78.44063 138.82333L78.44063 130.22958L80.15938 130.22958L82.19063 136.30771Q82.47188 137.16708 82.59688 137.58896Q82.7375 137.12021 83.05 136.21396L85.1125 130.22958L86.64375 130.22958L86.64375 138.82333L85.55 138.82333L85.55 131.63583L83.05 138.82333L82.01875 138.82333L79.53438 131.51083L79.53438 138.82333L78.44063 138.82333Z" fill-rule="nonzero"/><path fill="#ffffff" d="M55.01875 89.416664L53.971874 89.416664L53.971874 82.697914Q53.58125 83.05729 52.95625 83.43229Q52.346874 83.791664 51.8625 83.96354L51.8625 82.947914Q52.7375 82.52604 53.39375 81.947914Q54.065624 81.354164 54.346874 80.791664L55.01875 80.791664L55.01875 89.416664ZM58.64375 89.416664L58.64375 88.21354L59.846874 88.21354L59.846874 89.416664L58.64375 89.416664ZM66.59688 88.40104L66.59688 89.416664L60.909374 89.416664Q60.909374 89.041664 61.034374 88.68229Q61.253124 88.104164 61.721874 87.541664Q62.20625 86.979164 63.1125 86.24479Q64.51875 85.08854 65.00313 84.416664Q65.50313 83.74479 65.50313 83.15104Q65.50313 82.52604 65.05 82.104164Q64.59688 81.666664 63.878124 81.666664Q63.1125 81.666664 62.659374 82.11979Q62.20625 82.572914 62.190624 83.385414L61.1125 83.27604Q61.221874 82.05729 61.940624 81.43229Q62.675 80.791664 63.909374 80.791664Q65.14375 80.791664 65.8625 81.479164Q66.58125 82.166664 66.58125 83.18229Q66.58125 83.697914 66.3625 84.197914Q66.15938 84.68229 65.65938 85.24479Q65.175 85.791664 64.05 86.74479Q63.096874 87.541664 62.815624 87.83854Q62.55 88.11979 62.378124 88.40104L66.59688 88.40104ZM68.05 87.166664L69.15938 87.072914Q69.28438 87.885414 69.72188 88.291664Q70.175 88.697914 70.81563 88.697914Q71.56563 88.697914 72.09688 88.11979Q72.62813 87.541664 72.62813 86.604164Q72.62813 85.697914 72.1125 85.18229Q71.6125 84.65104 70.78438 84.65104Q70.28438 84.65104 69.8625 84.885414Q69.45625 85.11979 69.22188 85.479164L68.2375 85.354164L69.06563 80.947914L73.34688 80.947914L73.34688 81.947914L69.90938 81.947914L69.45625 84.260414Q70.22188 83.71354 71.06563 83.71354Q72.19063 83.71354 72.95625 84.49479Q73.7375 85.27604 73.7375 86.510414Q73.7375 87.666664 73.06563 88.52604Q72.2375 89.55729 70.81563 89.55729Q69.64375 89.55729 68.89375 88.90104Q68.15938 88.24479 68.05 87.166664ZM78.44063 89.416664L78.44063 80.822914L80.15938 80.822914L82.19063 86.90104Q82.47188 87.760414 82.59688 88.18229Q82.7375 87.71354 83.05 86.80729L85.1125 80.822914L86.64375 80.822914L86.64375 89.416664L85.55 89.416664L85.55 82.229164L83.05 89.416664L82.01875 89.416664L79.53438 82.104164L79.53438 89.416664L78.44063 89.416664Z" fill-rule="nonzero"/><path fill="#ffffff" d="M180.64995 349.45L178.29057 343.23126L179.39995 343.23126L180.7437 346.95Q180.94682 347.5594 181.13432 348.2Q181.27495 347.71564 181.52495 347.02814L182.91557 343.23126L183.9937 343.23126L181.63432 349.45L180.64995 349.45ZM187.60307 349.45L186.5562 349.45L186.5562 342.73126Q186.16557 343.09064 185.54057 343.46564Q184.9312 343.825 184.44682 343.9969L184.44682 342.98126Q185.32182 342.5594 185.97807 341.98126Q186.64995 341.3875 186.9312 340.825L187.60307 340.825L187.60307 349.45ZM196.10307 342.96564L195.0562 343.04376Q194.91557 342.41876 194.66557 342.1375Q194.22807 341.6844 193.60307 341.6844Q193.10307 341.6844 192.71245 341.96564Q192.22807 342.34064 191.9312 343.04376Q191.64995 343.73126 191.63432 345.0125Q192.00932 344.4344 192.5562 344.15314Q193.1187 343.8719 193.72807 343.8719Q194.77495 343.8719 195.50932 344.65314Q196.25932 345.4344 196.25932 346.65314Q196.25932 347.46564 195.89995 348.16876Q195.5562 348.85626 194.94682 349.23126Q194.33745 349.59064 193.57182 349.59064Q192.2437 349.59064 191.41557 348.6219Q190.58745 347.65314 190.58745 345.4344Q190.58745 342.9344 191.50932 341.8094Q192.3062 340.825 193.66557 340.825Q194.6812 340.825 195.32182 341.40314Q195.97807 341.96564 196.10307 342.96564ZM191.8062 346.66876Q191.8062 347.21564 192.02495 347.71564Q192.25932 348.2 192.66557 348.46564Q193.08745 348.73126 193.5562 348.73126Q194.21245 348.73126 194.69682 348.2Q195.1812 347.65314 195.1812 346.73126Q195.1812 345.84064 194.69682 345.325Q194.22807 344.8094 193.50932 344.8094Q192.79057 344.8094 192.29057 345.325Q191.8062 345.84064 191.8062 346.66876ZM198.22807 349.45L198.22807 348.2469L199.4312 348.2469L199.4312 349.45L198.22807 349.45ZM206.1812 348.4344L206.1812 349.45L200.4937 349.45Q200.4937 349.075 200.6187 348.71564Q200.83745 348.1375 201.3062 347.575Q201.79057 347.0125 202.69682 346.27814Q204.10307 345.1219 204.58745 344.45Q205.08745 343.77814 205.08745 343.1844Q205.08745 342.5594 204.63432 342.1375Q204.1812 341.7 203.46245 341.7Q202.69682 341.7 202.2437 342.15314Q201.79057 342.60626 201.77495 343.41876L200.69682 343.3094Q200.8062 342.09064 201.52495 341.46564Q202.25932 340.825 203.4937 340.825Q204.72807 340.825 205.44682 341.5125Q206.16557 342.2 206.16557 343.21564Q206.16557 343.73126 205.94682 344.23126Q205.7437 344.71564 205.2437 345.27814Q204.75932 345.825 203.63432 346.77814Q202.6812 347.575 202.39995 347.8719Q202.13432 348.15314 201.96245 348.4344L206.1812 348.4344ZM208.22807 349.45L208.22807 348.2469L209.4312 348.2469L209.4312 349.45L208.22807 349.45ZM214.60307 349.45L213.5562 349.45L213.5562 342.73126Q213.16557 343.09064 212.54057 343.46564Q211.9312 343.825 211.44682 343.9969L211.44682 342.98126Q212.32182 342.5594 212.97807 341.98126Q213.64995 341.3875 213.9312 340.825L214.60307 340.825L214.60307 349.45ZM217.63432 347.1844L218.69682 347.04376Q218.8687 347.9344 219.3062 348.34064Q219.7437 348.73126 220.3687 348.73126Q221.1187 348.73126 221.63432 348.21564Q222.14995 347.7 222.14995 346.9344Q222.14995 346.21564 221.66557 345.7469Q221.19682 345.2625 220.46245 345.2625Q220.16557 345.2625 219.71245 345.3875L219.83745 344.45Q219.94682 344.46564 220.00932 344.46564Q220.6812 344.46564 221.21245 344.1219Q221.75932 343.7625 221.75932 343.02814Q221.75932 342.45 221.3687 342.075Q220.97807 341.6844 220.35307 341.6844Q219.7437 341.6844 219.32182 342.075Q218.91557 342.46564 218.8062 343.23126L217.7437 343.04376Q217.9312 341.9969 218.6187 341.41876Q219.3062 340.825 220.32182 340.825Q221.02495 340.825 221.6187 341.1375Q222.21245 341.4344 222.52495 341.95Q222.83745 342.46564 222.83745 343.0594Q222.83745 343.60626 222.54057 344.075Q222.2437 344.52814 221.66557 344.79376Q222.41557 344.96564 222.83745 345.52814Q223.25932 346.075 223.25932 346.91876Q223.25932 348.04376 222.4312 348.825Q221.6187 349.60626 220.3687 349.60626Q219.2437 349.60626 218.4937 348.9344Q217.7437 348.2469 217.63432 347.1844Z" fill-rule="nonzero"/><path fill="#ffffff" d="M345.01562 349.45L342.65625 343.23126L343.76562 343.23126L345.10938 346.95Q345.3125 347.5594 345.5 348.2Q345.64062 347.71564 345.89062 347.02814L347.28125 343.23126L348.35938 343.23126L346.0 349.45L345.01562 349.45ZM351.96875 349.45L350.92188 349.45L350.92188 342.73126Q350.53125 343.09064 349.90625 343.46564Q349.29688 343.825 348.8125 343.9969L348.8125 342.98126Q349.6875 342.5594 350.34375 341.98126Q351.01562 341.3875 351.29688 340.825L351.96875 340.825L351.96875 349.45ZM355.0625 341.98126L355.0625 340.96564L360.625 340.96564L360.625 341.79376Q359.8125 342.66876 359.0 344.1219Q358.20312 345.5594 357.76562 347.09064Q357.4375 348.16876 357.35938 349.45L356.26562 349.45Q356.28125 348.4344 356.65625 346.9969Q357.04688 345.5594 357.75 344.23126Q358.46875 342.90314 359.28125 341.98126L355.0625 341.98126ZM362.59375 349.45L362.59375 348.2469L363.79688 348.2469L363.79688 349.45L362.59375 349.45ZM370.54688 348.4344L370.54688 349.45L364.85938 349.45Q364.85938 349.075 364.98438 348.71564Q365.20312 348.1375 365.67188 347.575Q366.15625 347.0125 367.0625 346.27814Q368.46875 345.1219 368.95312 344.45Q369.45312 343.77814 369.45312 343.1844Q369.45312 342.5594 369.0 342.1375Q368.54688 341.7 367.82812 341.7Q367.0625 341.7 366.60938 342.15314Q366.15625 342.60626 366.14062 343.41876L365.0625 343.3094Q365.17188 342.09064 365.89062 341.46564Q366.625 340.825 367.85938 340.825Q369.09375 340.825 369.8125 341.5125Q370.53125 342.2 370.53125 343.21564Q370.53125 343.73126 370.3125 344.23126Q370.10938 344.71564 369.60938 345.27814Q369.125 345.825 368.0 346.77814Q367.04688 347.575 366.76562 347.8719Q366.5 348.15314 366.32812 348.4344L370.54688 348.4344ZM372.59375 349.45L372.59375 348.2469L373.79688 348.2469L373.79688 349.45L372.59375 349.45ZM380.46875 342.96564L379.42188 343.04376Q379.28125 342.41876 379.03125 342.1375Q378.59375 341.6844 377.96875 341.6844Q377.46875 341.6844 377.07812 341.96564Q376.59375 342.34064 376.29688 343.04376Q376.01562 343.73126 376.0 345.0125Q376.375 344.4344 376.92188 344.15314Q377.48438 343.8719 378.09375 343.8719Q379.14062 343.8719 379.875 344.65314Q380.625 345.4344 380.625 346.65314Q380.625 347.46564 380.26562 348.16876Q379.92188 348.85626 379.3125 349.23126Q378.70312 349.59064 377.9375 349.59064Q376.60938 349.59064 375.78125 348.6219Q374.95312 347.65314 374.95312 345.4344Q374.95312 342.9344 375.875 341.8094Q376.67188 340.825 378.03125 340.825Q379.04688 340.825 379.6875 341.40314Q380.34375 341.96564 380.46875 342.96564ZM376.17188 346.66876Q376.17188 347.21564 376.39062 347.71564Q376.625 348.2 377.03125 348.46564Q377.45312 348.73126 377.92188 348.73126Q378.57812 348.73126 379.0625 348.2Q379.54688 347.65314 379.54688 346.73126Q379.54688 345.84064 379.0625 345.325Q378.59375 344.8094 377.875 344.8094Q377.15625 344.8094 376.65625 345.325Q376.17188 345.84064 376.17188 346.66876Z" fill-rule="nonzero"/><path fill="#ffffff" d="M505.8813 349.45L503.5219 343.23126L504.6313 343.23126L505.97504 346.95Q506.17816 347.5594 506.36566 348.2Q506.5063 347.71564 506.7563 347.02814L508.1469 343.23126L509.22504 343.23126L506.86566 349.45L505.8813 349.45ZM512.8344 349.45L511.78754 349.45L511.78754 342.73126Q511.3969 343.09064 510.7719 343.46564Q510.16254 343.825 509.67816 343.9969L509.67816 342.98126Q510.55316 342.5594 511.2094 341.98126Q511.8813 341.3875 512.16254 340.825L512.8344 340.825L512.8344 349.45ZM517.49066 344.79376Q516.8344 344.54376 516.5063 344.10626Q516.1938 343.65314 516.1938 343.04376Q516.1938 342.10626 516.86566 341.46564Q517.55316 340.825 518.66254 340.825Q519.78754 340.825 520.47504 341.48126Q521.16254 342.1375 521.16254 343.075Q521.16254 343.66876 520.85004 344.10626Q520.53754 344.54376 519.8969 344.79376Q520.6938 345.04376 521.10004 345.6219Q521.5063 346.2 521.5063 346.9969Q521.5063 348.09064 520.72504 348.84064Q519.9594 349.59064 518.67816 349.59064Q517.41254 349.59064 516.6313 348.84064Q515.85004 348.09064 515.85004 346.96564Q515.85004 346.1219 516.2719 345.5594Q516.7094 344.9969 517.49066 344.79376ZM517.2719 342.9969Q517.2719 343.60626 517.66254 343.9969Q518.0688 344.3875 518.6938 344.3875Q519.30316 344.3875 519.6938 344.0125Q520.0844 343.6219 520.0844 343.0594Q520.0844 342.48126 519.67816 342.09064Q519.2719 341.6844 518.67816 341.6844Q518.0688 341.6844 517.66254 342.075Q517.2719 342.46564 517.2719 342.9969ZM516.9438 346.96564Q516.9438 347.41876 517.1469 347.84064Q517.36566 348.2625 517.78754 348.4969Q518.2094 348.73126 518.6938 348.73126Q519.4438 348.73126 519.92816 348.2469Q520.42816 347.7625 520.42816 347.0125Q520.42816 346.2469 519.92816 345.7469Q519.42816 345.2469 518.66254 345.2469Q517.91254 345.2469 517.42816 345.7469Q516.9438 346.23126 516.9438 346.96564ZM523.4594 349.45L523.4594 348.2469L524.66254 348.2469L524.66254 349.45L523.4594 349.45ZM529.8344 349.45L528.78754 349.45L528.78754 342.73126Q528.3969 343.09064 527.7719 343.46564Q527.16254 343.825 526.67816 343.9969L526.67816 342.98126Q527.55316 342.5594 528.2094 341.98126Q528.8813 341.3875 529.16254 340.825L529.8344 340.825L529.8344 349.45ZM533.4594 349.45L533.4594 348.2469L534.66254 348.2469L534.66254 349.45L533.4594 349.45ZM535.86566 345.21564Q535.86566 343.6844 536.17816 342.7625Q536.49066 341.825 537.10004 341.325Q537.72504 340.825 538.66254 340.825Q539.35004 340.825 539.86566 341.10626Q540.3969 341.3875 540.74066 341.91876Q541.0844 342.4344 541.2719 343.1844Q541.4594 343.9344 541.4594 345.21564Q541.4594 346.73126 541.1469 347.65314Q540.85004 348.575 540.22504 349.09064Q539.61566 349.59064 538.66254 349.59064Q537.42816 349.59064 536.7094 348.7Q535.86566 347.6375 535.86566 345.21564ZM536.9438 345.21564Q536.9438 347.325 537.4438 348.02814Q537.9438 348.73126 538.66254 348.73126Q539.3969 348.73126 539.8813 348.02814Q540.3813 347.325 540.3813 345.21564Q540.3813 343.09064 539.8813 342.40314Q539.3969 341.7 538.6469 341.7Q537.92816 341.7 537.49066 342.3094Q536.9438 343.09064 536.9438 345.21564Z" fill-rule="nonzero"/><path fill="#d9d9d9" d="M19.58125 63.05L19.58125 53.034374L20.909374 53.034374L20.909374 58.003124L25.878124 53.034374L27.675 53.034374L23.471874 57.08125L27.8625 63.05L26.1125 63.05L22.55 57.971874L20.909374 59.58125L20.909374 63.05L19.58125 63.05ZM28.64375 63.05L28.64375 53.034374L33.096874 53.034374Q34.440624 53.034374 35.128124 53.3Q35.83125 53.565624 36.2375 54.253124Q36.659374 54.940624 36.659374 55.76875Q36.659374 56.83125 35.971874 57.565624Q35.284374 58.284374 33.846874 58.4875Q34.3625 58.7375 34.64375 58.9875Q35.221874 59.51875 35.7375 60.315624L37.4875 63.05L35.815624 63.05L34.4875 60.971874Q33.909374 60.065624 33.534374 59.596874Q33.159374 59.1125 32.8625 58.925Q32.565624 58.721874 32.253124 58.64375Q32.034374 58.596874 31.51875 58.596874L29.971874 58.596874L29.971874 63.05L28.64375 63.05ZM29.971874 57.45625L32.83125 57.45625Q33.7375 57.45625 34.253124 57.26875Q34.76875 57.08125 35.034374 56.675Q35.3 56.253124 35.3 55.76875Q35.3 55.05 34.784374 54.596874Q34.26875 54.128124 33.14375 54.128124L29.971874 54.128124L29.971874 57.45625ZM38.58125 63.05L38.58125 53.034374L42.33125 53.034374Q43.4875 53.034374 44.175 53.346874Q44.878124 53.64375 45.26875 54.26875Q45.659374 54.89375 45.659374 55.596874Q45.659374 56.2375 45.3 56.8Q44.95625 57.3625 44.253124 57.721874Q45.159374 57.9875 45.64375 58.628124Q46.14375 59.26875 46.14375 60.14375Q46.14375 60.846874 45.846874 61.45625Q45.55 62.065624 45.1125 62.39375Q44.675 62.721874 44.003124 62.89375Q43.346874 63.05 42.39375 63.05L38.58125 63.05ZM39.909374 57.2375L42.065624 57.2375Q42.95625 57.2375 43.33125 57.128124Q43.846874 56.971874 44.096874 56.628124Q44.346874 56.26875 44.346874 55.753124Q44.346874 55.253124 44.1125 54.878124Q43.878124 54.4875 43.425 54.346874Q42.9875 54.20625 41.909374 54.20625L39.909374 54.20625L39.909374 57.2375ZM39.909374 61.8625L42.39375 61.8625Q43.034374 61.8625 43.3 61.815624Q43.753124 61.7375 44.065624 61.55Q44.378124 61.346874 44.565624 60.9875Q44.76875 60.628124 44.76875 60.14375Q44.76875 59.58125 44.471874 59.175Q44.190624 58.753124 43.675 58.596874Q43.175 58.425 42.221874 58.425L39.909374 58.425L39.909374 61.8625ZM47.628124 63.05L47.628124 53.034374L51.08125 53.034374Q52.253124 53.034374 52.8625 53.175Q53.721874 53.3625 54.33125 53.89375Q55.128124 54.565624 55.51875 55.6125Q55.909374 56.64375 55.909374 57.9875Q55.909374 59.128124 55.64375 60.01875Q55.378124 60.89375 54.95625 61.471874Q54.55 62.05 54.05 62.378124Q53.55 62.70625 52.846874 62.878124Q52.159374 63.05 51.253124 63.05L47.628124 63.05ZM48.95625 61.8625L51.096874 61.8625Q52.08125 61.8625 52.64375 61.690624Q53.221874 61.503124 53.55 61.159374Q54.01875 60.690624 54.284374 59.89375Q54.55 59.096874 54.55 57.95625Q54.55 56.39375 54.034374 55.55Q53.51875 54.70625 52.784374 54.409374Q52.2375 54.20625 51.065624 54.20625L48.95625 54.20625L48.95625 61.8625ZM57.8 63.05L57.8 61.64375L59.190624 61.64375L59.190624 63.05Q59.190624 63.815624 58.909374 64.28438Q58.64375 64.76875 58.05 65.03438L57.70625 64.50313Q58.096874 64.33125 58.284374 64.00313Q58.471874 63.675 58.4875 63.05L57.8 63.05ZM71.51875 55.4875L70.3 55.58125Q70.12813 54.846874 69.83125 54.51875Q69.33125 54.003124 68.59688 54.003124Q68.00313 54.003124 67.56563 54.33125Q66.9875 54.753124 66.64375 55.565624Q66.31563 56.378124 66.3 57.878124Q66.7375 57.20625 67.37813 56.878124Q68.03438 56.55 68.7375 56.55Q69.97188 56.55 70.83125 57.45625Q71.69063 58.3625 71.69063 59.8Q71.69063 60.7375 71.28438 61.55Q70.87813 62.3625 70.15938 62.8Q69.45625 63.221874 68.55 63.221874Q67.01875 63.221874 66.05 62.096874Q65.08125 60.95625 65.08125 58.3625Q65.08125 55.45625 66.14375 54.128124Q67.08125 52.9875 68.675 52.9875Q69.8625 52.9875 70.6125 53.659374Q71.3625 54.315624 71.51875 55.4875ZM66.4875 59.8Q66.4875 60.440624 66.75313 61.01875Q67.03438 61.596874 67.51875 61.909374Q68.00313 62.20625 68.53438 62.20625Q69.31563 62.20625 69.87813 61.58125Q70.44063 60.95625 70.44063 59.878124Q70.44063 58.83125 69.87813 58.2375Q69.33125 57.628124 68.4875 57.628124Q67.65938 57.628124 67.06563 58.2375Q66.4875 58.83125 66.4875 59.8ZM77.6125 63.05L77.6125 53.034374L78.97188 53.034374L84.2375 60.89375L84.2375 53.034374L85.51875 53.034374L85.51875 63.05L84.15938 63.05L78.89375 55.175L78.89375 63.05L77.6125 63.05ZM86.01875 59.425Q86.01875 57.409374 87.14375 56.425Q88.06563 55.628124 89.425 55.628124Q90.90938 55.628124 91.8625 56.6125Q92.81563 57.58125 92.81563 59.315624Q92.81563 60.721874 92.39375 61.534374Q91.97188 62.33125 91.15938 62.784374Q90.3625 63.221874 89.425 63.221874Q87.89375 63.221874 86.95625 62.2375Q86.01875 61.253124 86.01875 59.425ZM87.28438 59.425Q87.28438 60.815624 87.89375 61.51875Q88.50313 62.20625 89.425 62.20625Q90.33125 62.20625 90.94063 61.503124Q91.55 60.8 91.55 59.378124Q91.55 58.034374 90.94063 57.346874Q90.33125 56.64375 89.425 56.64375Q88.50313 56.64375 87.89375 57.33125Q87.28438 58.01875 87.28438 59.425ZM99.19063 63.05L99.19063 62.128124Q98.4875 63.221874 97.15938 63.221874Q96.28438 63.221874 95.55 62.7375Q94.83125 62.253124 94.425 61.39375Q94.03438 60.534374 94.03438 59.425Q94.03438 58.346874 94.39375 57.45625Q94.75313 56.565624 95.47188 56.096874Q96.20625 55.628124 97.09688 55.628124Q97.75313 55.628124 98.26875 55.909374Q98.78438 56.175 99.09688 56.628124L99.09688 53.034374L100.33125 53.034374L100.33125 63.05L99.19063 63.05ZM95.3 59.425Q95.3 60.815624 95.87813 61.51875Q96.47188 62.20625 97.26875 62.20625Q98.08125 62.20625 98.64375 61.55Q99.20625 60.878124 99.20625 59.534374Q99.20625 58.034374 98.62813 57.346874Q98.05 56.64375 97.22188 56.64375Q96.39375 56.64375 95.84688 57.315624Q95.3 57.9875 95.3 59.425ZM107.44063 60.70625L108.72188 60.8625Q108.40938 61.9875 107.59688 62.6125Q106.78438 63.221874 105.51875 63.221874Q103.925 63.221874 102.9875 62.2375Q102.06563 61.253124 102.06563 59.4875Q102.06563 57.64375 103.00313 56.64375Q103.95625 55.628124 105.45625 55.628124Q106.90938 55.628124 107.83125 56.628124Q108.75313 57.6125 108.75313 59.409374Q108.75313 59.51875 108.75313 59.7375L103.33125 59.7375Q103.40938 60.925 104.00313 61.565624Q104.6125 62.20625 105.53438 62.20625Q106.20625 62.20625 106.675 61.846874Q107.15938 61.4875 107.44063 60.70625ZM103.40938 58.721874L107.45625 58.721874Q107.37813 57.8 106.9875 57.346874Q106.40938 56.64375 105.47188 56.64375Q104.6125 56.64375 104.03438 57.20625Q103.47188 57.76875 103.40938 58.721874ZM109.9875 60.878124L111.19063 60.690624Q111.3 61.425 111.76875 61.815624Q112.2375 62.20625 113.08125 62.20625Q113.925 62.20625 114.33125 61.8625Q114.75313 61.51875 114.75313 61.05Q114.75313 60.628124 114.37813 60.39375Q114.12813 60.221874 113.12813 59.971874Q111.76875 59.628124 111.2375 59.378124Q110.72188 59.128124 110.45625 58.690624Q110.19063 58.253124 110.19063 57.721874Q110.19063 57.2375 110.40938 56.83125Q110.62813 56.409374 111.01875 56.128124Q111.3 55.925 111.78438 55.784374Q112.28438 55.628124 112.8625 55.628124Q113.70625 55.628124 114.34688 55.878124Q115.00313 56.1125 115.31563 56.534374Q115.62813 56.95625 115.7375 57.659374L114.53438 57.83125Q114.45625 57.26875 114.05 56.95625Q113.65938 56.64375 112.94063 56.64375Q112.09688 56.64375 111.7375 56.925Q111.37813 57.190624 111.37813 57.58125Q111.37813 57.815624 111.51875 58.003124Q111.675 58.20625 112.00313 58.33125Q112.175 58.39375 113.08125 58.64375Q114.39375 59.003124 114.90938 59.221874Q115.425 59.440624 115.70625 59.8625Q116.00313 60.284374 116.00313 60.909374Q116.00313 61.534374 115.64375 62.08125Q115.3 62.6125 114.6125 62.925Q113.94063 63.221874 113.08125 63.221874Q111.675 63.221874 110.925 62.628124Q110.19063 62.034374 109.9875 60.878124ZM117.8 63.05L117.8 61.64375L119.19063 61.64375L119.19063 63.05Q119.19063 63.815624 118.90938 64.28438Q118.64375 64.76875 118.05 65.03438L117.70625 64.50313Q118.09688 64.33125 118.28438 64.00313Q118.47188 63.675 118.4875 63.05L117.8 63.05ZM131.59688 61.8625L131.59688 63.05L124.97188 63.05Q124.95625 62.6125 125.1125 62.190624Q125.37813 61.51875 125.925 60.8625Q126.4875 60.20625 127.53438 59.346874Q129.175 58.003124 129.7375 57.221874Q130.31563 56.440624 130.31563 55.7375Q130.31563 55.003124 129.78438 54.503124Q129.26875 54.003124 128.44063 54.003124Q127.55 54.003124 127.00313 54.534374Q126.47188 55.065624 126.47188 56.01875L125.20625 55.878124Q125.33125 54.471874 126.175 53.7375Q127.03438 52.9875 128.45625 52.9875Q129.90938 52.9875 130.7375 53.784374Q131.58125 54.58125 131.58125 55.76875Q131.58125 56.378124 131.33125 56.95625Q131.09688 57.534374 130.51875 58.175Q129.95625 58.815624 128.62813 59.940624Q127.51875 60.8625 127.20625 61.20625Q126.89375 61.534374 126.69063 61.8625L131.59688 61.8625ZM137.6125 63.05L137.6125 53.034374L138.97188 53.034374L144.2375 60.89375L144.2375 53.034374L145.51875 53.034374L145.51875 63.05L144.15938 63.05L138.89375 55.175L138.89375 63.05L137.6125 63.05ZM149.4875 63.05L145.6125 53.034374L147.05 53.034374L149.65938 60.315624Q149.97188 61.190624 150.175 61.95625Q150.40938 61.128124 150.72188 60.315624L153.425 53.034374L154.78438 53.034374L150.8625 63.05L149.4875 63.05ZM155.59688 63.05L155.59688 53.034374L157.58125 53.034374L159.95625 60.128124Q160.28438 61.1125 160.44063 61.6125Q160.6125 61.065624 160.97188 60.003124L163.3625 53.034374L165.15938 53.034374L165.15938 63.05L163.87813 63.05L163.87813 54.659374L160.95625 63.05L159.76875 63.05L156.8625 54.51875L156.8625 63.05L155.59688 63.05ZM171.44063 60.70625L172.72188 60.8625Q172.40938 61.9875 171.59688 62.6125Q170.78438 63.221874 169.51875 63.221874Q167.925 63.221874 166.9875 62.2375Q166.06563 61.253124 166.06563 59.4875Q166.06563 57.64375 167.00313 56.64375Q167.95625 55.628124 169.45625 55.628124Q170.90938 55.628124 171.83125 56.628124Q172.75313 57.6125 172.75313 59.409374Q172.75313 59.51875 172.75313 59.7375L167.33125 59.7375Q167.40938 60.925 168.00313 61.565624Q168.6125 62.20625 169.53438 62.20625Q170.20625 62.20625 170.675 61.846874Q171.15938 61.4875 171.44063 60.70625ZM167.40938 58.721874L171.45625 58.721874Q171.37813 57.8 170.9875 57.346874Q170.40938 56.64375 169.47188 56.64375Q168.6125 56.64375 168.03438 57.20625Q167.47188 57.76875 167.40938 58.721874ZM173.55 63.221874L176.45625 52.8625L177.44063 52.8625L174.53438 63.221874L173.55 63.221874ZM178.6125 63.05L178.6125 53.034374L179.97188 53.034374L185.2375 60.89375L185.2375 53.034374L186.51875 53.034374L186.51875 63.05L185.15938 63.05L179.89375 55.175L179.89375 63.05L178.6125 63.05ZM187.01875 59.425Q187.01875 57.409374 188.14375 56.425Q189.06563 55.628124 190.425 55.628124Q191.90938 55.628124 192.8625 56.6125Q193.81563 57.58125 193.81563 59.315624Q193.81563 60.721874 193.39375 61.534374Q192.97188 62.33125 192.15938 62.784374Q191.3625 63.221874 190.425 63.221874Q188.89375 63.221874 187.95625 62.2375Q187.01875 61.253124 187.01875 59.425ZM188.28438 59.425Q188.28438 60.815624 188.89375 61.51875Q189.50313 62.20625 190.425 62.20625Q191.33125 62.20625 191.94063 61.503124Q192.55 60.8 192.55 59.378124Q192.55 58.034374 191.94063 57.346874Q191.33125 56.64375 190.425 56.64375Q189.50313 56.64375 188.89375 57.33125Q188.28438 58.01875 188.28438 59.425ZM200.19063 63.05L200.19063 62.128124Q199.4875 63.221874 198.15938 63.221874Q197.28438 63.221874 196.55 62.7375Q195.83125 62.253124 195.425 61.39375Q195.03438 60.534374 195.03438 59.425Q195.03438 58.346874 195.39375 57.45625Q195.75313 56.565624 196.47188 56.096874Q197.20625 55.628124 198.09688 55.628124Q198.75313 55.628124 199.26875 55.909374Q199.78438 56.175 200.09688 56.628124L200.09688 53.034374L201.33125 53.034374L201.33125 63.05L200.19063 63.05ZM196.3 59.425Q196.3 60.815624 196.87813 61.51875Q197.47188 62.20625 198.26875 62.20625Q199.08125 62.20625 199.64375 61.55Q200.20625 60.878124 200.20625 59.534374Q200.20625 58.034374 199.62813 57.346874Q199.05 56.64375 198.22188 56.64375Q197.39375 56.64375 196.84688 57.315624Q196.3 57.9875 196.3 59.425ZM208.44063 60.70625L209.72188 60.8625Q209.40938 61.9875 208.59688 62.6125Q207.78438 63.221874 206.51875 63.221874Q204.925 63.221874 203.9875 62.2375Q203.06563 61.253124 203.06563 59.4875Q203.06563 57.64375 204.00313 56.64375Q204.95625 55.628124 206.45625 55.628124Q207.90938 55.628124 208.83125 56.628124Q209.75313 57.6125 209.75313 59.409374Q209.75313 59.51875 209.75313 59.7375L204.33125 59.7375Q204.40938 60.925 205.00313 61.565624Q205.6125 62.20625 206.53438 62.20625Q207.20625 62.20625 207.675 61.846874Q208.15938 61.4875 208.44063 60.70625ZM204.40938 58.721874L208.45625 58.721874Q208.37813 57.8 207.9875 57.346874Q207.40938 56.64375 206.47188 56.64375Q205.6125 56.64375 205.03438 57.20625Q204.47188 57.76875 204.40938 58.721874ZM211.8 63.05L211.8 61.64375L213.19063 61.64375L213.19063 63.05Q213.19063 63.815624 212.90938 64.28438Q212.64375 64.76875 212.05 65.03438L211.70625 64.50313Q212.09688 64.33125 212.28438 64.00313Q212.47188 63.675 212.4875 63.05L211.8 63.05ZM219.14375 60.409374L220.3625 60.2375Q220.58125 61.284374 221.08125 61.753124Q221.59688 62.20625 222.33125 62.20625Q223.20625 62.20625 223.8 61.6125Q224.39375 61.003124 224.39375 60.1125Q224.39375 59.26875 223.83125 58.721874Q223.28438 58.175 222.44063 58.175Q222.08125 58.175 221.56563 58.3L221.70625 57.221874Q221.83125 57.2375 221.89375 57.2375Q222.69063 57.2375 223.31563 56.83125Q223.94063 56.425 223.94063 55.565624Q223.94063 54.89375 223.4875 54.45625Q223.03438 54.003124 222.3 54.003124Q221.58125 54.003124 221.09688 54.45625Q220.62813 54.89375 220.4875 55.8L219.26875 55.58125Q219.4875 54.346874 220.28438 53.675Q221.08125 52.9875 222.26875 52.9875Q223.09688 52.9875 223.78438 53.346874Q224.47188 53.690624 224.83125 54.3Q225.20625 54.909374 225.20625 55.596874Q225.20625 56.2375 224.8625 56.76875Q224.51875 57.3 223.83125 57.628124Q224.72188 57.83125 225.20625 58.471874Q225.70625 59.1125 225.70625 60.096874Q225.70625 61.409374 224.7375 62.315624Q223.78438 63.221874 222.33125 63.221874Q221.00313 63.221874 220.12813 62.440624Q219.26875 61.659374 219.14375 60.409374ZM226.6125 63.05L230.4875 57.83125L227.06563 53.034374L228.64375 53.034374L230.47188 55.596874Q231.03438 56.39375 231.26875 56.83125Q231.6125 56.284374 232.06563 55.690624L234.08125 53.034374L235.51875 53.034374L232.00313 57.753124L235.8 63.05L234.15938 63.05L231.64375 59.471874Q231.425 59.159374 231.20625 58.8Q230.8625 59.346874 230.72188 59.55L228.20625 63.05L226.6125 63.05ZM239.64375 63.05L239.64375 53.034374L244.09688 53.034374Q245.44063 53.034374 246.12813 53.3Q246.83125 53.565624 247.2375 54.253124Q247.65938 54.940624 247.65938 55.76875Q247.65938 56.83125 246.97188 57.565624Q246.28438 58.284374 244.84688 58.4875Q245.3625 58.7375 245.64375 58.9875Q246.22188 59.51875 246.7375 60.315624L248.4875 63.05L246.81563 63.05L245.4875 60.971874Q244.90938 60.065624 244.53438 59.596874Q244.15938 59.1125 243.8625 58.925Q243.56563 58.721874 243.25313 58.64375Q243.03438 58.596874 242.51875 58.596874L240.97188 58.596874L240.97188 63.05L239.64375 63.05ZM240.97188 57.45625L243.83125 57.45625Q244.7375 57.45625 245.25313 57.26875Q245.76875 57.08125 246.03438 56.675Q246.3 56.253124 246.3 55.76875Q246.3 55.05 245.78438 54.596874Q245.26875 54.128124 244.14375 54.128124L240.97188 54.128124L240.97188 57.45625ZM254.44063 60.70625L255.72188 60.8625Q255.40938 61.9875 254.59688 62.6125Q253.78438 63.221874 252.51875 63.221874Q250.925 63.221874 249.9875 62.2375Q249.06563 61.253124 249.06563 59.4875Q249.06563 57.64375 250.00313 56.64375Q250.95625 55.628124 252.45625 55.628124Q253.90938 55.628124 254.83125 56.628124Q255.75313 57.6125 255.75313 59.409374Q255.75313 59.51875 255.75313 59.7375L250.33125 59.7375Q250.40938 60.925 251.00313 61.565624Q251.6125 62.20625 252.53438 62.20625Q253.20625 62.20625 253.675 61.846874Q254.15938 61.4875 254.44063 60.70625ZM250.40938 58.721874L254.45625 58.721874Q254.37813 57.8 253.9875 57.346874Q253.40938 56.64375 252.47188 56.64375Q251.6125 56.64375 251.03438 57.20625Q250.47188 57.76875 250.40938 58.721874ZM257.47186 65.83125L257.47186 55.784374L258.59686 55.784374L258.59686 56.7375Q258.9875 56.175 259.4875 55.909374Q259.9875 55.628124 260.70624 55.628124Q261.6281 55.628124 262.33124 56.1125Q263.05 56.58125 263.40936 57.45625Q263.76874 58.33125 263.76874 59.3625Q263.76874 60.471874 263.3625 61.378124Q262.97186 62.26875 262.20624 62.753124Q261.45624 63.221874 260.6125 63.221874Q260.0031 63.221874 259.5031 62.95625Q259.01874 62.690624 258.70624 62.3L258.70624 65.83125L257.47186 65.83125ZM258.58124 59.45625Q258.58124 60.8625 259.14374 61.534374Q259.72186 62.20625 260.53436 62.20625Q261.34686 62.20625 261.925 61.51875Q262.51874 60.815624 262.51874 59.3625Q262.51874 57.971874 261.9406 57.284374Q261.3781 56.596874 260.58124 56.596874Q259.8 56.596874 259.1906 57.33125Q258.58124 58.065624 258.58124 59.45625ZM265.4406 63.05L265.4406 53.034374L266.675 53.034374L266.675 63.05L265.4406 63.05ZM268.4875 54.440624L268.4875 53.034374L269.70624 53.034374L269.70624 54.440624L268.4875 54.440624ZM268.4875 63.05L268.4875 55.784374L269.70624 55.784374L269.70624 63.05L268.4875 63.05ZM276.20624 60.39375L277.425 60.55Q277.22186 61.8 276.39374 62.51875Q275.58124 63.221874 274.39374 63.221874Q272.90936 63.221874 272.0031 62.253124Q271.09686 61.26875 271.09686 59.440624Q271.09686 58.26875 271.4875 57.39375Q271.8781 56.503124 272.675 56.065624Q273.47186 55.628124 274.40936 55.628124Q275.58124 55.628124 276.33124 56.221874Q277.09686 56.815624 277.3 57.925L276.1125 58.1125Q275.9406 57.378124 275.5031 57.01875Q275.0656 56.64375 274.45624 56.64375Q273.51874 56.64375 272.9406 57.315624Q272.3625 57.971874 272.3625 59.409374Q272.3625 60.878124 272.925 61.55Q273.4875 62.20625 274.3781 62.20625Q275.1125 62.20625 275.59686 61.76875Q276.08124 61.315624 276.20624 60.39375ZM283.20624 62.159374Q282.53436 62.7375 281.89374 62.9875Q281.26874 63.221874 280.53436 63.221874Q279.34686 63.221874 278.6906 62.64375Q278.05 62.05 278.05 61.128124Q278.05 60.596874 278.28436 60.159374Q278.53436 59.721874 278.925 59.45625Q279.33124 59.190624 279.8156 59.05Q280.175 58.95625 280.90936 58.8625Q282.40936 58.690624 283.1125 58.440624Q283.1125 58.190624 283.1125 58.128124Q283.1125 57.3625 282.76874 57.065624Q282.3 56.64375 281.3625 56.64375Q280.5031 56.64375 280.08124 56.95625Q279.675 57.253124 279.47186 58.01875L278.26874 57.8625Q278.425 57.08125 278.8 56.6125Q279.1906 56.14375 279.89374 55.89375Q280.6125 55.628124 281.55 55.628124Q282.47186 55.628124 283.05 55.846874Q283.6281 56.065624 283.89374 56.39375Q284.175 56.721874 284.28436 57.2375Q284.34686 57.55 284.34686 58.3625L284.34686 60.003124Q284.34686 61.721874 284.425 62.175Q284.5031 62.628124 284.7375 63.05L283.45624 63.05Q283.26874 62.659374 283.20624 62.159374ZM283.1125 59.409374Q282.4406 59.675 281.09686 59.878124Q280.34686 59.9875 280.01874 60.128124Q279.70624 60.253124 279.53436 60.51875Q279.3625 60.784374 279.3625 61.096874Q279.3625 61.596874 279.7375 61.925Q280.1125 62.253124 280.83124 62.253124Q281.55 62.253124 282.09686 61.940624Q282.64374 61.628124 282.90936 61.08125Q283.1125 60.675 283.1125 59.8625L283.1125 59.409374ZM289.15936 61.95625L289.33124 63.034374Q288.8156 63.14375 288.40936 63.14375Q287.7375 63.14375 287.3625 62.940624Q287.0031 62.721874 286.84686 62.378124Q286.70624 62.034374 286.70624 60.925L286.70624 56.753124L285.8 56.753124L285.8 55.784374L286.70624 55.784374L286.70624 53.9875L287.925 53.253124L287.925 55.784374L289.15936 55.784374L289.15936 56.753124L287.925 56.753124L287.925 60.9875Q287.925 61.51875 287.9875 61.675Q288.05 61.815624 288.1906 61.909374Q288.34686 62.003124 288.6125 62.003124Q288.83124 62.003124 289.15936 61.95625ZM290.4875 54.440624L290.4875 53.034374L291.70624 53.034374L291.70624 54.440624L290.4875 54.440624ZM290.4875 63.05L290.4875 55.784374L291.70624 55.784374L291.70624 63.05L290.4875 63.05ZM293.01874 59.425Q293.01874 57.409374 294.14374 56.425Q295.0656 55.628124 296.425 55.628124Q297.90936 55.628124 298.8625 56.6125Q299.8156 57.58125 299.8156 59.315624Q299.8156 60.721874 299.39374 61.534374Q298.97186 62.33125 298.15936 62.784374Q297.3625 63.221874 296.425 63.221874Q294.89374 63.221874 293.95624 62.2375Q293.01874 61.253124 293.01874 59.425ZM294.28436 59.425Q294.28436 60.815624 294.89374 61.51875Q295.5031 62.20625 296.425 62.20625Q297.33124 62.20625 297.9406 61.503124Q298.55 60.8 298.55 59.378124Q298.55 58.034374 297.9406 57.346874Q297.33124 56.64375 296.425 56.64375Q295.5031 56.64375 294.89374 57.33125Q294.28436 58.01875 294.28436 59.425ZM301.47186 63.05L301.47186 55.784374L302.58124 55.784374L302.58124 56.815624Q303.3781 55.628124 304.89374 55.628124Q305.55 55.628124 306.09686 55.8625Q306.64374 56.096874 306.90936 56.4875Q307.1906 56.8625 307.3 57.39375Q307.3781 57.7375 307.3781 58.58125L307.3781 63.05L306.14374 63.05L306.14374 58.628124Q306.14374 57.878124 306.0031 57.51875Q305.8625 57.14375 305.4875 56.925Q305.1281 56.690624 304.6281 56.690624Q303.84686 56.690624 303.26874 57.190624Q302.70624 57.690624 302.70624 59.08125L302.70624 63.05L301.47186 63.05ZM309.8 63.05L309.8 61.64375L311.1906 61.64375L311.1906 63.05Q311.1906 63.815624 310.90936 64.28438Q310.64374 64.76875 310.05 65.03438L309.70624 64.50313Q310.09686 64.33125 310.28436 64.00313Q310.47186 63.675 310.4875 63.05L309.8 63.05ZM321.08124 63.05L321.08124 60.64375L316.72186 60.64375L316.72186 59.51875L321.3 53.034374L322.3 53.034374L322.3 59.51875L323.65936 59.51875L323.65936 60.64375L322.3 60.64375L322.3 63.05L321.08124 63.05ZM321.08124 59.51875L321.08124 55.003124L317.9406 59.51875L321.08124 59.51875ZM325.1281 58.1125Q325.1281 56.33125 325.4875 55.253124Q325.8625 54.159374 326.58124 53.58125Q327.3 52.9875 328.39374 52.9875Q329.20624 52.9875 329.8156 53.315624Q330.425 53.64375 330.8156 54.253124Q331.22186 54.8625 331.4406 55.7375Q331.65936 56.6125 331.65936 58.1125Q331.65936 59.878124 331.3 60.95625Q330.9406 62.034374 330.22186 62.628124Q329.5031 63.221874 328.39374 63.221874Q326.95624 63.221874 326.1281 62.175Q325.1281 60.925 325.1281 58.1125ZM326.39374 58.1125Q326.39374 60.58125 326.97186 61.39375Q327.55 62.20625 328.39374 62.20625Q329.2531 62.20625 329.83124 61.39375Q330.40936 60.565624 330.40936 58.1125Q330.40936 55.628124 329.83124 54.815624Q329.2531 54.003124 328.3781 54.003124Q327.53436 54.003124 327.03436 54.721874Q326.39374 55.64375 326.39374 58.1125ZM333.3156 60.7375L334.5031 60.628124Q334.64374 61.45625 335.0656 61.83125Q335.5031 62.20625 336.15936 62.20625Q336.72186 62.20625 337.14374 61.95625Q337.58124 61.690624 337.84686 61.253124Q338.1281 60.815624 338.3156 60.08125Q338.5031 59.346874 338.5031 58.58125Q338.5031 58.503124 338.4875 58.33125Q338.1281 58.925 337.4875 59.3Q336.84686 59.659374 336.09686 59.659374Q334.84686 59.659374 333.9875 58.753124Q333.1281 57.846874 333.1281 56.378124Q333.1281 54.846874 334.01874 53.925Q334.925 52.9875 336.28436 52.9875Q337.2531 52.9875 338.0656 53.51875Q338.8781 54.034374 339.3 55.01875Q339.72186 55.9875 339.72186 57.83125Q339.72186 59.753124 339.3 60.89375Q338.89374 62.034374 338.0656 62.628124Q337.2375 63.221874 336.1281 63.221874Q334.95624 63.221874 334.20624 62.565624Q333.47186 61.909374 333.3156 60.7375ZM338.34686 56.315624Q338.34686 55.253124 337.78436 54.628124Q337.22186 54.003124 336.4406 54.003124Q335.6125 54.003124 335.0031 54.675Q334.39374 55.346874 334.39374 56.409374Q334.39374 57.3625 334.97186 57.971874Q335.55 58.565624 336.39374 58.565624Q337.2531 58.565624 337.8 57.971874Q338.34686 57.3625 338.34686 56.315624ZM347.51874 55.4875L346.3 55.58125Q346.1281 54.846874 345.83124 54.51875Q345.33124 54.003124 344.59686 54.003124Q344.0031 54.003124 343.5656 54.33125Q342.9875 54.753124 342.64374 55.565624Q342.3156 56.378124 342.3 57.878124Q342.7375 57.20625 343.3781 56.878124Q344.03436 56.55 344.7375 56.55Q345.97186 56.55 346.83124 57.45625Q347.6906 58.3625 347.6906 59.8Q347.6906 60.7375 347.28436 61.55Q346.8781 62.3625 346.15936 62.8Q345.45624 63.221874 344.55 63.221874Q343.01874 63.221874 342.05 62.096874Q341.08124 60.95625 341.08124 58.3625Q341.08124 55.45625 342.14374 54.128124Q343.08124 52.9875 344.675 52.9875Q345.8625 52.9875 346.6125 53.659374Q347.3625 54.315624 347.51874 55.4875ZM342.4875 59.8Q342.4875 60.440624 342.7531 61.01875Q343.03436 61.596874 343.51874 61.909374Q344.0031 62.20625 344.53436 62.20625Q345.3156 62.20625 345.8781 61.58125Q346.4406 60.95625 346.4406 59.878124Q346.4406 58.83125 345.8781 58.2375Q345.33124 57.628124 344.4875 57.628124Q343.65936 57.628124 343.0656 58.2375Q342.4875 58.83125 342.4875 59.8ZM353.6281 63.05L353.6281 53.034374L357.40936 53.034374Q358.40936 53.034374 358.9406 53.128124Q359.675 53.253124 360.175 53.596874Q360.675 53.940624 360.97186 54.565624Q361.28436 55.175 361.28436 55.925Q361.28436 57.20625 360.47186 58.096874Q359.65936 58.971874 357.53436 58.971874L354.95624 58.971874L354.95624 63.05L353.6281 63.05ZM354.95624 57.8L357.55 57.8Q358.83124 57.8 359.3625 57.315624Q359.90936 56.83125 359.90936 55.971874Q359.90936 55.33125 359.59686 54.89375Q359.28436 54.440624 358.7531 54.3Q358.425 54.20625 357.51874 54.20625L354.95624 54.20625L354.95624 57.8ZM367.3156 59.1125L367.3156 57.940624L371.5656 57.940624L371.5656 61.659374Q370.58124 62.440624 369.53436 62.83125Q368.5031 63.221874 367.40936 63.221874Q365.9406 63.221874 364.72186 62.596874Q363.51874 61.95625 362.90936 60.76875Q362.3 59.565624 362.3 58.08125Q362.3 56.628124 362.90936 55.3625Q363.51874 54.08125 364.65936 53.471874Q365.8156 52.8625 367.3156 52.8625Q368.39374 52.8625 369.26874 53.221874Q370.15936 53.565624 370.65936 54.190624Q371.15936 54.815624 371.40936 55.83125L370.22186 56.159374Q369.9875 55.39375 369.64374 54.95625Q369.3156 54.51875 368.6906 54.253124Q368.08124 53.9875 367.3156 53.9875Q366.40936 53.9875 365.7375 54.26875Q365.08124 54.55 364.675 55.003124Q364.26874 55.440624 364.05 55.9875Q363.65936 56.925 363.65936 58.003124Q363.65936 59.346874 364.1125 60.253124Q364.58124 61.14375 365.45624 61.58125Q366.34686 62.01875 367.34686 62.01875Q368.20624 62.01875 369.01874 61.690624Q369.84686 61.3625 370.26874 60.9875L370.26874 59.1125L367.3156 59.1125ZM372.9875 60.878124L374.1906 60.690624Q374.3 61.425 374.76874 61.815624Q375.2375 62.20625 376.08124 62.20625Q376.925 62.20625 377.33124 61.8625Q377.7531 61.51875 377.7531 61.05Q377.7531 60.628124 377.3781 60.39375Q377.1281 60.221874 376.1281 59.971874Q374.76874 59.628124 374.2375 59.378124Q373.72186 59.128124 373.45624 58.690624Q373.1906 58.253124 373.1906 57.721874Q373.1906 57.2375 373.40936 56.83125Q373.6281 56.409374 374.01874 56.128124Q374.3 55.925 374.78436 55.784374Q375.28436 55.628124 375.8625 55.628124Q376.70624 55.628124 377.34686 55.878124Q378.0031 56.1125 378.3156 56.534374Q378.6281 56.95625 378.7375 57.659374L377.53436 57.83125Q377.45624 57.26875 377.05 56.95625Q376.65936 56.64375 375.9406 56.64375Q375.09686 56.64375 374.7375 56.925Q374.3781 57.190624 374.3781 57.58125Q374.3781 57.815624 374.51874 58.003124Q374.675 58.20625 375.0031 58.33125Q375.175 58.39375 376.08124 58.64375Q377.39374 59.003124 377.90936 59.221874Q378.425 59.440624 378.70624 59.8625Q379.0031 60.284374 379.0031 60.909374Q379.0031 61.534374 378.64374 62.08125Q378.3 62.6125 377.6125 62.925Q376.9406 63.221874 376.08124 63.221874Q374.675 63.221874 373.925 62.628124Q373.1906 62.034374 372.9875 60.878124Z" fill-rule="nonzero"/><path fill="#ffffff" d="M20.190624 37.55L20.190624 23.2375L29.846874 23.2375L29.846874 24.925L22.08125 24.925L22.08125 29.3625L28.8 29.3625L28.8 31.05L22.08125 31.05L22.08125 37.55L20.190624 37.55ZM32.409374 37.55L32.409374 23.2375L34.315624 23.2375L34.315624 37.55L32.409374 37.55ZM37.51875 30.58125Q37.51875 27.01875 39.425 25.003124Q41.346874 22.971874 44.378124 22.971874Q46.3625 22.971874 47.940624 23.925Q49.534374 24.878124 50.3625 26.58125Q51.20625 28.26875 51.20625 30.409374Q51.20625 32.58125 50.33125 34.3Q49.45625 36.01875 47.83125 36.909374Q46.221874 37.8 44.3625 37.8Q42.346874 37.8 40.753124 36.83125Q39.159374 35.846874 38.33125 34.159374Q37.51875 32.45625 37.51875 30.58125ZM39.471874 30.6125Q39.471874 33.190624 40.8625 34.690624Q42.253124 36.175 44.346874 36.175Q46.4875 36.175 47.8625 34.675Q49.253124 33.159374 49.253124 30.39375Q49.253124 28.659374 48.659374 27.3625Q48.08125 26.05 46.940624 25.33125Q45.8 24.6125 44.378124 24.6125Q42.378124 24.6125 40.925 26.003124Q39.471874 27.378124 39.471874 30.6125ZM65.01875 37.55L65.01875 34.128124L58.8 34.128124L58.8 32.503124L65.33125 23.2375L66.76875 23.2375L66.76875 32.503124L68.70625 32.503124L68.70625 34.128124L66.76875 34.128124L66.76875 37.55L65.01875 37.55ZM65.01875 32.503124L65.01875 26.05L60.534374 32.503124L65.01875 32.503124ZM71.01875 37.55L71.01875 23.2375L72.90938 23.2375L72.90938 30.33125L80.01875 23.2375L82.58125 23.2375L76.58125 29.034374L82.84688 37.55L80.34688 37.55L75.25313 30.3L72.90938 32.58125L72.90938 37.55L71.01875 37.55ZM84.01875 37.55L84.01875 23.2375L89.39375 23.2375Q91.03438 23.2375 92.01875 23.675Q93.00313 24.096874 93.56563 25.003124Q94.12813 25.909374 94.12813 26.89375Q94.12813 27.815624 93.62813 28.628124Q93.14375 29.440624 92.12813 29.925Q93.425 30.315624 94.12813 31.2375Q94.83125 32.14375 94.83125 33.39375Q94.83125 34.409374 94.39375 35.26875Q93.97188 36.128124 93.34688 36.596874Q92.72188 37.065624 91.78438 37.315624Q90.84688 37.55 89.47188 37.55L84.01875 37.55ZM85.90938 29.253124L89.00313 29.253124Q90.26875 29.253124 90.81563 29.08125Q91.53438 28.8625 91.89375 28.378124Q92.26875 27.878124 92.26875 27.1125Q92.26875 26.409374 91.925 25.8625Q91.58125 25.315624 90.94063 25.128124Q90.31563 24.925 88.76875 24.925L85.90938 24.925L85.90938 29.253124ZM85.90938 35.8625L89.47188 35.8625Q90.39375 35.8625 90.76875 35.784374Q91.425 35.675 91.8625 35.409374Q92.3 35.128124 92.58125 34.6125Q92.8625 34.08125 92.8625 33.39375Q92.8625 32.596874 92.45625 32.003124Q92.05 31.409374 91.31563 31.175Q90.58125 30.940624 89.22188 30.940624L85.90938 30.940624L85.90938 35.8625ZM102.50313 25.1125L102.50313 23.425L111.76875 23.425L111.76875 24.784374Q110.39375 26.2375 109.05 28.659374Q107.70625 31.065624 106.9875 33.6125Q106.45625 35.409374 106.3 37.55L104.50313 37.55Q104.53438 35.8625 105.15938 33.471874Q105.8 31.08125 106.9875 28.8625Q108.175 26.628124 109.50313 25.1125L102.50313 25.1125ZM113.37813 33.8L115.22188 33.64375Q115.425 34.9875 116.175 35.675Q116.925 36.346874 117.9875 36.346874Q119.25313 36.346874 120.12813 35.39375Q121.00313 34.440624 121.00313 32.846874Q121.00313 31.346874 120.15938 30.4875Q119.31563 29.6125 117.95625 29.6125Q117.09688 29.6125 116.40938 30.003124Q115.7375 30.378124 115.34688 31.003124L113.69063 30.784374L115.08125 23.425L122.20625 23.425L122.20625 25.1125L116.4875 25.1125L115.72188 28.95625Q117.00313 28.05 118.425 28.05Q120.3 28.05 121.58125 29.3625Q122.87813 30.659374 122.87813 32.690624Q122.87813 34.64375 121.7375 36.05Q120.3625 37.8 117.9875 37.8Q116.03438 37.8 114.78438 36.70625Q113.55 35.6125 113.37813 33.8ZM124.70625 26.675Q124.70625 25.14375 125.47188 24.065624Q126.25313 22.9875 127.72188 22.9875Q129.06563 22.9875 129.94063 23.95625Q130.83125 24.909374 130.83125 26.784374Q130.83125 28.596874 129.94063 29.58125Q129.05 30.55 127.7375 30.55Q126.44063 30.55 125.56563 29.596874Q124.70625 28.628124 124.70625 26.675ZM127.76875 24.20625Q127.1125 24.20625 126.675 24.76875Q126.25313 25.33125 126.25313 26.846874Q126.25313 28.221874 126.69063 28.784374Q127.12813 29.346874 127.76875 29.346874Q128.44063 29.346874 128.8625 28.784374Q129.3 28.20625 129.3 26.70625Q129.3 25.315624 128.8625 24.76875Q128.425 24.20625 127.76875 24.20625ZM127.78438 38.08125L135.6125 22.9875L137.03438 22.9875L129.2375 38.08125L127.78438 38.08125ZM133.97188 34.190624Q133.97188 32.64375 134.7375 31.58125Q135.51875 30.503124 136.9875 30.503124Q138.33125 30.503124 139.20625 31.471874Q140.09688 32.425 140.09688 34.3Q140.09688 36.1125 139.20625 37.096874Q138.31563 38.08125 137.00313 38.08125Q135.70625 38.08125 134.83125 37.1125Q133.97188 36.128124 133.97188 34.190624ZM137.03438 31.721874Q136.37813 31.721874 135.94063 32.284374Q135.50313 32.846874 135.50313 34.3625Q135.50313 35.7375 135.94063 36.3Q136.37813 36.8625 137.03438 36.8625Q137.70625 36.8625 138.12813 36.3Q138.56563 35.7375 138.56563 34.221874Q138.56563 32.846874 138.12813 32.284374Q137.69063 31.721874 137.03438 31.721874ZM149.03438 37.55L149.03438 23.2375L151.89375 23.2375L155.26875 33.3625Q155.7375 34.784374 155.95625 35.4875Q156.20625 34.70625 156.72188 33.190624L160.14375 23.2375L162.69063 23.2375L162.69063 37.55L160.87813 37.55L160.87813 25.565624L156.70625 37.55L155.00313 37.55L150.8625 25.3625L150.8625 37.55L149.03438 37.55ZM165.87813 25.253124L165.87813 23.2375L167.64375 23.2375L167.64375 25.253124L165.87813 25.253124ZM165.87813 37.55L165.87813 27.175L167.64375 27.175L167.64375 37.55L165.87813 37.55ZM168.69063 37.55L172.4875 32.159374L168.9875 27.175L171.175 27.175L172.76875 29.6125Q173.22188 30.3 173.4875 30.76875Q173.925 30.128124 174.28438 29.628124L176.03438 27.175L178.12813 27.175L174.55 32.065624L178.40938 37.55L176.25313 37.55L174.1125 34.33125L173.55 33.45625L170.83125 37.55L168.69063 37.55ZM185.97188 34.20625L187.78438 34.440624Q187.3625 36.01875 186.19063 36.909374Q185.03438 37.784374 183.22188 37.784374Q180.95625 37.784374 179.6125 36.39375Q178.28438 34.9875 178.28438 32.45625Q178.28438 29.83125 179.62813 28.39375Q180.97188 26.940624 183.12813 26.940624Q185.20625 26.940624 186.51875 28.3625Q187.84688 29.76875 187.84688 32.346874Q187.84688 32.503124 187.83125 32.815624L180.09688 32.815624Q180.19063 34.51875 181.06563 35.425Q181.94063 36.33125 183.2375 36.33125Q184.20625 36.33125 184.87813 35.83125Q185.56563 35.315624 185.97188 34.20625ZM180.19063 31.3625L185.9875 31.3625Q185.87813 30.065624 185.33125 29.409374Q184.4875 28.39375 183.14375 28.39375Q181.94063 28.39375 181.1125 29.20625Q180.28438 30.003124 180.19063 31.3625ZM196.59688 37.55L196.59688 36.2375Q195.6125 37.784374 193.69063 37.784374Q192.45625 37.784374 191.40938 37.096874Q190.37813 36.409374 189.8 35.190624Q189.2375 33.971874 189.2375 32.378124Q189.2375 30.815624 189.75313 29.55Q190.26875 28.284374 191.3 27.6125Q192.34688 26.940624 193.6125 26.940624Q194.55 26.940624 195.28438 27.346874Q196.01875 27.7375 196.4875 28.3625L196.4875 23.2375L198.22188 23.2375L198.22188 37.55L196.59688 37.55ZM191.03438 32.378124Q191.03438 34.3625 191.87813 35.346874Q192.72188 36.33125 193.8625 36.33125Q195.01875 36.33125 195.81563 35.39375Q196.62813 34.45625 196.62813 32.51875Q196.62813 30.39375 195.8 29.39375Q194.9875 28.39375 193.78438 28.39375Q192.6125 28.39375 191.81563 29.3625Q191.03438 30.315624 191.03438 32.378124ZM207.12813 37.55L207.12813 23.2375L213.47188 23.2375Q215.37813 23.2375 216.37813 23.628124Q217.37813 24.003124 217.97188 24.9875Q218.56563 25.95625 218.56563 27.14375Q218.56563 28.659374 217.58125 29.70625Q216.59688 30.753124 214.53438 31.034374Q215.28438 31.39375 215.675 31.753124Q216.50313 32.503124 217.25313 33.659374L219.7375 37.55L217.3625 37.55L215.45625 34.565624Q214.62813 33.284374 214.09688 32.596874Q213.56563 31.909374 213.12813 31.64375Q212.70625 31.3625 212.26875 31.253124Q211.94063 31.190624 211.22188 31.190624L209.01875 31.190624L209.01875 37.55L207.12813 37.55ZM209.01875 29.55L213.09688 29.55Q214.39375 29.55 215.1125 29.284374Q215.84688 29.01875 216.22188 28.425Q216.6125 27.83125 216.6125 27.14375Q216.6125 26.128124 215.87813 25.471874Q215.14375 24.815624 213.55 24.815624L209.01875 24.815624L209.01875 29.55ZM227.64375 36.26875Q226.65938 37.096874 225.75313 37.440624Q224.84688 37.784374 223.81563 37.784374Q222.1125 37.784374 221.19063 36.95625Q220.26875 36.1125 220.26875 34.815624Q220.26875 34.05 220.6125 33.425Q220.97188 32.8 221.53438 32.425Q222.09688 32.034374 222.8 31.83125Q223.31563 31.70625 224.3625 31.565624Q226.4875 31.315624 227.4875 30.971874Q227.50313 30.6125 227.50313 30.503124Q227.50313 29.440624 227.00313 28.9875Q226.33125 28.39375 225.00313 28.39375Q223.75313 28.39375 223.15938 28.83125Q222.58125 29.26875 222.3 30.378124L220.58125 30.14375Q220.81563 29.034374 221.34688 28.3625Q221.87813 27.675 222.89375 27.315624Q223.90938 26.940624 225.25313 26.940624Q226.58125 26.940624 227.40938 27.253124Q228.2375 27.565624 228.62813 28.05Q229.01875 28.51875 229.175 29.2375Q229.26875 29.690624 229.26875 30.8625L229.26875 33.20625Q229.26875 35.659374 229.37813 36.315624Q229.4875 36.95625 229.83125 37.55L227.9875 37.55Q227.72188 37.003124 227.64375 36.26875ZM227.4875 32.346874Q226.53438 32.7375 224.6125 33.003124Q223.53438 33.159374 223.08125 33.3625Q222.64375 33.55 222.39375 33.925Q222.14375 34.3 222.14375 34.76875Q222.14375 35.471874 222.675 35.940624Q223.20625 36.409374 224.2375 36.409374Q225.25313 36.409374 226.03438 35.971874Q226.83125 35.51875 227.20625 34.753124Q227.4875 34.14375 227.4875 32.9875L227.4875 32.346874ZM231.8625 37.55L231.8625 27.175L233.45625 27.175L233.45625 28.659374Q234.59688 26.940624 236.75313 26.940624Q237.69063 26.940624 238.47188 27.284374Q239.26875 27.6125 239.65938 28.159374Q240.05 28.70625 240.20625 29.45625Q240.3 29.95625 240.3 31.175L240.3 37.55L238.53438 37.55L238.53438 31.2375Q238.53438 30.159374 238.33125 29.628124Q238.12813 29.096874 237.59688 28.784374Q237.08125 28.471874 236.37813 28.471874Q235.25313 28.471874 234.44063 29.190624Q233.62813 29.89375 233.62813 31.878124L233.62813 37.55L231.8625 37.55ZM248.59688 37.55L248.59688 36.2375Q247.6125 37.784374 245.69063 37.784374Q244.45625 37.784374 243.40938 37.096874Q242.37813 36.409374 241.8 35.190624Q241.2375 33.971874 241.2375 32.378124Q241.2375 30.815624 241.75313 29.55Q242.26875 28.284374 243.3 27.6125Q244.34688 26.940624 245.6125 26.940624Q246.55 26.940624 247.28438 27.346874Q248.01875 27.7375 248.4875 28.3625L248.4875 23.2375L250.22188 23.2375L250.22188 37.55L248.59688 37.55ZM243.03438 32.378124Q243.03438 34.3625 243.87813 35.346874Q244.72188 36.33125 245.8625 36.33125Q247.01875 36.33125 247.81563 35.39375Q248.62813 34.45625 248.62813 32.51875Q248.62813 30.39375 247.8 29.39375Q246.9875 28.39375 245.78438 28.39375Q244.6125 28.39375 243.81563 29.3625Q243.03438 30.315624 243.03438 32.378124ZM253.12813 37.55L253.12813 23.2375L259.47186 23.2375Q261.3781 23.2375 262.3781 23.628124Q263.3781 24.003124 263.97186 24.9875Q264.5656 25.95625 264.5656 27.14375Q264.5656 28.659374 263.58124 29.70625Q262.59686 30.753124 260.53436 31.034374Q261.28436 31.39375 261.675 31.753124Q262.5031 32.503124 263.2531 33.659374L265.7375 37.55L263.3625 37.55L261.45624 34.565624Q260.6281 33.284374 260.09686 32.596874Q259.5656 31.909374 259.1281 31.64375Q258.70624 31.3625 258.26874 31.253124Q257.9406 31.190624 257.22186 31.190624L255.01875 31.190624L255.01875 37.55L253.12813 37.55ZM255.01875 29.55L259.09686 29.55Q260.39374 29.55 261.1125 29.284374Q261.84686 29.01875 262.22186 28.425Q262.6125 27.83125 262.6125 27.14375Q262.6125 26.128124 261.8781 25.471874Q261.14374 24.815624 259.55 24.815624L255.01875 24.815624L255.01875 29.55ZM269.59686 37.55L265.8 23.2375L267.7375 23.2375L269.90936 32.6125Q270.26874 34.096874 270.51874 35.55Q271.0656 33.253124 271.15936 32.89375L273.89374 23.2375L276.175 23.2375L278.22186 30.471874Q279.0031 33.175 279.34686 35.55Q279.6125 34.190624 280.05 32.425L282.3 23.2375L284.20624 23.2375L280.28436 37.55L278.45624 37.55L275.4406 26.64375Q275.05 25.26875 274.9875 24.95625Q274.7531 25.940624 274.5656 26.64375L271.53436 37.55L269.59686 37.55ZM302.3156 32.534374L304.20624 33.003124Q303.6125 35.346874 302.0656 36.58125Q300.51874 37.8 298.26874 37.8Q295.95624 37.8 294.5031 36.8625Q293.0656 35.909374 292.3 34.128124Q291.55 32.33125 291.55 30.284374Q291.55 28.05 292.39374 26.39375Q293.2531 24.721874 294.83124 23.8625Q296.40936 22.9875 298.3 22.9875Q300.45624 22.9875 301.90936 24.08125Q303.3781 25.175 303.95624 27.159374L302.09686 27.596874Q301.59686 26.034374 300.64374 25.33125Q299.70624 24.6125 298.26874 24.6125Q296.6125 24.6125 295.5031 25.409374Q294.39374 26.190624 293.9406 27.534374Q293.5031 28.8625 293.5031 30.26875Q293.5031 32.096874 294.03436 33.471874Q294.5656 34.83125 295.6906 35.503124Q296.8156 36.175 298.1125 36.175Q299.70624 36.175 300.8156 35.253124Q301.925 34.33125 302.3156 32.534374ZM304.55 37.8L308.70624 22.9875L310.1125 22.9875L305.97186 37.8L304.55 37.8ZM311.51874 30.58125Q311.51874 27.01875 313.425 25.003124Q315.34686 22.971874 318.3781 22.971874Q320.3625 22.971874 321.9406 23.925Q323.53436 24.878124 324.3625 26.58125Q325.20624 28.26875 325.20624 30.409374Q325.20624 32.58125 324.33124 34.3Q323.45624 36.01875 321.83124 36.909374Q320.22186 37.8 318.3625 37.8Q316.34686 37.8 314.7531 36.83125Q313.15936 35.846874 312.33124 34.159374Q311.51874 32.45625 311.51874 30.58125ZM313.47186 30.6125Q313.47186 33.190624 314.8625 34.690624Q316.2531 36.175 318.34686 36.175Q320.4875 36.175 321.8625 34.675Q323.2531 33.159374 323.2531 30.39375Q323.2531 28.659374 322.65936 27.3625Q322.08124 26.05 320.9406 25.33125Q319.8 24.6125 318.3781 24.6125Q316.3781 24.6125 314.925 26.003124Q313.47186 27.378124 313.47186 30.6125ZM328.09686 37.55L328.09686 23.2375L333.4875 23.2375Q334.925 23.2375 335.675 23.3625Q336.72186 23.55 337.4406 24.05Q338.15936 24.534374 338.58124 25.425Q339.01874 26.315624 339.01874 27.378124Q339.01874 29.20625 337.84686 30.471874Q336.6906 31.721874 333.65936 31.721874L329.9875 31.721874L329.9875 37.55L328.09686 37.55ZM329.9875 30.034374L333.6906 30.034374Q335.51874 30.034374 336.28436 29.3625Q337.0656 28.675 337.0656 27.425Q337.0656 26.534374 336.6125 25.89375Q336.15936 25.253124 335.425 25.05Q334.9406 24.925 333.64374 24.925L329.9875 24.925L329.9875 30.034374ZM350.22186 41.753124Q348.76874 39.925 347.76874 37.471874Q346.76874 35.003124 346.76874 32.3625Q346.76874 30.034374 347.51874 27.909374Q348.39374 25.440624 350.22186 22.9875L351.4875 22.9875Q350.3 25.01875 349.925 25.89375Q349.33124 27.2375 348.9875 28.70625Q348.5656 30.534374 348.5656 32.378124Q348.5656 37.065624 351.4875 41.753124L350.22186 41.753124ZM353.45624 32.95625L355.2375 32.8Q355.3625 33.8625 355.8156 34.55Q356.28436 35.2375 357.2531 35.675Q358.2375 36.096874 359.47186 36.096874Q360.55 36.096874 361.3781 35.784374Q362.20624 35.45625 362.6125 34.89375Q363.01874 34.33125 363.01874 33.659374Q363.01874 32.9875 362.6281 32.4875Q362.2375 31.9875 361.34686 31.64375Q360.76874 31.409374 358.78436 30.940624Q356.8156 30.471874 356.03436 30.05Q355.0031 29.51875 354.5031 28.721874Q354.0031 27.925 354.0031 26.940624Q354.0031 25.846874 354.6125 24.909374Q355.22186 23.971874 356.40936 23.4875Q357.59686 22.9875 359.03436 22.9875Q360.6281 22.9875 361.84686 23.503124Q363.0656 24.01875 363.70624 25.01875Q364.3625 26.003124 364.40936 27.26875L362.59686 27.409374Q362.45624 26.05 361.6125 25.3625Q360.76874 24.659374 359.1125 24.659374Q357.39374 24.659374 356.59686 25.3Q355.8156 25.925 355.8156 26.8Q355.8156 27.58125 356.3781 28.08125Q356.925 28.58125 359.2375 29.096874Q361.55 29.6125 362.40936 30.003124Q363.65936 30.58125 364.2531 31.471874Q364.84686 32.346874 364.84686 33.503124Q364.84686 34.64375 364.1906 35.659374Q363.53436 36.675 362.3 37.2375Q361.08124 37.8 359.55 37.8Q357.6125 37.8 356.3 37.2375Q354.9875 36.659374 354.2375 35.51875Q353.4875 34.378124 353.45624 32.95625ZM366.8781 25.253124L366.8781 23.2375L368.64374 23.2375L368.64374 25.253124L366.8781 25.253124ZM366.8781 37.55L366.8781 27.175L368.64374 27.175L368.64374 37.55L366.8781 37.55ZM370.8625 37.55L370.8625 27.175L372.45624 27.175L372.45624 28.659374Q373.59686 26.940624 375.7531 26.940624Q376.6906 26.940624 377.47186 27.284374Q378.26874 27.6125 378.65936 28.159374Q379.05 28.70625 379.20624 29.45625Q379.3 29.95625 379.3 31.175L379.3 37.55L377.53436 37.55L377.53436 31.2375Q377.53436 30.159374 377.33124 29.628124Q377.1281 29.096874 376.59686 28.784374Q376.08124 28.471874 375.3781 28.471874Q374.2531 28.471874 373.4406 29.190624Q372.6281 29.89375 372.6281 31.878124L372.6281 37.55L370.8625 37.55ZM380.55 38.409374L382.2531 38.659374Q382.3625 39.45625 382.84686 39.815624Q383.5031 40.3 384.64374 40.3Q385.8625 40.3 386.51874 39.815624Q387.1906 39.33125 387.425 38.45625Q387.5656 37.909374 387.55 36.190624Q386.39374 37.55 384.675 37.55Q382.53436 37.55 381.3625 36.003124Q380.1906 34.45625 380.1906 32.3Q380.1906 30.815624 380.72186 29.565624Q381.26874 28.315624 382.28436 27.628124Q383.3156 26.940624 384.6906 26.940624Q386.51874 26.940624 387.72186 28.425L387.72186 27.175L389.33124 27.175L389.33124 36.14375Q389.33124 38.565624 388.83124 39.565624Q388.34686 40.58125 387.26874 41.159374Q386.20624 41.753124 384.64374 41.753124Q382.8 41.753124 381.64374 40.925Q380.5031 40.096874 380.55 38.409374ZM382.0031 32.175Q382.0031 34.221874 382.8156 35.159374Q383.6281 36.096874 384.84686 36.096874Q386.05 36.096874 386.8625 35.159374Q387.6906 34.221874 387.6906 32.2375Q387.6906 30.33125 386.84686 29.3625Q386.0031 28.39375 384.8156 28.39375Q383.64374 28.39375 382.8156 29.346874Q382.0031 30.3 382.0031 32.175ZM391.83124 37.55L391.83124 23.2375L393.58124 23.2375L393.58124 37.55L391.83124 37.55ZM402.97186 34.20625L404.78436 34.440624Q404.3625 36.01875 403.1906 36.909374Q402.03436 37.784374 400.22186 37.784374Q397.95624 37.784374 396.6125 36.39375Q395.28436 34.9875 395.28436 32.45625Q395.28436 29.83125 396.6281 28.39375Q397.97186 26.940624 400.1281 26.940624Q402.20624 26.940624 403.51874 28.3625Q404.84686 29.76875 404.84686 32.346874Q404.84686 32.503124 404.83124 32.815624L397.09686 32.815624Q397.1906 34.51875 398.0656 35.425Q398.9406 36.33125 400.2375 36.33125Q401.20624 36.33125 401.8781 35.83125Q402.5656 35.315624 402.97186 34.20625ZM397.1906 31.3625L402.9875 31.3625Q402.8781 30.065624 402.33124 29.409374Q401.4875 28.39375 400.14374 28.39375Q398.9406 28.39375 398.1125 29.20625Q397.28436 30.003124 397.1906 31.3625ZM423.3156 32.534374L425.20624 33.003124Q424.6125 35.346874 423.0656 36.58125Q421.51874 37.8 419.26874 37.8Q416.95624 37.8 415.5031 36.8625Q414.0656 35.909374 413.3 34.128124Q412.55 32.33125 412.55 30.284374Q412.55 28.05 413.39374 26.39375Q414.2531 24.721874 415.83124 23.8625Q417.40936 22.9875 419.3 22.9875Q421.45624 22.9875 422.90936 24.08125Q424.3781 25.175 424.95624 27.159374L423.09686 27.596874Q422.59686 26.034374 421.64374 25.33125Q420.70624 24.6125 419.26874 24.6125Q417.6125 24.6125 416.5031 25.409374Q415.39374 26.190624 414.9406 27.534374Q414.5031 28.8625 414.5031 30.26875Q414.5031 32.096874 415.03436 33.471874Q415.5656 34.83125 416.6906 35.503124Q417.8156 36.175 419.1125 36.175Q420.70624 36.175 421.8156 35.253124Q422.925 34.33125 423.3156 32.534374ZM426.83124 37.55L426.83124 23.2375L428.58124 23.2375L428.58124 37.55L426.83124 37.55ZM430.8781 25.253124L430.8781 23.2375L432.64374 23.2375L432.64374 25.253124L430.8781 25.253124ZM430.8781 37.55L430.8781 27.175L432.64374 27.175L432.64374 37.55L430.8781 37.55ZM441.97186 34.20625L443.78436 34.440624Q443.3625 36.01875 442.1906 36.909374Q441.03436 37.784374 439.22186 37.784374Q436.95624 37.784374 435.6125 36.39375Q434.28436 34.9875 434.28436 32.45625Q434.28436 29.83125 435.6281 28.39375Q436.97186 26.940624 439.1281 26.940624Q441.20624 26.940624 442.51874 28.3625Q443.84686 29.76875 443.84686 32.346874Q443.84686 32.503124 443.83124 32.815624L436.09686 32.815624Q436.1906 34.51875 437.0656 35.425Q437.9406 36.33125 439.2375 36.33125Q440.20624 36.33125 440.8781 35.83125Q441.5656 35.315624 441.97186 34.20625ZM436.1906 31.3625L441.9875 31.3625Q441.8781 30.065624 441.33124 29.409374Q440.4875 28.39375 439.14374 28.39375Q437.9406 28.39375 437.1125 29.20625Q436.28436 30.003124 436.1906 31.3625ZM445.8625 37.55L445.8625 27.175L447.45624 27.175L447.45624 28.659374Q448.59686 26.940624 450.7531 26.940624Q451.6906 26.940624 452.47186 27.284374Q453.26874 27.6125 453.65936 28.159374Q454.05 28.70625 454.20624 29.45625Q454.3 29.95625 454.3 31.175L454.3 37.55L452.53436 37.55L452.53436 31.2375Q452.53436 30.159374 452.33124 29.628124Q452.1281 29.096874 451.59686 28.784374Q451.08124 28.471874 450.3781 28.471874Q449.2531 28.471874 448.4406 29.190624Q447.6281 29.89375 447.6281 31.878124L447.6281 37.55L445.8625 37.55ZM459.70624 35.971874L459.95624 37.534374Q459.22186 37.690624 458.6281 37.690624Q457.675 37.690624 457.14374 37.39375Q456.6281 37.08125 456.40936 36.596874Q456.1906 36.096874 456.1906 34.51875L456.1906 28.55L454.90936 28.55L454.90936 27.175L456.1906 27.175L456.1906 24.6125L457.9406 23.55L457.9406 27.175L459.70624 27.175L459.70624 28.55L457.9406 28.55L457.9406 34.6125Q457.9406 35.3625 458.03436 35.58125Q458.1281 35.784374 458.33124 35.925Q458.55 36.05 458.9406 36.05Q459.22186 36.05 459.70624 35.971874ZM463.01874 41.753124L461.76874 41.753124Q464.675 37.065624 464.675 32.378124Q464.675 30.534374 464.26874 28.7375Q463.925 27.26875 463.33124 25.925Q462.95624 25.034374 461.76874 22.9875L463.01874 22.9875Q464.8625 25.440624 465.7375 27.909374Q466.4875 30.034374 466.4875 32.3625Q466.4875 35.003124 465.47186 37.471874Q464.47186 39.925 463.01874 41.753124Z" fill-rule="nonzero"/></svg>