<svg xmlns="http://www.w3.org/2000/svg" id="Layer_1" x="0" y="0" version="1.1" viewBox="0 0 650 725" xml:space="preserve"><style>.st2{fill:#212121}.st3{fill:#fff;stroke:#221f1f;stroke-width:2;stroke-miterlimit:10}.st5{fill:#212120}.st6{fill:#f4f5f5;stroke:#21201f;stroke-width:2;stroke-miterlimit:10}.st7{fill:#21201f}.st8,.st9{stroke:#212120;stroke-width:1.5}.st8{stroke-miterlimit:10;fill:#80c684}.st9{fill:#afbdc4;stroke-linecap:round;stroke-linejoin:round}.st10{fill:none;stroke-miterlimit:10}.st10,.st11,.st13,.st14{stroke:#212120;stroke-width:1.5}.st11{stroke-linecap:round;stroke-linejoin:round;fill:#ced8db}.st13,.st14{fill:#fbb54c;stroke-miterlimit:10}.st14{fill:none;stroke:#424242;stroke-width:2}.st15{fill:#424242}.st16{fill:#f0efef}.st17{fill:none;stroke:#787878;stroke-width:1.5;stroke-linecap:square;stroke-dasharray:.9946,3.9783}.st18,.st19,.st20,.st21,.st22,.st23{fill:#676767;stroke:#212120;stroke-width:1.5;stroke-linecap:round;stroke-linejoin:round}.st19,.st20,.st21,.st22,.st23{fill:#878787}.st20,.st21,.st22,.st23{fill:#9bcb65}.st21,.st22,.st23{fill:#fbb54d}.st22,.st23{fill:none}.st23{fill:#788f9b}.st24{fill:#43b2e5}.st24,.st25,.st26{stroke:#212120;stroke-width:1.5}.st25{stroke-linecap:round;stroke-linejoin:round;fill:#ee5451}.st26{fill:#81c684}.st27{fill:#4cae4e}.st28,.st29{fill:none;stroke:#fff;stroke-width:1.5}.st29{stroke:#212120}.st31,.st32,.st33{stroke-width:2;stroke-miterlimit:10}.st31{stroke-linecap:square;stroke-dasharray:1,4;fill:none;stroke:#424243}.st32,.st33{fill:#74b2e0;stroke:#221f1f}.st33{stroke:#212120;stroke-width:1.5}</style><path fill="#eceff1" d="M513 323H137c-6.6 0-12-5.4-12-12V22c0-6.6 5.4-12 12-12h376c6.6 0 12 5.4 12 12v289c0 6.6-5.4 12-12 12z"/><path fill="none" stroke="#231f20" stroke-dasharray="3.9924,3.9924" stroke-miterlimit="10" stroke-width="2" d="M513 323H137c-6.6 0-12-5.4-12-12V22c0-6.6 5.4-12 12-12h376c6.6 0 12 5.4 12 12v289c0 6.6-5.4 12-12 12z"/><path d="M205.2 36.3h-3.6l-.9 3.5h-2.8l4.5-15.5h2.2l4.5 15.5h-2.9l-1-3.5zm-3.1-2.2h2.6l-.9-3.6-.4-2.4h-.1l-.4 2.4-.8 3.6zM217.4 39.8c0 1.6-.4 2.8-1.1 3.5-.7.8-1.8 1.1-3.1 1.1-.9 0-1.6-.1-2.1-.2s-.9-.3-1.2-.5l.6-2.2c.3.1.7.3 1 .4.4.1.8.2 1.3.2.7 0 1.3-.2 1.6-.6.3-.4.4-1 .4-1.8v-.6h-.1c-.2.3-.5.5-.8.7s-.8.2-1.3.2c-1.2 0-2-.4-2.6-1.3-.6-.9-.9-2.3-.9-4.1 0-2 .4-3.5 1.2-4.5.8-1 1.9-1.5 3.4-1.5.8 0 1.5.1 2.1.2.6.1 1.1.3 1.5.5v10.5zm-4-2c.4 0 .7-.1.9-.3.2-.2.4-.5.5-.8v-5.5c-.2-.1-.3-.1-.5-.2-.2 0-.4-.1-.7-.1-.5 0-1 .3-1.3.8-.3.5-.5 1.4-.5 2.7.1 2.3.6 3.4 1.6 3.4zM227.2 39.8c0 1.6-.4 2.8-1.1 3.5-.7.8-1.8 1.1-3.1 1.1-.9 0-1.6-.1-2.1-.2s-.9-.3-1.2-.5l.6-2.2c.3.1.7.3 1 .4.4.1.8.2 1.3.2.7 0 1.3-.2 1.6-.6.3-.4.4-1 .4-1.8v-.6h-.1c-.2.3-.5.5-.8.7s-.8.2-1.3.2c-1.2 0-2-.4-2.6-1.3-.6-.9-.9-2.3-.9-4.1 0-2 .4-3.5 1.2-4.5.8-1 1.9-1.5 3.4-1.5.8 0 1.5.1 2.1.2.6.1 1.1.3 1.5.5v10.5zm-4.1-2c.4 0 .7-.1.9-.3.2-.2.4-.5.5-.8v-5.5c-.2-.1-.3-.1-.5-.2-.2 0-.4-.1-.7-.1-.5 0-1 .3-1.3.8-.3.5-.5 1.4-.5 2.7.1 2.3.6 3.4 1.6 3.4zM234.2 31.4c-.4-.1-.7-.2-1-.2-.4 0-.7.1-1 .3s-.5.5-.6.9v7.3H229v-11h2l.3 1.3h.1c.2-.5.5-.9.8-1.1.4-.3.8-.4 1.2-.4.4 0 .7.1 1 .2l-.2 2.7zM242.9 39c-.4.3-.9.6-1.5.8-.6.2-1.3.3-2 .3-.8 0-1.4-.1-2-.4-.5-.3-1-.6-1.4-1.1s-.6-1.1-.8-1.8c-.2-.7-.3-1.5-.3-2.4 0-2 .4-3.4 1.2-4.4.8-.9 1.9-1.4 3.3-1.4.5 0 .9.1 1.4.2.4.1.8.4 1.2.7.3.3.6.8.8 1.3.2.6.3 1.2.3 2.1 0 .3 0 .7-.1 1s-.1.8-.2 1.2h-5.4c0 .9.2 1.6.6 2.1.4.5.9.7 1.7.7.5 0 .9-.1 1.3-.2s.7-.3.9-.5l1 1.8zm-3.4-8.2c-.6 0-1 .2-1.3.7-.3.4-.4 1.1-.5 1.9h3.1c0-.8 0-1.5-.3-1.9s-.5-.7-1-.7zM249.6 31.9h4.8v6.8c-.5.5-1.2.9-1.9 1.1-.7.2-1.4.3-2.2.3-.9 0-1.6-.2-2.4-.5-.7-.3-1.3-.8-1.8-1.4-.5-.7-.9-1.5-1.1-2.5-.3-1-.4-2.2-.4-3.6 0-1.5.2-2.7.5-3.7s.8-1.8 1.3-2.5c.5-.6 1.2-1.1 1.9-1.4.7-.3 1.5-.4 2.3-.4.7 0 1.3.1 1.9.2.6.1 1.1.3 1.4.4l-.6 2.4c-.3-.1-.6-.2-1-.3-.4-.1-.9-.1-1.4-.1-.5 0-1 .1-1.4.3-.4.2-.8.5-1.1 1s-.5 1-.7 1.7-.2 1.5-.2 2.5c0 1.9.3 3.2.8 4.1.6.9 1.3 1.3 2.2 1.3.3 0 .6 0 .8-.1.3-.1.5-.2.7-.4v-3.2l-2.5-.3v-1.7zM256 29.5c.4-.3 1-.5 1.7-.6.7-.2 1.4-.2 2.2-.2 1.2 0 2.1.3 2.6 1 .5.6.7 1.6.7 2.8 0 .7 0 1.4-.1 2s-.1 1.3-.1 2v1.8c0 .6.1 1.2.3 1.7h-2.1l-.4-1.3h-.1c-.2.4-.6.8-1 1.1-.4.3-1 .4-1.6.4-.9 0-1.5-.3-2-.9-.5-.6-.7-1.4-.7-2.3 0-1.3.5-2.3 1.4-2.8.9-.6 2.2-.8 3.8-.7.1-.9 0-1.5-.2-1.8s-.6-.6-1.2-.6c-.4 0-.9.1-1.4.2s-.9.2-1.3.4l-.5-2.2zm3.1 8.2c.4 0 .7-.1 1-.3.2-.2.4-.4.5-.6V35c-.3 0-.7-.1-1 0s-.6.1-.8.2c-.2.1-.4.3-.6.5-.1.2-.2.5-.2.8 0 .5.1.8.3 1 .2.1.5.2.8.2zM264.2 28.8h1.2v-2.1l2.6-.7v2.9h2.1v2.3H268V36c0 .6.1 1.1.2 1.3.1.3.3.4.7.4.2 0 .4 0 .6-.1.2 0 .4-.1.6-.2l.3 2.1c-.3.2-.7.3-1.1.4-.4.1-.9.2-1.3.2-.8 0-1.5-.2-1.9-.7s-.6-1.3-.6-2.4v-5.8h-1.2v-2.4zM278.9 39c-.4.3-.9.6-1.5.8-.6.2-1.3.3-2 .3-.8 0-1.4-.1-2-.4-.5-.3-1-.6-1.4-1.1s-.6-1.1-.8-1.8c-.2-.7-.3-1.5-.3-2.4 0-2 .4-3.4 1.2-4.4.8-.9 1.9-1.4 3.3-1.4.5 0 .9.1 1.4.2.4.1.8.4 1.2.7.3.3.6.8.8 1.3.2.6.3 1.2.3 2.1 0 .3 0 .7-.1 1s-.1.8-.2 1.2h-5.4c0 .9.2 1.6.6 2.1.4.5.9.7 1.7.7.5 0 .9-.1 1.3-.2s.7-.3.9-.5l1 1.8zm-3.5-8.2c-.6 0-1 .2-1.3.7-.3.4-.4 1.1-.5 1.9h3.1c0-.8 0-1.5-.3-1.9s-.5-.7-1-.7zM290.8 35.9c0-.5-.1-.9-.4-1.2-.3-.3-.6-.6-1-.9-.4-.3-.9-.6-1.4-.9-.5-.3-.9-.7-1.4-1.1-.4-.4-.8-.9-1-1.5-.3-.6-.4-1.2-.4-2 0-.7.1-1.4.3-1.9.2-.5.5-.9.9-1.3s.9-.6 1.4-.7c.5-.2 1.1-.2 1.7-.2.7 0 1.4.1 2.1.2s1.2.3 1.6.6l-.9 2.4c-.2-.2-.6-.3-1.1-.5-.5-.1-1-.2-1.6-.2-.6 0-1 .1-1.3.4-.3.2-.5.6-.5 1s.1.8.4 1.1c.3.3.6.6 1 .9.4.3.9.6 1.4.9.5.3.9.7 1.4 1.1s.8.9 1 1.5c.3.6.4 1.2.4 2s-.1 1.5-.3 2c-.2.6-.5 1-1 1.4-.4.4-.9.7-1.5.8-.6.2-1.2.3-2 .3-.9 0-1.7-.1-2.4-.3-.7-.2-1.2-.4-1.6-.6l.9-2.5c.3.2.7.4 1.2.5.5.2 1.1.3 1.7.3 1.7.1 2.4-.5 2.4-1.6zM302.5 39c-.4.3-.9.6-1.5.8-.6.2-1.3.3-2 .3-.8 0-1.4-.1-2-.4-.5-.3-1-.6-1.4-1.1s-.6-1.1-.8-1.8c-.2-.7-.3-1.5-.3-2.4 0-2 .4-3.4 1.2-4.4.8-.9 1.9-1.4 3.3-1.4.5 0 .9.1 1.4.2.4.1.8.4 1.2.7.3.3.6.8.8 1.3.2.6.3 1.2.3 2.1 0 .3 0 .7-.1 1s-.1.8-.2 1.2H297c0 .9.2 1.6.6 2.1.4.5.9.7 1.7.7.5 0 .9-.1 1.3-.2s.7-.3.9-.5l1 1.8zm-3.5-8.2c-.6 0-1 .2-1.3.7-.3.4-.4 1.1-.5 1.9h3.1c0-.8 0-1.5-.3-1.9s-.5-.7-1-.7zM309.6 31.4c-.4-.1-.7-.2-1-.2-.4 0-.7.1-1 .3s-.5.5-.6.9v7.3h-2.6v-11h2l.3 1.3h.1c.2-.5.5-.9.8-1.1.4-.3.8-.4 1.2-.4.4 0 .7.1 1 .2l-.2 2.7z" class="st2"/><path d="M314.2 34.6l.3 1.7h.1l.2-1.8 1.4-5.7h2.8l-3.7 11.1h-1.8l-3.9-11.1h3.1l1.5 5.8zM327 39c-.4.3-.9.6-1.5.8-.6.2-1.3.3-2 .3-.8 0-1.4-.1-2-.4-.5-.3-1-.6-1.4-1.1s-.6-1.1-.8-1.8c-.2-.7-.3-1.5-.3-2.4 0-2 .4-3.4 1.2-4.4.8-.9 1.9-1.4 3.3-1.4.5 0 .9.1 1.4.2.4.1.8.4 1.2.7.3.3.6.8.8 1.3.2.6.3 1.2.3 2.1 0 .3 0 .7-.1 1s-.1.8-.2 1.2h-5.4c0 .9.2 1.6.6 2.1.4.5.9.7 1.7.7.5 0 .9-.1 1.3-.2s.7-.3.9-.5l1 1.8zm-3.5-8.2c-.6 0-1 .2-1.3.7-.3.4-.4 1.1-.5 1.9h3.1c0-.8 0-1.5-.3-1.9s-.5-.7-1-.7zM334.1 31.4c-.4-.1-.7-.2-1-.2-.4 0-.7.1-1 .3s-.5.5-.6.9v7.3h-2.6v-11h2l.3 1.3h.1c.2-.5.5-.9.8-1.1.4-.3.8-.4 1.2-.4.4 0 .7.1 1 .2l-.2 2.7zM339.9 24.4h7.7V27h-4.9v4h4.5v2.6h-4.5v6.3h-2.8V24.4zM349.1 29.5c.4-.3 1-.5 1.7-.6.7-.2 1.4-.2 2.2-.2 1.2 0 2.1.3 2.6 1 .5.6.7 1.6.7 2.8 0 .7 0 1.4-.1 2s-.1 1.3-.1 2v1.8c0 .6.1 1.2.3 1.7h-2.1l-.4-1.3h-.1c-.2.4-.6.8-1 1.1-.4.3-1 .4-1.6.4-.9 0-1.5-.3-2-.9-.5-.6-.7-1.4-.7-2.3 0-1.3.5-2.3 1.4-2.8.9-.6 2.2-.8 3.8-.7.1-.9 0-1.5-.2-1.8s-.6-.6-1.2-.6c-.4 0-.9.1-1.4.2s-.9.2-1.3.4l-.5-2.2zm3.2 8.2c.4 0 .7-.1 1-.3.2-.2.4-.4.5-.6V35c-.3 0-.7-.1-1 0s-.6.1-.8.2c-.2.1-.4.3-.6.5-.1.2-.2.5-.2.8 0 .5.1.8.3 1 .2.1.5.2.8.2zM358.1 25.7c0-.4.1-.8.4-1.1.3-.3.7-.4 1.2-.4s.9.1 1.2.4c.3.3.5.6.5 1.1s-.2.8-.5 1.1c-.3.3-.7.4-1.2.4s-.9-.1-1.2-.4c-.2-.3-.4-.6-.4-1.1zm.3 3.1h2.6v11h-2.6v-11zM365.8 36.3c0 .5.1.9.2 1.1.1.2.3.3.5.3h.4c.1 0 .3-.1.5-.2l.2 2.1c-.2.1-.5.2-.9.3s-.9.2-1.3.2c-.7 0-1.3-.2-1.6-.6-.4-.4-.5-1-.5-1.9V24.4h2.6v11.9zM368.1 34.3c0-2 .4-3.4 1.1-4.4.8-1 1.8-1.4 3.2-1.4 1.5 0 2.6.5 3.3 1.5.7 1 1.1 2.4 1.1 4.3 0 2-.4 3.4-1.1 4.4-.8.9-1.8 1.4-3.2 1.4-2.9 0-4.4-1.9-4.4-5.8zm2.7 0c0 1.1.1 2 .4 2.6.2.6.7.9 1.3.9.6 0 1-.3 1.2-.8.3-.5.4-1.4.4-2.7 0-1.1-.1-2-.4-2.6-.2-.6-.7-.9-1.3-.9-.5 0-.9.3-1.2.8s-.4 1.5-.4 2.7zM381.4 34.6l.3 1.7h.1l.2-1.8 1.4-5.7h2.8l-3.7 11.1h-1.8l-3.9-11.1h3.1l1.5 5.8zM394.2 39c-.4.3-.9.6-1.5.8-.6.2-1.3.3-2 .3-.8 0-1.4-.1-2-.4-.5-.3-1-.6-1.4-1.1s-.6-1.1-.8-1.8c-.2-.7-.3-1.5-.3-2.4 0-2 .4-3.4 1.2-4.4.8-.9 1.9-1.4 3.3-1.4.5 0 .9.1 1.4.2.4.1.8.4 1.2.7.3.3.6.8.8 1.3.2.6.3 1.2.3 2.1 0 .3 0 .7-.1 1s-.1.8-.2 1.2h-5.4c0 .9.2 1.6.6 2.1.4.5.9.7 1.7.7.5 0 .9-.1 1.3-.2s.7-.3.9-.5l1 1.8zm-3.5-8.2c-.6 0-1 .2-1.3.7-.3.4-.4 1.1-.5 1.9h3.1c0-.8 0-1.5-.3-1.9s-.5-.7-1-.7zM401.3 31.4c-.4-.1-.7-.2-1-.2-.4 0-.7.1-1 .3s-.5.5-.6.9v7.3h-2.6v-11h2l.3 1.3h.1c.2-.5.5-.9.8-1.1.4-.3.8-.4 1.2-.4.4 0 .7.1 1 .2l-.2 2.7zM415.6 39.2c-.4.3-.9.6-1.5.7-.6.1-1.3.2-1.9.2-.8 0-1.5-.1-2.2-.4-.7-.3-1.3-.7-1.8-1.4-.5-.6-.9-1.5-1.2-2.5-.3-1-.4-2.3-.4-3.8 0-1.6.2-2.8.5-3.9.3-1 .8-1.8 1.3-2.5.5-.6 1.1-1 1.8-1.3.7-.2 1.4-.4 2.1-.4.7 0 1.3.1 1.9.2.5.1 1 .3 1.3.4l-.5 2.4c-.3-.1-.6-.3-1-.3-.4-.1-.8-.1-1.3-.1-1 0-1.8.4-2.3 1.3-.5.9-.8 2.3-.8 4.1 0 .8.1 1.5.2 2.2.1.7.3 1.2.6 1.7s.6.9 1 1.1c.4.3.9.4 1.5.4.5 0 1-.1 1.3-.2.4-.1.7-.3 1-.5l.4 2.6zM419.5 36.3c0 .5.1.9.2 1.1.1.2.3.3.5.3h.4c.1 0 .3-.1.5-.2l.2 2.1c-.2.1-.5.2-.9.3s-.9.2-1.3.2c-.7 0-1.3-.2-1.6-.6-.4-.4-.5-1-.5-1.9V24.4h2.6v11.9zM424.8 28.8v6.6c0 .9.1 1.5.2 1.8.2.3.5.5.9.5s.8-.2 1-.5c.3-.3.5-.7.6-1.1v-7.3h2.6v7.7c0 .6 0 1.2.1 1.8 0 .6.1 1.1.2 1.6h-2l-.5-1.5h-.1c-.3.5-.7.9-1.1 1.3-.5.3-1.1.5-1.8.5-.5 0-.9-.1-1.2-.2-.4-.1-.7-.3-.9-.6-.2-.3-.4-.7-.6-1.3-.1-.5-.2-1.2-.2-2V29h2.8zM435.7 36.9c0-.3-.1-.6-.3-.8-.2-.2-.5-.4-.8-.6-.3-.2-.6-.4-1-.6s-.7-.4-1-.7c-.3-.3-.6-.6-.8-1-.2-.4-.3-.9-.3-1.5 0-1 .3-1.8.8-2.4.6-.6 1.4-.8 2.5-.8.6 0 1.3.1 1.8.2.6.1 1 .3 1.4.5l-.6 2c-.3-.1-.6-.2-1-.3s-.8-.2-1.2-.2c-.7 0-1.1.3-1.1.9 0 .3.1.5.3.7.2.2.5.4.8.5.3.2.6.4 1 .6.3.2.7.4 1 .7s.6.6.8 1c.2.4.3.9.3 1.5 0 1-.3 1.8-.9 2.4-.6.6-1.5.9-2.8.9-.6 0-1.2-.1-1.8-.2-.6-.1-1-.3-1.4-.6l.7-2.1c.3.2.7.3 1.1.5.4.1.8.2 1.3.2.3 0 .6-.1.8-.2s.4-.3.4-.6zM438.9 28.8h1.2v-2.1l2.6-.8v2.9h2.1v2.3h-2.1V36c0 .6.1 1.1.2 1.3.1.3.3.4.7.4.2 0 .4 0 .6-.1.2 0 .4-.1.6-.2l.3 2.1c-.3.2-.7.3-1.1.4-.4.1-.9.2-1.3.2-.8 0-1.5-.2-1.9-.7s-.6-1.3-.6-2.4v-5.8H439v-2.4zM453.6 39c-.4.3-.9.6-1.5.8-.6.2-1.3.3-2 .3-.8 0-1.4-.1-2-.4-.5-.3-1-.6-1.4-1.1s-.6-1.1-.8-1.8c-.2-.7-.3-1.5-.3-2.4 0-2 .4-3.4 1.2-4.4.8-.9 1.9-1.4 3.3-1.4.5 0 .9.1 1.4.2.4.1.8.4 1.2.7.3.3.6.8.8 1.3.2.6.3 1.2.3 2.1 0 .3 0 .7-.1 1s-.1.8-.2 1.2h-5.4c0 .9.2 1.6.6 2.1.4.5.9.7 1.7.7.5 0 .9-.1 1.3-.2s.7-.3.9-.5l1 1.8zm-3.5-8.2c-.6 0-1 .2-1.3.7-.3.4-.4 1.1-.5 1.9h3.1c0-.8 0-1.5-.3-1.9s-.5-.7-1-.7zM460.7 31.4c-.4-.1-.7-.2-1-.2-.4 0-.7.1-1 .3s-.5.5-.6.9v7.3h-2.6v-11h2l.3 1.3h.1c.2-.5.5-.9.8-1.1.4-.3.8-.4 1.2-.4.4 0 .7.1 1 .2l-.2 2.7z" class="st2"/><path d="M303 293H167c-6.6 0-12-5.4-12-12V92h160v189c0 6.6-5.4 12-12 12z" class="st3"/><path fill="#80c684" stroke="#221f1f" stroke-miterlimit="10" stroke-width="2" d="M315 92H155V74c0-6.6 5.4-12 12-12h136c6.6 0 12 5.4 12 12v18z"/><path d="M195.9 77.3l.3-2.4h-.1l-.7 2.2-2.1 4.4h-.8l-2.2-4.4-.7-2.2h-.1l.3 2.4v6.5h-2.1V71.2h2.2l2.6 5.5.4 1.6h.1l.4-1.6 2.5-5.4h2.1v12.6h-2.3v-6.6zM204.9 81h-3l-.7 2.9h-2.3l3.7-12.7h1.8l3.7 12.7h-2.4l-.8-2.9zm-2.5-1.9h2.1l-.7-2.9-.3-2h-.1l-.3 2-.7 2.9zM213.2 80.6c0-.4-.1-.7-.3-1s-.5-.5-.9-.8c-.3-.2-.7-.5-1.1-.7-.4-.3-.8-.5-1.1-.9s-.6-.7-.9-1.2c-.2-.5-.3-1-.3-1.7 0-.6.1-1.1.3-1.6s.4-.8.8-1c.3-.3.7-.5 1.2-.6.4-.1.9-.2 1.4-.2.6 0 1.2.1 1.7.2s1 .3 1.3.5l-.7 2c-.2-.1-.5-.3-.9-.4-.4-.1-.8-.2-1.3-.2s-.8.1-1.1.3c-.3.2-.4.5-.4.8 0 .3.1.6.3.9.2.3.5.5.9.7.3.2.7.5 1.1.7.4.3.8.6 1.1.9.3.3.6.7.9 1.2.2.5.3 1 .3 1.6 0 .6-.1 1.2-.3 1.7-.2.5-.5.9-.8 1.2-.3.3-.8.5-1.2.7-.5.2-1 .2-1.6.2-.7 0-1.4-.1-2-.2s-1-.3-1.3-.5l.7-2c.2.1.6.3 1 .4.4.1.9.2 1.4.2 1.2.2 1.8-.3 1.8-1.2zM224.3 73.3h-3v10.5H219V73.3h-3v-2.1h8.2v2.1zM225.2 71.2h6.3v2.1h-4v3.1h3.7v2.1h-3.7v3.2h4.1v2.1h-6.4V71.2zM233 71.4c.5-.1 1-.2 1.6-.2.6 0 1-.1 1.5-.1s1 .1 1.5.2.9.3 1.3.6.7.6.9 1.1c.2.5.4 1 .4 1.8 0 1-.2 1.9-.6 2.5-.4.6-.9 1.1-1.6 1.3l.7.6L241 84h-2.6l-2.2-5-1-.2V84H233V71.4zm2.3 5.7h.8c.6 0 1-.2 1.3-.5.3-.3.4-.9.4-1.6 0-.5-.1-1-.4-1.3-.2-.3-.6-.5-1.1-.5h-.6c-.2 0-.3 0-.4.1v3.8zM248.5 77.6l-.8-2.2h-.1l.3 2.2v6.2h-2.1V71.1h1.7l3.6 6.3.8 2.2h.1l-.3-2.1v-6.3h2.1v12.7h-1.7l-3.6-6.3zM255.2 77.5c0-2.1.4-3.8 1.1-4.9.7-1.1 1.8-1.7 3.3-1.7.8 0 1.5.2 2 .5s1 .7 1.4 1.3c.4.6.6 1.3.8 2.1.2.8.3 1.7.3 2.7 0 2.1-.4 3.8-1.1 4.9-.8 1.1-1.9 1.7-3.3 1.7-.8 0-1.5-.2-2-.5s-1-.7-1.4-1.3c-.4-.6-.6-1.3-.8-2.1s-.3-1.7-.3-2.7zm2.3 0c0 .6 0 1.2.1 1.8.1.5.2 1 .4 1.4.2.4.4.7.6.9.3.2.6.3 1 .3.7 0 1.2-.4 1.6-1.1.3-.7.5-1.8.5-3.4 0-.6 0-1.2-.1-1.7s-.2-1-.4-1.4c-.2-.4-.4-.7-.6-1-.3-.2-.6-.4-1-.4-1.4.2-2.1 1.7-2.1 4.6zM265.4 71.2c.2 0 .5-.1.7-.1s.5 0 .8-.1h1.5c1 0 1.8.2 2.5.5s1.2.7 1.6 1.3.7 1.2.9 2c.2.8.3 1.7.3 2.6 0 .9-.1 1.7-.2 2.5-.2.8-.4 1.5-.9 2.1-.4.6-1 1.1-1.7 1.4-.7.4-1.6.5-2.6.5h-1.4c-.3 0-.6 0-.8-.1s-.5 0-.6-.1V71.2zm3.3 1.9h-1.1v8.7h1c.5 0 1-.1 1.3-.4s.6-.6.8-1c.2-.4.3-.9.4-1.4.1-.5.1-1.1.1-1.7 0-.6 0-1.1-.1-1.6s-.2-1-.4-1.4c-.2-.4-.4-.7-.8-.9-.2-.1-.6-.3-1.2-.3zM275 71.2h6.3v2.1h-4v3.1h3.7v2.1h-3.7v3.2h4.1v2.1H275V71.2z" class="st5"/><circle cx="235" cy="137" r="30" class="st6"/><path d="M219.7 134.8v14.9h17.9v-10.6h-4.8v5.7h-8.3v-9.9c0-1.2.3-2.4.8-3.6.5-1.2 1.3-2.3 2.3-3.2.9-.8 2-1.5 3.2-2 1.3-.5 2.6-.7 4.1-.7 1.3 0 2.7.3 3.9.8 1.3.5 2.4 1.2 3.3 2.1.9.9 1.7 1.9 2.1 3.1.5 1.1.7 2.3.7 3.5v14.9h5v-14.6c0-2.1-.4-4.1-1.1-5.9-.7-1.8-1.8-3.4-3.2-4.8-1.5-1.5-3.1-2.6-4.9-3.4-1.8-.8-3.8-1.2-5.8-1.2s-3.9.3-5.6 1c-1.7.6-3.3 1.6-4.7 2.8-1.7 1.5-2.9 3.1-3.7 5-.8 1.9-1.2 3.9-1.2 6.1z" class="st7"/><g><path d="M277 179h-84c-1.7 0-3-1.3-3-3v-11c0-1.7 1.3-3 3-3h84c1.7 0 3 1.3 3 3v11c0 1.7-1.3 3-3 3z" class="st8"/><path d="M198.4 172.5H196l-.6 1.7H194l2.8-7.8h1.1l2.8 7.8H199l-.6-1.7zm-2-1.2h1.6l-.6-1.7-.2-1.2h-.1l-.2 1.2-.5 1.7zM205.7 174.2c0 .8-.2 1.4-.6 1.8s-1 .6-1.8.6c-.5 0-.9 0-1.2-.1s-.5-.2-.7-.2l.3-1.1c.2.1.4.1.6.2.2.1.5.1.8.1.5 0 .8-.1 1-.3.2-.2.3-.5.3-.9v-.4c-.3.3-.7.5-1.4.5s-1.2-.2-1.6-.7c-.3-.4-.5-1.1-.5-2.1s.2-1.7.7-2.2 1.2-.8 2-.8c.5 0 .9 0 1.3.1s.7.1.9.2v5.3zm-2.4-1.1c.3 0 .5-.1.6-.2.2-.1.3-.3.3-.6v-2.5c-.2-.1-.5-.1-.8-.1-.4 0-.7.1-.9.4-.2.3-.3.7-.3 1.3 0 .5.1.9.3 1.2.2.4.4.5.8.5zM211.6 174.2c0 .8-.2 1.4-.6 1.8s-1 .6-1.8.6c-.5 0-.9 0-1.2-.1s-.5-.2-.7-.2l.3-1.1c.2.1.4.1.6.2.2.1.5.1.8.1.5 0 .8-.1 1-.3.2-.2.3-.5.3-.9v-.4c-.3.3-.7.5-1.4.5s-1.2-.2-1.6-.7c-.3-.4-.5-1.1-.5-2.1s.2-1.7.7-2.2 1.2-.8 2-.8c.5 0 .9 0 1.3.1s.7.1.9.2v5.3zm-2.4-1.1c.3 0 .5-.1.6-.2.2-.1.3-.3.3-.6v-2.5c-.2-.1-.5-.1-.8-.1-.4 0-.7.1-.9.4-.2.3-.3.7-.3 1.3 0 .5.1.9.3 1.2.2.4.4.5.8.5zM215.9 170c-.2-.1-.4-.1-.6-.1-.3 0-.5.1-.6.2s-.3.3-.3.5v3.6H213v-5.5h1.1l.2.7c.1-.3.3-.5.5-.6.2-.1.5-.2.7-.2.2 0 .4 0 .6.1l-.2 1.3zM221.1 173.7c-.2.2-.5.3-.9.4-.4.1-.8.2-1.2.2-.9 0-1.5-.3-1.9-.8-.4-.5-.6-1.2-.6-2.1 0-1 .2-1.7.7-2.2.5-.5 1.1-.7 1.9-.7.3 0 .6 0 .8.1.3.1.5.2.7.4.2.2.4.4.5.7.1.3.2.6.2 1.1v.5c0 .2 0 .4-.1.5h-3.3c0 .5.1.8.4 1 .2.2.6.4 1 .4.3 0 .6 0 .8-.1.2-.1.4-.2.5-.3l.5.9zm-2.1-4c-.4 0-.6.1-.8.3s-.3.5-.3.9h2c0-.4 0-.7-.2-.9-.1-.2-.3-.3-.7-.3zM225 170.2h2.9v3.4c-.3.3-.7.4-1.1.6-.4.1-.9.2-1.3.2-.5 0-.9-.1-1.4-.2s-.8-.4-1.1-.7c-.3-.3-.6-.7-.7-1.2-.2-.5-.3-1.1-.3-1.8s.1-1.3.3-1.9.5-.9.8-1.2c.3-.3.7-.5 1.1-.7.4-.1.9-.2 1.3-.2s.8 0 1.2.1c.3.1.6.1.8.2l-.3 1.3c-.2-.1-.4-.1-.6-.2-.2 0-.5-.1-.9-.1-.3 0-.6 0-.9.1-.3.1-.5.3-.7.5-.2.2-.3.5-.5.8-.1.3-.2.7-.2 1.2s.1.9.2 1.2c.1.3.2.6.4.8.2.2.4.4.6.5s.5.2.8.2c.2 0 .4 0 .6-.1.2 0 .3-.1.5-.2v-1.5l-1.7-.2v-.9zM228.9 169c.3-.1.6-.2 1-.3.4-.1.8-.1 1.3-.1.4 0 .7 0 1 .1s.5.2.6.4c.1.2.3.4.3.6.1.2.1.5.1.8v2.9c0 .3.1.6.2.8h-1.2l-.2-.8h-.1c-.1.2-.4.4-.6.6s-.6.2-1 .2c-.3 0-.5 0-.7-.1-.2-.1-.4-.2-.5-.3-.1-.1-.3-.3-.3-.5s-.1-.4-.1-.7c0-.3.1-.6.2-.9l.6-.6c.3-.1.6-.2 1-.3.4-.1.8-.1 1.3 0 .1-.4 0-.7-.1-.9-.1-.2-.4-.3-.7-.3-.3 0-.6 0-.9.1-.3.1-.6.1-.8.2l-.4-.9zm1.9 4.1c.3 0 .5-.1.7-.2.2-.1.3-.3.4-.4v-.7h-.7c-.3 0-.4 0-.6.1-.2.1-.3.1-.4.2-.1.1-.1.2-.1.4s.1.4.2.5c.1.1.2.1.5.1zM233.9 168.7h.8v-1l1.4-.4v1.4h1.3v1.2H236v2.1c0 .4 0 .7.1.8.1.2.2.2.4.2h.4c.1 0 .2-.1.4-.1l.3 1.1c-.2.1-.4.2-.7.2-.3.1-.5.1-.8.1-.5 0-.9-.1-1.1-.4-.2-.3-.4-.7-.4-1.3v-2.8h-.8v-1.1zM242.6 173.7c-.2.2-.5.3-.9.4-.4.1-.8.2-1.2.2-.9 0-1.5-.3-1.9-.8-.4-.5-.6-1.2-.6-2.1 0-1 .2-1.7.7-2.2.5-.5 1.1-.7 1.9-.7.3 0 .6 0 .8.1.3.1.5.2.7.4.2.2.4.4.5.7.1.3.2.6.2 1.1v.5c0 .2 0 .4-.1.5h-3.3c0 .5.1.8.4 1 .2.2.6.4 1 .4.3 0 .6 0 .8-.1.2-.1.4-.2.5-.3l.5.9zm-2-4c-.4 0-.6.1-.8.3s-.3.5-.3.9h2c0-.4 0-.7-.2-.9-.2-.2-.4-.3-.7-.3zM249.9 172.1c0-.2-.1-.4-.3-.6-.2-.1-.4-.3-.6-.4-.3-.1-.5-.2-.8-.4-.3-.1-.6-.3-.8-.5-.3-.2-.5-.4-.6-.7s-.3-.6-.3-1.1c0-.4.1-.7.2-1 .1-.3.3-.5.5-.7.2-.2.5-.3.8-.4.3-.1.7-.1 1.1-.1.4 0 .9 0 1.3.1s.7.2 1 .3l-.5 1.3c-.2-.1-.4-.2-.7-.3-.3-.1-.7-.1-1-.1-.4 0-.6.1-.8.2-.2.1-.3.3-.3.6 0 .2.1.4.3.6.2.1.4.3.6.4.3.1.5.3.8.4.3.1.6.3.8.5.3.2.5.4.6.7.2.3.3.6.3 1s-.1.8-.2 1.1c-.1.3-.3.5-.6.7-.2.2-.5.3-.9.4-.3.1-.7.1-1.1.1-.5 0-1-.1-1.5-.2s-.7-.2-.9-.3l.5-1.3c.1 0 .2.1.3.1.1.1.3.1.4.1.2 0 .3.1.5.1h.6c.4 0 .8-.1 1-.2.2.2.3-.1.3-.4zM256.8 173.7c-.2.2-.5.3-.9.4-.4.1-.8.2-1.2.2-.9 0-1.5-.3-1.9-.8-.4-.5-.6-1.2-.6-2.1 0-1 .2-1.7.7-2.2.5-.5 1.1-.7 1.9-.7.3 0 .6 0 .8.1.3.1.5.2.7.4.2.2.4.4.5.7.1.3.2.6.2 1.1v.5c0 .2 0 .4-.1.5h-3.3c0 .5.1.8.4 1 .2.2.6.4 1 .4.3 0 .6 0 .8-.1.2-.1.4-.2.5-.3l.5.9zm-2-4c-.4 0-.6.1-.8.3s-.3.5-.3.9h2c0-.4 0-.7-.2-.9-.2-.2-.4-.3-.7-.3zM261 170c-.2-.1-.4-.1-.6-.1-.3 0-.5.1-.6.2s-.3.3-.3.5v3.6H258v-5.5h1.1l.2.7c.1-.3.3-.5.5-.6.2-.1.5-.2.7-.2.2 0 .4 0 .6.1l-.1 1.3zM263.8 171.6l.2.8h.1l.2-.9.9-2.9h1.5l-2.3 5.6h-.9l-2.4-5.6h1.7l1 3zM271.4 173.7c-.2.2-.5.3-.9.4-.4.1-.8.2-1.2.2-.9 0-1.5-.3-1.9-.8-.4-.5-.6-1.2-.6-2.1 0-1 .2-1.7.7-2.2.5-.5 1.1-.7 1.9-.7.3 0 .6 0 .8.1.3.1.5.2.7.4.2.2.4.4.5.7.1.3.2.6.2 1.1v.5c0 .2 0 .4-.1.5h-3.3c0 .5.1.8.4 1 .2.2.6.4 1 .4.3 0 .6 0 .8-.1.2-.1.4-.2.5-.3l.5.9zm-2-4c-.4 0-.6.1-.8.3s-.3.5-.3.9h2c0-.4 0-.7-.2-.9-.2-.2-.4-.3-.7-.3zM275.7 170c-.2-.1-.4-.1-.6-.1-.3 0-.5.1-.6.2s-.3.3-.3.5v3.6h-1.4v-5.5h1.1l.2.7c.1-.3.3-.5.5-.6.2-.1.5-.2.7-.2.2 0 .4 0 .6.1l-.2 1.3z" class="st7"/></g><g><path d="M262 273h-54c-1.7 0-3-1.3-3-3v-11c0-1.7 1.3-3 3-3h54c1.7 0 3 1.3 3 3v11c0 1.7-1.3 3-3 3z" class="st8"/><path d="M213.8 260.5c.2 0 .3 0 .5-.1s.4 0 .6 0h1.1c.7 0 1.3.1 1.7.3.5.2.9.5 1.2.8.3.3.5.8.7 1.2.1.5.2 1 .2 1.6 0 .5-.1 1-.2 1.5s-.4.9-.7 1.3c-.3.4-.7.7-1.2.9-.5.2-1.1.3-1.9.3h-2.1v-7.8zm2.4 1.2h-.9v5.2h.7c.4 0 .8-.1 1.1-.2s.5-.4.7-.6.3-.5.3-.9.1-.7.1-1c0-.3 0-.6-.1-.9-.1-.3-.2-.6-.3-.8l-.6-.6c-.2-.1-.6-.2-1-.2zM220.9 263c.3-.1.6-.2 1-.3.4-.1.8-.1 1.3-.1.4 0 .7 0 1 .1s.5.2.6.4c.1.2.3.4.3.6.1.2.1.5.1.8v2.9c0 .3.1.6.2.8h-1.2l-.2-.8h-.1c-.1.2-.4.4-.6.6s-.6.2-1 .2c-.3 0-.5 0-.7-.1-.2-.1-.4-.2-.5-.3-.1-.1-.3-.3-.3-.5s-.1-.4-.1-.7c0-.3.1-.6.2-.9l.6-.6c.3-.1.6-.2 1-.3.4-.1.8-.1 1.3 0 .1-.4 0-.7-.1-.9-.1-.2-.4-.3-.7-.3-.3 0-.6 0-.9.1-.3.1-.6.1-.8.2l-.4-.9zm1.8 4.1c.3 0 .5-.1.7-.2.2-.1.3-.3.4-.4v-.7h-.7c-.3 0-.4 0-.6.1-.2.1-.3.1-.4.2-.1.1-.1.2-.1.4s.1.4.2.5c.1.1.3.1.5.1zM225.8 262.7h.8v-1l1.4-.4v1.4h1.3v1.2H228v2.1c0 .4 0 .7.1.8.1.2.2.2.4.2h.4c.1 0 .2-.1.4-.1l.3 1.1c-.2.1-.4.2-.7.2-.3.1-.5.1-.8.1-.5 0-.9-.1-1.1-.4-.2-.3-.4-.7-.4-1.3v-2.8h-.8v-1.1zM230.2 263c.3-.1.6-.2 1-.3.4-.1.8-.1 1.3-.1.4 0 .7 0 1 .1s.5.2.6.4c.1.2.3.4.3.6.1.2.1.5.1.8v2.9c0 .3.1.6.2.8h-1.2l-.2-.8h-.1c-.1.2-.4.4-.6.6s-.6.2-1 .2c-.3 0-.5 0-.7-.1-.2-.1-.4-.2-.5-.3-.1-.1-.3-.3-.3-.5s-.1-.4-.1-.7c0-.3.1-.6.2-.9l.6-.6c.3-.1.6-.2 1-.3.4-.1.8-.1 1.3 0 .1-.4 0-.7-.1-.9-.1-.2-.4-.3-.7-.3-.3 0-.6 0-.9.1-.3.1-.6.1-.8.2l-.4-.9zm1.8 4.1c.3 0 .5-.1.7-.2.2-.1.3-.3.4-.4v-.7h-.7c-.3 0-.4 0-.6.1-.2.1-.3.1-.4.2-.1.1-.1.2-.1.4s.1.4.2.5c.1.1.3.1.5.1zM235.7 260.5h1.4v2.6c.2-.2.4-.3.6-.4.2-.1.5-.2.8-.2.7 0 1.2.2 1.5.7.3.5.5 1.1.5 2.1s-.2 1.7-.7 2.3c-.5.5-1.2.8-2 .8-.5 0-.9 0-1.3-.1s-.7-.2-.9-.3v-7.5zm2.4 3.3c-.3 0-.5.1-.6.2s-.3.3-.4.6v2.4c.1.1.2.1.4.1h.4c.4 0 .7-.1.9-.4.2-.3.3-.7.3-1.3 0-1.1-.3-1.6-1-1.6zM241.5 263c.3-.1.6-.2 1-.3.4-.1.8-.1 1.3-.1.4 0 .7 0 1 .1s.5.2.6.4c.1.2.3.4.3.6.1.2.1.5.1.8v2.9c0 .3.1.6.2.8h-1.2l-.2-.8h-.1c-.1.2-.4.4-.6.6s-.6.2-1 .2c-.3 0-.5 0-.7-.1-.2-.1-.4-.2-.5-.3-.1-.1-.3-.3-.3-.5s-.1-.4-.1-.7c0-.3.1-.6.2-.9l.6-.6c.3-.1.6-.2 1-.3.4-.1.8-.1 1.3 0 .1-.4 0-.7-.1-.9-.1-.2-.4-.3-.7-.3-.3 0-.6 0-.9.1-.3.1-.6.1-.8.2l-.4-.9zm1.9 4.1c.3 0 .5-.1.7-.2.2-.1.3-.3.4-.4v-.7h-.7c-.3 0-.4 0-.6.1-.2.1-.3.1-.4.2-.1.1-.1.2-.1.4s.1.4.2.5c.1.1.2.1.5.1zM249.3 266.7c0-.1-.1-.3-.2-.4-.1-.1-.3-.2-.5-.2s-.4-.1-.6-.2l-.6-.3c-.2-.1-.3-.3-.5-.5-.1-.2-.2-.5-.2-.8 0-.5.2-1 .5-1.2.3-.3.8-.4 1.4-.4.4 0 .8 0 1.1.1.3.1.6.2.8.3l-.3 1c-.2-.1-.4-.1-.6-.2-.3-.1-.5-.1-.8-.1-.4 0-.6.2-.6.5 0 .1.1.2.2.3.1.1.3.2.5.2.2.1.4.1.6.2l.6.3c.2.1.3.3.5.5s.2.5.2.8c0 .6-.2 1-.5 1.3-.4.3-.9.5-1.6.5-.4 0-.8 0-1.1-.1-.3-.1-.6-.2-.8-.3l.4-1.1c.2.1.4.2.7.3.3.1.6.1.9.1.2 0 .4 0 .5-.1-.1-.2 0-.3 0-.5zM256.1 267.7c-.2.2-.5.3-.9.4-.4.1-.8.2-1.2.2-.9 0-1.5-.3-1.9-.8-.4-.5-.6-1.2-.6-2.1 0-1 .2-1.7.7-2.2.5-.5 1.1-.7 1.9-.7.3 0 .6 0 .8.1.3.1.5.2.7.4.2.2.4.4.5.7.1.3.2.6.2 1.1v.5c0 .2 0 .4-.1.5h-3.3c0 .5.1.8.4 1 .2.2.6.4 1 .4.3 0 .6 0 .8-.1.2-.1.4-.2.5-.3l.5.9zm-2.1-4c-.4 0-.6.1-.8.3s-.3.5-.3.9h2c0-.4 0-.7-.2-.9-.1-.2-.3-.3-.7-.3z" class="st7"/></g><g id="db_x5F_02_6_"><path d="M261 242v-32.5c0-6.9-6.5-11.2-10.5-13.1-5.1-2.3-10.1-3.2-15.5-3.2s-10.4.8-15.5 3.2c-4 1.9-10.5 6.1-10.5 13.1V242c0 6.9 6.5 11.2 10.5 13.1 5.1 2.3 10.1 3.2 15.5 3.2s10.4-.8 15.5-3.2c4-1.9 10.5-6.2 10.5-13.1z" class="st9"/><path d="M209 209.5c0 6.9 6.5 11.2 10.5 13.1 5.1 2.3 10.1 3.2 15.5 3.2s10.4-.8 15.5-3.2c4-1.9 10.5-6.1 10.5-13.1" class="st10"/><path d="M209 220.9c0 6.9 6.5 11.2 10.5 13.1 5.1 2.3 10.1 3.2 15.5 3.2s10.4-.8 15.5-3.2c4-1.9 10.5-6.1 10.5-13.1" class="st10"/><path d="M209 232.4c0 6.9 6.5 11.2 10.5 13.1 5.1 2.3 10.1 3.2 15.5 3.2s10.4-.8 15.5-3.2c4-1.9 10.5-6.1 10.5-13.1" class="st10"/><ellipse cx="235" cy="209.5" class="st11" rx="26" ry="16.4"/></g><g><path d="M483 293H347c-6.6 0-12-5.4-12-12V92h160v189c0 6.6-5.4 12-12 12z" class="st3"/><path fill="#fbb54c" stroke="#221f1f" stroke-miterlimit="10" stroke-width="2" d="M495 92H335V74c0-6.6 5.4-12 12-12h136c6.6 0 12 5.4 12 12v18z"/><path d="M363.7 71.2h6.3v2.1h-4v3.3h3.7v2.1H366v5.1h-2.3V71.2zM376.4 81h-3l-.7 2.9h-2.3l3.7-12.7h1.8l3.7 12.7h-2.4l-.8-2.9zm-2.5-1.9h2.1l-.7-2.9-.3-2h-.1l-.3 2-.7 2.9zM380.5 71.2h2.3v12.6h-2.3V71.2zM391.3 83.8h-6.7V71.2h2.3v10.5h4.4v2.1z" class="st5"/><path d="M390.5 77.5c0-2.1.4-3.8 1.1-4.9.7-1.1 1.8-1.7 3.3-1.7.8 0 1.5.2 2 .5s1 .7 1.4 1.3c.4.6.6 1.3.8 2.1.2.8.3 1.7.3 2.7 0 2.1-.4 3.8-1.1 4.9-.8 1.1-1.9 1.7-3.3 1.7-.8 0-1.5-.2-2-.5s-1-.7-1.4-1.3c-.4-.6-.6-1.3-.8-2.1s-.3-1.7-.3-2.7zm2.4 0c0 .6 0 1.2.1 1.8.1.5.2 1 .4 1.4.2.4.4.7.6.9.3.2.6.3 1 .3.7 0 1.2-.4 1.6-1.1.3-.7.5-1.8.5-3.4 0-.6 0-1.2-.1-1.7s-.2-1-.4-1.4c-.2-.4-.4-.7-.6-1-.3-.2-.6-.4-1-.4-1.4.2-2.1 1.7-2.1 4.6zM403.9 78.6l.3 2.2h.1l.3-2.2 1.8-7.4h2.4L405 83.9h-1.7l-3.9-12.7h2.7l1.8 7.4zM409.4 71.2h6.3v2.1h-4v3.1h3.7v2.1h-3.7v3.2h4.1v2.1h-6.4V71.2zM417.1 71.4c.5-.1 1-.2 1.6-.2.6 0 1-.1 1.5-.1s1 .1 1.5.2.9.3 1.3.6.7.6.9 1.1c.2.5.4 1 .4 1.8 0 1-.2 1.9-.6 2.5-.4.6-.9 1.1-1.6 1.3l.7.6 2.3 4.8h-2.6l-2.2-5-1-.2V84H417V71.4zm2.3 5.7h.8c.6 0 1-.2 1.3-.5.3-.3.4-.9.4-1.6 0-.5-.1-1-.4-1.3-.2-.3-.6-.5-1.1-.5h-.6c-.2 0-.3 0-.4.1v3.8zM432.6 77.6l-.8-2.2h-.1l.3 2.2v6.2h-2.1V71.1h1.7l3.6 6.3.8 2.2h.1l-.3-2.1v-6.3h2.1v12.7h-1.7l-3.6-6.3zM439.3 77.5c0-2.1.4-3.8 1.1-4.9.7-1.1 1.8-1.7 3.3-1.7.8 0 1.5.2 2 .5s1 .7 1.4 1.3c.4.6.6 1.3.8 2.1.2.8.3 1.7.3 2.7 0 2.1-.4 3.8-1.1 4.9-.8 1.1-1.9 1.7-3.3 1.7-.8 0-1.5-.2-2-.5s-1-.7-1.4-1.3c-.4-.6-.6-1.3-.8-2.1s-.3-1.7-.3-2.7zm2.3 0c0 .6 0 1.2.1 1.8.1.5.2 1 .4 1.4.2.4.4.7.6.9.3.2.6.3 1 .3.7 0 1.2-.4 1.6-1.1.3-.7.5-1.8.5-3.4 0-.6 0-1.2-.1-1.7s-.2-1-.4-1.4c-.2-.4-.4-.7-.6-1-.3-.2-.6-.4-1-.4-1.4.2-2.1 1.7-2.1 4.6zM449.5 71.2c.2 0 .5-.1.7-.1s.5 0 .8-.1h1.5c1 0 1.8.2 2.5.5s1.2.7 1.6 1.3.7 1.2.9 2c.2.8.3 1.7.3 2.6 0 .9-.1 1.7-.2 2.5-.2.8-.4 1.5-.9 2.1-.4.6-1 1.1-1.7 1.4-.7.4-1.6.5-2.6.5H451c-.3 0-.6 0-.8-.1s-.5 0-.6-.1V71.2zm3.3 1.9h-1.1v8.7h1c.5 0 1-.1 1.3-.4s.6-.6.8-1c.2-.4.3-.9.4-1.4.1-.5.1-1.1.1-1.7 0-.6 0-1.1-.1-1.6s-.2-1-.4-1.4c-.2-.4-.4-.7-.8-.9-.2-.1-.6-.3-1.2-.3zM459.1 71.2h6.3v2.1h-4v3.1h3.7v2.1h-3.7v3.2h4.1v2.1h-6.4V71.2z" class="st5"/><circle cx="415" cy="137" r="30" class="st6"/><path d="M399.7 134.8v14.9h17.9v-10.6h-4.8v5.7h-8.3v-9.9c0-1.2.3-2.4.8-3.6.5-1.2 1.3-2.3 2.3-3.2.9-.8 2-1.5 3.2-2 1.3-.5 2.6-.7 4.1-.7 1.3 0 2.7.3 3.9.8 1.3.5 2.4 1.2 3.3 2.1.9.9 1.7 1.9 2.1 3.1.5 1.1.7 2.3.7 3.5v14.9h5v-14.6c0-2.1-.4-4.1-1.1-5.9-.7-1.8-1.8-3.4-3.2-4.8-1.5-1.5-3.1-2.6-4.9-3.4-1.8-.8-3.8-1.2-5.8-1.2s-3.9.3-5.6 1c-1.7.6-3.3 1.6-4.7 2.8-1.7 1.5-2.9 3.1-3.7 5-.8 1.9-1.2 3.9-1.2 6.1z" class="st7"/><g><path d="M457 179h-84c-1.7 0-3-1.3-3-3v-11c0-1.7 1.3-3 3-3h84c1.7 0 3 1.3 3 3v11c0 1.7-1.3 3-3 3z" class="st13"/><path d="M378.4 172.5H376l-.6 1.7H374l2.8-7.8h1.1l2.8 7.8H379l-.6-1.7zm-2-1.2h1.6l-.6-1.7-.2-1.2h-.1l-.2 1.2-.5 1.7zM385.7 174.2c0 .8-.2 1.4-.6 1.8s-1 .6-1.8.6c-.5 0-.9 0-1.2-.1s-.5-.2-.7-.2l.3-1.1c.2.1.4.1.6.2.2.1.5.1.8.1.5 0 .8-.1 1-.3.2-.2.3-.5.3-.9v-.4c-.3.3-.7.5-1.4.5s-1.2-.2-1.6-.7c-.3-.4-.5-1.1-.5-2.1s.2-1.7.7-2.2 1.2-.8 2-.8c.5 0 .9 0 1.3.1s.7.1.9.2v5.3zm-2.4-1.1c.3 0 .5-.1.6-.2.2-.1.3-.3.3-.6v-2.5c-.2-.1-.5-.1-.8-.1-.4 0-.7.1-.9.4-.2.3-.3.7-.3 1.3 0 .5.1.9.3 1.2.2.4.4.5.8.5zM391.6 174.2c0 .8-.2 1.4-.6 1.8s-1 .6-1.8.6c-.5 0-.9 0-1.2-.1s-.5-.2-.7-.2l.3-1.1c.2.1.4.1.6.2.2.1.5.1.8.1.5 0 .8-.1 1-.3.2-.2.3-.5.3-.9v-.4c-.3.3-.7.5-1.4.5s-1.2-.2-1.6-.7c-.3-.4-.5-1.1-.5-2.1s.2-1.7.7-2.2 1.2-.8 2-.8c.5 0 .9 0 1.3.1s.7.1.9.2v5.3zm-2.4-1.1c.3 0 .5-.1.6-.2.2-.1.3-.3.3-.6v-2.5c-.2-.1-.5-.1-.8-.1-.4 0-.7.1-.9.4-.2.3-.3.7-.3 1.3 0 .5.1.9.3 1.2.2.4.4.5.8.5zM395.9 170c-.2-.1-.4-.1-.6-.1-.3 0-.5.1-.6.2s-.3.3-.3.5v3.6H393v-5.5h1.1l.2.7c.1-.3.3-.5.5-.6.2-.1.5-.2.7-.2.2 0 .4 0 .6.1l-.2 1.3zM401.1 173.7c-.2.2-.5.3-.9.4-.4.1-.8.2-1.2.2-.9 0-1.5-.3-1.9-.8-.4-.5-.6-1.2-.6-2.1 0-1 .2-1.7.7-2.2.5-.5 1.1-.7 1.9-.7.3 0 .6 0 .8.1.3.1.5.2.7.4.2.2.4.4.5.7.1.3.2.6.2 1.1v.5c0 .2 0 .4-.1.5h-3.3c0 .5.1.8.4 1 .2.2.6.4 1 .4.3 0 .6 0 .8-.1.2-.1.4-.2.5-.3l.5.9zm-2.1-4c-.4 0-.6.1-.8.3s-.3.5-.3.9h2c0-.4 0-.7-.2-.9-.1-.2-.3-.3-.7-.3zM405 170.2h2.9v3.4c-.3.3-.7.4-1.1.6-.4.1-.9.2-1.3.2-.5 0-.9-.1-1.4-.2s-.8-.4-1.1-.7c-.3-.3-.6-.7-.7-1.2-.2-.5-.3-1.1-.3-1.8s.1-1.3.3-1.9.5-.9.8-1.2c.3-.3.7-.5 1.1-.7.4-.1.9-.2 1.3-.2s.8 0 1.2.1c.3.1.6.1.8.2l-.3 1.3c-.2-.1-.4-.1-.6-.2-.2 0-.5-.1-.9-.1-.3 0-.6 0-.9.1-.3.1-.5.3-.7.5-.2.2-.3.5-.5.8-.1.3-.2.7-.2 1.2s.1.9.2 1.2c.1.3.2.6.4.8.2.2.4.4.6.5s.5.2.8.2c.2 0 .4 0 .6-.1.2 0 .3-.1.5-.2v-1.5l-1.7-.2v-.9zM408.9 169c.3-.1.6-.2 1-.3.4-.1.8-.1 1.3-.1.4 0 .7 0 1 .1s.5.2.6.4c.1.2.3.4.3.6.1.2.1.5.1.8v2.9c0 .3.1.6.2.8h-1.2l-.2-.8h-.1c-.1.2-.4.4-.6.6s-.6.2-1 .2c-.3 0-.5 0-.7-.1-.2-.1-.4-.2-.5-.3-.1-.1-.3-.3-.3-.5s-.1-.4-.1-.7c0-.3.1-.6.2-.9l.6-.6c.3-.1.6-.2 1-.3.4-.1.8-.1 1.3 0 .1-.4 0-.7-.1-.9-.1-.2-.4-.3-.7-.3-.3 0-.6 0-.9.1-.3.1-.6.1-.8.2l-.4-.9zm1.9 4.1c.3 0 .5-.1.7-.2.2-.1.3-.3.4-.4v-.7h-.7c-.3 0-.4 0-.6.1-.2.1-.3.1-.4.2-.1.1-.1.2-.1.4s.1.4.2.5c.1.1.2.1.5.1zM413.9 168.7h.8v-1l1.4-.4v1.4h1.3v1.2H416v2.1c0 .4 0 .7.1.8.1.2.2.2.4.2h.4c.1 0 .2-.1.4-.1l.3 1.1c-.2.1-.4.2-.7.2-.3.1-.5.1-.8.1-.5 0-.9-.1-1.1-.4-.2-.3-.4-.7-.4-1.3v-2.8h-.8v-1.1zM422.6 173.7c-.2.2-.5.3-.9.4-.4.1-.8.2-1.2.2-.9 0-1.5-.3-1.9-.8-.4-.5-.6-1.2-.6-2.1 0-1 .2-1.7.7-2.2.5-.5 1.1-.7 1.9-.7.3 0 .6 0 .8.1.3.1.5.2.7.4.2.2.4.4.5.7.1.3.2.6.2 1.1v.5c0 .2 0 .4-.1.5h-3.3c0 .5.1.8.4 1 .2.2.6.4 1 .4.3 0 .6 0 .8-.1.2-.1.4-.2.5-.3l.5.9zm-2-4c-.4 0-.6.1-.8.3s-.3.5-.3.9h2c0-.4 0-.7-.2-.9-.2-.2-.4-.3-.7-.3zM429.9 172.1c0-.2-.1-.4-.3-.6-.2-.1-.4-.3-.6-.4-.3-.1-.5-.2-.8-.4-.3-.1-.6-.3-.8-.5-.3-.2-.5-.4-.6-.7s-.3-.6-.3-1.1c0-.4.1-.7.2-1 .1-.3.3-.5.5-.7.2-.2.5-.3.8-.4.3-.1.7-.1 1.1-.1.4 0 .9 0 1.3.1s.7.2 1 .3l-.5 1.3c-.2-.1-.4-.2-.7-.3-.3-.1-.7-.1-1-.1-.4 0-.6.1-.8.2-.2.1-.3.3-.3.6 0 .2.1.4.3.6.2.1.4.3.6.4.3.1.5.3.8.4.3.1.6.3.8.5.3.2.5.4.6.7.2.3.3.6.3 1s-.1.8-.2 1.1c-.1.3-.3.5-.6.7-.2.2-.5.3-.9.4-.3.1-.7.1-1.1.1-.5 0-1-.1-1.5-.2s-.7-.2-.9-.3l.5-1.3c.1 0 .2.1.3.1.1.1.3.1.4.1.2 0 .3.1.5.1h.6c.4 0 .8-.1 1-.2.2.2.3-.1.3-.4zM436.8 173.7c-.2.2-.5.3-.9.4-.4.1-.8.2-1.2.2-.9 0-1.5-.3-1.9-.8-.4-.5-.6-1.2-.6-2.1 0-1 .2-1.7.7-2.2.5-.5 1.1-.7 1.9-.7.3 0 .6 0 .8.1.3.1.5.2.7.4.2.2.4.4.5.7.1.3.2.6.2 1.1v.5c0 .2 0 .4-.1.5h-3.3c0 .5.1.8.4 1 .2.2.6.4 1 .4.3 0 .6 0 .8-.1.2-.1.4-.2.5-.3l.5.9zm-2-4c-.4 0-.6.1-.8.3s-.3.5-.3.9h2c0-.4 0-.7-.2-.9-.2-.2-.4-.3-.7-.3zM441 170c-.2-.1-.4-.1-.6-.1-.3 0-.5.1-.6.2s-.3.3-.3.5v3.6H438v-5.5h1.1l.2.7c.1-.3.3-.5.5-.6.2-.1.5-.2.7-.2.2 0 .4 0 .6.1l-.1 1.3zM443.8 171.6l.2.8h.1l.2-.9.9-2.9h1.5l-2.3 5.6h-.9l-2.4-5.6h1.7l1 3zM451.4 173.7c-.2.2-.5.3-.9.4-.4.1-.8.2-1.2.2-.9 0-1.5-.3-1.9-.8-.4-.5-.6-1.2-.6-2.1 0-1 .2-1.7.7-2.2.5-.5 1.1-.7 1.9-.7.3 0 .6 0 .8.1.3.1.5.2.7.4.2.2.4.4.5.7.1.3.2.6.2 1.1v.5c0 .2 0 .4-.1.5h-3.3c0 .5.1.8.4 1 .2.2.6.4 1 .4.3 0 .6 0 .8-.1.2-.1.4-.2.5-.3l.5.9zm-2-4c-.4 0-.6.1-.8.3s-.3.5-.3.9h2c0-.4 0-.7-.2-.9-.2-.2-.4-.3-.7-.3zM455.7 170c-.2-.1-.4-.1-.6-.1-.3 0-.5.1-.6.2s-.3.3-.3.5v3.6h-1.4v-5.5h1.1l.2.7c.1-.3.3-.5.5-.6.2-.1.5-.2.7-.2.2 0 .4 0 .6.1l-.2 1.3z" class="st7"/></g><g><path d="M442 273h-54c-1.7 0-3-1.3-3-3v-11c0-1.7 1.3-3 3-3h54c1.7 0 3 1.3 3 3v11c0 1.7-1.3 3-3 3z" class="st13"/><path d="M393.8 260.5c.2 0 .3 0 .5-.1s.4 0 .6 0h1.1c.7 0 1.3.1 1.7.3.5.2.9.5 1.2.8.3.3.5.8.7 1.2.1.5.2 1 .2 1.6 0 .5-.1 1-.2 1.5s-.4.9-.7 1.3c-.3.4-.7.7-1.2.9-.5.2-1.1.3-1.9.3h-2.1v-7.8zm2.4 1.2h-.9v5.2h.7c.4 0 .8-.1 1.1-.2s.5-.4.7-.6.3-.5.3-.9.1-.7.1-1c0-.3 0-.6-.1-.9-.1-.3-.2-.6-.3-.8l-.6-.6c-.2-.1-.6-.2-1-.2zM400.9 263c.3-.1.6-.2 1-.3.4-.1.8-.1 1.3-.1.4 0 .7 0 1 .1s.5.2.6.4c.1.2.3.4.3.6.1.2.1.5.1.8v2.9c0 .3.1.6.2.8h-1.2l-.2-.8h-.1c-.1.2-.4.4-.6.6s-.6.2-1 .2c-.3 0-.5 0-.7-.1-.2-.1-.4-.2-.5-.3-.1-.1-.3-.3-.3-.5s-.1-.4-.1-.7c0-.3.1-.6.2-.9l.6-.6c.3-.1.6-.2 1-.3.4-.1.8-.1 1.3 0 .1-.4 0-.7-.1-.9-.1-.2-.4-.3-.7-.3-.3 0-.6 0-.9.1-.3.1-.6.1-.8.2l-.4-.9zm1.8 4.1c.3 0 .5-.1.7-.2.2-.1.3-.3.4-.4v-.7h-.7c-.3 0-.4 0-.6.1-.2.1-.3.1-.4.2-.1.1-.1.2-.1.4s.1.4.2.5c.1.1.3.1.5.1zM405.8 262.7h.8v-1l1.4-.4v1.4h1.3v1.2H408v2.1c0 .4 0 .7.1.8.1.2.2.2.4.2h.4c.1 0 .2-.1.4-.1l.3 1.1c-.2.1-.4.2-.7.2-.3.1-.5.1-.8.1-.5 0-.9-.1-1.1-.4-.2-.3-.4-.7-.4-1.3v-2.8h-.8v-1.1zM410.2 263c.3-.1.6-.2 1-.3.4-.1.8-.1 1.3-.1.4 0 .7 0 1 .1s.5.2.6.4c.1.2.3.4.3.6.1.2.1.5.1.8v2.9c0 .3.1.6.2.8h-1.2l-.2-.8h-.1c-.1.2-.4.4-.6.6s-.6.2-1 .2c-.3 0-.5 0-.7-.1-.2-.1-.4-.2-.5-.3-.1-.1-.3-.3-.3-.5s-.1-.4-.1-.7c0-.3.1-.6.2-.9l.6-.6c.3-.1.6-.2 1-.3.4-.1.8-.1 1.3 0 .1-.4 0-.7-.1-.9-.1-.2-.4-.3-.7-.3-.3 0-.6 0-.9.1-.3.1-.6.1-.8.2l-.4-.9zm1.8 4.1c.3 0 .5-.1.7-.2.2-.1.3-.3.4-.4v-.7h-.7c-.3 0-.4 0-.6.1-.2.1-.3.1-.4.2-.1.1-.1.2-.1.4s.1.4.2.5c.1.1.3.1.5.1zM415.7 260.5h1.4v2.6c.2-.2.4-.3.6-.4.2-.1.5-.2.8-.2.7 0 1.2.2 1.5.7.3.5.5 1.1.5 2.1s-.2 1.7-.7 2.3c-.5.5-1.2.8-2 .8-.5 0-.9 0-1.3-.1s-.7-.2-.9-.3v-7.5zm2.4 3.3c-.3 0-.5.1-.6.2s-.3.3-.4.6v2.4c.1.1.2.1.4.1h.4c.4 0 .7-.1.9-.4.2-.3.3-.7.3-1.3 0-1.1-.3-1.6-1-1.6zM421.5 263c.3-.1.6-.2 1-.3.4-.1.8-.1 1.3-.1.4 0 .7 0 1 .1s.5.2.6.4c.1.2.3.4.3.6.1.2.1.5.1.8v2.9c0 .3.1.6.2.8h-1.2l-.2-.8h-.1c-.1.2-.4.4-.6.6s-.6.2-1 .2c-.3 0-.5 0-.7-.1-.2-.1-.4-.2-.5-.3-.1-.1-.3-.3-.3-.5s-.1-.4-.1-.7c0-.3.1-.6.2-.9l.6-.6c.3-.1.6-.2 1-.3.4-.1.8-.1 1.3 0 .1-.4 0-.7-.1-.9-.1-.2-.4-.3-.7-.3-.3 0-.6 0-.9.1-.3.1-.6.1-.8.2l-.4-.9zm1.9 4.1c.3 0 .5-.1.7-.2.2-.1.3-.3.4-.4v-.7h-.7c-.3 0-.4 0-.6.1-.2.1-.3.1-.4.2-.1.1-.1.2-.1.4s.1.4.2.5c.1.1.2.1.5.1zM429.3 266.7c0-.1-.1-.3-.2-.4-.1-.1-.3-.2-.5-.2s-.4-.1-.6-.2l-.6-.3c-.2-.1-.3-.3-.5-.5-.1-.2-.2-.5-.2-.8 0-.5.2-1 .5-1.2.3-.3.8-.4 1.4-.4.4 0 .8 0 1.1.1.3.1.6.2.8.3l-.3 1c-.2-.1-.4-.1-.6-.2-.3-.1-.5-.1-.8-.1-.4 0-.6.2-.6.5 0 .1.1.2.2.3.1.1.3.2.5.2.2.1.4.1.6.2l.6.3c.2.1.3.3.5.5s.2.5.2.8c0 .6-.2 1-.5 1.3-.4.3-.9.5-1.6.5-.4 0-.8 0-1.1-.1-.3-.1-.6-.2-.8-.3l.4-1.1c.2.1.4.2.7.3.3.1.6.1.9.1.2 0 .4 0 .5-.1-.1-.2 0-.3 0-.5zM436.1 267.7c-.2.2-.5.3-.9.4-.4.1-.8.2-1.2.2-.9 0-1.5-.3-1.9-.8-.4-.5-.6-1.2-.6-2.1 0-1 .2-1.7.7-2.2.5-.5 1.1-.7 1.9-.7.3 0 .6 0 .8.1.3.1.5.2.7.4.2.2.4.4.5.7.1.3.2.6.2 1.1v.5c0 .2 0 .4-.1.5h-3.3c0 .5.1.8.4 1 .2.2.6.4 1 .4.3 0 .6 0 .8-.1.2-.1.4-.2.5-.3l.5.9zm-2.1-4c-.4 0-.6.1-.8.3s-.3.5-.3.9h2c0-.4 0-.7-.2-.9-.1-.2-.3-.3-.7-.3z" class="st7"/></g><g id="db_x5F_02_7_"><path d="M441 242v-32.5c0-6.9-6.5-11.2-10.5-13.1-5.1-2.3-10.1-3.2-15.5-3.2s-10.4.8-15.5 3.2c-4 1.9-10.5 6.1-10.5 13.1V242c0 6.9 6.5 11.2 10.5 13.1 5.1 2.3 10.1 3.2 15.5 3.2s10.4-.8 15.5-3.2c4-1.9 10.5-6.2 10.5-13.1z" class="st9"/><path d="M389 209.5c0 6.9 6.5 11.2 10.5 13.1 5.1 2.3 10.1 3.2 15.5 3.2s10.4-.8 15.5-3.2c4-1.9 10.5-6.1 10.5-13.1" class="st10"/><path d="M389 220.9c0 6.9 6.5 11.2 10.5 13.1 5.1 2.3 10.1 3.2 15.5 3.2s10.4-.8 15.5-3.2c4-1.9 10.5-6.1 10.5-13.1" class="st10"/><path d="M389 232.4c0 6.9 6.5 11.2 10.5 13.1 5.1 2.3 10.1 3.2 15.5 3.2s10.4-.8 15.5-3.2c4-1.9 10.5-6.1 10.5-13.1" class="st10"/><ellipse cx="415" cy="209.5" class="st11" rx="26" ry="16.4"/></g></g><g><path d="M95.6 230h19.8" class="st14"/><path d="M97.4 236L87 230l10.4-6zM113.6 236l10.4-6-10.4-6z" class="st15"/></g><g><path d="M95.6 136h19.8" class="st14"/><path d="M97.4 142L87 136l10.4-6zM113.6 142l10.4-6-10.4-6z" class="st15"/></g><g id="back_x5F_circle_6_"><circle cx="48" cy="136" r="38" class="st16"/><circle cx="48" cy="136" r="38" class="st17"/></g><g id="server_x5F_01_1_"><path d="M63.6 110.5c-.5-.9-1.5-1.5-2.6-1.5H34c-1.1 0-2.1.6-2.6 1.5l-8.7 12.6h49.6l-8.7-12.6z" class="st18"/><path d="M70 158H25c-1.6 0-3-1.4-3-3v-6c0-1.7 1.4-3 3-3h45c1.7 0 3 1.3 3 3v6c0 1.7-1.3 3-3 3z" class="st19"/><circle cx="28" cy="152" r="2.5" class="st20"/><circle cx="35" cy="152" r="2.5" class="st20"/><circle cx="42" cy="152" r="2.5" class="st20"/><circle cx="67" cy="152" r="2.5" class="st21"/><path d="M70 146H25c-1.6 0-3-1.4-3-3v-6c0-1.7 1.4-3 3-3h45c1.7 0 3 1.3 3 3v6c0 1.7-1.3 3-3 3z" class="st19"/><circle cx="28" cy="140" r="2.5" class="st20"/><circle cx="35" cy="140" r="2.5" class="st20"/><circle cx="42" cy="140" r="2.5" class="st20"/><circle cx="67" cy="140" r="2.5" class="st21"/><path d="M70 134H25c-1.6 0-3-1.4-3-3v-6c0-1.7 1.4-3 3-3h45c1.7 0 3 1.3 3 3v6c0 1.7-1.3 3-3 3z" class="st19"/><circle cx="28" cy="128" r="2.5" class="st20"/><circle cx="35" cy="128" r="2.5" class="st20"/><circle cx="42" cy="128" r="2.5" class="st20"/><circle cx="67" cy="128" r="2.5" class="st21"/><path d="M50 126v4M53 125v6M56 125v6M59 126v4M50 138v4M53 137v6M56 137v6M59 138v4M50 150v4M53 149v6M56 149v6M59 150v4M57 112h4M34 112h19" class="st22"/></g><g id="back_x5F_circle_2_"><circle cx="48" cy="230" r="38" class="st16"/><circle cx="48" cy="230" r="38" class="st17"/></g><g><path d="M27 249h42c2.2 0 4-1.8 4-4v-30c0-2.2-1.8-4-4-4H27c-2.2 0-4 1.8-4 4v30c0 2.2 1.8 4 4 4z" class="st23"/><circle cx="65.1" cy="219" r="3" class="st24"/><circle cx="65.1" cy="230" r="3" class="st21"/><circle cx="65.1" cy="241" r="3" class="st25"/><circle cx="43.1" cy="230" r="14" class="st26"/><path d="M56.7 230.8h-6.2l-1.6 4.2-3.7-12.4-4.1 14.8-3.8-10.7-1.6 4.1h-6.2v1.7l2.1 4.9 2.4 3.3 4.2 2.5 4.9.8 5-.8 4.9-3.3 2.5-3.3z" class="st27"/><path d="M56.7 230.8h-6.2l-1.6 4.2-3.7-12.4-4.1 14.8-3.8-10.7-1.6 4.1h-6.2" class="st28"/><circle cx="43.1" cy="230" r="14" class="st29"/></g><g><path d="M534.6 230h19.8" class="st14"/><path d="M536.4 236l-10.4-6 10.4-6zM552.6 236l10.4-6-10.4-6z" class="st15"/></g><g><path d="M534.6 136h19.8" class="st14"/><path d="M536.4 142l-10.4-6 10.4-6zM552.6 142l10.4-6-10.4-6z" class="st15"/></g><g id="back_x5F_circle_10_"><circle cx="602" cy="136" r="38" class="st16"/><circle cx="602" cy="136" r="38" class="st17"/></g><g id="server_x5F_01_2_"><path d="M617.6 110.5c-.5-.9-1.5-1.5-2.6-1.5h-27c-1.1 0-2.1.6-2.6 1.5l-8.7 12.6h49.6l-8.7-12.6z" class="st18"/><path d="M624 158h-45c-1.7 0-3-1.4-3-3v-6c0-1.7 1.3-3 3-3h45c1.7 0 3 1.3 3 3v6c0 1.7-1.3 3-3 3z" class="st19"/><circle cx="582" cy="152" r="2.5" class="st20"/><circle cx="589" cy="152" r="2.5" class="st20"/><circle cx="596" cy="152" r="2.5" class="st20"/><circle cx="621" cy="152" r="2.5" class="st21"/><path d="M624 146h-45c-1.7 0-3-1.4-3-3v-6c0-1.7 1.3-3 3-3h45c1.7 0 3 1.3 3 3v6c0 1.7-1.3 3-3 3z" class="st19"/><circle cx="582" cy="140" r="2.5" class="st20"/><circle cx="589" cy="140" r="2.5" class="st20"/><circle cx="596" cy="140" r="2.5" class="st20"/><circle cx="621" cy="140" r="2.5" class="st21"/><path d="M624 134h-45c-1.7 0-3-1.4-3-3v-6c0-1.7 1.3-3 3-3h45c1.7 0 3 1.3 3 3v6c0 1.7-1.3 3-3 3z" class="st19"/><circle cx="582" cy="128" r="2.5" class="st20"/><circle cx="589" cy="128" r="2.5" class="st20"/><circle cx="596" cy="128" r="2.5" class="st20"/><circle cx="621" cy="128" r="2.5" class="st21"/><path d="M604 126v4M607 125v6M610 125v6M613 126v4M604 138v4M607 137v6M610 137v6M613 138v4M604 150v4M607 149v6M610 149v6M613 150v4M611 112h4M588 112h19" class="st22"/></g><g id="back_x5F_circle_8_"><circle cx="602" cy="230" r="38" class="st16"/><circle cx="602" cy="230" r="38" class="st17"/></g><g><path d="M581 249h42c2.2 0 4-1.8 4-4v-30c0-2.2-1.8-4-4-4h-42c-2.2 0-4 1.8-4 4v30c0 2.2 1.8 4 4 4z" class="st23"/><circle cx="619.1" cy="219" r="3" class="st24"/><circle cx="619.1" cy="230" r="3" class="st21"/><circle cx="619.1" cy="241" r="3" class="st25"/><circle cx="597.1" cy="230" r="14" class="st26"/><path d="M610.7 230.8h-6.2l-1.6 4.2-3.7-12.4-4.1 14.8-3.8-10.7-1.6 4.1h-6.2v1.7l2.1 4.9 2.4 3.3 4.2 2.5 4.9.8 5-.8 4.9-3.3 2.5-3.3z" class="st27"/><path d="M610.7 230.8h-6.2l-1.6 4.2-3.7-12.4-4.1 14.8-3.8-10.7-1.6 4.1h-6.2" class="st28"/><circle cx="597.1" cy="230" r="14" class="st29"/></g><g><path d="M199.6 648h19.8" class="st14"/><path d="M201.4 654l-10.4-6 10.4-6zM217.6 654l10.4-6-10.4-6z" class="st15"/></g><g><path d="M199.6 554h19.8" class="st14"/><path d="M201.4 560l-10.4-6 10.4-6zM217.6 560l10.4-6-10.4-6z" class="st15"/></g><g id="back_x5F_circle_14_"><circle cx="267" cy="554" r="38" class="st16"/><circle cx="267" cy="554" r="38" class="st17"/></g><g id="server_x5F_01_3_"><path d="M282.6 528.5c-.5-.9-1.5-1.5-2.6-1.5h-27c-1.1 0-2.1.6-2.6 1.5l-8.7 12.6h49.6l-8.7-12.6z" class="st18"/><path d="M289 576h-45c-1.6 0-3-1.4-3-3v-6c0-1.7 1.4-3 3-3h45c1.6 0 3 1.3 3 3v6c0 1.7-1.4 3-3 3z" class="st19"/><circle cx="247" cy="570" r="2.5" class="st20"/><circle cx="254" cy="570" r="2.5" class="st20"/><circle cx="261" cy="570" r="2.5" class="st20"/><circle cx="286" cy="570" r="2.5" class="st21"/><path d="M289 564h-45c-1.6 0-3-1.4-3-3v-6c0-1.7 1.4-3 3-3h45c1.6 0 3 1.3 3 3v6c0 1.7-1.4 3-3 3z" class="st19"/><circle cx="247" cy="558" r="2.5" class="st20"/><circle cx="254" cy="558" r="2.5" class="st20"/><circle cx="261" cy="558" r="2.5" class="st20"/><circle cx="286" cy="558" r="2.5" class="st21"/><path d="M289 552h-45c-1.6 0-3-1.4-3-3v-6c0-1.7 1.4-3 3-3h45c1.6 0 3 1.3 3 3v6c0 1.7-1.4 3-3 3z" class="st19"/><circle cx="247" cy="546" r="2.5" class="st20"/><circle cx="254" cy="546" r="2.5" class="st20"/><circle cx="261" cy="546" r="2.5" class="st20"/><circle cx="286" cy="546" r="2.5" class="st21"/><path d="M269 544v4M272 543v6M275 543v6M278 544v4M269 556v4M272 555v6M275 555v6M278 556v4M269 568v4M272 567v6M275 567v6M278 568v4M276 530h4M253 530h19" class="st22"/></g><g id="back_x5F_circle_12_"><circle cx="267" cy="648" r="38" class="st16"/><circle cx="267" cy="648" r="38" class="st17"/></g><g><path d="M246 667h42c2.2 0 4-1.8 4-4v-30c0-2.2-1.8-4-4-4h-42c-2.2 0-4 1.8-4 4v30c0 2.2 1.8 4 4 4z" class="st23"/><circle cx="284.1" cy="637" r="3" class="st24"/><circle cx="284.1" cy="648" r="3" class="st21"/><circle cx="284.1" cy="659" r="3" class="st25"/><circle cx="262.1" cy="648" r="14" class="st26"/><path d="M275.7 648.8h-6.2l-1.6 4.2-3.7-12.4-4.1 14.8-3.8-10.7-1.6 4.1h-6.2v1.7l2.1 4.9 2.4 3.3 4.2 2.5 4.9.8 5-.8 4.9-3.3 2.5-3.3z" class="st27"/><path d="M275.7 648.8h-6.2l-1.6 4.2-3.7-12.4-4.1 14.8-3.8-10.7-1.6 4.1h-6.2" class="st28"/><circle cx="262.1" cy="648" r="14" class="st29"/></g><g><path d="M430.6 648h19.8" class="st14"/><path d="M432.4 654l-10.4-6 10.4-6zM448.6 654l10.4-6-10.4-6z" class="st15"/></g><g><path d="M430.6 554h19.8" class="st14"/><path d="M432.4 560l-10.4-6 10.4-6zM448.6 560l10.4-6-10.4-6z" class="st15"/></g><g id="back_x5F_circle_18_"><circle cx="383" cy="554" r="38" class="st16"/><circle cx="383" cy="554" r="38" class="st17"/></g><g id="server_x5F_01_4_"><path d="M398.6 528.5c-.5-.9-1.5-1.5-2.6-1.5h-27c-1.1 0-2.1.6-2.6 1.5l-8.7 12.6h49.6l-8.7-12.6z" class="st18"/><path d="M405 576h-45c-1.6 0-3-1.4-3-3v-6c0-1.7 1.4-3 3-3h45c1.6 0 3 1.3 3 3v6c0 1.7-1.4 3-3 3z" class="st19"/><circle cx="363" cy="570" r="2.5" class="st20"/><circle cx="370" cy="570" r="2.5" class="st20"/><circle cx="377" cy="570" r="2.5" class="st20"/><circle cx="402" cy="570" r="2.5" class="st21"/><path d="M405 564h-45c-1.6 0-3-1.4-3-3v-6c0-1.7 1.4-3 3-3h45c1.6 0 3 1.3 3 3v6c0 1.7-1.4 3-3 3z" class="st19"/><circle cx="363" cy="558" r="2.5" class="st20"/><circle cx="370" cy="558" r="2.5" class="st20"/><circle cx="377" cy="558" r="2.5" class="st20"/><circle cx="402" cy="558" r="2.5" class="st21"/><path d="M405 552h-45c-1.6 0-3-1.4-3-3v-6c0-1.7 1.4-3 3-3h45c1.6 0 3 1.3 3 3v6c0 1.7-1.4 3-3 3z" class="st19"/><circle cx="363" cy="546" r="2.5" class="st20"/><circle cx="370" cy="546" r="2.5" class="st20"/><circle cx="377" cy="546" r="2.5" class="st20"/><circle cx="402" cy="546" r="2.5" class="st21"/><path d="M385 544v4M388 543v6M391 543v6M394 544v4M385 556v4M388 555v6M391 555v6M394 556v4M385 568v4M388 567v6M391 567v6M394 568v4M392 530h4M369 530h19" class="st22"/></g><g id="back_x5F_circle_16_"><circle cx="383" cy="648" r="38" class="st16"/><circle cx="383" cy="648" r="38" class="st17"/></g><g><path d="M362 667h42c2.2 0 4-1.8 4-4v-30c0-2.2-1.8-4-4-4h-42c-2.2 0-4 1.8-4 4v30c0 2.2 1.8 4 4 4z" class="st23"/><circle cx="400.1" cy="637" r="3" class="st24"/><circle cx="400.1" cy="648" r="3" class="st21"/><circle cx="400.1" cy="659" r="3" class="st25"/><circle cx="378.1" cy="648" r="14" class="st26"/><path d="M391.7 648.8h-6.2l-1.6 4.2-3.7-12.4-4.1 14.8-3.8-10.7-1.6 4.1h-6.2v1.7l2.1 4.9 2.4 3.3 4.2 2.5 4.9.8 5-.8 4.9-3.3 2.5-3.3z" class="st27"/><path d="M391.7 648.8h-6.2l-1.6 4.2-3.7-12.4-4.1 14.8-3.8-10.7-1.6 4.1h-6.2" class="st28"/><circle cx="378.1" cy="648" r="14" class="st29"/></g><path id="cloud_1_" fill="#f4f5f5" stroke="#44b2e5" stroke-miterlimit="10" stroke-width="4" d="M373.3 389.4c-.3-18.8-15.2-34.3-34.2-35.2-16.2-.8-30.3 9.3-35.5 23.8-2.5-1.1-5.2-1.7-8-1.9-11.6-.5-21.7 7.7-23.6 18.9h-.3c-10-.5-18.5 7.3-19 17.3s7.3 18.5 17.3 19c1.2.1 2.4 0 3.5-.2 5.1 7.6 13.7 12.8 23.6 13.3 8.5.4 16.3-2.8 22-8.2 3.9 4.3 9.4 7.1 15.7 7.4 8.5.4 16.2-4 20.4-10.8 3.1 1.7 6.6 2.8 10.4 3 13.1.6 24.1-9.5 24.8-22.5.5-11.2-6.8-21-17.1-23.9z"/><g><path d="M287.4 372.4v-26h-53.8v-13.9" class="st14"/><path d="M239.6 334.2l-6-10.3-6 10.3z" class="st15"/></g><path d="M287.4 438.2V381" class="st31"/><path d="M110 474.3v-22.6h177.4v-4.2" class="st14"/><g><path d="M363 359.2v-12.8h53.8v-13.9" class="st14"/><path d="M422.8 334.2l-6-10.3-6 10.3z" class="st15"/></g><path d="M363 430.7v-58" class="st31"/><path d="M540 474.3v-22.6H363V440" class="st14"/><g><path d="M151.9 436.7c0 1.1-.3 2-.9 2.6-.6.6-1.4.9-2.5.9h-.5v3.9h-2v-10.7h2.7c2.1 0 3.2 1.1 3.2 3.3zm-3.9 1.8h.4c.5 0 .9-.1 1.1-.4.2-.3.4-.7.4-1.3 0-.6-.1-1-.3-1.3-.2-.3-.6-.4-1-.4h-.6v3.4zM155.2 440v4.2h-2v-10.7h2.6c1.1 0 1.9.3 2.5.8.5.5.8 1.3.8 2.4 0 1.4-.5 2.3-1.4 2.8l2.1 4.7h-2.1L156 440h-.8zm0-1.7h.5c.5 0 .8-.1 1-.4.2-.3.3-.7.3-1.2s-.1-.9-.3-1.2-.6-.3-1-.3h-.5v3.1zM168.2 438.8c0 1.8-.3 3.1-1 4.1-.7 1-1.6 1.4-2.9 1.4-1.2 0-2.2-.5-2.9-1.4-.7-1-1-2.3-1-4.1 0-1.8.3-3.1 1-4.1.7-.9 1.6-1.4 2.9-1.4 1.2 0 2.2.5 2.9 1.4s1 2.3 1 4.1zm-5.7 0c0 1.2.2 2.2.5 2.8s.8 1 1.4 1c1.2 0 1.8-1.3 1.8-3.8s-.6-3.8-1.8-3.8c-.6 0-1.1.3-1.4 1-.4.6-.5 1.5-.5 2.8zM174.1 433.4h2l-2.5 10.7h-2.5l-2.5-10.7h2l1.4 6.6c.1.6.3 1.4.4 2.4.1-.9.2-1.7.4-2.4l1.3-6.6zM177.4 444.2v-10.7h1.9v10.7h-1.9zM188.4 438.7c0 1.8-.4 3.1-1.1 4.1-.7.9-1.8 1.4-3.1 1.4h-2.6v-10.7h2.9c1.2 0 2.2.5 2.9 1.4.7.8 1 2.1 1 3.8zm-2 0c0-2.4-.7-3.6-2-3.6h-.8v7.3h.6c.7 0 1.3-.3 1.6-.9s.6-1.5.6-2.8zM194.8 444.2H190v-10.7h4.8v1.7H192v2.6h2.6v1.7H192v3h2.8v1.7zM198.4 440v4.2h-2v-10.7h2.6c1.1 0 1.9.3 2.5.8.5.5.8 1.3.8 2.4 0 1.4-.5 2.3-1.4 2.8l2.1 4.7h-2.1l-1.7-4.2h-.8zm0-1.7h.5c.5 0 .8-.1 1-.4.2-.3.3-.7.3-1.2s-.1-.9-.3-1.2-.6-.3-1-.3h-.5v3.1z" class="st5"/></g><g><path d="M214 355.9c-.6 0-1 .3-1.4 1s-.5 1.6-.5 2.8c0 2.5.6 3.7 1.9 3.7.6 0 1.2-.2 1.8-.5v1.8c-.5.3-1.2.5-2 .5-1.2 0-2.1-.5-2.8-1.4-.6-1-1-2.3-1-4.1s.3-3.1 1-4.1c.7-1 1.6-1.5 2.8-1.5.4 0 .8.1 1.1.2.4.1.7.3 1.2.6l-.7 1.6c-.2-.2-.5-.3-.7-.4-.2-.2-.4-.2-.7-.2zM224.5 359.6c0 1.8-.3 3.1-1 4.1-.7 1-1.6 1.4-2.9 1.4-1.2 0-2.2-.5-2.9-1.4-.7-1-1-2.3-1-4.1 0-1.8.3-3.1 1-4.1.7-.9 1.6-1.4 2.9-1.4 1.2 0 2.2.5 2.9 1.4s1 2.3 1 4.1zm-5.7 0c0 1.2.2 2.2.5 2.8s.8 1 1.4 1c1.2 0 1.8-1.3 1.8-3.8s-.6-3.8-1.8-3.8c-.6 0-1.1.3-1.4 1-.3.7-.5 1.6-.5 2.8zM233.6 365h-2.4l-3.3-7.8h-.1c.1.6.2 1.2.2 1.9v5.9h-1.9v-10.7h2.5l3.3 7.7h.1c-.1-.5-.1-1.1-.1-1.8v-5.9h1.8V365zM240.4 362c0 1-.3 1.8-.8 2.3-.5.5-1.2.8-2.2.8-.9 0-1.7-.2-2.4-.6v-2c.8.5 1.5.8 2.2.8.4 0 .7-.1.9-.3.2-.2.3-.5.3-.9s-.1-.7-.3-1c-.2-.3-.6-.6-1.1-1-.5-.3-.8-.6-1-.9-.2-.3-.4-.6-.6-1s-.2-.8-.2-1.3c0-.9.3-1.7.8-2.2.5-.5 1.2-.8 2.1-.8.8 0 1.6.2 2.4.7l-.7 1.6c-.2-.1-.5-.3-.7-.4-.3-.1-.5-.2-.8-.2-.3 0-.6.1-.7.3-.2.2-.3.5-.3.9s.1.7.3.9c.2.3.6.6 1.1.9.7.5 1.2 1 1.5 1.4.1.9.2 1.4.2 2zM248.3 354.3v6.9c0 1.3-.3 2.3-.9 2.9-.6.7-1.4 1-2.5 1s-1.9-.3-2.4-1c-.6-.7-.8-1.7-.8-3v-6.9h2v7.1c0 1.4.5 2 1.4 2 .4 0 .7-.2 1-.5.2-.3.3-.8.3-1.5v-7.1h1.9zM254 365l-2-9.1h-.1c.1.7.1 1.4.1 1.9v7.2h-1.9v-10.7h3.1l1.8 8.4h.1l1.8-8.4h3.1V365h-1.9v-7.3c0-.6 0-1.2.1-1.9h-.1l-2 9.1H254zM266.8 365H262v-10.7h4.8v1.7H264v2.6h2.6v1.7H264v3h2.8v1.7zM270.4 360.8v4.2h-2v-10.7h2.6c1.1 0 1.9.3 2.5.8.5.5.8 1.3.8 2.4 0 1.4-.5 2.3-1.4 2.8l2.1 4.7h-2.1l-1.7-4.2h-.8zm0-1.7h.5c.5 0 .8-.1 1-.4.2-.3.3-.7.3-1.2s-.1-.9-.3-1.2-.6-.3-1-.3h-.5v3.1z" class="st5"/></g><g><path d="M379.3 355.9c-.6 0-1 .3-1.4 1s-.5 1.6-.5 2.8c0 2.5.6 3.7 1.9 3.7.6 0 1.2-.2 1.8-.5v1.8c-.5.3-1.2.5-2 .5-1.2 0-2.1-.5-2.8-1.4-.6-1-1-2.3-1-4.1s.3-3.1 1-4.1c.7-1 1.6-1.5 2.8-1.5.4 0 .8.1 1.1.2.4.1.7.3 1.2.6l-.7 1.6c-.2-.2-.5-.3-.7-.4-.1-.2-.4-.2-.7-.2zM389.9 359.6c0 1.8-.3 3.1-1 4.1-.7 1-1.6 1.4-2.9 1.4-1.2 0-2.2-.5-2.9-1.4-.7-1-1-2.3-1-4.1 0-1.8.3-3.1 1-4.1.7-.9 1.6-1.4 2.9-1.4 1.2 0 2.2.5 2.9 1.4s1 2.3 1 4.1zm-5.7 0c0 1.2.2 2.2.5 2.8s.8 1 1.4 1c1.2 0 1.8-1.3 1.8-3.8s-.6-3.8-1.8-3.8c-.6 0-1.1.3-1.4 1-.3.7-.5 1.6-.5 2.8zM399 365h-2.4l-3.3-7.8h-.1c.1.6.2 1.2.2 1.9v5.9h-1.9v-10.7h2.5l3.3 7.7h.1c-.1-.5-.1-1.1-.1-1.8v-5.9h1.8V365zM405.8 362c0 1-.3 1.8-.8 2.3-.5.5-1.2.8-2.2.8-.9 0-1.7-.2-2.4-.6v-2c.8.5 1.5.8 2.2.8.4 0 .7-.1.9-.3.2-.2.3-.5.3-.9s-.1-.7-.3-1c-.2-.3-.6-.6-1.1-1-.5-.3-.8-.6-1-.9-.2-.3-.4-.6-.6-1s-.2-.8-.2-1.3c0-.9.3-1.7.8-2.2.5-.5 1.2-.8 2.1-.8.8 0 1.6.2 2.4.7l-.7 1.6c-.2-.1-.5-.3-.7-.4-.3-.1-.5-.2-.8-.2-.3 0-.6.1-.7.3-.2.2-.3.5-.3.9s.1.7.3.9c.2.3.6.6 1.1.9.7.5 1.2 1 1.5 1.4 0 .9.2 1.4.2 2zM413.7 354.3v6.9c0 1.3-.3 2.3-.9 2.9-.6.7-1.4 1-2.5 1s-1.9-.3-2.4-1c-.6-.7-.8-1.7-.8-3v-6.9h2v7.1c0 1.4.5 2 1.4 2 .4 0 .7-.2 1-.5.2-.3.3-.8.3-1.5v-7.1h1.9zM419.4 365l-2-9.1h-.1c.1.7.1 1.4.1 1.9v7.2h-1.9v-10.7h3.1l1.8 8.4h.1l1.8-8.4h3.1V365h-1.9v-7.3c0-.6 0-1.2.1-1.9h-.1l-2 9.1h-2.1zM432.2 365h-4.8v-10.7h4.8v1.7h-2.8v2.6h2.6v1.7h-2.6v3h2.8v1.7zM435.8 360.8v4.2h-2v-10.7h2.6c1.1 0 1.9.3 2.5.8.5.5.8 1.3.8 2.4 0 1.4-.5 2.3-1.4 2.8l2.1 4.7h-2.1l-1.7-4.2h-.8zm0-1.7h.5c.5 0 .8-.1 1-.4.2-.3.3-.7.3-1.2s-.1-.9-.3-1.2-.6-.3-1-.3h-.5v3.1z" class="st5"/></g><g><path d="M453 436.7c0 1.1-.3 2-.9 2.6-.6.6-1.4.9-2.5.9h-.5v3.9h-2v-10.7h2.7c2.2 0 3.2 1.1 3.2 3.3zm-3.9 1.8h.4c.5 0 .9-.1 1.1-.4.2-.3.4-.7.4-1.3 0-.6-.1-1-.3-1.3-.2-.3-.6-.4-1-.4h-.5v3.4zM456.4 440v4.2h-2v-10.7h2.6c1.1 0 1.9.3 2.5.8.5.5.8 1.3.8 2.4 0 1.4-.5 2.3-1.4 2.8l2.1 4.7h-2.1l-1.7-4.2h-.8zm0-1.7h.5c.5 0 .8-.1 1-.4.2-.3.3-.7.3-1.2s-.1-.9-.3-1.2-.6-.3-1-.3h-.5v3.1zM469.3 438.8c0 1.8-.3 3.1-1 4.1-.7 1-1.6 1.4-2.9 1.4-1.2 0-2.2-.5-2.9-1.4-.7-1-1-2.3-1-4.1 0-1.8.3-3.1 1-4.1.7-.9 1.6-1.4 2.9-1.4 1.2 0 2.2.5 2.9 1.4s1 2.3 1 4.1zm-5.7 0c0 1.2.2 2.2.5 2.8s.8 1 1.4 1c1.2 0 1.8-1.3 1.8-3.8s-.6-3.8-1.8-3.8c-.6 0-1.1.3-1.4 1-.4.6-.5 1.5-.5 2.8zM475.2 433.4h2l-2.5 10.7h-2.5l-2.5-10.7h2l1.4 6.6c.1.6.3 1.4.4 2.4.1-.9.2-1.7.4-2.4l1.3-6.6zM478.5 444.2v-10.7h1.9v10.7h-1.9zM489.5 438.7c0 1.8-.4 3.1-1.1 4.1-.7.9-1.8 1.4-3.1 1.4h-2.6v-10.7h2.9c1.2 0 2.2.5 2.9 1.4.7.8 1 2.1 1 3.8zm-2 0c0-2.4-.7-3.6-2-3.6h-.8v7.3h.6c.7 0 1.3-.3 1.6-.9s.6-1.5.6-2.8zM495.9 444.2h-4.8v-10.7h4.8v1.7h-2.8v2.6h2.6v1.7h-2.6v3h2.8v1.7zM499.5 440v4.2h-2v-10.7h2.6c1.1 0 1.9.3 2.5.8.5.5.8 1.3.8 2.4 0 1.4-.5 2.3-1.4 2.8l2.1 4.7H502l-1.7-4.2h-.8zm0-1.7h.5c.5 0 .8-.1 1-.4.2-.3.3-.7.3-1.2s-.1-.9-.3-1.2-.6-.3-1-.3h-.5v3.1z" class="st5"/></g><g><path d="M178 715H42c-6.6 0-12-5.4-12-12V514h160v189c0 6.6-5.4 12-12 12z" class="st3"/><path d="M190 514H30v-28c0-6.6 5.4-12 12-12h136c6.6 0 12 5.4 12 12v28z" class="st32"/><path d="M43.7 489.5c0 .8-.2 1.4-.6 1.8-.4.4-1 .6-1.8.6s-1.4-.1-2-.4v-1.6c.7.4 1.3.6 1.8.6.3 0 .6-.1.7-.3.2-.2.2-.4.2-.7 0-.3-.1-.5-.3-.8s-.5-.5-.9-.8c-.4-.3-.7-.5-.9-.7-.2-.2-.3-.5-.5-.8-.1-.3-.2-.6-.2-1 0-.7.2-1.3.6-1.8.4-.4 1-.6 1.7-.6s1.3.2 2 .6l-.5 1.3-.6-.3c-.2-.1-.4-.1-.7-.1-.3 0-.5.1-.6.3-.1.2-.2.4-.2.7 0 .3.1.5.3.8.2.2.5.5.9.7.6.4 1 .8 1.2 1.2.3.3.4.8.4 1.3zM47.2 492c-.8 0-1.5-.3-2-.9s-.7-1.4-.7-2.5.2-1.9.7-2.5c.4-.6 1.1-.9 1.9-.9.7 0 1.3.3 1.7.8.4.5.6 1.2.6 2.2v.8h-3.3c0 .6.1 1 .4 1.3.2.3.6.4 1 .4.5 0 1.1-.2 1.6-.5v1.3c-.5.3-1.2.5-1.9.5zm-.2-5.6c-.2 0-.4.1-.6.4-.2.2-.2.6-.3 1.1h1.6c0-.5-.1-.8-.2-1.1s-.3-.4-.5-.4zM52.7 492c-.8 0-1.4-.3-1.8-.9-.4-.6-.6-1.4-.6-2.5 0-1.2.2-2 .6-2.6.4-.6 1-.9 1.9-.9.3 0 .5 0 .8.1.3.1.5.2.7.3l-.5 1.2c-.3-.2-.6-.3-.9-.3-.3 0-.6.2-.7.5s-.2.9-.2 1.6c0 .7.1 1.2.2 1.5.1.3.4.5.7.5.4 0 .8-.1 1.3-.4v1.4c-.5.3-1 .5-1.5.5zM60.1 488.5c0 1.1-.2 1.9-.7 2.5-.5.6-1.1.9-1.9.9-.5 0-1-.1-1.4-.4-.4-.3-.7-.7-.9-1.2s-.3-1.1-.3-1.8c0-1.1.2-1.9.7-2.5s1.1-.9 1.9-.9c.8 0 1.4.3 1.9.9s.7 1.5.7 2.5zm-3.6 0c0 .7.1 1.2.2 1.5s.4.5.7.5c.6 0 1-.7 1-2.1 0-.7-.1-1.2-.2-1.5s-.4-.5-.7-.5c-.3 0-.6.2-.7.5s-.3 1-.3 1.6zM64.6 491.8v-3.9c0-.5-.1-.8-.2-1.1-.1-.2-.3-.4-.6-.4s-.6.2-.8.5c-.2.3-.2.9-.2 1.7v3.1h-1.6v-6.5h1.3l.2.8h.1c.1-.3.4-.5.6-.7.3-.2.6-.3 1-.3.6 0 1.1.2 1.4.6.3.4.5 1 .5 1.8v4.3h-1.7zM69.3 492c-.6 0-1.1-.3-1.5-.9s-.5-1.4-.5-2.5.2-1.9.5-2.5.8-.9 1.5-.9c.3 0 .6.1.8.2.2.1.4.4.6.7h.1c0-.6-.1-1-.1-1.3v-2.2h1.6v9.1h-1.2l-.3-.9h-.1c-.2.8-.7 1.2-1.4 1.2zm.6-1.4c.3 0 .5-.1.7-.4.1-.3.2-.7.2-1.4v-.2c0-.8-.1-1.3-.2-1.6s-.4-.5-.7-.5c-.3 0-.5.2-.7.5-.1.4-.2.9-.2 1.5 0 .7.1 1.2.2 1.5.1.5.4.6.7.6zM77.1 491.8l-.3-.9c-.2.4-.5.6-.7.8-.3.1-.6.2-1 .2-.5 0-.9-.2-1.2-.5-.3-.4-.4-.9-.4-1.5 0-.7.2-1.2.6-1.5.4-.3 1-.5 1.8-.6h.9v-.5c0-.6-.3-.9-.8-.9-.4 0-.9.2-1.4.5l-.6-1.1c.7-.4 1.4-.6 2.2-.6.7 0 1.3.2 1.6.6s.6 1 .6 1.7v4.4h-1.3zm-1.4-1.1c.3 0 .5-.1.7-.4.2-.3.3-.6.3-1v-.6h-.5c-.4 0-.6.1-.8.3-.2.2-.3.5-.3.8 0 .7.2.9.6.9zM82.5 485.2c.2 0 .4 0 .6.1l-.2 1.5c-.1 0-.3-.1-.4-.1-.4 0-.7.1-.9.5-.2.3-.3.7-.3 1.3v3.4h-1.6v-6.5H81l.2 1h.1c.2-.4.4-.7.6-.9 0-.2.3-.3.6-.3z" class="st5"/><path d="M83.1 485.3h1.7l.9 3.7c.1.3.2.8.2 1.4 0-.1 0-.3.1-.5 0-.2.1-.4.1-.6 0-.1.3-1.5.8-4h1.7l-1.9 7c-.2.9-.5 1.5-.9 1.9s-.9.6-1.6.6c-.3 0-.6 0-.9-.1v-1.3c.2 0 .4.1.6.1.5 0 .9-.3 1.1-1l.1-.4-2-6.8zM95.7 491.8l-1.7-7.3h-.1c.1.6.1 1.1.1 1.6v5.8h-1.5v-8.6H95l1.5 6.8 1.5-6.8h2.6v8.6H99V486c0-.5 0-1 .1-1.5l-1.7 7.3h-1.7zM107.2 488.5c0 1.1-.2 1.9-.7 2.5-.5.6-1.1.9-1.9.9-.5 0-1-.1-1.4-.4-.4-.3-.7-.7-.9-1.2s-.3-1.1-.3-1.8c0-1.1.2-1.9.7-2.5s1.1-.9 1.9-.9c.8 0 1.4.3 1.9.9s.7 1.5.7 2.5zm-3.6 0c0 .7.1 1.2.2 1.5s.4.5.7.5c.6 0 1-.7 1-2.1 0-.7-.1-1.2-.2-1.5s-.4-.5-.7-.5c-.3 0-.6.2-.7.5s-.3 1-.3 1.6zM111.7 491.8v-3.9c0-.5-.1-.8-.2-1.1-.1-.2-.3-.4-.6-.4s-.6.2-.8.5c-.2.3-.2.9-.2 1.7v3.1h-1.6v-6.5h1.3l.2.8h.1c.1-.3.4-.5.6-.7.3-.2.6-.3 1-.3.6 0 1.1.2 1.4.6.3.4.5 1 .5 1.8v4.3h-1.7zM114.6 483.6c0-.3.1-.5.2-.6s.4-.2.7-.2c.3 0 .5.1.6.2.2.2.2.4.2.6 0 .3-.1.5-.2.6-.2.1-.4.2-.6.2-.3 0-.5-.1-.6-.2-.2-.2-.3-.4-.3-.6zm1.7 8.2h-1.6v-6.5h1.6v6.5zM120.1 490.6c.2 0 .5-.1.7-.2v1.2c-.3.2-.7.3-1.2.3-.6 0-1-.2-1.3-.5s-.4-.8-.4-1.5v-3.4h-.7v-.7l.8-.6.4-1.4h1v1.4h1.2v1.2h-1.2v3.4c.1.6.3.8.7.8zM126.8 488.5c0 1.1-.2 1.9-.7 2.5-.5.6-1.1.9-1.9.9-.5 0-1-.1-1.4-.4-.4-.3-.7-.7-.9-1.2s-.3-1.1-.3-1.8c0-1.1.2-1.9.7-2.5s1.1-.9 1.9-.9c.8 0 1.4.3 1.9.9s.7 1.5.7 2.5zm-3.6 0c0 .7.1 1.2.2 1.5s.4.5.7.5c.6 0 1-.7 1-2.1 0-.7-.1-1.2-.2-1.5s-.4-.5-.7-.5c-.3 0-.6.2-.7.5s-.3 1-.3 1.6zM130.8 485.2c.2 0 .4 0 .6.1l-.2 1.5c-.1 0-.3-.1-.4-.1-.4 0-.7.1-.9.5-.2.3-.3.7-.3 1.3v3.4H128v-6.5h1.3l.2 1h.1c.2-.4.4-.7.6-.9.1-.2.3-.3.6-.3zM132.1 483.6c0-.3.1-.5.2-.6s.4-.2.7-.2c.3 0 .5.1.6.2.2.2.2.4.2.6 0 .3-.1.5-.2.6-.2.1-.4.2-.6.2-.3 0-.5-.1-.6-.2-.3-.2-.3-.4-.3-.6zm1.6 8.2h-1.6v-6.5h1.6v6.5zM138.5 491.8v-3.9c0-.5-.1-.8-.2-1.1-.1-.2-.3-.4-.6-.4s-.6.2-.8.5c-.2.3-.2.9-.2 1.7v3.1h-1.6v-6.5h1.3l.2.8h.1c.1-.3.4-.5.6-.7.3-.2.6-.3 1-.3.6 0 1.1.2 1.4.6.3.4.5 1 .5 1.8v4.3h-1.7zM146.3 485.3v.9l-.8.2c.2.3.2.6.2 1 0 .7-.2 1.2-.6 1.6-.4.4-.9.6-1.6.6h-.5c-.1.1-.2.1-.2.2-.1.1-.1.2-.1.3 0 .3.2.4.7.4h1c.6 0 1 .1 1.3.4.3.3.5.8.5 1.4 0 .8-.3 1.3-.8 1.8s-1.3.6-2.3.6c-.8 0-1.3-.2-1.7-.5-.4-.3-.6-.8-.6-1.3 0-.4.1-.7.3-1s.6-.5 1-.6c-.2-.1-.4-.2-.5-.4-.1-.2-.2-.4-.2-.6 0-.1 0-.3.1-.4 0-.1.1-.2.2-.3.1-.1.2-.2.5-.4-.3-.2-.5-.4-.7-.8-.2-.3-.2-.7-.2-1.1 0-.7.2-1.3.6-1.7.4-.4.9-.6 1.7-.6h.5c.2 0 .3.1.4.1h1.8zm-4 7.5c0 .3.1.5.3.6.2.1.4.2.7.2.5 0 .9-.1 1.1-.3.2-.2.4-.4.4-.7 0-.2-.1-.4-.2-.5s-.4-.2-.7-.2h-.8c-.2 0-.4.1-.5.2-.2.2-.3.4-.3.7zm.5-5.4c0 .8.2 1.2.7 1.2.4 0 .7-.4.7-1.2 0-.8-.2-1.2-.7-1.2-.4 0-.7.4-.7 1.2zM154.4 489.5c0 .8-.2 1.4-.6 1.8-.4.4-1 .6-1.8.6s-1.4-.1-2-.4v-1.6c.7.4 1.3.6 1.8.6.3 0 .6-.1.7-.3.2-.2.2-.4.2-.7 0-.3-.1-.5-.3-.8s-.5-.5-.9-.8c-.4-.3-.7-.5-.9-.7-.2-.2-.3-.5-.5-.8-.1-.3-.2-.6-.2-1 0-.7.2-1.3.6-1.8.4-.4 1-.6 1.7-.6s1.3.2 2 .6l-.5 1.3-.6-.3c-.2-.1-.4-.1-.7-.1-.3 0-.5.1-.6.3-.1.2-.2.4-.2.7 0 .3.1.5.3.8.2.2.5.5.9.7.6.4 1 .8 1.2 1.2.3.3.4.8.4 1.3zM157.9 492c-.8 0-1.5-.3-2-.9s-.7-1.4-.7-2.5.2-1.9.7-2.5c.4-.6 1.1-.9 1.9-.9.7 0 1.3.3 1.7.8.4.5.6 1.2.6 2.2v.8h-3.3c0 .6.1 1 .4 1.3.2.3.6.4 1 .4.5 0 1.1-.2 1.6-.5v1.3c-.6.3-1.2.5-1.9.5zm-.3-5.6c-.2 0-.4.1-.6.4-.2.2-.2.6-.3 1.1h1.6c0-.5-.1-.8-.2-1.1s-.2-.4-.5-.4zM164 485.2c.2 0 .4 0 .6.1l-.2 1.5c-.1 0-.3-.1-.4-.1-.4 0-.7.1-.9.5-.2.3-.3.7-.3 1.3v3.4h-1.6v-6.5h1.3l.2 1h.1c.2-.4.4-.7.6-.9.1-.2.3-.3.6-.3zM166.4 491.8l-1.8-6.5h1.7l.9 3.8c0 .2.1.4.1.8s.1.6.1.7c0-.1 0-.3.1-.5 0-.2.1-.4.1-.6 0-.2.3-1.6.9-4.2h1.7l-1.8 6.5h-2zM173.4 492c-.8 0-1.5-.3-2-.9s-.7-1.4-.7-2.5.2-1.9.7-2.5c.4-.6 1.1-.9 1.9-.9.7 0 1.3.3 1.7.8.4.5.6 1.2.6 2.2v.8h-3.3c0 .6.1 1 .4 1.3.2.3.6.4 1 .4.5 0 1.1-.2 1.6-.5v1.3c-.6.3-1.2.5-1.9.5zm-.3-5.6c-.2 0-.4.1-.6.4-.2.2-.2.6-.3 1.1h1.6c0-.5-.1-.8-.2-1.1s-.2-.4-.5-.4zM179.5 485.2c.2 0 .4 0 .6.1l-.2 1.5c-.1 0-.3-.1-.4-.1-.4 0-.7.1-.9.5-.2.3-.3.7-.3 1.3v3.4h-1.6v-6.5h1.3l.2 1h.1c.2-.4.4-.7.6-.9.1-.2.3-.3.6-.3zM72.3 502.1c0-1 .2-2 .5-2.9.3-.9.8-1.7 1.4-2.4h1.4c-.6.8-1 1.6-1.3 2.5-.3.9-.4 1.8-.4 2.8 0 1 .2 1.9.5 2.8.3.9.7 1.7 1.3 2.4h-1.4c-.6-.7-1.1-1.4-1.4-2.3-.5-.9-.6-1.9-.6-2.9zM79.9 505.4v-3.9c0-.5-.1-.8-.2-1.1-.1-.2-.3-.4-.6-.4s-.6.2-.8.5c-.2.3-.2.9-.2 1.7v3.1h-1.6v-6.5h1.3l.2.8h.1c.1-.3.4-.5.6-.7.3-.2.6-.3 1-.3.6 0 1.1.2 1.4.6.3.4.5 1 .5 1.8v4.3h-1.7zM87.9 502.1c0 1.1-.2 1.9-.7 2.5-.5.6-1.1.9-1.9.9-.5 0-1-.1-1.4-.4-.4-.3-.7-.7-.9-1.2s-.3-1.1-.3-1.8c0-1.1.2-1.9.7-2.5s1.1-.9 1.9-.9c.8 0 1.4.3 1.9.9s.7 1.5.7 2.5zm-3.6 0c0 .7.1 1.2.2 1.5s.4.5.7.5c.6 0 1-.7 1-2.1 0-.7-.1-1.2-.2-1.5s-.4-.5-.7-.5c-.3 0-.6.2-.7.5s-.3.9-.3 1.6zM92.4 505.4v-3.9c0-.5-.1-.8-.2-1.1-.1-.2-.3-.4-.6-.4s-.6.2-.8.5c-.2.3-.2.9-.2 1.7v3.1H89v-6.5h1.3l.2.8h.1c.1-.3.4-.5.6-.7.3-.2.6-.3 1-.3.6 0 1.1.2 1.4.6.3.4.5 1 .5 1.8v4.3h-1.7zM95.1 502.8v-1.4h3.1v1.4h-3.1zM101.6 505.5c-.8 0-1.4-.3-1.8-.9-.4-.6-.6-1.4-.6-2.5 0-1.2.2-2 .6-2.6.4-.6 1-.9 1.9-.9.3 0 .5 0 .8.1.3.1.5.2.7.3l-.5 1.2c-.3-.2-.6-.3-.9-.3-.3 0-.6.2-.7.5s-.2.9-.2 1.6c0 .7.1 1.2.2 1.5.1.3.4.5.7.5.4 0 .8-.1 1.3-.4v1.4c-.6.4-1 .5-1.5.5zM105.6 505.4H104v-9.1h1.6v9.1zM110.6 505.4l-.2-.8h-.1c-.2.3-.4.5-.6.7-.3.2-.6.3-1 .3-.6 0-1.1-.2-1.4-.6-.3-.4-.5-1-.5-1.8v-4.3h1.6v3.9c0 .5.1.8.2 1.1.1.2.3.4.6.4s.6-.2.8-.5c.2-.3.2-.9.2-1.7V499h1.6v6.5h-1.2zM116.9 503.5c0 .6-.2 1.1-.6 1.5s-1 .5-1.7.5-1.2-.1-1.7-.4v-1.4c.2.1.5.3.8.4.3.1.6.1.8.1.3 0 .4-.1.6-.2.1-.1.2-.3.2-.5s-.1-.4-.2-.5c-.1-.1-.4-.3-.8-.5-.5-.3-.8-.6-1.1-.9-.2-.3-.3-.7-.3-1.1 0-.6.2-1 .6-1.3.4-.3.9-.5 1.6-.5.6 0 1.2.2 1.7.5l-.5 1.1c-.4-.2-.8-.3-1.1-.3-.2 0-.4.1-.5.2-.1.1-.2.2-.2.4s.1.3.2.5c.1.1.4.3.7.5.4.2.7.5.9.6.2.2.3.4.4.6s.2.4.2.7zM120.3 504.2c.2 0 .5-.1.7-.2v1.2c-.3.2-.7.3-1.2.3-.6 0-1-.2-1.3-.5s-.4-.8-.4-1.5v-3.4h-.7v-.7l.8-.6.4-1.4h1v1.4h1.2v1.2h-1.2v3.4c.1.6.3.8.7.8zM124.5 505.5c-.8 0-1.5-.3-2-.9s-.7-1.4-.7-2.5.2-1.9.7-2.5c.4-.6 1.1-.9 1.9-.9.7 0 1.3.3 1.7.8.4.5.6 1.2.6 2.2v.8h-3.3c0 .6.1 1 .4 1.3.2.3.6.4 1 .4.5 0 1.1-.2 1.6-.5v1.3c-.6.3-1.2.5-1.9.5zm-.3-5.6c-.2 0-.4.1-.6.4-.2.2-.2.6-.3 1.1h1.6c0-.5-.1-.8-.2-1.1s-.2-.4-.5-.4zM130.6 498.7c.2 0 .4 0 .6.1l-.2 1.5c-.1 0-.3-.1-.4-.1-.4 0-.7.1-.9.5-.2.3-.3.7-.3 1.3v3.4h-1.6v-6.5h1.3l.2 1h.1c.2-.4.4-.7.6-.9.1-.2.3-.3.6-.3zM134.4 505.5c-.8 0-1.5-.3-2-.9s-.7-1.4-.7-2.5.2-1.9.7-2.5c.4-.6 1.1-.9 1.9-.9.7 0 1.3.3 1.7.8.4.5.6 1.2.6 2.2v.8h-3.3c0 .6.1 1 .4 1.3.2.3.6.4 1 .4.5 0 1.1-.2 1.6-.5v1.3c-.6.3-1.2.5-1.9.5zm-.2-5.6c-.2 0-.4.1-.6.4-.2.2-.2.6-.3 1.1h1.6c0-.5-.1-.8-.2-1.1s-.3-.4-.5-.4zM139.4 505.5c-.6 0-1.1-.3-1.5-.9s-.5-1.4-.5-2.5.2-1.9.5-2.5.8-.9 1.5-.9c.3 0 .6.1.8.2.2.1.4.4.6.7h.1c0-.6-.1-1-.1-1.3v-2.2h1.6v9.1h-1.2l-.3-.9h-.1c-.2.9-.7 1.2-1.4 1.2zm.5-1.3c.3 0 .5-.1.7-.4.1-.3.2-.7.2-1.4v-.2c0-.8-.1-1.3-.2-1.6s-.4-.5-.7-.5c-.3 0-.5.2-.7.5-.1.4-.2.9-.2 1.5 0 .7.1 1.2.2 1.5.2.4.4.6.7.6zM146.7 502.1c0 1-.2 2-.5 2.9-.3.9-.8 1.7-1.4 2.3h-1.4c.5-.7 1-1.5 1.3-2.4.3-.9.5-1.8.5-2.8 0-1-.1-1.9-.4-2.8-.3-.9-.7-1.7-1.3-2.5h1.4c.6.7 1.1 1.5 1.4 2.4.3.9.4 1.8.4 2.9z" class="st5"/><circle cx="110" cy="559" r="30" class="st6"/><path d="M94.7 556.8v14.9h17.9v-10.6h-4.8v5.7h-8.3v-9.9c0-1.2.3-2.4.8-3.6.5-1.2 1.3-2.3 2.3-3.2.9-.8 2-1.5 3.2-2 1.3-.5 2.6-.7 4.1-.7 1.3 0 2.7.3 3.9.8 1.3.5 2.4 1.2 3.3 2.1.9.9 1.7 1.9 2.1 3.1.5 1.1.7 2.3.7 3.5v14.9h5v-14.6c0-2.1-.4-4.1-1.1-5.9-.7-1.8-1.8-3.4-3.2-4.8-1.5-1.5-3.1-2.6-4.9-3.4-1.8-.8-3.8-1.2-5.8-1.2s-3.9.3-5.6 1c-1.7.6-3.3 1.6-4.7 2.8-1.7 1.5-2.9 3.1-3.7 5-.8 1.9-1.2 3.9-1.2 6.1z" class="st7"/><g><path d="M152 601H68c-1.7 0-3-1.3-3-3v-11c0-1.7 1.3-3 3-3h84c1.7 0 3 1.3 3 3v11c0 1.7-1.3 3-3 3z" class="st33"/><path d="M73.4 594.5H71l-.6 1.7H69l2.8-7.8h1.1l2.8 7.8H74l-.6-1.7zm-2-1.2H73l-.6-1.7-.2-1.2h-.1l-.2 1.2-.5 1.7zM80.7 596.2c0 .8-.2 1.4-.6 1.8s-1 .6-1.8.6c-.5 0-.9 0-1.2-.1s-.5-.2-.7-.2l.3-1.1c.2.1.4.1.6.2.2.1.5.1.8.1.5 0 .8-.1 1-.3.2-.2.3-.5.3-.9v-.4c-.3.3-.7.5-1.4.5s-1.2-.2-1.6-.7c-.3-.4-.5-1.1-.5-2.1s.2-1.7.7-2.2 1.2-.8 2-.8c.5 0 .9 0 1.3.1s.7.1.9.2v5.3zm-2.4-1.1c.3 0 .5-.1.6-.2.2-.1.3-.3.3-.6v-2.5c-.2-.1-.5-.1-.8-.1-.4 0-.7.1-.9.4-.2.3-.3.7-.3 1.3 0 .5.1.9.3 1.2.2.4.4.5.8.5zM86.6 596.2c0 .8-.2 1.4-.6 1.8s-1 .6-1.8.6c-.5 0-.9 0-1.2-.1s-.5-.2-.7-.2l.3-1.1c.2.1.4.1.6.2.2.1.5.1.8.1.5 0 .8-.1 1-.3.2-.2.3-.5.3-.9v-.4c-.3.3-.7.5-1.4.5s-1.2-.2-1.6-.7c-.3-.4-.5-1.1-.5-2.1s.2-1.7.7-2.2 1.2-.8 2-.8c.5 0 .9 0 1.3.1s.7.1.9.2v5.3zm-2.4-1.1c.3 0 .5-.1.6-.2.2-.1.3-.3.3-.6v-2.5c-.2-.1-.5-.1-.8-.1-.4 0-.7.1-.9.4-.2.3-.3.7-.3 1.3 0 .5.1.9.3 1.2.2.4.4.5.8.5zM90.9 592c-.2-.1-.4-.1-.6-.1-.3 0-.5.1-.6.2s-.3.3-.3.5v3.6H88v-5.5h1.1l.2.7c.1-.3.3-.5.5-.6.2-.1.5-.2.7-.2.2 0 .4 0 .6.1l-.2 1.3zM96.1 595.7c-.2.2-.5.3-.9.4-.4.1-.8.2-1.2.2-.9 0-1.5-.3-1.9-.8-.4-.5-.6-1.2-.6-2.1 0-1 .2-1.7.7-2.2.5-.5 1.1-.7 1.9-.7.3 0 .6 0 .8.1.3.1.5.2.7.4.2.2.4.4.5.7.1.3.2.6.2 1.1v.5c0 .2 0 .4-.1.5h-3.3c0 .5.1.8.4 1 .2.2.6.4 1 .4.3 0 .6 0 .8-.1.2-.1.4-.2.5-.3l.5.9zm-2.1-4c-.4 0-.6.1-.8.3s-.3.5-.3.9h2c0-.4 0-.7-.2-.9-.1-.2-.3-.3-.7-.3zM100 592.2h2.9v3.4c-.3.3-.7.4-1.1.6-.4.1-.9.2-1.3.2-.5 0-.9-.1-1.4-.2s-.8-.4-1.1-.7c-.3-.3-.6-.7-.7-1.2-.2-.5-.3-1.1-.3-1.8s.1-1.3.3-1.9.5-.9.8-1.2c.3-.3.7-.5 1.1-.7.4-.1.9-.2 1.3-.2s.8 0 1.2.1c.3.1.6.1.8.2l-.3 1.3c-.2-.1-.4-.1-.6-.2-.2 0-.5-.1-.9-.1-.3 0-.6 0-.9.1-.3.1-.5.3-.7.5-.2.2-.3.5-.5.8-.1.3-.2.7-.2 1.2s.1.9.2 1.2c.1.3.2.6.4.8.2.2.4.4.6.5s.5.2.8.2c.2 0 .4 0 .6-.1.2 0 .3-.1.5-.2v-1.5l-1.7-.2v-.9zM103.9 591c.3-.1.6-.2 1-.3.4-.1.8-.1 1.3-.1.4 0 .7 0 1 .1s.5.2.6.4c.1.2.3.4.3.6.1.2.1.5.1.8v2.9c0 .3.1.6.2.8h-1.2l-.2-.8h-.1c-.1.2-.4.4-.6.6s-.6.2-1 .2c-.3 0-.5 0-.7-.1-.2-.1-.4-.2-.5-.3-.1-.1-.3-.3-.3-.5s-.1-.4-.1-.7c0-.3.1-.6.2-.9l.6-.6c.3-.1.6-.2 1-.3.4-.1.8-.1 1.3 0 .1-.4 0-.7-.1-.9-.1-.2-.4-.3-.7-.3-.3 0-.6 0-.9.1-.3.1-.6.1-.8.2l-.4-.9zm1.9 4.1c.3 0 .5-.1.7-.2.2-.1.3-.3.4-.4v-.7h-.7c-.3 0-.4 0-.6.1-.2.1-.3.1-.4.2-.1.1-.1.2-.1.4s.1.4.2.5c.1.1.2.1.5.1zM108.9 590.7h.8v-1l1.4-.4v1.4h1.3v1.2H111v2.1c0 .4 0 .7.1.8.1.2.2.2.4.2h.4c.1 0 .2-.1.4-.1l.3 1.1c-.2.1-.4.2-.7.2-.3.1-.5.1-.8.1-.5 0-.9-.1-1.1-.4-.2-.3-.4-.7-.4-1.3v-2.8h-.8v-1.1zM117.6 595.7c-.2.2-.5.3-.9.4-.4.1-.8.2-1.2.2-.9 0-1.5-.3-1.9-.8-.4-.5-.6-1.2-.6-2.1 0-1 .2-1.7.7-2.2.5-.5 1.1-.7 1.9-.7.3 0 .6 0 .8.1.3.1.5.2.7.4.2.2.4.4.5.7.1.3.2.6.2 1.1v.5c0 .2 0 .4-.1.5h-3.3c0 .5.1.8.4 1 .2.2.6.4 1 .4.3 0 .6 0 .8-.1.2-.1.4-.2.5-.3l.5.9zm-2-4c-.4 0-.6.1-.8.3s-.3.5-.3.9h2c0-.4 0-.7-.2-.9-.2-.2-.4-.3-.7-.3zM124.9 594.1c0-.2-.1-.4-.3-.6-.2-.1-.4-.3-.6-.4-.3-.1-.5-.2-.8-.4-.3-.1-.6-.3-.8-.5-.3-.2-.5-.4-.6-.7s-.3-.6-.3-1.1c0-.4.1-.7.2-1 .1-.3.3-.5.5-.7.2-.2.5-.3.8-.4.3-.1.7-.1 1.1-.1.4 0 .9 0 1.3.1s.7.2 1 .3l-.5 1.3c-.2-.1-.4-.2-.7-.3-.3-.1-.7-.1-1-.1-.4 0-.6.1-.8.2-.2.1-.3.3-.3.6 0 .2.1.4.3.6.2.1.4.3.6.4.3.1.5.3.8.4.3.1.6.3.8.5.3.2.5.4.6.7.2.3.3.6.3 1s-.1.8-.2 1.1c-.1.3-.3.5-.6.7-.2.2-.5.3-.9.4-.3.1-.7.1-1.1.1-.5 0-1-.1-1.5-.2s-.7-.2-.9-.3l.5-1.3c.1 0 .2.1.3.1.1.1.3.1.4.1.2 0 .3.1.5.1h.6c.4 0 .8-.1 1-.2.2.2.3-.1.3-.4zM131.8 595.7c-.2.2-.5.3-.9.4-.4.1-.8.2-1.2.2-.9 0-1.5-.3-1.9-.8-.4-.5-.6-1.2-.6-2.1 0-1 .2-1.7.7-2.2.5-.5 1.1-.7 1.9-.7.3 0 .6 0 .8.1.3.1.5.2.7.4.2.2.4.4.5.7.1.3.2.6.2 1.1v.5c0 .2 0 .4-.1.5h-3.3c0 .5.1.8.4 1 .2.2.6.4 1 .4.3 0 .6 0 .8-.1.2-.1.4-.2.5-.3l.5.9zm-2-4c-.4 0-.6.1-.8.3s-.3.5-.3.9h2c0-.4 0-.7-.2-.9-.2-.2-.4-.3-.7-.3zM136 592c-.2-.1-.4-.1-.6-.1-.3 0-.5.1-.6.2s-.3.3-.3.5v3.6H133v-5.5h1.1l.2.7c.1-.3.3-.5.5-.6.2-.1.5-.2.7-.2.2 0 .4 0 .6.1l-.1 1.3zM138.8 593.6l.2.8h.1l.2-.9.9-2.9h1.5l-2.3 5.6h-.9l-2.4-5.6h1.7l1 3zM146.4 595.7c-.2.2-.5.3-.9.4-.4.1-.8.2-1.2.2-.9 0-1.5-.3-1.9-.8-.4-.5-.6-1.2-.6-2.1 0-1 .2-1.7.7-2.2.5-.5 1.1-.7 1.9-.7.3 0 .6 0 .8.1.3.1.5.2.7.4.2.2.4.4.5.7.1.3.2.6.2 1.1v.5c0 .2 0 .4-.1.5h-3.3c0 .5.1.8.4 1 .2.2.6.4 1 .4.3 0 .6 0 .8-.1.2-.1.4-.2.5-.3l.5.9zm-2-4c-.4 0-.6.1-.8.3s-.3.5-.3.9h2c0-.4 0-.7-.2-.9-.2-.2-.4-.3-.7-.3zM150.7 592c-.2-.1-.4-.1-.6-.1-.3 0-.5.1-.6.2s-.3.3-.3.5v3.6h-1.4v-5.5h1.1l.2.7c.1-.3.3-.5.5-.6.2-.1.5-.2.7-.2.2 0 .4 0 .6.1l-.2 1.3z" class="st7"/></g><g><path d="M137 695H83c-1.7 0-3-1.3-3-3v-11c0-1.7 1.3-3 3-3h54c1.7 0 3 1.3 3 3v11c0 1.7-1.3 3-3 3z" class="st33"/><path d="M88.8 682.5c.2 0 .3 0 .5-.1s.4 0 .6 0H91c.7 0 1.3.1 1.7.3.5.2.9.5 1.2.8.3.3.5.8.7 1.2.1.5.2 1 .2 1.6 0 .5-.1 1-.2 1.5s-.4.9-.7 1.3c-.3.4-.7.7-1.2.9-.5.2-1.1.3-1.9.3h-2.1v-7.8zm2.4 1.2h-.9v5.2h.7c.4 0 .8-.1 1.1-.2s.5-.4.7-.6.3-.5.3-.9.1-.7.1-1c0-.3 0-.6-.1-.9-.1-.3-.2-.6-.3-.8l-.6-.6c-.2-.1-.6-.2-1-.2zM95.9 685c.3-.1.6-.2 1-.3.4-.1.8-.1 1.3-.1.4 0 .7 0 1 .1s.5.2.6.4c.1.2.3.4.3.6.1.2.1.5.1.8v2.9c0 .3.1.6.2.8h-1.2l-.2-.8h-.1c-.1.2-.4.4-.6.6s-.6.2-1 .2c-.3 0-.5 0-.7-.1-.2-.1-.4-.2-.5-.3-.1-.1-.3-.3-.3-.5s-.1-.4-.1-.7c0-.3.1-.6.2-.9l.6-.6c.3-.1.6-.2 1-.3.4-.1.8-.1 1.3 0 .1-.4 0-.7-.1-.9-.1-.2-.4-.3-.7-.3-.3 0-.6 0-.9.1-.3.1-.6.1-.8.2l-.4-.9zm1.8 4.1c.3 0 .5-.1.7-.2.2-.1.3-.3.4-.4v-.7h-.7c-.3 0-.4 0-.6.1-.2.1-.3.1-.4.2-.1.1-.1.2-.1.4s.1.4.2.5c.1.1.3.1.5.1zM100.8 684.7h.8v-1l1.4-.4v1.4h1.3v1.2H103v2.1c0 .4 0 .7.1.8.1.2.2.2.4.2h.4c.1 0 .2-.1.4-.1l.3 1.1c-.2.1-.4.2-.7.2-.3.1-.5.1-.8.1-.5 0-.9-.1-1.1-.4-.2-.3-.4-.7-.4-1.3v-2.8h-.8v-1.1zM105.2 685c.3-.1.6-.2 1-.3.4-.1.8-.1 1.3-.1.4 0 .7 0 1 .1s.5.2.6.4c.1.2.3.4.3.6.1.2.1.5.1.8v2.9c0 .3.1.6.2.8h-1.2l-.2-.8h-.1c-.1.2-.4.4-.6.6s-.6.2-1 .2c-.3 0-.5 0-.7-.1-.2-.1-.4-.2-.5-.3-.1-.1-.3-.3-.3-.5s-.1-.4-.1-.7c0-.3.1-.6.2-.9l.6-.6c.3-.1.6-.2 1-.3.4-.1.8-.1 1.3 0 .1-.4 0-.7-.1-.9-.1-.2-.4-.3-.7-.3-.3 0-.6 0-.9.1-.3.1-.6.1-.8.2l-.4-.9zm1.8 4.1c.3 0 .5-.1.7-.2.2-.1.3-.3.4-.4v-.7h-.7c-.3 0-.4 0-.6.1-.2.1-.3.1-.4.2-.1.1-.1.2-.1.4s.1.4.2.5c.1.1.3.1.5.1zM110.7 682.5h1.4v2.6c.2-.2.4-.3.6-.4.2-.1.5-.2.8-.2.7 0 1.2.2 1.5.7.3.5.5 1.1.5 2.1s-.2 1.7-.7 2.3c-.5.5-1.2.8-2 .8-.5 0-.9 0-1.3-.1s-.7-.2-.9-.3v-7.5zm2.4 3.3c-.3 0-.5.1-.6.2s-.3.3-.4.6v2.4c.1.1.2.1.4.1h.4c.4 0 .7-.1.9-.4.2-.3.3-.7.3-1.3 0-1.1-.3-1.6-1-1.6zM116.5 685c.3-.1.6-.2 1-.3.4-.1.8-.1 1.3-.1.4 0 .7 0 1 .1s.5.2.6.4c.1.2.3.4.3.6.1.2.1.5.1.8v2.9c0 .3.1.6.2.8h-1.2l-.2-.8h-.1c-.1.2-.4.4-.6.6s-.6.2-1 .2c-.3 0-.5 0-.7-.1-.2-.1-.4-.2-.5-.3-.1-.1-.3-.3-.3-.5s-.1-.4-.1-.7c0-.3.1-.6.2-.9l.6-.6c.3-.1.6-.2 1-.3.4-.1.8-.1 1.3 0 .1-.4 0-.7-.1-.9-.1-.2-.4-.3-.7-.3-.3 0-.6 0-.9.1-.3.1-.6.1-.8.2l-.4-.9zm1.9 4.1c.3 0 .5-.1.7-.2.2-.1.3-.3.4-.4v-.7h-.7c-.3 0-.4 0-.6.1-.2.1-.3.1-.4.2-.1.1-.1.2-.1.4s.1.4.2.5c.1.1.2.1.5.1zM124.3 688.7c0-.1-.1-.3-.2-.4-.1-.1-.3-.2-.5-.2s-.4-.1-.6-.2l-.6-.3c-.2-.1-.3-.3-.5-.5-.1-.2-.2-.5-.2-.8 0-.5.2-1 .5-1.2.3-.3.8-.4 1.4-.4.4 0 .8 0 1.1.1.3.1.6.2.8.3l-.3 1c-.2-.1-.4-.1-.6-.2-.3-.1-.5-.1-.8-.1-.4 0-.6.2-.6.5 0 .1.1.2.2.3.1.1.3.2.5.2.2.1.4.1.6.2l.6.3c.2.1.3.3.5.5s.2.5.2.8c0 .6-.2 1-.5 1.3-.4.3-.9.5-1.6.5-.4 0-.8 0-1.1-.1-.3-.1-.6-.2-.8-.3l.4-1.1c.2.1.4.2.7.3.3.1.6.1.9.1.2 0 .4 0 .5-.1-.1-.2 0-.3 0-.5zM131.1 689.7c-.2.2-.5.3-.9.4-.4.1-.8.2-1.2.2-.9 0-1.5-.3-1.9-.8-.4-.5-.6-1.2-.6-2.1 0-1 .2-1.7.7-2.2.5-.5 1.1-.7 1.9-.7.3 0 .6 0 .8.1.3.1.5.2.7.4.2.2.4.4.5.7.1.3.2.6.2 1.1v.5c0 .2 0 .4-.1.5h-3.3c0 .5.1.8.4 1 .2.2.6.4 1 .4.3 0 .6 0 .8-.1.2-.1.4-.2.5-.3l.5.9zm-2.1-4c-.4 0-.6.1-.8.3s-.3.5-.3.9h2c0-.4 0-.7-.2-.9-.1-.2-.3-.3-.7-.3z" class="st7"/></g><g id="db_x5F_02_8_"><path d="M136 664v-32.5c0-6.9-6.5-11.2-10.5-13.1-5.1-2.3-10.1-3.2-15.5-3.2s-10.4.8-15.5 3.2c-4 1.9-10.5 6.1-10.5 13.1V664c0 6.9 6.5 11.2 10.5 13.1 5.1 2.3 10.1 3.2 15.5 3.2s10.4-.8 15.5-3.2c4-1.9 10.5-6.2 10.5-13.1z" class="st9"/><path d="M84 631.5c0 6.9 6.5 11.2 10.5 13.1 5.1 2.3 10.1 3.2 15.5 3.2s10.4-.8 15.5-3.2c4-1.9 10.5-6.1 10.5-13.1" class="st10"/><path d="M84 642.9c0 6.9 6.5 11.2 10.5 13.1 5.1 2.3 10.1 3.2 15.5 3.2s10.4-.8 15.5-3.2c4-1.9 10.5-6.1 10.5-13.1" class="st10"/><path d="M84 654.4c0 6.9 6.5 11.2 10.5 13.1 5.1 2.3 10.1 3.2 15.5 3.2s10.4-.8 15.5-3.2c4-1.9 10.5-6.1 10.5-13.1" class="st10"/><ellipse cx="110" cy="631.5" class="st11" rx="26" ry="16.4"/></g></g><g><path d="M608 715H472c-6.6 0-12-5.4-12-12V514h160v189c0 6.6-5.4 12-12 12z" class="st3"/><path d="M620 514H460v-28c0-6.6 5.4-12 12-12h136c6.6 0 12 5.4 12 12v28z" class="st32"/><path d="M473.7 489.5c0 .8-.2 1.4-.6 1.8-.4.4-1 .6-1.8.6s-1.4-.1-2-.4v-1.6c.7.4 1.3.6 1.8.6.3 0 .6-.1.7-.3.2-.2.2-.4.2-.7 0-.3-.1-.5-.3-.8s-.5-.5-.9-.8c-.4-.3-.7-.5-.9-.7-.2-.2-.3-.5-.5-.8-.1-.3-.2-.6-.2-1 0-.7.2-1.3.6-1.8.4-.4 1-.6 1.7-.6s1.3.2 2 .6l-.5 1.3-.6-.3c-.2-.1-.4-.1-.7-.1-.3 0-.5.1-.6.3-.1.2-.2.4-.2.7 0 .3.1.5.3.8.2.2.5.5.9.7.6.4 1 .8 1.2 1.2.3.3.4.8.4 1.3zM477.2 492c-.8 0-1.5-.3-2-.9s-.7-1.4-.7-2.5.2-1.9.7-2.5c.4-.6 1.1-.9 1.9-.9.7 0 1.3.3 1.7.8.4.5.6 1.2.6 2.2v.8h-3.3c0 .6.1 1 .4 1.3.2.3.6.4 1 .4.5 0 1.1-.2 1.6-.5v1.3c-.5.3-1.2.5-1.9.5zm-.2-5.6c-.2 0-.4.1-.6.4-.2.2-.2.6-.3 1.1h1.6c0-.5-.1-.8-.2-1.1s-.3-.4-.5-.4zM482.7 492c-.8 0-1.4-.3-1.8-.9-.4-.6-.6-1.4-.6-2.5 0-1.2.2-2 .6-2.6.4-.6 1-.9 1.9-.9.3 0 .5 0 .8.1.3.1.5.2.7.3l-.5 1.2c-.3-.2-.6-.3-.9-.3-.3 0-.6.2-.7.5s-.2.9-.2 1.6c0 .7.1 1.2.2 1.5.1.3.4.5.7.5.4 0 .8-.1 1.3-.4v1.4c-.5.3-1 .5-1.5.5zM490.1 488.5c0 1.1-.2 1.9-.7 2.5-.5.6-1.1.9-1.9.9-.5 0-1-.1-1.4-.4-.4-.3-.7-.7-.9-1.2s-.3-1.1-.3-1.8c0-1.1.2-1.9.7-2.5s1.1-.9 1.9-.9c.8 0 1.4.3 1.9.9s.7 1.5.7 2.5zm-3.6 0c0 .7.1 1.2.2 1.5s.4.5.7.5c.6 0 1-.7 1-2.1 0-.7-.1-1.2-.2-1.5s-.4-.5-.7-.5c-.3 0-.6.2-.7.5s-.3 1-.3 1.6zM494.6 491.8v-3.9c0-.5-.1-.8-.2-1.1-.1-.2-.3-.4-.6-.4s-.6.2-.8.5c-.2.3-.2.9-.2 1.7v3.1h-1.6v-6.5h1.3l.2.8h.1c.1-.3.4-.5.6-.7.3-.2.6-.3 1-.3.6 0 1.1.2 1.4.6.3.4.5 1 .5 1.8v4.3h-1.7zM499.3 492c-.6 0-1.1-.3-1.5-.9s-.5-1.4-.5-2.5.2-1.9.5-2.5.8-.9 1.5-.9c.3 0 .6.1.8.2.2.1.4.4.6.7h.1c0-.6-.1-1-.1-1.3v-2.2h1.6v9.1h-1.2l-.3-.9h-.1c-.2.8-.7 1.2-1.4 1.2zm.6-1.4c.3 0 .5-.1.7-.4.1-.3.2-.7.2-1.4v-.2c0-.8-.1-1.3-.2-1.6s-.4-.5-.7-.5c-.3 0-.5.2-.7.5-.1.4-.2.9-.2 1.5 0 .7.1 1.2.2 1.5.1.5.4.6.7.6zM507.1 491.8l-.3-.9c-.2.4-.5.6-.7.8-.3.1-.6.2-1 .2-.5 0-.9-.2-1.2-.5-.3-.4-.4-.9-.4-1.5 0-.7.2-1.2.6-1.5.4-.3 1-.5 1.8-.6h.9v-.5c0-.6-.3-.9-.8-.9-.4 0-.9.2-1.4.5l-.6-1.1c.7-.4 1.4-.6 2.2-.6.7 0 1.3.2 1.6.6s.6 1 .6 1.7v4.4h-1.3zm-1.4-1.1c.3 0 .5-.1.7-.4.2-.3.3-.6.3-1v-.6h-.5c-.4 0-.6.1-.8.3-.2.2-.3.5-.3.8 0 .7.2.9.6.9zM512.5 485.2c.2 0 .4 0 .6.1l-.2 1.5c-.1 0-.3-.1-.4-.1-.4 0-.7.1-.9.5-.2.3-.3.7-.3 1.3v3.4h-1.6v-6.5h1.3l.2 1h.1c.2-.4.4-.7.6-.9 0-.2.3-.3.6-.3zM513.1 485.3h1.7l.9 3.7c.1.3.2.8.2 1.4 0-.1 0-.3.1-.5 0-.2.1-.4.1-.6 0-.1.3-1.5.8-4h1.7l-1.9 7c-.2.9-.5 1.5-.9 1.9s-.9.6-1.6.6c-.3 0-.6 0-.9-.1v-1.3c.2 0 .4.1.6.1.5 0 .9-.3 1.1-1l.1-.4-2-6.8zM525.7 491.8l-1.7-7.3h-.1c.1.6.1 1.1.1 1.6v5.8h-1.5v-8.6h2.5l1.5 6.8 1.5-6.8h2.6v8.6H529V486c0-.5 0-1 .1-1.5l-1.7 7.3h-1.7zM537.2 488.5c0 1.1-.2 1.9-.7 2.5-.5.6-1.1.9-1.9.9-.5 0-1-.1-1.4-.4-.4-.3-.7-.7-.9-1.2s-.3-1.1-.3-1.8c0-1.1.2-1.9.7-2.5s1.1-.9 1.9-.9c.8 0 1.4.3 1.9.9s.7 1.5.7 2.5zm-3.6 0c0 .7.1 1.2.2 1.5s.4.5.7.5c.6 0 1-.7 1-2.1 0-.7-.1-1.2-.2-1.5s-.4-.5-.7-.5c-.3 0-.6.2-.7.5s-.3 1-.3 1.6zM541.7 491.8v-3.9c0-.5-.1-.8-.2-1.1-.1-.2-.3-.4-.6-.4s-.6.2-.8.5c-.2.3-.2.9-.2 1.7v3.1h-1.6v-6.5h1.3l.2.8h.1c.1-.3.4-.5.6-.7.3-.2.6-.3 1-.3.6 0 1.1.2 1.4.6.3.4.5 1 .5 1.8v4.3h-1.7zM544.6 483.6c0-.3.1-.5.2-.6s.4-.2.7-.2c.3 0 .5.1.6.2.2.2.2.4.2.6 0 .3-.1.5-.2.6-.2.1-.4.2-.6.2-.3 0-.5-.1-.6-.2-.2-.2-.3-.4-.3-.6zm1.7 8.2h-1.6v-6.5h1.6v6.5zM550.1 490.6c.2 0 .5-.1.7-.2v1.2c-.3.2-.7.3-1.2.3-.6 0-1-.2-1.3-.5s-.4-.8-.4-1.5v-3.4h-.7v-.7l.8-.6.4-1.4h1v1.4h1.2v1.2h-1.2v3.4c.1.6.3.8.7.8zM556.8 488.5c0 1.1-.2 1.9-.7 2.5-.5.6-1.1.9-1.9.9-.5 0-1-.1-1.4-.4-.4-.3-.7-.7-.9-1.2s-.3-1.1-.3-1.8c0-1.1.2-1.9.7-2.5s1.1-.9 1.9-.9c.8 0 1.4.3 1.9.9s.7 1.5.7 2.5zm-3.6 0c0 .7.1 1.2.2 1.5s.4.5.7.5c.6 0 1-.7 1-2.1 0-.7-.1-1.2-.2-1.5s-.4-.5-.7-.5c-.3 0-.6.2-.7.5s-.3 1-.3 1.6zM560.8 485.2c.2 0 .4 0 .6.1l-.2 1.5c-.1 0-.3-.1-.4-.1-.4 0-.7.1-.9.5-.2.3-.3.7-.3 1.3v3.4H558v-6.5h1.3l.2 1h.1c.2-.4.4-.7.6-.9.1-.2.3-.3.6-.3zM562.1 483.6c0-.3.1-.5.2-.6s.4-.2.7-.2c.3 0 .5.1.6.2.2.2.2.4.2.6 0 .3-.1.5-.2.6-.2.1-.4.2-.6.2-.3 0-.5-.1-.6-.2-.3-.2-.3-.4-.3-.6zm1.6 8.2h-1.6v-6.5h1.6v6.5zM568.5 491.8v-3.9c0-.5-.1-.8-.2-1.1-.1-.2-.3-.4-.6-.4s-.6.2-.8.5c-.2.3-.2.9-.2 1.7v3.1h-1.6v-6.5h1.3l.2.8h.1c.1-.3.4-.5.6-.7.3-.2.6-.3 1-.3.6 0 1.1.2 1.4.6.3.4.5 1 .5 1.8v4.3h-1.7zM576.3 485.3v.9l-.8.2c.2.3.2.6.2 1 0 .7-.2 1.2-.6 1.6-.4.4-.9.6-1.6.6h-.5c-.1.1-.2.1-.2.2-.1.1-.1.2-.1.3 0 .3.2.4.7.4h1c.6 0 1 .1 1.3.4.3.3.5.8.5 1.4 0 .8-.3 1.3-.8 1.8s-1.3.6-2.3.6c-.8 0-1.3-.2-1.7-.5-.4-.3-.6-.8-.6-1.3 0-.4.1-.7.3-1s.6-.5 1-.6c-.2-.1-.4-.2-.5-.4-.1-.2-.2-.4-.2-.6 0-.1 0-.3.1-.4 0-.1.1-.2.2-.3.1-.1.2-.2.5-.4-.3-.2-.5-.4-.7-.8-.2-.3-.2-.7-.2-1.1 0-.7.2-1.3.6-1.7.4-.4.9-.6 1.7-.6h.5c.2 0 .3.1.4.1h1.8zm-4 7.5c0 .3.1.5.3.6.2.1.4.2.7.2.5 0 .9-.1 1.1-.3.2-.2.4-.4.4-.7 0-.2-.1-.4-.2-.5s-.4-.2-.7-.2h-.8c-.2 0-.4.1-.5.2-.2.2-.3.4-.3.7zm.5-5.4c0 .8.2 1.2.7 1.2.4 0 .7-.4.7-1.2 0-.8-.2-1.2-.7-1.2-.4 0-.7.4-.7 1.2zM584.4 489.5c0 .8-.2 1.4-.6 1.8-.4.4-1 .6-1.8.6s-1.4-.1-2-.4v-1.6c.7.4 1.3.6 1.8.6.3 0 .6-.1.7-.3.2-.2.2-.4.2-.7 0-.3-.1-.5-.3-.8-.2-.2-.5-.5-.9-.8-.4-.3-.7-.5-.9-.7-.2-.2-.3-.5-.5-.8-.1-.3-.2-.6-.2-1 0-.7.2-1.3.6-1.8.4-.4 1-.6 1.7-.6s1.3.2 2 .6l-.5 1.3-.6-.3c-.2-.1-.4-.1-.7-.1-.3 0-.5.1-.6.3-.1.2-.2.4-.2.7 0 .3.1.5.3.8.2.2.5.5.9.7.6.4 1 .8 1.2 1.2.3.3.4.8.4 1.3zM587.9 492c-.8 0-1.5-.3-2-.9s-.7-1.4-.7-2.5.2-1.9.7-2.5c.4-.6 1.1-.9 1.9-.9.7 0 1.3.3 1.7.8.4.5.6 1.2.6 2.2v.8h-3.3c0 .6.1 1 .4 1.3.2.3.6.4 1 .4.5 0 1.1-.2 1.6-.5v1.3c-.6.3-1.2.5-1.9.5zm-.3-5.6c-.2 0-.4.1-.6.4-.2.2-.2.6-.3 1.1h1.6c0-.5-.1-.8-.2-1.1 0-.3-.2-.4-.5-.4zM594 485.2c.2 0 .4 0 .6.1l-.2 1.5c-.1 0-.3-.1-.4-.1-.4 0-.7.1-.9.5-.2.3-.3.7-.3 1.3v3.4h-1.6v-6.5h1.3l.2 1h.1c.2-.4.4-.7.6-.9.1-.2.3-.3.6-.3zM596.4 491.8l-1.8-6.5h1.7l.9 3.8c0 .2.1.4.1.8s.1.6.1.7c0-.1 0-.3.1-.5 0-.2.1-.4.1-.6s.3-1.6.9-4.2h1.7l-1.8 6.5h-2zM603.4 492c-.8 0-1.5-.3-2-.9s-.7-1.4-.7-2.5.2-1.9.7-2.5c.4-.6 1.1-.9 1.9-.9.7 0 1.3.3 1.7.8.4.5.6 1.2.6 2.2v.8h-3.3c0 .6.1 1 .4 1.3.2.3.6.4 1 .4.5 0 1.1-.2 1.6-.5v1.3c-.6.3-1.2.5-1.9.5zm-.3-5.6c-.2 0-.4.1-.6.4-.2.2-.2.6-.3 1.1h1.6c0-.5-.1-.8-.2-1.1 0-.3-.2-.4-.5-.4zM609.5 485.2c.2 0 .4 0 .6.1l-.2 1.5c-.1 0-.3-.1-.4-.1-.4 0-.7.1-.9.5-.2.3-.3.7-.3 1.3v3.4h-1.6v-6.5h1.3l.2 1h.1c.2-.4.4-.7.6-.9.1-.2.3-.3.6-.3zM502.3 502.1c0-1 .2-2 .5-2.9.3-.9.8-1.7 1.4-2.4h1.4c-.6.8-1 1.6-1.3 2.5-.3.9-.4 1.8-.4 2.8 0 1 .2 1.9.5 2.8.3.9.7 1.7 1.3 2.4h-1.4c-.6-.7-1.1-1.4-1.4-2.3-.5-.9-.6-1.9-.6-2.9zM509.9 505.4v-3.9c0-.5-.1-.8-.2-1.1-.1-.2-.3-.4-.6-.4s-.6.2-.8.5c-.2.3-.2.9-.2 1.7v3.1h-1.6v-6.5h1.3l.2.8h.1c.1-.3.4-.5.6-.7.3-.2.6-.3 1-.3.6 0 1.1.2 1.4.6.3.4.5 1 .5 1.8v4.3h-1.7zM517.9 502.1c0 1.1-.2 1.9-.7 2.5-.5.6-1.1.9-1.9.9-.5 0-1-.1-1.4-.4-.4-.3-.7-.7-.9-1.2s-.3-1.1-.3-1.8c0-1.1.2-1.9.7-2.5s1.1-.9 1.9-.9c.8 0 1.4.3 1.9.9s.7 1.5.7 2.5zm-3.6 0c0 .7.1 1.2.2 1.5s.4.5.7.5c.6 0 1-.7 1-2.1 0-.7-.1-1.2-.2-1.5s-.4-.5-.7-.5c-.3 0-.6.2-.7.5s-.3.9-.3 1.6zM522.4 505.4v-3.9c0-.5-.1-.8-.2-1.1-.1-.2-.3-.4-.6-.4s-.6.2-.8.5c-.2.3-.2.9-.2 1.7v3.1H519v-6.5h1.3l.2.8h.1c.1-.3.4-.5.6-.7.3-.2.6-.3 1-.3.6 0 1.1.2 1.4.6.3.4.5 1 .5 1.8v4.3h-1.7zM525.1 502.8v-1.4h3.1v1.4h-3.1zM531.6 505.5c-.8 0-1.4-.3-1.8-.9-.4-.6-.6-1.4-.6-2.5 0-1.2.2-2 .6-2.6.4-.6 1-.9 1.9-.9.3 0 .5 0 .8.1.3.1.5.2.7.3l-.5 1.2c-.3-.2-.6-.3-.9-.3-.3 0-.6.2-.7.5s-.2.9-.2 1.6c0 .7.1 1.2.2 1.5.1.3.4.5.7.5.4 0 .8-.1 1.3-.4v1.4c-.6.4-1 .5-1.5.5zM535.6 505.4H534v-9.1h1.6v9.1zM540.6 505.4l-.2-.8h-.1c-.2.3-.4.5-.6.7-.3.2-.6.3-1 .3-.6 0-1.1-.2-1.4-.6-.3-.4-.5-1-.5-1.8v-4.3h1.6v3.9c0 .5.1.8.2 1.1.1.2.3.4.6.4s.6-.2.8-.5c.2-.3.2-.9.2-1.7V499h1.6v6.5h-1.2zM546.9 503.5c0 .6-.2 1.1-.6 1.5s-1 .5-1.7.5-1.2-.1-1.7-.4v-1.4c.2.1.5.3.8.4.3.1.6.1.8.1.3 0 .4-.1.6-.2.1-.1.2-.3.2-.5s-.1-.4-.2-.5c-.1-.1-.4-.3-.8-.5-.5-.3-.8-.6-1.1-.9-.2-.3-.3-.7-.3-1.1 0-.6.2-1 .6-1.3.4-.3.9-.5 1.6-.5.6 0 1.2.2 1.7.5l-.5 1.1c-.4-.2-.8-.3-1.1-.3-.2 0-.4.1-.5.2-.1.1-.2.2-.2.4s.1.3.2.5c.1.1.4.3.7.5.4.2.7.5.9.6.2.2.3.4.4.6s.2.4.2.7zM550.3 504.2c.2 0 .5-.1.7-.2v1.2c-.3.2-.7.3-1.2.3-.6 0-1-.2-1.3-.5s-.4-.8-.4-1.5v-3.4h-.7v-.7l.8-.6.4-1.4h1v1.4h1.2v1.2h-1.2v3.4c.1.6.3.8.7.8zM554.5 505.5c-.8 0-1.5-.3-2-.9s-.7-1.4-.7-2.5.2-1.9.7-2.5c.4-.6 1.1-.9 1.9-.9.7 0 1.3.3 1.7.8.4.5.6 1.2.6 2.2v.8h-3.3c0 .6.1 1 .4 1.3.2.3.6.4 1 .4.5 0 1.1-.2 1.6-.5v1.3c-.6.3-1.2.5-1.9.5zm-.3-5.6c-.2 0-.4.1-.6.4-.2.2-.2.6-.3 1.1h1.6c0-.5-.1-.8-.2-1.1s-.2-.4-.5-.4zM560.6 498.7c.2 0 .4 0 .6.1l-.2 1.5c-.1 0-.3-.1-.4-.1-.4 0-.7.1-.9.5-.2.3-.3.7-.3 1.3v3.4h-1.6v-6.5h1.3l.2 1h.1c.2-.4.4-.7.6-.9.1-.2.3-.3.6-.3zM564.4 505.5c-.8 0-1.5-.3-2-.9s-.7-1.4-.7-2.5.2-1.9.7-2.5c.4-.6 1.1-.9 1.9-.9.7 0 1.3.3 1.7.8.4.5.6 1.2.6 2.2v.8h-3.3c0 .6.1 1 .4 1.3.2.3.6.4 1 .4.5 0 1.1-.2 1.6-.5v1.3c-.6.3-1.2.5-1.9.5zm-.2-5.6c-.2 0-.4.1-.6.4-.2.2-.2.6-.3 1.1h1.6c0-.5-.1-.8-.2-1.1s-.3-.4-.5-.4zM569.4 505.5c-.6 0-1.1-.3-1.5-.9s-.5-1.4-.5-2.5.2-1.9.5-2.5.8-.9 1.5-.9c.3 0 .6.1.8.2.2.1.4.4.6.7h.1c0-.6-.1-1-.1-1.3v-2.2h1.6v9.1h-1.2l-.3-.9h-.1c-.2.9-.7 1.2-1.4 1.2zm.5-1.3c.3 0 .5-.1.7-.4.1-.3.2-.7.2-1.4v-.2c0-.8-.1-1.3-.2-1.6s-.4-.5-.7-.5c-.3 0-.5.2-.7.5-.1.4-.2.9-.2 1.5 0 .7.1 1.2.2 1.5.2.4.4.6.7.6zM576.7 502.1c0 1-.2 2-.5 2.9-.3.9-.8 1.7-1.4 2.3h-1.4c.5-.7 1-1.5 1.3-2.4.3-.9.5-1.8.5-2.8 0-1-.1-1.9-.4-2.8-.3-.9-.7-1.7-1.3-2.5h1.4c.6.7 1.1 1.5 1.4 2.4.3.9.4 1.8.4 2.9z" class="st5"/><circle cx="540" cy="559" r="30" class="st6"/><path d="M524.7 556.8v14.9h17.9v-10.6h-4.8v5.7h-8.3v-9.9c0-1.2.3-2.4.8-3.6.5-1.2 1.3-2.3 2.3-3.2.9-.8 2-1.5 3.2-2 1.3-.5 2.6-.7 4.1-.7 1.3 0 2.7.3 3.9.8 1.3.5 2.4 1.2 3.3 2.1.9.9 1.7 1.9 2.1 3.1.5 1.1.7 2.3.7 3.5v14.9h5v-14.6c0-2.1-.4-4.1-1.1-5.9-.7-1.8-1.8-3.4-3.2-4.8-1.5-1.5-3.1-2.6-4.9-3.4-1.8-.8-3.8-1.2-5.8-1.2s-3.9.3-5.6 1c-1.7.6-3.3 1.6-4.7 2.8-1.7 1.5-2.9 3.1-3.7 5-.8 1.9-1.2 3.9-1.2 6.1z" class="st7"/><g><path d="M582 601h-84c-1.7 0-3-1.3-3-3v-11c0-1.7 1.3-3 3-3h84c1.7 0 3 1.3 3 3v11c0 1.7-1.3 3-3 3z" class="st33"/><path d="M503.4 594.5H501l-.6 1.7H499l2.8-7.8h1.1l2.8 7.8H504l-.6-1.7zm-2-1.2h1.6l-.6-1.7-.2-1.2h-.1l-.2 1.2-.5 1.7zM510.7 596.2c0 .8-.2 1.4-.6 1.8s-1 .6-1.8.6c-.5 0-.9 0-1.2-.1s-.5-.2-.7-.2l.3-1.1c.2.1.4.1.6.2.2.1.5.1.8.1.5 0 .8-.1 1-.3.2-.2.3-.5.3-.9v-.4c-.3.3-.7.5-1.4.5s-1.2-.2-1.6-.7c-.3-.4-.5-1.1-.5-2.1s.2-1.7.7-2.2 1.2-.8 2-.8c.5 0 .9 0 1.3.1s.7.1.9.2v5.3zm-2.4-1.1c.3 0 .5-.1.6-.2.2-.1.3-.3.3-.6v-2.5c-.2-.1-.5-.1-.8-.1-.4 0-.7.1-.9.4-.2.3-.3.7-.3 1.3 0 .5.1.9.3 1.2.2.4.4.5.8.5zM516.6 596.2c0 .8-.2 1.4-.6 1.8s-1 .6-1.8.6c-.5 0-.9 0-1.2-.1s-.5-.2-.7-.2l.3-1.1c.2.1.4.1.6.2.2.1.5.1.8.1.5 0 .8-.1 1-.3.2-.2.3-.5.3-.9v-.4c-.3.3-.7.5-1.4.5s-1.2-.2-1.6-.7c-.3-.4-.5-1.1-.5-2.1s.2-1.7.7-2.2 1.2-.8 2-.8c.5 0 .9 0 1.3.1s.7.1.9.2v5.3zm-2.4-1.1c.3 0 .5-.1.6-.2.2-.1.3-.3.3-.6v-2.5c-.2-.1-.5-.1-.8-.1-.4 0-.7.1-.9.4-.2.3-.3.7-.3 1.3 0 .5.1.9.3 1.2.2.4.4.5.8.5zM520.9 592c-.2-.1-.4-.1-.6-.1-.3 0-.5.1-.6.2s-.3.3-.3.5v3.6H518v-5.5h1.1l.2.7c.1-.3.3-.5.5-.6.2-.1.5-.2.7-.2.2 0 .4 0 .6.1l-.2 1.3zM526.1 595.7c-.2.2-.5.3-.9.4-.4.1-.8.2-1.2.2-.9 0-1.5-.3-1.9-.8-.4-.5-.6-1.2-.6-2.1 0-1 .2-1.7.7-2.2.5-.5 1.1-.7 1.9-.7.3 0 .6 0 .8.1.3.1.5.2.7.4.2.2.4.4.5.7.1.3.2.6.2 1.1v.5c0 .2 0 .4-.1.5h-3.3c0 .5.1.8.4 1 .2.2.6.4 1 .4.3 0 .6 0 .8-.1.2-.1.4-.2.5-.3l.5.9zm-2.1-4c-.4 0-.6.1-.8.3s-.3.5-.3.9h2c0-.4 0-.7-.2-.9-.1-.2-.3-.3-.7-.3zM530 592.2h2.9v3.4c-.3.3-.7.4-1.1.6-.4.1-.9.2-1.3.2-.5 0-.9-.1-1.4-.2s-.8-.4-1.1-.7c-.3-.3-.6-.7-.7-1.2-.2-.5-.3-1.1-.3-1.8s.1-1.3.3-1.9.5-.9.8-1.2c.3-.3.7-.5 1.1-.7.4-.1.9-.2 1.3-.2s.8 0 1.2.1c.3.1.6.1.8.2l-.3 1.3c-.2-.1-.4-.1-.6-.2-.2 0-.5-.1-.9-.1-.3 0-.6 0-.9.1-.3.1-.5.3-.7.5-.2.2-.3.5-.5.8-.1.3-.2.7-.2 1.2s.1.9.2 1.2c.1.3.2.6.4.8.2.2.4.4.6.5s.5.2.8.2c.2 0 .4 0 .6-.1.2 0 .3-.1.5-.2v-1.5l-1.7-.2v-.9zM533.9 591c.3-.1.6-.2 1-.3.4-.1.8-.1 1.3-.1.4 0 .7 0 1 .1s.5.2.6.4c.1.2.3.4.3.6.1.2.1.5.1.8v2.9c0 .3.1.6.2.8h-1.2l-.2-.8h-.1c-.1.2-.4.4-.6.6s-.6.2-1 .2c-.3 0-.5 0-.7-.1-.2-.1-.4-.2-.5-.3-.1-.1-.3-.3-.3-.5s-.1-.4-.1-.7c0-.3.1-.6.2-.9l.6-.6c.3-.1.6-.2 1-.3.4-.1.8-.1 1.3 0 .1-.4 0-.7-.1-.9-.1-.2-.4-.3-.7-.3-.3 0-.6 0-.9.1-.3.1-.6.1-.8.2l-.4-.9zm1.9 4.1c.3 0 .5-.1.7-.2.2-.1.3-.3.4-.4v-.7h-.7c-.3 0-.4 0-.6.1-.2.1-.3.1-.4.2-.1.1-.1.2-.1.4s.1.4.2.5c.1.1.2.1.5.1zM538.9 590.7h.8v-1l1.4-.4v1.4h1.3v1.2H541v2.1c0 .4 0 .7.1.8.1.2.2.2.4.2h.4c.1 0 .2-.1.4-.1l.3 1.1c-.2.1-.4.2-.7.2-.3.1-.5.1-.8.1-.5 0-.9-.1-1.1-.4-.2-.3-.4-.7-.4-1.3v-2.8h-.8v-1.1zM547.6 595.7c-.2.2-.5.3-.9.4-.4.1-.8.2-1.2.2-.9 0-1.5-.3-1.9-.8-.4-.5-.6-1.2-.6-2.1 0-1 .2-1.7.7-2.2.5-.5 1.1-.7 1.9-.7.3 0 .6 0 .8.1.3.1.5.2.7.4.2.2.4.4.5.7.1.3.2.6.2 1.1v.5c0 .2 0 .4-.1.5h-3.3c0 .5.1.8.4 1 .2.2.6.4 1 .4.3 0 .6 0 .8-.1.2-.1.4-.2.5-.3l.5.9zm-2-4c-.4 0-.6.1-.8.3s-.3.5-.3.9h2c0-.4 0-.7-.2-.9-.2-.2-.4-.3-.7-.3zM554.9 594.1c0-.2-.1-.4-.3-.6-.2-.1-.4-.3-.6-.4-.3-.1-.5-.2-.8-.4-.3-.1-.6-.3-.8-.5-.3-.2-.5-.4-.6-.7s-.3-.6-.3-1.1c0-.4.1-.7.2-1 .1-.3.3-.5.5-.7.2-.2.5-.3.8-.4.3-.1.7-.1 1.1-.1.4 0 .9 0 1.3.1s.7.2 1 .3l-.5 1.3c-.2-.1-.4-.2-.7-.3-.3-.1-.7-.1-1-.1-.4 0-.6.1-.8.2-.2.1-.3.3-.3.6 0 .2.1.4.3.6.2.1.4.3.6.4.3.1.5.3.8.4.3.1.6.3.8.5.3.2.5.4.6.7.2.3.3.6.3 1s-.1.8-.2 1.1c-.1.3-.3.5-.6.7-.2.2-.5.3-.9.4-.3.1-.7.1-1.1.1-.5 0-1-.1-1.5-.2s-.7-.2-.9-.3l.5-1.3c.1 0 .2.1.3.1.1.1.3.1.4.1.2 0 .3.1.5.1h.6c.4 0 .8-.1 1-.2.2.2.3-.1.3-.4zM561.8 595.7c-.2.2-.5.3-.9.4-.4.1-.8.2-1.2.2-.9 0-1.5-.3-1.9-.8-.4-.5-.6-1.2-.6-2.1 0-1 .2-1.7.7-2.2.5-.5 1.1-.7 1.9-.7.3 0 .6 0 .8.1.3.1.5.2.7.4.2.2.4.4.5.7.1.3.2.6.2 1.1v.5c0 .2 0 .4-.1.5h-3.3c0 .5.1.8.4 1 .2.2.6.4 1 .4.3 0 .6 0 .8-.1.2-.1.4-.2.5-.3l.5.9zm-2-4c-.4 0-.6.1-.8.3s-.3.5-.3.9h2c0-.4 0-.7-.2-.9-.2-.2-.4-.3-.7-.3zM566 592c-.2-.1-.4-.1-.6-.1-.3 0-.5.1-.6.2s-.3.3-.3.5v3.6H563v-5.5h1.1l.2.7c.1-.3.3-.5.5-.6.2-.1.5-.2.7-.2.2 0 .4 0 .6.1l-.1 1.3zM568.8 593.6l.2.8h.1l.2-.9.9-2.9h1.5l-2.3 5.6h-.9l-2.4-5.6h1.7l1 3zM576.4 595.7c-.2.2-.5.3-.9.4-.4.1-.8.2-1.2.2-.9 0-1.5-.3-1.9-.8-.4-.5-.6-1.2-.6-2.1 0-1 .2-1.7.7-2.2.5-.5 1.1-.7 1.9-.7.3 0 .6 0 .8.1.3.1.5.2.7.4.2.2.4.4.5.7.1.3.2.6.2 1.1v.5c0 .2 0 .4-.1.5h-3.3c0 .5.1.8.4 1 .2.2.6.4 1 .4.3 0 .6 0 .8-.1.2-.1.4-.2.5-.3l.5.9zm-2-4c-.4 0-.6.1-.8.3s-.3.5-.3.9h2c0-.4 0-.7-.2-.9-.2-.2-.4-.3-.7-.3zM580.7 592c-.2-.1-.4-.1-.6-.1-.3 0-.5.1-.6.2s-.3.3-.3.5v3.6h-1.4v-5.5h1.1l.2.7c.1-.3.3-.5.5-.6.2-.1.5-.2.7-.2.2 0 .4 0 .6.1l-.2 1.3z" class="st7"/></g><g><path d="M567 695h-54c-1.7 0-3-1.3-3-3v-11c0-1.7 1.3-3 3-3h54c1.7 0 3 1.3 3 3v11c0 1.7-1.3 3-3 3z" class="st33"/><path d="M518.8 682.5c.2 0 .3 0 .5-.1s.4 0 .6 0h1.1c.7 0 1.3.1 1.7.3.5.2.9.5 1.2.8.3.3.5.8.7 1.2.1.5.2 1 .2 1.6 0 .5-.1 1-.2 1.5s-.4.9-.7 1.3c-.3.4-.7.7-1.2.9-.5.2-1.1.3-1.9.3h-2.1v-7.8zm2.4 1.2h-.9v5.2h.7c.4 0 .8-.1 1.1-.2s.5-.4.7-.6.3-.5.3-.9.1-.7.1-1c0-.3 0-.6-.1-.9-.1-.3-.2-.6-.3-.8l-.6-.6c-.2-.1-.6-.2-1-.2zM525.9 685c.3-.1.6-.2 1-.3.4-.1.8-.1 1.3-.1.4 0 .7 0 1 .1s.5.2.6.4c.1.2.3.4.3.6.1.2.1.5.1.8v2.9c0 .3.1.6.2.8h-1.2l-.2-.8h-.1c-.1.2-.4.4-.6.6s-.6.2-1 .2c-.3 0-.5 0-.7-.1-.2-.1-.4-.2-.5-.3-.1-.1-.3-.3-.3-.5s-.1-.4-.1-.7c0-.3.1-.6.2-.9l.6-.6c.3-.1.6-.2 1-.3.4-.1.8-.1 1.3 0 .1-.4 0-.7-.1-.9-.1-.2-.4-.3-.7-.3-.3 0-.6 0-.9.1-.3.1-.6.1-.8.2l-.4-.9zm1.8 4.1c.3 0 .5-.1.7-.2.2-.1.3-.3.4-.4v-.7h-.7c-.3 0-.4 0-.6.1-.2.1-.3.1-.4.2-.1.1-.1.2-.1.4s.1.4.2.5c.1.1.3.1.5.1zM530.8 684.7h.8v-1l1.4-.4v1.4h1.3v1.2H533v2.1c0 .4 0 .7.1.8.1.2.2.2.4.2h.4c.1 0 .2-.1.4-.1l.3 1.1c-.2.1-.4.2-.7.2-.3.1-.5.1-.8.1-.5 0-.9-.1-1.1-.4-.2-.3-.4-.7-.4-1.3v-2.8h-.8v-1.1zM535.2 685c.3-.1.6-.2 1-.3.4-.1.8-.1 1.3-.1.4 0 .7 0 1 .1s.5.2.6.4c.1.2.3.4.3.6.1.2.1.5.1.8v2.9c0 .3.1.6.2.8h-1.2l-.2-.8h-.1c-.1.2-.4.4-.6.6s-.6.2-1 .2c-.3 0-.5 0-.7-.1-.2-.1-.4-.2-.5-.3-.1-.1-.3-.3-.3-.5s-.1-.4-.1-.7c0-.3.1-.6.2-.9l.6-.6c.3-.1.6-.2 1-.3.4-.1.8-.1 1.3 0 .1-.4 0-.7-.1-.9-.1-.2-.4-.3-.7-.3-.3 0-.6 0-.9.1-.3.1-.6.1-.8.2l-.4-.9zm1.8 4.1c.3 0 .5-.1.7-.2.2-.1.3-.3.4-.4v-.7h-.7c-.3 0-.4 0-.6.1-.2.1-.3.1-.4.2-.1.1-.1.2-.1.4s.1.4.2.5c.1.1.3.1.5.1zM540.7 682.5h1.4v2.6c.2-.2.4-.3.6-.4.2-.1.5-.2.8-.2.7 0 1.2.2 1.5.7.3.5.5 1.1.5 2.1s-.2 1.7-.7 2.3c-.5.5-1.2.8-2 .8-.5 0-.9 0-1.3-.1s-.7-.2-.9-.3v-7.5zm2.4 3.3c-.3 0-.5.1-.6.2s-.3.3-.4.6v2.4c.1.1.2.1.4.1h.4c.4 0 .7-.1.9-.4.2-.3.3-.7.3-1.3 0-1.1-.3-1.6-1-1.6zM546.5 685c.3-.1.6-.2 1-.3.4-.1.8-.1 1.3-.1.4 0 .7 0 1 .1s.5.2.6.4c.1.2.3.4.3.6.1.2.1.5.1.8v2.9c0 .3.1.6.2.8h-1.2l-.2-.8h-.1c-.1.2-.4.4-.6.6s-.6.2-1 .2c-.3 0-.5 0-.7-.1-.2-.1-.4-.2-.5-.3-.1-.1-.3-.3-.3-.5s-.1-.4-.1-.7c0-.3.1-.6.2-.9l.6-.6c.3-.1.6-.2 1-.3.4-.1.8-.1 1.3 0 .1-.4 0-.7-.1-.9-.1-.2-.4-.3-.7-.3-.3 0-.6 0-.9.1-.3.1-.6.1-.8.2l-.4-.9zm1.9 4.1c.3 0 .5-.1.7-.2.2-.1.3-.3.4-.4v-.7h-.7c-.3 0-.4 0-.6.1-.2.1-.3.1-.4.2-.1.1-.1.2-.1.4s.1.4.2.5c.1.1.2.1.5.1zM554.3 688.7c0-.1-.1-.3-.2-.4-.1-.1-.3-.2-.5-.2s-.4-.1-.6-.2l-.6-.3c-.2-.1-.3-.3-.5-.5-.1-.2-.2-.5-.2-.8 0-.5.2-1 .5-1.2.3-.3.8-.4 1.4-.4.4 0 .8 0 1.1.1.3.1.6.2.8.3l-.3 1c-.2-.1-.4-.1-.6-.2-.3-.1-.5-.1-.8-.1-.4 0-.6.2-.6.5 0 .1.1.2.2.3.1.1.3.2.5.2.2.1.4.1.6.2l.6.3c.2.1.3.3.5.5s.2.5.2.8c0 .6-.2 1-.5 1.3-.4.3-.9.5-1.6.5-.4 0-.8 0-1.1-.1-.3-.1-.6-.2-.8-.3l.4-1.1c.2.1.4.2.7.3.3.1.6.1.9.1.2 0 .4 0 .5-.1-.1-.2 0-.3 0-.5zM561.1 689.7c-.2.2-.5.3-.9.4-.4.1-.8.2-1.2.2-.9 0-1.5-.3-1.9-.8-.4-.5-.6-1.2-.6-2.1 0-1 .2-1.7.7-2.2.5-.5 1.1-.7 1.9-.7.3 0 .6 0 .8.1.3.1.5.2.7.4.2.2.4.4.5.7.1.3.2.6.2 1.1v.5c0 .2 0 .4-.1.5h-3.3c0 .5.1.8.4 1 .2.2.6.4 1 .4.3 0 .6 0 .8-.1.2-.1.4-.2.5-.3l.5.9zm-2.1-4c-.4 0-.6.1-.8.3s-.3.5-.3.9h2c0-.4 0-.7-.2-.9-.1-.2-.3-.3-.7-.3z" class="st7"/></g><g id="db_x5F_02_9_"><path d="M566 664v-32.5c0-6.9-6.5-11.2-10.5-13.1-5.1-2.3-10.1-3.2-15.5-3.2s-10.4.8-15.5 3.2c-4 1.9-10.5 6.1-10.5 13.1V664c0 6.9 6.5 11.2 10.5 13.1 5.1 2.3 10.1 3.2 15.5 3.2s10.4-.8 15.5-3.2c4-1.9 10.5-6.2 10.5-13.1z" class="st9"/><path d="M514 631.5c0 6.9 6.5 11.2 10.5 13.1 5.1 2.3 10.1 3.2 15.5 3.2s10.4-.8 15.5-3.2c4-1.9 10.5-6.1 10.5-13.1" class="st10"/><path d="M514 642.9c0 6.9 6.5 11.2 10.5 13.1 5.1 2.3 10.1 3.2 15.5 3.2s10.4-.8 15.5-3.2c4-1.9 10.5-6.1 10.5-13.1" class="st10"/><path d="M514 654.4c0 6.9 6.5 11.2 10.5 13.1 5.1 2.3 10.1 3.2 15.5 3.2s10.4-.8 15.5-3.2c4-1.9 10.5-6.1 10.5-13.1" class="st10"/><ellipse cx="540" cy="631.5" class="st11" rx="26" ry="16.4"/></g></g></svg>